<?xml version="1.0" standalone="no"?>
<!DOCTYPE svg PUBLIC "-//W3C//DTD SVG 1.1//EN" "http://www.w3.org/Graphics/SVG/1.1/DTD/svg11.dtd" >
<svg xmlns="http://www.w3.org/2000/svg" xmlns:xlink="http://www.w3.org/1999/xlink" version="1.1">
<metadata>
Created by FontForge 20170731 at Tue Apr 24 19:59:48 2012
 By ,,,
2010 Hans Reichel published by FSI FontShop International GmbH
</metadata>
<defs>
<font id="Pzswfjrnmpqwiwemcnkqecfiwnp" horiz-adv-x="556" >
  <font-face 
    font-family="Pzswfjrnmpqwiwemcnkqecfiwnp"
    font-weight="400"
    font-stretch="normal"
    units-per-em="1000"
    panose-1="2 11 6 4 4 1 1 2 1 2"
    ascent="753"
    descent="-247"
    x-height="518"
    cap-height="706"
    bbox="-723 -294 1253 998"
    underline-thickness="70"
    underline-position="-280"
    unicode-range="U+0020-FB02"
  />
<missing-glyph horiz-adv-x="620" 
d="M74 0v706h472v-706h-472zM471 638h-322v-570h322v570z" />
    <glyph glyph-name="fi" unicode="fi" horiz-adv-x="585" 
d="M513 17q0 -17 -17 -17h-80q-17 0 -17 17v484q0 17 17 17h80q17 0 17 -17v-484zM522 659q0 -23 -18.5 -38.5t-47.5 -15.5t-47.5 15.5t-18.5 38.5t18.5 38.5t47.5 15.5t47.5 -15.5t18.5 -38.5zM325 726q0 -19 -10.5 -30.5t-32.5 -11.5q-11 0 -19 3t-20 3q-15 0 -25 -9
t-15.5 -22t-8 -29t-2.5 -29q0 -23 4.5 -45.5t12.5 -37.5h86q17 0 17 -17v-29q0 -18 -17 -18h-81v-437q0 -17 -17 -17h-79q-17 0 -17 17v437h-56q-18 0 -18 18v29q0 17 18 17h56q0 79 16 129t40 78t53 38t55 10q32 0 46 -14.5t14 -32.5z" />
    <glyph glyph-name="fl" unicode="fl" horiz-adv-x="595" 
d="M523 17q0 -17 -17 -17h-80q-17 0 -17 17v731q0 17 17 17h80q17 0 17 -17v-731zM325 726q0 -19 -10.5 -30.5t-32.5 -11.5q-11 0 -19 3t-20 3q-15 0 -25 -9t-15.5 -22t-8 -29t-2.5 -29q0 -23 4.5 -45.5t12.5 -37.5h86q17 0 17 -17v-29q0 -18 -17 -18h-81v-437
q0 -17 -17 -17h-79q-17 0 -17 17v437h-56q-18 0 -18 18v29q0 17 18 17h56q0 79 16 129t40 78t53 38t55 10q32 0 46 -14.5t14 -32.5z" />
    <glyph glyph-name=".notdef" horiz-adv-x="620" 
d="M74 0v706h472v-706h-472zM471 638h-322v-570h322v570z" />
    <glyph glyph-name=".null" horiz-adv-x="0" 
 />
    <glyph glyph-name="nonmarkingreturn" horiz-adv-x="277" 
 />
    <glyph glyph-name="space" unicode=" " horiz-adv-x="277" 
 />
    <glyph glyph-name="exclam" unicode="!" horiz-adv-x="361" 
d="M223 250q-1 -8 -6 -12t-13 -4h-47q-8 0 -13 4t-6 12l-26 439q0 17 18 17h101q18 0 18 -17zM254 66q0 -31 -21 -52.5t-52 -21.5t-52.5 21.5t-21.5 52.5t21.5 52.5t52.5 21.5t52 -21.5t21 -52.5z" />
    <glyph glyph-name="quotedbl" unicode="&#x22;" horiz-adv-x="454" 
d="M365 463q-1 -5 -3 -8.5t-9 -3.5h-42q-7 0 -9.5 3.5t-3.5 8.5l-23 242q0 19 17 31.5t40 12.5t40 -12.5t17 -31.5zM155 463q-1 -5 -3 -8.5t-9 -3.5h-42q-7 0 -9.5 3.5t-3.5 8.5l-23 242q0 19 17 31.5t40 12.5t40 -12.5t17 -31.5z" />
    <glyph glyph-name="numbersign" unicode="#" horiz-adv-x="661" 
d="M609 455q0 -16 -16 -16h-102l-22 -158h93q15 0 15 -16v-37q0 -16 -15 -16h-103l-27 -196q-3 -16 -20 -16h-43q-16 0 -16 14v4q0 3 1 7l27 187h-143l-27 -196q-3 -16 -20 -16h-43q-16 0 -16 14v3q0 2 1 8l27 187h-92q-16 0 -16 16v37q0 16 16 16h102l22 158h-93
q-16 0 -16 16v37q0 16 16 16h103l25 182q3 16 20 16h43q16 0 16 -14v-3q0 -2 -1 -8l-25 -173h143l25 182q3 16 20 16h43q16 0 16 -14v-4q0 -2 -1 -7l-25 -173h92q16 0 16 -16v-37zM270 439l-22 -158h143l22 158h-143z" />
    <glyph glyph-name="dollar" unicode="$" horiz-adv-x="567" 
d="M520 186q0 -41 -15.5 -76t-43.5 -61.5t-67.5 -42.5t-87.5 -19v-85q0 -19 -21 -19q-20 0 -20 19v85q-53 3 -94 20.5t-69 42t-42.5 52t-14.5 50.5t12.5 36.5t35.5 13.5q21 0 33.5 -11t19.5 -28q7 -19 17 -36.5t23.5 -31.5t32.5 -24t46 -13v262q-37 14 -74 30t-66.5 39.5
t-48 57t-18.5 83.5q0 38 13 71.5t39.5 58.5t65 40.5t89.5 18.5v79q0 19 20 19q21 0 21 -19v-79q52 -3 89 -19.5t60.5 -37.5t34.5 -43.5t11 -37.5q0 -23 -13 -34.5t-33 -11.5q-18 0 -30 10t-19 26q-15 33 -35 55.5t-65 29.5v-248q37 -14 75.5 -30.5t69 -41t50 -60.5t19.5 -90
zM423 171q0 28 -9.5 48.5t-25.5 36t-37 27t-45 22.5v-250q57 5 87 35.5t30 80.5zM265 659q-52 -4 -83.5 -32.5t-31.5 -82.5q0 -26 9.5 -44t25.5 -32t36.5 -24.5t43.5 -20.5v236z" />
    <glyph glyph-name="percent" unicode="%" horiz-adv-x="931" 
d="M870 222q0 -59 -12.5 -103t-33.5 -73t-48.5 -43.5t-58.5 -14.5t-58.5 14.5t-48.5 43.5t-33 73t-12 103t12 103t33 73t48.5 43.5t58.5 14.5t58.5 -14.5t48.5 -43.5t33.5 -73t12.5 -103zM366 483q0 -59 -12 -102.5t-33 -72.5t-48.5 -43.5t-58.5 -14.5t-58.5 14.5
t-48.5 43.5t-33.5 72.5t-12.5 102.5t12.5 103t33.5 73.5t48.5 44t58.5 14.5t58.5 -14.5t48.5 -44t33 -73.5t12 -103zM675 690q0 -3 -1 -6.5t-5 -10.5l-347 -656q-5 -9 -10 -13t-15 -4h-23q-18 0 -18 16q0 3 1 6.5t5 10.5l346 656q8 17 26 17h23q18 0 18 -16zM286 486
q0 97 -20.5 138.5t-51.5 41.5t-51.5 -41.5t-20.5 -138.5q0 -49 5.5 -83t15 -55.5t23 -31t28.5 -9.5t28.5 9.5t23 31t15 55.5t5.5 83zM789 224q0 97 -20.5 138.5t-51.5 41.5t-51.5 -41.5t-20.5 -138.5q0 -49 5.5 -83t15 -55.5t23 -31t28.5 -9.5t28.5 9.5t23 31t15 55.5
t5.5 83z" />
    <glyph glyph-name="ampersand" unicode="&#x26;" horiz-adv-x="751" 
d="M709 335q0 -24 -14.5 -36.5t-37.5 -12.5q-10 0 -19 1t-17 1q-35 0 -60.5 -21.5t-48.5 -53.5l164 -182q6 -6 6 -14q0 -17 -17 -17h-85q-8 0 -14 4t-11 9l-100 113q-18 -27 -38.5 -52.5t-47 -45t-59 -31t-74.5 -11.5q-39 0 -73 13t-59.5 35.5t-40 53.5t-14.5 67
q0 43 15 76.5t40 61t57 49.5t67 41q-17 19 -33 39t-28.5 41.5t-20 45t-7.5 49.5q0 36 14.5 66t41 51.5t63.5 33t82 11.5t80 -11t59 -30t36.5 -45.5t12.5 -57.5q0 -35 -14 -62.5t-37.5 -50.5t-54 -43t-63.5 -38l111 -123q18 25 37.5 47.5t41 39.5t45.5 27.5t52 10.5
q31 0 47 -14t16 -35zM437 565q0 43 -28 69.5t-74 26.5q-41 0 -69 -25.5t-28 -68.5q0 -20 7 -38.5t18.5 -35.5t25 -33t26.5 -30q51 28 86.5 59.5t35.5 75.5zM272 332q-49 -30 -83 -65.5t-34 -85.5q0 -45 30 -75.5t81 -30.5q44 0 78 30t66 72z" />
    <glyph glyph-name="quotesingle" unicode="'" horiz-adv-x="244" 
d="M179 700q0 -2 -1 -9l-23 -228q-1 -5 -3 -8.5t-9 -3.5h-42q-7 0 -9.5 3.5t-3.5 8.5l-22 228q-1 6 -1 9v5q0 19 17 31.5t40 12.5t40 -12.5t17 -31.5v-5z" />
    <glyph glyph-name="parenleft" unicode="(" horiz-adv-x="354" 
d="M326 -233q0 -10 -6 -18t-20 -8q-11 0 -20.5 6.5t-23.5 21.5q-39 43 -74.5 97t-63 118.5t-43.5 138t-16 156.5q0 82 16 156t43.5 138.5t63 118.5t74.5 97q14 15 23.5 21.5t20.5 6.5q14 0 20 -8t6 -18q0 -9 -3.5 -17t-11.5 -20q-58 -89 -94 -208.5t-36 -266.5t36 -266.5
t94 -208.5q8 -12 11.5 -20t3.5 -17z" />
    <glyph glyph-name="parenright" unicode=")" horiz-adv-x="354" 
d="M295 279q0 -83 -16 -156.5t-43.5 -138t-63 -118.5t-74.5 -97q-14 -15 -23.5 -21.5t-20.5 -6.5q-14 0 -20 8t-6 18q0 9 3.5 17t11.5 20q58 89 94 208.5t36 266.5t-36 266.5t-94 208.5q-8 12 -11.5 20t-3.5 17q0 10 6 18t20 8q11 0 20.5 -6.5t23.5 -21.5q39 -43 74.5 -97
t63 -118.5t43.5 -138.5t16 -156z" />
    <glyph glyph-name="asterisk" unicode="*" horiz-adv-x="563" 
d="M514 655q0 -10 -4.5 -18t-14.5 -10l-167 -43l109 -132q6 -7 6 -16q0 -8 -4.5 -15t-11.5 -13t-15.5 -9.5t-15.5 -3.5q-14 0 -22 11l-93 145l-92 -145q-8 -11 -22 -11q-7 0 -15.5 3.5t-15.5 9.5t-11.5 13t-4.5 15q0 9 6 16l109 132l-167 43q-10 2 -14.5 10t-4.5 18
q0 14 8.5 30.5t25.5 16.5h4q3 0 8 -2l159 -62l-11 174q0 12 10.5 19.5t27.5 7.5t28 -7.5t11 -19.5l-11 -174l159 62q5 2 7 2h5q17 0 25.5 -16.5t8.5 -30.5z" />
    <glyph glyph-name="plus" unicode="+" 
d="M508 279q0 -18 -19 -18h-170v-176q0 -19 -19 -19h-44q-19 0 -19 19v176h-170q-19 0 -19 18v41q0 19 19 19h170v171q0 19 19 19h44q19 0 19 -19v-171h170q19 0 19 -19v-41z" />
    <glyph glyph-name="comma" unicode="," horiz-adv-x="278" 
d="M213 49q0 -50 -14 -87t-34 -62t-41.5 -37.5t-35.5 -12.5q-11 0 -17 6.5t-6 14.5q0 11 10 22q19 20 31 42t12 45q0 19 -7.5 30t-17 21t-17 21.5t-7.5 31.5q0 22 17.5 39t46.5 17q36 0 58 -24.5t22 -66.5z" />
    <glyph glyph-name="hyphen" unicode="-" horiz-adv-x="317" 
d="M267 274q0 -18 -17 -18h-182q-18 0 -18 18v47q0 18 18 18h182q17 0 17 -18v-47z" />
    <glyph glyph-name="period" unicode="." horiz-adv-x="278" 
d="M213 66q0 -31 -21.5 -52.5t-52.5 -21.5t-52.5 21.5t-21.5 52.5t21.5 52.5t52.5 21.5t52.5 -21.5t21.5 -52.5z" />
    <glyph glyph-name="slash" unicode="/" horiz-adv-x="521" 
d="M476 779q0 -5 -2 -10l-358 -932q-4 -11 -15 -11q-3 0 -13 4t-21 8.5t-20.5 8.5t-11.5 5q-12 4 -12 14q0 3 3 11l358 932q4 11 14 11q3 0 11.5 -3t19 -7.5t20.5 -9t15 -6.5q8 -3 10 -7t2 -8z" />
    <glyph glyph-name="zero" unicode="0" 
d="M509 353q0 -91 -17.5 -159.5t-48.5 -114.5t-73 -69.5t-91 -23.5t-91.5 23.5t-73.5 69.5t-48.5 114.5t-17.5 159.5t17.5 159.5t48.5 114.5t73.5 69.5t91.5 23.5t91 -23.5t73 -69.5t48.5 -114.5t17.5 -159.5zM397 356q0 143 -32 216t-86 73t-86 -73t-32 -216t32 -215.5
t86 -72.5t86 72.5t32 215.5z" />
    <glyph glyph-name="one" unicode="1" 
d="M397 17q0 -17 -18 -17h-78q-18 0 -18 17v547q-19 -12 -44.5 -23t-50.5 -18.5t-45.5 -12t-29.5 -4.5q-14 0 -24.5 9t-10.5 24q0 12 8.5 20.5t20.5 11.5q27 7 57 18t60 26.5t58.5 36t51.5 46.5q15 17 34 17q29 0 29 -32v-666z" />
    <glyph glyph-name="two" unicode="2" 
d="M490 17q0 -17 -17 -17h-404q-9 0 -15 6t-6 16q0 7 3 12.5t8 11.5l241 316q29 37 47 76t18 74q0 57 -29.5 90t-85.5 33q-28 0 -48 -11t-34.5 -28t-23 -37.5t-12.5 -40.5q-7 -32 -36 -32q-15 0 -25 10.5t-10 29.5q0 32 12.5 66.5t38.5 63t66 46.5t95 18t94 -16t64 -42.5
t36.5 -60.5t11.5 -70q0 -28 -8.5 -56t-22.5 -54.5t-31 -51t-35 -45.5l-190 -227h281q17 0 17 -17v-63z" />
    <glyph glyph-name="three" unicode="3" 
d="M489 215q0 -51 -17.5 -93.5t-50 -72.5t-77.5 -46.5t-99 -16.5q-43 0 -78.5 11t-61 28t-39.5 37.5t-14 38.5q0 23 13.5 37t35.5 14q19 0 31 -9t20 -20q16 -25 41.5 -43t64.5 -18q55 0 87.5 36.5t32.5 92.5q0 34 -13.5 60.5t-36 46t-51 32t-57.5 19.5q-29 6 -29 27
q0 11 5.5 18t22.5 13q57 20 93.5 51.5t36.5 82.5q0 45 -29 70.5t-74 25.5q-27 0 -46.5 -8.5t-33.5 -22.5t-23 -31.5t-14 -34.5q-9 -29 -35 -29q-16 0 -25 10.5t-9 25.5q0 31 14 61.5t40.5 55.5t65 40.5t87.5 15.5t85.5 -13t60.5 -35t36 -50.5t12 -59.5q0 -30 -10 -54.5
t-26.5 -44.5t-36.5 -34.5t-40 -24.5v-2q27 -11 52.5 -28t45 -40t31.5 -53t12 -66z" />
    <glyph glyph-name="four" unicode="4" 
d="M526 189q0 -17 -17 -17h-75v-153q0 -19 -18 -19h-70q-11 0 -14.5 4.5t-3.5 15.5v152h-261q-39 0 -39 35q0 9 3.5 17t8.5 16l298 453q9 13 26 13h52q18 0 18 -17v-447h75q17 0 17 -18v-35zM333 590q-7 -13 -17 -33t-28 -49l-169 -266h211v252q0 25 1.5 53t3.5 43h-2z" />
    <glyph glyph-name="five" unicode="5" 
d="M490 221q0 -51 -16.5 -94t-47.5 -74.5t-76 -49t-102 -17.5q-43 0 -78.5 11t-61 28t-39.5 37.5t-14 38.5q0 23 13 37t36 14q19 0 31 -9t20 -20q16 -25 41.5 -43t64.5 -18q29 0 51.5 11t37.5 29.5t23 43t8 51.5q0 71 -42 113t-120 42q-21 0 -39 -4t-32.5 -9t-25.5 -9
t-19 -4q-27 0 -27 26v3l26 335q1 16 17 16h318q18 0 18 -17v-62q0 -18 -18 -18h-259l-16 -201q17 9 46.5 17t61.5 8q47 0 87.5 -13.5t70 -40.5t46 -66.5t16.5 -91.5z" />
    <glyph glyph-name="six" unicode="6" 
d="M510 212q0 -50 -17.5 -91.5t-48 -71.5t-72 -46.5t-90.5 -16.5q-59 0 -102.5 20.5t-72.5 58t-43.5 90t-14.5 116.5q0 82 21.5 147t56 115t78 85.5t86.5 58t81.5 33t64.5 10.5q20 0 30.5 -8t10.5 -22q0 -27 -30 -34q-45 -11 -89 -32t-81.5 -54.5t-66 -80t-41.5 -107.5
q25 20 60 34t80 14t81.5 -15t63 -43t41 -68.5t14.5 -91.5zM403 207q0 32 -7.5 60t-22.5 49t-38.5 33t-55.5 12q-35 0 -67 -12t-52 -30q-1 -8 -1.5 -20t-0.5 -27q0 -44 7 -83t23 -68.5t40.5 -46.5t60.5 -17q27 0 48.5 12t36 32t22 47.5t7.5 58.5z" />
    <glyph glyph-name="seven" unicode="7" 
d="M504 683q0 -13 -8 -29q-38 -74 -77 -154.5t-75 -162.5t-67.5 -162.5t-54.5 -153.5q-3 -9 -8 -15t-16 -6h-93q-9 0 -15 5t-6 14q0 6 2 11l6 11l286 568h-305q-18 0 -18 18v62q0 17 18 17h407q24 0 24 -23z" />
    <glyph glyph-name="eight" unicode="8" 
d="M509 183q0 -43 -17 -79.5t-48.5 -62.5t-75 -41t-97.5 -15t-96 14.5t-70 39.5t-42.5 58.5t-14.5 70.5q0 36 13 64.5t34.5 52.5t48.5 44t56 38q-25 16 -47.5 34t-40 40t-27.5 48t-10 58q0 33 12 64.5t37.5 56t65.5 39t95 14.5q53 0 90.5 -13.5t61 -35t34.5 -49.5t11 -57
q0 -32 -11 -58t-30 -48t-43 -41t-49 -35q30 -18 59 -37.5t51.5 -43.5t36 -53.5t13.5 -66.5zM391 550q0 51 -31 80.5t-83 29.5q-46 0 -76 -27.5t-30 -71.5q0 -25 9 -44.5t24.5 -36t37 -31t45.5 -28.5q43 27 73.5 57t30.5 72zM403 165q0 30 -11.5 53t-31 42.5t-44.5 36
t-53 32.5q-23 -15 -44 -30.5t-37 -33.5t-25 -38t-9 -43q0 -58 36.5 -93.5t94.5 -35.5q53 0 88.5 30t35.5 80z" />
    <glyph glyph-name="nine" unicode="9" 
d="M507 435q0 -82 -21.5 -147t-56 -115t-78 -85.5t-86.5 -58t-81.5 -33t-64.5 -10.5q-20 0 -30 8.5t-10 22.5q0 26 30 34q45 10 89 31.5t81.5 54.5t65.5 79.5t41 107.5q-25 -20 -60 -34t-80 -14t-81.5 15t-63 43t-41 68.5t-14.5 91.5q0 50 17.5 91.5t48 71.5t72 46.5
t90.5 16.5q58 0 102 -20.5t73 -58t43.5 -90t14.5 -116.5zM399 437q0 43 -7 82.5t-22.5 68.5t-40.5 46.5t-61 17.5q-27 0 -48.5 -12t-36 -32t-22 -47.5t-7.5 -58.5q0 -32 7.5 -60t22.5 -49t38.5 -33t55.5 -12q35 0 67 12.5t52 30.5q1 8 1.5 21t0.5 25z" />
    <glyph glyph-name="colon" unicode=":" horiz-adv-x="278" 
d="M213 66q0 -31 -21.5 -52.5t-52.5 -21.5t-52.5 21.5t-21.5 52.5t21.5 52.5t52.5 21.5t52.5 -21.5t21.5 -52.5zM213 351q0 -31 -21.5 -52.5t-52.5 -21.5t-52.5 21.5t-21.5 52.5t21.5 52.5t52.5 21.5t52.5 -21.5t21.5 -52.5z" />
    <glyph glyph-name="semicolon" unicode=";" horiz-adv-x="278" 
d="M213 351q0 -31 -21.5 -52.5t-52.5 -21.5t-52.5 21.5t-21.5 52.5t21.5 52.5t52.5 21.5t52.5 -21.5t21.5 -52.5zM213 49q0 -50 -14 -87t-34 -62t-41.5 -37.5t-35.5 -12.5q-11 0 -17 6.5t-6 14.5q0 11 10 22q19 20 31 42t12 45q0 19 -7.5 30t-17 21t-17 21.5t-7.5 31.5
q0 22 17.5 39t46.5 17q36 0 58 -24.5t22 -66.5z" />
    <glyph glyph-name="less" unicode="&#x3c;" 
d="M508 51q0 -17 -17 -17q-2 0 -5.5 1t-11.5 5l-407 215q-19 10 -19 29v32q0 11 4.5 17t14.5 11l407 215q10 5 17 5q17 0 17 -16v-47q0 -20 -19 -29l-351 -172l351 -174q11 -5 15 -11.5t4 -17.5v-46z" />
    <glyph glyph-name="equal" unicode="=" 
d="M508 386q0 -19 -19 -19h-422q-19 0 -19 19v41q0 18 19 18h422q19 0 19 -18v-41zM508 173q0 -19 -19 -19h-422q-19 0 -19 19v40q0 19 19 19h422q19 0 19 -19v-40z" />
    <glyph glyph-name="greater" unicode="&#x3e;" 
d="M508 284q0 -19 -19 -29l-407 -215q-8 -4 -11 -5t-6 -1q-17 0 -17 17v46q0 11 4 17.5t15 11.5l351 174l-351 172q-19 9 -19 29v47q0 16 17 16q7 0 17 -5l407 -215q10 -5 14.5 -11t4.5 -17v-32z" />
    <glyph glyph-name="question" unicode="?" horiz-adv-x="532" 
d="M474 571q0 -28 -10.5 -51t-26.5 -42t-35 -34t-36 -26t-27 -21t-15.5 -20.5t-7.5 -23.5t-3 -30l-4 -73q-1 -16 -18 -16h-48q-16 0 -18 16l-8 127v4q0 16 5.5 25.5t22.5 20.5q20 13 39.5 27.5t34.5 32t24.5 37t9.5 41.5q0 38 -24 62.5t-62 24.5q-23 0 -39.5 -7.5t-27.5 -19
t-18.5 -26.5t-13.5 -30q-15 -40 -53 -40q-20 0 -35.5 12t-15.5 39q0 20 14 44.5t41 46t66.5 36t90.5 14.5q49 0 86.5 -12.5t62 -33.5t37 -48t12.5 -56zM341 66q0 -31 -21.5 -52.5t-52.5 -21.5t-52.5 21.5t-21.5 52.5t21.5 52.5t52.5 21.5t52.5 -21.5t21.5 -52.5z" />
    <glyph glyph-name="at" unicode="@" horiz-adv-x="984" 
d="M926 367q0 -94 -32 -165t-85 -119t-123 -72t-145 -24q-62 0 -112 16.5t-85.5 49t-54.5 80t-19 110.5q0 62 21 115.5t57 93t84.5 62t103.5 22.5q54 0 89 -15t58 -32q15 -11 15 -24v-4q0 -2 -1 -7l-68 -395q32 6 70.5 26.5t71.5 57.5t55 92t22 130q0 69 -21.5 124.5
t-60.5 93.5t-94 58.5t-123 20.5q-93 0 -169 -33t-130.5 -90t-84 -134t-29.5 -165q0 -89 29 -160t81 -120.5t124.5 -76t160.5 -26.5q66 0 120 12t97 30t74.5 39t52.5 40q7 6 16 6q10 0 21 -13q12 -14 12 -22q0 -9 -8 -17q-20 -20 -54 -44t-82 -45t-110.5 -35.5t-139.5 -14.5
q-103 0 -189.5 28.5t-149.5 84.5t-98 138.5t-35 189.5q0 102 37.5 190.5t103.5 154.5t156.5 103.5t196.5 37.5q82 0 151 -24t118.5 -69.5t77 -111t27.5 -148.5zM613 443q0 7 -7 13q-11 8 -29 15t-46 7q-35 0 -66.5 -16.5t-56 -46t-39 -71.5t-14.5 -93q0 -46 11 -83.5t34 -64
t58.5 -41t85.5 -14.5l68 387q1 5 1 8z" />
    <glyph glyph-name="A" unicode="A" horiz-adv-x="652" 
d="M635 17q0 -17 -17 -17h-90q-16 0 -22 17l-64 193h-248l-65 -193q-3 -8 -7.5 -12.5t-14.5 -4.5h-73q-17 0 -17 17q0 5 4 16l240 656q3 8 7.5 12.5t15.5 4.5h84q17 0 23 -17l240 -656q4 -9 4 -16zM350 488q-11 32 -18.5 65.5t-12.5 63.5h-2q-5 -31 -12 -64t-18 -65
l-69 -206h200z" />
    <glyph glyph-name="B" unicode="B" horiz-adv-x="608" 
d="M560 192q0 -38 -14 -74t-47 -64t-88 -45t-138 -17q-28 0 -57 1.5t-54 4t-43.5 5.5t-25.5 5q-11 3 -14.5 8t-3.5 14v646q0 9 3.5 14t14.5 8q15 5 61.5 10.5t108.5 5.5q72 0 121.5 -14t80.5 -37.5t44.5 -55t13.5 -67.5q0 -33 -11 -59t-29 -45.5t-41.5 -33.5t-48.5 -23v-2
q32 -6 62 -20t53.5 -36.5t37.5 -54.5t14 -74zM434 198q0 70 -44 106.5t-138 36.5q-23 0 -35.5 -0.5t-21.5 -1.5v-268q12 -2 32 -4t46 -2q42 0 72.5 10t50 28t29 42.5t9.5 52.5zM403 527q0 54 -32 86.5t-104 32.5q-27 0 -44 -2t-28 -4v-239q8 -1 21.5 -1.5t32.5 -0.5
q70 0 112 32.5t42 95.5z" />
    <glyph glyph-name="C" unicode="C" horiz-adv-x="634" 
d="M598 123q0 -17 -16 -40.5t-46 -45t-71.5 -37t-92.5 -15.5q-81 0 -141.5 30t-100 81t-59 119t-19.5 144q0 75 21.5 140.5t61.5 115t98 78t132 28.5q58 0 102 -16t73 -39.5t43.5 -49t14.5 -44.5q0 -26 -16 -39.5t-40 -13.5q-22 0 -35 13t-20 27q-6 11 -15 26t-23.5 28.5
t-36.5 23t-53 9.5q-38 0 -70.5 -17.5t-56 -51.5t-36.5 -83.5t-13 -112.5q0 -66 15 -122t42.5 -96.5t66 -63.5t85.5 -23q29 0 51.5 6.5t40.5 16t31.5 21t24.5 21.5q14 13 29 13q13 0 21 -8.5t8 -22.5z" />
    <glyph glyph-name="D" unicode="D" horiz-adv-x="678" 
d="M626 354q0 -85 -22.5 -152.5t-69 -114t-116.5 -71t-164 -24.5q-25 0 -51 1.5t-48.5 4t-39.5 5.5t-24 5q-11 3 -14.5 8t-3.5 14v646q0 9 3.5 14t14.5 8q6 2 22 4.5t37.5 5t48 4.5t55.5 2q95 0 165 -25.5t116 -72.5t68.5 -113.5t22.5 -148.5zM497 356q0 134 -57 209.5
t-173 75.5q-43 0 -71 -5v-560q12 -2 30.5 -3.5t40.5 -1.5q120 0 175 75.5t55 209.5z" />
    <glyph glyph-name="E" unicode="E" horiz-adv-x="499" 
d="M456 17q0 -17 -18 -17h-348q-17 0 -17 17v672q0 17 17 17h348q18 0 18 -17v-46q0 -18 -18 -18h-241v-220h204q17 0 17 -17v-44q0 -18 -17 -18h-204v-244h241q18 0 18 -17v-48z" />
    <glyph glyph-name="F" unicode="F" horiz-adv-x="483" 
d="M449 643q0 -18 -17 -18h-235v-220h197q18 0 18 -17v-44q0 -18 -18 -18h-197v-309q0 -17 -17 -17h-90q-17 0 -17 17v672q0 17 17 17h342q17 0 17 -17v-46z" />
    <glyph glyph-name="G" unicode="G" horiz-adv-x="691" 
d="M623 94q0 -20 -19.5 -39.5t-52.5 -35t-77 -25t-94 -9.5q-72 0 -132.5 25.5t-104 73.5t-67.5 117t-24 156q0 81 23 148t65.5 115t103 74.5t135.5 26.5q65 0 111 -16.5t75 -40t42 -48.5t13 -42q0 -25 -14 -39.5t-40 -14.5q-23 0 -35.5 12t-20.5 28q-6 12 -15 27t-25 28.5
t-40 22.5t-58 9q-44 0 -79 -19t-59.5 -54.5t-37.5 -86.5t-13 -115q0 -68 15 -124t41 -96t61.5 -62t76.5 -22q57 0 93.5 19t36.5 49v163h-117q-18 0 -18 18v41q0 17 18 17h215q18 0 18 -17v-264z" />
    <glyph glyph-name="H" unicode="H" horiz-adv-x="676" 
d="M602 17q0 -17 -18 -17h-89q-17 0 -17 17v309h-280v-309q0 -17 -18 -17h-89q-17 0 -17 17v672q0 17 17 17h89q18 0 18 -17v-284h280v284q0 17 17 17h89q18 0 18 -17v-672z" />
    <glyph glyph-name="I" unicode="I" horiz-adv-x="278" 
d="M201 17q0 -17 -17 -17h-89q-18 0 -18 17v672q0 17 18 17h89q17 0 17 -17v-672z" />
    <glyph glyph-name="J" unicode="J" horiz-adv-x="279" 
d="M201 115q0 -69 -13.5 -122.5t-35 -92.5t-49 -65.5t-55 -42.5t-52.5 -23t-42 -7q-43 0 -43 29q0 11 7 18t18 12q31 13 56.5 36t44.5 56.5t29.5 78.5t10.5 104v593q0 17 18 17h89q17 0 17 -17v-574z" />
    <glyph glyph-name="K" unicode="K" horiz-adv-x="594" 
d="M579 16q0 -16 -17 -16h-97q-11 0 -17 4t-12 12l-208 293q-9 13 -16.5 26t-12.5 24h-2v-342q0 -17 -18 -17h-86q-18 0 -18 17v672q0 17 18 17h86q18 0 18 -17v-291h2l235 292q6 8 11 12t16 4h76q17 0 17 -16q0 -8 -6 -15l-241 -284l265 -358q3 -5 5 -8.5t2 -8.5z" />
    <glyph glyph-name="L" unicode="L" horiz-adv-x="476" 
d="M441 17q0 -17 -17 -17h-334q-17 0 -17 17v672q0 17 17 17h90q17 0 17 -17v-607h227q17 0 17 -17v-48z" />
    <glyph glyph-name="M" unicode="M" horiz-adv-x="869" 
d="M821 15q0 -15 -17 -15h-86q-16 0 -17 17l-31 436q-2 21 -2.5 43.5t-0.5 41.5v22q0 7 1 20h-2q-4 -17 -13.5 -53t-23.5 -74l-161 -437q-5 -16 -22 -16h-35q-17 0 -22 16l-161 437q-8 21 -14.5 42.5t-11 39.5t-7.5 30.5t-4 15.5h-2q0 -2 0.5 -15.5t0.5 -27.5
q0 -19 -0.5 -41.5t-2.5 -43.5l-31 -436q-1 -17 -18 -17h-72q-8 0 -13 3.5t-5 11.5q0 1 2.5 30.5t7 77t10.5 108t12 123.5q14 148 32 335q1 17 17 17h97q9 0 13.5 -4.5t7.5 -12.5l158 -430q12 -34 18.5 -62t9.5 -42h2q1 6 4 17.5t6.5 26t8.5 30.5t10 30l158 430q3 8 8 12.5
t14 4.5h96q17 0 18 -17q0 -1 3 -30.5t7.5 -76.5t10 -107.5t11.5 -123t11.5 -122.5t10 -107.5t7 -76.5t2.5 -30z" />
    <glyph glyph-name="N" unicode="N" horiz-adv-x="715" 
d="M641 17q0 -17 -18 -17h-73q-11 0 -16.5 4.5t-10.5 12.5l-294 446q-14 20 -29 49.5t-31 66.5h-2q3 -32 5 -64t2 -60v-438q0 -17 -18 -17h-65q-17 0 -17 17v672q0 17 17 17h94q9 0 15 -4.5t11 -12.5l274 -414q14 -22 31.5 -55t29.5 -63h2q-2 23 -3.5 40.5t-2 32.5t-1 29
t-0.5 29v401q0 17 17 17h65q18 0 18 -17v-672z" />
    <glyph glyph-name="O" unicode="O" horiz-adv-x="721" 
d="M669 357q0 -90 -24 -159.5t-66 -116.5t-98.5 -71.5t-120.5 -24.5t-120 24.5t-98 71.5t-66 116.5t-24 159.5q0 84 23 151.5t63.5 115t97 72.5t124.5 25q67 0 124 -25t98 -72.5t64 -115t23 -151.5zM539 349q0 69 -13 123.5t-36.5 92.5t-57 58.5t-74.5 20.5q-42 0 -75 -20
t-55 -56t-33.5 -87t-11.5 -112q0 -71 13.5 -126.5t38 -93.5t57.5 -58.5t72 -20.5q40 0 72.5 20t55.5 56.5t35 88t12 114.5z" />
    <glyph glyph-name="P" unicode="P" horiz-adv-x="567" 
d="M534 502q0 -104 -70.5 -158.5t-213.5 -54.5q-32 0 -54 3v-275q0 -17 -18 -17h-88q-17 0 -17 17v659q0 9 3.5 14t14.5 8q7 2 24 5t39.5 5.5t50.5 4t58 1.5q131 0 201 -54t70 -158zM409 500q0 66 -34.5 105t-107.5 39q-26 0 -42 -1.5t-29 -3.5v-278q8 -2 19.5 -2.5
t22.5 -0.5q88 0 129.5 35.5t41.5 106.5z" />
    <glyph glyph-name="Q" unicode="Q" horiz-adv-x="721" 
d="M710 -210q0 -10 -7.5 -18t-24.5 -8q-37 0 -88 12.5t-102 39.5t-95 69.5t-68 102.5q-58 6 -108 33.5t-86.5 74t-57.5 112.5t-21 149q0 84 23 151.5t63.5 115t97 72.5t124.5 25q67 0 124 -25t98 -72t64 -114.5t23 -152.5q0 -75 -17 -135.5t-46.5 -106t-70.5 -75.5t-89 -43
q10 -39 34.5 -69t57.5 -52t70.5 -37t73.5 -22q12 -2 20 -8.5t8 -18.5zM539 346q0 69 -13 124t-36.5 93.5t-57 59.5t-74.5 21q-42 0 -75 -20.5t-55 -57t-33.5 -88t-11.5 -112.5q0 -71 13.5 -126.5t38 -94t57.5 -59t72 -20.5q40 0 72.5 20t55.5 57t35 88.5t12 114.5z" />
    <glyph glyph-name="R" unicode="R" horiz-adv-x="595" 
d="M559 16q0 -16 -17 -16h-92q-20 0 -27 15l-102 214q-6 13 -14.5 26.5t-19 24.5t-24 18.5t-29.5 7.5h-39v-289q0 -17 -17 -17h-86q-17 0 -17 17v659q0 9 3.5 14t14.5 8q15 5 63 10.5t112 5.5q70 0 119.5 -14.5t81 -41.5t46.5 -64t15 -82q0 -39 -14.5 -70t-37.5 -54t-52 -38
t-58 -22v-2q18 -9 41 -34t38 -54l106 -205q4 -8 5 -11t1 -6zM407 501q0 71 -33 107.5t-105 36.5q-28 0 -45.5 -2t-28.5 -4v-275q8 -1 20.5 -1.5t32.5 -0.5q77 0 118 38t41 101z" />
    <glyph glyph-name="S" unicode="S" horiz-adv-x="561" 
d="M514 184q0 -43 -16 -79.5t-46.5 -63t-74.5 -41.5t-100 -15q-55 0 -98.5 17.5t-73.5 43.5t-45.5 55t-15.5 52q0 27 16.5 41.5t41.5 14.5q42 0 59 -42q7 -17 17 -35t24.5 -32.5t34 -24t45.5 -9.5q53 0 80.5 30.5t27.5 74.5t-24.5 72t-61.5 48.5t-80 39t-80 44t-61.5 61.5
t-24.5 93q0 45 17.5 81t47.5 60.5t71 37.5t89 13q55 0 95 -15.5t66.5 -37.5t39 -46.5t12.5 -41.5q0 -26 -15.5 -40t-39.5 -14q-20 0 -33 11t-21 28q-6 14 -15 28.5t-21.5 26.5t-29.5 19.5t-40 7.5q-47 0 -75.5 -27.5t-28.5 -76.5q0 -39 25 -64t62.5 -44t81 -37.5t81 -45.5
t62.5 -66.5t25 -101.5z" />
    <glyph glyph-name="T" unicode="T" horiz-adv-x="524" 
d="M495 643q0 -18 -18 -18h-153v-606q0 -19 -18 -19h-88q-11 0 -14.5 4.5t-3.5 15.5v605h-154q-17 0 -17 18v46q0 17 17 17h431q18 0 18 -17v-46z" />
    <glyph glyph-name="U" unicode="U" horiz-adv-x="651" 
d="M579 211q0 -58 -20 -100.5t-54.5 -70.5t-80.5 -41.5t-98 -13.5t-98 13.5t-80.5 41.5t-55 70.5t-20.5 100.5v478q0 17 18 17h89q17 0 17 -17v-473q0 -33 10.5 -58.5t29 -43.5t43.5 -27t55 -9q60 0 98 36t38 102v473q0 17 18 17h74q17 0 17 -17v-478z" />
    <glyph glyph-name="V" unicode="V" horiz-adv-x="627" 
d="M611 690q0 -4 -1.5 -8t-3.5 -9l-238 -656q-3 -8 -7 -12.5t-15 -4.5h-65q-17 0 -23 17l-237 655q-2 4 -3.5 9.5t-1.5 8.5q0 16 18 16h94q16 0 22 -17l147 -448q5 -17 11 -40.5t11 -56.5h2q6 38 12 61t11 36l151 448q3 8 7.5 12.5t14.5 4.5h76q18 0 18 -16z" />
    <glyph glyph-name="W" unicode="W" horiz-adv-x="910" 
d="M889 689q0 -5 -3 -15l-185 -657q-4 -17 -23 -17h-63q-19 0 -23 17l-113 416q-8 30 -13.5 60t-9.5 56h-2q-4 -25 -9 -54.5t-14 -61.5l-113 -416q-4 -17 -23 -17h-64q-11 0 -15.5 4t-6.5 13l-185 657q-3 10 -3 15q0 17 18 17h87q18 0 22 -17l104 -440q6 -24 10 -50.5
t8 -55.5h2q4 23 9 50t13 56l119 440q4 17 22 17h55q11 0 15.5 -4t6.5 -13l116 -440q8 -29 12.5 -55.5t8.5 -50.5h2q4 30 9.5 61t9.5 45l107 440q4 17 22 17h72q18 0 18 -17z" />
    <glyph glyph-name="X" unicode="X" horiz-adv-x="597" 
d="M577 16q0 -16 -17 -16h-99q-11 0 -16 3.5t-10 11.5l-144 257h-2l-149 -257q-5 -8 -10 -11.5t-16 -3.5h-77q-17 0 -17 17q0 7 6 16l212 330l-187 310q-2 5 -4 8.5t-2 8.5q0 16 18 16h94q11 0 16 -3.5t10 -11.5l123 -222h2l129 222q5 8 10 11.5t16 3.5h72q18 0 18 -16
q0 -4 -2.5 -8.5t-4.5 -8.5l-186 -292l211 -348q6 -11 6 -17z" />
    <glyph glyph-name="Y" unicode="Y" horiz-adv-x="562" 
d="M546 689q0 -5 -4 -13l-199 -351v-308q0 -17 -17 -17h-90q-17 0 -17 17v308l-197 348l-4 8q-2 4 -2 9q0 16 18 16h93q10 0 14.5 -3t9.5 -12l137 -269h2l143 269q5 9 10 12t15 3h70q18 0 18 -17z" />
    <glyph glyph-name="Z" unicode="Z" horiz-adv-x="534" 
d="M489 17q0 -17 -18 -17h-419q-18 0 -18 17q0 6 5 16l293 592h-258q-17 0 -17 18v46q0 17 17 17h397q18 0 18 -17q0 -8 -5 -18l-290 -589h277q18 0 18 -17v-48z" />
    <glyph glyph-name="bracketleft" unicode="[" horiz-adv-x="307" 
d="M290 -233q0 -18 -17 -18h-192q-17 0 -17 18v1034q0 18 17 18h192q17 0 17 -18v-23q0 -17 -17 -17h-106v-954h106q17 0 17 -17v-23z" />
    <glyph glyph-name="backslash" unicode="\" horiz-adv-x="521" 
d="M498 -135q0 -9 -12 -13q-3 -1 -12.5 -5.5t-20.5 -9t-20.5 -8t-12.5 -3.5q-11 0 -15 11l-358 932q-2 5 -2 10q0 10 12 15q2 1 11 5t19.5 8.5t20.5 8t13 3.5q5 0 9.5 -2.5t7.5 -10.5l357 -929q3 -8 3 -12z" />
    <glyph glyph-name="bracketright" unicode="]" horiz-adv-x="307" 
d="M244 -233q0 -18 -18 -18h-191q-18 0 -18 18v23q0 17 18 17h106v954h-106q-18 0 -18 17v23q0 18 18 18h191q18 0 18 -18v-1034z" />
    <glyph glyph-name="asciicircum" unicode="^" horiz-adv-x="672" 
d="M564 334q0 -18 -19 -18h-44q-20 0 -28 18l-136 281h-2l-137 -281q-8 -18 -28 -18h-43q-19 0 -19 18q0 4 2 8.5t4 9.5l178 335q5 10 11 14.5t17 4.5h32q11 0 17 -4.5t11 -14.5l178 -335q2 -5 4 -9.5t2 -8.5z" />
    <glyph glyph-name="underscore" unicode="_" horiz-adv-x="522" 
d="M543 -195q0 -17 -17 -17h-530q-17 0 -17 17v35q0 18 17 18h530q17 0 17 -18v-35z" />
    <glyph glyph-name="grave" unicode="`" horiz-adv-x="276" 
d="M198 594q0 -13 -13 -13h-29q-8 0 -13.5 4t-11.5 9l-104 100q-8 8 -8 15q0 9 12 15t31 6q24 0 43.5 -7.5t27.5 -20.5l59 -94q6 -9 6 -14z" />
    <glyph glyph-name="a" unicode="a" horiz-adv-x="508" 
d="M442 98q0 -32 -8.5 -49t-29.5 -31q-17 -11 -59 -21t-90 -10q-44 0 -82.5 8.5t-67 25.5t-45.5 44t-17 63q0 51 27.5 84t70.5 54t93.5 33.5t97.5 21.5v68q0 38 -20.5 59.5t-52.5 21.5q-21 0 -36 -7t-26 -18t-18.5 -25t-11.5 -27q-7 -20 -19.5 -27.5t-31.5 -7.5
q-20 0 -35.5 11.5t-15.5 34.5q0 16 11.5 38t37 42t65 33.5t96.5 13.5q34 0 64.5 -9.5t53 -28t36 -47t13.5 -66.5v-282zM332 270q-35 -7 -67.5 -16.5t-57 -24.5t-39.5 -37t-15 -55q0 -36 25.5 -62t74.5 -26q14 0 28 2.5t25.5 9t18.5 17.5t7 27v165z" />
    <glyph glyph-name="b" unicode="b" horiz-adv-x="559" 
d="M512 285q0 -74 -20.5 -129.5t-55.5 -93t-82.5 -56.5t-101.5 -19q-53 0 -90 10t-57 23q-21 14 -29.5 29.5t-8.5 43.5v655q0 17 18 17h79q17 0 17 -17v-276q7 7 20.5 17t32 19t41 15.5t49.5 6.5q45 0 80 -18.5t59 -51t36.5 -77.5t12.5 -98zM396 266q0 98 -33 144t-86 46
q-32 0 -57 -13t-39 -26v-305q0 -27 20 -41.5t57 -14.5q25 0 49.5 12t44 37.5t32 65.5t12.5 95z" />
    <glyph glyph-name="c" unicode="c" horiz-adv-x="494" 
d="M460 158q0 -23 -12.5 -52.5t-36.5 -56t-60 -44.5t-83 -18q-44 0 -84 16t-70.5 49t-49 84.5t-18.5 122.5q0 66 17 117t47 85.5t71.5 52t90.5 17.5q48 0 82.5 -14.5t57.5 -34.5t34 -43t11 -39q0 -24 -13.5 -37.5t-39.5 -13.5q-21 0 -32.5 11.5t-16.5 28.5q-3 9 -8.5 22
t-16 26t-26.5 22t-39 9t-43.5 -11.5t-36 -34t-25 -56t-9.5 -77.5q0 -42 8.5 -79.5t26.5 -66t45.5 -45.5t64.5 -17q24 0 41.5 8t31 20t23 27t17.5 29q10 18 28 18q11 0 17 -7t6 -18z" />
    <glyph glyph-name="d" unicode="d" horiz-adv-x="559" 
d="M492 94q0 -27 -8 -43t-29 -30q-10 -7 -26.5 -13t-37 -10.5t-43.5 -7.5t-47 -3q-69 0 -117.5 20.5t-79 56t-44 82t-13.5 99.5q0 52 14.5 103t43.5 91.5t73 65.5t103 25q38 0 62.5 -10t34.5 -17v245q0 17 18 17h79q17 0 17 -17v-654zM378 444q-12 10 -30 17.5t-47 7.5
q-32 0 -57.5 -15.5t-43.5 -43t-28 -66.5t-10 -86q0 -51 12.5 -89t32.5 -63t45.5 -37t51.5 -12q74 0 74 55v332z" />
    <glyph glyph-name="e" unicode="e" horiz-adv-x="518" 
d="M474 156q0 -23 -13 -52t-38.5 -55t-62.5 -44t-85 -18q-45 0 -86.5 15.5t-73 48.5t-50.5 85t-19 126q0 70 19 120.5t51 83.5t73 49t86 16q47 0 83.5 -16.5t61.5 -44.5t38 -63.5t13 -73.5q0 -17 -7 -23.5t-23 -8.5l-291 -48q2 -35 12 -67t28 -56t45 -38t63 -14q24 0 43.5 8
t35.5 20.5t28 27.5t20 29q10 18 26 18q11 0 17 -7t6 -18zM362 347q-1 23 -6.5 45t-17.5 39t-30 27t-45 10q-30 0 -51.5 -13.5t-36 -36t-22 -51t-8.5 -57.5z" />
    <glyph glyph-name="f" unicode="f" horiz-adv-x="336" 
d="M325 726q0 -19 -10.5 -30.5t-32.5 -11.5q-11 0 -19 3t-20 3q-15 0 -25 -9t-15.5 -22t-8 -29t-2.5 -29q0 -23 4.5 -45.5t12.5 -37.5h86q17 0 17 -17v-29q0 -18 -17 -18h-81v-437q0 -17 -17 -17h-79q-17 0 -17 17v437h-56q-18 0 -18 18v29q0 17 18 17h56q0 79 16 129t40 78
t53 38t55 10q32 0 46 -14.5t14 -32.5z" />
    <glyph glyph-name="g" unicode="g" horiz-adv-x="530" 
d="M516 -47q0 -41 -21 -77.5t-58.5 -63.5t-88.5 -42.5t-111 -15.5q-99 0 -151 36.5t-52 96.5q0 24 10 44.5t24 36t30.5 27t30.5 19.5q-15 3 -28.5 9t-24.5 15.5t-17.5 22.5t-6.5 31q0 19 10.5 36.5t24.5 31.5t29 24.5t24 15.5q-41 23 -64 62t-23 90q0 39 14.5 72t40.5 57
t63.5 37t82.5 13q30 0 52 -5t39.5 -10.5t32.5 -10.5t31 -5q23 0 41.5 4.5t31.5 9.5q7 3 11 3q5 0 7.5 -4t5.5 -12q2 -6 4 -11.5t2 -8.5q0 -9 -11 -14q-11 -6 -31 -12t-45 -9q14 -19 22 -43t8 -51q0 -39 -14.5 -71.5t-40.5 -56.5t-63.5 -37t-82.5 -13q-20 0 -34 2t-28 7
q-5 -3 -12 -9t-14 -14.5t-11.5 -17.5t-4.5 -18q0 -17 11.5 -25.5t30.5 -13t44.5 -5.5t53.5 -1q39 0 79 -2.5t72.5 -14.5t53.5 -37.5t21 -71.5zM414 -72q0 33 -21 47.5t-53.5 19.5t-72 5t-77.5 3q-20 -14 -38.5 -37t-18.5 -52q0 -43 33 -69t99 -26q30 0 57.5 9t47.5 24
t32 34.5t12 41.5zM353 341q0 24 -6 47.5t-18.5 42t-31 30.5t-43.5 12q-46 0 -71.5 -29t-25.5 -74q0 -24 6 -47.5t18.5 -42.5t31 -31t43.5 -12q46 0 71.5 29t25.5 75z" />
    <glyph glyph-name="h" unicode="h" 
d="M489 17q0 -17 -17 -17h-80q-17 0 -17 17v348q0 49 -26.5 72.5t-64.5 23.5q-34 0 -59 -12t-43 -32v-400q0 -17 -18 -17h-79q-18 0 -18 17v731q0 17 18 17h79q18 0 18 -17v-273q22 22 59 39t85 17q32 0 61.5 -9.5t52 -28.5t36 -47t13.5 -65v-364z" />
    <glyph glyph-name="i" unicode="i" horiz-adv-x="258" 
d="M186 17q0 -17 -17 -17h-80q-17 0 -17 17v484q0 17 17 17h80q17 0 17 -17v-484zM195 659q0 -23 -18.5 -38.5t-47.5 -15.5t-47.5 15.5t-18.5 38.5t18.5 38.5t47.5 15.5t47.5 -15.5t18.5 -38.5z" />
    <glyph glyph-name="j" unicode="j" horiz-adv-x="258" 
d="M195 659q0 -23 -18.5 -38.5t-47.5 -15.5t-47.5 15.5t-18.5 38.5t18.5 38.5t47.5 15.5t47.5 -15.5t18.5 -38.5zM186 111q0 -72 -12 -125.5t-31 -92.5t-42.5 -64.5t-47 -40.5t-44 -21t-32.5 -6q-14 0 -22 7t-8 18q0 14 18 26q24 17 43.5 39.5t34 57t22 83.5t7.5 119v390
q0 17 17 17h80q17 0 17 -17v-390z" />
    <glyph glyph-name="k" unicode="k" horiz-adv-x="524" 
d="M504 17q0 -17 -18 -17h-89q-10 0 -15 4t-11 12l-158 202q-5 6 -13 18.5t-15 26.5h-2v-246q0 -17 -18 -17h-77q-18 0 -18 17v731q0 17 18 17h77q18 0 18 -17v-454h2l182 208q6 7 11.5 11.5t15.5 4.5h72q18 0 18 -17q0 -7 -7 -14l-189 -199l210 -257q6 -8 6 -14z" />
    <glyph glyph-name="l" unicode="l" horiz-adv-x="258" 
d="M186 17q0 -17 -17 -17h-80q-17 0 -17 17v731q0 17 17 17h80q17 0 17 -17v-731z" />
    <glyph glyph-name="m" unicode="m" horiz-adv-x="831" 
d="M764 17q0 -17 -17 -17h-79q-17 0 -17 17v355q0 47 -23.5 72t-68.5 25q-46 0 -66 -25.5t-20 -69.5v-357q0 -17 -18 -17h-79q-17 0 -17 17v355q0 47 -23.5 72t-68.5 25q-43 0 -64.5 -15.5t-21.5 -53.5v-383q0 -17 -17 -17h-79q-18 0 -18 17v422q0 26 9.5 39t30.5 23
q24 11 65 20.5t92 9.5q59 0 96 -16t62 -44q25 27 64 43.5t101 16.5q28 0 59 -7t57.5 -25t43.5 -47.5t17 -74.5v-360z" />
    <glyph glyph-name="n" unicode="n" 
d="M489 17q0 -17 -17 -17h-80q-17 0 -17 17v355q0 18 -5 35.5t-17 31t-32 22t-50 8.5t-48 -6t-27 -15t-11.5 -21t-2.5 -24v-386q0 -17 -18 -17h-79q-18 0 -18 17v422q0 25 8.5 38t31.5 24q25 12 68.5 21t99.5 9q40 0 78.5 -7t68.5 -25t48.5 -47.5t18.5 -74.5v-360z" />
    <glyph glyph-name="o" unicode="o" horiz-adv-x="563" 
d="M517 261q0 -57 -15.5 -107t-45.5 -87t-74 -58.5t-101 -21.5t-100.5 21.5t-73.5 58.5t-45.5 87t-15.5 107t16 106.5t46 86t73.5 57t99.5 20.5q55 0 99 -20.5t74.5 -57t46.5 -86t16 -106.5zM400 258q0 41 -7 78.5t-21.5 66.5t-37.5 46.5t-55 17.5q-31 0 -53 -15.5
t-36 -42.5t-20.5 -63t-6.5 -76q0 -41 7 -79.5t21 -68t36.5 -47t54.5 -17.5q33 0 55.5 16t36.5 43t20 63.5t6 77.5z" />
    <glyph glyph-name="p" unicode="p" horiz-adv-x="559" 
d="M512 273q0 -52 -14.5 -103t-43.5 -91.5t-72.5 -65.5t-102.5 -25q-38 0 -63 10t-35 17v-233q0 -17 -17 -17h-79q-18 0 -18 17v642q0 27 8.5 43t29.5 30q10 7 26.5 13t37 10.5t43.5 7.5t47 3q69 0 117.5 -20.5t78.5 -56t43.5 -82.5t13.5 -99zM396 267q0 51 -12 89t-32 63
t-45 37t-51 12q-75 0 -75 -55v-332q12 -10 30.5 -17.5t47.5 -7.5q31 0 56.5 15t43.5 43t27.5 67t9.5 86z" />
    <glyph glyph-name="q" unicode="q" horiz-adv-x="559" 
d="M492 -218q0 -17 -17 -17h-79q-18 0 -18 17v264q-8 -7 -21 -17t-31 -19t-40.5 -15.5t-49.5 -6.5q-45 0 -80.5 18.5t-59.5 51t-36.5 77.5t-12.5 98q0 74 20.5 129.5t55.5 93t82.5 56.5t101.5 19q53 0 90.5 -10t57.5 -23q21 -14 29 -29.5t8 -43.5v-643zM378 412q0 56 -76 56
q-25 0 -49.5 -12t-44.5 -37.5t-32.5 -65.5t-12.5 -95q0 -98 33.5 -144.5t86.5 -46.5q32 0 56.5 13.5t38.5 26.5v305z" />
    <glyph glyph-name="r" unicode="r" horiz-adv-x="402" 
d="M392 458q0 -23 -12.5 -36.5t-35.5 -13.5q-20 0 -30.5 9.5t-18.5 20.5t-19 20.5t-32 9.5q-29 0 -45.5 -13.5t-16.5 -37.5v-400q0 -17 -18 -17h-79q-18 0 -18 17v422q0 25 9 38.5t32 24.5t64 20t89 9q70 0 100.5 -21.5t30.5 -51.5z" />
    <glyph glyph-name="s" unicode="s" horiz-adv-x="463" 
d="M420 145q0 -72 -50 -115t-136 -43q-51 0 -87 13.5t-59.5 33t-34.5 41t-11 38.5q0 24 15 36t36 12q38 0 52 -36q13 -31 33 -52t58 -21q30 0 52.5 20.5t22.5 55.5q0 30 -19 49.5t-48 34.5t-62.5 29t-62.5 32.5t-48 44.5t-19 66q0 37 14 64.5t38.5 46t57.5 27.5t71 9
q46 0 78.5 -11.5t53.5 -29t30.5 -36.5t9.5 -34q0 -23 -13 -34t-32 -11q-17 0 -29.5 7.5t-20.5 26.5q-5 12 -12 24t-16 21t-21.5 15t-29.5 6q-35 0 -54.5 -19t-19.5 -52q0 -29 19.5 -48t48.5 -33.5t63.5 -28t63.5 -32.5t48.5 -46.5t19.5 -70.5z" />
    <glyph glyph-name="t" unicode="t" horiz-adv-x="348" 
d="M319 31q0 -18 -26 -30.5t-65 -12.5q-19 0 -42 5t-42.5 20t-33 43.5t-13.5 75.5v322h-53q-17 0 -17 18v29q0 17 17 17h53v76q0 17 13 24l69 35q8 5 15 5q16 0 16 -17v-123h83q17 0 17 -17v-29q0 -18 -17 -18h-83v-324q0 -25 5.5 -40.5t14.5 -24.5t20 -12t22 -3q8 0 13 1
t10 1q24 0 24 -21z" />
    <glyph glyph-name="u" unicode="u" horiz-adv-x="546" 
d="M479 90q0 -29 -9.5 -44.5t-26.5 -25.5q-20 -11 -65 -21.5t-107 -10.5q-26 0 -61 4.5t-66.5 20.5t-54 47t-22.5 84v357q0 17 17 17h80q17 0 17 -17v-353q0 -45 25 -67.5t67 -22.5q30 0 48 5t27.5 13.5t13 20t3.5 25.5v379q0 17 17 17h80q17 0 17 -17v-411z" />
    <glyph glyph-name="v" unicode="v" horiz-adv-x="515" 
d="M493 501q0 -4 -1 -7.5t-3 -8.5l-169 -468q-3 -8 -7 -12.5t-15 -4.5h-79q-17 0 -23 17l-169 468q-4 10 -4 16q0 17 17 17h82q17 0 23 -17l99 -304q8 -25 13 -51.5t7 -42.5h2q6 29 12 52t12 42l100 304q3 8 7.5 12.5t14.5 4.5h63q18 0 18 -17z" />
    <glyph glyph-name="w" unicode="w" horiz-adv-x="762" 
d="M736 501q0 -6 -3 -15l-136 -469q-4 -17 -23 -17h-67q-17 0 -23 17l-80 262q-5 14 -11 43t-10 59h-2q-4 -25 -9 -49.5t-13 -52.5l-80 -262q-3 -9 -7 -13t-15 -4h-68q-19 0 -23 17l-136 469q-1 4 -2 7.5t-1 7.5q0 17 17 17h77q18 0 22 -17l72 -297q5 -20 8 -40.5t8 -56.5h2
q6 32 12 58t10 39l88 297q3 9 7.5 13t14.5 4h50q11 0 15.5 -4t6.5 -13l86 -297q3 -10 6 -23l6 -26q3 -13 5 -25.5t4 -22.5h2q2 17 6.5 44.5t10.5 52.5l74 297q4 17 22 17h60q17 0 17 -17z" />
    <glyph glyph-name="x" unicode="x" horiz-adv-x="477" 
d="M462 17q0 -17 -18 -17h-84q-11 0 -17 4t-11 12l-100 166h-2l-105 -166q-5 -8 -11.5 -12t-17.5 -4h-63q-18 0 -18 17q0 7 6 16l162 225l-152 227q-6 9 -6 16q0 17 18 17h79q11 0 17.5 -4t11.5 -12l94 -156h2l100 156q5 8 11.5 12t17.5 4h58q18 0 18 -16q0 -7 -7 -17
l-151 -213l161 -239q7 -11 7 -16z" />
    <glyph glyph-name="y" unicode="y" horiz-adv-x="515" 
d="M493 501q0 -4 -1 -7.5t-3 -8.5l-198 -557q-12 -35 -28.5 -66t-39.5 -54t-53.5 -36.5t-70.5 -13.5q-48 0 -68 17t-20 43q0 22 13.5 34t33.5 12q11 0 19 -2t15 -5t14 -5t16 -2q14 0 26 7t21 18t15.5 24.5t11.5 26.5l20 58l-189 501q-4 10 -4 16q0 17 17 17h82q16 0 22 -17
l103 -307q15 -47 21 -99h2q6 32 10.5 52t12.5 47l97 307q3 8 7.5 12.5t14.5 4.5h63q18 0 18 -17z" />
    <glyph glyph-name="z" unicode="z" horiz-adv-x="416" 
d="M384 17q0 -17 -19 -17h-319q-19 0 -19 17q0 6 5 16l211 421h-183q-18 0 -18 18v29q0 17 18 17h304q19 0 19 -17q0 -8 -6 -20l-206 -415h194q19 0 19 -18v-31z" />
    <glyph glyph-name="braceleft" unicode="{" horiz-adv-x="361" 
d="M319 -235q0 -9 -7 -15t-24 -6q-73 0 -119.5 41.5t-46.5 133.5v206q0 31 -2.5 53.5t-9 38t-17.5 26t-29 17.5q-15 5 -15 19t15 19q35 13 46.5 43t11.5 92v200q0 92 46.5 134t119.5 42q17 0 24 -6t7 -15q0 -8 -4 -13.5t-16 -7.5q-39 -5 -55.5 -30t-16.5 -74v-214
q0 -67 -19 -108.5t-61 -60.5v-2q42 -20 61 -60t19 -109v-219q0 -49 16.5 -74t55.5 -30q12 -2 16 -7.5t4 -13.5z" />
    <glyph glyph-name="bar" unicode="|" horiz-adv-x="277" 
d="M191 -218q0 -17 -18 -17h-69q-18 0 -18 17v966q0 17 18 17h69q18 0 18 -17v-966z" />
    <glyph glyph-name="braceright" unicode="}" horiz-adv-x="361" 
d="M312 279q0 -14 -15 -19q-18 -7 -29 -17.5t-17.5 -26t-9 -38t-2.5 -53.5v-206q0 -92 -46.5 -133.5t-119.5 -41.5q-17 0 -24 6t-7 15q0 8 4 13.5t16 7.5q39 5 55.5 30t16.5 74v219q0 69 18.5 109t60.5 60v2q-42 19 -60.5 60.5t-18.5 108.5v214q0 49 -16.5 74t-55.5 30
q-12 2 -16 7.5t-4 13.5q0 9 7 15t24 6q73 0 119.5 -42t46.5 -134v-200q0 -62 11.5 -92t46.5 -43q15 -5 15 -19z" />
    <glyph glyph-name="asciitilde" unicode="~" horiz-adv-x="627" 
d="M567 344q0 -16 -9.5 -38t-28 -41.5t-46.5 -33t-65 -13.5q-32 0 -59.5 12t-52.5 27t-49 27t-48 12q-39 0 -60 -17t-36 -40q-11 -18 -29 -18q-10 0 -17 7t-7 22q0 16 9.5 38t28 41.5t46.5 33t65 13.5q32 0 59.5 -12t52.5 -27t49 -27t48 -12q39 0 60 17t36 40q11 18 29 18
q10 0 17 -7t7 -22z" />
    <glyph glyph-name="uni00A0" unicode="&#xa0;" horiz-adv-x="277" 
 />
    <glyph glyph-name="exclamdown" unicode="&#xa1;" horiz-adv-x="361" 
d="M249 -165q0 -17 -18 -17h-101q-18 0 -18 17l26 439q1 8 6 12t13 4h47q8 0 13 -4t6 -12zM254 458q0 -31 -21 -52.5t-52 -21.5t-52.5 21.5t-21.5 52.5t21.5 52.5t52.5 21.5t52 -21.5t21 -52.5z" />
    <glyph glyph-name="cent" unicode="&#xa2;" horiz-adv-x="537" 
d="M479 160q0 -21 -11 -49.5t-33 -54.5t-55 -45.5t-76 -22.5v-89q0 -9 -6 -13.5t-14 -4.5t-14 4.5t-6 13.5v90q-41 4 -78 21.5t-64.5 50.5t-44 82t-16.5 116q0 62 15 110.5t42 82.5t64 53.5t82 23.5v77q0 9 6 13.5t14 4.5t14 -4.5t6 -13.5v-76q44 -2 76.5 -17t53.5 -34.5
t31 -41t10 -36.5q0 -22 -12 -33.5t-33 -11.5q-16 0 -27 10t-17 25q-4 9 -9.5 21.5t-14.5 24.5t-23 21t-35 12v-392q27 0 47 9t35 22t25.5 28.5t18.5 29.5q9 17 27 17q9 0 15.5 -6.5t6.5 -17.5zM264 470q-53 -7 -85 -55t-32 -129q0 -37 6.5 -70.5t21 -61t36.5 -46t53 -25.5
v387z" />
    <glyph glyph-name="sterling" unicode="&#xa3;" horiz-adv-x="601" 
d="M538 561q0 -23 -14.5 -36.5t-37.5 -13.5q-40 0 -50 43q-4 17 -11.5 34.5t-21.5 32t-34.5 23.5t-50.5 9q-49 0 -78.5 -30t-29.5 -84q0 -44 11.5 -76t25.5 -63l5 -11h152q17 0 17 -18v-30q0 -18 -17 -18h-128q4 -19 4 -43q0 -48 -22 -93t-54 -88h312q17 0 17 -18v-64
q0 -17 -17 -17h-431q-21 0 -21 19q0 5 2.5 9.5t5.5 8.5q49 56 82.5 109.5t33.5 109.5q0 18 -3.5 34.5t-9.5 32.5h-100q-17 0 -17 18v30q0 18 17 18h67q-17 32 -31.5 66.5t-14.5 80.5q0 44 16 78.5t45 58t70 36t92 12.5q57 0 98.5 -15.5t68 -39.5t39.5 -52t13 -53z" />
    <glyph glyph-name="currency" unicode="&#xa4;" horiz-adv-x="607" 
d="M562 50q0 -7 -6 -13l-30 -31q-6 -6 -14 -6q-7 0 -13 6l-69 69q-27 -19 -59.5 -30t-67.5 -11t-67 11t-59 30l-69 -69q-6 -6 -14 -6q-7 0 -13 6l-30 31q-3 3 -5 5.5t-2 7.5t2.5 8t4.5 5l69 69q-19 27 -30.5 59.5t-11.5 67.5t11.5 67.5t30.5 59.5l-69 69q-2 2 -4.5 5t-2.5 8
t2 7.5t5 5.5l30 31q6 6 13 6q8 0 14 -6l69 -69q27 19 59 30t67 11t67.5 -11t59.5 -30l69 69q6 6 13 6q8 0 14 -6l30 -31q6 -6 6 -13t-6 -13l-69 -69q19 -27 30 -59.5t11 -67.5t-11 -67.5t-30 -59.5l69 -69q6 -6 6 -13zM437 259q0 32 -10.5 60t-29 48.5t-43 32.5t-51.5 12
t-51.5 -12t-42.5 -32.5t-28.5 -48.5t-10.5 -60t10.5 -60t28.5 -48.5t42.5 -32.5t51.5 -12t51.5 12t43 32.5t29 48.5t10.5 60z" />
    <glyph glyph-name="yen" unicode="&#xa5;" horiz-adv-x="592" 
d="M570 690q0 -7 -4 -14l-134 -221h88q20 0 20 -17v-22q0 -17 -20 -17h-120l-45 -73v-32h151q20 0 20 -18v-21q0 -18 -20 -18h-151v-220q0 -17 -19 -17h-80q-19 0 -19 17v220h-151q-20 0 -20 18v21q0 18 20 18h151v32l-45 73h-119q-21 0 -21 17v22q0 17 21 17h87l-134 221
q-4 7 -4 14q0 16 18 16h85q11 0 16 -3t10 -12l150 -286h2l156 286q5 9 10 12t16 3h67q18 0 18 -16z" />
    <glyph glyph-name="brokenbar" unicode="&#xa6;" horiz-adv-x="277" 
d="M191 368q0 -17 -18 -17h-69q-18 0 -18 17v380q0 17 18 17h69q18 0 18 -17v-380zM191 -218q0 -17 -18 -17h-69q-18 0 -18 17v380q0 17 18 17h69q18 0 18 -17v-380z" />
    <glyph glyph-name="section" unicode="&#xa7;" horiz-adv-x="554" 
d="M499 258q0 -27 -9.5 -50.5t-24.5 -43.5t-35 -37t-41 -32q40 -27 66.5 -63.5t26.5 -90.5q0 -41 -15 -74t-41 -55.5t-61.5 -34.5t-76.5 -12q-45 0 -83 15t-65 38.5t-42.5 51t-15.5 52.5q0 26 14.5 40t35.5 14q39 0 51 -41q4 -15 12.5 -33t21.5 -33.5t32 -25.5t45 -10
q36 0 62.5 26t26.5 68q0 28 -14.5 50t-37 40t-50 32.5t-53.5 26.5q-29 13 -59.5 30t-56 39t-41.5 50.5t-16 66.5q0 29 9 53.5t24 45t35 37.5t42 32q-28 23 -46.5 53.5t-18.5 73.5q0 39 14.5 69.5t39 51.5t58.5 32t73 11q48 0 83.5 -15t58 -36t33.5 -45t11 -42
q0 -23 -13 -36.5t-34 -13.5q-38 0 -50 40q-5 16 -12 31t-18.5 27t-27 19.5t-36.5 7.5t-37 -7.5t-26.5 -19.5t-16 -27.5t-5.5 -31.5q0 -27 11.5 -46.5t30 -35t42.5 -28t48 -24.5q29 -14 59.5 -30.5t55.5 -37.5t41 -48t16 -64zM407 238q0 31 -20 54t-49 41t-63 33.5t-62 31.5
q-26 -17 -47 -45t-21 -67q0 -31 19 -54t47.5 -41t62 -33.5t62.5 -30.5q28 21 49.5 49t21.5 62z" />
    <glyph glyph-name="dieresis" unicode="&#xa8;" horiz-adv-x="276" 
d="M279 638q0 -22 -15.5 -37t-38.5 -15t-38.5 15t-15.5 37t15.5 37.5t38.5 15.5t38.5 -15.5t15.5 -37.5zM105 638q0 -22 -15.5 -37t-38.5 -15t-38.5 15t-15.5 37t15.5 37.5t38.5 15.5t38.5 -15.5t15.5 -37.5z" />
    <glyph glyph-name="copyright" unicode="&#xa9;" horiz-adv-x="858" 
d="M797 353q0 -76 -29 -143t-79 -117t-117 -79t-143 -29t-143 29t-117 79t-79 117t-29 143t29 143t79 117t117 79t143 29t143 -29t117 -79t79 -117t29 -143zM740 353q0 64 -24.5 121t-66.5 99t-99 66.5t-121 24.5q-65 0 -121.5 -24.5t-98.5 -66.5t-66.5 -99t-24.5 -121
q0 -65 24.5 -121.5t66.5 -98.5t98.5 -66.5t121.5 -24.5q64 0 121 24.5t99 66.5t66.5 98.5t24.5 121.5zM577 222q0 -9 -9.5 -23.5t-27.5 -28t-43.5 -23t-58.5 -9.5q-52 0 -89.5 18.5t-62 49.5t-36.5 71.5t-12 83.5q0 42 12.5 80.5t37.5 68.5t61.5 47.5t83.5 17.5q37 0 64 -10
t45 -24t26.5 -29t8.5 -26q0 -14 -9 -23t-23 -9q-13 0 -21.5 7t-12.5 15q-4 7 -9.5 16.5t-15.5 18t-24 14t-35 5.5q-48 0 -82.5 -40t-34.5 -118q0 -40 10.5 -73t28.5 -57t42.5 -37t53.5 -13q37 0 59.5 13.5t35.5 26.5q8 8 18 8q8 0 13.5 -5t5.5 -13z" />
    <glyph glyph-name="ordfeminine" unicode="&#xaa;" horiz-adv-x="403" 
d="M338 402q0 -23 -7 -34t-25 -20q-12 -6 -41.5 -13t-66.5 -7q-33 0 -61.5 5.5t-49.5 18t-32.5 32t-11.5 47.5q0 38 21.5 62t54 39t69.5 22.5t69 13.5v49q0 26 -15.5 41t-40.5 15q-16 0 -27.5 -5t-19 -13t-12.5 -17.5t-8 -18.5q-10 -28 -39 -28q-16 0 -26 9t-10 26
q0 11 7 26.5t25 30t48.5 25t76.5 10.5q25 0 47.5 -6.5t39 -19.5t26 -33.5t9.5 -47.5v-209zM257 530q-24 -5 -47.5 -11t-42 -16.5t-30.5 -26.5t-12 -40q0 -26 18 -43.5t54 -17.5q21 0 40.5 7.5t19.5 30.5v117z" />
    <glyph glyph-name="guillemotleft" unicode="&#xab;" horiz-adv-x="554" 
d="M482 84q0 -12 -6.5 -20t-20.5 -8q-19 0 -31 20q-10 17 -25 40t-33 47t-37 46.5t-37 38.5q-7 6 -12 13.5t-5 17.5t5 18t12 14q18 16 37 38.5t37 46.5t33 46.5t25 39.5q12 20 31 20q14 0 20.5 -8t6.5 -20q0 -8 -2.5 -15.5t-6.5 -14.5l-73 -128q-8 -14 -10.5 -21.5
t-2.5 -15.5t2.5 -15.5t10.5 -21.5l73 -128q4 -7 6.5 -14.5t2.5 -15.5zM279 84q0 -12 -7 -20t-21 -8q-18 0 -30 20q-10 17 -25 40t-33 47t-37 46.5t-37 38.5q-7 6 -12 13.5t-5 17.5t5 18t12 14q18 16 37 38.5t37 46.5t33 46.5t25 39.5q12 20 30 20q14 0 21 -8t7 -20
q0 -8 -3 -15.5t-7 -14.5l-73 -128q-8 -14 -10 -21.5t-2 -15.5t2 -15.5t10 -21.5l73 -128q4 -7 7 -14.5t3 -15.5z" />
    <glyph glyph-name="logicalnot" unicode="&#xac;" 
d="M508 61q0 -19 -19 -19h-51q-19 0 -19 19v204h-352q-19 0 -19 19v40q0 19 19 19h422q19 0 19 -19v-263z" />
    <glyph glyph-name="uni00AD" unicode="&#xad;" horiz-adv-x="317" 
d="M267 274q0 -18 -17 -18h-182q-18 0 -18 18v47q0 18 18 18h182q17 0 17 -18v-47z" />
    <glyph glyph-name="registered" unicode="&#xae;" horiz-adv-x="858" 
d="M797 353q0 -76 -29 -143t-79 -117t-117 -79t-143 -29t-143 29t-117 79t-79 117t-29 143t29 143t79 117t117 79t143 29t143 -29t117 -79t79 -117t29 -143zM740 353q0 64 -24.5 121t-66.5 99t-99 66.5t-121 24.5q-65 0 -121.5 -24.5t-98.5 -66.5t-66.5 -99t-24.5 -121
q0 -65 24.5 -121.5t66.5 -98.5t98.5 -66.5t121.5 -24.5q64 0 121 24.5t99 66.5t66.5 98.5t24.5 121.5zM587 162q0 -10 -10 -10h-48q-11 0 -16 8l-65 130q-8 16 -21 31.5t-35 15.5h-23v-175q0 -10 -11 -10h-44q-10 0 -10 10v380q0 10 10 15q9 5 37 12.5t65 7.5
q83 0 120 -33.5t37 -85.5q0 -23 -9.5 -41.5t-24.5 -32.5t-34 -23.5t-39 -13.5v-1q11 -5 25.5 -19t24.5 -31l68 -125q3 -6 3 -9zM507 452q0 42 -20.5 63t-68.5 21q-19 0 -30.5 -2.5t-18.5 -4.5v-157q6 -1 13.5 -1.5t19.5 -0.5q52 0 78.5 22t26.5 60z" />
    <glyph glyph-name="macron" unicode="&#xaf;" horiz-adv-x="276" 
d="M274 632q0 -19 -19 -19h-235q-19 0 -19 19v25q0 19 19 19h235q19 0 19 -19v-25z" />
    <glyph glyph-name="degree" unicode="&#xb0;" horiz-adv-x="391" 
d="M359 595q0 -34 -13 -63.5t-35 -51.5t-51.5 -35t-63.5 -13t-63.5 13t-52 35t-35.5 51.5t-13 63.5t13 63.5t35.5 52t52 35.5t63.5 13t63.5 -13t51.5 -35.5t35 -52t13 -63.5zM288 596q0 19 -7 35.5t-19.5 29t-29.5 19.5t-36 7t-36 -7t-29.5 -19.5t-19.5 -29t-7 -35.5t7 -36
t19.5 -29.5t29.5 -19.5t36 -7t36 7t29.5 19.5t19.5 29.5t7 36z" />
    <glyph glyph-name="plusminus" unicode="&#xb1;" 
d="M508 376q0 -19 -19 -19h-170v-172q0 -19 -19 -19h-44q-19 0 -19 19v172h-170q-19 0 -19 19v38q0 19 19 19h170v169q0 19 19 19h44q19 0 19 -19v-169h170q19 0 19 -19v-38zM508 19q0 -19 -19 -19h-422q-19 0 -19 19v38q0 19 19 19h422q19 0 19 -19v-38z" />
    <glyph glyph-name="twosuperior" unicode="&#xb2;" horiz-adv-x="370" 
d="M315 476q0 -6 -4.5 -10t-10.5 -4h-237q-16 0 -16 16q0 7 7 16l141 189q16 22 26.5 45t10.5 43q0 32 -16.5 50.5t-48.5 18.5q-16 0 -28 -6.5t-20 -16.5t-13 -22t-8 -24q-5 -18 -23 -18q-11 0 -17 7.5t-6 19.5q0 19 7.5 40t23.5 37.5t40.5 27.5t58.5 11q33 0 57 -9.5
t39.5 -25t22.5 -36t7 -42.5q0 -34 -18.5 -67t-39.5 -58l-111 -133h161q6 0 10.5 -4t4.5 -10v-35z" />
    <glyph glyph-name="threesuperior" unicode="&#xb3;" horiz-adv-x="370" 
d="M314 592q0 -32 -11 -57.5t-31 -44t-47.5 -28.5t-61.5 -10q-26 0 -47.5 6.5t-37 17t-24 23t-8.5 24.5q0 14 9 23.5t24 9.5q20 0 32 -17q11 -14 24.5 -25t36.5 -11q31 0 49.5 20.5t18.5 52.5q0 20 -8 35t-20.5 26.5t-29 19t-33.5 11.5q-20 5 -20 18q0 7 4 12t15 9
q32 12 54 31t22 48q0 26 -17 40.5t-43 14.5q-31 0 -45.5 -18t-21.5 -38q-5 -17 -24 -17q-11 0 -17 7t-6 18q0 18 8.5 36.5t24.5 33t40 24t54 9.5q31 0 54 -8.5t38 -22t22 -31t7 -35.5t-6 -32.5t-16 -26.5t-21.5 -20.5t-23.5 -14.5v-2q33 -14 58 -41.5t25 -69.5z" />
    <glyph glyph-name="acute" unicode="&#xb4;" horiz-adv-x="276" 
d="M257 709q0 -7 -8 -15l-104 -100q-6 -5 -11.5 -9t-13.5 -4h-29q-13 0 -13 12q0 6 6 15l59 94q8 13 27.5 20.5t43.5 7.5q19 0 31 -6t12 -15z" />
    <glyph glyph-name="mu" unicode="&#xb5;" horiz-adv-x="547" 
d="M480 95q0 -32 -9 -48t-27 -27q-21 -12 -54 -21.5t-90 -9.5q-35 0 -68.5 12.5t-49.5 26.5v-246q0 -17 -18 -17h-79q-18 0 -18 17v719q0 17 18 17h79q18 0 18 -17v-353q0 -45 26 -67t68 -22q28 0 45.5 4t27.5 12.5t13.5 21t3.5 30.5v374q0 17 17 17h80q17 0 17 -17v-406z
" />
    <glyph glyph-name="paragraph" unicode="&#xb6;" horiz-adv-x="599" 
d="M527 -218q0 -17 -17 -17h-55q-18 0 -18 17v864q-20 4 -47 5.5t-50 1.5q-24 0 -45 -3v-868q0 -17 -18 -17h-55q-17 0 -17 17v553q-77 11 -116.5 59.5t-39.5 120.5q0 42 16 78.5t51 63.5t90 42t133 15q69 0 113 -6t57 -10q11 -3 14.5 -8t3.5 -14v-894z" />
    <glyph glyph-name="periodcentered" unicode="&#xb7;" horiz-adv-x="278" 
d="M213 310q0 -31 -21.5 -52.5t-52.5 -21.5t-52.5 21.5t-21.5 52.5t21.5 52.5t52.5 21.5t52.5 -21.5t21.5 -52.5z" />
    <glyph glyph-name="cedilla" unicode="&#xb8;" horiz-adv-x="276" 
d="M266 -140q0 -17 -9.5 -33.5t-28.5 -29.5t-46 -20.5t-63 -7.5q-17 0 -36 2.5t-35 7t-27 12t-11 18.5q0 19 22 19q8 0 15 -2t16 -4t21 -4t30 -2q35 0 53.5 13t18.5 29q0 17 -21 29.5t-71 12.5q-18 0 -18 16q0 5 2 9t4 9l34 69h60l-37 -67q64 -1 95.5 -22t31.5 -54z" />
    <glyph glyph-name="onesuperior" unicode="&#xb9;" horiz-adv-x="370" 
d="M259 476q0 -14 -14 -14h-48q-15 0 -15 14v317q-12 -6 -26 -11.5t-27.5 -9.5t-25 -6.5t-18.5 -2.5q-11 0 -18 5.5t-7 16.5q0 18 21 23q31 8 68 27t64 48q10 12 24 12q12 0 17 -7t5 -17v-395z" />
    <glyph glyph-name="ordmasculine" unicode="&#xba;" horiz-adv-x="431" 
d="M387 524q0 -41 -12 -77t-34 -62.5t-54 -41.5t-72 -15t-72 15t-54 41.5t-33.5 62.5t-11.5 77t12 76.5t34.5 61.5t54 41t70.5 15t70.5 -15t54 -41t35 -61.5t12.5 -76.5zM298 522q0 29 -5 55.5t-15.5 46.5t-26 32t-37.5 12q-21 0 -36 -10.5t-25 -29.5t-15 -44t-5 -53
q0 -29 5 -56t15.5 -47.5t26 -32.5t36.5 -12q22 0 37.5 11t25.5 29.5t14.5 44t4.5 54.5z" />
    <glyph glyph-name="guillemotright" unicode="&#xbb;" horiz-adv-x="554" 
d="M279 279q0 -10 -5 -17.5t-12 -13.5q-18 -16 -37 -38.5t-37 -46.5t-33 -47t-25 -40q-12 -20 -30 -20q-14 0 -21 8t-7 20q0 8 3 15.5t7 14.5l72 128q8 14 10.5 21.5t2.5 15.5t-2.5 15.5t-10.5 21.5l-72 128q-4 7 -7 14.5t-3 15.5q0 12 7 20t21 8q18 0 30 -20
q10 -17 25 -39.5t33 -46.5t37 -46.5t37 -38.5q7 -6 12 -14t5 -18zM482 279q0 -10 -5 -17.5t-12 -13.5q-18 -16 -37 -38.5t-37 -46.5t-33 -47t-25 -40q-12 -20 -30 -20q-14 0 -21 8t-7 20q0 8 3 15.5t7 14.5l73 128q8 14 10.5 21.5t2.5 15.5t-2.5 15.5t-10.5 21.5l-73 128
q-4 7 -7 14.5t-3 15.5q0 12 7 20t21 8q18 0 30 -20q10 -17 25 -39.5t33 -46.5t37 -46.5t37 -38.5q7 -6 12 -14t5 -18z" />
    <glyph glyph-name="onequarter" unicode="&#xbc;" horiz-adv-x="857" 
d="M814 115q0 -14 -14 -14h-40v-87q0 -14 -14 -14h-42q-15 0 -15 14v87h-153q-27 0 -27 24q0 12 8 23l178 266q7 10 18 10h33q14 0 14 -14v-261h40q14 0 14 -14v-20zM667 691q0 -5 -5 -15l-370 -660q-5 -8 -9.5 -12t-14.5 -4h-21q-17 0 -17 15q0 3 2 7l4 8l370 660
q5 8 9.5 12t14.5 4h21q16 0 16 -15zM252 296q0 -14 -14 -14h-48q-15 0 -15 14v317q-12 -6 -26 -11.5t-27.5 -9.5t-25 -6.5t-18.5 -2.5q-11 0 -18 5.5t-7 16.5q0 18 21 23q31 8 68 27t64 48q10 12 24 12q12 0 17 -7t5 -17v-395zM692 346q-8 -19 -14.5 -30.5t-12.5 -21.5
l-95 -145h120v138q0 16 0.5 29t2.5 30h-1z" />
    <glyph glyph-name="onehalf" unicode="&#xbd;" horiz-adv-x="857" 
d="M803 14q0 -6 -4.5 -10t-10.5 -4h-237q-16 0 -16 16q0 7 7 16l141 189q16 22 26.5 45t10.5 43q0 32 -16.5 50.5t-48.5 18.5q-16 0 -28 -6.5t-20 -16.5t-13 -22t-8 -24q-5 -18 -23 -18q-11 0 -17 7.5t-6 19.5q0 19 7.5 40t23.5 37.5t40.5 27.5t58.5 11q33 0 57 -9.5
t39.5 -25t22.5 -36t7 -42.5q0 -34 -18.5 -67t-39.5 -58l-111 -133h161q6 0 10.5 -4t4.5 -10v-35zM631 691q0 -5 -5 -15l-370 -660q-5 -8 -9.5 -12t-14.5 -4h-21q-17 0 -17 15q0 3 2 7l4 8l370 660q5 8 9.5 12t14.5 4h21q16 0 16 -15zM252 296q0 -14 -14 -14h-48
q-15 0 -15 14v317q-12 -6 -26 -11.5t-27.5 -9.5t-25 -6.5t-18.5 -2.5q-11 0 -18 5.5t-7 16.5q0 18 21 23q31 8 68 27t64 48q10 12 24 12q12 0 17 -7t5 -17v-395z" />
    <glyph glyph-name="threequarters" unicode="&#xbe;" horiz-adv-x="857" 
d="M814 115q0 -14 -14 -14h-40v-87q0 -14 -14 -14h-42q-15 0 -15 14v87h-153q-27 0 -27 24q0 12 8 23l178 266q7 10 18 10h33q14 0 14 -14v-261h40q14 0 14 -14v-20zM324 412q0 -32 -11 -57.5t-31 -44t-47.5 -28.5t-61.5 -10q-26 0 -47.5 6.5t-37 17t-24 23t-8.5 24.5
q0 14 9 23.5t24 9.5q20 0 32 -17q11 -14 24.5 -25t36.5 -11q31 0 49.5 20.5t18.5 52.5q0 20 -8 35t-20.5 26.5t-29 19t-33.5 11.5q-20 5 -20 18q0 7 4 12t15 9q32 12 54 31t22 48q0 26 -17 40.5t-43 14.5q-31 0 -45.5 -18t-21.5 -38q-5 -17 -24 -17q-11 0 -17 7t-6 18
q0 18 8.5 36.5t24.5 33t40 24t54 9.5q31 0 54 -8.5t38 -22t22 -31t7 -35.5t-6 -32.5t-16 -26.5t-21.5 -20.5t-23.5 -14.5v-2q33 -14 58 -41.5t25 -69.5zM687 691q0 -5 -5 -15l-370 -660q-5 -8 -9.5 -12t-14.5 -4h-21q-17 0 -17 15q0 3 2 7l4 8l370 660q5 8 9.5 12t14.5 4h21
q16 0 16 -15zM692 346q-8 -19 -14.5 -30.5t-12.5 -21.5l-95 -145h120v138q0 16 0.5 29t2.5 30h-1z" />
    <glyph glyph-name="questiondown" unicode="&#xbf;" horiz-adv-x="532" 
d="M468 -56q0 -20 -14 -44.5t-41 -46t-66.5 -36t-90.5 -14.5q-50 0 -87 12.5t-61.5 33.5t-37 48t-12.5 56q0 28 10.5 51t26.5 42t35 34t36 26t27 21t15.5 20.5t7.5 23.5t3 30l4 73q1 16 18 16h48q16 0 18 -16l8 -127v-4q0 -16 -5.5 -25.5t-22.5 -20.5q-20 -13 -39.5 -27.5
t-34.5 -32t-24.5 -37t-9.5 -41.5q0 -38 24 -62.5t62 -24.5q23 0 39.5 7.5t27.5 19t18.5 26.5t13.5 30q15 40 53 40q20 0 35.5 -12t15.5 -39zM339 458q0 -31 -21.5 -52.5t-52.5 -21.5t-52.5 21.5t-21.5 52.5t21.5 52.5t52.5 21.5t52.5 -21.5t21.5 -52.5z" />
    <glyph glyph-name="Agrave" unicode="&#xc0;" horiz-adv-x="652" 
d="M635 17q0 -17 -17 -17h-90q-16 0 -22 17l-64 193h-248l-65 -193q-3 -8 -7.5 -12.5t-14.5 -4.5h-73q-17 0 -17 17q0 5 4 16l240 656q3 8 7.5 12.5t15.5 4.5h84q17 0 23 -17l240 -656q4 -9 4 -16zM350 488q-11 32 -18.5 65.5t-12.5 63.5h-2q-5 -31 -12 -64t-18 -65
l-69 -206h200zM359 782q0 -13 -13 -13h-29q-8 0 -13.5 4t-11.5 9l-104 100q-8 8 -8 15q0 9 12 15t31 6q24 0 43.5 -7.5t27.5 -20.5l59 -94q6 -9 6 -14z" />
    <glyph glyph-name="Aacute" unicode="&#xc1;" horiz-adv-x="652" 
d="M635 17q0 -17 -17 -17h-90q-16 0 -22 17l-64 193h-248l-65 -193q-3 -8 -7.5 -12.5t-14.5 -4.5h-73q-17 0 -17 17q0 5 4 16l240 656q3 8 7.5 12.5t15.5 4.5h84q17 0 23 -17l240 -656q4 -9 4 -16zM350 488q-11 32 -18.5 65.5t-12.5 63.5h-2q-5 -31 -12 -64t-18 -65
l-69 -206h200zM465 897q0 -7 -8 -15l-104 -100q-6 -5 -11.5 -9t-13.5 -4h-29q-13 0 -13 12q0 6 6 15l59 94q8 13 27.5 20.5t43.5 7.5q19 0 31 -6t12 -15z" />
    <glyph glyph-name="Acircumflex" unicode="&#xc2;" horiz-adv-x="652" 
d="M635 17q0 -17 -17 -17h-90q-16 0 -22 17l-64 193h-248l-65 -193q-3 -8 -7.5 -12.5t-14.5 -4.5h-73q-17 0 -17 17q0 5 4 16l240 656q3 8 7.5 12.5t15.5 4.5h84q17 0 23 -17l240 -656q4 -9 4 -16zM350 488q-11 32 -18.5 65.5t-12.5 63.5h-2q-5 -31 -12 -64t-18 -65
l-69 -206h200zM464 784q0 -21 -22 -21q-6 0 -12 3t-11 6l-69 46q-7 5 -12.5 7.5t-11.5 2.5t-11.5 -2.5t-12.5 -7.5l-69 -46q-5 -3 -11 -6t-12 -3q-22 0 -22 21q0 7 4.5 12t10.5 10q29 20 52 43t46 54q4 5 10 9.5t15 4.5t15 -4.5t10 -9.5q23 -31 46 -54t52 -43q6 -5 10.5 -10
t4.5 -12z" />
    <glyph glyph-name="Atilde" unicode="&#xc3;" horiz-adv-x="652" 
d="M635 17q0 -17 -17 -17h-90q-16 0 -22 17l-64 193h-248l-65 -193q-3 -8 -7.5 -12.5t-14.5 -4.5h-73q-17 0 -17 17q0 5 4 16l240 656q3 8 7.5 12.5t15.5 4.5h84q17 0 23 -17l240 -656q4 -9 4 -16zM350 488q-11 32 -18.5 65.5t-12.5 63.5h-2q-5 -31 -12 -64t-18 -65
l-69 -206h200zM465 872q0 -15 -4.5 -31.5t-14.5 -30.5t-26 -23.5t-39 -9.5q-21 0 -35 8t-25 18t-22 18t-27 8t-23.5 -8.5t-13 -18.5t-10.5 -18.5t-15 -8.5q-21 0 -21 23q0 15 4 31.5t14 30.5t26 23.5t39 9.5q21 0 35 -8.5t25.5 -18t22.5 -18t27 -8.5t23.5 8.5t13 19t10.5 19
t15 8.5q21 0 21 -23z" />
    <glyph glyph-name="Adieresis" unicode="&#xc4;" horiz-adv-x="652" 
d="M635 17q0 -17 -17 -17h-90q-16 0 -22 17l-64 193h-248l-65 -193q-3 -8 -7.5 -12.5t-14.5 -4.5h-73q-17 0 -17 17q0 5 4 16l240 656q3 8 7.5 12.5t15.5 4.5h84q17 0 23 -17l240 -656q4 -9 4 -16zM350 488q-11 32 -18.5 65.5t-12.5 63.5h-2q-5 -31 -12 -64t-18 -65
l-69 -206h200zM293 826q0 -22 -15.5 -37t-38.5 -15t-38.5 15t-15.5 37t15.5 37.5t38.5 15.5t38.5 -15.5t15.5 -37.5zM467 826q0 -22 -15.5 -37t-38.5 -15t-38.5 15t-15.5 37t15.5 37.5t38.5 15.5t38.5 -15.5t15.5 -37.5z" />
    <glyph glyph-name="Aring" unicode="&#xc5;" horiz-adv-x="652" 
d="M635 17q0 -17 -17 -17h-90q-16 0 -22 17l-64 193h-248l-65 -193q-3 -8 -7.5 -12.5t-14.5 -4.5h-73q-17 0 -17 17q0 5 4 16l240 656q3 8 7.5 12.5t15.5 4.5h84q17 0 23 -17l240 -656q4 -9 4 -16zM350 488q-11 32 -18.5 65.5t-12.5 63.5h-2q-5 -31 -12 -64t-18 -65
l-69 -206h200zM416 848q0 -37 -26.5 -63t-63.5 -26t-63.5 26t-26.5 63t26.5 63.5t63.5 26.5t63.5 -26.5t26.5 -63.5zM371 849q0 19 -13 32t-32 13t-32 -13t-13 -32t13 -32t32 -13t32 13t13 32z" />
    <glyph glyph-name="AE" unicode="&#xc6;" horiz-adv-x="853" 
d="M820 17q0 -17 -18 -17h-311q-9 0 -13 4t-6 13l-41 203h-227l-86 -203q-4 -8 -9 -12.5t-15 -4.5h-73q-9 0 -12 4.5t-3 10.5q0 4 2 8.5t4 9.5l301 656q4 9 9 13t16 4h384q17 0 17 -17v-46q0 -18 -17 -18h-267l53 -220h214q17 0 17 -17v-44q0 -18 -17 -18h-197l58 -244h219
q18 0 18 -17v-48zM378 488q-4 20 -7.5 50t-7.5 75h-2q-8 -26 -18 -58t-25 -67l-84 -197h183z" />
    <glyph glyph-name="Ccedilla" unicode="&#xc7;" horiz-adv-x="634" 
d="M598 123q0 -17 -16 -40.5t-46 -45t-71.5 -37t-92.5 -15.5h-13q-6 0 -13 1l-28 -50q64 -1 95.5 -22t31.5 -54q0 -17 -9.5 -33.5t-28.5 -29.5t-46 -20.5t-63 -7.5q-17 0 -36 2.5t-35 7t-27 12t-11 18.5q0 19 22 19q8 0 15 -2t16 -4t21 -4t30 -2q35 0 53.5 13t18.5 29
q0 17 -21 29.5t-71 12.5q-18 0 -18 16q0 5 2 9t4 9l29 60q-61 14 -105.5 48t-74 83t-44 109t-14.5 125q0 75 21.5 140.5t61.5 115t98 78t132 28.5q58 0 102 -16t73 -39.5t43.5 -49t14.5 -44.5q0 -26 -16 -39.5t-40 -13.5q-22 0 -35 13t-20 27q-6 11 -15 26t-23.5 28.5
t-36.5 23t-53 9.5q-38 0 -70.5 -17.5t-56 -51.5t-36.5 -83.5t-13 -112.5q0 -66 15 -122t42.5 -96.5t66 -63.5t85.5 -23q29 0 51.5 6.5t40.5 16t31.5 21t24.5 21.5q14 13 29 13q13 0 21 -8.5t8 -22.5z" />
    <glyph glyph-name="Egrave" unicode="&#xc8;" horiz-adv-x="499" 
d="M456 17q0 -17 -18 -17h-348q-17 0 -17 17v672q0 17 17 17h348q18 0 18 -17v-46q0 -18 -18 -18h-241v-220h204q17 0 17 -17v-44q0 -18 -17 -18h-204v-244h241q18 0 18 -17v-48zM307 782q0 -13 -13 -13h-29q-8 0 -13.5 4t-11.5 9l-104 100q-8 8 -8 15q0 9 12 15t31 6
q24 0 43.5 -7.5t27.5 -20.5l59 -94q6 -9 6 -14z" />
    <glyph glyph-name="Eacute" unicode="&#xc9;" horiz-adv-x="499" 
d="M456 17q0 -17 -18 -17h-348q-17 0 -17 17v672q0 17 17 17h348q18 0 18 -17v-46q0 -18 -18 -18h-241v-220h204q17 0 17 -17v-44q0 -18 -17 -18h-204v-244h241q18 0 18 -17v-48zM386 897q0 -7 -8 -15l-104 -100q-6 -5 -11.5 -9t-13.5 -4h-29q-13 0 -13 12q0 6 6 15l59 94
q8 13 27.5 20.5t43.5 7.5q19 0 31 -6t12 -15z" />
    <glyph glyph-name="Ecircumflex" unicode="&#xca;" horiz-adv-x="499" 
d="M456 17q0 -17 -18 -17h-348q-17 0 -17 17v672q0 17 17 17h348q18 0 18 -17v-46q0 -18 -18 -18h-241v-220h204q17 0 17 -17v-44q0 -18 -17 -18h-204v-244h241q18 0 18 -17v-48zM390 784q0 -21 -22 -21q-6 0 -12 3t-11 6l-69 46q-7 5 -12.5 7.5t-11.5 2.5t-11.5 -2.5
t-12.5 -7.5l-69 -46q-5 -3 -11 -6t-12 -3q-22 0 -22 21q0 7 4.5 12t10.5 10q29 20 52 43t46 54q4 5 10 9.5t15 4.5t15 -4.5t10 -9.5q23 -31 46 -54t52 -43q6 -5 10.5 -10t4.5 -12z" />
    <glyph glyph-name="Edieresis" unicode="&#xcb;" horiz-adv-x="499" 
d="M456 17q0 -17 -18 -17h-348q-17 0 -17 17v672q0 17 17 17h348q18 0 18 -17v-46q0 -18 -18 -18h-241v-220h204q17 0 17 -17v-44q0 -18 -17 -18h-204v-244h241q18 0 18 -17v-48zM224 826q0 -22 -15.5 -37t-38.5 -15t-38.5 15t-15.5 37t15.5 37.5t38.5 15.5t38.5 -15.5
t15.5 -37.5zM398 826q0 -22 -15.5 -37t-38.5 -15t-38.5 15t-15.5 37t15.5 37.5t38.5 15.5t38.5 -15.5t15.5 -37.5z" />
    <glyph glyph-name="Igrave" unicode="&#xcc;" horiz-adv-x="278" 
d="M201 17q0 -17 -17 -17h-89q-18 0 -18 17v672q0 17 18 17h89q17 0 17 -17v-672zM190 782q0 -13 -13 -13h-29q-8 0 -13.5 4t-11.5 9l-104 100q-8 8 -8 15q0 9 12 15t31 6q24 0 43.5 -7.5t27.5 -20.5l59 -94q6 -9 6 -14z" />
    <glyph glyph-name="Iacute" unicode="&#xcd;" horiz-adv-x="278" 
d="M201 17q0 -17 -17 -17h-89q-18 0 -18 17v672q0 17 18 17h89q17 0 17 -17v-672zM267 897q0 -7 -8 -15l-104 -100q-6 -5 -11.5 -9t-13.5 -4h-29q-13 0 -13 12q0 6 6 15l59 94q8 13 27.5 20.5t43.5 7.5q19 0 31 -6t12 -15z" />
    <glyph glyph-name="Icircumflex" unicode="&#xce;" horiz-adv-x="278" 
d="M201 17q0 -17 -17 -17h-89q-18 0 -18 17v672q0 17 18 17h89q17 0 17 -17v-672zM277 784q0 -21 -22 -21q-6 0 -12 3t-11 6l-69 46q-7 5 -12.5 7.5t-11.5 2.5t-11.5 -2.5t-12.5 -7.5l-69 -46q-5 -3 -11 -6t-12 -3q-22 0 -22 21q0 7 4.5 12t10.5 10q29 20 52 43t46 54
q4 5 10 9.5t15 4.5t15 -4.5t10 -9.5q23 -31 46 -54t52 -43q6 -5 10.5 -10t4.5 -12z" />
    <glyph glyph-name="Idieresis" unicode="&#xcf;" horiz-adv-x="278" 
d="M201 17q0 -17 -17 -17h-89q-18 0 -18 17v672q0 17 18 17h89q17 0 17 -17v-672zM106 826q0 -22 -15.5 -37t-38.5 -15t-38.5 15t-15.5 37t15.5 37.5t38.5 15.5t38.5 -15.5t15.5 -37.5zM280 826q0 -22 -15.5 -37t-38.5 -15t-38.5 15t-15.5 37t15.5 37.5t38.5 15.5
t38.5 -15.5t15.5 -37.5z" />
    <glyph glyph-name="Eth" unicode="&#xd0;" horiz-adv-x="694" 
d="M642 354q0 -85 -22.5 -152.5t-69 -114t-116.5 -71t-164 -24.5q-25 0 -51 1.5t-48.5 4t-39 5.5t-23.5 5q-11 3 -14.5 8t-3.5 14v300h-52q-18 0 -18 19v34q0 19 18 19h52v274q0 9 3.5 14t14.5 8q6 2 21.5 4.5t37.5 5t48 4.5t55 2q95 0 165 -25.5t116 -72.5t68.5 -113.5
t22.5 -148.5zM514 356q0 135 -57.5 211.5t-173.5 76.5q-22 0 -40.5 -1.5t-30.5 -3.5v-237h107q19 0 19 -19v-34q0 -19 -19 -19h-107v-257q12 -2 30.5 -4t40.5 -2q61 0 104.5 20t71.5 57t41.5 90.5t13.5 121.5z" />
    <glyph glyph-name="Ntilde" unicode="&#xd1;" horiz-adv-x="715" 
d="M641 17q0 -17 -18 -17h-73q-11 0 -16.5 4.5t-10.5 12.5l-294 446q-14 20 -29 49.5t-31 66.5h-2q3 -32 5 -64t2 -60v-438q0 -17 -18 -17h-65q-17 0 -17 17v672q0 17 17 17h94q9 0 15 -4.5t11 -12.5l274 -414q14 -22 31.5 -55t29.5 -63h2q-2 23 -3.5 40.5t-2 32.5t-1 29
t-0.5 29v401q0 17 17 17h65q18 0 18 -17v-672zM495 872q0 -15 -4.5 -31.5t-14.5 -30.5t-26 -23.5t-39 -9.5q-21 0 -35 8t-25 18t-22 18t-27 8t-23.5 -8.5t-13 -18.5t-10.5 -18.5t-15 -8.5q-21 0 -21 23q0 15 4 31.5t14 30.5t26 23.5t39 9.5q21 0 35 -8.5t25.5 -18t22.5 -18
t27 -8.5t23.5 8.5t13 19t10.5 19t15 8.5q21 0 21 -23z" />
    <glyph glyph-name="Ograve" unicode="&#xd2;" horiz-adv-x="721" 
d="M669 357q0 -90 -24 -159.5t-66 -116.5t-98.5 -71.5t-120.5 -24.5t-120 24.5t-98 71.5t-66 116.5t-24 159.5q0 84 23 151.5t63.5 115t97 72.5t124.5 25q67 0 124 -25t98 -72.5t64 -115t23 -151.5zM539 349q0 69 -13 123.5t-36.5 92.5t-57 58.5t-74.5 20.5q-42 0 -75 -20
t-55 -56t-33.5 -87t-11.5 -112q0 -71 13.5 -126.5t38 -93.5t57.5 -58.5t72 -20.5q40 0 72.5 20t55.5 56.5t35 88t12 114.5zM403 782q0 -13 -13 -13h-29q-8 0 -13.5 4t-11.5 9l-104 100q-8 8 -8 15q0 9 12 15t31 6q24 0 43.5 -7.5t27.5 -20.5l59 -94q6 -9 6 -14z" />
    <glyph glyph-name="Oacute" unicode="&#xd3;" horiz-adv-x="721" 
d="M669 357q0 -90 -24 -159.5t-66 -116.5t-98.5 -71.5t-120.5 -24.5t-120 24.5t-98 71.5t-66 116.5t-24 159.5q0 84 23 151.5t63.5 115t97 72.5t124.5 25q67 0 124 -25t98 -72.5t64 -115t23 -151.5zM539 349q0 69 -13 123.5t-36.5 92.5t-57 58.5t-74.5 20.5q-42 0 -75 -20
t-55 -56t-33.5 -87t-11.5 -112q0 -71 13.5 -126.5t38 -93.5t57.5 -58.5t72 -20.5q40 0 72.5 20t55.5 56.5t35 88t12 114.5zM495 897q0 -7 -8 -15l-104 -100q-6 -5 -11.5 -9t-13.5 -4h-29q-13 0 -13 12q0 6 6 15l59 94q8 13 27.5 20.5t43.5 7.5q19 0 31 -6t12 -15z" />
    <glyph glyph-name="Ocircumflex" unicode="&#xd4;" horiz-adv-x="721" 
d="M669 357q0 -90 -24 -159.5t-66 -116.5t-98.5 -71.5t-120.5 -24.5t-120 24.5t-98 71.5t-66 116.5t-24 159.5q0 84 23 151.5t63.5 115t97 72.5t124.5 25q67 0 124 -25t98 -72.5t64 -115t23 -151.5zM539 349q0 69 -13 123.5t-36.5 92.5t-57 58.5t-74.5 20.5q-42 0 -75 -20
t-55 -56t-33.5 -87t-11.5 -112q0 -71 13.5 -126.5t38 -93.5t57.5 -58.5t72 -20.5q40 0 72.5 20t55.5 56.5t35 88t12 114.5zM499 784q0 -21 -22 -21q-6 0 -12 3t-11 6l-69 46q-7 5 -12.5 7.5t-11.5 2.5t-11.5 -2.5t-12.5 -7.5l-69 -46q-5 -3 -11 -6t-12 -3q-22 0 -22 21
q0 7 4.5 12t10.5 10q29 20 52 43t46 54q4 5 10 9.5t15 4.5t15 -4.5t10 -9.5q23 -31 46 -54t52 -43q6 -5 10.5 -10t4.5 -12z" />
    <glyph glyph-name="Otilde" unicode="&#xd5;" horiz-adv-x="721" 
d="M669 357q0 -90 -24 -159.5t-66 -116.5t-98.5 -71.5t-120.5 -24.5t-120 24.5t-98 71.5t-66 116.5t-24 159.5q0 84 23 151.5t63.5 115t97 72.5t124.5 25q67 0 124 -25t98 -72.5t64 -115t23 -151.5zM539 349q0 69 -13 123.5t-36.5 92.5t-57 58.5t-74.5 20.5q-42 0 -75 -20
t-55 -56t-33.5 -87t-11.5 -112q0 -71 13.5 -126.5t38 -93.5t57.5 -58.5t72 -20.5q40 0 72.5 20t55.5 56.5t35 88t12 114.5zM497 872q0 -15 -4.5 -31.5t-14.5 -30.5t-26 -23.5t-39 -9.5q-21 0 -35 8t-25 18t-22 18t-27 8t-23.5 -8.5t-13 -18.5t-10.5 -18.5t-15 -8.5
q-21 0 -21 23q0 15 4 31.5t14 30.5t26 23.5t39 9.5q21 0 35 -8.5t25.5 -18t22.5 -18t27 -8.5t23.5 8.5t13 19t10.5 19t15 8.5q21 0 21 -23z" />
    <glyph glyph-name="Odieresis" unicode="&#xd6;" horiz-adv-x="721" 
d="M669 357q0 -90 -24 -159.5t-66 -116.5t-98.5 -71.5t-120.5 -24.5t-120 24.5t-98 71.5t-66 116.5t-24 159.5q0 84 23 151.5t63.5 115t97 72.5t124.5 25q67 0 124 -25t98 -72.5t64 -115t23 -151.5zM539 349q0 69 -13 123.5t-36.5 92.5t-57 58.5t-74.5 20.5q-42 0 -75 -20
t-55 -56t-33.5 -87t-11.5 -112q0 -71 13.5 -126.5t38 -93.5t57.5 -58.5t72 -20.5q40 0 72.5 20t55.5 56.5t35 88t12 114.5zM327 826q0 -22 -15.5 -37t-38.5 -15t-38.5 15t-15.5 37t15.5 37.5t38.5 15.5t38.5 -15.5t15.5 -37.5zM501 826q0 -22 -15.5 -37t-38.5 -15t-38.5 15
t-15.5 37t15.5 37.5t38.5 15.5t38.5 -15.5t15.5 -37.5z" />
    <glyph glyph-name="multiply" unicode="&#xd7;" 
d="M475 151q0 -7 -6 -13l-30 -31q-6 -6 -14 -6q-7 0 -13 6l-134 134l-134 -134q-6 -6 -13 -6t-13 6l-31 31q-6 6 -6 13t6 13l134 134l-134 134q-6 6 -6 13q0 8 6 14l31 30q6 6 13 6t13 -6l134 -134l134 134q6 6 13 6q8 0 14 -6l30 -30q6 -6 6 -14q0 -7 -6 -13l-134 -134
l134 -134q6 -6 6 -13z" />
    <glyph glyph-name="Oslash" unicode="&#xd8;" horiz-adv-x="732" 
d="M680 357q0 -90 -24.5 -159.5t-66.5 -116.5t-99.5 -71.5t-123.5 -24.5q-107 0 -186 62l-71 -103q-6 -9 -13 -9q-5 0 -17 9q-13 10 -13 16q0 4 5 12l74 107q-44 48 -68.5 117.5t-24.5 160.5q0 84 23 151.5t64.5 115t99 72.5t127.5 25q109 0 186 -59l70 100q5 8 13 8
q6 0 17 -9q7 -5 9 -8t2 -8t-5 -12l-71 -103q45 -47 69 -115.5t24 -157.5zM498 584q-24 32 -57 49t-77 17q-45 0 -80.5 -19.5t-60.5 -56t-38 -88.5t-13 -117q0 -60 10 -109t29 -87zM560 349q0 55 -9 103.5t-27 87.5l-286 -410q52 -66 131 -66q43 0 78.5 19.5t60.5 56
t38.5 89.5t13.5 120z" />
    <glyph glyph-name="Ugrave" unicode="&#xd9;" horiz-adv-x="651" 
d="M579 211q0 -58 -20 -100.5t-54.5 -70.5t-80.5 -41.5t-98 -13.5t-98 13.5t-80.5 41.5t-55 70.5t-20.5 100.5v478q0 17 18 17h89q17 0 17 -17v-473q0 -33 10.5 -58.5t29 -43.5t43.5 -27t55 -9q60 0 98 36t38 102v473q0 17 18 17h74q17 0 17 -17v-478zM376 782
q0 -13 -13 -13h-29q-8 0 -13.5 4t-11.5 9l-104 100q-8 8 -8 15q0 9 12 15t31 6q24 0 43.5 -7.5t27.5 -20.5l59 -94q6 -9 6 -14z" />
    <glyph glyph-name="Uacute" unicode="&#xda;" horiz-adv-x="651" 
d="M579 211q0 -58 -20 -100.5t-54.5 -70.5t-80.5 -41.5t-98 -13.5t-98 13.5t-80.5 41.5t-55 70.5t-20.5 100.5v478q0 17 18 17h89q17 0 17 -17v-473q0 -33 10.5 -58.5t29 -43.5t43.5 -27t55 -9q60 0 98 36t38 102v473q0 17 18 17h74q17 0 17 -17v-478zM463 897q0 -7 -8 -15
l-104 -100q-6 -5 -11.5 -9t-13.5 -4h-29q-13 0 -13 12q0 6 6 15l59 94q8 13 27.5 20.5t43.5 7.5q19 0 31 -6t12 -15z" />
    <glyph glyph-name="Ucircumflex" unicode="&#xdb;" horiz-adv-x="651" 
d="M579 211q0 -58 -20 -100.5t-54.5 -70.5t-80.5 -41.5t-98 -13.5t-98 13.5t-80.5 41.5t-55 70.5t-20.5 100.5v478q0 17 18 17h89q17 0 17 -17v-473q0 -33 10.5 -58.5t29 -43.5t43.5 -27t55 -9q60 0 98 36t38 102v473q0 17 18 17h74q17 0 17 -17v-478zM468 784
q0 -21 -22 -21q-6 0 -12 3t-11 6l-69 46q-7 5 -12.5 7.5t-11.5 2.5t-11.5 -2.5t-12.5 -7.5l-69 -46q-5 -3 -11 -6t-12 -3q-22 0 -22 21q0 7 4.5 12t10.5 10q29 20 52 43t46 54q4 5 10 9.5t15 4.5t15 -4.5t10 -9.5q23 -31 46 -54t52 -43q6 -5 10.5 -10t4.5 -12z" />
    <glyph glyph-name="Udieresis" unicode="&#xdc;" horiz-adv-x="651" 
d="M579 211q0 -58 -20 -100.5t-54.5 -70.5t-80.5 -41.5t-98 -13.5t-98 13.5t-80.5 41.5t-55 70.5t-20.5 100.5v478q0 17 18 17h89q17 0 17 -17v-473q0 -33 10.5 -58.5t29 -43.5t43.5 -27t55 -9q60 0 98 36t38 102v473q0 17 18 17h74q17 0 17 -17v-478zM296 826
q0 -22 -15.5 -37t-38.5 -15t-38.5 15t-15.5 37t15.5 37.5t38.5 15.5t38.5 -15.5t15.5 -37.5zM470 826q0 -22 -15.5 -37t-38.5 -15t-38.5 15t-15.5 37t15.5 37.5t38.5 15.5t38.5 -15.5t15.5 -37.5z" />
    <glyph glyph-name="Yacute" unicode="&#xdd;" horiz-adv-x="562" 
d="M546 689q0 -5 -4 -13l-199 -351v-308q0 -17 -17 -17h-90q-17 0 -17 17v308l-197 348l-4 8q-2 4 -2 9q0 16 18 16h93q10 0 14.5 -3t9.5 -12l137 -269h2l143 269q5 9 10 12t15 3h70q18 0 18 -17zM427 897q0 -7 -8 -15l-104 -100q-6 -5 -11.5 -9t-13.5 -4h-29q-13 0 -13 12
q0 6 6 15l59 94q8 13 27.5 20.5t43.5 7.5q19 0 31 -6t12 -15z" />
    <glyph glyph-name="Thorn" unicode="&#xde;" horiz-adv-x="576" 
d="M534 372q0 -44 -15.5 -82.5t-49 -67t-87.5 -45t-132 -16.5q-32 0 -54 3v-147q0 -17 -17 -17h-89q-17 0 -17 17v672q0 17 17 17h89q17 0 17 -17v-111q14 2 32.5 4t41.5 2q60 0 108.5 -13.5t83 -40t53.5 -66.5t19 -92zM408 371q0 66 -33.5 105t-106.5 39q-24 0 -42.5 -2
t-29.5 -4v-277q18 -3 43 -3q88 0 128.5 38t40.5 104z" />
    <glyph glyph-name="germandbls" unicode="&#xdf;" horiz-adv-x="595" 
d="M552 150q0 -36 -12.5 -65.5t-34 -51t-51.5 -33.5t-65 -12q-28 0 -52.5 6t-43 16.5t-29 24.5t-10.5 30q0 22 12.5 33.5t29.5 11.5q14 0 23 -5.5t17 -15.5t21.5 -21t35.5 -11q32 0 49 21.5t17 48.5q0 25 -14 46t-34.5 40t-45 37.5t-45 38.5t-34.5 43t-14 51q0 39 16.5 67.5
t36 53.5t36 52t16.5 63q0 45 -27.5 70t-67.5 25q-20 0 -38 -8t-32 -25.5t-22.5 -46t-8.5 -68.5v-549q0 -17 -17 -17h-79q-18 0 -18 17v457q0 83 17.5 141t49 94t74.5 52.5t93 16.5q35 0 67 -9t56 -26.5t38 -43.5t14 -61q0 -41 -15.5 -70.5t-34.5 -54t-34.5 -48t-15.5 -52.5
q0 -22 13 -40t32.5 -35t42.5 -35.5t42.5 -40.5t32.5 -49t13 -63z" />
    <glyph glyph-name="agrave" unicode="&#xe0;" horiz-adv-x="508" 
d="M442 98q0 -32 -8.5 -49t-29.5 -31q-17 -11 -59 -21t-90 -10q-44 0 -82.5 8.5t-67 25.5t-45.5 44t-17 63q0 51 27.5 84t70.5 54t93.5 33.5t97.5 21.5v68q0 38 -20.5 59.5t-52.5 21.5q-21 0 -36 -7t-26 -18t-18.5 -25t-11.5 -27q-7 -20 -19.5 -27.5t-31.5 -7.5
q-20 0 -35.5 11.5t-15.5 34.5q0 16 11.5 38t37 42t65 33.5t96.5 13.5q34 0 64.5 -9.5t53 -28t36 -47t13.5 -66.5v-282zM332 270q-35 -7 -67.5 -16.5t-57 -24.5t-39.5 -37t-15 -55q0 -36 25.5 -62t74.5 -26q14 0 28 2.5t25.5 9t18.5 17.5t7 27v165zM315 594q0 -13 -13 -13
h-29q-8 0 -13.5 4t-11.5 9l-104 100q-8 8 -8 15q0 9 12 15t31 6q24 0 43.5 -7.5t27.5 -20.5l59 -94q6 -9 6 -14z" />
    <glyph glyph-name="aacute" unicode="&#xe1;" horiz-adv-x="508" 
d="M442 98q0 -32 -8.5 -49t-29.5 -31q-17 -11 -59 -21t-90 -10q-44 0 -82.5 8.5t-67 25.5t-45.5 44t-17 63q0 51 27.5 84t70.5 54t93.5 33.5t97.5 21.5v68q0 38 -20.5 59.5t-52.5 21.5q-21 0 -36 -7t-26 -18t-18.5 -25t-11.5 -27q-7 -20 -19.5 -27.5t-31.5 -7.5
q-20 0 -35.5 11.5t-15.5 34.5q0 16 11.5 38t37 42t65 33.5t96.5 13.5q34 0 64.5 -9.5t53 -28t36 -47t13.5 -66.5v-282zM332 270q-35 -7 -67.5 -16.5t-57 -24.5t-39.5 -37t-15 -55q0 -36 25.5 -62t74.5 -26q14 0 28 2.5t25.5 9t18.5 17.5t7 27v165zM392 709q0 -7 -8 -15
l-104 -100q-6 -5 -11.5 -9t-13.5 -4h-29q-13 0 -13 12q0 6 6 15l59 94q8 13 27.5 20.5t43.5 7.5q19 0 31 -6t12 -15z" />
    <glyph glyph-name="acircumflex" unicode="&#xe2;" horiz-adv-x="508" 
d="M442 98q0 -32 -8.5 -49t-29.5 -31q-17 -11 -59 -21t-90 -10q-44 0 -82.5 8.5t-67 25.5t-45.5 44t-17 63q0 51 27.5 84t70.5 54t93.5 33.5t97.5 21.5v68q0 38 -20.5 59.5t-52.5 21.5q-21 0 -36 -7t-26 -18t-18.5 -25t-11.5 -27q-7 -20 -19.5 -27.5t-31.5 -7.5
q-20 0 -35.5 11.5t-15.5 34.5q0 16 11.5 38t37 42t65 33.5t96.5 13.5q34 0 64.5 -9.5t53 -28t36 -47t13.5 -66.5v-282zM332 270q-35 -7 -67.5 -16.5t-57 -24.5t-39.5 -37t-15 -55q0 -36 25.5 -62t74.5 -26q14 0 28 2.5t25.5 9t18.5 17.5t7 27v165zM391 596q0 -21 -22 -21
q-6 0 -12 3t-11 6l-69 46q-7 5 -12.5 7.5t-11.5 2.5t-11.5 -2.5t-12.5 -7.5l-69 -46q-5 -3 -11 -6t-12 -3q-22 0 -22 21q0 7 4.5 12t10.5 10q29 20 52 43t46 54q4 5 10 9.5t15 4.5t15 -4.5t10 -9.5q23 -31 46 -54t52 -43q6 -5 10.5 -10t4.5 -12z" />
    <glyph glyph-name="atilde" unicode="&#xe3;" horiz-adv-x="508" 
d="M442 98q0 -32 -8.5 -49t-29.5 -31q-17 -11 -59 -21t-90 -10q-44 0 -82.5 8.5t-67 25.5t-45.5 44t-17 63q0 51 27.5 84t70.5 54t93.5 33.5t97.5 21.5v68q0 38 -20.5 59.5t-52.5 21.5q-21 0 -36 -7t-26 -18t-18.5 -25t-11.5 -27q-7 -20 -19.5 -27.5t-31.5 -7.5
q-20 0 -35.5 11.5t-15.5 34.5q0 16 11.5 38t37 42t65 33.5t96.5 13.5q34 0 64.5 -9.5t53 -28t36 -47t13.5 -66.5v-282zM332 270q-35 -7 -67.5 -16.5t-57 -24.5t-39.5 -37t-15 -55q0 -36 25.5 -62t74.5 -26q14 0 28 2.5t25.5 9t18.5 17.5t7 27v165zM392 684q0 -15 -4.5 -31.5
t-14.5 -30.5t-26 -23.5t-39 -9.5q-21 0 -35 8t-25 18t-22 18t-27 8t-23.5 -8.5t-13 -18.5t-10.5 -18.5t-15 -8.5q-21 0 -21 23q0 15 4 31.5t14 30.5t26 23.5t39 9.5q21 0 35 -8.5t25.5 -18t22.5 -18t27 -8.5t23.5 8.5t13 19t10.5 19t15 8.5q21 0 21 -23z" />
    <glyph glyph-name="adieresis" unicode="&#xe4;" horiz-adv-x="508" 
d="M442 98q0 -32 -8.5 -49t-29.5 -31q-17 -11 -59 -21t-90 -10q-44 0 -82.5 8.5t-67 25.5t-45.5 44t-17 63q0 51 27.5 84t70.5 54t93.5 33.5t97.5 21.5v68q0 38 -20.5 59.5t-52.5 21.5q-21 0 -36 -7t-26 -18t-18.5 -25t-11.5 -27q-7 -20 -19.5 -27.5t-31.5 -7.5
q-20 0 -35.5 11.5t-15.5 34.5q0 16 11.5 38t37 42t65 33.5t96.5 13.5q34 0 64.5 -9.5t53 -28t36 -47t13.5 -66.5v-282zM332 270q-35 -7 -67.5 -16.5t-57 -24.5t-39.5 -37t-15 -55q0 -36 25.5 -62t74.5 -26q14 0 28 2.5t25.5 9t18.5 17.5t7 27v165zM226 638q0 -22 -15.5 -37
t-38.5 -15t-38.5 15t-15.5 37t15.5 37.5t38.5 15.5t38.5 -15.5t15.5 -37.5zM400 638q0 -22 -15.5 -37t-38.5 -15t-38.5 15t-15.5 37t15.5 37.5t38.5 15.5t38.5 -15.5t15.5 -37.5z" />
    <glyph glyph-name="aring" unicode="&#xe5;" horiz-adv-x="508" 
d="M442 98q0 -32 -8.5 -49t-29.5 -31q-17 -11 -59 -21t-90 -10q-44 0 -82.5 8.5t-67 25.5t-45.5 44t-17 63q0 51 27.5 84t70.5 54t93.5 33.5t97.5 21.5v68q0 38 -20.5 59.5t-52.5 21.5q-21 0 -36 -7t-26 -18t-18.5 -25t-11.5 -27q-7 -20 -19.5 -27.5t-31.5 -7.5
q-20 0 -35.5 11.5t-15.5 34.5q0 16 11.5 38t37 42t65 33.5t96.5 13.5q34 0 64.5 -9.5t53 -28t36 -47t13.5 -66.5v-282zM332 270q-35 -7 -67.5 -16.5t-57 -24.5t-39.5 -37t-15 -55q0 -36 25.5 -62t74.5 -26q14 0 28 2.5t25.5 9t18.5 17.5t7 27v165zM352 662q0 -37 -26.5 -63
t-63.5 -26t-63.5 26t-26.5 63t26.5 63.5t63.5 26.5t63.5 -26.5t26.5 -63.5zM307 663q0 19 -13 32t-32 13t-32 -13t-13 -32t13 -32t32 -13t32 13t13 32z" />
    <glyph glyph-name="ae" unicode="&#xe6;" horiz-adv-x="799" 
d="M755 156q0 -23 -12 -52t-35.5 -55t-59.5 -44t-84 -18q-29 0 -55.5 9t-48 24t-37 33.5t-22.5 37.5h-2q-5 -19 -19.5 -37.5t-36.5 -33.5t-50 -24t-61 -9q-88 0 -138.5 36t-50.5 102q0 50 26 82t67.5 52t93.5 30.5t104 17.5v83q0 38 -24 58.5t-56 20.5q-21 0 -36 -7.5
t-25.5 -18.5t-17 -24t-10.5 -24q-8 -20 -20.5 -28.5t-31.5 -8.5q-21 0 -34.5 11t-13.5 35q0 16 11.5 38t35.5 41.5t61 33.5t88 14q57 0 94.5 -28t45.5 -68h2q9 19 24 36.5t35.5 30.5t46.5 21t56 8q43 0 78 -17t59 -44.5t37 -63t13 -72.5q0 -17 -7 -23t-23 -8l-287 -40
q1 -37 10.5 -70.5t27.5 -59t45.5 -40.5t65.5 -15q24 0 42.5 8t33.5 20.5t26.5 27.5t19.5 29q10 18 27 18q10 0 16 -7.5t6 -17.5zM334 255q-39 -6 -72.5 -13.5t-58 -21t-38.5 -34t-14 -51.5q0 -36 22.5 -60.5t67.5 -24.5q41 0 67 26t26 68v111zM645 349q-1 23 -7 45t-17 38.5
t-28.5 26.5t-41.5 10q-28 0 -49 -12.5t-35.5 -33.5t-22.5 -48.5t-10 -57.5z" />
    <glyph glyph-name="ccedilla" unicode="&#xe7;" horiz-adv-x="494" 
d="M460 158q0 -23 -12 -52t-35.5 -55.5t-58.5 -44.5t-81 -19l-28 -51q64 -1 95.5 -22t31.5 -54q0 -17 -9.5 -33.5t-28.5 -29.5t-46 -20.5t-63 -7.5q-17 0 -36 2.5t-35 7t-27 12t-11 18.5q0 19 22 19q8 0 15 -2t16 -4t21 -4t30 -2q35 0 53.5 13t18.5 29q0 17 -21 29.5
t-71 12.5q-18 0 -18 16q0 5 2 9t4 9l29 59q-35 8 -66 27.5t-54.5 52t-37 79t-13.5 107.5q0 66 17 117t47 85.5t71.5 52t90.5 17.5q48 0 82.5 -14.5t57.5 -34.5t34 -43t11 -39q0 -24 -13.5 -37.5t-39.5 -13.5q-21 0 -32.5 11.5t-16.5 28.5q-3 9 -8.5 22t-16 26t-26.5 22
t-39 9t-43.5 -11.5t-36 -34t-25 -56t-9.5 -77.5q0 -42 8.5 -79.5t26.5 -66t45.5 -45.5t64.5 -17q24 0 41.5 8t31 20t23 27t17.5 29q10 18 28 18q11 0 17 -7t6 -18z" />
    <glyph glyph-name="egrave" unicode="&#xe8;" horiz-adv-x="518" 
d="M474 156q0 -23 -13 -52t-38.5 -55t-62.5 -44t-85 -18q-45 0 -86.5 15.5t-73 48.5t-50.5 85t-19 126q0 70 19 120.5t51 83.5t73 49t86 16q47 0 83.5 -16.5t61.5 -44.5t38 -63.5t13 -73.5q0 -17 -7 -23.5t-23 -8.5l-291 -48q2 -35 12 -67t28 -56t45 -38t63 -14q24 0 43.5 8
t35.5 20.5t28 27.5t20 29q10 18 26 18q11 0 17 -7t6 -18zM362 347q-1 23 -6.5 45t-17.5 39t-30 27t-45 10q-30 0 -51.5 -13.5t-36 -36t-22 -51t-8.5 -57.5zM317 594q0 -13 -13 -13h-29q-8 0 -13.5 4t-11.5 9l-104 100q-8 8 -8 15q0 9 12 15t31 6q24 0 43.5 -7.5t27.5 -20.5
l59 -94q6 -9 6 -14z" />
    <glyph glyph-name="eacute" unicode="&#xe9;" horiz-adv-x="518" 
d="M474 156q0 -23 -13 -52t-38.5 -55t-62.5 -44t-85 -18q-45 0 -86.5 15.5t-73 48.5t-50.5 85t-19 126q0 70 19 120.5t51 83.5t73 49t86 16q47 0 83.5 -16.5t61.5 -44.5t38 -63.5t13 -73.5q0 -17 -7 -23.5t-23 -8.5l-291 -48q2 -35 12 -67t28 -56t45 -38t63 -14q24 0 43.5 8
t35.5 20.5t28 27.5t20 29q10 18 26 18q11 0 17 -7t6 -18zM362 347q-1 23 -6.5 45t-17.5 39t-30 27t-45 10q-30 0 -51.5 -13.5t-36 -36t-22 -51t-8.5 -57.5zM394 709q0 -7 -8 -15l-104 -100q-6 -5 -11.5 -9t-13.5 -4h-29q-13 0 -13 12q0 6 6 15l59 94q8 13 27.5 20.5
t43.5 7.5q19 0 31 -6t12 -15z" />
    <glyph glyph-name="ecircumflex" unicode="&#xea;" horiz-adv-x="518" 
d="M474 156q0 -23 -13 -52t-38.5 -55t-62.5 -44t-85 -18q-45 0 -86.5 15.5t-73 48.5t-50.5 85t-19 126q0 70 19 120.5t51 83.5t73 49t86 16q47 0 83.5 -16.5t61.5 -44.5t38 -63.5t13 -73.5q0 -17 -7 -23.5t-23 -8.5l-291 -48q2 -35 12 -67t28 -56t45 -38t63 -14q24 0 43.5 8
t35.5 20.5t28 27.5t20 29q10 18 26 18q11 0 17 -7t6 -18zM362 347q-1 23 -6.5 45t-17.5 39t-30 27t-45 10q-30 0 -51.5 -13.5t-36 -36t-22 -51t-8.5 -57.5zM403 596q0 -21 -22 -21q-6 0 -12 3t-11 6l-69 46q-7 5 -12.5 7.5t-11.5 2.5t-11.5 -2.5t-12.5 -7.5l-69 -46
q-5 -3 -11 -6t-12 -3q-22 0 -22 21q0 7 4.5 12t10.5 10q29 20 52 43t46 54q4 5 10 9.5t15 4.5t15 -4.5t10 -9.5q23 -31 46 -54t52 -43q6 -5 10.5 -10t4.5 -12z" />
    <glyph glyph-name="edieresis" unicode="&#xeb;" horiz-adv-x="518" 
d="M474 156q0 -23 -13 -52t-38.5 -55t-62.5 -44t-85 -18q-45 0 -86.5 15.5t-73 48.5t-50.5 85t-19 126q0 70 19 120.5t51 83.5t73 49t86 16q47 0 83.5 -16.5t61.5 -44.5t38 -63.5t13 -73.5q0 -17 -7 -23.5t-23 -8.5l-291 -48q2 -35 12 -67t28 -56t45 -38t63 -14q24 0 43.5 8
t35.5 20.5t28 27.5t20 29q10 18 26 18q11 0 17 -7t6 -18zM362 347q-1 23 -6.5 45t-17.5 39t-30 27t-45 10q-30 0 -51.5 -13.5t-36 -36t-22 -51t-8.5 -57.5zM231 638q0 -22 -15.5 -37t-38.5 -15t-38.5 15t-15.5 37t15.5 37.5t38.5 15.5t38.5 -15.5t15.5 -37.5zM405 638
q0 -22 -15.5 -37t-38.5 -15t-38.5 15t-15.5 37t15.5 37.5t38.5 15.5t38.5 -15.5t15.5 -37.5z" />
    <glyph glyph-name="igrave" unicode="&#xec;" horiz-adv-x="258" 
d="M186 17q0 -17 -17 -17h-80q-17 0 -17 17v484q0 17 17 17h80q17 0 17 -17v-484zM183 594q0 -13 -13 -13h-29q-8 0 -13.5 4t-11.5 9l-104 100q-8 8 -8 15q0 9 12 15t31 6q24 0 43.5 -7.5t27.5 -20.5l59 -94q6 -9 6 -14z" />
    <glyph glyph-name="iacute" unicode="&#xed;" horiz-adv-x="258" 
d="M186 17q0 -17 -17 -17h-80q-17 0 -17 17v484q0 17 17 17h80q17 0 17 -17v-484zM254 709q0 -7 -8 -15l-104 -100q-6 -5 -11.5 -9t-13.5 -4h-29q-13 0 -13 12q0 6 6 15l59 94q8 13 27.5 20.5t43.5 7.5q19 0 31 -6t12 -15z" />
    <glyph glyph-name="icircumflex" unicode="&#xee;" horiz-adv-x="258" 
d="M186 17q0 -17 -17 -17h-80q-17 0 -17 17v484q0 17 17 17h80q17 0 17 -17v-484zM267 596q0 -21 -22 -21q-6 0 -12 3t-11 6l-69 46q-7 5 -12.5 7.5t-11.5 2.5t-11.5 -2.5t-12.5 -7.5l-69 -46q-5 -3 -11 -6t-12 -3q-22 0 -22 21q0 7 4.5 12t10.5 10q29 20 52 43t46 54
q4 5 10 9.5t15 4.5t15 -4.5t10 -9.5q23 -31 46 -54t52 -43q6 -5 10.5 -10t4.5 -12z" />
    <glyph glyph-name="idieresis" unicode="&#xef;" horiz-adv-x="258" 
d="M186 17q0 -17 -17 -17h-80q-17 0 -17 17v484q0 17 17 17h80q17 0 17 -17v-484zM96 638q0 -22 -15.5 -37t-38.5 -15t-38.5 15t-15.5 37t15.5 37.5t38.5 15.5t38.5 -15.5t15.5 -37.5zM270 638q0 -22 -15.5 -37t-38.5 -15t-38.5 15t-15.5 37t15.5 37.5t38.5 15.5t38.5 -15.5
t15.5 -37.5z" />
    <glyph glyph-name="eth" unicode="&#xf0;" horiz-adv-x="564" 
d="M515 259q0 -52 -14.5 -101t-43.5 -87t-72.5 -61t-102.5 -23q-56 0 -99.5 21.5t-73.5 58.5t-46 87t-16 107q0 58 17 107.5t47 84.5t70.5 55t88.5 20q23 0 41.5 -3.5t32.5 -8.5q-14 32 -30.5 61t-34.5 56l-79 -21q-6 -2 -11.5 -3t-10.5 -1q-7 0 -11.5 3.5t-11.5 13.5t-7 15
q0 8 15 13l87 23q-24 32 -46 57q-5 5 -6 8.5t-1 6.5q0 7 6.5 11t24.5 9q16 5 24.5 6t13.5 1q13 0 22 -9q14 -15 27 -31t27 -33l77 21q6 2 11.5 3t10.5 1q7 0 11.5 -3.5t11.5 -13.5t7 -15q0 -9 -14 -13l-84 -22q30 -41 55.5 -87t45 -96t30.5 -104.5t11 -113.5zM400 258
q0 53 -10 104t-27 99q-12 5 -30.5 8.5t-43.5 3.5q-34 0 -58 -17t-39 -45t-22 -64.5t-7 -76.5q0 -41 7.5 -79.5t22.5 -68t37.5 -47t52.5 -17.5q32 0 54 16t36 43t20.5 63.5t6.5 77.5z" />
    <glyph glyph-name="ntilde" unicode="&#xf1;" 
d="M489 17q0 -17 -17 -17h-80q-17 0 -17 17v355q0 18 -5 35.5t-17 31t-32 22t-50 8.5t-48 -6t-27 -15t-11.5 -21t-2.5 -24v-386q0 -17 -18 -17h-79q-18 0 -18 17v422q0 25 8.5 38t31.5 24q25 12 68.5 21t99.5 9q40 0 78.5 -7t68.5 -25t48.5 -47.5t18.5 -74.5v-360zM417 684
q0 -15 -4.5 -31.5t-14.5 -30.5t-26 -23.5t-39 -9.5q-21 0 -35 8t-25 18t-22 18t-27 8t-23.5 -8.5t-13 -18.5t-10.5 -18.5t-15 -8.5q-21 0 -21 23q0 15 4 31.5t14 30.5t26 23.5t39 9.5q21 0 35 -8.5t25.5 -18t22.5 -18t27 -8.5t23.5 8.5t13 19t10.5 19t15 8.5q21 0 21 -23z
" />
    <glyph glyph-name="ograve" unicode="&#xf2;" horiz-adv-x="563" 
d="M517 261q0 -57 -15.5 -107t-45.5 -87t-74 -58.5t-101 -21.5t-100.5 21.5t-73.5 58.5t-45.5 87t-15.5 107t16 106.5t46 86t73.5 57t99.5 20.5q55 0 99 -20.5t74.5 -57t46.5 -86t16 -106.5zM400 258q0 41 -7 78.5t-21.5 66.5t-37.5 46.5t-55 17.5q-31 0 -53 -15.5
t-36 -42.5t-20.5 -63t-6.5 -76q0 -41 7 -79.5t21 -68t36.5 -47t54.5 -17.5q33 0 55.5 16t36.5 43t20 63.5t6 77.5zM328 594q0 -13 -13 -13h-29q-8 0 -13.5 4t-11.5 9l-104 100q-8 8 -8 15q0 9 12 15t31 6q24 0 43.5 -7.5t27.5 -20.5l59 -94q6 -9 6 -14z" />
    <glyph glyph-name="oacute" unicode="&#xf3;" horiz-adv-x="563" 
d="M517 261q0 -57 -15.5 -107t-45.5 -87t-74 -58.5t-101 -21.5t-100.5 21.5t-73.5 58.5t-45.5 87t-15.5 107t16 106.5t46 86t73.5 57t99.5 20.5q55 0 99 -20.5t74.5 -57t46.5 -86t16 -106.5zM400 258q0 41 -7 78.5t-21.5 66.5t-37.5 46.5t-55 17.5q-31 0 -53 -15.5
t-36 -42.5t-20.5 -63t-6.5 -76q0 -41 7 -79.5t21 -68t36.5 -47t54.5 -17.5q33 0 55.5 16t36.5 43t20 63.5t6 77.5zM412 709q0 -7 -8 -15l-104 -100q-6 -5 -11.5 -9t-13.5 -4h-29q-13 0 -13 12q0 6 6 15l59 94q8 13 27.5 20.5t43.5 7.5q19 0 31 -6t12 -15z" />
    <glyph glyph-name="ocircumflex" unicode="&#xf4;" horiz-adv-x="563" 
d="M517 261q0 -57 -15.5 -107t-45.5 -87t-74 -58.5t-101 -21.5t-100.5 21.5t-73.5 58.5t-45.5 87t-15.5 107t16 106.5t46 86t73.5 57t99.5 20.5q55 0 99 -20.5t74.5 -57t46.5 -86t16 -106.5zM400 258q0 41 -7 78.5t-21.5 66.5t-37.5 46.5t-55 17.5q-31 0 -53 -15.5
t-36 -42.5t-20.5 -63t-6.5 -76q0 -41 7 -79.5t21 -68t36.5 -47t54.5 -17.5q33 0 55.5 16t36.5 43t20 63.5t6 77.5zM418 596q0 -21 -22 -21q-6 0 -12 3t-11 6l-69 46q-7 5 -12.5 7.5t-11.5 2.5t-11.5 -2.5t-12.5 -7.5l-69 -46q-5 -3 -11 -6t-12 -3q-22 0 -22 21q0 7 4.5 12
t10.5 10q29 20 52 43t46 54q4 5 10 9.5t15 4.5t15 -4.5t10 -9.5q23 -31 46 -54t52 -43q6 -5 10.5 -10t4.5 -12z" />
    <glyph glyph-name="otilde" unicode="&#xf5;" horiz-adv-x="563" 
d="M517 261q0 -57 -15.5 -107t-45.5 -87t-74 -58.5t-101 -21.5t-100.5 21.5t-73.5 58.5t-45.5 87t-15.5 107t16 106.5t46 86t73.5 57t99.5 20.5q55 0 99 -20.5t74.5 -57t46.5 -86t16 -106.5zM400 258q0 41 -7 78.5t-21.5 66.5t-37.5 46.5t-55 17.5q-31 0 -53 -15.5
t-36 -42.5t-20.5 -63t-6.5 -76q0 -41 7 -79.5t21 -68t36.5 -47t54.5 -17.5q33 0 55.5 16t36.5 43t20 63.5t6 77.5zM415 684q0 -15 -4.5 -31.5t-14.5 -30.5t-26 -23.5t-39 -9.5q-21 0 -35 8t-25 18t-22 18t-27 8t-23.5 -8.5t-13 -18.5t-10.5 -18.5t-15 -8.5q-21 0 -21 23
q0 15 4 31.5t14 30.5t26 23.5t39 9.5q21 0 35 -8.5t25.5 -18t22.5 -18t27 -8.5t23.5 8.5t13 19t10.5 19t15 8.5q21 0 21 -23z" />
    <glyph glyph-name="odieresis" unicode="&#xf6;" horiz-adv-x="563" 
d="M517 261q0 -57 -15.5 -107t-45.5 -87t-74 -58.5t-101 -21.5t-100.5 21.5t-73.5 58.5t-45.5 87t-15.5 107t16 106.5t46 86t73.5 57t99.5 20.5q55 0 99 -20.5t74.5 -57t46.5 -86t16 -106.5zM400 258q0 41 -7 78.5t-21.5 66.5t-37.5 46.5t-55 17.5q-31 0 -53 -15.5
t-36 -42.5t-20.5 -63t-6.5 -76q0 -41 7 -79.5t21 -68t36.5 -47t54.5 -17.5q33 0 55.5 16t36.5 43t20 63.5t6 77.5zM249 638q0 -22 -15.5 -37t-38.5 -15t-38.5 15t-15.5 37t15.5 37.5t38.5 15.5t38.5 -15.5t15.5 -37.5zM423 638q0 -22 -15.5 -37t-38.5 -15t-38.5 15t-15.5 37
t15.5 37.5t38.5 15.5t38.5 -15.5t15.5 -37.5z" />
    <glyph glyph-name="divide" unicode="&#xf7;" 
d="M508 281q0 -18 -19 -18h-422q-19 0 -19 18v37q0 19 19 19h422q19 0 19 -19v-37zM340 134q0 -26 -18 -44t-44 -18t-44 18t-18 44t18 44t44 18t44 -18t18 -44zM340 466q0 -26 -18 -44t-44 -18t-44 18t-18 44t18 43.5t44 17.5t44 -17.5t18 -43.5z" />
    <glyph glyph-name="oslash" unicode="&#xf8;" horiz-adv-x="572" 
d="M526 261q0 -57 -16 -107t-46.5 -87t-75.5 -58.5t-102 -21.5q-44 0 -80 12t-65 35l-56 -74q-6 -7 -11 -7q-6 0 -16 8q-10 9 -10 14q0 4 5 11l58 77q-32 38 -48.5 88.5t-16.5 109.5q0 57 16.5 106.5t47.5 86t75.5 57t100.5 20.5q43 0 78.5 -12t64.5 -34l56 74q6 8 13 8
q5 0 15 -8q10 -9 10 -15q0 -4 -6 -12l-57 -76q32 -36 49 -86t17 -109zM379 417q-17 26 -40.5 41t-55.5 15q-33 0 -57.5 -16.5t-40.5 -44t-23.5 -64.5t-7.5 -78q0 -32 4.5 -63.5t15.5 -59.5zM418 258q0 31 -4.5 61t-14.5 56l-204 -270q16 -24 39 -38.5t53 -14.5
q36 0 60.5 16.5t40.5 45t23 66t7 78.5z" />
    <glyph glyph-name="ugrave" unicode="&#xf9;" horiz-adv-x="546" 
d="M479 90q0 -29 -9.5 -44.5t-26.5 -25.5q-20 -11 -65 -21.5t-107 -10.5q-26 0 -61 4.5t-66.5 20.5t-54 47t-22.5 84v357q0 17 17 17h80q17 0 17 -17v-353q0 -45 25 -67.5t67 -22.5q30 0 48 5t27.5 13.5t13 20t3.5 25.5v379q0 17 17 17h80q17 0 17 -17v-411zM319 594
q0 -13 -13 -13h-29q-8 0 -13.5 4t-11.5 9l-104 100q-8 8 -8 15q0 9 12 15t31 6q24 0 43.5 -7.5t27.5 -20.5l59 -94q6 -9 6 -14z" />
    <glyph glyph-name="uacute" unicode="&#xfa;" horiz-adv-x="546" 
d="M479 90q0 -29 -9.5 -44.5t-26.5 -25.5q-20 -11 -65 -21.5t-107 -10.5q-26 0 -61 4.5t-66.5 20.5t-54 47t-22.5 84v357q0 17 17 17h80q17 0 17 -17v-353q0 -45 25 -67.5t67 -22.5q30 0 48 5t27.5 13.5t13 20t3.5 25.5v379q0 17 17 17h80q17 0 17 -17v-411zM405 709
q0 -7 -8 -15l-104 -100q-6 -5 -11.5 -9t-13.5 -4h-29q-13 0 -13 12q0 6 6 15l59 94q8 13 27.5 20.5t43.5 7.5q19 0 31 -6t12 -15z" />
    <glyph glyph-name="ucircumflex" unicode="&#xfb;" horiz-adv-x="546" 
d="M479 90q0 -29 -9.5 -44.5t-26.5 -25.5q-20 -11 -65 -21.5t-107 -10.5q-26 0 -61 4.5t-66.5 20.5t-54 47t-22.5 84v357q0 17 17 17h80q17 0 17 -17v-353q0 -45 25 -67.5t67 -22.5q30 0 48 5t27.5 13.5t13 20t3.5 25.5v379q0 17 17 17h80q17 0 17 -17v-411zM409 596
q0 -21 -22 -21q-6 0 -12 3t-11 6l-69 46q-7 5 -12.5 7.5t-11.5 2.5t-11.5 -2.5t-12.5 -7.5l-69 -46q-5 -3 -11 -6t-12 -3q-22 0 -22 21q0 7 4.5 12t10.5 10q29 20 52 43t46 54q4 5 10 9.5t15 4.5t15 -4.5t10 -9.5q23 -31 46 -54t52 -43q6 -5 10.5 -10t4.5 -12z" />
    <glyph glyph-name="udieresis" unicode="&#xfc;" horiz-adv-x="546" 
d="M479 90q0 -29 -9.5 -44.5t-26.5 -25.5q-20 -11 -65 -21.5t-107 -10.5q-26 0 -61 4.5t-66.5 20.5t-54 47t-22.5 84v357q0 17 17 17h80q17 0 17 -17v-353q0 -45 25 -67.5t67 -22.5q30 0 48 5t27.5 13.5t13 20t3.5 25.5v379q0 17 17 17h80q17 0 17 -17v-411zM240 638
q0 -22 -15.5 -37t-38.5 -15t-38.5 15t-15.5 37t15.5 37.5t38.5 15.5t38.5 -15.5t15.5 -37.5zM414 638q0 -22 -15.5 -37t-38.5 -15t-38.5 15t-15.5 37t15.5 37.5t38.5 15.5t38.5 -15.5t15.5 -37.5z" />
    <glyph glyph-name="yacute" unicode="&#xfd;" horiz-adv-x="515" 
d="M493 501q0 -4 -1 -7.5t-3 -8.5l-198 -557q-12 -35 -28.5 -66t-39.5 -54t-53.5 -36.5t-70.5 -13.5q-48 0 -68 17t-20 43q0 22 13.5 34t33.5 12q11 0 19 -2t15 -5t14 -5t16 -2q14 0 26 7t21 18t15.5 24.5t11.5 26.5l20 58l-189 501q-4 10 -4 16q0 17 17 17h82q16 0 22 -17
l103 -307q15 -47 21 -99h2q6 32 10.5 52t12.5 47l97 307q3 8 7.5 12.5t14.5 4.5h63q18 0 18 -17zM403 709q0 -7 -8 -15l-104 -100q-6 -5 -11.5 -9t-13.5 -4h-29q-13 0 -13 12q0 6 6 15l59 94q8 13 27.5 20.5t43.5 7.5q19 0 31 -6t12 -15z" />
    <glyph glyph-name="thorn" unicode="&#xfe;" horiz-adv-x="559" 
d="M513 285q0 -74 -20.5 -129.5t-56 -93t-82.5 -56.5t-100 -19q-22 0 -40.5 3.5t-32.5 8.5v-217q0 -17 -17 -17h-79q-18 0 -18 17v966q0 17 18 17h79q17 0 17 -17v-276q7 7 20.5 17t32 19t41 15.5t49.5 6.5q45 0 80.5 -18.5t59.5 -51t36.5 -77.5t12.5 -98zM397 266
q0 98 -33.5 144t-86.5 46q-32 0 -57 -13t-39 -26v-350q15 -5 33.5 -8t43.5 -3t49.5 12t44.5 37.5t32.5 65.5t12.5 95z" />
    <glyph glyph-name="ydieresis" unicode="&#xff;" horiz-adv-x="515" 
d="M493 501q0 -4 -1 -7.5t-3 -8.5l-198 -557q-12 -35 -28.5 -66t-39.5 -54t-53.5 -36.5t-70.5 -13.5q-48 0 -68 17t-20 43q0 22 13.5 34t33.5 12q11 0 19 -2t15 -5t14 -5t16 -2q14 0 26 7t21 18t15.5 24.5t11.5 26.5l20 58l-189 501q-4 10 -4 16q0 17 17 17h82q16 0 22 -17
l103 -307q15 -47 21 -99h2q6 32 10.5 52t12.5 47l97 307q3 8 7.5 12.5t14.5 4.5h63q18 0 18 -17zM232 638q0 -22 -15.5 -37t-38.5 -15t-38.5 15t-15.5 37t15.5 37.5t38.5 15.5t38.5 -15.5t15.5 -37.5zM406 638q0 -22 -15.5 -37t-38.5 -15t-38.5 15t-15.5 37t15.5 37.5
t38.5 15.5t38.5 -15.5t15.5 -37.5z" />
    <glyph glyph-name="dotlessi" unicode="&#x131;" horiz-adv-x="258" 
d="M186 17q0 -17 -17 -17h-80q-17 0 -17 17v484q0 17 17 17h80q17 0 17 -17v-484z" />
    <glyph glyph-name="IJ" unicode="&#x132;" horiz-adv-x="557" 
d="M201 17q0 -17 -17 -17h-89q-18 0 -18 17v672q0 17 18 17h89q17 0 17 -17v-672zM479 115q0 -69 -13.5 -122.5t-35 -92.5t-49 -65.5t-55 -42.5t-52.5 -23t-42 -7q-43 0 -43 29q0 11 7 18t18 12q31 13 56.5 36t44.5 56.5t29.5 78.5t10.5 104v593q0 17 18 17h89q17 0 17 -17
v-574z" />
    <glyph glyph-name="ij" unicode="&#x133;" horiz-adv-x="516" 
d="M186 17q0 -17 -17 -17h-80q-17 0 -17 17v484q0 17 17 17h80q17 0 17 -17v-484zM195 659q0 -23 -18.5 -38.5t-47.5 -15.5t-47.5 15.5t-18.5 38.5t18.5 38.5t47.5 15.5t47.5 -15.5t18.5 -38.5zM453 659q0 -23 -18.5 -38.5t-47.5 -15.5t-47.5 15.5t-18.5 38.5t18.5 38.5
t47.5 15.5t47.5 -15.5t18.5 -38.5zM444 111q0 -72 -12 -125.5t-31 -92.5t-42.5 -64.5t-47 -40.5t-44 -21t-32.5 -6q-14 0 -22 7t-8 18q0 14 18 26q24 17 43.5 39.5t34 57t22 83.5t7.5 119v390q0 17 17 17h80q17 0 17 -17v-390z" />
    <glyph glyph-name="Lslash" unicode="&#x141;" horiz-adv-x="486" 
d="M452 17q0 -17 -18 -17h-333q-18 0 -18 17v268l-36 -26q-7 -5 -13 -5q-16 0 -16 17v23q0 17 15 28l50 36v331q0 17 18 17h89q17 0 17 -17v-245l109 78q7 4 13 4q15 0 15 -17v-23q0 -10 -3 -16t-11 -12l-123 -87v-289h227q18 0 18 -17v-48z" />
    <glyph glyph-name="lslash" unicode="&#x142;" horiz-adv-x="344" 
d="M310 489q0 -17 -15 -28l-69 -49v-395q0 -17 -17 -17h-80q-17 0 -17 17v316l-45 -33q-7 -5 -14 -5q-15 0 -15 17v21q0 17 15 28l59 42v345q0 17 17 17h80q17 0 17 -17v-266l55 40q7 5 14 5q15 0 15 -17v-21z" />
    <glyph glyph-name="OE" unicode="&#x152;" horiz-adv-x="903" 
d="M860 17q0 -17 -18 -17h-341q-17 -5 -46 -9.5t-64 -4.5q-78 0 -141 27t-107 75.5t-67.5 116t-23.5 148.5t23.5 148.5t68 116t107 75.5t140.5 27q34 0 62.5 -4.5t47.5 -9.5h341q18 0 18 -17v-46q0 -18 -18 -18h-241v-220h204q17 0 17 -17v-44q0 -18 -17 -18h-204v-244h241
q18 0 18 -17v-48zM477 634q-18 5 -38 7.5t-49 2.5q-50 0 -89 -21t-65 -58.5t-39.5 -89.5t-13.5 -113q0 -63 13.5 -116.5t40.5 -92.5t66.5 -61t92.5 -22q27 0 46 3t35 7v554z" />
    <glyph glyph-name="oe" unicode="&#x153;" horiz-adv-x="868" 
d="M824 156q0 -23 -13 -52t-37.5 -55t-61.5 -44t-85 -18q-34 0 -62.5 10t-51 27.5t-38.5 40t-25 47.5h-2q-9 -26 -24 -48.5t-37 -39.5t-50 -27t-62 -10q-54 0 -96.5 21.5t-72 58.5t-45 87t-15.5 107t16 106.5t46 86t72 57t95 20.5q68 0 110 -35t63 -88h2q22 53 67 88t110 35
q47 0 83.5 -16.5t61 -44.5t37.5 -63.5t13 -73.5q0 -17 -7.5 -23.5t-23.5 -8.5l-290 -46q2 -36 12 -68t28.5 -56.5t45.5 -38.5t63 -14q24 0 43 8t34.5 20.5t27.5 27.5t20 29q10 18 27 18q11 0 16.5 -7t5.5 -18zM398 258q0 40 -7 78t-22 67t-38 46.5t-54 17.5
q-30 0 -51.5 -15.5t-35.5 -42.5t-21 -63t-7 -76q0 -41 7 -79.5t21.5 -68t37 -47t52.5 -17.5q32 0 54.5 16t36.5 43t20.5 63.5t6.5 77.5zM714 347q-1 23 -6.5 45t-17.5 39t-30 27t-45 10q-30 0 -51.5 -13.5t-36 -35.5t-22 -50.5t-8.5 -57.5z" />
    <glyph glyph-name="Scaron" unicode="&#x160;" horiz-adv-x="561" 
d="M514 184q0 -43 -16 -79.5t-46.5 -63t-74.5 -41.5t-100 -15q-55 0 -98.5 17.5t-73.5 43.5t-45.5 55t-15.5 52q0 27 16.5 41.5t41.5 14.5q42 0 59 -42q7 -17 17 -35t24.5 -32.5t34 -24t45.5 -9.5q53 0 80.5 30.5t27.5 74.5t-24.5 72t-61.5 48.5t-80 39t-80 44t-61.5 61.5
t-24.5 93q0 45 17.5 81t47.5 60.5t71 37.5t89 13q55 0 95 -15.5t66.5 -37.5t39 -46.5t12.5 -41.5q0 -26 -15.5 -40t-39.5 -14q-20 0 -33 11t-21 28q-6 14 -15 28.5t-21.5 26.5t-29.5 19.5t-40 7.5q-47 0 -75.5 -27.5t-28.5 -76.5q0 -39 25 -64t62.5 -44t81 -37.5t81 -45.5
t62.5 -66.5t25 -101.5zM415 901q0 -12 -15 -22q-29 -20 -52 -43t-46 -54q-4 -5 -10 -9.5t-15 -4.5t-15 4.5t-10 9.5q-23 31 -46 54t-52 43q-15 10 -15 22q0 9 5.5 15t16.5 6q6 0 12 -3t11 -6l69 -45q15 -10 24 -10t24 10l69 45q5 3 11 6t12 3q11 0 16.5 -6t5.5 -15z" />
    <glyph glyph-name="scaron" unicode="&#x161;" horiz-adv-x="463" 
d="M420 145q0 -72 -50 -115t-136 -43q-51 0 -87 13.5t-59.5 33t-34.5 41t-11 38.5q0 24 15 36t36 12q38 0 52 -36q13 -31 33 -52t58 -21q30 0 52.5 20.5t22.5 55.5q0 30 -19 49.5t-48 34.5t-62.5 29t-62.5 32.5t-48 44.5t-19 66q0 37 14 64.5t38.5 46t57.5 27.5t71 9
q46 0 78.5 -11.5t53.5 -29t30.5 -36.5t9.5 -34q0 -23 -13 -34t-32 -11q-17 0 -29.5 7.5t-20.5 26.5q-5 12 -12 24t-16 21t-21.5 15t-29.5 6q-35 0 -54.5 -19t-19.5 -52q0 -29 19.5 -48t48.5 -33.5t63.5 -28t63.5 -32.5t48.5 -46.5t19.5 -70.5zM368 712q0 -12 -15 -22
q-29 -20 -52 -43t-46 -54q-4 -5 -10 -9.5t-15 -4.5t-15 4.5t-10 9.5q-23 31 -46 54t-52 43q-15 10 -15 22q0 9 5.5 15t16.5 6q6 0 12 -3t11 -6l69 -45q15 -10 24 -10t24 10l69 45q5 3 11 6t12 3q11 0 16.5 -6t5.5 -15z" />
    <glyph glyph-name="Ydieresis" unicode="&#x178;" horiz-adv-x="562" 
d="M546 689q0 -5 -4 -13l-199 -351v-308q0 -17 -17 -17h-90q-17 0 -17 17v308l-197 348l-4 8q-2 4 -2 9q0 16 18 16h93q10 0 14.5 -3t9.5 -12l137 -269h2l143 269q5 9 10 12t15 3h70q18 0 18 -17zM254 826q0 -22 -15.5 -37t-38.5 -15t-38.5 15t-15.5 37t15.5 37.5t38.5 15.5
t38.5 -15.5t15.5 -37.5zM428 826q0 -22 -15.5 -37t-38.5 -15t-38.5 15t-15.5 37t15.5 37.5t38.5 15.5t38.5 -15.5t15.5 -37.5z" />
    <glyph glyph-name="Zcaron" unicode="&#x17d;" horiz-adv-x="534" 
d="M489 17q0 -17 -18 -17h-419q-18 0 -18 17q0 6 5 16l293 592h-258q-17 0 -17 18v46q0 17 17 17h397q18 0 18 -17q0 -8 -5 -18l-290 -589h277q18 0 18 -17v-48zM409 898q0 -12 -15 -22q-29 -20 -52 -43t-46 -54q-4 -5 -10 -9.5t-15 -4.5t-15 4.5t-10 9.5q-23 31 -46 54
t-52 43q-15 10 -15 22q0 9 5.5 15t16.5 6q6 0 12 -3t11 -6l69 -45q15 -10 24 -10t24 10l69 45q5 3 11 6t12 3q11 0 16.5 -6t5.5 -15z" />
    <glyph glyph-name="zcaron" unicode="&#x17e;" horiz-adv-x="416" 
d="M384 17q0 -17 -19 -17h-319q-19 0 -19 17q0 6 5 16l211 421h-183q-18 0 -18 18v29q0 17 18 17h304q19 0 19 -17q0 -8 -6 -20l-206 -415h194q19 0 19 -18v-31zM351 709q0 -12 -15 -22q-29 -20 -52 -43t-46 -54q-4 -5 -10 -9.5t-15 -4.5t-15 4.5t-10 9.5q-23 31 -46 54
t-52 43q-15 10 -15 22q0 9 5.5 15t16.5 6q6 0 12 -3t11 -6l69 -45q15 -10 24 -10t24 10l69 45q5 3 11 6t12 3q11 0 16.5 -6t5.5 -15z" />
    <glyph glyph-name="longs" unicode="&#x17f;" horiz-adv-x="274" 
d="M361 725q0 -19 -11 -30.5t-34 -11.5q-14 0 -23.5 3.5t-23.5 3.5q-18 0 -32.5 -6t-25 -25t-16.5 -54.5t-6 -93.5v-729q0 -17 -17 -17h-79q-17 0 -17 17v692q0 90 20 148t51.5 91.5t70 46.5t75.5 13q38 0 53 -15t15 -33z" />
    <glyph glyph-name="florin" unicode="&#x192;" horiz-adv-x="554" 
d="M515 649q0 -19 -11.5 -30t-28.5 -11q-16 0 -26 6t-18 12.5t-17 12.5t-22 6q-22 0 -36 -13t-22.5 -33t-12.5 -44.5t-7 -47.5l-12 -108h102q17 0 17 -18v-28q0 -18 -17 -18h-108l-35 -313q-6 -51 -17.5 -99t-34.5 -85.5t-60.5 -60.5t-94.5 -23q-19 0 -38.5 3.5t-35.5 12
t-26.5 21.5t-10.5 32q0 20 12 32t31 12q15 0 25 -5.5t18.5 -12t17.5 -12t23 -5.5q19 0 32.5 12t22.5 30.5t14 41.5t7 46l40 373h-92q-18 0 -18 18v28q0 18 18 18h98l6 52q5 46 17.5 93.5t36 86.5t61.5 63.5t94 24.5q20 0 39.5 -4.5t34.5 -13t24.5 -21.5t9.5 -31z" />
    <glyph glyph-name="uni02BB" unicode="&#x2bb;" horiz-adv-x="260" 
d="M201 696q0 -10 -10 -21q-37 -40 -37 -83q0 -19 6.5 -30t15 -20t15 -20t6.5 -31q0 -22 -16 -38t-42 -16q-32 0 -52.5 23t-20.5 64q0 48 13 84t31.5 60t38 36t31.5 12q10 0 15.5 -6t5.5 -14z" />
    <glyph glyph-name="afii57929" unicode="&#x2bc;" horiz-adv-x="260" 
d="M194 629q0 -48 -13 -84t-31.5 -60t-38 -36t-31.5 -12q-10 0 -15.5 6t-5.5 14q0 10 10 21q37 40 37 83q0 19 -6.5 30t-15 20t-15 20t-6.5 31q0 22 16 38t42 16q32 0 52.5 -23t20.5 -64z" />
    <glyph glyph-name="circumflex" unicode="&#x2c6;" horiz-adv-x="276" 
d="M276 596q0 -21 -22 -21q-6 0 -12 3t-11 6l-69 46q-7 5 -12.5 7.5t-11.5 2.5t-11.5 -2.5t-12.5 -7.5l-69 -46q-5 -3 -11 -6t-12 -3q-22 0 -22 21q0 7 4.5 12t10.5 10q29 20 52 43t46 54q4 5 10 9.5t15 4.5t15 -4.5t10 -9.5q23 -31 46 -54t52 -43q6 -5 10.5 -10t4.5 -12z
" />
    <glyph glyph-name="caron" unicode="&#x2c7;" horiz-adv-x="276" 
d="M276 709q0 -12 -15 -22q-29 -20 -52 -43t-46 -54q-4 -5 -10 -9.5t-15 -4.5t-15 4.5t-10 9.5q-23 31 -46 54t-52 43q-15 10 -15 22q0 9 5.5 15t16.5 6q6 0 12 -3t11 -6l69 -45q15 -10 24 -10t24 10l69 45q5 3 11 6t12 3q11 0 16.5 -6t5.5 -15z" />
    <glyph glyph-name="uni02C9" unicode="&#x2c9;" horiz-adv-x="276" 
d="M274 632q0 -19 -19 -19h-235q-19 0 -19 19v25q0 19 19 19h235q19 0 19 -19v-25z" />
    <glyph glyph-name="breve" unicode="&#x2d8;" horiz-adv-x="276" 
d="M275 704q0 -18 -8 -39t-25 -40t-43 -31.5t-61 -12.5t-61 12.5t-43 31.5t-25 40t-8 39q0 10 6 16.5t17 6.5q15 0 21 -15q12 -29 35.5 -48t57.5 -19t56.5 18.5t35.5 48.5q6 15 22 15q11 0 17 -6.5t6 -16.5z" />
    <glyph glyph-name="dotaccent" unicode="&#x2d9;" horiz-adv-x="276" 
d="M195 645q0 -23 -16.5 -38.5t-40.5 -15.5t-41 15.5t-17 38.5t17 38t41 15t40.5 -15t16.5 -38z" />
    <glyph glyph-name="ring" unicode="&#x2da;" horiz-adv-x="276" 
d="M228 662q0 -37 -26.5 -63t-63.5 -26t-63.5 26t-26.5 63t26.5 63.5t63.5 26.5t63.5 -26.5t26.5 -63.5zM183 663q0 19 -13 32t-32 13t-32 -13t-13 -32t13 -32t32 -13t32 13t13 32z" />
    <glyph glyph-name="ogonek" unicode="&#x2db;" horiz-adv-x="276" 
d="M302 -140q0 -10 -10 -18.5t-27 -14.5t-39 -9t-46 -3q-27 0 -50.5 4t-41.5 13.5t-28.5 24t-10.5 35.5q0 19 11 36.5t27.5 32.5t35 27t33.5 20h75q-18 -9 -36 -20.5t-32.5 -25t-23.5 -27.5t-9 -28q0 -19 16 -30t47 -11t52 6.5t35 6.5q22 0 22 -19z" />
    <glyph glyph-name="tilde" unicode="&#x2dc;" horiz-adv-x="276" 
d="M276 684q0 -15 -4.5 -31.5t-14.5 -30.5t-26 -23.5t-39 -9.5q-21 0 -35 8t-25 18t-22 18t-27 8t-23.5 -8.5t-13 -18.5t-10.5 -18.5t-15 -8.5q-21 0 -21 23q0 15 4 31.5t14 30.5t26 23.5t39 9.5q21 0 35 -8.5t25.5 -18t22.5 -18t27 -8.5t23.5 8.5t13 19t10.5 19t15 8.5
q21 0 21 -23z" />
    <glyph glyph-name="hungarumlaut" unicode="&#x2dd;" horiz-adv-x="276" 
d="M171 714q0 -7 -6 -13l-109 -109q-11 -11 -25 -11h-11q-14 0 -14 13q0 5 5 13l70 101q18 26 58 26q12 0 22 -5t10 -15zM314 714q0 -7 -6 -13l-109 -109q-11 -11 -25 -11h-11q-14 0 -14 13q0 5 5 13l70 101q18 26 58 26q12 0 22 -5t10 -15z" />
    <glyph glyph-name="gravecomb" unicode="&#x300;" horiz-adv-x="1" 
d="M-235 594q0 -13 -13 -13h-29q-8 0 -13.5 4t-11.5 9l-104 100q-8 8 -8 15q0 9 12 15t31 6q24 0 43.5 -7.5t27.5 -20.5l59 -94q6 -9 6 -14z" />
    <glyph glyph-name="acutecomb" unicode="&#x301;" horiz-adv-x="1" 
d="M-151 709q0 -7 -8 -15l-104 -100q-6 -5 -11.5 -9t-13.5 -4h-29q-13 0 -13 12q0 6 6 15l59 94q8 13 27.5 20.5t43.5 7.5q19 0 31 -6t12 -15z" />
    <glyph glyph-name="uni0302" unicode="&#x302;" horiz-adv-x="1" 
d="M-145 596q0 -21 -22 -21q-6 0 -12 3t-11 6l-69 46q-7 5 -12.5 7.5t-11.5 2.5t-11.5 -2.5t-12.5 -7.5l-69 -46q-5 -3 -11 -6t-12 -3q-22 0 -22 21q0 7 4.5 12t10.5 10q29 20 52 43t46 54q4 5 10 9.5t15 4.5t15 -4.5t10 -9.5q23 -31 46 -54t52 -43q6 -5 10.5 -10t4.5 -12z
" />
    <glyph glyph-name="tildecomb" unicode="&#x303;" horiz-adv-x="1" 
d="M-148 684q0 -15 -4.5 -31.5t-14.5 -30.5t-26 -23.5t-39 -9.5q-21 0 -35 8t-25 18t-22 18t-27 8t-23.5 -8.5t-13 -18.5t-10.5 -18.5t-15 -8.5q-21 0 -21 23q0 15 4 31.5t14 30.5t26 23.5t39 9.5q21 0 35 -8.5t25.5 -18t22.5 -18t27 -8.5t23.5 8.5t13 19t10.5 19t15 8.5
q21 0 21 -23z" />
    <glyph glyph-name="uni0304" unicode="&#x304;" horiz-adv-x="1" 
d="M8 632q0 -19 -19 -19h-235q-19 0 -19 19v25q0 19 19 19h235q19 0 19 -19v-25z" />
    <glyph glyph-name="uni0306" unicode="&#x306;" horiz-adv-x="1" 
d="M8 704q0 -18 -8 -39t-25 -40t-43 -31.5t-61 -12.5t-61 12.5t-43 31.5t-25 40t-8 39q0 10 6 16.5t17 6.5q15 0 21 -15q12 -29 35.5 -48t57.5 -19t56.5 18.5t35.5 48.5q6 15 22 15q11 0 17 -6.5t6 -16.5z" />
    <glyph glyph-name="uni0307" unicode="&#x307;" horiz-adv-x="1" 
d="M-72 645q0 -23 -16.5 -38.5t-40.5 -15.5t-41 15.5t-17 38.5t17 38t41 15t40.5 -15t16.5 -38z" />
    <glyph glyph-name="uni0308" unicode="&#x308;" horiz-adv-x="1" 
d="M-141 638q0 -22 -15.5 -37t-38.5 -15t-38.5 15t-15.5 37t15.5 37.5t38.5 15.5t38.5 -15.5t15.5 -37.5zM-315 638q0 -22 -15.5 -37t-38.5 -15t-38.5 15t-15.5 37t15.5 37.5t38.5 15.5t38.5 -15.5t15.5 -37.5z" />
    <glyph glyph-name="uni030A" unicode="&#x30a;" horiz-adv-x="1" 
d="M-156 662q0 -37 -26.5 -63t-63.5 -26t-63.5 26t-26.5 63t26.5 63.5t63.5 26.5t63.5 -26.5t26.5 -63.5zM-201 663q0 19 -13 32t-32 13t-32 -13t-13 -32t13 -32t32 -13t32 13t13 32z" />
    <glyph glyph-name="uni030B" unicode="&#x30b;" horiz-adv-x="1" 
d="M-96 714q0 -7 -6 -13l-109 -109q-11 -11 -25 -11h-11q-14 0 -14 13q0 5 5 13l70 101q18 26 58 26q12 0 22 -5t10 -15zM47 714q0 -7 -6 -13l-109 -109q-11 -11 -25 -11h-11q-14 0 -14 13q0 5 5 13l70 101q18 26 58 26q12 0 22 -5t10 -15z" />
    <glyph glyph-name="uni030C" unicode="&#x30c;" horiz-adv-x="1" 
d="M-65 709q0 -12 -15 -22q-29 -20 -52 -43t-46 -54q-4 -5 -10 -9.5t-15 -4.5t-15 4.5t-10 9.5q-23 31 -46 54t-52 43q-15 10 -15 22q0 9 5.5 15t16.5 6q6 0 12 -3t11 -6l69 -45q15 -10 24 -10t24 10l69 45q5 3 11 6t12 3q11 0 16.5 -6t5.5 -15z" />
    <glyph glyph-name="uni0312" unicode="&#x312;" horiz-adv-x="1" 
d="M-84 729q0 -10 -10 -16q-17 -10 -30 -22t-13 -28q0 -9 3.5 -14t8 -9.5t8 -10t3.5 -15.5q0 -15 -13.5 -24.5t-37.5 -9.5q-32 0 -46 15.5t-14 37.5q0 25 12 45.5t30 35t39.5 22.5t41.5 8q10 0 14 -4.5t4 -10.5z" />
    <glyph glyph-name="uni0313" unicode="&#x313;" horiz-adv-x="1" 
d="M-116 -110q0 -25 -12 -45.5t-30 -35t-40 -22.5t-41 -8q-10 0 -14 4.5t-4 10.5q0 10 11 16q17 10 29.5 22t12.5 28q0 9 -3.5 14t-7.5 9.5t-7.5 10t-3.5 15.5q0 15 13 24.5t37 9.5q32 0 46 -15.5t14 -37.5z" />
    <glyph glyph-name="uni0315" unicode="&#x315;" horiz-adv-x="1" 
d="M-25 694q0 -5 -2 -13l-26 -107q-3 -13 -16 -13h-25q-17 0 -17 16v111q0 16 12.5 25t32.5 9q19 0 30 -7.5t11 -20.5z" />
    <glyph glyph-name="uni0326" unicode="&#x326;" horiz-adv-x="1" 
d="M-116 -110q0 -25 -12 -45.5t-30 -35t-40 -22.5t-41 -8q-10 0 -14 4.5t-4 10.5q0 10 11 16q17 10 29.5 22t12.5 28q0 9 -3.5 14t-7.5 9.5t-7.5 10t-3.5 15.5q0 15 13 24.5t37 9.5q32 0 46 -15.5t14 -37.5z" />
    <glyph glyph-name="uni0327" unicode="&#x327;" horiz-adv-x="1" 
d="M-9 -140q0 -17 -9.5 -33.5t-28.5 -29.5t-46 -20.5t-63 -7.5q-17 0 -36 2.5t-35 7t-27 12t-11 18.5q0 19 22 19q8 0 15 -2t16 -4t21 -4t30 -2q35 0 53.5 13t18.5 29q0 17 -21 29.5t-71 12.5q-18 0 -18 16q0 5 2 9t4 9l34 69h60l-37 -67q64 -1 95.5 -22t31.5 -54z" />
    <glyph glyph-name="uni0328" unicode="&#x328;" horiz-adv-x="1" 
d="M27 -186q0 -10 -10 -18.5t-27 -14.5t-39 -9t-46 -3q-27 0 -50.5 4t-41.5 13.5t-28.5 24t-10.5 35.5q0 19 11 36.5t27.5 32.5t35 27t33.5 20h75q-18 -9 -36 -20.5t-32.5 -25t-23.5 -27.5t-9 -28q0 -19 16 -30t47 -11t52 6.5t35 6.5q22 0 22 -19z" />
    <glyph glyph-name="uni0335" unicode="&#x335;" horiz-adv-x="1" 
d="M-1 247q0 -19 -19 -19h-235q-19 0 -19 19v25q0 19 19 19h235q19 0 19 -19v-25z" />
    <glyph glyph-name="uni0336" unicode="&#x336;" horiz-adv-x="1" 
d="M-51 238q0 -17 -17 -17h-637q-18 0 -18 17v42q0 18 18 18h637q17 0 17 -18v-42z" />
    <glyph glyph-name="uni0394" unicode="&#x394;" horiz-adv-x="652" 
d="M635 17q0 -17 -17 -17h-584q-17 0 -17 17q0 4 1 7.5t3 8.5l240 656q3 8 7.5 12.5t15.5 4.5h84q17 0 23 -17l240 -656q2 -5 3 -8.5t1 -7.5zM350 488q-3 9 -7 24t-8.5 33t-8.5 36.5t-7 35.5h-2q-7 -42 -14 -72.5t-16 -56.5l-143 -417h348z" />
    <glyph glyph-name="uni03A9" unicode="&#x3a9;" horiz-adv-x="738" 
d="M694 17q0 -17 -18 -17h-238q-17 0 -17 17v44q0 10 5 18q27 42 49.5 79.5t38.5 75t25 78t9 88.5q0 54 -12 98.5t-34.5 77t-56 50.5t-76.5 18t-76.5 -18t-56 -50.5t-34.5 -77t-12 -98.5q0 -48 9 -88.5t25 -78t38.5 -75t49.5 -79.5q5 -8 5 -18v-44q0 -17 -17 -17h-238
q-18 0 -18 17v48q0 17 18 17h149v2q-29 34 -56 70t-48 75.5t-33.5 83.5t-12.5 95q0 71 22.5 129t63 99t97.5 63t125 22t125 -22t97.5 -63t63 -99t22.5 -129q0 -51 -12.5 -95t-33.5 -83.5t-48 -75.5t-56 -70v-2h149q18 0 18 -17v-48z" />
    <glyph glyph-name="uni03BC" unicode="&#x3bc;" horiz-adv-x="547" 
d="M480 95q0 -32 -9 -48t-27 -27q-21 -12 -54 -21.5t-90 -9.5q-35 0 -68.5 12.5t-49.5 26.5v-246q0 -17 -18 -17h-79q-18 0 -18 17v719q0 17 18 17h79q18 0 18 -17v-353q0 -45 26 -67t68 -22q28 0 45.5 4t27.5 12.5t13.5 21t3.5 30.5v374q0 17 17 17h80q17 0 17 -17v-406z
" />
    <glyph glyph-name="pi" unicode="&#x3c0;" horiz-adv-x="687" 
d="M648 30q0 -17 -26.5 -29.5t-64.5 -12.5q-20 0 -43 5t-43 20t-33.5 43.5t-13.5 75.5v322h-183v-437q0 -17 -18 -17h-79q-18 0 -18 17v437h-73q-18 0 -18 18v29q0 17 18 17h563q17 0 17 -17v-29q0 -18 -17 -18h-77v-321q0 -26 5.5 -42t14.5 -25t20 -12.5t23 -3.5
q6 0 11.5 1t11.5 1q23 0 23 -22z" />
    <glyph glyph-name="uni2007" unicode="&#x2007;" 
 />
    <glyph glyph-name="uni2008" unicode="&#x2008;" horiz-adv-x="278" 
 />
    <glyph glyph-name="uni200B" unicode="&#x200b;" horiz-adv-x="0" 
 />
    <glyph glyph-name="endash" unicode="&#x2013;" horiz-adv-x="387" 
d="M407 279q0 -17 -18 -17h-391q-17 0 -17 17v42q0 18 17 18h391q18 0 18 -18v-42z" />
    <glyph glyph-name="emdash" unicode="&#x2014;" horiz-adv-x="775" 
d="M723 279q0 -17 -17 -17h-637q-18 0 -18 17v42q0 18 18 18h637q17 0 17 -18v-42z" />
    <glyph glyph-name="quoteleft" unicode="&#x2018;" horiz-adv-x="260" 
d="M201 696q0 -10 -10 -21q-37 -40 -37 -83q0 -19 6.5 -30t15 -20t15 -20t6.5 -31q0 -22 -16 -38t-42 -16q-32 0 -52.5 23t-20.5 64q0 48 13 84t31.5 60t38 36t31.5 12q10 0 15.5 -6t5.5 -14z" />
    <glyph glyph-name="quoteright" unicode="&#x2019;" horiz-adv-x="260" 
d="M194 629q0 -48 -13 -84t-31.5 -60t-38 -36t-31.5 -12q-10 0 -15.5 6t-5.5 14q0 10 10 21q37 40 37 83q0 19 -6.5 30t-15 20t-15 20t-6.5 31q0 22 16 38t42 16q32 0 52.5 -23t20.5 -64z" />
    <glyph glyph-name="quotesinglbase" unicode="&#x201a;" horiz-adv-x="260" 
d="M194 46q0 -48 -13 -84t-31.5 -60t-38 -36t-31.5 -12q-10 0 -15.5 6t-5.5 14q0 10 10 21q37 40 37 83q0 19 -6.5 30t-15 20t-15 20t-6.5 31q0 22 16 38t42 16q32 0 52.5 -23t20.5 -64z" />
    <glyph glyph-name="quotedblleft" unicode="&#x201c;" horiz-adv-x="456" 
d="M201 696q0 -10 -10 -21q-37 -40 -37 -83q0 -19 6.5 -30t15 -20t15 -20t6.5 -31q0 -22 -16 -38t-42 -16q-32 0 -52.5 23t-20.5 64q0 48 13 84t31.5 60t38 36t31.5 12q10 0 15.5 -6t5.5 -14zM397 696q0 -10 -10 -21q-37 -40 -37 -83q0 -19 6.5 -30t15 -20t15 -20t6.5 -31
q0 -22 -16 -38t-42 -16q-32 0 -52.5 23t-20.5 64q0 48 13 84t31.5 60t38 36t31.5 12q10 0 15.5 -6t5.5 -14z" />
    <glyph glyph-name="quotedblright" unicode="&#x201d;" horiz-adv-x="456" 
d="M194 629q0 -48 -13 -84t-31.5 -60t-38 -36t-31.5 -12q-10 0 -15.5 6t-5.5 14q0 10 10 21q37 40 37 83q0 19 -6.5 30t-15 20t-15 20t-6.5 31q0 22 16 38t42 16q32 0 52.5 -23t20.5 -64zM390 629q0 -48 -13 -84t-31.5 -60t-38 -36t-31.5 -12q-10 0 -15.5 6t-5.5 14
q0 10 10 21q37 40 37 83q0 19 -6.5 30t-15 20t-15 20t-6.5 31q0 22 16 38t42 16q32 0 52.5 -23t20.5 -64z" />
    <glyph glyph-name="quotedblbase" unicode="&#x201e;" horiz-adv-x="456" 
d="M194 46q0 -48 -13 -84t-31.5 -60t-38 -36t-31.5 -12q-10 0 -15.5 6t-5.5 14q0 10 10 21q37 40 37 83q0 19 -6.5 30t-15 20t-15 20t-6.5 31q0 22 16 38t42 16q32 0 52.5 -23t20.5 -64zM390 46q0 -48 -13 -84t-31.5 -60t-38 -36t-31.5 -12q-10 0 -15.5 6t-5.5 14
q0 10 10 21q37 40 37 83q0 19 -6.5 30t-15 20t-15 20t-6.5 31q0 22 16 38t42 16q32 0 52.5 -23t20.5 -64z" />
    <glyph glyph-name="dagger" unicode="&#x2020;" horiz-adv-x="601" 
d="M547 449q0 -17 -18 -17h-173v-650q0 -17 -18 -17h-75q-18 0 -18 17v650h-173q-18 0 -18 17v52q0 17 18 17h173v230q0 17 18 17h75q18 0 18 -17v-230h173q18 0 18 -17v-52z" />
    <glyph glyph-name="daggerdbl" unicode="&#x2021;" horiz-adv-x="601" 
d="M547 169q0 -17 -18 -17h-173v-370q0 -17 -18 -17h-75q-18 0 -18 17v370h-173q-18 0 -18 17v52q0 17 18 17h173v194h-173q-18 0 -18 17v52q0 17 18 17h173v230q0 17 18 17h75q18 0 18 -17v-230h173q18 0 18 -17v-52q0 -17 -18 -17h-173v-194h173q18 0 18 -17v-52z" />
    <glyph glyph-name="bullet" unicode="&#x2022;" horiz-adv-x="554" 
d="M401 320q0 -26 -9.5 -48.5t-26.5 -39.5t-39.5 -26.5t-48.5 -9.5t-48.5 9.5t-39.5 26.5t-26.5 39.5t-9.5 48.5t9.5 48.5t26.5 39.5t39.5 26.5t48.5 9.5t48.5 -9.5t39.5 -26.5t26.5 -39.5t9.5 -48.5z" />
    <glyph glyph-name="ellipsis" unicode="&#x2026;" horiz-adv-x="834" 
d="M769 66q0 -31 -21.5 -52.5t-52.5 -21.5t-52.5 21.5t-21.5 52.5t21.5 52.5t52.5 21.5t52.5 -21.5t21.5 -52.5zM491 66q0 -31 -21.5 -52.5t-52.5 -21.5t-52.5 21.5t-21.5 52.5t21.5 52.5t52.5 21.5t52.5 -21.5t21.5 -52.5zM213 66q0 -31 -21.5 -52.5t-52.5 -21.5
t-52.5 21.5t-21.5 52.5t21.5 52.5t52.5 21.5t52.5 -21.5t21.5 -52.5z" />
    <glyph glyph-name="perthousand" unicode="&#x2030;" horiz-adv-x="1078" 
d="M319 518q0 -50 -10 -87.5t-27.5 -62.5t-41 -37t-50.5 -12t-50.5 12t-41 37t-27.5 62.5t-10 87.5t10 87.5t27.5 62.5t41 37.5t50.5 12.5t50.5 -12.5t41 -37.5t27.5 -62.5t10 -87.5zM1017 187q0 -50 -10 -87.5t-27.5 -62.5t-41 -37t-50.5 -12t-50 12t-40.5 37t-27.5 62.5
t-10 87.5t10 87.5t27.5 62.5t40.5 37.5t50 12.5t50.5 -12.5t41 -37.5t27.5 -62.5t10 -87.5zM698 187q0 -50 -10 -87.5t-27.5 -62.5t-40.5 -37t-50 -12t-50.5 12t-41 37t-27.5 62.5t-10 87.5t10 87.5t27.5 62.5t41 37.5t50.5 12.5t50 -12.5t40.5 -37.5t27.5 -62.5t10 -87.5z
M587 691q0 -5 -2 -10t-4 -8l-346 -656q-5 -9 -10 -13t-15 -4h-20q-18 0 -18 16q0 4 2 8t4 9l346 656q8 17 26 17h20q17 0 17 -15zM631 189q0 83 -17 118t-44 35t-44 -35t-17 -118t17 -117t44 -34t44 34t17 117zM949 189q0 83 -17 118t-44 35t-44 -35t-17 -118t17 -117
t44 -34t44 34t17 117zM251 520q0 83 -17 118t-44 35t-44 -35t-17 -118t17 -117t44 -34t44 34t17 117z" />
    <glyph glyph-name="guilsinglleft" unicode="&#x2039;" horiz-adv-x="351" 
d="M279 84q0 -12 -7 -20t-21 -8q-18 0 -30 20q-10 17 -25 40t-33 47t-37 46.5t-37 38.5q-7 6 -12 13.5t-5 17.5t5 18t12 14q18 16 37 38.5t37 46.5t33 46.5t25 39.5q12 20 30 20q14 0 21 -8t7 -20q0 -8 -3 -15.5t-7 -14.5l-73 -128q-8 -14 -10 -21.5t-2 -15.5t2 -15.5
t10 -21.5l73 -128q4 -7 7 -14.5t3 -15.5z" />
    <glyph glyph-name="guilsinglright" unicode="&#x203a;" horiz-adv-x="351" 
d="M279 279q0 -10 -5 -17.5t-12 -13.5q-18 -16 -37 -38.5t-37 -46.5t-33 -47t-25 -40q-12 -20 -30 -20q-14 0 -21 8t-7 20q0 8 3 15.5t7 14.5l72 128q8 14 10.5 21.5t2.5 15.5t-2.5 15.5t-10.5 21.5l-72 128q-4 7 -7 14.5t-3 15.5q0 12 7 20t21 8q18 0 30 -20
q10 -17 25 -39.5t33 -46.5t37 -46.5t37 -38.5q7 -6 12 -14t5 -18z" />
    <glyph glyph-name="fraction" unicode="&#x2044;" horiz-adv-x="187" 
d="M312 691q0 -5 -5 -15l-370 -660q-5 -8 -9.5 -12t-14.5 -4h-21q-17 0 -17 15q0 3 2 7l4 8l370 660q5 8 9.5 12t14.5 4h21q16 0 16 -15z" />
    <glyph glyph-name="uni2070" unicode="&#x2070;" horiz-adv-x="370" 
d="M326 674q0 -111 -40 -166.5t-101 -55.5t-101 55.5t-40 166.5t40 166.5t101 55.5t101 -55.5t40 -166.5zM252 676q0 85 -18 127t-49 42t-49 -42t-18 -127t18 -126.5t49 -41.5t49 41.5t18 126.5z" />
    <glyph glyph-name="uni2074" unicode="&#x2074;" horiz-adv-x="370" 
d="M334 577q0 -14 -14 -14h-40v-87q0 -14 -14 -14h-42q-15 0 -15 14v87h-153q-27 0 -27 24q0 12 8 23l178 266q7 10 18 10h33q14 0 14 -14v-261h40q14 0 14 -14v-20zM212 808q-5 -11 -13.5 -28t-13.5 -24l-95 -145h120v138q0 11 0.5 26.5t2.5 32.5h-1z" />
    <glyph glyph-name="uni2075" unicode="&#x2075;" horiz-adv-x="370" 
d="M319 595q0 -63 -40 -103t-112 -40q-26 0 -47.5 6.5t-37 17t-24 23t-8.5 24.5q0 14 9 23.5t24 9.5q20 0 32 -17q11 -14 25 -25t37 -11q33 0 50.5 22t17.5 54q0 41 -25.5 65.5t-71.5 24.5q-24 0 -40.5 -7t-26.5 -7q-18 0 -18 20l17 201q0 10 13 10h189q14 0 14 -14v-35
q0 -14 -14 -14h-152l-9 -113q10 5 27 9t35 4q59 0 97.5 -33t38.5 -95z" />
    <glyph glyph-name="uni2076" unicode="&#x2076;" horiz-adv-x="370" 
d="M329 590q0 -31 -11 -56.5t-30 -43.5t-44.5 -28t-55.5 -10q-72 0 -107.5 47t-35.5 127q0 73 27.5 124.5t66 83.5t78.5 47t65 15q14 0 21.5 -6t7.5 -15q0 -19 -21 -23q-26 -6 -52 -17.5t-48 -30.5t-39 -45.5t-25 -62.5q14 11 34.5 18.5t46.5 7.5q55 0 88.5 -34.5
t33.5 -97.5zM257 586q0 38 -17.5 64t-54.5 26q-20 0 -37.5 -7t-29.5 -17q-1 -7 -1 -14v-13q0 -26 4 -49t13 -40t23.5 -26.5t34.5 -9.5q31 0 48 25t17 61z" />
    <glyph glyph-name="uni2077" unicode="&#x2077;" horiz-adv-x="370" 
d="M326 869q0 -8 -5 -18q-23 -44 -46.5 -91.5t-44.5 -96t-39 -96t-31 -91.5q-2 -7 -5.5 -10.5t-11.5 -3.5h-57q-15 0 -15 15q0 7 5 15l167 331h-177q-6 0 -10.5 4t-4.5 10v35q0 6 4.5 10t10.5 4h242q18 0 18 -17z" />
    <glyph glyph-name="uni2078" unicode="&#x2078;" horiz-adv-x="370" 
d="M326 572q0 -53 -40 -86.5t-106 -33.5t-101 32.5t-35 78.5q0 21 7.5 38.5t20 31.5t28.5 25.5t33 22.5q-30 20 -51.5 45t-21.5 64q0 20 7.5 39t23 34t40 24t58.5 9q33 0 56 -8t37.5 -21.5t21 -30t6.5 -34.5q0 -38 -24 -63.5t-54 -45.5q18 -11 35 -22.5t30 -26t21 -32.5
t8 -40zM250 792q0 29 -18 45.5t-48 16.5q-26 0 -43.5 -15.5t-17.5 -40.5q0 -28 19.5 -46t48.5 -35q25 16 42 33.5t17 41.5zM256 561q0 17 -6.5 30.5t-18 24.5t-26 21t-30.5 19q-26 -17 -45.5 -36.5t-19.5 -46.5q0 -33 21 -53.5t54 -20.5q30 0 50.5 16.5t20.5 45.5z" />
    <glyph glyph-name="uni2079" unicode="&#x2079;" horiz-adv-x="370" 
d="M325 722q0 -73 -27.5 -124.5t-66 -83.5t-78.5 -47t-65 -15q-29 0 -29 22q0 18 21 22q26 6 52 17.5t48 30.5t39 45.5t25 62.5q-14 -11 -34.5 -18.5t-46.5 -7.5q-55 0 -88.5 34.5t-33.5 97.5q0 31 11 56.5t30 43.5t44.5 28t55.5 10q72 0 107.5 -47t35.5 -127zM253 724
q0 26 -4 49t-13 40t-23.5 26.5t-34.5 9.5q-31 0 -48 -25t-17 -61q0 -38 17.5 -64t54.5 -26q20 0 37.5 7t29.5 17q1 7 1 13v14z" />
    <glyph glyph-name="uni207A" unicode="&#x207a;" horiz-adv-x="370" 
d="M316 662q0 -14 -14 -14h-88v-92q0 -14 -14 -14h-30q-14 0 -14 14v92h-88q-14 0 -14 14v26q0 14 14 14h88v88q0 14 14 14h30q14 0 14 -14v-88h88q14 0 14 -14v-26z" />
    <glyph glyph-name="uni207B" unicode="&#x207b;" horiz-adv-x="370" 
d="M316 662q0 -14 -14 -14h-234q-14 0 -14 14v26q0 14 14 14h234q14 0 14 -14v-26z" />
    <glyph glyph-name="uni207C" unicode="&#x207c;" horiz-adv-x="370" 
d="M316 727q0 -14 -14 -14h-234q-14 0 -14 14v26q0 14 14 14h234q14 0 14 -14v-26zM316 595q0 -14 -14 -14h-234q-14 0 -14 14v26q0 14 14 14h234q14 0 14 -14v-26z" />
    <glyph glyph-name="uni207D" unicode="&#x207d;" horiz-adv-x="246" 
d="M225 366q0 -16 -19 -16q-13 0 -29 17q-24 25 -46 57.5t-39 71.5t-27 83.5t-10 94.5t10 94.5t27 83.5t39 71t46 58q16 17 29 17q19 0 19 -16q0 -11 -10 -27q-33 -52 -57.5 -120.5t-24.5 -160.5t24.5 -160.5t57.5 -120.5q10 -16 10 -27z" />
    <glyph glyph-name="uni207E" unicode="&#x207e;" horiz-adv-x="246" 
d="M191 674q0 -50 -10 -94.5t-27 -83.5t-39 -71.5t-46 -57.5q-16 -17 -29 -17q-18 0 -18 16q0 11 10 27q33 52 57 120.5t24 160.5t-24 160.5t-57 120.5q-10 16 -10 27q0 16 18 16q13 0 29 -17q24 -26 46 -58t39 -71t27 -83.5t10 -94.5z" />
    <glyph glyph-name="uni207F" unicode="&#x207f;" horiz-adv-x="419" 
d="M358 476q0 -14 -14 -14h-46q-14 0 -14 14v246q0 32 -18 53.5t-63 21.5q-23 0 -36.5 -4.5t-20.5 -12t-9 -17t-2 -18.5v-269q0 -14 -14 -14h-46q-14 0 -14 14v299q0 17 7 28.5t24 19.5q19 9 46 16t68 7q83 0 117.5 -33t34.5 -87v-250z" />
    <glyph glyph-name="uni2080" unicode="&#x2080;" horiz-adv-x="370" 
d="M326 30q0 -111 -40 -166.5t-101 -55.5t-101 55.5t-40 166.5t40 166.5t101 55.5t101 -55.5t40 -166.5zM252 32q0 85 -18 127t-49 42t-49 -42t-18 -127t18 -126.5t49 -41.5t49 41.5t18 126.5z" />
    <glyph glyph-name="uni2081" unicode="&#x2081;" horiz-adv-x="370" 
d="M259 -168q0 -14 -14 -14h-48q-15 0 -15 14v317q-12 -6 -26 -11.5t-27.5 -9.5t-25 -6.5t-18.5 -2.5q-11 0 -18 5.5t-7 16.5q0 18 21 23q31 8 68 27t64 48q10 12 24 12q12 0 17 -7t5 -17v-395z" />
    <glyph glyph-name="uni2082" unicode="&#x2082;" horiz-adv-x="370" 
d="M315 -168q0 -6 -4.5 -10t-10.5 -4h-237q-16 0 -16 16q0 7 7 16l141 189q16 22 26.5 45t10.5 43q0 32 -16.5 50.5t-48.5 18.5q-16 0 -28 -6.5t-20 -16.5t-13 -22t-8 -24q-5 -18 -23 -18q-11 0 -17 7.5t-6 19.5q0 19 7.5 40t23.5 37.5t40.5 27.5t58.5 11q33 0 57 -9.5
t39.5 -25t22.5 -36t7 -42.5q0 -34 -18.5 -67t-39.5 -58l-111 -133h161q6 0 10.5 -4t4.5 -10v-35z" />
    <glyph glyph-name="uni2083" unicode="&#x2083;" horiz-adv-x="370" 
d="M314 -52q0 -32 -11 -57.5t-31 -44t-47.5 -28.5t-61.5 -10q-26 0 -47.5 6.5t-37 17t-24 23t-8.5 24.5q0 14 9 23.5t24 9.5q20 0 32 -17q11 -14 24.5 -25t36.5 -11q31 0 49.5 20.5t18.5 52.5q0 20 -8 35t-20.5 26.5t-29 19t-33.5 11.5q-20 5 -20 18q0 7 4 12t15 9
q32 12 54 31t22 48q0 26 -17 40.5t-43 14.5q-31 0 -45.5 -18t-21.5 -38q-5 -17 -24 -17q-11 0 -17 7t-6 18q0 18 8.5 36.5t24.5 33t40 24t54 9.5q31 0 54 -8.5t38 -22t22 -31t7 -35.5t-6 -32.5t-16 -26.5t-21.5 -20.5t-23.5 -14.5v-2q33 -14 58 -41.5t25 -69.5z" />
    <glyph glyph-name="uni2084" unicode="&#x2084;" horiz-adv-x="370" 
d="M334 -67q0 -14 -14 -14h-40v-87q0 -14 -14 -14h-42q-15 0 -15 14v87h-153q-27 0 -27 24q0 12 8 23l178 266q7 10 18 10h33q14 0 14 -14v-261h40q14 0 14 -14v-20zM212 164q-5 -11 -13.5 -28t-13.5 -24l-95 -145h120v138q0 11 0.5 26.5t2.5 32.5h-1z" />
    <glyph glyph-name="uni2085" unicode="&#x2085;" horiz-adv-x="370" 
d="M319 -49q0 -63 -40 -103t-112 -40q-26 0 -47.5 6.5t-37 17t-24 23t-8.5 24.5q0 14 9 23.5t24 9.5q20 0 32 -17q11 -14 25 -25t37 -11q33 0 50.5 22t17.5 54q0 41 -25.5 65.5t-71.5 24.5q-24 0 -40.5 -7t-26.5 -7q-18 0 -18 20l17 201q0 10 13 10h189q14 0 14 -14v-35
q0 -14 -14 -14h-152l-9 -113q10 5 27 9t35 4q59 0 97.5 -33t38.5 -95z" />
    <glyph glyph-name="uni2086" unicode="&#x2086;" horiz-adv-x="370" 
d="M329 -54q0 -31 -11 -56.5t-30 -43.5t-44.5 -28t-55.5 -10q-72 0 -107.5 47t-35.5 127q0 73 27.5 124.5t66 83.5t78.5 47t65 15q14 0 21.5 -6t7.5 -15q0 -19 -21 -23q-26 -6 -52 -17.5t-48 -30.5t-39 -45.5t-25 -62.5q14 11 34.5 18.5t46.5 7.5q55 0 88.5 -34.5
t33.5 -97.5zM257 -58q0 38 -17.5 64t-54.5 26q-20 0 -37.5 -7t-29.5 -17q-1 -7 -1 -14v-13q0 -26 4 -49t13 -40t23.5 -26.5t34.5 -9.5q31 0 48 25t17 61z" />
    <glyph glyph-name="uni2087" unicode="&#x2087;" horiz-adv-x="370" 
d="M326 225q0 -8 -5 -18q-23 -44 -46.5 -91.5t-44.5 -96t-39 -96t-31 -91.5q-2 -7 -5.5 -10.5t-11.5 -3.5h-57q-15 0 -15 15q0 7 5 15l167 331h-177q-6 0 -10.5 4t-4.5 10v35q0 6 4.5 10t10.5 4h242q18 0 18 -17z" />
    <glyph glyph-name="uni2088" unicode="&#x2088;" horiz-adv-x="370" 
d="M326 -72q0 -53 -40 -86.5t-106 -33.5t-101 32.5t-35 78.5q0 21 7.5 38.5t20 31.5t28.5 25.5t33 22.5q-30 20 -51.5 45t-21.5 64q0 20 7.5 39t23 34t40 24t58.5 9q33 0 56 -8t37.5 -21.5t21 -30t6.5 -34.5q0 -38 -24 -63.5t-54 -45.5q18 -11 35 -22.5t30 -26t21 -32.5
t8 -40zM250 148q0 29 -18 45.5t-48 16.5q-26 0 -43.5 -15.5t-17.5 -40.5q0 -28 19.5 -46t48.5 -35q25 16 42 33.5t17 41.5zM256 -83q0 17 -6.5 30.5t-18 24.5t-26 21t-30.5 19q-26 -17 -45.5 -36.5t-19.5 -46.5q0 -33 21 -53.5t54 -20.5q30 0 50.5 16.5t20.5 45.5z" />
    <glyph glyph-name="uni2089" unicode="&#x2089;" horiz-adv-x="370" 
d="M325 78q0 -73 -27.5 -124.5t-66 -83.5t-78.5 -47t-65 -15q-29 0 -29 22q0 18 21 22q26 6 52 17.5t48 30.5t39 45.5t25 62.5q-14 -11 -34.5 -18.5t-46.5 -7.5q-55 0 -88.5 34.5t-33.5 97.5q0 31 11 56.5t30 43.5t44.5 28t55.5 10q72 0 107.5 -47t35.5 -127zM253 80
q0 26 -4 49t-13 40t-23.5 26.5t-34.5 9.5q-31 0 -48 -25t-17 -61q0 -38 17.5 -64t54.5 -26q20 0 37.5 7t29.5 17q1 7 1 13v14z" />
    <glyph glyph-name="uni208A" unicode="&#x208a;" horiz-adv-x="370" 
d="M316 18q0 -14 -14 -14h-88v-92q0 -14 -14 -14h-30q-14 0 -14 14v92h-88q-14 0 -14 14v26q0 14 14 14h88v88q0 14 14 14h30q14 0 14 -14v-88h88q14 0 14 -14v-26z" />
    <glyph glyph-name="uni208B" unicode="&#x208b;" horiz-adv-x="370" 
d="M316 18q0 -14 -14 -14h-234q-14 0 -14 14v26q0 14 14 14h234q14 0 14 -14v-26z" />
    <glyph glyph-name="uni208C" unicode="&#x208c;" horiz-adv-x="370" 
d="M316 83q0 -14 -14 -14h-234q-14 0 -14 14v26q0 14 14 14h234q14 0 14 -14v-26zM316 -49q0 -14 -14 -14h-234q-14 0 -14 14v26q0 14 14 14h234q14 0 14 -14v-26z" />
    <glyph glyph-name="uni208D" unicode="&#x208d;" horiz-adv-x="246" 
d="M225 -278q0 -16 -19 -16q-13 0 -29 17q-24 25 -46 57.5t-39 71.5t-27 83.5t-10 94.5t10 94.5t27 83.5t39 71t46 58q16 17 29 17q19 0 19 -16q0 -11 -10 -27q-33 -52 -57.5 -120.5t-24.5 -160.5t24.5 -160.5t57.5 -120.5q10 -16 10 -27z" />
    <glyph glyph-name="uni208E" unicode="&#x208e;" horiz-adv-x="246" 
d="M191 30q0 -50 -10 -94.5t-27 -83.5t-39 -71.5t-46 -57.5q-16 -17 -29 -17q-18 0 -18 16q0 11 10 27q33 52 57 120.5t24 160.5t-24 160.5t-57 120.5q-10 16 -10 27q0 16 18 16q13 0 29 -17q24 -26 46 -58t39 -71t27 -83.5t10 -94.5z" />
    <glyph glyph-name="Euro" unicode="&#x20ac;" horiz-adv-x="715" 
d="M664 121q0 -17 -15 -40.5t-43.5 -44.5t-69.5 -36t-92 -15q-71 0 -123.5 21t-88.5 56.5t-57 83.5t-31 102h-73q-21 0 -21 18v21q0 18 21 18h66q-1 13 -1.5 25.5t-0.5 25.5v26q0 13 2 27h-66q-21 0 -21 18v21q0 17 21 17h75q12 53 35.5 100t59.5 81.5t84 54.5t110 20
q61 0 104.5 -16t71.5 -38.5t40.5 -47t12.5 -40.5q0 -21 -13 -34.5t-36 -13.5q-19 0 -32 9t-23 30q-5 11 -13.5 25.5t-23.5 27t-37 21t-54 8.5q-39 0 -68 -15t-49.5 -41t-34 -60t-20.5 -71h215q20 0 20 -17v-21q0 -18 -20 -18h-223q-1 -13 -1.5 -25.5t-0.5 -25.5q0 -26 3 -53
h222q20 0 20 -18v-21q0 -18 -20 -18h-213q9 -36 24.5 -68t39.5 -56t56.5 -37.5t75.5 -13.5q30 0 53.5 6.5t41.5 16t31 20.5t22 20q13 13 29 13q12 0 20.5 -7.5t8.5 -20.5z" />
    <glyph glyph-name="uni2117" unicode="&#x2117;" horiz-adv-x="858" 
d="M797 353q0 -76 -29 -143t-79 -117t-117 -79t-143 -29t-143 29t-117 79t-79 117t-29 143t29 143t79 117t117 79t143 29t143 -29t117 -79t79 -117t29 -143zM740 353q0 64 -24.5 121t-66.5 99t-99 66.5t-121 24.5q-65 0 -121.5 -24.5t-98.5 -66.5t-66.5 -99t-24.5 -121
q0 -65 24.5 -121.5t66.5 -98.5t98.5 -66.5t121.5 -24.5q64 0 121 24.5t99 66.5t66.5 98.5t24.5 121.5zM591 444q0 -60 -43.5 -93t-121.5 -33q-7 0 -20 0.5t-21 1.5v-164q0 -12 -12 -12h-41q-13 0 -13 12v376q0 11 14 18q12 6 40.5 12t61.5 6q31 0 59 -6.5t49.5 -21.5
t34.5 -38.5t13 -57.5zM524 444q0 42 -25 63t-68 21q-14 0 -25 -2t-21 -5v-161q5 -1 14.5 -1.5t19.5 -0.5q54 0 79.5 22t25.5 64z" />
    <glyph glyph-name="trademark" unicode="&#x2122;" horiz-adv-x="840" 
d="M789 319q0 -10 -11 -10h-54q-10 0 -10 11l-15 227q-1 11 -1.5 33t-0.5 42h-2q-5 -23 -9.5 -39.5t-11.5 -35.5l-84 -228q-2 -5 -4.5 -7.5t-8.5 -2.5h-21q-6 0 -8.5 2.5t-4.5 7.5l-84 228q-4 9 -10 30t-11 46h-2q0 -17 -0.5 -38.5t-1.5 -37.5l-15 -227q0 -11 -12 -11h-45
q-11 0 -11 10l35 376q2 11 12 11h60q11 0 14 -11l82 -225q5 -12 8 -25.5t7 -33.5h2q2 10 5.5 26t9.5 33l83 225q4 11 14 11h60q9 0 11 -11zM311 665q0 -12 -11 -12h-88v-330q0 -14 -12 -14h-55q-8 0 -10 3.5t-2 10.5v330h-88q-11 0 -11 12v29q0 12 11 12h255q11 0 11 -12
v-29z" />
    <glyph glyph-name="Omega" unicode="&#x2126;" horiz-adv-x="738" 
d="M694 17q0 -17 -18 -17h-238q-17 0 -17 17v44q0 10 5 18q27 42 49.5 79.5t38.5 75t25 78t9 88.5q0 54 -12 98.5t-34.5 77t-56 50.5t-76.5 18t-76.5 -18t-56 -50.5t-34.5 -77t-12 -98.5q0 -48 9 -88.5t25 -78t38.5 -75t49.5 -79.5q5 -8 5 -18v-44q0 -17 -17 -17h-238
q-18 0 -18 17v48q0 17 18 17h149v2q-29 34 -56 70t-48 75.5t-33.5 83.5t-12.5 95q0 71 22.5 129t63 99t97.5 63t125 22t125 -22t97.5 -63t63 -99t22.5 -129q0 -51 -12.5 -95t-33.5 -83.5t-48 -75.5t-56 -70v-2h149q18 0 18 -17v-48z" />
    <glyph glyph-name="uni2150" unicode="&#x2150;" horiz-adv-x="927" 
d="M259 296q0 -14 -14 -14h-48q-15 0 -15 14v317q-12 -6 -26 -11.5t-27.5 -9.5t-25 -6.5t-18.5 -2.5q-11 0 -18 5.5t-7 16.5q0 18 21 23q31 8 68 27t64 48q10 12 24 12q12 0 17 -7t5 -17v-395zM682 691q0 -5 -5 -15l-370 -660q-5 -8 -9.5 -12t-14.5 -4h-21q-17 0 -17 15
q0 3 2 7l4 8l370 660q5 8 9.5 12t14.5 4h21q16 0 16 -15zM883 407q0 -8 -5 -18q-23 -44 -46.5 -91.5t-44.5 -96t-39 -96t-31 -91.5q-2 -7 -5.5 -10.5t-11.5 -3.5h-57q-15 0 -15 15q0 7 5 15l167 331h-177q-6 0 -10.5 4t-4.5 10v35q0 6 4.5 10t10.5 4h242q18 0 18 -17z" />
    <glyph glyph-name="uni2151" unicode="&#x2151;" horiz-adv-x="927" 
d="M259 296q0 -14 -14 -14h-48q-15 0 -15 14v317q-12 -6 -26 -11.5t-27.5 -9.5t-25 -6.5t-18.5 -2.5q-11 0 -18 5.5t-7 16.5q0 18 21 23q31 8 68 27t64 48q10 12 24 12q12 0 17 -7t5 -17v-395zM682 691q0 -5 -5 -15l-370 -660q-5 -8 -9.5 -12t-14.5 -4h-21q-17 0 -17 15
q0 3 2 7l4 8l370 660q5 8 9.5 12t14.5 4h21q16 0 16 -15zM882 260q0 -73 -27.5 -124.5t-66 -83.5t-78.5 -47t-65 -15q-29 0 -29 22q0 18 21 22q26 6 52 17.5t48 30.5t39 45.5t25 62.5q-14 -11 -34.5 -18.5t-46.5 -7.5q-55 0 -88.5 34.5t-33.5 97.5q0 31 11 56.5t30 43.5
t44.5 28t55.5 10q72 0 107.5 -47t35.5 -127zM810 262q0 26 -4 49t-13 40t-23.5 26.5t-34.5 9.5q-31 0 -48 -25t-17 -61q0 -38 17.5 -64t54.5 -26q20 0 37.5 7t29.5 17q1 7 1 13v14z" />
    <glyph glyph-name="uni2152" unicode="&#x2152;" horiz-adv-x="1297" 
d="M259 296q0 -14 -14 -14h-48q-15 0 -15 14v317q-12 -6 -26 -11.5t-27.5 -9.5t-25 -6.5t-18.5 -2.5q-11 0 -18 5.5t-7 16.5q0 18 21 23q31 8 68 27t64 48q10 12 24 12q12 0 17 -7t5 -17v-395zM682 691q0 -5 -5 -15l-370 -660q-5 -8 -9.5 -12t-14.5 -4h-21q-17 0 -17 15
q0 3 2 7l4 8l370 660q5 8 9.5 12t14.5 4h21q16 0 16 -15zM816 14q0 -14 -14 -14h-48q-15 0 -15 14v317q-12 -6 -26 -11.5t-27.5 -9.5t-25 -6.5t-18.5 -2.5q-11 0 -18 5.5t-7 16.5q0 18 21 23q31 8 68 27t64 48q10 12 24 12q12 0 17 -7t5 -17v-395zM1253 212
q0 -111 -40 -166.5t-101 -55.5t-101 55.5t-40 166.5t40 166.5t101 55.5t101 -55.5t40 -166.5zM1179 214q0 85 -18 127t-49 42t-49 -42t-18 -127t18 -126.5t49 -41.5t49 41.5t18 126.5z" />
    <glyph glyph-name="onethird" unicode="&#x2153;" horiz-adv-x="857" 
d="M804 130q0 -32 -11 -57.5t-31 -44t-47.5 -28.5t-61.5 -10q-26 0 -47.5 6.5t-37 17t-24 23t-8.5 24.5q0 14 9 23.5t24 9.5q20 0 32 -17q11 -14 24.5 -25t36.5 -11q31 0 49.5 20.5t18.5 52.5q0 20 -8 35t-20.5 26.5t-29 19t-33.5 11.5q-20 5 -20 18q0 7 4 12t15 9
q32 12 54 31t22 48q0 26 -17 40.5t-43 14.5q-31 0 -45.5 -18t-21.5 -38q-5 -17 -24 -17q-11 0 -17 7t-6 18q0 18 8.5 36.5t24.5 33t40 24t54 9.5q31 0 54 -8.5t38 -22t22 -31t7 -35.5t-6 -32.5t-16 -26.5t-21.5 -20.5t-23.5 -14.5v-2q33 -14 58 -41.5t25 -69.5zM628 691
q0 -5 -5 -15l-370 -660q-5 -8 -9.5 -12t-14.5 -4h-21q-17 0 -17 15q0 3 2 7l4 8l370 660q5 8 9.5 12t14.5 4h21q16 0 16 -15zM252 296q0 -14 -14 -14h-48q-15 0 -15 14v317q-12 -6 -26 -11.5t-27.5 -9.5t-25 -6.5t-18.5 -2.5q-11 0 -18 5.5t-7 16.5q0 18 21 23q31 8 68 27
t64 48q10 12 24 12q12 0 17 -7t5 -17v-395z" />
    <glyph glyph-name="twothirds" unicode="&#x2154;" horiz-adv-x="857" 
d="M804 130q0 -32 -11 -57.5t-31 -44t-47.5 -28.5t-61.5 -10q-26 0 -47.5 6.5t-37 17t-24 23t-8.5 24.5q0 14 9 23.5t24 9.5q20 0 32 -17q11 -14 24.5 -25t36.5 -11q31 0 49.5 20.5t18.5 52.5q0 20 -8 35t-20.5 26.5t-29 19t-33.5 11.5q-20 5 -20 18q0 7 4 12t15 9
q32 12 54 31t22 48q0 26 -17 40.5t-43 14.5q-31 0 -45.5 -18t-21.5 -38q-5 -17 -24 -17q-11 0 -17 7t-6 18q0 18 8.5 36.5t24.5 33t40 24t54 9.5q31 0 54 -8.5t38 -22t22 -31t7 -35.5t-6 -32.5t-16 -26.5t-21.5 -20.5t-23.5 -14.5v-2q33 -14 58 -41.5t25 -69.5zM315 296
q0 -6 -4.5 -10t-10.5 -4h-237q-16 0 -16 16q0 7 7 16l141 189q16 22 26.5 45t10.5 43q0 32 -16.5 50.5t-48.5 18.5q-16 0 -28 -6.5t-20 -16.5t-13 -22t-8 -24q-5 -18 -23 -18q-11 0 -17 7.5t-6 19.5q0 19 7.5 40t23.5 37.5t40.5 27.5t58.5 11q33 0 57 -9.5t39.5 -25
t22.5 -36t7 -42.5q0 -34 -18.5 -67t-39.5 -58l-111 -133h161q6 0 10.5 -4t4.5 -10v-35zM659 691q0 -5 -5 -15l-370 -660q-5 -8 -9.5 -12t-14.5 -4h-21q-17 0 -17 15q0 3 2 7l4 8l370 660q5 8 9.5 12t14.5 4h21q16 0 16 -15z" />
    <glyph glyph-name="uni2155" unicode="&#x2155;" horiz-adv-x="857" 
d="M807 133q0 -63 -40 -103t-112 -40q-26 0 -47.5 6.5t-37 17t-24 23t-8.5 24.5q0 14 9 23.5t24 9.5q20 0 32 -17q11 -14 25 -25t37 -11q33 0 50.5 22t17.5 54q0 41 -25.5 65.5t-71.5 24.5q-24 0 -40.5 -7t-26.5 -7q-18 0 -18 20l17 201q0 10 13 10h189q14 0 14 -14v-35
q0 -14 -14 -14h-152l-9 -113q10 5 27 9t35 4q59 0 97.5 -33t38.5 -95zM627 691q0 -5 -5 -15l-370 -660q-5 -8 -9.5 -12t-14.5 -4h-21q-17 0 -17 15q0 3 2 7l4 8l370 660q5 8 9.5 12t14.5 4h21q16 0 16 -15zM252 296q0 -14 -14 -14h-48q-15 0 -15 14v317q-12 -6 -26 -11.5
t-27.5 -9.5t-25 -6.5t-18.5 -2.5q-11 0 -18 5.5t-7 16.5q0 18 21 23q31 8 68 27t64 48q10 12 24 12q12 0 17 -7t5 -17v-395z" />
    <glyph glyph-name="uni2156" unicode="&#x2156;" horiz-adv-x="857" 
d="M807 133q0 -63 -40 -103t-112 -40q-26 0 -47.5 6.5t-37 17t-24 23t-8.5 24.5q0 14 9 23.5t24 9.5q20 0 32 -17q11 -14 25 -25t37 -11q33 0 50.5 22t17.5 54q0 41 -25.5 65.5t-71.5 24.5q-24 0 -40.5 -7t-26.5 -7q-18 0 -18 20l17 201q0 10 13 10h189q14 0 14 -14v-35
q0 -14 -14 -14h-152l-9 -113q10 5 27 9t35 4q59 0 97.5 -33t38.5 -95zM315 296q0 -6 -4.5 -10t-10.5 -4h-237q-16 0 -16 16q0 7 7 16l141 189q16 22 26.5 45t10.5 43q0 32 -16.5 50.5t-48.5 18.5q-16 0 -28 -6.5t-20 -16.5t-13 -22t-8 -24q-5 -18 -23 -18q-11 0 -17 7.5
t-6 19.5q0 19 7.5 40t23.5 37.5t40.5 27.5t58.5 11q33 0 57 -9.5t39.5 -25t22.5 -36t7 -42.5q0 -34 -18.5 -67t-39.5 -58l-111 -133h161q6 0 10.5 -4t4.5 -10v-35zM660 691q0 -5 -5 -15l-370 -660q-5 -8 -9.5 -12t-14.5 -4h-21q-17 0 -17 15q0 3 2 7l4 8l370 660q5 8 9.5 12
t14.5 4h21q16 0 16 -15z" />
    <glyph glyph-name="uni2157" unicode="&#x2157;" horiz-adv-x="857" 
d="M807 133q0 -63 -40 -103t-112 -40q-26 0 -47.5 6.5t-37 17t-24 23t-8.5 24.5q0 14 9 23.5t24 9.5q20 0 32 -17q11 -14 25 -25t37 -11q33 0 50.5 22t17.5 54q0 41 -25.5 65.5t-71.5 24.5q-24 0 -40.5 -7t-26.5 -7q-18 0 -18 20l17 201q0 10 13 10h189q14 0 14 -14v-35
q0 -14 -14 -14h-152l-9 -113q10 5 27 9t35 4q59 0 97.5 -33t38.5 -95zM317 412q0 -32 -11 -57.5t-31 -44t-47.5 -28.5t-61.5 -10q-26 0 -47.5 6.5t-37 17t-24 23t-8.5 24.5q0 14 9 23.5t24 9.5q20 0 32 -17q11 -14 24.5 -25t36.5 -11q31 0 49.5 20.5t18.5 52.5q0 20 -8 35
t-20.5 26.5t-29 19t-33.5 11.5q-20 5 -20 18q0 7 4 12t15 9q32 12 54 31t22 48q0 26 -17 40.5t-43 14.5q-31 0 -45.5 -18t-21.5 -38q-5 -17 -24 -17q-11 0 -17 7t-6 18q0 18 8.5 36.5t24.5 33t40 24t54 9.5q31 0 54 -8.5t38 -22t22 -31t7 -35.5t-6 -32.5t-16 -26.5
t-21.5 -20.5t-23.5 -14.5v-2q33 -14 58 -41.5t25 -69.5zM639 691q0 -5 -5 -15l-370 -660q-5 -8 -9.5 -12t-14.5 -4h-21q-17 0 -17 15q0 3 2 7l4 8l370 660q5 8 9.5 12t14.5 4h21q16 0 16 -15z" />
    <glyph glyph-name="uni2158" unicode="&#x2158;" horiz-adv-x="857" 
d="M334 397q0 -14 -14 -14h-40v-87q0 -14 -14 -14h-42q-15 0 -15 14v87h-153q-27 0 -27 24q0 12 8 23l178 266q7 10 18 10h33q14 0 14 -14v-261h40q14 0 14 -14v-20zM807 133q0 -63 -40 -103t-112 -40q-26 0 -47.5 6.5t-37 17t-24 23t-8.5 24.5q0 14 9 23.5t24 9.5
q20 0 32 -17q11 -14 25 -25t37 -11q33 0 50.5 22t17.5 54q0 41 -25.5 65.5t-71.5 24.5q-24 0 -40.5 -7t-26.5 -7q-18 0 -18 20l17 201q0 10 13 10h189q14 0 14 -14v-35q0 -14 -14 -14h-152l-9 -113q10 5 27 9t35 4q59 0 97.5 -33t38.5 -95zM648 691q0 -5 -5 -15l-370 -660
q-5 -8 -9.5 -12t-14.5 -4h-21q-17 0 -17 15q0 3 2 7l4 8l370 660q5 8 9.5 12t14.5 4h21q16 0 16 -15zM212 628q-5 -11 -13.5 -28t-13.5 -24l-95 -145h120v138q0 11 0.5 26.5t2.5 32.5h-1z" />
    <glyph glyph-name="uni2159" unicode="&#x2159;" horiz-adv-x="857" 
d="M805 128q0 -31 -11 -56.5t-30 -43.5t-44.5 -28t-55.5 -10q-72 0 -107.5 47t-35.5 127q0 73 27.5 124.5t66 83.5t78.5 47t65 15q14 0 21.5 -6t7.5 -15q0 -19 -21 -23q-26 -6 -52 -17.5t-48 -30.5t-39 -45.5t-25 -62.5q14 11 34.5 18.5t46.5 7.5q55 0 88.5 -34.5
t33.5 -97.5zM642 691q0 -5 -5 -15l-370 -660q-5 -8 -9.5 -12t-14.5 -4h-21q-17 0 -17 15q0 3 2 7l4 8l370 660q5 8 9.5 12t14.5 4h21q16 0 16 -15zM252 296q0 -14 -14 -14h-48q-15 0 -15 14v317q-12 -6 -26 -11.5t-27.5 -9.5t-25 -6.5t-18.5 -2.5q-11 0 -18 5.5t-7 16.5
q0 18 21 23q31 8 68 27t64 48q10 12 24 12q12 0 17 -7t5 -17v-395zM733 124q0 38 -17.5 64t-54.5 26q-20 0 -37.5 -7t-29.5 -17q-1 -7 -1 -14v-13q0 -26 4 -49t13 -40t23.5 -26.5t34.5 -9.5q31 0 48 25t17 61z" />
    <glyph glyph-name="uni215A" unicode="&#x215a;" horiz-adv-x="857" 
d="M805 128q0 -31 -11 -56.5t-30 -43.5t-44.5 -28t-55.5 -10q-72 0 -107.5 47t-35.5 127q0 73 27.5 124.5t66 83.5t78.5 47t65 15q14 0 21.5 -6t7.5 -15q0 -19 -21 -23q-26 -6 -52 -17.5t-48 -30.5t-39 -45.5t-25 -62.5q14 11 34.5 18.5t46.5 7.5q55 0 88.5 -34.5
t33.5 -97.5zM319 415q0 -63 -40 -103t-112 -40q-26 0 -47.5 6.5t-37 17t-24 23t-8.5 24.5q0 14 9 23.5t24 9.5q20 0 32 -17q11 -14 25 -25t37 -11q33 0 50.5 22t17.5 54q0 41 -25.5 65.5t-71.5 24.5q-24 0 -40.5 -7t-26.5 -7q-18 0 -18 20l17 201q0 10 13 10h189
q14 0 14 -14v-35q0 -14 -14 -14h-152l-9 -113q10 5 27 9t35 4q59 0 97.5 -33t38.5 -95zM658 691q0 -5 -5 -15l-370 -660q-5 -8 -9.5 -12t-14.5 -4h-21q-17 0 -17 15q0 3 2 7l4 8l370 660q5 8 9.5 12t14.5 4h21q16 0 16 -15zM733 124q0 38 -17.5 64t-54.5 26q-20 0 -37.5 -7
t-29.5 -17q-1 -7 -1 -14v-13q0 -26 4 -49t13 -40t23.5 -26.5t34.5 -9.5q31 0 48 25t17 61z" />
    <glyph glyph-name="oneeighth" unicode="&#x215b;" horiz-adv-x="857" 
d="M808 110q0 -53 -40 -86.5t-106 -33.5t-101 32.5t-35 78.5q0 21 7.5 38.5t20 31.5t28.5 25.5t33 22.5q-30 20 -51.5 45t-21.5 64q0 20 7.5 39t23 34t40 24t58.5 9q33 0 56 -8t37.5 -21.5t21 -30t6.5 -34.5q0 -38 -24 -63.5t-54 -45.5q18 -11 35 -22.5t30 -26t21 -32.5
t8 -40zM628 691q0 -5 -5 -15l-370 -660q-5 -8 -9.5 -12t-14.5 -4h-21q-17 0 -17 15q0 3 2 7l4 8l370 660q5 8 9.5 12t14.5 4h21q16 0 16 -15zM252 296q0 -14 -14 -14h-48q-15 0 -15 14v317q-12 -6 -26 -11.5t-27.5 -9.5t-25 -6.5t-18.5 -2.5q-11 0 -18 5.5t-7 16.5
q0 18 21 23q31 8 68 27t64 48q10 12 24 12q12 0 17 -7t5 -17v-395zM738 99q0 17 -6.5 30.5t-18 24.5t-26 21t-30.5 19q-26 -17 -45.5 -36.5t-19.5 -46.5q0 -33 21 -53.5t54 -20.5q30 0 50.5 16.5t20.5 45.5zM732 330q0 29 -18 45.5t-48 16.5q-26 0 -43.5 -15.5t-17.5 -40.5
q0 -28 19.5 -46t48.5 -35q25 16 42 33.5t17 41.5z" />
    <glyph glyph-name="threeeighths" unicode="&#x215c;" horiz-adv-x="857" 
d="M808 110q0 -53 -40 -86.5t-106 -33.5t-101 32.5t-35 78.5q0 21 7.5 38.5t20 31.5t28.5 25.5t33 22.5q-30 20 -51.5 45t-21.5 64q0 20 7.5 39t23 34t40 24t58.5 9q33 0 56 -8t37.5 -21.5t21 -30t6.5 -34.5q0 -38 -24 -63.5t-54 -45.5q18 -11 35 -22.5t30 -26t21 -32.5
t8 -40zM317 412q0 -32 -11 -57.5t-31 -44t-47.5 -28.5t-61.5 -10q-26 0 -47.5 6.5t-37 17t-24 23t-8.5 24.5q0 14 9 23.5t24 9.5q20 0 32 -17q11 -14 24.5 -25t36.5 -11q31 0 49.5 20.5t18.5 52.5q0 20 -8 35t-20.5 26.5t-29 19t-33.5 11.5q-20 5 -20 18q0 7 4 12t15 9
q32 12 54 31t22 48q0 26 -17 40.5t-43 14.5q-31 0 -45.5 -18t-21.5 -38q-5 -17 -24 -17q-11 0 -17 7t-6 18q0 18 8.5 36.5t24.5 33t40 24t54 9.5q31 0 54 -8.5t38 -22t22 -31t7 -35.5t-6 -32.5t-16 -26.5t-21.5 -20.5t-23.5 -14.5v-2q33 -14 58 -41.5t25 -69.5zM643 691
q0 -5 -5 -15l-370 -660q-5 -8 -9.5 -12t-14.5 -4h-21q-17 0 -17 15q0 3 2 7l4 8l370 660q5 8 9.5 12t14.5 4h21q16 0 16 -15zM738 99q0 17 -6.5 30.5t-18 24.5t-26 21t-30.5 19q-26 -17 -45.5 -36.5t-19.5 -46.5q0 -33 21 -53.5t54 -20.5q30 0 50.5 16.5t20.5 45.5zM732 330
q0 29 -18 45.5t-48 16.5q-26 0 -43.5 -15.5t-17.5 -40.5q0 -28 19.5 -46t48.5 -35q25 16 42 33.5t17 41.5z" />
    <glyph glyph-name="fiveeighths" unicode="&#x215d;" horiz-adv-x="857" 
d="M808 110q0 -53 -40 -86.5t-106 -33.5t-101 32.5t-35 78.5q0 21 7.5 38.5t20 31.5t28.5 25.5t33 22.5q-30 20 -51.5 45t-21.5 64q0 20 7.5 39t23 34t40 24t58.5 9q33 0 56 -8t37.5 -21.5t21 -30t6.5 -34.5q0 -38 -24 -63.5t-54 -45.5q18 -11 35 -22.5t30 -26t21 -32.5
t8 -40zM319 415q0 -63 -40 -103t-112 -40q-26 0 -47.5 6.5t-37 17t-24 23t-8.5 24.5q0 14 9 23.5t24 9.5q20 0 32 -17q11 -14 25 -25t37 -11q33 0 50.5 22t17.5 54q0 41 -25.5 65.5t-71.5 24.5q-24 0 -40.5 -7t-26.5 -7q-18 0 -18 20l17 201q0 10 13 10h189q14 0 14 -14v-35
q0 -14 -14 -14h-152l-9 -113q10 5 27 9t35 4q59 0 97.5 -33t38.5 -95zM643 691q0 -5 -5 -15l-370 -660q-5 -8 -9.5 -12t-14.5 -4h-21q-17 0 -17 15q0 3 2 7l4 8l370 660q5 8 9.5 12t14.5 4h21q16 0 16 -15zM738 99q0 17 -6.5 30.5t-18 24.5t-26 21t-30.5 19
q-26 -17 -45.5 -36.5t-19.5 -46.5q0 -33 21 -53.5t54 -20.5q30 0 50.5 16.5t20.5 45.5zM732 330q0 29 -18 45.5t-48 16.5q-26 0 -43.5 -15.5t-17.5 -40.5q0 -28 19.5 -46t48.5 -35q25 16 42 33.5t17 41.5z" />
    <glyph glyph-name="seveneighths" unicode="&#x215e;" horiz-adv-x="857" 
d="M808 110q0 -53 -40 -86.5t-106 -33.5t-101 32.5t-35 78.5q0 21 7.5 38.5t20 31.5t28.5 25.5t33 22.5q-30 20 -51.5 45t-21.5 64q0 20 7.5 39t23 34t40 24t58.5 9q33 0 56 -8t37.5 -21.5t21 -30t6.5 -34.5q0 -38 -24 -63.5t-54 -45.5q18 -11 35 -22.5t30 -26t21 -32.5
t8 -40zM604 691q0 -5 -5 -15l-370 -660q-5 -8 -9.5 -12t-14.5 -4h-21q-17 0 -17 15q0 3 2 7l4 8l370 660q5 8 9.5 12t14.5 4h21q16 0 16 -15zM328 689q0 -8 -5 -18q-23 -44 -46.5 -91.5t-44.5 -96t-39 -96t-31 -91.5q-2 -7 -5.5 -10.5t-11.5 -3.5h-57q-15 0 -15 15q0 7 5 15
l167 331h-177q-6 0 -10.5 4t-4.5 10v35q0 6 4.5 10t10.5 4h242q18 0 18 -17zM738 99q0 17 -6.5 30.5t-18 24.5t-26 21t-30.5 19q-26 -17 -45.5 -36.5t-19.5 -46.5q0 -33 21 -53.5t54 -20.5q30 0 50.5 16.5t20.5 45.5zM732 330q0 29 -18 45.5t-48 16.5q-26 0 -43.5 -15.5
t-17.5 -40.5q0 -28 19.5 -46t48.5 -35q25 16 42 33.5t17 41.5z" />
    <glyph glyph-name="uni215F" unicode="&#x215f;" horiz-adv-x="506" 
d="M631 691q0 -5 -5 -15l-370 -660q-5 -8 -9.5 -12t-14.5 -4h-21q-17 0 -17 15q0 3 2 7l4 8l370 660q5 8 9.5 12t14.5 4h21q16 0 16 -15zM252 296q0 -14 -14 -14h-48q-15 0 -15 14v317q-12 -6 -26 -11.5t-27.5 -9.5t-25 -6.5t-18.5 -2.5q-11 0 -18 5.5t-7 16.5q0 18 21 23
q31 8 68 27t64 48q10 12 24 12q12 0 17 -7t5 -17v-395z" />
    <glyph glyph-name="uni2189" unicode="&#x2189;" horiz-adv-x="927" 
d="M326 494q0 -111 -40 -166.5t-101 -55.5t-101 55.5t-40 166.5t40 166.5t101 55.5t101 -55.5t40 -166.5zM252 496q0 85 -18 127t-49 42t-49 -42t-18 -127t18 -126.5t49 -41.5t49 41.5t18 126.5zM682 691q0 -5 -5 -15l-370 -660q-5 -8 -9.5 -12t-14.5 -4h-21q-17 0 -17 15
q0 3 2 7l4 8l370 660q5 8 9.5 12t14.5 4h21q16 0 16 -15zM871 130q0 -32 -11 -57.5t-31 -44t-47.5 -28.5t-61.5 -10q-26 0 -47.5 6.5t-37 17t-24 23t-8.5 24.5q0 14 9 23.5t24 9.5q20 0 32 -17q11 -14 24.5 -25t36.5 -11q31 0 49.5 20.5t18.5 52.5q0 20 -8 35t-20.5 26.5
t-29 19t-33.5 11.5q-20 5 -20 18q0 7 4 12t15 9q32 12 54 31t22 48q0 26 -17 40.5t-43 14.5q-31 0 -45.5 -18t-21.5 -38q-5 -17 -24 -17q-11 0 -17 7t-6 18q0 18 8.5 36.5t24.5 33t40 24t54 9.5q31 0 54 -8.5t38 -22t22 -31t7 -35.5t-6 -32.5t-16 -26.5t-21.5 -20.5
t-23.5 -14.5v-2q33 -14 58 -41.5t25 -69.5z" />
    <glyph glyph-name="partialdiff" unicode="&#x2202;" horiz-adv-x="582" 
d="M534 344q0 -60 -14.5 -123.5t-48.5 -116t-89 -86t-136 -33.5q-48 0 -85 15.5t-62.5 42t-39 62t-13.5 75.5q0 50 18 96t52.5 81t84.5 56t113 21q49 0 102 -14q-7 46 -26 83.5t-47 67.5t-64 52t-77 39q-20 8 -20 26q0 17 12 24t28 7q21 0 36 -5q45 -15 93.5 -43t89 -73
t67 -107.5t26.5 -146.5zM421 364q-45 12 -85 12q-42 0 -75.5 -15.5t-56 -42t-34.5 -60t-12 -69.5q0 -27 7 -51t20 -41.5t32 -28t42 -10.5q41 0 71.5 21t50.5 59t30 89.5t10 113.5v23z" />
    <glyph glyph-name="Delta" unicode="&#x2206;" horiz-adv-x="652" 
d="M635 17q0 -17 -17 -17h-584q-17 0 -17 17q0 4 1 7.5t3 8.5l240 656q3 8 7.5 12.5t15.5 4.5h84q17 0 23 -17l240 -656q2 -5 3 -8.5t1 -7.5zM350 488q-3 9 -7 24t-8.5 33t-8.5 36.5t-7 35.5h-2q-7 -42 -14 -72.5t-16 -56.5l-143 -417h348z" />
    <glyph glyph-name="product" unicode="&#x220f;" horiz-adv-x="799" 
d="M750 643q0 -18 -18 -18h-80v-841q0 -19 -18 -19h-87q-19 0 -19 19v841h-257v-841q0 -19 -18 -19h-88q-18 0 -18 19v841h-80q-18 0 -18 18v46q0 17 18 17h665q18 0 18 -17v-46z" />
    <glyph glyph-name="summation" unicode="&#x2211;" horiz-adv-x="604" 
d="M562 -218q0 -17 -18 -17h-487q-20 0 -20 19q0 5 2 9l5 10l262 473l-254 390q-7 12 -7 20q0 20 21 20h462q18 0 18 -17v-44q0 -17 -18 -17h-326l208 -322q6 -9 6 -19q0 -9 -6 -19l-232 -420h366q18 0 18 -17v-49z" />
    <glyph glyph-name="minus" unicode="&#x2212;" 
d="M508 279q0 -18 -19 -18h-422q-19 0 -19 18v41q0 19 19 19h422q19 0 19 -19v-41z" />
    <glyph glyph-name="uni2219" unicode="&#x2219;" 
d="M402 320q0 -26 -9.5 -48.5t-26.5 -39.5t-39.5 -26.5t-48.5 -9.5t-48.5 9.5t-39.5 26.5t-26.5 39.5t-9.5 48.5t9.5 48.5t26.5 39.5t39.5 26.5t48.5 9.5t48.5 -9.5t39.5 -26.5t26.5 -39.5t9.5 -48.5z" />
    <glyph glyph-name="radical" unicode="&#x221a;" horiz-adv-x="719" 
d="M667 746q0 -6 -4 -16l-255 -712q-3 -9 -8 -13.5t-16 -4.5h-77q-11 0 -15.5 4.5t-7.5 13.5l-158 435h-78q-18 0 -18 19v27q0 19 19 19h163q18 0 24 -17l99 -302q6 -19 11 -45t7 -44h2q6 44 20 89l178 549q3 9 7.5 13t15.5 4h73q18 0 18 -19z" />
    <glyph glyph-name="infinity" unicode="&#x221e;" horiz-adv-x="920" 
d="M846 309q0 -44 -14 -81.5t-38.5 -65.5t-59 -43.5t-74.5 -15.5q-33 0 -61.5 9.5t-53.5 27t-48 42.5t-47 57q-22 -30 -44.5 -55t-46.5 -43t-51 -28t-58 -10q-41 0 -73.5 16.5t-55 45t-35 65.5t-12.5 79t13.5 80t38 66t58.5 44.5t76 16.5q34 0 63.5 -11t55 -30t47.5 -43
t42 -51q21 28 43 52.5t46.5 43t52 29t60.5 10.5q41 0 74 -16.5t55.5 -45t34.5 -66t12 -79.5zM412 301q-41 61 -77 95.5t-81 34.5q-23 0 -43 -9.5t-34.5 -26t-23 -39t-8.5 -47.5q0 -27 8.5 -49.5t23 -39.5t34.5 -26.5t43 -9.5q46 0 82.5 31t75.5 86zM775 309q0 27 -8.5 50
t-23 40t-34.5 26.5t-43 9.5q-45 0 -81 -29t-76 -86q20 -29 38.5 -53.5t37 -42t38.5 -27t43 -9.5t43 9.5t34.5 26t23 38.5t8.5 47z" />
    <glyph glyph-name="integral" unicode="&#x222b;" horiz-adv-x="554" 
d="M467 725q0 -17 -11 -29t-32 -12q-15 0 -25.5 5.5t-24.5 5.5q-29 0 -48 -27t-19 -96v-565q0 -80 -19.5 -129.5t-49 -76.5t-64 -36.5t-64.5 -9.5q-37 0 -61 14.5t-24 40.5q0 18 11.5 30.5t34.5 12.5q15 0 27.5 -7t26.5 -7q29 0 47 26t18 96v564q0 79 19.5 128t49 76
t64 36.5t64.5 9.5q41 0 60.5 -15t19.5 -35z" />
    <glyph glyph-name="approxequal" unicode="&#x2248;" 
d="M508 201q0 -15 -10 -26q-21 -27 -51.5 -43.5t-64.5 -16.5q-32 0 -58 11.5t-50.5 25.5t-49 25.5t-52.5 11.5q-31 0 -55 -15.5t-43 -38.5q-2 -3 -5.5 -6t-8.5 -3q-12 0 -12 14v41q0 8 3 14t8 12q20 26 50.5 43t64.5 17q31 0 57.5 -11.5t51.5 -25.5t50 -25.5t52 -11.5
q31 0 54.5 16t42.5 39q6 8 14 8q12 0 12 -13v-42zM508 419q0 -16 -10 -27q-21 -27 -51.5 -43.5t-64.5 -16.5q-32 0 -58 11.5t-50.5 25.5t-49 25.5t-52.5 11.5q-31 0 -55 -16t-43 -39q-6 -8 -14 -8q-12 0 -12 13v42q0 8 3 14t8 12q20 26 50.5 43t64.5 17q31 0 57.5 -11.5
t51.5 -25.5t50 -25.5t52 -11.5q31 0 54.5 15.5t42.5 38.5q2 3 5.5 6t8.5 3q12 0 12 -14v-40z" />
    <glyph glyph-name="notequal" unicode="&#x2260;" 
d="M508 173q0 -19 -19 -19h-267l-88 -153q-5 -10 -12 -10q-5 0 -8.5 2t-9.5 6q-8 5 -12.5 9t-4.5 9q0 3 4 11l72 126h-96q-19 0 -19 19v40q0 19 19 19h141l79 135h-220q-19 0 -19 19v41q0 18 19 18h265l83 145q5 10 12 10q5 0 8.5 -1.5t10.5 -5.5q8 -5 12 -9t4 -10
q0 -3 -4 -11l-68 -118h99q19 0 19 -18v-41q0 -19 -19 -19h-143l-79 -135h222q19 0 19 -19v-40z" />
    <glyph glyph-name="lessequal" unicode="&#x2264;" 
d="M508 164q0 -17 -17 -17q-4 0 -8.5 2t-8.5 4l-407 196q-19 9 -19 29v30q0 20 19 29l407 196q10 5 17 5q17 0 17 -16v-47q0 -21 -19 -29l-347 -153l347 -154q19 -8 19 -29v-46zM508 19q0 -19 -19 -19h-422q-19 0 -19 19v38q0 19 19 19h422q19 0 19 -19v-38z" />
    <glyph glyph-name="greaterequal" unicode="&#x2265;" 
d="M508 378q0 -20 -19 -29l-407 -196q-5 -2 -9 -4t-8 -2q-17 0 -17 17v46q0 21 19 29l347 154l-347 153q-19 8 -19 29v47q0 16 17 16q7 0 17 -5l407 -196q19 -9 19 -29v-30zM508 19q0 -19 -19 -19h-422q-19 0 -19 19v38q0 19 19 19h422q19 0 19 -19v-38z" />
    <glyph glyph-name="dotmath" unicode="&#x22c5;" 
d="M352 310q0 -31 -21.5 -52.5t-52.5 -21.5t-52.5 21.5t-21.5 52.5t21.5 52.5t52.5 21.5t52.5 -21.5t21.5 -52.5z" />
    <glyph glyph-name="lozenge" unicode="&#x25ca;" horiz-adv-x="795" 
d="M746 353q0 -8 -4.5 -14.5t-11.5 -13.5l-307 -325q-13 -13 -25 -13t-25 13l-308 325q-7 7 -11.5 13.5t-4.5 14.5t4.5 14.5t11.5 13.5l308 325q13 13 25 13t25 -13l307 -325q7 -7 11.5 -13.5t4.5 -14.5zM385 597l-213 -231l238 -255l214 230z" />
    <glyph glyph-name="eight.osf" horiz-adv-x="563" 
d="M512 183q0 -43 -17 -79.5t-48.5 -62.5t-75 -41t-97.5 -15t-96 14.5t-70 39.5t-42.5 58.5t-14.5 70.5q0 36 13 64.5t34.5 52.5t48.5 44t56 38q-25 16 -47.5 34t-40 40t-27.5 48t-10 58q0 33 12 64.5t37.5 56t65.5 39t95 14.5q53 0 90.5 -13.5t61 -35t34.5 -49.5t11 -57
q0 -32 -11 -58t-30 -48t-43 -41t-49 -35q30 -18 59 -37.5t51.5 -43.5t36 -53.5t13.5 -66.5zM393 550q0 51 -30.5 80.5t-82.5 29.5q-46 0 -76.5 -27.5t-30.5 -71.5q0 -25 9 -44.5t25 -36t37.5 -31t45.5 -28.5q43 27 73 57t30 72zM406 165q0 30 -11.5 53t-31 42.5t-45 36
t-53.5 32.5q-23 -15 -44 -30.5t-36.5 -33.5t-24.5 -38t-9 -43q0 -58 36.5 -93.5t94.5 -35.5q53 0 88.5 30t35.5 80z" />
    <glyph glyph-name="seven.osf" horiz-adv-x="510" 
d="M482 495q0 -8 -2.5 -14.5t-6.5 -14.5q-38 -74 -77 -154.5t-75 -162.5t-67.5 -162.5t-54.5 -153.5q-3 -9 -8 -15t-16 -6h-93q-9 0 -15 5t-6 14q0 6 2 11l6 11l290 568h-309q-18 0 -18 18v62q0 17 18 17h408q24 0 24 -23z" />
    <glyph glyph-name="six.osf" horiz-adv-x="564" 
d="M513 212q0 -50 -17.5 -91.5t-48 -71.5t-72 -46.5t-90.5 -16.5q-59 0 -102.5 20.5t-72.5 58t-43.5 90t-14.5 116.5q0 82 21.5 147t56 115t78 85.5t86.5 58t81.5 33t64.5 10.5q20 0 30.5 -8t10.5 -22q0 -27 -30 -34q-45 -11 -89 -32t-81.5 -54.5t-66 -80t-41.5 -107.5
q25 20 60 34t80 14t81.5 -15t63 -43t41 -68.5t14.5 -91.5zM406 207q0 32 -7.5 60t-22.5 49t-38.5 33t-55.5 12q-35 0 -67 -12t-52 -30q-1 -8 -1.5 -20t-0.5 -27q0 -44 7 -83t23 -68.5t40.5 -46.5t60.5 -17q27 0 48.5 12t36 32t22 47.5t7.5 58.5z" />
    <glyph glyph-name="five.osf" horiz-adv-x="529" 
d="M485 33q0 -51 -16.5 -94t-47.5 -74.5t-76 -49t-102 -17.5q-43 0 -78.5 11t-61 28t-39.5 37.5t-14 38.5q0 23 13 37t36 14q19 0 30.5 -9t19.5 -20q16 -25 41.5 -43t64.5 -18q29 0 51.5 11t38 29.5t23.5 43t8 51.5q0 71 -42 113t-120 42q-21 0 -39 -4t-32.5 -9t-25.5 -9
t-19 -4q-28 0 -28 29l27 335q1 16 17 16h318q17 0 17 -17v-62q0 -18 -17 -18h-260l-15 -201q17 9 46.5 17t61.5 8q47 0 87.5 -13.5t70 -40.5t46 -66.5t16.5 -91.5z" />
    <glyph glyph-name="four.osf" horiz-adv-x="557" 
d="M523 17q0 -17 -17 -17h-74v-169q0 -19 -18 -19h-70q-11 0 -14.5 4.5t-3.5 15.5v168h-262q-35 0 -35 31q0 15 12 32l300 439q11 16 28 16h45q18 0 18 -17v-436h74q17 0 17 -18v-30zM331 402q-8 -14 -19.5 -35t-31.5 -51l-163 -251h210v241q0 31 2 55.5t4 40.5h-2z" />
    <glyph glyph-name="three.osf" horiz-adv-x="521" 
d="M474 27q0 -51 -17.5 -93.5t-50 -72.5t-77.5 -46.5t-99 -16.5q-43 0 -78.5 11t-61 28t-39.5 37.5t-14 38.5q0 23 13.5 37t35.5 14q19 0 31 -9t20 -20q16 -25 41.5 -43t64.5 -18q55 0 87.5 36.5t32.5 92.5q0 34 -13.5 60.5t-36 46t-51 32t-57.5 19.5q-29 6 -29 27
q0 11 5.5 18t22.5 13q57 20 93.5 51.5t36.5 82.5q0 45 -29 70.5t-74 25.5q-27 0 -46.5 -8.5t-33.5 -22.5t-23 -31.5t-14 -34.5q-9 -29 -35 -29q-16 0 -25 10.5t-9 25.5q0 31 14 61.5t40.5 55.5t65 40.5t87.5 15.5t85.5 -13t60.5 -35t36 -50.5t12 -59.5q0 -30 -10 -54.5
t-26.5 -44.5t-36.5 -34.5t-40 -24.5v-2q27 -11 52.5 -28t45 -40t31.5 -53t12 -66z" />
    <glyph glyph-name="two.osf" horiz-adv-x="501" 
d="M457 17q0 -17 -17 -17h-377q-8 0 -14.5 6t-6.5 16q0 7 3 13t8 11l222 216q49 48 49 93q0 42 -26 68t-74 26q-25 0 -44 -9t-32.5 -23.5t-22 -32t-12.5 -33.5q-3 -12 -12.5 -20t-21.5 -8q-14 0 -23 10t-9 28q0 28 12.5 58t38 55t63 41.5t87.5 16.5t85 -14t57 -36t32 -49
t10 -53q0 -40 -17.5 -72t-53.5 -64l-162 -145v-2h241q17 0 17 -18v-62z" />
    <glyph glyph-name="one.osf" horiz-adv-x="414" 
d="M310 17q0 -17 -17 -17h-77q-17 0 -17 17v365q-17 -11 -38 -19.5t-41.5 -15t-38 -10t-27.5 -3.5q-14 0 -24.5 8t-10.5 22q0 11 8.5 19.5t20.5 11.5q54 14 105.5 42.5t93.5 73.5q15 17 34 17q29 0 29 -32v-479z" />
    <glyph glyph-name="zero.osf" horiz-adv-x="565" 
d="M513 259q0 -63 -18 -113.5t-49 -86t-73 -54.5t-90 -19t-90 19t-73.5 54.5t-49.5 86t-18 113.5t18 113.5t49.5 86t73.5 54.5t90 19t90 -19t73 -54.5t49 -86t18 -113.5zM401 264q0 94 -31 148t-87 54t-87 -54t-31 -148t31 -148t87 -54t87 54t31 148z" />
    <glyph glyph-name="nine.osf" horiz-adv-x="564" 
d="M512 247q0 -82 -21.5 -147t-56 -115t-78 -85.5t-86.5 -58t-81.5 -33t-64.5 -10.5q-20 0 -30 8.5t-10 22.5q0 26 30 34q45 10 89 31.5t81.5 54.5t65.5 79.5t41 107.5q-25 -20 -60 -34t-80 -14t-81.5 15t-63 43t-41 68.5t-14.5 91.5q0 50 17.5 91.5t48 71.5t72 46.5
t90.5 16.5q58 0 102 -20.5t73 -58t43.5 -90t14.5 -116.5zM404 249q0 43 -7 82.5t-22.5 68.5t-40.5 46.5t-61 17.5q-27 0 -48.5 -12t-36 -32t-22 -47.5t-7.5 -58.5q0 -32 7.5 -60t22.5 -49t38.5 -33t55.5 -12q35 0 67 12.5t52 30.5q1 11 1.5 21.5t0.5 24.5z" />
    <glyph glyph-name="gravecomb.case" horiz-adv-x="1" 
d="M-318 782q0 -13 -13 -13h-29q-8 0 -13.5 4t-11.5 9l-104 100q-8 8 -8 15q0 9 12 15t31 6q24 0 43.5 -7.5t27.5 -20.5l59 -94q6 -9 6 -14z" />
    <glyph glyph-name="acutecomb.case" horiz-adv-x="1" 
d="M-226 897q0 -7 -8 -15l-104 -100q-6 -5 -11.5 -9t-13.5 -4h-29q-13 0 -13 12q0 6 6 15l59 94q8 13 27.5 20.5t43.5 7.5q19 0 31 -6t12 -15z" />
    <glyph glyph-name="uni0302.case" horiz-adv-x="1" 
d="M-222 784q0 -21 -22 -21q-6 0 -12 3t-11 6l-69 46q-7 5 -12.5 7.5t-11.5 2.5t-11.5 -2.5t-12.5 -7.5l-69 -46q-5 -3 -11 -6t-12 -3q-22 0 -22 21q0 7 4.5 12t10.5 10q29 20 52 43t46 54q4 5 10 9.5t15 4.5t15 -4.5t10 -9.5q23 -31 46 -54t52 -43q6 -5 10.5 -10t4.5 -12z
" />
    <glyph glyph-name="tildecomb.case" horiz-adv-x="1" 
d="M-224 872q0 -15 -4.5 -31.5t-14.5 -30.5t-26 -23.5t-39 -9.5q-21 0 -35 8t-25 18t-22 18t-27 8t-23.5 -8.5t-13 -18.5t-10.5 -18.5t-15 -8.5q-21 0 -21 23q0 15 4 31.5t14 30.5t26 23.5t39 9.5q21 0 35 -8.5t25.5 -18t22.5 -18t27 -8.5t23.5 8.5t13 19t10.5 19t15 8.5
q21 0 21 -23z" />
    <glyph glyph-name="uni030A.case" horiz-adv-x="1" 
d="M-39 848q0 -37 -26.5 -63t-63.5 -26t-63.5 26t-26.5 63t26.5 63.5t63.5 26.5t63.5 -26.5t26.5 -63.5zM-84 849q0 19 -13 32t-32 13t-32 -13t-13 -32t13 -32t32 -13t32 13t13 32z" />
    <glyph glyph-name="uni030C.case" horiz-adv-x="1" 
d="M-125 898q0 -12 -15 -22q-29 -20 -52 -43t-46 -54q-4 -5 -10 -9.5t-15 -4.5t-15 4.5t-10 9.5q-23 31 -46 54t-52 43q-15 10 -15 22q0 9 5.5 15t16.5 6q6 0 12 -3t11 -6l69 -45q15 -10 24 -10t24 10l69 45q5 3 11 6t12 3q11 0 16.5 -6t5.5 -15z" />
    <glyph glyph-name="diedot.case.comp" horiz-adv-x="1" 
d="M-396 826q0 -22 -15.5 -37t-38.5 -15t-38.5 15t-15.5 37t15.5 37.5t38.5 15.5t38.5 -15.5t15.5 -37.5z" />
    <glyph glyph-name="diedot.comp" horiz-adv-x="1" 
d="M-316 638q0 -22 -15.5 -37t-38.5 -15t-38.5 15t-15.5 37t15.5 37.5t38.5 15.5t38.5 -15.5t15.5 -37.5z" />
    </font>
</defs>
</svg>
