<?xml version="1.0" standalone="no"?>
<!DOCTYPE svg PUBLIC "-//W3C//DTD SVG 1.1//EN" "http://www.w3.org/Graphics/SVG/1.1/DTD/svg11.dtd" >
<svg xmlns="http://www.w3.org/2000/svg" xmlns:xlink="http://www.w3.org/1999/xlink" version="1.1">
<metadata>
Created by FontForge 20170731 at Tue Apr 24 20:00:09 2012
 By ,,,
2010 Hans Reichel published by FSI FontShop International GmbH
</metadata>
<defs>
<font id="Wnqdcomtesaymlyzuofgtlxohfo" horiz-adv-x="1" >
  <font-face 
    font-family="Wnqdcomtesaymlyzuofgtlxohfo"
    font-weight="700"
    font-style="italic"
    font-stretch="normal"
    units-per-em="1000"
    panose-1="2 11 8 4 4 1 1 2 1 2"
    ascent="753"
    descent="-247"
    x-height="518"
    cap-height="706"
    bbox="-726 -294 1277 998"
    underline-thickness="70"
    underline-position="-280"
    slope="-12"
    unicode-range="U+0020-FB02"
  />
<missing-glyph horiz-adv-x="620" 
d="M67 0v706h486v-706h-486zM463 626h-306v-546h306v546z" />
    <glyph glyph-name="fi" unicode="fi" horiz-adv-x="636" 
d="M453 723q0 -23 -14.5 -41t-43.5 -18q-14 0 -22.5 3.5t-22.5 3.5q-15 0 -26.5 -8.5t-19.5 -22.5t-12.5 -32.5t-4.5 -38.5q0 -30 8 -51h79q19 0 19 -19q0 -3 -1 -8l-7 -35q-2 -7 -8 -12.5t-15 -5.5h-77l-89 -420q-2 -7 -8 -12.5t-15 -5.5h-103q-19 0 -19 19q0 3 1 8l87 411
h-49q-18 0 -18 19q0 5 1 9l8 34q2 7 8 12.5t15 5.5h52q17 79 43.5 128.5t58 78t64.5 39t63 10.5q35 0 51.5 -16t16.5 -35zM667 660q0 -29 -24 -50t-66 -21q-32 0 -51.5 16.5t-19.5 38.5q0 29 25 49.5t66 20.5q32 0 51 -16t19 -38zM626 499q0 -4 -1 -9l-100 -472
q-2 -8 -8 -13t-15 -5h-104q-19 0 -19 19q0 4 1 9l101 472q2 8 8 13t15 5h103q19 0 19 -19z" />
    <glyph glyph-name="fl" unicode="fl" horiz-adv-x="651" 
d="M453 723q0 -23 -14.5 -41t-43.5 -18q-14 0 -22.5 3.5t-22.5 3.5q-15 0 -26.5 -8.5t-19.5 -22.5t-12.5 -32.5t-4.5 -38.5q0 -30 8 -51h79q19 0 19 -19q0 -3 -1 -8l-7 -35q-2 -7 -8 -12.5t-15 -5.5h-77l-89 -420q-2 -7 -8 -12.5t-15 -5.5h-103q-19 0 -19 19q0 3 1 8l87 411
h-49q-18 0 -18 19q0 5 1 9l8 34q2 7 8 12.5t15 5.5h52q17 79 43.5 128.5t58 78t64.5 39t63 10.5q35 0 51.5 -16t16.5 -35zM696 746q0 -3 -0.5 -6t-1.5 -7l-153 -715q-2 -8 -8 -13t-15 -5h-104q-19 0 -19 19q0 5 1 8l153 720q2 8 8 13t15 5h105q19 0 19 -19z" />
    <glyph glyph-name=".notdef" horiz-adv-x="620" 
d="M67 0v706h486v-706h-486zM463 626h-306v-546h306v546z" />
    <glyph glyph-name=".null" horiz-adv-x="0" 
 />
    <glyph glyph-name="nonmarkingreturn" horiz-adv-x="280" 
 />
    <glyph glyph-name="space" unicode=" " horiz-adv-x="280" 
 />
    <glyph glyph-name="exclam" unicode="!" horiz-adv-x="344" 
d="M356 690q0 -5 -3 -14l-121 -414q-2 -7 -8.5 -12t-14.5 -5h-66q-8 0 -13 5t-5 12q0 5 1 10l54 414q3 20 24 20h134q8 0 13 -5t5 -11zM229 92q0 -21 -8.5 -39.5t-22.5 -32t-32.5 -21.5t-39.5 -8q-32 0 -54 22t-22 52q0 21 8 39.5t22.5 32.5t33 22t39.5 8q32 0 54 -22.5
t22 -52.5z" />
    <glyph glyph-name="quotedbl" unicode="&#x22;" horiz-adv-x="478" 
d="M298 707q0 -3 -1 -7.5t-2 -7.5l-79 -241q-5 -14 -18 -14h-52q-6 0 -10.5 4t-4.5 10q0 4 1.5 23t4.5 44.5t6 55t5.5 55.5t4.5 44t3 22q3 25 28 39.5t53 14.5q23 0 42 -10.5t19 -31.5zM524 707q0 -3 -1 -7.5t-2 -7.5l-79 -241q-5 -14 -18 -14h-52q-6 0 -10.5 4t-4.5 10
q0 4 1.5 23t4.5 44.5t6 55t5.5 55.5t4.5 44t3 22q3 25 28 39.5t53 14.5q23 0 42 -10.5t19 -31.5z" />
    <glyph glyph-name="numbersign" unicode="#" horiz-adv-x="667" 
d="M677 499q0 -6 -3 -19.5t-8 -33.5q-3 -17 -22 -17h-94l-50 -140h81q17 0 17 -17q0 -2 -1.5 -8.5t-3 -14.5t-4 -16t-3.5 -14q-4 -17 -22 -17h-94l-66 -184q-7 -18 -23 -18h-58q-17 0 -17 17q0 4 3 12l61 173h-128l-65 -184q-7 -18 -23 -18h-59q-17 0 -17 17q0 3 1 6.5
t2 5.5l61 173h-81q-17 0 -17 17q0 2 1.5 8.5t3.5 14.5l4 17q2 9 3 14q5 16 22 16h94l50 140h-81q-17 0 -17 17q0 2 1.5 8.5t3.5 14.5l4 17q2 9 3 14q5 16 22 16h94l61 172q7 18 23 18h59q17 0 17 -16q0 -3 -3 -12l-57 -162h128l61 172q7 18 23 18h59q17 0 17 -16
q0 -5 -3 -12l-57 -162h80q17 0 17 -17zM322 429l-50 -140h128l49 140h-127z" />
    <glyph glyph-name="dollar" unicode="$" horiz-adv-x="576" 
d="M585 585q0 -29 -15.5 -47.5t-46.5 -18.5q-45 0 -56 47q-7 29 -21.5 47t-47.5 26l-47 -225q31 -12 62.5 -25.5t57 -33t42 -47.5t16.5 -68q0 -55 -19 -100.5t-54.5 -78.5t-85 -52.5t-110.5 -22.5l-17 -81q-4 -22 -29 -22q-19 0 -19 16q0 3 2 13l16 75q-44 4 -79 19
t-59 36.5t-37 47.5t-13 52q0 34 18 55t50 21q26 0 40 -13t19 -37q7 -32 23.5 -57.5t56.5 -33.5l49 235q-30 12 -60.5 25t-55.5 32t-40.5 45.5t-15.5 64.5q0 47 17 90t49.5 76t81 53t111.5 22l16 75q4 22 28 22q10 0 15 -5t5 -10q0 -4 -1 -9l-15 -74q47 -4 79 -19t52 -34.5
t29 -41t9 -39.5zM352 643q-28 -3 -50.5 -14t-38 -28.5t-24 -38.5t-8.5 -43q0 -32 22 -52t54 -35zM402 200q0 35 -22.5 56t-54.5 37l-47 -221q57 6 90.5 42.5t33.5 85.5z" />
    <glyph glyph-name="percent" unicode="%" horiz-adv-x="943" 
d="M895 303q0 -59 -15.5 -115.5t-44 -101t-68 -71.5t-86.5 -27q-25 0 -47.5 9.5t-40 28t-27.5 47.5t-10 68q0 59 16 115.5t44.5 100.5t68 71t86.5 27q25 0 47.5 -9.5t39.5 -28t27 -47t10 -67.5zM784 692q0 -4 -2.5 -8.5t-5.5 -9.5l-487 -658q-6 -8 -13 -12t-18 -4h-34
q-15 0 -15 14q0 7 8 18l487 658q7 9 13.5 12.5t17.5 3.5h34q15 0 15 -14zM439 566q0 -59 -15.5 -115.5t-44 -101t-68 -71.5t-86.5 -27q-25 0 -47.5 9.5t-40 28t-27.5 47.5t-10 68q0 59 16 115.5t44.5 100.5t68 71t86.5 27q25 0 47.5 -9.5t39.5 -28t27 -47t10 -67.5zM801 321
q0 38 -10 54t-29 16q-14 0 -28 -10t-28 -34q-11 -20 -21 -48t-17.5 -58.5t-11.5 -61t-4 -54.5q0 -35 10 -50.5t28 -15.5q16 0 32.5 13t31.5 45q9 18 17 44.5t15 55t11 56t4 48.5zM345 584q0 38 -10 54t-29 16q-14 0 -28 -10t-28 -34q-11 -20 -21 -48t-17.5 -58.5t-11.5 -61
t-4 -54.5q0 -35 10 -50.5t28 -15.5q16 0 32.5 13t31.5 45q9 18 17 44.5t15 55t11 56t4 48.5z" />
    <glyph glyph-name="ampersand" unicode="&#x26;" horiz-adv-x="762" 
d="M746 322q0 -30 -19 -48t-54 -18q-13 0 -24.5 2.5t-26.5 2.5q-29 0 -53.5 -16.5t-43.5 -36.5l117 -171q4 -6 4 -13q0 -11 -7 -17.5t-18 -6.5h-105q-9 0 -15 4.5t-10 10.5l-56 87q-20 -23 -43.5 -44t-52.5 -37.5t-63.5 -26t-77.5 -9.5q-34 0 -64.5 12.5t-53 34t-36 49.5
t-13.5 60q0 49 18 86.5t48 67.5t69 53t81 43q-19 29 -33 60.5t-14 69.5q0 42 16 78.5t46 63.5t74 42.5t100 15.5q42 0 76 -10t58 -27t37 -41t13 -51q0 -40 -17.5 -71.5t-47 -57t-67 -47t-77.5 -40.5l71 -104q44 42 91.5 73t102.5 31q33 0 51.5 -16.5t18.5 -37.5zM501 583
q0 27 -19 44.5t-56 17.5q-20 0 -38.5 -7.5t-33 -21t-23.5 -32t-9 -40.5q0 -28 13 -52t29 -47q29 14 54 28.5t43.5 31t29 36t10.5 42.5zM294 318q-53 -29 -89 -64t-36 -83q0 -29 21 -50.5t58 -21.5q35 0 69 22t69 55z" />
    <glyph glyph-name="quotesingle" unicode="'" horiz-adv-x="252" 
d="M298 707q0 -3 -1 -7.5t-2 -7.5l-79 -241q-5 -14 -18 -14h-52q-6 0 -10.5 4t-4.5 10q0 4 2 23t4.5 46t5.5 57.5t6 56.5t5 43t2 18q1 13 9.5 23.5t20.5 17t25.5 10t25.5 3.5q9 0 20 -2t20 -7t15 -13t6 -20z" />
    <glyph glyph-name="parenleft" unicode="(" horiz-adv-x="360" 
d="M461 793q0 -18 -18 -39q-61 -67 -107.5 -146.5t-78.5 -165t-48.5 -174.5t-16.5 -174q0 -81 10.5 -151.5t30.5 -124.5q10 -24 10 -41t-9.5 -27.5t-26.5 -10.5q-26 0 -45 29q-49 75 -81 170t-32 213q0 97 23.5 189t65.5 174.5t101.5 154.5t131.5 129q19 14 32 19.5t26 5.5
q14 0 23 -8.5t9 -21.5z" />
    <glyph glyph-name="parenright" unicode=")" horiz-adv-x="360" 
d="M332 411q0 -97 -23.5 -189t-65.5 -174.5t-101.5 -154t-131.5 -128.5q-19 -14 -32 -20t-26 -6q-14 0 -22.5 8.5t-8.5 22.5q0 17 18 38q61 67 107.5 146.5t78 165.5t48 174.5t16.5 174.5q0 81 -10.5 151t-30.5 124q-10 24 -10 42q0 17 9.5 27t26.5 10q26 0 45 -29
q49 -75 81 -170t32 -213z" />
    <glyph glyph-name="asterisk" unicode="*" horiz-adv-x="574" 
d="M615 662q0 -15 -8 -29t-24 -18l-164 -39l76 -119q5 -7 5 -15q0 -11 -6.5 -20.5t-16.5 -17.5t-21.5 -12.5t-21.5 -4.5q-8 0 -14.5 3t-9.5 11l-56 135l-113 -135q-12 -14 -29 -14q-8 0 -17 3.5t-16.5 9.5t-12.5 14t-5 17q0 14 12 26l129 122l-147 39q-17 5 -17 24
q0 9 4 20.5t11.5 21.5t16.5 16.5t20 6.5q7 0 15 -3l135 -58l21 159q2 20 20.5 28.5t35.5 8.5t29 -6.5t12 -20.5q0 -5 -1 -9t-3 -9l-43 -151l159 60q2 1 7 1.5t8 0.5q15 0 22.5 -14.5t7.5 -31.5z" />
    <glyph glyph-name="plus" unicode="+" horiz-adv-x="556" 
d="M537 330q0 -4 -2 -12l-12 -51q-2 -8 -8 -13t-14 -5h-166l-37 -172q-2 -8 -8.5 -13t-14.5 -5h-61q-19 0 -19 19q0 4 2 12l34 159h-161q-19 0 -19 19q0 2 1.5 8.5t3.5 15.5t4 19t4 19q2 8 8.5 13t14.5 5h165l36 170q2 8 8.5 13t14.5 5h61q19 0 19 -19q0 -3 -2 -11l-34 -158
h163q19 0 19 -18z" />
    <glyph glyph-name="comma" unicode="," horiz-adv-x="280" 
d="M194 87q0 -45 -20 -89t-49.5 -79t-64 -56.5t-62.5 -21.5q-12 0 -19 6t-7 14q0 10 5.5 17.5t13.5 14.5q11 9 23 21t21.5 26.5t16 29.5t6.5 30q0 13 -5 22.5t-10.5 19t-10.5 20t-5 25.5q0 34 26.5 57t63.5 23q34 0 55.5 -23t21.5 -57z" />
    <glyph glyph-name="hyphen" unicode="-" horiz-adv-x="318" 
d="M294 330q0 -3 -1.5 -11.5t-4 -18.5t-4.5 -20t-3 -16q-2 -8 -8.5 -13t-14.5 -5h-186q-19 0 -19 19q0 2 2 11.5t4.5 20.5t4.5 20.5t3 12.5q4 18 23 18h185q19 0 19 -18z" />
    <glyph glyph-name="period" unicode="." horiz-adv-x="280" 
d="M198 92q0 -21 -8.5 -39.5t-23 -32t-33 -21.5t-39.5 -8q-32 0 -54 22t-22 52q0 21 8 39.5t22.5 32.5t33 22t39.5 8q32 0 54.5 -22.5t22.5 -52.5z" />
    <glyph glyph-name="slash" unicode="/" horiz-adv-x="520" 
d="M603 775q0 -5 -4 -13l-556 -931q-6 -11 -16 -11q-4 0 -9 3l-9 4l-65 36q-9 5 -9 14q0 3 1.5 6.5t3.5 6.5l555 931q7 11 17 11q4 0 9 -2t9 -4l63 -36q4 -2 7 -6t3 -9z" />
    <glyph glyph-name="zero" unicode="0" horiz-adv-x="556" 
d="M558 483q0 -47 -8 -102.5t-25 -111t-43.5 -107t-63 -91t-84 -63t-105.5 -23.5q-81 0 -130 61.5t-49 176.5q0 47 8 102.5t25 111t43.5 107t63 91t83.5 63t106 23.5q81 0 130 -61.5t49 -176.5zM423 509q0 112 -62 112q-49 0 -91 -75q-17 -30 -32 -74.5t-26.5 -92.5
t-18.5 -95t-7 -82q0 -55 16.5 -82t46.5 -27q49 0 91 76q16 30 31.5 74t26.5 91.5t18 93.5t7 81z" />
    <glyph glyph-name="one" unicode="1" horiz-adv-x="556" 
d="M509 688q0 -5 -2 -15l-140 -655q-2 -8 -8 -13t-15 -5h-104q-19 0 -19 19q0 3 1 8l108 508q-18 -9 -40 -17t-43.5 -14t-41 -9.5t-31.5 -3.5q-18 0 -28 10.5t-10 27.5q0 36 41 47q32 8 65.5 20.5t66.5 28t63 34t55 39.5q23 19 48 19q34 0 34 -29z" />
    <glyph glyph-name="two" unicode="2" horiz-adv-x="556" 
d="M551 561q0 -35 -12 -67t-31.5 -61.5t-44 -56.5t-49.5 -51l-210 -200v-2h247q17 0 17 -16q0 -4 -1 -8l-17 -79q-5 -20 -23 -20h-405q-26 0 -26 26q0 12 12 25l316 338q15 16 29 33t25 36t17.5 39.5t6.5 42.5q0 34 -19.5 54t-58.5 20q-23 0 -42 -9t-34 -23t-27.5 -32.5
t-21.5 -37.5q-8 -17 -20 -23.5t-29 -6.5q-18 0 -28.5 11t-10.5 29q0 24 16 58.5t48 65.5t81 53t114 22q48 0 82 -13t56 -35t32.5 -51t10.5 -61z" />
    <glyph glyph-name="three" unicode="3" horiz-adv-x="556" 
d="M542 584q0 -32 -12 -60.5t-32 -53t-46 -43.5t-54 -32v-2q42 -20 70 -57t28 -90q0 -39 -16 -84.5t-51.5 -84.5t-92 -65.5t-137.5 -26.5q-35 0 -67.5 9t-58 25t-40.5 37.5t-15 46.5q0 28 18 46.5t48 18.5q22 0 35.5 -9t24.5 -27q11 -20 31 -34.5t51 -14.5q28 0 50.5 12
t38.5 31t24.5 42.5t8.5 47.5q0 25 -9 44t-24.5 33t-36 24t-42.5 17q-28 8 -28 31q0 27 34 40q28 10 55.5 23.5t49 31.5t34.5 41t13 52q0 30 -19 47t-54 17q-42 0 -70.5 -24.5t-47.5 -56.5q-18 -31 -50 -31q-17 0 -26 11t-9 28q0 23 15.5 53.5t46.5 58t77.5 46.5t108.5 19
q46 0 79.5 -11.5t55 -30.5t31.5 -44t10 -51z" />
    <glyph glyph-name="four" unicode="4" horiz-adv-x="556" 
d="M544 688q0 -4 -1 -9l-91 -427h61q19 0 19 -19q0 -5 -4 -22.5t-7 -29.5q-2 -8 -8.5 -13t-14.5 -5h-65l-31 -145q-2 -8 -8.5 -13t-14.5 -5h-94q-18 0 -18 19q0 4 1 9l29 135h-241q-20 0 -32 10.5t-12 30.5q0 14 8 26t17 23l380 434q18 19 38 19h70q19 0 19 -18zM388 558
l-28 -40q-14 -20 -30 -39l-191 -227h179l46 212q6 27 12 49t14 45h-2z" />
    <glyph glyph-name="five" unicode="5" horiz-adv-x="556" 
d="M558 687q0 -3 -1 -8l-16 -77q-2 -8 -8 -13t-15 -5h-248l-49 -167q17 7 40.5 12.5t48.5 5.5q43 0 78 -12.5t59.5 -35t37.5 -53.5t13 -67q0 -50 -17.5 -100t-53.5 -90.5t-92.5 -66t-134.5 -25.5q-35 0 -67 9t-56.5 25t-39.5 37.5t-15 46.5q0 28 18 46.5t47 18.5q23 0 36 -9
t24 -27q11 -20 30.5 -34.5t51.5 -14.5q30 0 53 13t38.5 34t24 46.5t8.5 51.5q0 47 -30 76t-93 29q-37 0 -64 -10t-44 -10q-29 0 -29 24q0 6 3 17l98 334q6 18 25 18h320q19 0 19 -19z" />
    <glyph glyph-name="six" unicode="6" horiz-adv-x="556" 
d="M587 683q0 -35 -48 -45q-42 -9 -86 -27.5t-85.5 -48t-77 -70.5t-60.5 -95q26 16 58.5 27t70.5 11t68 -12.5t51 -34.5t32 -53t11 -68q0 -60 -19.5 -111.5t-56 -89.5t-88.5 -59.5t-116 -21.5q-48 0 -85 15t-62.5 42.5t-38.5 66t-13 84.5q0 107 42.5 201.5t118.5 167.5
q43 42 90.5 71.5t92.5 48.5t84.5 28t67.5 9q49 0 49 -36zM385 258q0 40 -20 66t-64 26q-28 0 -55.5 -9t-47.5 -23q-10 -37 -15.5 -70.5t-5.5 -62.5q0 -49 18.5 -78.5t61.5 -29.5q31 0 55 18t40 45.5t24.5 59t8.5 58.5z" />
    <glyph glyph-name="seven" unicode="7" horiz-adv-x="556" 
d="M610 682q0 -10 -5.5 -20.5t-12.5 -19.5q-53 -72 -106.5 -149.5t-103.5 -157t-95 -158t-81 -151.5q-6 -13 -13 -19.5t-21 -6.5h-121q-25 0 -25 25q0 4 2 11t9 15l386 533h-276q-19 0 -19 19v4q0 3 2 9l15 72q2 8 8 13t15 5h416q13 0 19.5 -6.5t6.5 -17.5z" />
    <glyph glyph-name="eight" unicode="8" horiz-adv-x="556" 
d="M567 588q0 -37 -13.5 -67t-36.5 -55.5t-53 -46.5t-63 -40q22 -15 42 -31.5t35.5 -36t25 -42.5t9.5 -51q0 -43 -17.5 -85t-53 -75t-89 -53.5t-124.5 -20.5q-49 0 -87.5 12.5t-65 34t-40.5 50.5t-14 61q0 42 15.5 75t42 60t60.5 49t70 42q-35 27 -59 60.5t-24 80.5
q0 41 16 79.5t48.5 68t80.5 47.5t111 18q48 0 83 -11.5t57.5 -30.5t33 -43t10.5 -49zM449 575q0 33 -22.5 51t-61.5 18q-23 0 -43 -8.5t-36 -23.5t-25 -35.5t-9 -44.5q0 -32 21.5 -55.5t52.5 -45.5q25 15 47.5 30t39.5 32t26.5 37.5t9.5 44.5zM374 195q0 39 -27 66t-63 52
q-27 -15 -51 -31.5t-42.5 -35.5t-29 -40.5t-10.5 -48.5q0 -39 25 -61.5t69 -22.5q25 0 48.5 9t41.5 25.5t28.5 38.5t10.5 49z" />
    <glyph glyph-name="nine" unicode="9" horiz-adv-x="556" 
d="M566 513q0 -107 -42.5 -201.5t-118.5 -167.5q-44 -42 -91 -71.5t-92 -48.5t-84.5 -28t-67.5 -9q-49 0 -49 36q0 34 48 45q42 9 86 27.5t85.5 48t77 70.5t60.5 95q-26 -16 -58.5 -27t-70.5 -11t-68 12.5t-51 34.5t-32 53t-11 68q0 60 19.5 111.5t56 89.5t88 59.5
t116.5 21.5q48 0 85 -15t62.5 -42.5t38.5 -66t13 -84.5zM432 524q0 49 -19 79t-62 30q-31 0 -55 -18.5t-40 -45.5t-24.5 -59t-8.5 -59q0 -41 20.5 -66t64.5 -25q28 0 55 9t47 23q10 37 16 70t6 62z" />
    <glyph glyph-name="colon" unicode=":" horiz-adv-x="280" 
d="M258 377q0 -21 -8.5 -39.5t-22.5 -32t-32.5 -21.5t-39.5 -8q-32 0 -54.5 22t-22.5 52q0 21 8 39.5t22.5 32.5t33 22t39.5 8q32 0 54.5 -22.5t22.5 -52.5zM198 92q0 -21 -8.5 -39.5t-23 -32t-33 -21.5t-39.5 -8q-32 0 -54 22t-22 52q0 21 8 39.5t22.5 32.5t33 22t39.5 8
q32 0 54.5 -22.5t22.5 -52.5z" />
    <glyph glyph-name="semicolon" unicode=";" horiz-adv-x="280" 
d="M194 87q0 -45 -20 -89t-49.5 -79t-64 -56.5t-62.5 -21.5q-12 0 -19 6t-7 14q0 10 5.5 17.5t13.5 14.5q11 9 23 21t21.5 26.5t16 29.5t6.5 30q0 13 -5 22.5t-10.5 19t-10.5 20t-5 25.5q0 34 26.5 57t63.5 23q34 0 55.5 -23t21.5 -57zM260 377q0 -21 -8.5 -39.5t-22.5 -32
t-32.5 -21.5t-39.5 -8q-32 0 -54.5 22t-22.5 52q0 21 8.5 39.5t22.5 32.5t33 22t40 8q32 0 54 -22.5t22 -52.5z" />
    <glyph glyph-name="less" unicode="&#x3c;" horiz-adv-x="556" 
d="M585 562q0 -3 -1 -6l-1 -7l-13 -58q-3 -14 -9.5 -21.5t-20.5 -13.5l-367 -161l302 -163q13 -7 13 -20q0 -3 -0.5 -6t-1.5 -8l-13 -63q-1 -4 -5.5 -9.5t-15.5 -5.5t-21 7l-366 218q-14 9 -14 22q0 2 0.5 6.5t1.5 7.5l8 38q3 14 9.5 21t20.5 14l455 216q16 7 22 7
q17 0 17 -15z" />
    <glyph glyph-name="equal" unicode="=" horiz-adv-x="556" 
d="M559 440q0 -3 -1.5 -10t-3.5 -16.5t-4.5 -19t-3.5 -16.5q-2 -8 -8.5 -13t-14.5 -5h-431q-19 0 -19 19q0 3 0.5 5.5t1.5 5.5l12 51q2 8 8 13t14 5h431q19 0 19 -19zM512 219q0 -3 -1.5 -10.5t-3.5 -17t-4.5 -19t-3.5 -15.5q-2 -8 -8.5 -13t-14.5 -5h-431q-19 0 -19 19
q0 3 0.5 5.5t1.5 5.5l12 51q2 8 8 13t14 5h431q19 0 19 -19z" />
    <glyph glyph-name="greater" unicode="&#x3e;" horiz-adv-x="556" 
d="M534 330q0 -5 -1 -10l-8 -42q-3 -14 -10 -20.5t-21 -13.5l-454 -217q-14 -7 -20 -7q-19 0 -19 16q0 4 2 14l13 56q3 14 9.5 21.5t20.5 13.5l367 161l-301 163q-6 3 -10.5 8t-4.5 13v5q0 3 2 9l12 56q2 9 7.5 15t15.5 6q9 0 21 -7l367 -218q12 -8 12 -22z" />
    <glyph glyph-name="question" unicode="?" horiz-adv-x="538" 
d="M564 588q0 -33 -13 -60t-33.5 -48.5t-46.5 -38.5t-53 -32q-18 -10 -29 -18.5t-18 -17.5t-12 -20.5t-9 -26.5l-18 -62q-6 -19 -24 -19h-66q-18 0 -18 17v5q0 3 1 8l13 97q3 23 12.5 37.5t35.5 28.5q21 12 42.5 27t39.5 33t29.5 38.5t11.5 43.5q0 26 -16 40.5t-45 14.5
q-36 0 -59 -22t-40 -50q-14 -23 -30.5 -35.5t-39.5 -12.5q-26 0 -41 14t-15 37q0 24 17.5 51.5t50.5 51t79.5 38.5t105.5 15q48 0 83.5 -12t59 -31t34.5 -43t11 -48zM336 92q0 -21 -8.5 -39.5t-22.5 -32t-32.5 -21.5t-39.5 -8q-32 0 -54.5 22t-22.5 52q0 21 8 39.5
t22.5 32.5t33 22t39.5 8q32 0 54.5 -22.5t22.5 -52.5z" />
    <glyph glyph-name="at" unicode="@" horiz-adv-x="984" 
d="M970 443q0 -96 -37.5 -179.5t-102.5 -145t-153 -97t-190 -35.5q-52 0 -94.5 13.5t-72.5 38.5t-46.5 61.5t-16.5 82.5q0 67 26 131t72 113.5t107.5 80t132.5 30.5q57 0 94 -15t58 -33q10 -9 10 -20q0 -3 -1 -8t-3 -10l-143 -372q57 13 105.5 49.5t84 86t55.5 108t20 115.5
q0 49 -17 88t-48 65.5t-75.5 40.5t-98.5 14q-74 0 -139.5 -20.5t-121 -55.5t-100 -83t-75 -103t-47 -114.5t-16.5 -118.5q0 -65 22.5 -116.5t63.5 -87.5t99.5 -55t130.5 -19q63 0 118 11t101 28t82.5 37.5t63.5 40.5q2 2 7.5 4.5t11.5 2.5q7 0 14 -7t11 -12q3 -4 8 -12
t5 -14q0 -7 -3.5 -12t-7.5 -8q-29 -23 -71 -47.5t-96 -45t-119.5 -33.5t-140.5 -13q-90 0 -163 22.5t-125 65.5t-80.5 105t-28.5 141q0 81 22.5 157t63.5 142t98 120t125 92.5t145 60t159 21.5q71 0 129.5 -19t100 -55t64.5 -87.5t23 -115.5zM643 436q0 5 -5 9
q-8 7 -22.5 12t-37.5 5q-42 0 -81 -24.5t-68 -63.5t-46.5 -88t-17.5 -98q0 -57 32 -90t104 -34l139 360q3 7 3 12z" />
    <glyph glyph-name="A" unicode="A" horiz-adv-x="661" 
d="M603 21q0 -8 -6 -14.5t-17 -6.5h-116q-21 0 -22 19l-13 157h-232l-82 -158q-5 -10 -11 -14t-17 -4h-101q-10 0 -14.5 5t-4.5 12q0 8 8 21l367 648q6 11 12 15.5t18 4.5h115q20 0 23 -20l92 -651q1 -5 1 -9v-5zM402 476q-3 30 -3 60q0 23 0.5 32.5t1.5 20.5h-2l-6 -18
q-4 -12 -10 -28t-13.5 -33.5t-16.5 -33.5l-109 -210h177z" />
    <glyph glyph-name="B" unicode="B" horiz-adv-x="627" 
d="M619 567q0 -39 -13.5 -69.5t-36.5 -54t-54 -40.5t-65 -28v-2q26 -6 49.5 -18.5t41.5 -31.5t28.5 -44.5t10.5 -55.5q0 -37 -14.5 -78t-52.5 -75t-104.5 -56.5t-169.5 -22.5q-33 0 -65 1.5t-58.5 4t-46 5.5t-26.5 6q-17 6 -17 21q0 4 2 14l133 629q4 19 27 26q9 3 26.5 6
t41.5 5.5t52.5 4t59.5 1.5q68 0 115.5 -12t77.5 -32t44 -47t14 -57zM464 551q0 35 -24 56t-77 21q-38 0 -58 -5l-46 -216q6 -1 17.5 -1.5t26.5 -0.5q36 0 65.5 12t50.5 32t33 46.5t12 55.5zM422 239q0 94 -132 94q-17 0 -28.5 -0.5t-18.5 -1.5l-52 -242q9 -2 24.5 -3.5
t35.5 -1.5q47 0 79.5 14.5t53 37t29.5 50t9 53.5z" />
    <glyph glyph-name="C" unicode="C" horiz-adv-x="638" 
d="M675 576q0 -35 -19 -54t-52 -19q-28 0 -43.5 14t-23.5 37q-4 11 -9.5 23.5t-15.5 23.5t-26 18t-41 7q-48 0 -87 -33t-66 -83.5t-41.5 -110.5t-14.5 -114q0 -83 35.5 -133.5t101.5 -50.5q45 0 76 17t53 34q11 8 21.5 13.5t23.5 5.5q19 0 28.5 -9.5t9.5 -23.5
q0 -21 -18.5 -47.5t-51.5 -50.5t-80 -40t-104 -16q-65 0 -114.5 21.5t-83.5 58.5t-51.5 87t-17.5 108q0 94 29.5 178t82.5 147.5t126.5 100.5t161.5 37q54 0 93.5 -14.5t65.5 -36.5t39 -47.5t13 -47.5z" />
    <glyph glyph-name="D" unicode="D" horiz-adv-x="682" 
d="M670 449q0 -51 -9 -102t-27.5 -98t-46.5 -89t-66 -74q-57 -48 -131 -71.5t-177 -23.5q-29 0 -56.5 2t-51 4.5t-40.5 5.5t-24 5q-16 6 -16 22q0 5 2 13l133 629q4 19 27 26q7 2 24 5t39 5.5t48 4.5t53 2q81 0 141 -19.5t99.5 -54.5t59 -84t19.5 -108zM511 470
q0 30 -7.5 57.5t-25.5 48.5t-46.5 33.5t-70.5 12.5q-16 0 -31.5 -1t-23.5 -3l-110 -522q9 -2 22.5 -3t29.5 -1q100 0 160 65q24 26 43 64.5t32.5 82t20.5 87t7 79.5z" />
    <glyph glyph-name="E" unicode="E" horiz-adv-x="507" 
d="M564 687q0 -3 -2 -13l-11 -52q-2 -8 -8 -13t-15 -5h-224l-40 -190h184q19 0 19 -19q0 -2 -2 -12l-11 -51q-2 -7 -8 -12.5t-15 -5.5h-188l-45 -209h219q19 0 19 -19v-3q0 -1 -1 -6l-13 -59q-2 -8 -7.5 -13t-14.5 -5h-359q-19 0 -19 19q0 3 2 13l140 656q2 8 8 13t15 5h358
q19 0 19 -19z" />
    <glyph glyph-name="F" unicode="F" horiz-adv-x="487" 
d="M553 684q0 -1 -1 -6l-11 -56q-2 -8 -8 -13t-15 -5h-214l-40 -190h173q19 0 19 -19q0 -3 -1 -8l-11 -55q-2 -7 -8 -12.5t-15 -5.5h-178l-63 -296q-2 -7 -8 -12.5t-15 -5.5h-116q-19 0 -19 19q0 3 2 13l140 656q2 8 8 13t15 5h347q19 0 19 -19v-3z" />
    <glyph glyph-name="G" unicode="G" horiz-adv-x="690" 
d="M698 578q0 -33 -19 -53.5t-52 -20.5q-28 0 -44.5 14t-24.5 37q-5 13 -11.5 25.5t-17.5 23t-28.5 17t-42.5 6.5q-44 0 -82.5 -23.5t-69.5 -73.5q-18 -28 -32 -62.5t-23.5 -71t-15 -74t-5.5 -70.5q0 -75 33.5 -119t90.5 -44q48 0 76 17.5t34 45.5l29 140h-94q-19 0 -19 18
q0 3 2 11l11 50q2 7 8 12.5t15 5.5h223q19 0 19 -19q0 -3 -2 -13l-55 -257q-5 -22 -25 -42.5t-54 -36.5t-79.5 -26t-99.5 -10q-61 0 -112.5 19t-88.5 54.5t-57.5 86.5t-20.5 115q0 87 27 170t79.5 148t129 104.5t176.5 39.5q56 0 98 -14t69.5 -35.5t41 -47t13.5 -47.5z" />
    <glyph glyph-name="H" unicode="H" horiz-adv-x="684" 
d="M714 687q0 -4 -1 -9l-141 -660q-2 -8 -8 -13t-15 -5h-116q-19 0 -19 19q0 5 2 13l60 282h-233l-63 -296q-2 -8 -7.5 -13t-14.5 -5h-117q-18 0 -18 19q0 5 1 9l140 660q2 8 8 13t15 5h116q19 0 19 -19q0 -4 -1 -9l-56 -264h233l58 274q2 8 8 13t15 5h116q19 0 19 -19z" />
    <glyph glyph-name="I" unicode="I" horiz-adv-x="297" 
d="M325 687q0 -3 -2 -13l-140 -656q-2 -8 -8 -13t-15 -5h-116q-19 0 -19 19q0 3 2 13l140 656q2 8 8 13t15 5h116q19 0 19 -19z" />
    <glyph glyph-name="J" unicode="J" horiz-adv-x="297" 
d="M325 684q0 -1 -1 -6l-123 -575q-22 -104 -64 -170t-90 -104t-95.5 -52.5t-81.5 -14.5q-56 0 -56 34q0 29 38 42q31 11 59.5 30.5t52.5 49t43 70.5t31 95l129 605q2 8 8 13t15 5h116q19 0 19 -19v-3z" />
    <glyph glyph-name="K" unicode="K" horiz-adv-x="615" 
d="M692 689q0 -5 -3 -10t-7 -9l-288 -287l161 -345q2 -4 3.5 -8t1.5 -9q0 -10 -7 -15.5t-16 -5.5h-122q-20 0 -29 20l-118 270q-6 14 -10 29t-7 29h-2l-70 -330q-2 -8 -8.5 -13t-14.5 -5h-113q-19 0 -19 19q0 6 1 9l140 660q2 8 8.5 13t14.5 5h114q18 0 18 -19q0 -3 -1 -8
l-58 -272h2l272 283q8 8 15 12t18 4h104q8 0 14 -4t6 -13z" />
    <glyph glyph-name="L" unicode="L" horiz-adv-x="480" 
d="M418 86q0 -3 -2 -11.5t-4 -19t-4.5 -21t-3.5 -16.5q-2 -8 -8.5 -13t-14.5 -5h-340q-19 0 -19 19q0 5 2 13l140 656q2 8 8.5 13t14.5 5h116q19 0 19 -19q0 -5 -2 -13l-122 -569h201q19 0 19 -19z" />
    <glyph glyph-name="M" unicode="M" horiz-adv-x="875" 
d="M868 684q0 -2 -1 -7l-78 -659q-1 -6 -6 -12t-18 -6h-108q-7 0 -12 5t-5 12q0 6 2 16l54 366q5 33 12.5 66.5t15.5 65.5h-2q-16 -35 -32 -67.5t-35 -64.5l-221 -380q-5 -9 -11 -14t-17 -5h-41q-10 0 -15.5 4t-7.5 15l-59 380q-5 33 -7 66.5t-3 66.5h-2q-6 -34 -13 -67
t-16 -66l-105 -380q-3 -10 -8 -14.5t-16 -4.5h-98q-18 0 -18 17q0 3 0.5 5.5t1.5 5.5l202 659q6 19 25 19h123q11 0 15 -4.5t6 -14.5l56 -368q4 -26 6 -53t2 -53h2q11 27 23.5 54.5t26.5 51.5l212 369q10 18 29 18h121q8 0 14 -4.5t6 -12.5v-5z" />
    <glyph glyph-name="N" unicode="N" horiz-adv-x="714" 
d="M744 687q0 -5 -2 -13l-139 -655q-5 -19 -25 -19h-91q-11 0 -16 4.5t-10 14.5l-170 385q-13 29 -22 60.5t-16 63.5h-2q-3 -26 -8.5 -63t-12.5 -69l-80 -376q-5 -20 -24 -20h-85q-18 0 -18 19q0 4 1 8l140 660q1 6 6.5 12.5t17.5 6.5h115q11 0 16 -4.5t10 -14.5l154 -346
q11 -25 21.5 -59.5t17.5 -66.5h2q4 35 8.5 69t12.5 68l72 336q4 18 23 18h85q19 0 19 -19z" />
    <glyph glyph-name="O" unicode="O" horiz-adv-x="717" 
d="M707 457q0 -91 -27 -176t-77.5 -151t-122.5 -106t-163 -40q-55 0 -101.5 18.5t-80.5 53t-53 84.5t-19 114q0 91 27.5 175.5t78 149.5t122.5 104t162 39q56 0 103 -18.5t80.5 -52.5t52 -83.5t18.5 -110.5zM547 479q0 69 -28 106.5t-79 37.5q-39 0 -72 -21t-59 -61
q-18 -28 -33.5 -66t-26.5 -79t-17 -82t-6 -75q0 -71 28 -108.5t77 -37.5q33 0 63.5 16.5t55.5 47.5q22 27 39.5 67.5t30.5 85t20 89t7 80.5z" />
    <glyph glyph-name="P" unicode="P" horiz-adv-x="590" 
d="M622 539q0 -44 -13.5 -90t-51 -84t-103 -62.5t-168.5 -24.5q-31 0 -52 3l-56 -263q-2 -7 -8 -12.5t-15 -5.5h-114q-19 0 -19 19q0 3 2 13l136 640q4 19 27 26q9 3 26.5 6t41.5 5.5t52 4t57 1.5q57 0 104 -11t81.5 -33t53.5 -55t19 -77zM463 535q0 44 -26 67.5t-77 23.5
q-18 0 -30.5 -1t-23.5 -3l-53 -253q13 -3 34 -3q54 0 88 17.5t53.5 43.5t27 55t7.5 53z" />
    <glyph glyph-name="Q" unicode="Q" horiz-adv-x="717" 
d="M707 457q0 -79 -20.5 -154t-59.5 -137t-94.5 -107t-125.5 -63q2 -33 19 -60.5t42.5 -48.5t57 -35.5t63.5 -21.5q13 -3 20.5 -9.5t7.5 -19.5q0 -19 -13.5 -28.5t-34.5 -9.5q-36 0 -84.5 13.5t-95 41.5t-83 71t-47.5 102q-43 8 -79 29t-62 54.5t-40.5 78.5t-14.5 101
q0 91 27.5 175.5t78 149.5t122.5 104t162 39q56 0 103 -18.5t80.5 -52.5t52 -83.5t18.5 -110.5zM547 478q0 69 -28 107t-79 38q-38 0 -71 -21.5t-59 -60.5q-18 -27 -33.5 -65.5t-26.5 -79.5t-17.5 -82.5t-6.5 -74.5q0 -72 28 -111t77 -39q42 0 78 25.5t64 74.5
q16 28 29.5 64.5t23.5 75.5t15.5 78t5.5 71z" />
    <glyph glyph-name="R" unicode="R" horiz-adv-x="608" 
d="M620 547q0 -46 -16 -82t-43 -63.5t-63 -47t-76 -31.5v-2q20 -11 36.5 -37.5t24.5 -56.5l52 -190q3 -11 3 -16q0 -9 -6.5 -15t-17.5 -6h-117q-22 0 -25 19l-44 205q-3 12 -7.5 24.5t-12 23t-18 17t-24.5 6.5h-31l-59 -277q-2 -8 -7.5 -13t-14.5 -5h-112q-19 0 -19 18
q0 4 2 12l136 642q4 19 27 26q17 5 65 11t112 6q65 0 113 -13t79.5 -35.5t47 -53.5t15.5 -66zM461 538q0 44 -27 66t-78 22q-20 0 -31 -1t-20 -3l-55 -256q2 0 13.5 -0.5t28.5 -0.5q41 0 72.5 14t53 37.5t32.5 55t11 66.5z" />
    <glyph glyph-name="S" unicode="S" horiz-adv-x="578" 
d="M591 580q0 -35 -19 -53.5t-54 -18.5q-49 0 -64 48q-9 30 -27.5 50.5t-56.5 20.5q-25 0 -44 -9t-32 -24t-19.5 -33.5t-6.5 -37.5q0 -29 19.5 -49.5t49 -37.5t64 -34t64 -39.5t49 -54t19.5 -77.5t-16.5 -90t-52 -79t-90.5 -56.5t-132 -21.5q-51 0 -91 15.5t-68.5 39.5
t-43.5 53t-15 56q0 39 22 58.5t55 19.5q53 0 68 -54q4 -15 11 -30t18.5 -27t27 -19.5t36.5 -7.5q27 0 46.5 10t33 25.5t20 35t6.5 38.5q0 31 -19 53t-48 40t-62 35t-62 38.5t-48 51.5t-19 73q0 46 17.5 88t52 74.5t86 52t119.5 19.5q55 0 94 -14.5t64 -36.5t36.5 -46.5
t11.5 -44.5z" />
    <glyph glyph-name="T" unicode="T" horiz-adv-x="529" 
d="M600 687q0 -4 -2 -12l-12 -53q-2 -8 -8.5 -13t-14.5 -5h-140l-124 -586q-2 -8 -8.5 -13t-14.5 -5h-116q-19 0 -19 19q0 4 1 9l123 576h-136q-19 0 -19 18q0 1 1.5 9.5t4 19t4.5 21t4 16.5q2 8 8 13t14 5h435q19 0 19 -19z" />
    <glyph glyph-name="U" unicode="U" horiz-adv-x="656" 
d="M686 687q0 -3 -1 -8l-100 -469q-25 -116 -103.5 -171t-193.5 -55q-42 0 -83.5 10t-74.5 32t-53.5 55.5t-20.5 81.5q0 28 6 55l100 470q2 8 8.5 13t14.5 5h116q19 0 19 -19q0 -5 -2 -13l-97 -456q-2 -8 -3 -15.5t-1 -15.5q0 -42 26 -64t67 -22q54 0 89.5 33t46.5 84
l100 470q2 8 8.5 13t14.5 5h98q19 0 19 -19z" />
    <glyph glyph-name="V" unicode="V" horiz-adv-x="636" 
d="M717 688q0 -4 -2 -9t-4 -9l-369 -652q-5 -9 -11.5 -13.5t-17.5 -4.5h-87q-21 0 -24 22l-92 643q-1 5 -1.5 10t-0.5 10q0 11 7 16t17 5h120q22 0 24 -21l36 -391q1 -11 1.5 -22.5t0.5 -22.5q0 -14 -0.5 -27.5t-1.5 -27.5h2q6 20 17.5 48t24.5 52l209 393q5 11 11.5 15
t18.5 4h103q19 0 19 -18z" />
    <glyph glyph-name="W" unicode="W" horiz-adv-x="917" 
d="M993 688q0 -7 -4 -16l-323 -655q-4 -8 -10 -12.5t-18 -4.5h-84q-22 0 -24 22l-19 348q-1 9 -1 18v19q0 32 1 50t2 31h-2q-10 -29 -22.5 -61t-24.5 -57l-170 -352q-5 -9 -11 -13.5t-18 -4.5h-84q-22 0 -24 22l-42 643q-1 8 -1 11v9q0 21 22 21h113q22 0 22 -22l4 -382
q0 -35 -2 -63t-4 -46h2q3 9 8 22.5t11 28.5t12.5 30t12.5 28l185 386q5 9 10.5 13.5t16.5 4.5h68q12 0 17 -5.5t6 -16.5l18 -382q0 -5 0.5 -12.5t0.5 -16.5t-0.5 -21t-1 -23t-1 -20.5t-0.5 -15.5h2q8 25 18.5 54t21.5 55l170 385q5 10 10.5 14.5t16.5 4.5h101q10 0 14.5 -5
t4.5 -13z" />
    <glyph glyph-name="X" unicode="X" horiz-adv-x="612" 
d="M673 688q0 -5 -3 -10.5t-5 -7.5l-252 -298l137 -336q2 -4 3.5 -8t1.5 -9q0 -9 -6.5 -14t-14.5 -5h-127q-22 0 -29 19l-75 218h-2l-173 -222q-12 -15 -31 -15h-110q-20 0 -20 20q0 5 2.5 9.5t5.5 8.5l279 323l-124 309q-2 4 -3 7.5t-1 8.5q0 10 7 15t16 5h120q20 0 27 -19
l68 -194h2l154 197q12 16 31 16h102q20 0 20 -18z" />
    <glyph glyph-name="Y" unicode="Y" horiz-adv-x="582" 
d="M665 688q0 -8 -6 -16l-271 -354l-63 -300q-2 -8 -8.5 -13t-14.5 -5h-117q-18 0 -18 19q0 3 1 8l61 291l-119 356q-2 8 -2 12q0 20 22 20h120q20 0 26 -20l62 -241h2l176 246q11 15 28 15h101q20 0 20 -18z" />
    <glyph glyph-name="Z" unicode="Z" horiz-adv-x="533" 
d="M591 687q0 -5 -2.5 -11t-4.5 -8l-372 -563h232q19 0 19 -19q0 -4 -1 -9l-12 -59q-2 -8 -8 -13t-15 -5h-424q-19 0 -19 19q0 8 6 17l376 568h-213q-19 0 -19 18q0 5 2 13l11 53q2 8 8 13t15 5h402q19 0 19 -19z" />
    <glyph glyph-name="bracketleft" unicode="[" horiz-adv-x="311" 
d="M428 810q0 -3 -1 -8l-6 -26q-2 -7 -8 -12.5t-15 -5.5h-98l-199 -940h93q19 0 19 -19v-3q0 -1 -1 -6l-5 -24q-2 -7 -8 -12.5t-15 -5.5h-205q-18 0 -18 19q0 5 1 9l220 1034q2 8 7.5 13t14.5 5h205q19 0 19 -18z" />
    <glyph glyph-name="backslash" unicode="\" horiz-adv-x="518" 
d="M427 -140q0 -11 -13 -14l-78 -14q-4 -1 -7 -1h-4q-14 0 -17 14l-162 944q-1 5 -1 10q0 11 12 14l81 14q5 1 8 1q15 0 18 -14l161 -940q2 -8 2 -10v-4z" />
    <glyph glyph-name="bracketright" unicode="]" horiz-adv-x="311" 
d="M376 810q0 -4 -2 -12l-218 -1032q-2 -8 -8.5 -13t-14.5 -5h-204q-19 0 -19 19q0 5 2 15t4 18t8.5 13t14.5 5h101l198 940h-95q-19 0 -19 19q0 5 2 15t4 18t8.5 13t14.5 5h204q19 0 19 -18z" />
    <glyph glyph-name="asciicircum" unicode="^" horiz-adv-x="568" 
d="M543 316q0 -20 -19 -20h-64q-21 0 -27 21l-71 272h-2l-189 -278q-5 -8 -13 -11.5t-16 -3.5h-62q-19 0 -19 19q0 5 2.5 10.5t5.5 9.5l259 354q12 17 32 17h46q21 0 27 -19l107 -355q3 -8 3 -16z" />
    <glyph glyph-name="underscore" unicode="_" horiz-adv-x="535" 
d="M478 -152q0 -5 -2 -13l-9 -37q-2 -8 -8.5 -13t-14.5 -5h-539q-18 0 -18 19q0 7 4 22.5t6 27.5q2 8 8.5 13t14.5 5h539q19 0 19 -19z" />
    <glyph glyph-name="grave" unicode="`" horiz-adv-x="296" 
d="M296 592q0 -6 -4.5 -10t-10.5 -4h-42q-14 0 -26 14l-86 102q-6 6 -6 13q0 8 7 13t16.5 7.5t19 3.5t15.5 1q26 0 47.5 -8t27.5 -24q5 -14 12.5 -31t14 -33t11 -28.5t4.5 -15.5z" />
    <glyph glyph-name="a" unicode="a" horiz-adv-x="528" 
d="M502 406q0 -5 -0.5 -14t-2.5 -18l-59 -273q-7 -32 -18.5 -50t-37.5 -32q-11 -6 -29 -12t-41 -10.5t-48.5 -7t-49.5 -2.5q-40 0 -76.5 7t-64 22t-44 38.5t-16.5 55.5q0 58 32 95t81.5 60.5t107.5 35.5t111 21l14 66q2 6 2 11v8q0 23 -13.5 36t-36.5 13q-32 0 -54.5 -19
t-37.5 -48q-10 -19 -28 -29.5t-44 -10.5q-23 0 -38.5 12.5t-15.5 33.5q0 23 16 47t47 44t77.5 32.5t106.5 12.5q70 0 115 -32t45 -93zM333 255q-33 -5 -64.5 -15.5t-56.5 -26.5t-40.5 -38t-15.5 -52q0 -26 18 -43t53 -17q25 0 47.5 11t28.5 39z" />
    <glyph glyph-name="b" unicode="b" horiz-adv-x="574" 
d="M551 360q0 -35 -6.5 -72t-19 -73t-31 -68.5t-42.5 -59.5q-47 -51 -108 -75.5t-130 -24.5q-57 0 -97.5 10.5t-60.5 23.5q-27 17 -27 47q0 7 1 13.5t3 14.5l138 651q2 8 8 13t15 5h104q18 0 18 -19q0 -4 -1 -9l-55 -259q9 7 23.5 16.5t32.5 17.5t40 13.5t46 5.5
q37 0 64.5 -13.5t46.5 -36.5t28.5 -54t9.5 -67zM399 346q0 46 -19.5 69.5t-54.5 23.5q-24 0 -45 -9t-34 -19l-62 -290q-2 -10 -2 -15q0 -14 12.5 -24t40.5 -10q26 0 55 18.5t54 57.5q13 20 23 44.5t17 50.5t11 52.5t4 50.5z" />
    <glyph glyph-name="c" unicode="c" horiz-adv-x="508" 
d="M509 403q0 -24 -15.5 -45t-53.5 -21q-48 0 -57 53q-5 23 -17.5 43t-44.5 20q-30 0 -55 -21t-43 -53.5t-28 -72t-10 -77.5q0 -54 22.5 -89t73.5 -35q20 0 37 6.5t31.5 16.5t27 22t22.5 24q16 18 34 18q12 0 20 -8t8 -23q0 -20 -14.5 -49.5t-43.5 -57.5t-72 -47.5
t-99 -19.5q-39 0 -74 13.5t-61 39t-41 62.5t-15 85q0 70 21 132.5t59.5 109.5t92.5 74.5t121 27.5q45 0 77.5 -12.5t54 -32t32 -42t10.5 -41.5z" />
    <glyph glyph-name="d" unicode="d" horiz-adv-x="576" 
d="M623 746q0 -3 -1 -8l-136 -640q-6 -29 -18 -46.5t-38 -31.5q-23 -13 -69.5 -23t-97.5 -10q-110 0 -166.5 54.5t-56.5 142.5q0 73 26 140.5t74 118.5q38 42 88 64.5t109 22.5q34 0 57.5 -8t32.5 -15l51 240q2 7 8 12.5t15 5.5h103q19 0 19 -19zM413 438q-8 6 -22 11t-37 5
q-59 0 -104 -65q-14 -20 -25 -44t-18.5 -50t-12 -53t-4.5 -51q0 -59 25 -88t60 -29q30 0 47 12t22 33z" />
    <glyph glyph-name="e" unicode="e" horiz-adv-x="531" 
d="M516 368q0 -27 -7 -48q-5 -17 -15 -24t-26 -9l-289 -46v-16q0 -24 5 -46.5t17 -40t32 -27.5t50 -10q21 0 40 6.5t35.5 17t30 22.5t24.5 24q15 17 36 17q11 0 19 -7.5t8 -18.5q0 -20 -15.5 -50t-45 -58t-73 -47.5t-99.5 -19.5q-45 0 -82 14t-64 40t-41.5 63.5t-14.5 84.5
q0 64 19 125.5t56.5 109.5t93 77.5t128.5 29.5q40 0 73 -13t56 -35t36 -51.5t13 -63.5zM381 378q0 32 -15 53.5t-51 21.5q-26 0 -47.5 -12.5t-37.5 -32.5t-27 -45t-17 -50l191 31q2 11 3 19.5t1 14.5z" />
    <glyph glyph-name="f" unicode="f" horiz-adv-x="359" 
d="M453 723q0 -23 -14.5 -41t-43.5 -18q-14 0 -22.5 3.5t-22.5 3.5q-15 0 -26.5 -8.5t-19.5 -22.5t-12.5 -32.5t-4.5 -38.5q0 -30 8 -51h79q19 0 19 -19q0 -3 -1 -8l-7 -35q-2 -7 -8 -12.5t-15 -5.5h-77l-89 -420q-2 -7 -8 -12.5t-15 -5.5h-103q-19 0 -19 19q0 3 1 8l87 411
h-49q-18 0 -18 19q0 5 1 9l8 34q2 7 8 12.5t15 5.5h52q17 79 43.5 128.5t58 78t64.5 39t63 10.5q35 0 51.5 -16t16.5 -35z" />
    <glyph glyph-name="g" unicode="g" horiz-adv-x="576" 
d="M558 450q0 -13 -3 -28l-82 -386q-30 -140 -100 -210.5t-197 -70.5q-50 0 -87.5 11.5t-63 29.5t-38.5 40.5t-13 44.5q0 27 19.5 46t48.5 19q43 0 64 -41q14 -26 32 -42.5t55 -16.5q19 0 38 10t35.5 28.5t30 45t20.5 60.5l10 50q-19 -15 -53.5 -32.5t-84.5 -17.5
q-36 0 -64.5 13t-48 36t-29.5 54t-10 67q0 38 7 77t20.5 75.5t34.5 69.5t48 60q90 89 224 89q60 0 101.5 -11t59.5 -23q14 -10 20 -21.5t6 -25.5zM407 419q0 14 -11.5 24t-40.5 10q-25 0 -52.5 -15.5t-51.5 -49.5q-14 -20 -25.5 -45.5t-19.5 -53.5t-12.5 -55.5t-4.5 -52.5
q0 -48 21 -72t54 -24q24 0 45 9.5t34 19.5l62 291q2 10 2 14z" />
    <glyph glyph-name="h" unicode="h" horiz-adv-x="575" 
d="M548 406q0 -9 -1 -18t-3 -18l-75 -352q-2 -7 -8 -12.5t-15 -5.5h-104q-19 0 -19 19q0 5 1 9l70 332q3 16 3 24q0 29 -17.5 43.5t-45.5 14.5q-26 0 -48 -9t-39 -23l-84 -392q-2 -8 -8 -13t-15 -5h-104q-19 0 -19 19q0 4 1 9l153 719q2 8 8 13t15 5h104q19 0 19 -19v-3
q0 -1 -1 -6l-53 -256q23 18 59 34t84 16q30 0 55.5 -9t45 -25t30.5 -39.5t11 -51.5z" />
    <glyph glyph-name="i" unicode="i" horiz-adv-x="277" 
d="M308 660q0 -29 -24 -50t-66 -21q-32 0 -51.5 16.5t-19.5 38.5q0 29 25 49.5t66 20.5q32 0 51 -16t19 -38zM267 499q0 -4 -1 -9l-100 -472q-2 -8 -8 -13t-15 -5h-104q-19 0 -19 19q0 4 1 9l101 472q2 8 8 13t15 5h103q19 0 19 -19z" />
    <glyph glyph-name="j" unicode="j" horiz-adv-x="277" 
d="M308 660q0 -29 -24 -50t-66 -21q-32 0 -51.5 16.5t-19.5 38.5q0 29 25 49.5t66 20.5q32 0 51 -16t19 -38zM267 499q0 -4 -1 -9l-80 -379q-23 -107 -62.5 -175t-83 -107t-84.5 -53.5t-68 -14.5q-16 0 -24.5 8t-8.5 22q0 19 26 36t49 40.5t43 57t36.5 79t29.5 107.5l83 389
q2 8 8 13t15 5h103q19 0 19 -19z" />
    <glyph glyph-name="k" unicode="k" horiz-adv-x="549" 
d="M581 500q0 -5 -3 -9.5t-7 -8.5l-223 -198l134 -247q6 -11 6 -18q0 -8 -5.5 -13.5t-15.5 -5.5h-115q-13 0 -17.5 4.5t-9.5 14.5l-91 180q-7 14 -12 30t-7 27h-2l-50 -238q-2 -7 -8 -12.5t-15 -5.5h-103q-19 0 -19 19v3q0 3 2 9l153 716q2 8 8 13t15 5h102q19 0 19 -19
q0 -4 -1 -9l-93 -435h2l206 203q5 5 12 9t17 4h103q9 0 13.5 -5t4.5 -13z" />
    <glyph glyph-name="l" unicode="l" horiz-adv-x="275" 
d="M321 746q0 -3 -0.5 -6t-1.5 -7l-153 -715q-2 -8 -8 -13t-15 -5h-104q-19 0 -19 19q0 5 1 8l153 720q2 8 8 13t15 5h105q19 0 19 -19z" />
    <glyph glyph-name="m" unicode="m" horiz-adv-x="854" 
d="M827 404q0 -22 -4 -38l-74 -348q-2 -8 -8.5 -13t-14.5 -5h-102q-19 0 -19 19q0 4 1 9l72 343q2 7 3 14t1 14q0 29 -17.5 41.5t-44.5 12.5q-39 0 -60 -22.5t-29 -58.5l-76 -354q-3 -18 -22 -18h-103q-19 0 -19 19q0 4 1 9l73 343q3 13 3 27q0 29 -16.5 42t-44.5 13
q-35 0 -56.5 -14t-29.5 -49l-79 -372q-2 -8 -8.5 -13t-14.5 -5h-103q-19 0 -19 19q0 5 1 8l87 410q6 28 17.5 40.5t37.5 23.5q37 15 82.5 22.5t85.5 7.5q21 0 43 -2.5t43 -9t39.5 -17.5t32.5 -28q39 31 85 44t96 13q29 0 57.5 -7.5t51.5 -23.5t37 -39.5t14 -56.5z" />
    <glyph glyph-name="n" unicode="n" horiz-adv-x="574" 
d="M547 400q0 -8 -1 -17t-3 -17l-75 -348q-2 -8 -8.5 -13t-14.5 -5h-104q-19 0 -19 19q0 5 1 8l74 344q3 12 3 25q0 32 -20.5 44.5t-49.5 12.5q-34 0 -56 -12t-30 -47l-81 -376q-2 -8 -8.5 -13t-14.5 -5h-104q-19 0 -19 19q0 5 1 8l87 410q6 28 18 40.5t38 23.5q19 8 42 14
t47.5 9.5t48.5 5t45 1.5q33 0 69 -6t65.5 -20.5t49 -40t19.5 -64.5z" />
    <glyph glyph-name="o" unicode="o" horiz-adv-x="575" 
d="M546 327q0 -64 -20 -125t-58.5 -109t-95 -77t-128.5 -29q-44 0 -81 13.5t-64 40t-42 64.5t-15 88q0 66 20.5 127.5t59.5 108t95 74.5t127 28q47 0 84.5 -15t63.5 -42t40 -64.5t14 -82.5zM401 352q0 44 -15.5 72t-52.5 28q-54 0 -92 -68q-12 -21 -21.5 -47t-16.5 -54
t-11 -55.5t-4 -51.5q0 -45 16 -73t51 -28q58 0 97 77q10 19 19 44.5t15.5 52.5t10.5 54t4 49z" />
    <glyph glyph-name="p" unicode="p" horiz-adv-x="576" 
d="M548 336q0 -72 -24.5 -138.5t-70.5 -117.5q-39 -44 -90 -68t-111 -24q-35 0 -58 9t-32 16l-50 -230q-2 -7 -7.5 -12.5t-14.5 -5.5h-104q-19 0 -19 19q0 4 1 8l134 628q6 29 18 46t38 31q12 7 30 13t40.5 10.5t47 7.5t49.5 3q58 0 100 -15t69.5 -41.5t40.5 -62t13 -76.5z
M399 338q0 54 -22.5 84.5t-62.5 30.5q-59 0 -69 -46l-67 -316q8 -7 21 -12.5t36 -5.5q30 0 58.5 18.5t51.5 55.5q12 19 22 42.5t17 49t11 51t4 48.5z" />
    <glyph glyph-name="q" unicode="q" horiz-adv-x="576" 
d="M558 450q0 -11 -3 -26l-137 -641q-2 -7 -8 -12.5t-15 -5.5h-103q-19 0 -19 19q0 3 2 13l52 243q-9 -8 -22.5 -17t-31.5 -17t-40 -13.5t-47 -5.5q-37 0 -65 13.5t-46.5 37t-28 54.5t-9.5 66q0 38 7 77t20.5 76t34 70.5t47.5 60.5q46 45 102.5 67t122.5 22q59 0 101 -11.5
t60 -23.5q15 -10 20.5 -20t5.5 -26zM407 419q0 15 -11 24.5t-41 9.5q-25 0 -52.5 -16t-51.5 -49q-15 -20 -26.5 -45.5t-19.5 -53t-12 -55.5t-4 -53q0 -49 20.5 -72.5t53.5 -23.5q24 0 45.5 9.5t34.5 19.5l62 290q2 10 2 15z" />
    <glyph glyph-name="r" unicode="r" horiz-adv-x="431" 
d="M467 450q0 -29 -16 -48t-45 -19q-24 0 -35.5 11t-19 23.5t-16.5 23.5t-28 11q-23 0 -39 -11.5t-21 -31.5l-84 -391q-2 -8 -8 -13t-15 -5h-104q-19 0 -19 19v3q0 2 1 7l87 408q6 26 18 39.5t38 24.5q27 11 72.5 20.5t96.5 9.5q71 0 104 -24.5t33 -56.5z" />
    <glyph glyph-name="s" unicode="s" horiz-adv-x="482" 
d="M471 422q0 -25 -16 -40.5t-45 -15.5q-44 0 -57 42q-7 23 -21 38.5t-41 15.5q-38 0 -56 -23.5t-18 -50.5q0 -23 15.5 -38.5t39 -28t51 -24.5t51 -28.5t39 -39t15.5 -56.5q0 -38 -15 -71.5t-44 -59t-72 -40.5t-98 -15q-48 0 -83.5 12.5t-58 31t-33.5 40.5t-11 41
q0 27 17.5 44t47.5 17q24 0 38.5 -11.5t22.5 -33.5q9 -27 23.5 -43.5t45.5 -16.5q16 0 30 6.5t24 17.5t16 25t6 29q0 23 -15.5 39t-38.5 29.5t-49.5 26t-49.5 28.5t-38.5 37.5t-15.5 53.5q0 36 14.5 67.5t43 54.5t70 36t95.5 13q43 0 75.5 -10.5t53.5 -26.5t31.5 -35
t10.5 -37z" />
    <glyph glyph-name="t" unicode="t" horiz-adv-x="368" 
d="M391 496q0 -1 -1 -6l-7 -34q-2 -8 -8.5 -13t-12.5 -5h-80l-65 -303q-3 -14 -3 -28q0 -23 11 -33t34 -10q5 0 10.5 1t10.5 1q11 0 17 -6.5t6 -17.5q0 -25 -31.5 -40t-77.5 -15q-27 0 -50 6.5t-40 20t-26.5 34.5t-9.5 50q0 10 1.5 23t2.5 18l64 299h-46q-19 0 -19 19
q0 1 1 7t2.5 13t2.5 13.5t2 9.5q2 8 8.5 13t14.5 5h50l14 66q2 10 6 17.5t14 11.5l110 44q11 4 15 4q14 0 14 -14q0 -3 -1 -7l-25 -122h73q19 0 19 -19v-3z" />
    <glyph glyph-name="u" unicode="u" horiz-adv-x="564" 
d="M560 499q0 -4 -1 -8l-85 -399q-6 -27 -17 -43t-36 -29q-18 -9 -41.5 -15.5t-48.5 -10t-49.5 -5.5t-43.5 -2q-32 0 -66.5 5.5t-64 20.5t-48.5 40.5t-19 64.5q0 17 5 39l72 343q2 8 8.5 13t14.5 5h105q18 0 18 -19q0 -4 -1 -8l-71 -339q-1 -5 -1.5 -11t-0.5 -11
q0 -27 18.5 -40.5t43.5 -13.5q29 0 53 11.5t31 43.5l78 369q2 8 8.5 13t14.5 5h105q19 0 19 -19z" />
    <glyph glyph-name="v" unicode="v" horiz-adv-x="529" 
d="M567 501q0 -5 -2.5 -10.5t-4.5 -9.5l-260 -463q-5 -9 -11.5 -13.5t-17.5 -4.5h-109q-23 0 -26 23l-62 455q-1 5 -1.5 9.5t-0.5 9.5q0 21 22 21h106q22 0 24 -22l23 -264q1 -10 1.5 -19.5t0.5 -19.5q0 -16 -0.5 -31.5t-1.5 -31.5h2q3 8 7.5 20.5t10 26.5t12 28.5
t12.5 26.5l139 267q5 10 11 14.5t18 4.5h89q19 0 19 -17z" />
    <glyph glyph-name="w" unicode="w" horiz-adv-x="789" 
d="M823 500q0 -4 -4 -14l-235 -467q-5 -11 -11.5 -15t-18.5 -4h-94q-22 0 -24 22q-7 79 -14 156.5t-7 156.5h-2q-9 -27 -20 -54t-25 -53l-108 -209q-5 -11 -11.5 -15t-18.5 -4h-95q-22 0 -23 22l-36 457q-1 8 -1 11v7q0 11 6.5 16t16.5 5h99q23 0 23 -22l4 -259
q0 -18 -0.5 -42.5t-4.5 -58.5h2q9 26 21.5 55t21.5 46l134 263q9 18 29 18h63q22 0 24 -23l20 -258q1 -11 1 -23v-50q0 -14 -1 -28h2q4 12 9 26.5t10.5 28.5t10.5 26.5t8 19.5l118 263q8 18 28 18h83q20 0 20 -18z" />
    <glyph glyph-name="x" unicode="x" horiz-adv-x="506" 
d="M540 501q0 -5 -3.5 -10.5t-6.5 -9.5l-197 -212l112 -231q5 -8 5 -17q0 -21 -22 -21h-109q-13 0 -19.5 4t-11.5 16l-53 138h-2l-120 -143q-12 -15 -32 -15h-94q-9 0 -15.5 4.5t-6.5 14.5q0 7 8 15l213 226l-107 223q-4 10 -4 15q0 11 7 15.5t17 4.5h102q13 0 19 -4t11 -16
l52 -131h2l115 136q12 15 32 15h89q19 0 19 -17z" />
    <glyph glyph-name="y" unicode="y" horiz-adv-x="529" 
d="M568 501q0 -4 -1.5 -8t-3.5 -7l-310 -556q-20 -36 -43 -67.5t-51 -55t-62.5 -37t-79.5 -13.5q-16 0 -33 3.5t-31.5 11t-23.5 20.5t-9 33q0 29 18.5 45t46.5 16q12 0 21 -2.5t16.5 -6t14 -6t15.5 -2.5q18 0 33 12t27.5 28.5t22 34.5t17.5 31l-78 504q-1 5 -1.5 9t-0.5 9
q0 11 6.5 16t16.5 5h105q22 0 24 -21l26 -271q1 -11 1.5 -23t0.5 -23q0 -33 -3 -64h2q8 27 18.5 55.5t23.5 54.5l138 273q6 11 12 15t17 4h88q20 0 20 -17z" />
    <glyph glyph-name="z" unicode="z" horiz-adv-x="433" 
d="M459 500q0 -5 -2 -9l-4 -8l-269 -400h164q19 0 19 -19q0 -5 -2 -13q-3 -12 -5.5 -26t-8.5 -19q-8 -6 -16 -6h-337q-18 0 -18 18q0 5 2 9l4 8l274 403h-154q-19 0 -19 19q0 6 3.5 19t5.5 24q2 8 8 13t14 5h322q19 0 19 -18z" />
    <glyph glyph-name="braceleft" unicode="{" horiz-adv-x="367" 
d="M456 791q0 -22 -27 -26q-35 -5 -56.5 -28t-31.5 -68l-49 -228q-14 -65 -41 -102t-75 -57v-2q29 -16 42 -44.5t13 -62.5q0 -19 -2 -29.5t-5 -24.5l-47 -225q-2 -7 -3 -16t-1 -21q0 -25 11 -38.5t35 -21.5q20 -7 20 -25q0 -12 -11 -20.5t-30 -8.5q-33 0 -60.5 9t-47.5 26
t-31.5 43t-11.5 59q0 21 6 54l44 211q2 12 5 24.5t3 28.5q0 24 -10.5 38t-30.5 24q-12 5 -12 19q0 16 18 23q40 14 58 41.5t29 80.5l45 210q11 50 31.5 85t49 56.5t64 31t74.5 9.5q18 0 26.5 -7t8.5 -18z" />
    <glyph glyph-name="bar" unicode="|" horiz-adv-x="280" 
d="M316 746q0 -5 -2 -13l-202 -950q-2 -8 -8.5 -13t-14.5 -5h-92q-19 0 -19 19q0 4 2 12l203 951q2 8 8.5 13t14.5 5h91q19 0 19 -19z" />
    <glyph glyph-name="braceright" unicode="}" horiz-adv-x="367" 
d="M341 673q0 -26 -6 -53l-42 -198q-4 -17 -6 -34t-2 -25q0 -23 9.5 -36.5t30.5 -24.5q13 -7 13 -20q0 -16 -22 -24q-32 -12 -52 -39.5t-31 -80.5l-46 -213q-11 -50 -31.5 -85t-48 -56.5t-62.5 -31t-74 -9.5q-20 0 -29.5 7.5t-9.5 18.5q0 24 30 30q69 13 86 93l49 229
q14 66 41.5 102t75.5 57v2q-31 17 -43 43.5t-12 63.5q0 13 2 29t5 30l46 217q2 9 3 16.5t1 20.5q0 27 -12 40t-35 20q-19 5 -19 24q0 14 12 22t32 8q64 0 105.5 -37.5t41.5 -105.5z" />
    <glyph glyph-name="asciitilde" unicode="~" horiz-adv-x="645" 
d="M618 358q0 -18 -11.5 -43.5t-35 -49.5t-59 -41t-82.5 -17q-31 0 -56.5 12t-48.5 27t-46.5 27t-49.5 12q-39 0 -64.5 -16t-43.5 -37q-20 -23 -39 -23q-11 0 -18.5 7t-7.5 20q0 19 12 45.5t36 49.5t59 39.5t80 16.5q31 0 56 -12t48 -27t46.5 -27t50.5 -12q39 0 64.5 16
t43.5 37q20 23 40 23q11 0 18.5 -7t7.5 -20z" />
    <glyph glyph-name="uni00A0" unicode="&#xa0;" horiz-adv-x="280" 
 />
    <glyph glyph-name="exclamdown" unicode="&#xa1;" horiz-adv-x="344" 
d="M233 257q0 -1 -1 -6l-55 -414q-3 -20 -23 -20h-135q-8 0 -12.5 5t-4.5 11q0 3 2 11l121 417q2 7 9 12t15 5h66q8 0 13 -5t5 -12v-4zM308 458q0 -21 -8 -39.5t-22.5 -32.5t-33 -22t-39.5 -8q-32 0 -54.5 22.5t-22.5 52.5q0 21 8.5 39.5t23 32t33 21.5t39.5 8q32 0 54 -22
t22 -52z" />
    <glyph glyph-name="cent" unicode="&#xa2;" horiz-adv-x="539" 
d="M522 406q0 -24 -15 -42t-44 -18q-21 0 -33.5 12t-17.5 32q-5 22 -16.5 41t-38.5 24l-75 -353q23 1 42.5 8.5t36 18t29.5 23.5t24 26q15 18 35 18q11 0 19 -8t8 -20q0 -19 -14.5 -48.5t-42.5 -58t-68.5 -50t-92.5 -24.5l-19 -84q-5 -22 -27 -22q-9 0 -14 4.5t-5 10.5
q0 2 0.5 5.5t1.5 8.5l17 79q-76 11 -117.5 65.5t-41.5 132.5q0 62 18 121.5t52.5 107t85.5 78.5t117 36l16 72q4 22 28 22q10 0 14.5 -4.5t4.5 -9.5q0 -4 -1 -9l-15 -71q39 -3 67 -16.5t46.5 -31.5t27 -38.5t8.5 -37.5zM311 455q-36 -7 -63 -32t-44 -58t-25.5 -70.5
t-8.5 -70.5q0 -41 14.5 -72t52.5 -42z" />
    <glyph glyph-name="sterling" unicode="&#xa3;" horiz-adv-x="601" 
d="M618 571q0 -29 -17.5 -49t-50.5 -20q-26 0 -41 14t-20 39q-6 36 -24 59t-61 23q-50 0 -82.5 -37.5t-32.5 -116.5q0 -25 4 -46t9 -41h136q19 0 19 -19v-2q0 -1 -1 -6l-7 -35q-2 -8 -8 -13t-15 -5h-116q-3 -44 -26 -91.5t-71 -99.5h281q19 0 19 -19q0 -3 -1 -8l-16 -80
q-2 -8 -8 -13t-15 -5h-440q-22 0 -22 22q0 13 11 22q75 67 118 129.5t43 126.5v7q0 4 -1 9h-89q-19 0 -19 19q0 4 1 8l7 35q2 8 7.5 13t14.5 5h59q-7 23 -12.5 45.5t-5.5 47.5q0 48 16.5 90.5t50 74t83.5 50t118 18.5q51 0 89.5 -13.5t64 -35t38.5 -48.5t13 -54z" />
    <glyph glyph-name="currency" unicode="&#xa4;" horiz-adv-x="581" 
d="M595 454q0 -5 -3 -9t-7 -7l-79 -66q16 -35 16 -70q0 -46 -16.5 -88t-46.5 -77l45 -59q5 -7 5 -14q0 -9 -7 -16l-50 -41q-9 -7 -17 -7q-9 0 -15 8l-46 60q-29 -16 -60.5 -25t-64.5 -9q-59 0 -108 34l-72 -61q-9 -7 -17 -7q-9 0 -14 7l-35 43q-6 8 -6 14q0 5 3 9.5t7 7.5
l73 62q-8 17 -13 35.5t-5 37.5q0 47 18 90.5t50 78.5q-3 4 -11 13.5t-16.5 20.5t-15 20.5t-6.5 14.5q0 10 9 17l50 41q6 6 16 6q9 0 15 -8l44 -58q28 15 58.5 23.5t62.5 8.5q61 0 111 -36l76 64q6 6 16 6q7 0 14 -7l36 -43q6 -8 6 -14zM408 292q0 20 -5 38.5t-15.5 32
t-27 21.5t-38.5 8q-30 0 -57 -15.5t-46.5 -40t-31 -54t-11.5 -57.5q0 -41 21 -70t65 -29q30 0 56.5 15.5t46.5 39.5t31.5 53.5t11.5 57.5z" />
    <glyph glyph-name="yen" unicode="&#xa5;" horiz-adv-x="606" 
d="M686 689q0 -7 -7 -17l-176 -222h81q19 0 19 -19q0 -3 -1 -8l-5 -21q-2 -7 -7.5 -12.5t-14.5 -5.5h-124l-52 -64l-5 -25h145q19 0 19 -19q0 -3 -1 -8l-5 -22q-2 -7 -8 -12.5t-15 -5.5h-149l-45 -210q-2 -8 -8 -13t-15 -5h-109q-19 0 -19 19v4q0 2 2 8l42 197h-144
q-19 0 -19 19q0 5 1 9l5 21q2 7 7.5 12.5t14.5 5.5h149l6 25l-25 64h-119q-19 0 -19 19q0 2 2 12l4 17q2 7 8 12.5t15 5.5h85l-80 222q-3 7 -3 14q0 20 22 20h110q20 0 26 -20l72 -261h2l195 266q11 15 29 15h93q21 0 21 -17z" />
    <glyph glyph-name="brokenbar" unicode="&#xa6;" horiz-adv-x="280" 
d="M315 746q0 -4 -1 -8l-78 -369q-2 -8 -8.5 -13t-14.5 -5h-91q-19 0 -19 19q0 3 1 8l79 369q2 8 8.5 13t14.5 5h90q19 0 19 -19zM190 160q0 -4 -1 -8l-78 -369q-2 -8 -8.5 -13t-14.5 -5h-91q-19 0 -19 19q0 3 1 8l79 369q2 8 8.5 13t14.5 5h90q19 0 19 -19z" />
    <glyph glyph-name="section" unicode="&#xa7;" horiz-adv-x="565" 
d="M562 587q0 -29 -16.5 -47.5t-46.5 -18.5q-25 0 -38.5 14.5t-18.5 37.5q-6 31 -22 49.5t-48 18.5q-21 0 -37.5 -8t-28 -21t-17.5 -30t-6 -34q0 -21 8.5 -37t22.5 -29.5t32.5 -24.5t39.5 -22q24 -12 48.5 -26.5t44.5 -32.5t32.5 -41.5t12.5 -53.5q0 -33 -13 -60.5
t-33 -49.5t-46 -40t-51 -33q26 -23 43.5 -54t17.5 -69q0 -48 -18.5 -87t-50.5 -66.5t-76 -42t-95 -14.5q-41 0 -76 13.5t-60.5 35.5t-40 49.5t-14.5 54.5q0 31 18 51.5t47 20.5q49 0 60 -52q3 -14 8.5 -29.5t15.5 -28t24.5 -20.5t35.5 -8q20 0 37 8t29.5 21.5t19.5 31
t7 36.5q0 24 -10 42.5t-26 33.5t-37.5 27t-43.5 24q-25 13 -50.5 27.5t-46 33.5t-33.5 42.5t-13 55.5q0 36 12.5 65t33 52.5t47 42.5t53.5 35q-16 17 -27.5 41t-11.5 53q0 38 14 73.5t42.5 63.5t71.5 44.5t100 16.5q45 0 77.5 -13.5t54 -33.5t32 -43.5t10.5 -44.5zM403 252
q0 23 -14.5 41t-36 33.5t-48 29t-50.5 28.5q-14 -8 -28.5 -19.5t-26 -26t-19 -31.5t-7.5 -36q0 -24 14 -41.5t35.5 -32t47.5 -27.5t50 -27q13 9 28 20.5t27 25t20 29.5t8 34z" />
    <glyph glyph-name="dieresis" unicode="&#xa8;" horiz-adv-x="296" 
d="M392 646q0 -15 -6 -27.5t-16.5 -21.5t-24 -14t-27.5 -5q-23 0 -38.5 15.5t-15.5 36.5q0 15 6 27.5t16.5 21.5t24 14.5t27.5 5.5q23 0 38.5 -16t15.5 -37zM206 646q0 -15 -6 -27.5t-16.5 -21.5t-24 -14t-27.5 -5q-23 0 -38.5 15.5t-15.5 36.5q0 15 6 27.5t16.5 21.5
t24 14.5t27.5 5.5q23 0 38.5 -16t15.5 -37z" />
    <glyph glyph-name="copyright" unicode="&#xa9;" horiz-adv-x="854" 
d="M829 421q0 -91 -35.5 -170.5t-96.5 -139t-142 -93.5t-172 -34q-66 0 -122.5 23.5t-97.5 64.5t-64 95.5t-23 117.5q0 92 36.5 171.5t98.5 138.5t142.5 93t169.5 34q66 0 122.5 -23.5t97 -64.5t63.5 -95.5t23 -117.5zM756 410q0 51 -18 95.5t-50.5 77.5t-77.5 52.5
t-99 19.5q-74 0 -139.5 -29t-114.5 -78.5t-78 -114.5t-29 -138q0 -51 18 -95t50.5 -76.5t77.5 -51t99 -18.5q73 0 138.5 28.5t115 77t78.5 113t29 137.5zM626 485q0 -17 -11 -29t-29 -12q-30 0 -40 30q-5 15 -18.5 29t-42.5 14q-33 0 -58.5 -20t-43 -49.5t-26.5 -64
t-9 -63.5q0 -52 24.5 -82.5t66.5 -30.5q32 0 53.5 12t36.5 23q12 9 23 9q9 0 15 -5.5t6 -15.5q0 -11 -11 -26t-30.5 -29t-47.5 -23.5t-62 -9.5q-41 0 -72 13t-51 35.5t-30 52.5t-10 64q0 51 17 98.5t48 84.5t75 59t97 22q33 0 57.5 -9t40.5 -22t24 -28t8 -27z" />
    <glyph glyph-name="ordfeminine" unicode="&#xaa;" horiz-adv-x="408" 
d="M433 629q0 -8 -0.5 -12t-1.5 -9l-43 -202q-5 -24 -15 -35.5t-33 -22.5q-15 -7 -46 -13.5t-70 -6.5q-30 0 -57 5t-46.5 15.5t-31 27t-11.5 39.5q0 45 25.5 72.5t63 44t80 24.5t75.5 13l10 48q1 5 1 7v6q0 35 -38 35q-25 0 -40.5 -14t-26.5 -34q-10 -17 -23 -23.5t-32 -6.5
q-17 0 -27 9.5t-10 23.5t9.5 31t31 32t57 25t86.5 10q50 0 81.5 -23.5t31.5 -65.5zM311 520q-20 -3 -42.5 -9t-42 -16.5t-32 -27t-12.5 -41.5q0 -19 12 -31t38 -12q20 0 36 8.5t21 28.5z" />
    <glyph glyph-name="guillemotleft" unicode="&#xab;" horiz-adv-x="560" 
d="M336 480q0 -18 -15 -38l-102 -134q-8 -10 -14.5 -21.5t-6.5 -24.5q0 -12 4 -25l41 -124q5 -18 5 -27q0 -17 -9.5 -27.5t-28.5 -10.5q-26 0 -35 25q-6 17 -16 39t-22.5 45t-27 45t-29.5 39q-12 14 -12 28t8.5 25.5t19.5 19.5q22 17 46 39.5t46 45.5t41 45t33 39
q18 24 43 24q14 0 22.5 -8t8.5 -19zM553 480q0 -18 -15 -38l-102 -134q-8 -10 -14.5 -21.5t-6.5 -24.5q0 -7 1 -13.5t3 -11.5l41 -124q5 -18 5 -27q0 -17 -9.5 -27.5t-28.5 -10.5q-26 0 -35 25q-6 17 -16 39t-22.5 45t-27 45t-29.5 39q-12 14 -12 28t8.5 25.5t19.5 19.5
q22 17 46 39.5t46 45.5t41 45t33 39q18 24 43 24q14 0 22.5 -8t8.5 -19z" />
    <glyph glyph-name="logicalnot" unicode="&#xac;" horiz-adv-x="556" 
d="M537 337q0 -5 -2 -13l-58 -269q-2 -8 -8 -13t-14 -5h-68q-19 0 -19 19v3q0 3 1 5l41 192h-340q-19 0 -19 19q0 5 2 13l11 50q2 8 8.5 13t14.5 5h431q19 0 19 -19z" />
    <glyph glyph-name="uni00AD" unicode="&#xad;" horiz-adv-x="318" 
d="M294 330q0 -3 -1.5 -11.5t-4 -18.5t-4.5 -20t-3 -16q-2 -8 -8.5 -13t-14.5 -5h-186q-19 0 -19 19q0 2 2 11.5t4.5 20.5t4.5 20.5t3 12.5q4 18 23 18h185q19 0 19 -18z" />
    <glyph glyph-name="registered" unicode="&#xae;" horiz-adv-x="854" 
d="M829 421q0 -91 -35.5 -170.5t-96.5 -139t-142 -93.5t-172 -34q-66 0 -122.5 23.5t-97.5 64t-64 95.5t-23 118q0 92 36.5 171.5t98.5 138.5t142.5 93t169.5 34q66 0 122.5 -23.5t97 -64.5t63.5 -95.5t23 -117.5zM756 410q0 51 -18 95.5t-50.5 77.5t-77.5 52.5t-99 19.5
q-74 0 -139.5 -29t-114.5 -78.5t-78 -114.5t-29 -138q0 -51 18 -95t50.5 -76.5t77.5 -51t99 -18.5q73 0 138.5 28.5t115 77t78.5 113t29 137.5zM621 478q0 -29 -10 -50.5t-27 -37.5t-39.5 -26t-46.5 -16v-2q10 -5 19.5 -20t14.5 -32l35 -114q1 -2 1.5 -6t0.5 -5
q0 -12 -13 -12h-57q-12 0 -16 11l-30 122q-4 14 -12 28.5t-27 14.5h-20l-36 -165q-3 -11 -14 -11h-54q-10 0 -10 9q0 2 2 12l76 359q3 11 15 16q11 5 40.5 12.5t64.5 7.5q75 0 109 -27t34 -68zM541 474q0 26 -15.5 39t-50.5 13q-15 0 -25 -2t-16 -4l-32 -146q5 -1 11.5 -1.5
t16.5 -0.5q27 0 47.5 8t35 22t21.5 32.5t7 39.5z" />
    <glyph glyph-name="macron" unicode="&#xaf;" horiz-adv-x="296" 
d="M385 661q0 -4 -1 -9l-6 -29q-2 -7 -8 -12.5t-15 -5.5h-249q-19 0 -19 19q0 2 2 12l6 26q2 7 8 12.5t15 5.5h248q19 0 19 -19z" />
    <glyph glyph-name="degree" unicode="&#xb0;" horiz-adv-x="414" 
d="M460 618q0 -41 -16.5 -77t-44.5 -63t-65 -43t-77 -16q-31 0 -58 12t-47.5 32t-32 46.5t-11.5 56.5q0 41 16.5 77t45 63t65 43t77.5 16q31 0 58 -12t47 -32.5t31.5 -47t11.5 -55.5zM367 606q0 28 -20 48.5t-49 20.5q-20 0 -37 -7.5t-30.5 -21t-21 -31t-7.5 -36.5
q0 -28 19.5 -48.5t48.5 -20.5q19 0 37 7.5t31 21t21 30.5t8 37z" />
    <glyph glyph-name="plusminus" unicode="&#xb1;" horiz-adv-x="556" 
d="M559 438q0 -3 -2 -13l-10 -46q-2 -7 -8 -12.5t-15 -5.5h-167l-36 -167q-2 -8 -7.5 -13t-14.5 -5h-61q-19 0 -19 19q0 4 1 8l34 158h-161q-19 0 -19 19q0 4 1 9l11 50q2 7 8 12.5t15 5.5h165l35 165q2 8 8 13t15 5h61q19 0 19 -19q0 -2 -2 -12l-33 -152h163q19 0 19 -19z
M481 77q0 -3 -1 -8l-11 -51q-2 -7 -7.5 -12.5t-14.5 -5.5h-432q-18 0 -18 19v4q0 3 1 5l11 50q2 7 7.5 12.5t14.5 5.5h431q19 0 19 -19z" />
    <glyph glyph-name="twosuperior" unicode="&#xb2;" horiz-adv-x="370" 
d="M431 800q0 -42 -26 -77.5t-56 -64.5l-123 -117v-2h137q17 0 17 -16q0 -3 -2 -13l-7 -32q-3 -16 -20 -16h-238q-17 0 -17 17q0 3 1.5 7.5t6.5 9.5l188 203q17 18 31 39.5t14 47.5q0 20 -11.5 31.5t-34.5 11.5q-27 0 -45 -20t-26 -38q-10 -19 -32 -19q-10 0 -17 6.5
t-7 16.5q0 16 10 37t29.5 39.5t49 31.5t68.5 13q58 0 84 -28.5t26 -67.5z" />
    <glyph glyph-name="threesuperior" unicode="&#xb3;" horiz-adv-x="370" 
d="M425 813q0 -19 -7.5 -36t-19.5 -32t-27.5 -27t-31.5 -19v-2q24 -13 41 -35t17 -53q0 -23 -9.5 -50.5t-31.5 -51t-56.5 -39.5t-83.5 -16q-21 0 -40.5 5.5t-35 15t-25 22.5t-9.5 29q0 17 12 28.5t30 11.5q15 0 23 -5.5t14 -14.5q8 -13 19 -21.5t29 -8.5q16 0 29 7t22 17.5
t14 24t5 27.5q0 29 -19.5 45.5t-45.5 24.5q-19 6 -19 19q0 11 9 18t20 11q14 5 28.5 12.5t26.5 18t20 24t8 30.5t-11 27t-31 10q-26 0 -42 -14.5t-26 -31.5q-12 -20 -33 -20q-11 0 -16.5 7t-5.5 17q0 14 9.5 33t28.5 35.5t47.5 28t66.5 11.5q28 0 48.5 -7t33.5 -18.5
t19 -26.5t6 -31z" />
    <glyph glyph-name="acute" unicode="&#xb4;" horiz-adv-x="296" 
d="M381 710q0 -9 -8 -15l-136 -107q-11 -10 -27 -10h-44q-13 0 -13 12q0 5 6 13l80 97q17 20 43.5 26t49.5 6q22 0 35.5 -6.5t13.5 -15.5z" />
    <glyph glyph-name="mu" unicode="&#xb5;" horiz-adv-x="565" 
d="M561 499q0 -4 -1 -8l-84 -399q-5 -26 -17.5 -42t-35.5 -29q-35 -19 -73.5 -25t-78.5 -6q-11 0 -26 2t-30 6.5t-28.5 10.5t-21.5 14l-51 -240q-2 -8 -8.5 -13t-14.5 -5h-105q-19 0 -19 19q0 3 1 8l151 708q2 8 8.5 13t14.5 5h104q19 0 19 -19q0 -4 -1 -8l-73 -342
q-1 -5 -1.5 -10t-0.5 -10q0 -29 18.5 -40.5t44.5 -11.5q29 0 53.5 11t31.5 43l78 369q2 8 8.5 13t14.5 5h105q18 0 18 -19z" />
    <glyph glyph-name="paragraph" unicode="&#xb6;" horiz-adv-x="616" 
d="M646 678q0 -7 -1 -10l-189 -885q-3 -18 -22 -18h-72q-19 0 -19 19q0 5 1 8l179 840q-21 4 -43 4.5t-43 0.5q-7 0 -16 -0.5t-22 -1.5l-181 -852q-2 -8 -8.5 -13t-14.5 -5h-71q-19 0 -19 19q0 5 1 8l112 526q-59 8 -90 47.5t-31 97.5q0 64 31 116q25 41 62.5 67.5t81 41.5
t91 21t91.5 6q77 0 123.5 -7t53.5 -10t11 -7.5t4 -12.5z" />
    <glyph glyph-name="periodcentered" unicode="&#xb7;" horiz-adv-x="280" 
d="M247 323q0 -21 -8.5 -39.5t-22.5 -32t-32.5 -21.5t-39.5 -8q-32 0 -54.5 22t-22.5 52q0 21 8 39.5t22.5 32.5t33 22t39.5 8q32 0 54.5 -22.5t22.5 -52.5z" />
    <glyph glyph-name="cedilla" unicode="&#xb8;" horiz-adv-x="296" 
d="M208 -132q0 -24 -13.5 -43t-37 -32.5t-56 -21t-70.5 -7.5q-20 0 -40 2.5t-36 8t-25.5 13t-9.5 17.5q0 14 9 20t21 6q10 0 18 -1.5t17 -4t20.5 -4t29.5 -1.5q34 0 55 12.5t21 30.5q0 14 -18.5 24t-63.5 10q-8 0 -13 4.5t-5 10.5q0 5 7 16l51 75h76l-47 -64q57 -1 83.5 -21
t26.5 -50z" />
    <glyph glyph-name="onesuperior" unicode="&#xb9;" horiz-adv-x="370" 
d="M402 878q0 -5 -1 -10l-83 -390q-3 -16 -20 -16h-56q-17 0 -17 17q0 5 1 9l62 293q-20 -10 -46.5 -18t-43.5 -8q-11 0 -18 7t-7 18q0 12 8.5 20t20.5 11q40 11 79.5 29.5t68.5 42.5q15 12 31 12q21 0 21 -17z" />
    <glyph glyph-name="ordmasculine" unicode="&#xba;" horiz-adv-x="436" 
d="M464 571q0 -47 -15.5 -92.5t-46.5 -80.5q-62 -70 -158 -70q-68 0 -108 41t-40 107q0 52 19 101t57 84q62 57 144 57q67 0 107.5 -40.5t40.5 -106.5zM355 587q0 31 -10.5 51t-36.5 20q-35 0 -61 -41q-9 -15 -16.5 -34t-13 -39t-8.5 -40.5t-3 -37.5q0 -32 11 -51.5
t36 -19.5q40 0 66 48q8 14 14.5 32.5t11.5 38t7.5 38.5t2.5 35z" />
    <glyph glyph-name="guillemotright" unicode="&#xbb;" horiz-adv-x="560" 
d="M295 286q0 -14 -8.5 -25.5t-19.5 -19.5q-23 -17 -46.5 -39.5t-45.5 -45.5t-41.5 -45t-32.5 -39q-19 -24 -43 -24q-14 0 -22.5 8t-8.5 19q0 18 15 38l101 134q8 10 14.5 22t6.5 26q0 10 -4 23l-40 124q-3 10 -4 16.5t-1 10.5q0 17 10 27.5t29 10.5q25 0 34 -25
q6 -17 16 -39t22.5 -45t27 -45t29.5 -39q12 -14 12 -28zM512 286q0 -14 -8.5 -25.5t-19.5 -19.5q-23 -17 -46.5 -39.5t-45.5 -45.5t-41.5 -45t-32.5 -39q-19 -24 -43 -24q-14 0 -22.5 8t-8.5 19q0 18 15 38l101 134q8 10 14.5 22t6.5 26q0 10 -4 23l-40 124q-2 4 -3.5 13
t-1.5 14q0 17 10 27.5t29 10.5q25 0 34 -25q6 -17 16 -39t22.5 -45t27 -45t29.5 -39q12 -14 12 -28z" />
    <glyph glyph-name="onequarter" unicode="&#xbc;" horiz-adv-x="861" 
d="M806 410q0 -5 -1 -9l-53 -247h31q17 0 17 -15q0 -5 -2 -14t-4 -14q-2 -6 -5.5 -10.5t-14.5 -4.5h-34l-17 -80q-3 -16 -20 -16h-48q-17 0 -17 17q0 3 2 13.5t5 23t5.5 24.5t4.5 18h-143q-28 0 -28 26q0 10 4.5 17.5t10.5 14.5l228 259q9 11 23 11h41q15 0 15 -14zM784 691
q0 -7 -9 -17l-519 -658q-8 -9 -14 -12.5t-17 -3.5h-32q-15 0 -15 15q0 5 3 9l5 8l520 658q7 8 13.5 12t17.5 4h31q16 0 16 -15zM359 698q0 -5 -1 -10l-83 -390q-3 -16 -20 -16h-56q-17 0 -17 17q0 4 1 9l62 293q-17 -8 -44 -17t-46 -9q-11 0 -18 7t-7 18q0 13 9 20.5
t20 10.5q41 11 78 28.5t70 43.5q15 12 31 12q8 0 14.5 -4t6.5 -13zM708 328q-8 -12 -17 -23.5t-18 -22.5l-108 -128h103q10 44 18.5 87.5t22.5 86.5h-1z" />
    <glyph glyph-name="onehalf" unicode="&#xbd;" horiz-adv-x="861" 
d="M825 338q0 -42 -26 -77.5t-56 -64.5l-123 -117v-2h137q17 0 17 -16q0 -3 -2 -13l-7 -32q-3 -16 -20 -16h-238q-17 0 -17 17q0 3 1.5 7.5t6.5 9.5l188 203q17 18 31 39.5t14 47.5q0 20 -11.5 31.5t-34.5 11.5q-27 0 -45 -20t-26 -38q-10 -19 -32 -19q-10 0 -17 6.5
t-7 16.5q0 16 10 37t29.5 39.5t49 31.5t68.5 13q58 0 84 -28.5t26 -67.5zM745 691q0 -7 -9 -17l-519 -658q-8 -9 -14 -12.5t-17 -3.5h-32q-15 0 -15 15q0 5 3 9l5 8l520 658q7 8 13.5 12t17.5 4h31q16 0 16 -15zM359 698q0 -5 -1 -10l-83 -390q-3 -16 -20 -16h-56
q-17 0 -17 17q0 4 1 9l62 293q-17 -8 -44 -17t-46 -9q-11 0 -18 7t-7 18q0 13 9 20.5t20 10.5q41 11 78 28.5t70 43.5q15 12 31 12q8 0 14.5 -4t6.5 -13z" />
    <glyph glyph-name="threequarters" unicode="&#xbe;" horiz-adv-x="861" 
d="M806 410q0 -5 -1 -9l-53 -247h31q17 0 17 -15q0 -5 -2 -14t-4 -14q-2 -6 -5.5 -10.5t-14.5 -4.5h-34l-17 -80q-3 -16 -20 -16h-48q-17 0 -17 17q0 3 2 13.5t5 23t5.5 24.5t4.5 18h-143q-28 0 -28 26q0 10 4.5 17.5t10.5 14.5l228 259q9 11 23 11h41q15 0 15 -14zM397 633
q0 -19 -7.5 -36t-19.5 -32t-27.5 -27t-31.5 -19v-2q24 -13 41 -35t17 -53q0 -23 -9.5 -50.5t-31.5 -51t-56.5 -39.5t-83.5 -16q-21 0 -40.5 5.5t-35 15t-25 22.5t-9.5 29q0 17 12 28.5t30 11.5q15 0 23 -5.5t14 -14.5q8 -13 19 -21.5t29 -8.5q16 0 29 7t22 17.5t14 24
t5 27.5q0 29 -19.5 45.5t-45.5 24.5q-19 6 -19 19q0 11 9 18t20 11q14 5 28.5 12.5t26.5 18t20 24t8 30.5t-11 27t-31 10q-26 0 -42 -14.5t-26 -31.5q-12 -20 -33 -20q-11 0 -16.5 7t-5.5 17q0 14 9.5 33t28.5 35.5t47.5 28t66.5 11.5q28 0 48.5 -7t33.5 -18.5t19 -26.5
t6 -31zM800 691q0 -7 -9 -17l-519 -658q-8 -9 -14 -12.5t-17 -3.5h-32q-15 0 -15 15q0 5 3 9l5 8l520 658q7 8 13.5 12t17.5 4h31q16 0 16 -15zM708 328q-8 -12 -17 -23.5t-18 -22.5l-108 -128h103q10 44 18.5 87.5t22.5 86.5h-1z" />
    <glyph glyph-name="questiondown" unicode="&#xbf;" horiz-adv-x="539" 
d="M428 -43q0 -24 -17.5 -51.5t-50.5 -51t-80 -38.5t-105 -15q-48 0 -84 12t-59 31t-34.5 43t-11.5 48q0 33 13 60t34 48.5t47 38.5t53 32q18 10 29 18.5t18 17.5t11 20.5t9 26.5l18 62q6 19 25 19h66q18 0 18 -17v-4q0 -2 -1 -7l-14 -99q-3 -23 -12 -37.5t-35 -28.5
q-21 -12 -43 -27t-40 -33t-29.5 -38.5t-11.5 -43.5q0 -26 16 -40.5t45 -14.5q36 0 59 22t40 50q14 23 30.5 35.5t39.5 12.5q26 0 41.5 -14t15.5 -37zM394 458q0 -21 -8 -39.5t-22.5 -32.5t-33 -22t-39.5 -8q-32 0 -54 22.5t-22 52.5q0 21 8.5 39.5t22.5 32t32.5 21.5t39.5 8
q32 0 54 -22t22 -52z" />
    <glyph glyph-name="Agrave" unicode="&#xc0;" horiz-adv-x="661" 
d="M603 21q0 -8 -6 -14.5t-17 -6.5h-116q-21 0 -22 19l-13 157h-232l-82 -158q-5 -10 -11 -14t-17 -4h-101q-10 0 -14.5 5t-4.5 12q0 8 8 21l367 648q6 11 12 15.5t18 4.5h115q20 0 23 -20l92 -651q1 -5 1 -9v-5zM402 476q-3 30 -3 60q0 23 0.5 32.5t1.5 20.5h-2l-6 -18
q-4 -12 -10 -28t-13.5 -33.5t-16.5 -33.5l-109 -210h177zM477 779q0 -6 -4.5 -10t-10.5 -4h-42q-14 0 -26 14l-86 102q-6 6 -6 13q0 11 15.5 18t42.5 7q25 0 46.5 -7.5t28.5 -24.5q2 -5 8.5 -21t14 -34.5t13.5 -34t6 -18.5z" />
    <glyph glyph-name="Aacute" unicode="&#xc1;" horiz-adv-x="661" 
d="M603 21q0 -8 -6 -14.5t-17 -6.5h-116q-21 0 -22 19l-13 157h-232l-82 -158q-5 -10 -11 -14t-17 -4h-101q-10 0 -14.5 5t-4.5 12q0 8 8 21l367 648q6 11 12 15.5t18 4.5h115q20 0 23 -20l92 -651q1 -5 1 -9v-5zM402 476q-3 30 -3 60q0 23 0.5 32.5t1.5 20.5h-2l-6 -18
q-4 -12 -10 -28t-13.5 -33.5t-16.5 -33.5l-109 -210h177zM620 897q0 -9 -8 -15l-136 -107q-13 -10 -27 -10h-44q-13 0 -13 12q0 5 6 13l80 97q12 15 35 23.5t58 8.5q21 0 35 -6t14 -16z" />
    <glyph glyph-name="Acircumflex" unicode="&#xc2;" horiz-adv-x="661" 
d="M603 21q0 -8 -6 -14.5t-17 -6.5h-116q-21 0 -22 19l-13 157h-232l-82 -158q-5 -10 -11 -14t-17 -4h-101q-10 0 -14.5 5t-4.5 12q0 8 8 21l367 648q6 11 12 15.5t18 4.5h115q20 0 23 -20l92 -651q1 -5 1 -9v-5zM402 476q-3 30 -3 60q0 23 0.5 32.5t1.5 20.5h-2l-6 -18
q-4 -12 -10 -28t-13.5 -33.5t-16.5 -33.5l-109 -210h177zM583 786q0 -11 -8.5 -20t-21.5 -9q-8 0 -13.5 3t-10.5 6l-66 46q-9 6 -18 6q-4 0 -10 -1.5t-11 -4.5l-85 -46q-5 -3 -12.5 -6t-15.5 -3q-11 0 -18.5 6.5t-7.5 15.5q0 10 7 17.5t17 12.5q31 17 62.5 41.5t60.5 55.5
q5 5 13 10t18 5t16 -5t9 -10q16 -31 37.5 -56t44.5 -42q13 -10 13 -22z" />
    <glyph glyph-name="Atilde" unicode="&#xc3;" horiz-adv-x="661" 
d="M603 21q0 -8 -6 -14.5t-17 -6.5h-116q-21 0 -22 19l-13 157h-232l-82 -158q-5 -10 -11 -14t-17 -4h-101q-10 0 -14.5 5t-4.5 12q0 8 8 21l367 648q6 11 12 15.5t18 4.5h115q20 0 23 -20l92 -651q1 -5 1 -9v-5zM402 476q-3 30 -3 60q0 23 0.5 32.5t1.5 20.5h-2l-6 -18
q-4 -12 -10 -28t-13.5 -33.5t-16.5 -33.5l-109 -210h177zM604 878q0 -10 -6 -28t-19 -36t-34.5 -31.5t-51.5 -13.5q-20 0 -33 8t-23.5 18t-21 18t-25.5 8q-17 0 -26.5 -8.5t-17.5 -19t-15.5 -19t-19.5 -8.5q-21 0 -21 21q0 10 6 28.5t19.5 36.5t34 31t50.5 13q20 0 33 -8
t23.5 -17.5t21.5 -17.5t26 -8q16 0 26 8.5t18 18.5t15.5 18.5t19.5 8.5q21 0 21 -21z" />
    <glyph glyph-name="Adieresis" unicode="&#xc4;" horiz-adv-x="661" 
d="M603 21q0 -8 -6 -14.5t-17 -6.5h-116q-21 0 -22 19l-13 157h-232l-82 -158q-5 -10 -11 -14t-17 -4h-101q-10 0 -14.5 5t-4.5 12q0 8 8 21l367 648q6 11 12 15.5t18 4.5h115q20 0 23 -20l92 -651q1 -5 1 -9v-5zM402 476q-3 30 -3 60q0 23 0.5 32.5t1.5 20.5h-2l-6 -18
q-4 -12 -10 -28t-13.5 -33.5t-16.5 -33.5l-109 -210h177zM413 833q0 -15 -6 -27.5t-16.5 -21.5t-24 -14t-27.5 -5q-23 0 -38.5 15.5t-15.5 36.5q0 15 6 27.5t16.5 21.5t24 14.5t27.5 5.5q23 0 38.5 -16t15.5 -37zM600 833q0 -15 -6 -27.5t-16.5 -21.5t-24 -14t-27.5 -5
q-23 0 -38.5 15.5t-15.5 36.5q0 15 6 27.5t16.5 21.5t24 14.5t27.5 5.5q23 0 38.5 -16t15.5 -37z" />
    <glyph glyph-name="Aring" unicode="&#xc5;" horiz-adv-x="661" 
d="M603 21q0 -8 -6 -14.5t-17 -6.5h-116q-21 0 -22 19l-13 157h-232l-82 -158q-5 -10 -11 -14t-17 -4h-101q-10 0 -14.5 5t-4.5 12q0 8 8 21l367 648q6 11 12 15.5t18 4.5h115q20 0 23 -20l92 -651q1 -5 1 -9v-5zM402 476q-3 30 -3 60q0 23 0.5 32.5t1.5 20.5h-2l-6 -18
q-4 -12 -10 -28t-13.5 -33.5t-16.5 -33.5l-109 -210h177zM554 867q0 -23 -9 -43t-24.5 -35t-36.5 -24t-44 -9q-36 0 -59.5 24t-23.5 57q0 22 9 42.5t25 35.5t36.5 24t43.5 9q35 0 59 -24t24 -57zM499 859q0 15 -10 26.5t-26 11.5q-20 0 -35.5 -15.5t-15.5 -35.5
q0 -15 10 -26t26 -11q21 0 36 14.5t15 35.5z" />
    <glyph glyph-name="AE" unicode="&#xc6;" horiz-adv-x="858" 
d="M847 687q0 -2 -1.5 -10.5t-4 -19t-4.5 -20.5l-3 -15q-2 -8 -8.5 -13t-14.5 -5h-246l5 -190h197q19 0 19 -19q0 -2 -2 -11t-4.5 -19.5t-4.5 -20t-3 -12.5q-2 -8 -8 -13t-14 -5h-180l4 -209h203q19 0 19 -19q0 -3 -1.5 -11t-3.5 -18.5t-4.5 -21t-3.5 -17.5q-2 -8 -8.5 -13
t-14.5 -5h-319q-22 0 -22 19l5 163h-214l-103 -165q-10 -17 -30 -17h-99q-19 0 -19 17q0 5 2.5 10t5.5 9l432 652q12 18 32 18h397q19 0 19 -19zM442 584q-4 -9 -11 -25t-16.5 -35t-20.5 -39.5t-21 -36.5l-109 -175h164l5 175q2 37 5 73.5t6 62.5h-2z" />
    <glyph glyph-name="Ccedilla" unicode="&#xc7;" horiz-adv-x="638" 
d="M675 576q0 -35 -19 -54t-52 -19q-28 0 -43.5 14t-23.5 37q-4 11 -9.5 23.5t-15.5 23.5t-26 18t-41 7q-48 0 -87 -33t-66 -83.5t-41.5 -110.5t-14.5 -114q0 -84 35.5 -134t101.5 -50q23 0 42.5 5t36 13t30.5 17.5t25 18.5q11 8 20 12t20 4q19 0 28.5 -9.5t9.5 -23.5
q0 -21 -18 -47.5t-51.5 -50t-80.5 -40t-104 -16.5q-2 0 -5.5 0.5t-5.5 0.5l-34 -46q57 -1 83.5 -21t26.5 -50q0 -24 -13.5 -43t-37 -32.5t-56 -21t-70.5 -7.5q-20 0 -40 2.5t-36 8t-25.5 13t-9.5 17.5q0 14 9 20t21 6q10 0 18 -1.5t17 -4t20.5 -4t29.5 -1.5q34 0 55 12.5
t21 30.5q0 14 -18 24t-64 10q-8 0 -13 4.5t-5 10.5q0 5 7 16l45 67q-46 12 -81 36.5t-58.5 59t-35.5 77.5t-12 91q0 94 29.5 178t82.5 147.5t126 100.5t161 37q54 0 94 -14.5t66.5 -36.5t39 -47.5t12.5 -47.5z" />
    <glyph glyph-name="Egrave" unicode="&#xc8;" horiz-adv-x="507" 
d="M564 687q0 -3 -2 -13l-11 -52q-2 -8 -8 -13t-15 -5h-224l-40 -190h184q19 0 19 -19q0 -2 -2 -12l-11 -51q-2 -7 -8 -12.5t-15 -5.5h-188l-45 -209h219q19 0 19 -19v-3q0 -1 -1 -6l-13 -59q-2 -8 -7.5 -13t-14.5 -5h-359q-19 0 -19 19q0 3 2 13l140 656q2 8 8 13t15 5h358
q19 0 19 -19zM408 779q0 -6 -4.5 -10t-10.5 -4h-42q-14 0 -26 14l-86 102q-6 6 -6 13q0 11 15.5 18t42.5 7q25 0 46.5 -7.5t28.5 -24.5q2 -5 8.5 -21t14 -34.5t13.5 -34t6 -18.5z" />
    <glyph glyph-name="Eacute" unicode="&#xc9;" horiz-adv-x="507" 
d="M564 687q0 -3 -2 -13l-11 -52q-2 -8 -8 -13t-15 -5h-224l-40 -190h184q19 0 19 -19q0 -2 -2 -12l-11 -51q-2 -7 -8 -12.5t-15 -5.5h-188l-45 -209h219q19 0 19 -19v-3q0 -1 -1 -6l-13 -59q-2 -8 -7.5 -13t-14.5 -5h-359q-19 0 -19 19q0 3 2 13l140 656q2 8 8 13t15 5h358
q19 0 19 -19zM537 897q0 -9 -8 -15l-136 -107q-13 -10 -27 -10h-44q-13 0 -13 12q0 5 6 13l80 97q12 15 35 23.5t58 8.5q21 0 35 -6t14 -16z" />
    <glyph glyph-name="Ecircumflex" unicode="&#xca;" horiz-adv-x="507" 
d="M564 687q0 -3 -2 -13l-11 -52q-2 -8 -8 -13t-15 -5h-224l-40 -190h184q19 0 19 -19q0 -2 -2 -12l-11 -51q-2 -7 -8 -12.5t-15 -5.5h-188l-45 -209h219q19 0 19 -19v-3q0 -1 -1 -6l-13 -59q-2 -8 -7.5 -13t-14.5 -5h-359q-19 0 -19 19q0 3 2 13l140 656q2 8 8 13t15 5h358
q19 0 19 -19zM519 786q0 -11 -8.5 -20t-21.5 -9q-8 0 -13.5 3t-10.5 6l-66 46q-9 6 -18 6q-4 0 -10 -1.5t-11 -4.5l-85 -46q-5 -3 -12.5 -6t-15.5 -3q-11 0 -18.5 6.5t-7.5 15.5q0 10 7 17.5t17 12.5q31 17 62.5 41.5t60.5 55.5q5 5 13 10t18 5t16 -5t9 -10q16 -31 37.5 -56
t44.5 -42q13 -10 13 -22z" />
    <glyph glyph-name="Edieresis" unicode="&#xcb;" horiz-adv-x="507" 
d="M564 687q0 -3 -2 -13l-11 -52q-2 -8 -8 -13t-15 -5h-224l-40 -190h184q19 0 19 -19q0 -2 -2 -12l-11 -51q-2 -7 -8 -12.5t-15 -5.5h-188l-45 -209h219q19 0 19 -19v-3q0 -1 -1 -6l-13 -59q-2 -8 -7.5 -13t-14.5 -5h-359q-19 0 -19 19q0 3 2 13l140 656q2 8 8 13t15 5h358
q19 0 19 -19zM351 833q0 -15 -6 -27.5t-16.5 -21.5t-24 -14t-27.5 -5q-23 0 -38.5 15.5t-15.5 36.5q0 15 6 27.5t16.5 21.5t24 14.5t27.5 5.5q23 0 38.5 -16t15.5 -37zM538 833q0 -15 -6 -27.5t-16.5 -21.5t-24 -14t-27.5 -5q-23 0 -38.5 15.5t-15.5 36.5q0 15 6 27.5
t16.5 21.5t24 14.5t27.5 5.5q23 0 38.5 -16t15.5 -37z" />
    <glyph glyph-name="Igrave" unicode="&#xcc;" horiz-adv-x="297" 
d="M325 687q0 -3 -2 -13l-140 -656q-2 -8 -8 -13t-15 -5h-116q-19 0 -19 19q0 3 2 13l140 656q2 8 8 13t15 5h116q19 0 19 -19zM316 779q0 -6 -4.5 -10t-10.5 -4h-42q-14 0 -26 14l-86 102q-6 6 -6 13q0 11 15.5 18t42.5 7q25 0 46.5 -7.5t28.5 -24.5q2 -5 8.5 -21t14 -34.5
t13.5 -34t6 -18.5z" />
    <glyph glyph-name="Iacute" unicode="&#xcd;" horiz-adv-x="297" 
d="M325 687q0 -3 -2 -13l-140 -656q-2 -8 -8 -13t-15 -5h-116q-19 0 -19 19q0 3 2 13l140 656q2 8 8 13t15 5h116q19 0 19 -19zM428 897q0 -9 -8 -15l-136 -107q-13 -10 -27 -10h-44q-13 0 -13 12q0 5 6 13l80 97q12 15 35 23.5t58 8.5q21 0 35 -6t14 -16z" />
    <glyph glyph-name="Icircumflex" unicode="&#xce;" horiz-adv-x="297" 
d="M325 687q0 -3 -2 -13l-140 -656q-2 -8 -8 -13t-15 -5h-116q-19 0 -19 19q0 3 2 13l140 656q2 8 8 13t15 5h116q19 0 19 -19zM407 786q0 -11 -8.5 -20t-21.5 -9q-8 0 -13.5 3t-10.5 6l-66 46q-9 6 -18 6q-4 0 -10 -1.5t-11 -4.5l-85 -46q-5 -3 -12.5 -6t-15.5 -3
q-11 0 -18.5 6.5t-7.5 15.5q0 10 7 17.5t17 12.5q31 17 62.5 41.5t60.5 55.5q5 5 13 10t18 5t16 -5t9 -10q16 -31 37.5 -56t44.5 -42q13 -10 13 -22z" />
    <glyph glyph-name="Idieresis" unicode="&#xcf;" horiz-adv-x="297" 
d="M325 687q0 -3 -2 -13l-140 -656q-2 -8 -8 -13t-15 -5h-116q-19 0 -19 19q0 3 2 13l140 656q2 8 8 13t15 5h116q19 0 19 -19zM240 833q0 -15 -6 -27.5t-16.5 -21.5t-24 -14t-27.5 -5q-23 0 -38.5 15.5t-15.5 36.5q0 15 6 27.5t16.5 21.5t24 14.5t27.5 5.5q23 0 38.5 -16
t15.5 -37zM427 833q0 -15 -6 -27.5t-16.5 -21.5t-24 -14t-27.5 -5q-23 0 -38.5 15.5t-15.5 36.5q0 15 6 27.5t16.5 21.5t24 14.5t27.5 5.5q23 0 38.5 -16t15.5 -37z" />
    <glyph glyph-name="Eth" unicode="&#xd0;" horiz-adv-x="696" 
d="M686 451q0 -50 -9.5 -101t-28.5 -99t-48 -90.5t-67 -74.5q-111 -95 -310 -95q-27 0 -54 2t-50 4.5t-40 5.5t-24 5q-16 6 -16 22v4q0 3 2 10l58 276h-40q-19 0 -19 19q0 2 2 12l9 40q2 7 8 12.5t15 5.5h45l55 263q4 19 27 26q7 2 24 5t40 5.5t50.5 4.5t56.5 2
q80 0 139 -19.5t98 -54.5t58 -83.5t19 -106.5zM526 470q0 31 -7.5 59.5t-25 50.5t-46.5 34.5t-72 12.5q-16 0 -32 -1t-24 -3l-45 -214h90q19 0 19 -19q0 -2 -2 -12l-9 -40q-2 -7 -8 -12.5t-15 -5.5h-94l-49 -229q9 -2 23.5 -3t30.5 -1q103 0 165 70q23 26 42 65t32 82
t20 86.5t7 79.5z" />
    <glyph glyph-name="Ntilde" unicode="&#xd1;" horiz-adv-x="714" 
d="M744 687q0 -5 -2 -13l-139 -655q-5 -19 -25 -19h-91q-11 0 -16 4.5t-10 14.5l-170 385q-13 29 -22 60.5t-16 63.5h-2q-3 -26 -8.5 -63t-12.5 -69l-80 -376q-5 -20 -24 -20h-85q-18 0 -18 19q0 4 1 8l140 660q1 6 6.5 12.5t17.5 6.5h115q11 0 16 -4.5t10 -14.5l154 -346
q11 -25 21.5 -59.5t17.5 -66.5h2q4 35 8.5 69t12.5 68l72 336q4 18 23 18h85q19 0 19 -19zM634 878q0 -10 -6 -28t-19 -36t-34.5 -31.5t-51.5 -13.5q-20 0 -33 8t-23.5 18t-21 18t-25.5 8q-17 0 -26.5 -8.5t-17.5 -19t-15.5 -19t-19.5 -8.5q-21 0 -21 21q0 10 6 28.5
t19.5 36.5t34 31t50.5 13q20 0 33 -8t23.5 -17.5t21.5 -17.5t26 -8q16 0 26 8.5t18 18.5t15.5 18.5t19.5 8.5q21 0 21 -21z" />
    <glyph glyph-name="Ograve" unicode="&#xd2;" horiz-adv-x="717" 
d="M707 457q0 -91 -27 -176t-77.5 -151t-122.5 -106t-163 -40q-55 0 -101.5 18.5t-80.5 53t-53 84.5t-19 114q0 91 27.5 175.5t78 149.5t122.5 104t162 39q56 0 103 -18.5t80.5 -52.5t52 -83.5t18.5 -110.5zM547 479q0 69 -28 106.5t-79 37.5q-39 0 -72 -21t-59 -61
q-18 -28 -33.5 -66t-26.5 -79t-17 -82t-6 -75q0 -71 28 -108.5t77 -37.5q33 0 63.5 16.5t55.5 47.5q22 27 39.5 67.5t30.5 85t20 89t7 80.5zM515 779q0 -6 -4.5 -10t-10.5 -4h-42q-14 0 -26 14l-86 102q-6 6 -6 13q0 11 15.5 18t42.5 7q25 0 46.5 -7.5t28.5 -24.5
q2 -5 8.5 -21t14 -34.5t13.5 -34t6 -18.5z" />
    <glyph glyph-name="Oacute" unicode="&#xd3;" horiz-adv-x="717" 
d="M707 457q0 -91 -27 -176t-77.5 -151t-122.5 -106t-163 -40q-55 0 -101.5 18.5t-80.5 53t-53 84.5t-19 114q0 91 27.5 175.5t78 149.5t122.5 104t162 39q56 0 103 -18.5t80.5 -52.5t52 -83.5t18.5 -110.5zM547 479q0 69 -28 106.5t-79 37.5q-39 0 -72 -21t-59 -61
q-18 -28 -33.5 -66t-26.5 -79t-17 -82t-6 -75q0 -71 28 -108.5t77 -37.5q33 0 63.5 16.5t55.5 47.5q22 27 39.5 67.5t30.5 85t20 89t7 80.5zM638 897q0 -9 -8 -15l-136 -107q-13 -10 -27 -10h-44q-13 0 -13 12q0 5 6 13l80 97q12 15 35 23.5t58 8.5q21 0 35 -6t14 -16z" />
    <glyph glyph-name="Ocircumflex" unicode="&#xd4;" horiz-adv-x="717" 
d="M707 457q0 -91 -27 -176t-77.5 -151t-122.5 -106t-163 -40q-55 0 -101.5 18.5t-80.5 53t-53 84.5t-19 114q0 91 27.5 175.5t78 149.5t122.5 104t162 39q56 0 103 -18.5t80.5 -52.5t52 -83.5t18.5 -110.5zM547 479q0 69 -28 106.5t-79 37.5q-39 0 -72 -21t-59 -61
q-18 -28 -33.5 -66t-26.5 -79t-17 -82t-6 -75q0 -71 28 -108.5t77 -37.5q33 0 63.5 16.5t55.5 47.5q22 27 39.5 67.5t30.5 85t20 89t7 80.5zM614 786q0 -11 -8.5 -20t-21.5 -9q-8 0 -13.5 3t-10.5 6l-66 46q-9 6 -18 6q-4 0 -10 -1.5t-11 -4.5l-85 -46q-5 -3 -12.5 -6
t-15.5 -3q-11 0 -18.5 6.5t-7.5 15.5q0 10 7 17.5t17 12.5q31 17 62.5 41.5t60.5 55.5q5 5 13 10t18 5t16 -5t9 -10q16 -31 37.5 -56t44.5 -42q13 -10 13 -22z" />
    <glyph glyph-name="Otilde" unicode="&#xd5;" horiz-adv-x="717" 
d="M707 457q0 -91 -27 -176t-77.5 -151t-122.5 -106t-163 -40q-55 0 -101.5 18.5t-80.5 53t-53 84.5t-19 114q0 91 27.5 175.5t78 149.5t122.5 104t162 39q56 0 103 -18.5t80.5 -52.5t52 -83.5t18.5 -110.5zM547 479q0 69 -28 106.5t-79 37.5q-39 0 -72 -21t-59 -61
q-18 -28 -33.5 -66t-26.5 -79t-17 -82t-6 -75q0 -71 28 -108.5t77 -37.5q33 0 63.5 16.5t55.5 47.5q22 27 39.5 67.5t30.5 85t20 89t7 80.5zM634 878q0 -10 -6 -28t-19 -36t-34.5 -31.5t-51.5 -13.5q-20 0 -33 8t-23.5 18t-21 18t-25.5 8q-17 0 -26.5 -8.5t-17.5 -19
t-15.5 -19t-19.5 -8.5q-21 0 -21 21q0 10 6 28.5t19.5 36.5t34 31t50.5 13q20 0 33 -8t23.5 -17.5t21.5 -17.5t26 -8q16 0 26 8.5t18 18.5t15.5 18.5t19.5 8.5q21 0 21 -21z" />
    <glyph glyph-name="Odieresis" unicode="&#xd6;" horiz-adv-x="717" 
d="M707 457q0 -91 -27 -176t-77.5 -151t-122.5 -106t-163 -40q-55 0 -101.5 18.5t-80.5 53t-53 84.5t-19 114q0 91 27.5 175.5t78 149.5t122.5 104t162 39q56 0 103 -18.5t80.5 -52.5t52 -83.5t18.5 -110.5zM547 479q0 69 -28 106.5t-79 37.5q-39 0 -72 -21t-59 -61
q-18 -28 -33.5 -66t-26.5 -79t-17 -82t-6 -75q0 -71 28 -108.5t77 -37.5q33 0 63.5 16.5t55.5 47.5q22 27 39.5 67.5t30.5 85t20 89t7 80.5zM445 833q0 -15 -6 -27.5t-16.5 -21.5t-24 -14t-27.5 -5q-23 0 -38.5 15.5t-15.5 36.5q0 15 6 27.5t16.5 21.5t24 14.5t27.5 5.5
q23 0 38.5 -16t15.5 -37zM632 833q0 -15 -6 -27.5t-16.5 -21.5t-24 -14t-27.5 -5q-23 0 -38.5 15.5t-15.5 36.5q0 15 6 27.5t16.5 21.5t24 14.5t27.5 5.5q23 0 38.5 -16t15.5 -37z" />
    <glyph glyph-name="multiply" unicode="&#xd7;" horiz-adv-x="556" 
d="M531 437q0 -8 -9 -15l-157 -128l100 -126q5 -5 5 -13q0 -11 -8 -17l-51 -42q-7 -5 -15 -5q-9 0 -14 7l-101 128l-157 -128q-2 -2 -7 -3.5t-8 -1.5q-9 0 -13 6l-37 45q-5 7 -5 14q0 5 2.5 8.5t5.5 6.5l159 129l-99 125q-5 7 -5 14q0 10 8 16l52 43q6 6 15 6q8 0 13 -7
l101 -128l156 127q7 5 13 5q7 0 13 -6l38 -47q5 -7 5 -13z" />
    <glyph glyph-name="Oslash" unicode="&#xd8;" horiz-adv-x="727" 
d="M778 741q0 -6 -6 -13l-102 -110q22 -32 33.5 -72.5t11.5 -88.5q0 -87 -26 -172t-76.5 -151.5t-124 -108t-168.5 -41.5q-54 0 -98 17t-76 47l-99 -108q-7 -7 -14 -7t-21 12q-12 10 -12 17q0 6 6 13l104 114q-46 69 -46 166q0 87 26 170.5t76 149.5t123.5 106.5t168.5 40.5
q55 0 99.5 -16.5t77.5 -46.5l96 104q7 8 13 8q7 0 21 -12q13 -11 13 -18zM549 566q-13 29 -37.5 47.5t-64.5 18.5q-44 0 -82.5 -24t-69.5 -72q-18 -28 -32.5 -63t-25 -72.5t-16 -76t-5.5 -72.5q0 -17 0.5 -26t1.5 -20zM567 470q0 12 -0.5 19t-1.5 15l-329 -359
q14 -28 38 -44t61 -16q75 0 132 69q21 26 39.5 64t32 80.5t21 87.5t7.5 84z" />
    <glyph glyph-name="Ugrave" unicode="&#xd9;" horiz-adv-x="656" 
d="M686 687q0 -3 -1 -8l-100 -469q-25 -116 -103.5 -171t-193.5 -55q-42 0 -83.5 10t-74.5 32t-53.5 55.5t-20.5 81.5q0 28 6 55l100 470q2 8 8.5 13t14.5 5h116q19 0 19 -19q0 -5 -2 -13l-97 -456q-2 -8 -3 -15.5t-1 -15.5q0 -42 26 -64t67 -22q54 0 89.5 33t46.5 84
l100 470q2 8 8.5 13t14.5 5h98q19 0 19 -19zM498 779q0 -6 -4.5 -10t-10.5 -4h-42q-14 0 -26 14l-86 102q-6 6 -6 13q0 11 15.5 18t42.5 7q25 0 46.5 -7.5t28.5 -24.5q2 -5 8.5 -21t14 -34.5t13.5 -34t6 -18.5z" />
    <glyph glyph-name="Uacute" unicode="&#xda;" horiz-adv-x="656" 
d="M686 687q0 -3 -1 -8l-100 -469q-25 -116 -103.5 -171t-193.5 -55q-42 0 -83.5 10t-74.5 32t-53.5 55.5t-20.5 81.5q0 28 6 55l100 470q2 8 8.5 13t14.5 5h116q19 0 19 -19q0 -5 -2 -13l-97 -456q-2 -8 -3 -15.5t-1 -15.5q0 -42 26 -64t67 -22q54 0 89.5 33t46.5 84
l100 470q2 8 8.5 13t14.5 5h98q19 0 19 -19zM615 897q0 -9 -8 -15l-136 -107q-13 -10 -27 -10h-44q-13 0 -13 12q0 5 6 13l80 97q12 15 35 23.5t58 8.5q21 0 35 -6t14 -16z" />
    <glyph glyph-name="Ucircumflex" unicode="&#xdb;" horiz-adv-x="656" 
d="M686 687q0 -3 -1 -8l-100 -469q-25 -116 -103.5 -171t-193.5 -55q-42 0 -83.5 10t-74.5 32t-53.5 55.5t-20.5 81.5q0 28 6 55l100 470q2 8 8.5 13t14.5 5h116q19 0 19 -19q0 -5 -2 -13l-97 -456q-2 -8 -3 -15.5t-1 -15.5q0 -42 26 -64t67 -22q54 0 89.5 33t46.5 84
l100 470q2 8 8.5 13t14.5 5h98q19 0 19 -19zM592 786q0 -11 -8.5 -20t-21.5 -9q-8 0 -13.5 3t-10.5 6l-66 46q-9 6 -18 6q-4 0 -10 -1.5t-11 -4.5l-85 -46q-5 -3 -12.5 -6t-15.5 -3q-11 0 -18.5 6.5t-7.5 15.5q0 10 7 17.5t17 12.5q31 17 62.5 41.5t60.5 55.5q5 5 13 10
t18 5t16 -5t9 -10q16 -31 37.5 -56t44.5 -42q13 -10 13 -22z" />
    <glyph glyph-name="Udieresis" unicode="&#xdc;" horiz-adv-x="656" 
d="M686 687q0 -3 -1 -8l-100 -469q-25 -116 -103.5 -171t-193.5 -55q-42 0 -83.5 10t-74.5 32t-53.5 55.5t-20.5 81.5q0 28 6 55l100 470q2 8 8.5 13t14.5 5h116q19 0 19 -19q0 -5 -2 -13l-97 -456q-2 -8 -3 -15.5t-1 -15.5q0 -42 26 -64t67 -22q54 0 89.5 33t46.5 84
l100 470q2 8 8.5 13t14.5 5h98q19 0 19 -19zM421 833q0 -15 -6 -27.5t-16.5 -21.5t-24 -14t-27.5 -5q-23 0 -38.5 15.5t-15.5 36.5q0 15 6 27.5t16.5 21.5t24 14.5t27.5 5.5q23 0 38.5 -16t15.5 -37zM608 833q0 -15 -6 -27.5t-16.5 -21.5t-24 -14t-27.5 -5q-23 0 -38.5 15.5
t-15.5 36.5q0 15 6 27.5t16.5 21.5t24 14.5t27.5 5.5q23 0 38.5 -16t15.5 -37z" />
    <glyph glyph-name="Yacute" unicode="&#xdd;" horiz-adv-x="582" 
d="M665 688q0 -8 -6 -16l-271 -354l-63 -300q-2 -8 -8.5 -13t-14.5 -5h-117q-18 0 -18 19q0 3 1 8l61 291l-119 356q-2 8 -2 12q0 20 22 20h120q20 0 26 -20l62 -241h2l176 246q11 15 28 15h101q20 0 20 -18zM583 897q0 -9 -8 -15l-136 -107q-13 -10 -27 -10h-44
q-13 0 -13 12q0 5 6 13l80 97q12 15 35 23.5t58 8.5q21 0 35 -6t14 -16z" />
    <glyph glyph-name="Thorn" unicode="&#xde;" horiz-adv-x="596" 
d="M595 417q0 -47 -15.5 -94.5t-54 -85t-103 -61t-162.5 -23.5q-31 0 -52 3l-29 -138q-2 -8 -8 -13t-15 -5h-115q-19 0 -19 19v5q0 3 2 8l140 656q2 8 8 13t15 5h115q19 0 19 -19q0 -3 -2 -13l-20 -90q22 5 59 5q48 0 91.5 -10.5t75.5 -31.5t51 -53.5t19 -76.5zM436 412
q0 88 -100 88q-18 0 -32.5 -1t-23.5 -3l-54 -253q7 -1 16 -1.5t19 -0.5q49 0 83 16.5t54 41.5t29 55t9 58z" />
    <glyph glyph-name="germandbls" unicode="&#xdf;" horiz-adv-x="622" 
d="M599 656q0 -32 -11 -58t-27 -48.5t-35 -41t-35 -37t-27 -36.5t-11 -38q0 -25 18.5 -46.5t41 -44.5t41.5 -52t19 -69q0 -35 -14 -70t-40.5 -63.5t-66 -46.5t-90.5 -18q-27 0 -51 7t-41 18t-27 26t-10 31q0 26 17.5 41.5t39.5 15.5q17 0 27 -6.5t19 -17.5t19.5 -18t27.5 -7
q27 0 45.5 21.5t18.5 49.5q0 19 -10 36t-25 33t-33 32t-33 33.5t-25 37t-10 42.5q0 29 11.5 52.5t28.5 45t37.5 41.5t37.5 40.5t28.5 43t11.5 49.5q0 30 -18.5 47t-50.5 17q-36 0 -69 -30.5t-48 -99.5l-118 -550q-2 -8 -7.5 -13t-14.5 -5h-104q-19 0 -19 19q0 5 1 10l94 437
q18 84 48 143.5t70 97t89 55t106 17.5q35 0 66.5 -8.5t55.5 -24.5t38 -39t14 -51z" />
    <glyph glyph-name="agrave" unicode="&#xe0;" horiz-adv-x="528" 
d="M502 406q0 -5 -0.5 -14t-2.5 -18l-59 -273q-7 -32 -18.5 -50t-37.5 -32q-11 -6 -29 -12t-41 -10.5t-48.5 -7t-49.5 -2.5q-40 0 -76.5 7t-64 22t-44 38.5t-16.5 55.5q0 58 32 95t81.5 60.5t107.5 35.5t111 21l14 66q2 6 2 11v8q0 23 -13.5 36t-36.5 13q-32 0 -54.5 -19
t-37.5 -48q-10 -19 -28 -29.5t-44 -10.5q-23 0 -38.5 12.5t-15.5 33.5q0 23 16 47t47 44t77.5 32.5t106.5 12.5q70 0 115 -32t45 -93zM333 255q-33 -5 -64.5 -15.5t-56.5 -26.5t-40.5 -38t-15.5 -52q0 -26 18 -43t53 -17q25 0 47.5 11t28.5 39zM419 592q0 -6 -4.5 -10
t-10.5 -4h-42q-14 0 -26 14l-86 102q-6 6 -6 13q0 8 7 13t16.5 7.5t19 3.5t15.5 1q9 0 20.5 -1.5t22.5 -5t19.5 -9.5t12.5 -16q2 -5 8.5 -21t14 -34t13.5 -33.5t6 -19.5z" />
    <glyph glyph-name="aacute" unicode="&#xe1;" horiz-adv-x="528" 
d="M502 406q0 -5 -0.5 -14t-2.5 -18l-59 -273q-7 -32 -18.5 -50t-37.5 -32q-11 -6 -29 -12t-41 -10.5t-48.5 -7t-49.5 -2.5q-40 0 -76.5 7t-64 22t-44 38.5t-16.5 55.5q0 58 32 95t81.5 60.5t107.5 35.5t111 21l14 66q2 6 2 11v8q0 23 -13.5 36t-36.5 13q-32 0 -54.5 -19
t-37.5 -48q-10 -19 -28 -29.5t-44 -10.5q-23 0 -38.5 12.5t-15.5 33.5q0 23 16 47t47 44t77.5 32.5t106.5 12.5q70 0 115 -32t45 -93zM333 255q-33 -5 -64.5 -15.5t-56.5 -26.5t-40.5 -38t-15.5 -52q0 -26 18 -43t53 -17q25 0 47.5 11t28.5 39zM529 710q0 -9 -8 -15
l-136 -107q-11 -10 -27 -10h-44q-13 0 -13 12q0 5 6 13l80 97q17 20 42.5 26t50.5 6q6 0 14 -1t16 -3.5t13.5 -6.5t5.5 -11z" />
    <glyph glyph-name="acircumflex" unicode="&#xe2;" horiz-adv-x="528" 
d="M502 406q0 -5 -0.5 -14t-2.5 -18l-59 -273q-7 -32 -18.5 -50t-37.5 -32q-11 -6 -29 -12t-41 -10.5t-48.5 -7t-49.5 -2.5q-40 0 -76.5 7t-64 22t-44 38.5t-16.5 55.5q0 58 32 95t81.5 60.5t107.5 35.5t111 21l14 66q2 6 2 11v8q0 23 -13.5 36t-36.5 13q-32 0 -54.5 -19
t-37.5 -48q-10 -19 -28 -29.5t-44 -10.5q-23 0 -38.5 12.5t-15.5 33.5q0 23 16 47t47 44t77.5 32.5t106.5 12.5q70 0 115 -32t45 -93zM333 255q-33 -5 -64.5 -15.5t-56.5 -26.5t-40.5 -38t-15.5 -52q0 -26 18 -43t53 -17q25 0 47.5 11t28.5 39zM502 599q0 -11 -8.5 -20
t-21.5 -9q-8 0 -13.5 3t-10.5 6l-66 46q-9 6 -18 6q-5 0 -10.5 -2t-10.5 -4l-85 -46q-5 -3 -12.5 -6t-15.5 -3q-11 0 -18.5 6.5t-7.5 15.5q0 10 7 17.5t17 12.5q31 17 62.5 41.5t60.5 55.5q5 5 13 10t18 5t16 -5t9 -10q16 -31 37.5 -56t44.5 -42q13 -10 13 -22z" />
    <glyph glyph-name="atilde" unicode="&#xe3;" horiz-adv-x="528" 
d="M502 406q0 -5 -0.5 -14t-2.5 -18l-59 -273q-7 -32 -18.5 -50t-37.5 -32q-11 -6 -29 -12t-41 -10.5t-48.5 -7t-49.5 -2.5q-40 0 -76.5 7t-64 22t-44 38.5t-16.5 55.5q0 58 32 95t81.5 60.5t107.5 35.5t111 21l14 66q2 6 2 11v8q0 23 -13.5 36t-36.5 13q-32 0 -54.5 -19
t-37.5 -48q-10 -19 -28 -29.5t-44 -10.5q-23 0 -38.5 12.5t-15.5 33.5q0 23 16 47t47 44t77.5 32.5t106.5 12.5q70 0 115 -32t45 -93zM333 255q-33 -5 -64.5 -15.5t-56.5 -26.5t-40.5 -38t-15.5 -52q0 -26 18 -43t53 -17q25 0 47.5 11t28.5 39zM522 691q0 -10 -6 -28
t-19 -36t-34.5 -31.5t-51.5 -13.5q-20 0 -33 8t-23.5 18t-21 18t-25.5 8q-17 0 -26.5 -8.5t-17.5 -19t-15.5 -19t-19.5 -8.5q-21 0 -21 21q0 10 6 28.5t19.5 36.5t34 31t50.5 13q20 0 33 -8t23.5 -17.5t21.5 -17.5t26 -8q16 0 26 8.5t18 18.5t15.5 18.5t19.5 8.5
q21 0 21 -21z" />
    <glyph glyph-name="adieresis" unicode="&#xe4;" horiz-adv-x="528" 
d="M502 406q0 -5 -0.5 -14t-2.5 -18l-59 -273q-7 -32 -18.5 -50t-37.5 -32q-11 -6 -29 -12t-41 -10.5t-48.5 -7t-49.5 -2.5q-40 0 -76.5 7t-64 22t-44 38.5t-16.5 55.5q0 58 32 95t81.5 60.5t107.5 35.5t111 21l14 66q2 6 2 11v8q0 23 -13.5 36t-36.5 13q-32 0 -54.5 -19
t-37.5 -48q-10 -19 -28 -29.5t-44 -10.5q-23 0 -38.5 12.5t-15.5 33.5q0 23 16 47t47 44t77.5 32.5t106.5 12.5q70 0 115 -32t45 -93zM333 255q-33 -5 -64.5 -15.5t-56.5 -26.5t-40.5 -38t-15.5 -52q0 -26 18 -43t53 -17q25 0 47.5 11t28.5 39zM338 646q0 -15 -6 -27.5
t-16.5 -21.5t-24 -14t-27.5 -5q-23 0 -38.5 15.5t-15.5 36.5q0 15 6 27.5t16.5 21.5t24 14.5t27.5 5.5q23 0 38.5 -16t15.5 -37zM524 646q0 -15 -6 -27.5t-16.5 -21.5t-24 -14t-27.5 -5q-23 0 -38.5 15.5t-15.5 36.5q0 15 6 27.5t16.5 21.5t24 14.5t27.5 5.5q23 0 38.5 -16
t15.5 -37z" />
    <glyph glyph-name="aring" unicode="&#xe5;" horiz-adv-x="528" 
d="M502 406q0 -5 -0.5 -14t-2.5 -18l-59 -273q-7 -32 -18.5 -50t-37.5 -32q-11 -6 -29 -12t-41 -10.5t-48.5 -7t-49.5 -2.5q-40 0 -76.5 7t-64 22t-44 38.5t-16.5 55.5q0 58 32 95t81.5 60.5t107.5 35.5t111 21l14 66q2 6 2 11v8q0 23 -13.5 36t-36.5 13q-32 0 -54.5 -19
t-37.5 -48q-10 -19 -28 -29.5t-44 -10.5q-23 0 -38.5 12.5t-15.5 33.5q0 23 16 47t47 44t77.5 32.5t106.5 12.5q70 0 115 -32t45 -93zM333 255q-33 -5 -64.5 -15.5t-56.5 -26.5t-40.5 -38t-15.5 -52q0 -26 18 -43t53 -17q25 0 47.5 11t28.5 39zM473 681q0 -23 -9 -43
t-24.5 -35t-36.5 -24t-44 -9q-36 0 -59.5 24t-23.5 57q0 22 9 42.5t25 35.5t36.5 24t43.5 9q35 0 59 -24t24 -57zM418 673q0 15 -10 26.5t-26 11.5q-20 0 -35.5 -15.5t-15.5 -35.5q0 -15 10 -26t26 -11q21 0 36 14.5t15 35.5z" />
    <glyph glyph-name="ae" unicode="&#xe6;" horiz-adv-x="812" 
d="M796 366q0 -14 -3 -29t-8 -27q-8 -18 -31 -21l-289 -36q-1 -6 -1.5 -13.5t-0.5 -15.5q0 -24 5.5 -46.5t18 -40t33 -27.5t50.5 -10q20 0 38.5 7t35 17.5t29.5 22.5t23 23q7 8 15.5 13t19.5 5q13 0 20 -8t7 -20q0 -18 -14 -47.5t-42.5 -57.5t-71.5 -48.5t-100 -20.5
q-29 0 -54 8.5t-44 22t-32 30t-17 33.5h-2q-9 -16 -26 -32.5t-41 -30t-55 -22.5t-69 -9q-81 0 -128 32t-47 90q0 40 16 69t42.5 50.5t61 35.5t71 23t73 14t67.5 9l17 77q2 10 2 17q0 25 -16.5 38t-39.5 13q-32 0 -54 -19t-37 -48q-20 -39 -68 -39q-23 0 -38.5 12.5
t-15.5 33.5q0 22 16 46t45.5 44.5t71.5 33.5t94 13q58 0 93 -25.5t37 -60.5h2q12 16 30 31.5t40.5 27.5t49.5 19.5t57 7.5q36 0 66.5 -12.5t52 -35t33.5 -52.5t12 -65zM664 381q0 30 -13.5 51.5t-47.5 21.5q-24 0 -43.5 -11t-35.5 -29t-28 -42.5t-19 -51.5l184 26q3 18 3 35
zM333 244q-29 -4 -60.5 -11.5t-57.5 -21.5t-43 -35.5t-17 -52.5q0 -27 16 -42.5t47 -15.5q34 0 59.5 22t33.5 57z" />
    <glyph glyph-name="ccedilla" unicode="&#xe7;" horiz-adv-x="508" 
d="M509 403q0 -24 -15.5 -45t-53.5 -21q-48 0 -57 53q-5 23 -17.5 43t-44.5 20q-30 0 -55 -21t-43 -53.5t-28 -72t-10 -77.5q0 -54 22.5 -89t73.5 -35q20 0 37 6.5t31.5 16.5t27 22t22.5 24q16 18 34 18q12 0 20 -8t8 -23q0 -18 -13 -46t-38.5 -55t-64 -47.5t-88.5 -24.5
l-36 -49q57 -1 83.5 -21t26.5 -50q0 -24 -13.5 -43t-37.5 -32.5t-56.5 -21t-70.5 -7.5q-20 0 -40 2.5t-36 8t-25.5 13t-9.5 17.5q0 14 9.5 20t21.5 6q10 0 17.5 -1.5t16.5 -4t20.5 -4t29.5 -1.5q34 0 55.5 12.5t21.5 30.5q0 14 -19 24t-64 10q-8 0 -12.5 4.5t-4.5 10.5
q0 7 6 16l44 64q-62 14 -102.5 64t-40.5 131q0 70 21 132.5t59.5 109.5t92.5 74.5t121 27.5q45 0 77.5 -12.5t54 -32t32 -42t10.5 -41.5z" />
    <glyph glyph-name="egrave" unicode="&#xe8;" horiz-adv-x="531" 
d="M516 368q0 -27 -7 -48q-5 -17 -15 -24t-26 -9l-289 -46v-16q0 -24 5 -46.5t17 -40t32 -27.5t50 -10q21 0 40 6.5t35.5 17t30 22.5t24.5 24q15 17 36 17q11 0 19 -7.5t8 -18.5q0 -20 -15.5 -50t-45 -58t-73 -47.5t-99.5 -19.5q-45 0 -82 14t-64 40t-41.5 63.5t-14.5 84.5
q0 64 19 125.5t56.5 109.5t93 77.5t128.5 29.5q40 0 73 -13t56 -35t36 -51.5t13 -63.5zM381 378q0 32 -15 53.5t-51 21.5q-26 0 -47.5 -12.5t-37.5 -32.5t-27 -45t-17 -50l191 31q2 11 3 19.5t1 14.5zM396 592q0 -6 -4.5 -10t-10.5 -4h-42q-14 0 -26 14l-86 102q-6 6 -6 13
q0 8 7 13t16.5 7.5t19 3.5t15.5 1q9 0 20.5 -1.5t22.5 -5t19.5 -9.5t12.5 -16q2 -5 8.5 -21t14 -34t13.5 -33.5t6 -19.5z" />
    <glyph glyph-name="eacute" unicode="&#xe9;" horiz-adv-x="531" 
d="M516 368q0 -27 -7 -48q-5 -17 -15 -24t-26 -9l-289 -46v-16q0 -24 5 -46.5t17 -40t32 -27.5t50 -10q21 0 40 6.5t35.5 17t30 22.5t24.5 24q15 17 36 17q11 0 19 -7.5t8 -18.5q0 -20 -15.5 -50t-45 -58t-73 -47.5t-99.5 -19.5q-45 0 -82 14t-64 40t-41.5 63.5t-14.5 84.5
q0 64 19 125.5t56.5 109.5t93 77.5t128.5 29.5q40 0 73 -13t56 -35t36 -51.5t13 -63.5zM381 378q0 32 -15 53.5t-51 21.5q-26 0 -47.5 -12.5t-37.5 -32.5t-27 -45t-17 -50l191 31q2 11 3 19.5t1 14.5zM518 710q0 -9 -8 -15l-136 -107q-11 -10 -27 -10h-44q-13 0 -13 12
q0 5 6 13l80 97q17 20 42.5 26t50.5 6q6 0 14 -1t16 -3.5t13.5 -6.5t5.5 -11z" />
    <glyph glyph-name="ecircumflex" unicode="&#xea;" horiz-adv-x="531" 
d="M516 368q0 -27 -7 -48q-5 -17 -15 -24t-26 -9l-289 -46v-16q0 -24 5 -46.5t17 -40t32 -27.5t50 -10q21 0 40 6.5t35.5 17t30 22.5t24.5 24q15 17 36 17q11 0 19 -7.5t8 -18.5q0 -20 -15.5 -50t-45 -58t-73 -47.5t-99.5 -19.5q-45 0 -82 14t-64 40t-41.5 63.5t-14.5 84.5
q0 64 19 125.5t56.5 109.5t93 77.5t128.5 29.5q40 0 73 -13t56 -35t36 -51.5t13 -63.5zM381 378q0 32 -15 53.5t-51 21.5q-26 0 -47.5 -12.5t-37.5 -32.5t-27 -45t-17 -50l191 31q2 11 3 19.5t1 14.5zM493 599q0 -11 -8.5 -20t-21.5 -9q-8 0 -13.5 3t-10.5 6l-66 46
q-9 6 -18 6q-5 0 -10.5 -2t-10.5 -4l-85 -46q-5 -3 -12.5 -6t-15.5 -3q-11 0 -18.5 6.5t-7.5 15.5q0 10 7 17.5t17 12.5q31 17 62.5 41.5t60.5 55.5q5 5 13 10t18 5t16 -5t9 -10q16 -31 37.5 -56t44.5 -42q13 -10 13 -22z" />
    <glyph glyph-name="edieresis" unicode="&#xeb;" horiz-adv-x="531" 
d="M516 368q0 -27 -7 -48q-5 -17 -15 -24t-26 -9l-289 -46v-16q0 -24 5 -46.5t17 -40t32 -27.5t50 -10q21 0 40 6.5t35.5 17t30 22.5t24.5 24q15 17 36 17q11 0 19 -7.5t8 -18.5q0 -20 -15.5 -50t-45 -58t-73 -47.5t-99.5 -19.5q-45 0 -82 14t-64 40t-41.5 63.5t-14.5 84.5
q0 64 19 125.5t56.5 109.5t93 77.5t128.5 29.5q40 0 73 -13t56 -35t36 -51.5t13 -63.5zM381 378q0 32 -15 53.5t-51 21.5q-26 0 -47.5 -12.5t-37.5 -32.5t-27 -45t-17 -50l191 31q2 11 3 19.5t1 14.5zM324 646q0 -15 -6 -27.5t-16.5 -21.5t-24 -14t-27.5 -5
q-23 0 -38.5 15.5t-15.5 36.5q0 15 6 27.5t16.5 21.5t24 14.5t27.5 5.5q23 0 38.5 -16t15.5 -37zM511 646q0 -15 -6 -27.5t-16.5 -21.5t-24 -14t-27.5 -5q-23 0 -38.5 15.5t-15.5 36.5q0 15 6 27.5t16.5 21.5t24 14.5t27.5 5.5q23 0 38.5 -16t15.5 -37z" />
    <glyph glyph-name="igrave" unicode="&#xec;" horiz-adv-x="277" 
d="M267 499q0 -4 -1 -9l-100 -472q-2 -8 -8 -13t-15 -5h-104q-19 0 -19 19q0 4 1 9l101 472q2 8 8 13t15 5h103q19 0 19 -19zM270 592q0 -6 -4.5 -10t-10.5 -4h-42q-14 0 -26 14l-86 102q-6 6 -6 13q0 8 7 13t16.5 7.5t19 3.5t15.5 1q9 0 20.5 -1.5t22.5 -5t19.5 -9.5
t12.5 -16q2 -5 8.5 -21t14 -34t13.5 -33.5t6 -19.5z" />
    <glyph glyph-name="iacute" unicode="&#xed;" horiz-adv-x="277" 
d="M267 499q0 -4 -1 -9l-100 -472q-2 -8 -8 -13t-15 -5h-104q-19 0 -19 19q0 4 1 9l101 472q2 8 8 13t15 5h103q19 0 19 -19zM375 710q0 -9 -8 -15l-136 -107q-11 -10 -27 -10h-44q-13 0 -13 12q0 5 6 13l80 97q17 20 42.5 26t50.5 6q6 0 14 -1t16 -3.5t13.5 -6.5t5.5 -11z
" />
    <glyph glyph-name="icircumflex" unicode="&#xee;" horiz-adv-x="277" 
d="M267 499q0 -4 -1 -9l-100 -472q-2 -8 -8 -13t-15 -5h-104q-19 0 -19 19q0 4 1 9l101 472q2 8 8 13t15 5h103q19 0 19 -19zM356 599q0 -11 -8.5 -20t-21.5 -9q-8 0 -13.5 3t-10.5 6l-66 46q-9 6 -18 6q-5 0 -10.5 -2t-10.5 -4l-85 -46q-5 -3 -12.5 -6t-15.5 -3
q-11 0 -18.5 6.5t-7.5 15.5q0 10 7 17.5t17 12.5q31 17 62.5 41.5t60.5 55.5q5 5 13 10t18 5t16 -5t9 -10q16 -31 37.5 -56t44.5 -42q13 -10 13 -22z" />
    <glyph glyph-name="idieresis" unicode="&#xef;" horiz-adv-x="277" 
d="M267 499q0 -4 -1 -9l-100 -472q-2 -8 -8 -13t-15 -5h-104q-19 0 -19 19q0 4 1 9l101 472q2 8 8 13t15 5h103q19 0 19 -19zM189 646q0 -15 -6 -27.5t-16.5 -21.5t-24 -14t-27.5 -5q-23 0 -38.5 15.5t-15.5 36.5q0 15 6 27.5t16.5 21.5t24 14.5t27.5 5.5q23 0 38.5 -16
t15.5 -37zM376 646q0 -15 -6 -27.5t-16.5 -21.5t-24 -14t-27.5 -5q-23 0 -38.5 15.5t-15.5 36.5q0 15 6 27.5t16.5 21.5t24 14.5t27.5 5.5q23 0 38.5 -16t15.5 -37z" />
    <glyph glyph-name="eth" unicode="&#xf0;" horiz-adv-x="580" 
d="M593 692q0 -6 -4.5 -10.5t-10.5 -6.5l-87 -22q29 -62 46.5 -127.5t17.5 -133.5q0 -41 -4.5 -82.5t-15.5 -80.5t-29 -75.5t-45 -67.5q-40 -47 -93 -73t-124 -26q-45 0 -82 15.5t-63.5 43.5t-41 65.5t-14.5 82.5q0 74 26.5 141t79.5 118q41 38 89.5 56.5t95.5 18.5
q17 0 32.5 -2.5t26.5 -5.5q-6 26 -13.5 50.5t-18.5 48.5l-82 -21q-12 -3 -20 -3t-12 3.5t-10 17.5q-5 12 -5 16q0 13 16 17l90 23q-7 14 -15 26.5t-16 25.5q-5 7 -5 14q0 11 9 15t39 12q25 6 37.5 8.5t17.5 2.5q14 0 22 -11q10 -14 19 -29t18 -31l83 22q12 3 19 3
q8 0 12.5 -5t10.5 -17q4 -9 4 -16zM406 399q0 12 -1 25.5t-3 25.5q-11 4 -25.5 6.5t-31.5 2.5q-29 0 -53 -16t-42 -45q-14 -21 -25 -48.5t-18.5 -57t-12 -59.5t-4.5 -55q0 -46 15.5 -74.5t50.5 -28.5q60 0 98 77q27 54 39.5 120.5t12.5 126.5z" />
    <glyph glyph-name="ntilde" unicode="&#xf1;" horiz-adv-x="574" 
d="M547 400q0 -8 -1 -17t-3 -17l-75 -348q-2 -8 -8.5 -13t-14.5 -5h-104q-19 0 -19 19q0 5 1 8l74 344q3 12 3 25q0 32 -20.5 44.5t-49.5 12.5q-34 0 -56 -12t-30 -47l-81 -376q-2 -8 -8.5 -13t-14.5 -5h-104q-19 0 -19 19q0 5 1 8l87 410q6 28 18 40.5t38 23.5q19 8 42 14
t47.5 9.5t48.5 5t45 1.5q33 0 69 -6t65.5 -20.5t49 -40t19.5 -64.5zM521 691q0 -10 -6 -28t-19 -36t-34.5 -31.5t-51.5 -13.5q-20 0 -33 8t-23.5 18t-21 18t-25.5 8q-17 0 -26.5 -8.5t-17.5 -19t-15.5 -19t-19.5 -8.5q-21 0 -21 21q0 10 6 28.5t19.5 36.5t34 31t50.5 13
q20 0 33 -8t23.5 -17.5t21.5 -17.5t26 -8q16 0 26 8.5t18 18.5t15.5 18.5t19.5 8.5q21 0 21 -21z" />
    <glyph glyph-name="ograve" unicode="&#xf2;" horiz-adv-x="575" 
d="M546 327q0 -64 -20 -125t-58.5 -109t-95 -77t-128.5 -29q-44 0 -81 13.5t-64 40t-42 64.5t-15 88q0 66 20.5 127.5t59.5 108t95 74.5t127 28q47 0 84.5 -15t63.5 -42t40 -64.5t14 -82.5zM401 352q0 44 -15.5 72t-52.5 28q-54 0 -92 -68q-12 -21 -21.5 -47t-16.5 -54
t-11 -55.5t-4 -51.5q0 -45 16 -73t51 -28q58 0 97 77q10 19 19 44.5t15.5 52.5t10.5 54t4 49zM409 592q0 -6 -4.5 -10t-10.5 -4h-42q-14 0 -26 14l-86 102q-6 6 -6 13q0 8 7 13t16.5 7.5t19 3.5t15.5 1q9 0 20.5 -1.5t22.5 -5t19.5 -9.5t12.5 -16q2 -5 8.5 -21t14 -34
t13.5 -33.5t6 -19.5z" />
    <glyph glyph-name="oacute" unicode="&#xf3;" horiz-adv-x="575" 
d="M546 327q0 -64 -20 -125t-58.5 -109t-95 -77t-128.5 -29q-44 0 -81 13.5t-64 40t-42 64.5t-15 88q0 66 20.5 127.5t59.5 108t95 74.5t127 28q47 0 84.5 -15t63.5 -42t40 -64.5t14 -82.5zM401 352q0 44 -15.5 72t-52.5 28q-54 0 -92 -68q-12 -21 -21.5 -47t-16.5 -54
t-11 -55.5t-4 -51.5q0 -45 16 -73t51 -28q58 0 97 77q10 19 19 44.5t15.5 52.5t10.5 54t4 49zM532 710q0 -9 -8 -15l-136 -107q-11 -10 -27 -10h-44q-13 0 -13 12q0 5 6 13l80 97q17 20 42.5 26t50.5 6q6 0 14 -1t16 -3.5t13.5 -6.5t5.5 -11z" />
    <glyph glyph-name="ocircumflex" unicode="&#xf4;" horiz-adv-x="575" 
d="M546 327q0 -64 -20 -125t-58.5 -109t-95 -77t-128.5 -29q-44 0 -81 13.5t-64 40t-42 64.5t-15 88q0 66 20.5 127.5t59.5 108t95 74.5t127 28q47 0 84.5 -15t63.5 -42t40 -64.5t14 -82.5zM401 352q0 44 -15.5 72t-52.5 28q-54 0 -92 -68q-12 -21 -21.5 -47t-16.5 -54
t-11 -55.5t-4 -51.5q0 -45 16 -73t51 -28q58 0 97 77q10 19 19 44.5t15.5 52.5t10.5 54t4 49zM504 599q0 -11 -8.5 -20t-21.5 -9q-8 0 -13.5 3t-10.5 6l-66 46q-9 6 -18 6q-5 0 -10.5 -2t-10.5 -4l-85 -46q-5 -3 -12.5 -6t-15.5 -3q-11 0 -18.5 6.5t-7.5 15.5q0 10 7 17.5
t17 12.5q31 17 62.5 41.5t60.5 55.5q5 5 13 10t18 5t16 -5t9 -10q16 -31 37.5 -56t44.5 -42q13 -10 13 -22z" />
    <glyph glyph-name="otilde" unicode="&#xf5;" horiz-adv-x="575" 
d="M546 327q0 -64 -20 -125t-58.5 -109t-95 -77t-128.5 -29q-44 0 -81 13.5t-64 40t-42 64.5t-15 88q0 66 20.5 127.5t59.5 108t95 74.5t127 28q47 0 84.5 -15t63.5 -42t40 -64.5t14 -82.5zM401 352q0 44 -15.5 72t-52.5 28q-54 0 -92 -68q-12 -21 -21.5 -47t-16.5 -54
t-11 -55.5t-4 -51.5q0 -45 16 -73t51 -28q58 0 97 77q10 19 19 44.5t15.5 52.5t10.5 54t4 49zM522 691q0 -10 -6 -28t-19 -36t-34.5 -31.5t-51.5 -13.5q-20 0 -33 8t-23.5 18t-21 18t-25.5 8q-17 0 -26.5 -8.5t-17.5 -19t-15.5 -19t-19.5 -8.5q-21 0 -21 21q0 10 6 28.5
t19.5 36.5t34 31t50.5 13q20 0 33 -8t23.5 -17.5t21.5 -17.5t26 -8q16 0 26 8.5t18 18.5t15.5 18.5t19.5 8.5q21 0 21 -21z" />
    <glyph glyph-name="odieresis" unicode="&#xf6;" horiz-adv-x="575" 
d="M546 327q0 -64 -20 -125t-58.5 -109t-95 -77t-128.5 -29q-44 0 -81 13.5t-64 40t-42 64.5t-15 88q0 66 20.5 127.5t59.5 108t95 74.5t127 28q47 0 84.5 -15t63.5 -42t40 -64.5t14 -82.5zM401 352q0 44 -15.5 72t-52.5 28q-54 0 -92 -68q-12 -21 -21.5 -47t-16.5 -54
t-11 -55.5t-4 -51.5q0 -45 16 -73t51 -28q58 0 97 77q10 19 19 44.5t15.5 52.5t10.5 54t4 49zM337 646q0 -15 -6 -27.5t-16.5 -21.5t-24 -14t-27.5 -5q-23 0 -38.5 15.5t-15.5 36.5q0 15 6 27.5t16.5 21.5t24 14.5t27.5 5.5q23 0 38.5 -16t15.5 -37zM524 646q0 -15 -6 -27.5
t-16.5 -21.5t-24 -14t-27.5 -5q-23 0 -38.5 15.5t-15.5 36.5q0 15 6 27.5t16.5 21.5t24 14.5t27.5 5.5q23 0 38.5 -16t15.5 -37z" />
    <glyph glyph-name="divide" unicode="&#xf7;" horiz-adv-x="556" 
d="M407 489q0 -35 -25.5 -59t-60.5 -24q-26 0 -44.5 18t-18.5 43q0 35 25 59.5t60 24.5q26 0 45 -18.5t19 -43.5zM537 327q0 -2 -0.5 -5t-1.5 -8l-10 -44q-2 -7 -8 -12.5t-15 -5.5h-432q-19 0 -19 19q0 4 1 9l11 48q2 7 8 12.5t15 5.5h432q19 0 19 -19zM331 131
q0 -35 -25.5 -59.5t-60.5 -24.5q-26 0 -44.5 18t-18.5 43q0 35 25 59.5t60 24.5q26 0 45 -18t19 -43z" />
    <glyph glyph-name="oslash" unicode="&#xf8;" horiz-adv-x="583" 
d="M603 541q0 -5 -6 -11l-79 -81q35 -52 35 -124q0 -64 -21 -124.5t-60.5 -108t-96.5 -76.5t-129 -29q-85 0 -139 48l-77 -78q-6 -6 -12 -6q-7 0 -19 12q-9 9 -9 15t6 12l79 81q-33 51 -33 125q0 64 21 124.5t60.5 107.5t96 75t128.5 28q42 0 77 -12t61 -34l76 77q6 6 12 6
q8 0 18 -10q11 -11 11 -17zM408 406q-8 23 -25 38.5t-46 15.5q-27 0 -49.5 -14.5t-40 -38t-30.5 -53t-22 -59.5t-13 -57t-4 -45q0 -6 0.5 -10.5t0.5 -7.5zM417 348l-228 -231q8 -23 24.5 -36t43.5 -13q43 0 73 31t49.5 74t28.5 89t9 76v10z" />
    <glyph glyph-name="ugrave" unicode="&#xf9;" horiz-adv-x="564" 
d="M560 499q0 -4 -1 -8l-85 -399q-6 -27 -17 -43t-36 -29q-18 -9 -41.5 -15.5t-48.5 -10t-49.5 -5.5t-43.5 -2q-32 0 -66.5 5.5t-64 20.5t-48.5 40.5t-19 64.5q0 17 5 39l72 343q2 8 8.5 13t14.5 5h105q18 0 18 -19q0 -4 -1 -8l-71 -339q-1 -5 -1.5 -11t-0.5 -11
q0 -27 18.5 -40.5t43.5 -13.5q29 0 53 11.5t31 43.5l78 369q2 8 8.5 13t14.5 5h105q19 0 19 -19zM406 592q0 -6 -4.5 -10t-10.5 -4h-42q-14 0 -26 14l-86 102q-6 6 -6 13q0 8 7 13t16.5 7.5t19 3.5t15.5 1q9 0 20.5 -1.5t22.5 -5t19.5 -9.5t12.5 -16q2 -5 8.5 -21t14 -34
t13.5 -33.5t6 -19.5z" />
    <glyph glyph-name="uacute" unicode="&#xfa;" horiz-adv-x="564" 
d="M560 499q0 -4 -1 -8l-85 -399q-6 -27 -17 -43t-36 -29q-18 -9 -41.5 -15.5t-48.5 -10t-49.5 -5.5t-43.5 -2q-32 0 -66.5 5.5t-64 20.5t-48.5 40.5t-19 64.5q0 17 5 39l72 343q2 8 8.5 13t14.5 5h105q18 0 18 -19q0 -4 -1 -8l-71 -339q-1 -5 -1.5 -11t-0.5 -11
q0 -27 18.5 -40.5t43.5 -13.5q29 0 53 11.5t31 43.5l78 369q2 8 8.5 13t14.5 5h105q19 0 19 -19zM524 710q0 -9 -8 -15l-136 -107q-11 -10 -27 -10h-44q-13 0 -13 12q0 5 6 13l80 97q17 20 42.5 26t50.5 6q6 0 14 -1t16 -3.5t13.5 -6.5t5.5 -11z" />
    <glyph glyph-name="ucircumflex" unicode="&#xfb;" horiz-adv-x="564" 
d="M560 499q0 -4 -1 -8l-85 -399q-6 -27 -17 -43t-36 -29q-18 -9 -41.5 -15.5t-48.5 -10t-49.5 -5.5t-43.5 -2q-32 0 -66.5 5.5t-64 20.5t-48.5 40.5t-19 64.5q0 17 5 39l72 343q2 8 8.5 13t14.5 5h105q18 0 18 -19q0 -4 -1 -8l-71 -339q-1 -5 -1.5 -11t-0.5 -11
q0 -27 18.5 -40.5t43.5 -13.5q29 0 53 11.5t31 43.5l78 369q2 8 8.5 13t14.5 5h105q19 0 19 -19zM499 599q0 -11 -8.5 -20t-21.5 -9q-8 0 -13.5 3t-10.5 6l-66 46q-9 6 -18 6q-5 0 -10.5 -2t-10.5 -4l-85 -46q-5 -3 -12.5 -6t-15.5 -3q-11 0 -18.5 6.5t-7.5 15.5
q0 10 7 17.5t17 12.5q31 17 62.5 41.5t60.5 55.5q5 5 13 10t18 5t16 -5t9 -10q16 -31 37.5 -56t44.5 -42q13 -10 13 -22z" />
    <glyph glyph-name="udieresis" unicode="&#xfc;" horiz-adv-x="564" 
d="M560 499q0 -4 -1 -8l-85 -399q-6 -27 -17 -43t-36 -29q-18 -9 -41.5 -15.5t-48.5 -10t-49.5 -5.5t-43.5 -2q-32 0 -66.5 5.5t-64 20.5t-48.5 40.5t-19 64.5q0 17 5 39l72 343q2 8 8.5 13t14.5 5h105q18 0 18 -19q0 -4 -1 -8l-71 -339q-1 -5 -1.5 -11t-0.5 -11
q0 -27 18.5 -40.5t43.5 -13.5q29 0 53 11.5t31 43.5l78 369q2 8 8.5 13t14.5 5h105q19 0 19 -19zM331 646q0 -15 -6 -27.5t-16.5 -21.5t-24 -14t-27.5 -5q-23 0 -38.5 15.5t-15.5 36.5q0 15 6 27.5t16.5 21.5t24 14.5t27.5 5.5q23 0 38.5 -16t15.5 -37zM518 646
q0 -15 -6 -27.5t-16.5 -21.5t-24 -14t-27.5 -5q-23 0 -38.5 15.5t-15.5 36.5q0 15 6 27.5t16.5 21.5t24 14.5t27.5 5.5q23 0 38.5 -16t15.5 -37z" />
    <glyph glyph-name="yacute" unicode="&#xfd;" horiz-adv-x="529" 
d="M568 501q0 -4 -1.5 -8t-3.5 -7l-310 -556q-20 -36 -43 -67.5t-51 -55t-62.5 -37t-79.5 -13.5q-16 0 -33 3.5t-31.5 11t-23.5 20.5t-9 33q0 29 18.5 45t46.5 16q12 0 21 -2.5t16.5 -6t14 -6t15.5 -2.5q18 0 33 12t27.5 28.5t22 34.5t17.5 31l-78 504q-1 5 -1.5 9t-0.5 9
q0 11 6.5 16t16.5 5h105q22 0 24 -21l26 -271q1 -11 1.5 -23t0.5 -23q0 -33 -3 -64h2q8 27 18.5 55.5t23.5 54.5l138 273q6 11 12 15t17 4h88q20 0 20 -17zM520 710q0 -9 -8 -15l-136 -107q-11 -10 -27 -10h-44q-13 0 -13 12q0 5 6 13l80 97q17 20 42.5 26t50.5 6q6 0 14 -1
t16 -3.5t13.5 -6.5t5.5 -11z" />
    <glyph glyph-name="thorn" unicode="&#xfe;" horiz-adv-x="577" 
d="M553 354q0 -72 -26.5 -143.5t-74.5 -124.5q-47 -51 -107 -75t-132 -24q-34 0 -56 8l-45 -212q-2 -8 -7.5 -13t-14.5 -5h-104q-19 0 -19 19q0 3 1 8l203 955q2 7 8 12.5t15 5.5h104q19 0 19 -19q0 -2 -2 -12l-54 -257q9 7 23.5 16.5t32.5 18t40 14t46 5.5q37 0 65 -14
t47 -38.5t28.5 -56.5t9.5 -68zM399 343q0 50 -19.5 73t-54.5 23q-24 0 -45 -9t-34 -19l-70 -330q11 -5 24.5 -7t33.5 -2q26 0 56 18.5t55 57.5q12 19 22 43.5t17 50t11 51.5t4 50z" />
    <glyph glyph-name="ydieresis" unicode="&#xff;" horiz-adv-x="529" 
d="M568 501q0 -4 -1.5 -8t-3.5 -7l-310 -556q-20 -36 -43 -67.5t-51 -55t-62.5 -37t-79.5 -13.5q-16 0 -33 3.5t-31.5 11t-23.5 20.5t-9 33q0 29 18.5 45t46.5 16q12 0 21 -2.5t16.5 -6t14 -6t15.5 -2.5q18 0 33 12t27.5 28.5t22 34.5t17.5 31l-78 504q-1 5 -1.5 9t-0.5 9
q0 11 6.5 16t16.5 5h105q22 0 24 -21l26 -271q1 -11 1.5 -23t0.5 -23q0 -33 -3 -64h2q8 27 18.5 55.5t23.5 54.5l138 273q6 11 12 15t17 4h88q20 0 20 -17zM319 646q0 -15 -6 -27.5t-16.5 -21.5t-24 -14t-27.5 -5q-23 0 -38.5 15.5t-15.5 36.5q0 15 6 27.5t16.5 21.5
t24 14.5t27.5 5.5q23 0 38.5 -16t15.5 -37zM506 646q0 -15 -6 -27.5t-16.5 -21.5t-24 -14t-27.5 -5q-23 0 -38.5 15.5t-15.5 36.5q0 15 6 27.5t16.5 21.5t24 14.5t27.5 5.5q23 0 38.5 -16t15.5 -37z" />
    <glyph glyph-name="Amacron" unicode="&#x100;" horiz-adv-x="661" 
d="M603 21q0 -8 -6 -14.5t-17 -6.5h-116q-21 0 -22 19l-13 157h-232l-82 -158q-5 -10 -11 -14t-17 -4h-101q-10 0 -14.5 5t-4.5 12q0 8 8 21l367 648q6 11 12 15.5t18 4.5h115q20 0 23 -20l92 -651q1 -5 1 -9v-5zM402 476q-3 30 -3 60q0 23 0.5 32.5t1.5 20.5h-2l-6 -18
q-4 -12 -10 -28t-13.5 -33.5t-16.5 -33.5l-109 -210h177zM605 848q0 -4 -1 -9l-6 -29q-2 -7 -8 -12.5t-15 -5.5h-249q-19 0 -19 19v3q0 2 2 9l6 26q2 7 8 12.5t15 5.5h248q19 0 19 -19z" />
    <glyph glyph-name="amacron" unicode="&#x101;" horiz-adv-x="528" 
d="M502 406q0 -5 -0.5 -14t-2.5 -18l-59 -273q-7 -32 -18.5 -50t-37.5 -32q-11 -6 -29 -12t-41 -10.5t-48.5 -7t-49.5 -2.5q-40 0 -76.5 7t-64 22t-44 38.5t-16.5 55.5q0 58 32 95t81.5 60.5t107.5 35.5t111 21l14 66q2 6 2 11v8q0 23 -13.5 36t-36.5 13q-32 0 -54.5 -19
t-37.5 -48q-10 -19 -28 -29.5t-44 -10.5q-23 0 -38.5 12.5t-15.5 33.5q0 23 16 47t47 44t77.5 32.5t106.5 12.5q70 0 115 -32t45 -93zM333 255q-33 -5 -64.5 -15.5t-56.5 -26.5t-40.5 -38t-15.5 -52q0 -26 18 -43t53 -17q25 0 47.5 11t28.5 39zM499 661q0 -4 -1 -9l-6 -29
q-2 -7 -8 -12.5t-15 -5.5h-249q-19 0 -19 19q0 4 2 12l6 26q2 7 8 12.5t15 5.5h248q19 0 19 -19z" />
    <glyph glyph-name="Abreve" unicode="&#x102;" horiz-adv-x="661" 
d="M603 21q0 -8 -6 -14.5t-17 -6.5h-116q-21 0 -22 19l-13 157h-232l-82 -158q-5 -10 -11 -14t-17 -4h-101q-10 0 -14.5 5t-4.5 12q0 8 8 21l367 648q6 11 12 15.5t18 4.5h115q20 0 23 -20l92 -651q1 -5 1 -9v-5zM402 476q-3 30 -3 60q0 23 0.5 32.5t1.5 20.5h-2l-6 -18
q-4 -12 -10 -28t-13.5 -33.5t-16.5 -33.5l-109 -210h177zM614 898q0 -16 -11 -39t-32.5 -44.5t-53.5 -37t-74 -15.5q-34 0 -57.5 11t-38 28t-21 37t-6.5 38t6.5 31t22.5 13q11 0 15.5 -6.5t6.5 -11.5q8 -29 27.5 -46.5t53.5 -17.5q35 0 62.5 18.5t47.5 46.5q4 6 11 11.5
t18 5.5q10 0 16.5 -6t6.5 -16z" />
    <glyph glyph-name="abreve" unicode="&#x103;" horiz-adv-x="528" 
d="M502 406q0 -5 -0.5 -14t-2.5 -18l-59 -273q-7 -32 -18.5 -50t-37.5 -32q-11 -6 -29 -12t-41 -10.5t-48.5 -7t-49.5 -2.5q-40 0 -76.5 7t-64 22t-44 38.5t-16.5 55.5q0 58 32 95t81.5 60.5t107.5 35.5t111 21l14 66q2 6 2 11v8q0 23 -13.5 36t-36.5 13q-32 0 -54.5 -19
t-37.5 -48q-10 -19 -28 -29.5t-44 -10.5q-23 0 -38.5 12.5t-15.5 33.5q0 23 16 47t47 44t77.5 32.5t106.5 12.5q70 0 115 -32t45 -93zM333 255q-33 -5 -64.5 -15.5t-56.5 -26.5t-40.5 -38t-15.5 -52q0 -26 18 -43t53 -17q25 0 47.5 11t28.5 39zM518 711q0 -16 -11 -39
t-32.5 -44.5t-53.5 -37t-74 -15.5q-34 0 -57.5 11t-38 28t-21 37t-6.5 38t6.5 31t22.5 13q11 0 15.5 -6.5t6.5 -11.5q8 -29 27.5 -46.5t53.5 -17.5q35 0 62.5 18.5t47.5 46.5q4 6 11 11.5t18 5.5q10 0 16.5 -6t6.5 -16z" />
    <glyph glyph-name="Aogonek" unicode="&#x104;" horiz-adv-x="661" 
d="M603 21q0 -8 -6 -14.5t-17 -6.5h-51q-15 -8 -33.5 -18.5t-34 -23t-26.5 -26.5t-11 -29q0 -33 54 -33q30 0 49.5 6.5t36.5 6.5q11 0 17 -6.5t6 -15.5q0 -13 -13.5 -23t-33.5 -16.5t-44.5 -10t-46.5 -3.5q-26 0 -49 4.5t-40 13.5t-27 22.5t-10 31.5q0 21 12 39.5t30 34.5
t39 28.5t39 20.5l-15 173h-231l-82 -158q-5 -10 -11 -14t-17 -4h-101q-10 0 -14.5 5t-4.5 12t8 21l367 648q6 11 12 15.5t18 4.5h115q20 0 23 -20l92 -651q1 -6 1 -9v-5zM402 476q-3 30 -3 60q0 23 0.5 32.5t1.5 20.5h-2l-6 -18q-4 -12 -10 -28t-13.5 -33.5t-16.5 -33.5
l-109 -210h177z" />
    <glyph glyph-name="aogonek" unicode="&#x105;" horiz-adv-x="528" 
d="M502 406q0 -14 -3 -32l-59 -273q-7 -33 -22 -54.5t-47 -35.5q-17 -8 -39.5 -19.5t-42.5 -25.5t-33.5 -30t-13.5 -33q0 -33 54 -33q30 0 49.5 6.5t36.5 6.5q11 0 17 -6.5t6 -15.5q0 -13 -13 -23t-33.5 -16.5t-44.5 -10t-46 -3.5q-26 0 -49 4.5t-40 13.5t-27 22.5t-10 31.5
q0 17 8 32t20.5 28.5t28.5 25.5t32 21h-15q-39 0 -75.5 7.5t-64.5 22.5t-44.5 38t-16.5 55q0 58 32 95t81.5 60.5t107.5 35.5t111 21l14 66q2 8 2 11v8q0 23 -13.5 36t-36.5 13q-32 0 -54.5 -19t-37.5 -48q-10 -19 -28 -29.5t-44 -10.5q-23 0 -38.5 12.5t-15.5 33.5
q0 23 16 47t47 44t77.5 32.5t106.5 12.5q70 0 115 -32t45 -93zM333 255q-33 -6 -64.5 -16t-56.5 -26t-40.5 -38t-15.5 -52q0 -27 18 -43.5t53 -16.5q25 0 47.5 11t28.5 39z" />
    <glyph glyph-name="Cacute" unicode="&#x106;" horiz-adv-x="638" 
d="M675 576q0 -35 -19 -54t-52 -19q-28 0 -43.5 14t-23.5 37q-4 11 -9.5 23.5t-15.5 23.5t-26 18t-41 7q-48 0 -87 -33t-66 -83.5t-41.5 -110.5t-14.5 -114q0 -83 35.5 -133.5t101.5 -50.5q45 0 76 17t53 34q11 8 21.5 13.5t23.5 5.5q19 0 28.5 -9.5t9.5 -23.5
q0 -21 -18.5 -47.5t-51.5 -50.5t-80 -40t-104 -16q-65 0 -114.5 21.5t-83.5 58.5t-51.5 87t-17.5 108q0 94 29.5 178t82.5 147.5t126.5 100.5t161.5 37q54 0 93.5 -14.5t65.5 -36.5t39 -47.5t13 -47.5zM636 897q0 -9 -8 -15l-136 -107q-13 -10 -27 -10h-44q-13 0 -13 12
q0 5 6 13l80 97q12 15 35 23.5t58 8.5q21 0 35 -6t14 -16z" />
    <glyph glyph-name="cacute" unicode="&#x107;" horiz-adv-x="508" 
d="M509 403q0 -24 -15.5 -45t-53.5 -21q-48 0 -57 53q-5 23 -17.5 43t-44.5 20q-30 0 -55 -21t-43 -53.5t-28 -72t-10 -77.5q0 -54 22.5 -89t73.5 -35q20 0 37 6.5t31.5 16.5t27 22t22.5 24q16 18 34 18q12 0 20 -8t8 -23q0 -20 -14.5 -49.5t-43.5 -57.5t-72 -47.5
t-99 -19.5q-39 0 -74 13.5t-61 39t-41 62.5t-15 85q0 70 21 132.5t59.5 109.5t92.5 74.5t121 27.5q45 0 77.5 -12.5t54 -32t32 -42t10.5 -41.5zM519 710q0 -9 -8 -15l-136 -107q-11 -10 -27 -10h-44q-13 0 -13 12q0 5 6 13l80 97q17 20 42.5 26t50.5 6q6 0 14 -1t16 -3.5
t13.5 -6.5t5.5 -11z" />
    <glyph glyph-name="Ccircumflex" unicode="&#x108;" horiz-adv-x="638" 
d="M675 576q0 -35 -19 -54t-52 -19q-28 0 -43.5 14t-23.5 37q-4 11 -9.5 23.5t-15.5 23.5t-26 18t-41 7q-48 0 -87 -33t-66 -83.5t-41.5 -110.5t-14.5 -114q0 -83 35.5 -133.5t101.5 -50.5q45 0 76 17t53 34q11 8 21.5 13.5t23.5 5.5q19 0 28.5 -9.5t9.5 -23.5
q0 -21 -18.5 -47.5t-51.5 -50.5t-80 -40t-104 -16q-65 0 -114.5 21.5t-83.5 58.5t-51.5 87t-17.5 108q0 94 29.5 178t82.5 147.5t126.5 100.5t161.5 37q54 0 93.5 -14.5t65.5 -36.5t39 -47.5t13 -47.5zM620 786q0 -11 -8.5 -20t-21.5 -9q-8 0 -13.5 3t-10.5 6l-66 46
q-9 6 -18 6q-4 0 -10 -1.5t-11 -4.5l-85 -46q-5 -3 -12.5 -6t-15.5 -3q-11 0 -18.5 6.5t-7.5 15.5q0 10 7 17.5t17 12.5q31 17 62.5 41.5t60.5 55.5q5 5 13 10t18 5t16 -5t9 -10q16 -31 37.5 -56t44.5 -42q13 -10 13 -22z" />
    <glyph glyph-name="ccircumflex" unicode="&#x109;" horiz-adv-x="508" 
d="M509 403q0 -24 -15.5 -45t-53.5 -21q-48 0 -57 53q-5 23 -17.5 43t-44.5 20q-30 0 -55 -21t-43 -53.5t-28 -72t-10 -77.5q0 -54 22.5 -89t73.5 -35q20 0 37 6.5t31.5 16.5t27 22t22.5 24q16 18 34 18q12 0 20 -8t8 -23q0 -20 -14.5 -49.5t-43.5 -57.5t-72 -47.5
t-99 -19.5q-39 0 -74 13.5t-61 39t-41 62.5t-15 85q0 70 21 132.5t59.5 109.5t92.5 74.5t121 27.5q45 0 77.5 -12.5t54 -32t32 -42t10.5 -41.5zM497 599q0 -11 -8.5 -20t-21.5 -9q-8 0 -13.5 3t-10.5 6l-66 46q-9 6 -18 6q-5 0 -10.5 -2t-10.5 -4l-85 -46q-5 -3 -12.5 -6
t-15.5 -3q-11 0 -18.5 6.5t-7.5 15.5q0 10 7 17.5t17 12.5q31 17 62.5 41.5t60.5 55.5q5 5 13 10t18 5t16 -5t9 -10q16 -31 37.5 -56t44.5 -42q13 -10 13 -22z" />
    <glyph glyph-name="Cdotaccent" unicode="&#x10a;" horiz-adv-x="638" 
d="M675 576q0 -35 -19 -54t-52 -19q-28 0 -43.5 14t-23.5 37q-4 11 -9.5 23.5t-15.5 23.5t-26 18t-41 7q-48 0 -87 -33t-66 -83.5t-41.5 -110.5t-14.5 -114q0 -83 35.5 -133.5t101.5 -50.5q45 0 76 17t53 34q11 8 21.5 13.5t23.5 5.5q19 0 28.5 -9.5t9.5 -23.5
q0 -21 -18.5 -47.5t-51.5 -50.5t-80 -40t-104 -16q-65 0 -114.5 21.5t-83.5 58.5t-51.5 87t-17.5 108q0 94 29.5 178t82.5 147.5t126.5 100.5t161.5 37q54 0 93.5 -14.5t65.5 -36.5t39 -47.5t13 -47.5zM551 839q0 -15 -6.5 -28t-17.5 -22.5t-24.5 -14.5t-28.5 -5
q-25 0 -41.5 15.5t-16.5 36.5q0 15 6.5 28t17.5 22.5t25 14.5t28 5q25 0 41.5 -15.5t16.5 -36.5z" />
    <glyph glyph-name="cdotaccent" unicode="&#x10b;" horiz-adv-x="508" 
d="M509 403q0 -24 -15.5 -45t-53.5 -21q-48 0 -57 53q-5 23 -17.5 43t-44.5 20q-30 0 -55 -21t-43 -53.5t-28 -72t-10 -77.5q0 -54 22.5 -89t73.5 -35q20 0 37 6.5t31.5 16.5t27 22t22.5 24q16 18 34 18q12 0 20 -8t8 -23q0 -20 -14.5 -49.5t-43.5 -57.5t-72 -47.5
t-99 -19.5q-39 0 -74 13.5t-61 39t-41 62.5t-15 85q0 70 21 132.5t59.5 109.5t92.5 74.5t121 27.5q45 0 77.5 -12.5t54 -32t32 -42t10.5 -41.5zM424 652q0 -15 -6.5 -28t-17.5 -22.5t-24.5 -14.5t-28.5 -5q-25 0 -41.5 15.5t-16.5 36.5q0 15 6.5 28t17.5 22.5t25 14.5t28 5
q25 0 41.5 -15.5t16.5 -36.5z" />
    <glyph glyph-name="Ccaron" unicode="&#x10c;" horiz-adv-x="638" 
d="M675 576q0 -35 -19 -54t-52 -19q-28 0 -43.5 14t-23.5 37q-4 11 -9.5 23.5t-15.5 23.5t-26 18t-41 7q-48 0 -87 -33t-66 -83.5t-41.5 -110.5t-14.5 -114q0 -83 35.5 -133.5t101.5 -50.5q45 0 76 17t53 34q11 8 21.5 13.5t23.5 5.5q19 0 28.5 -9.5t9.5 -23.5
q0 -21 -18.5 -47.5t-51.5 -50.5t-80 -40t-104 -16q-65 0 -114.5 21.5t-83.5 58.5t-51.5 87t-17.5 108q0 94 29.5 178t82.5 147.5t126.5 100.5t161.5 37q54 0 93.5 -14.5t65.5 -36.5t39 -47.5t13 -47.5zM643 901q0 -10 -7 -17.5t-17 -12.5q-31 -17 -62.5 -42t-60.5 -56
q-5 -5 -13 -10t-18 -5t-16 5t-9 10q-16 31 -37.5 56t-44.5 42q-13 10 -13 23q0 11 8.5 19.5t21.5 8.5q8 0 13.5 -2.5t10.5 -5.5l62 -43q5 -3 10.5 -6t11.5 -3q5 0 12 2.5t14 6.5l80 43q5 3 12.5 5.5t15.5 2.5q12 0 19 -6t7 -15z" />
    <glyph glyph-name="ccaron" unicode="&#x10d;" horiz-adv-x="508" 
d="M509 403q0 -24 -15.5 -45t-53.5 -21q-48 0 -57 53q-5 23 -17.5 43t-44.5 20q-30 0 -55 -21t-43 -53.5t-28 -72t-10 -77.5q0 -54 22.5 -89t73.5 -35q20 0 37 6.5t31.5 16.5t27 22t22.5 24q16 18 34 18q12 0 20 -8t8 -23q0 -20 -14.5 -49.5t-43.5 -57.5t-72 -47.5
t-99 -19.5q-39 0 -74 13.5t-61 39t-41 62.5t-15 85q0 70 21 132.5t59.5 109.5t92.5 74.5t121 27.5q45 0 77.5 -12.5t54 -32t32 -42t10.5 -41.5zM517 714q0 -10 -7 -17.5t-17 -12.5q-31 -17 -62.5 -42t-60.5 -56q-5 -5 -13 -10t-18 -5t-16 5t-9 10q-16 31 -37.5 56t-44.5 42
q-13 10 -13 23q0 11 8.5 19.5t21.5 8.5q8 0 13.5 -2.5t10.5 -5.5l62 -43q5 -4 11 -6.5t11 -2.5q6 0 13 3t13 6l80 43q5 3 12.5 5.5t15.5 2.5q12 0 19 -6t7 -15z" />
    <glyph glyph-name="Dcaron" unicode="&#x10e;" horiz-adv-x="682" 
d="M670 449q0 -51 -9 -102t-27.5 -98t-46.5 -89t-66 -74q-57 -48 -131 -71.5t-177 -23.5q-29 0 -56.5 2t-51 4.5t-40.5 5.5t-24 5q-16 6 -16 22q0 5 2 13l133 629q4 19 27 26q7 2 24 5t39 5.5t48 4.5t53 2q81 0 141 -19.5t99.5 -54.5t59 -84t19.5 -108zM511 470
q0 30 -7.5 57.5t-25.5 48.5t-46.5 33.5t-70.5 12.5q-16 0 -31.5 -1t-23.5 -3l-110 -522q9 -2 22.5 -3t29.5 -1q100 0 160 65q24 26 43 64.5t32.5 82t20.5 87t7 79.5zM599 901q0 -10 -7 -17.5t-17 -12.5q-31 -17 -62.5 -42t-60.5 -56q-5 -5 -13 -10t-18 -5t-16 5t-9 10
q-16 31 -37.5 56t-44.5 42q-13 10 -13 23q0 11 8.5 19.5t21.5 8.5q8 0 13.5 -2.5t10.5 -5.5l62 -43q5 -3 10.5 -6t11.5 -3q5 0 12 2.5t14 6.5l80 43q5 3 12.5 5.5t15.5 2.5q12 0 19 -6t7 -15z" />
    <glyph glyph-name="dcaron" unicode="&#x10f;" horiz-adv-x="576" 
d="M623 746q0 -3 -1 -8l-136 -640q-6 -29 -18 -46.5t-38 -31.5q-23 -13 -69.5 -23t-97.5 -10q-110 0 -166.5 54.5t-56.5 142.5q0 73 26 140.5t74 118.5q38 42 88 64.5t109 22.5q34 0 57.5 -8t32.5 -15l51 240q2 7 8 12.5t15 5.5h103q19 0 19 -19zM413 438q-8 6 -22 11t-37 5
q-59 0 -104 -65q-14 -20 -25 -44t-18.5 -50t-12 -53t-4.5 -51q0 -59 25 -88t60 -29q30 0 47 12t22 33zM792 745q0 -8 -4 -18l-51 -108q-4 -8 -8.5 -11t-11.5 -3h-36q-15 0 -15 14q0 4 1 9l22 106q5 21 22 30t37 9q44 0 44 -28z" />
    <glyph glyph-name="Dcroat" unicode="&#x110;" horiz-adv-x="698" 
d="M686 451q0 -50 -9.5 -101t-28.5 -99t-48 -90.5t-67 -74.5q-111 -95 -310 -95q-27 0 -54 2t-50 4.5t-40 5.5t-24 5q-16 6 -16 22v4q0 3 2 10l58 276h-40q-19 0 -19 19q0 2 2 12l9 40q2 7 8 12.5t15 5.5h45l55 263q4 19 27 26q7 2 24 5t40 5.5t50.5 4.5t56.5 2
q80 0 139 -19.5t98 -54.5t58 -83.5t19 -106.5zM526 470q0 31 -7.5 59.5t-25 50.5t-46.5 34.5t-72 12.5q-16 0 -32 -1t-24 -3l-45 -214h90q19 0 19 -19q0 -2 -2 -12l-9 -40q-2 -7 -8 -12.5t-15 -5.5h-94l-49 -229q9 -2 23.5 -3t30.5 -1q103 0 165 70q23 26 42 65t32 82
t20 86.5t7 79.5z" />
    <glyph glyph-name="dcroat" unicode="&#x111;" horiz-adv-x="576" 
d="M673 656q0 -3 -1 -8l-6 -28q-2 -7 -8 -12.5t-15 -5.5h-50l-107 -504q-6 -29 -18 -46.5t-38 -31.5q-23 -13 -69.5 -23t-97.5 -10q-110 0 -166.5 54.5t-56.5 142.5q0 73 26 140.5t74 118.5q38 42 88 64.5t109 22.5q34 0 57.5 -8t32.5 -15l20 95h-118q-18 0 -18 19q0 4 1 8
l6 28q2 7 8 12.5t15 5.5h122l15 72q2 7 8 12.5t15 5.5h103q19 0 19 -19q0 -3 -1 -8l-13 -63h45q19 0 19 -19zM413 438q-8 6 -22 11t-37 5q-59 0 -104 -65q-14 -20 -25 -44t-18.5 -50t-12 -53t-4.5 -51q0 -59 25 -88t60 -29q30 0 47 12t22 33z" />
    <glyph glyph-name="Emacron" unicode="&#x112;" horiz-adv-x="507" 
d="M564 687q0 -3 -2 -13l-11 -52q-2 -8 -8 -13t-15 -5h-224l-40 -190h184q19 0 19 -19q0 -2 -2 -12l-11 -51q-2 -7 -8 -12.5t-15 -5.5h-188l-45 -209h219q19 0 19 -19v-3q0 -1 -1 -6l-13 -59q-2 -8 -7.5 -13t-14.5 -5h-359q-19 0 -19 19q0 3 2 13l140 656q2 8 8 13t15 5h358
q19 0 19 -19zM540 848q0 -4 -1 -9l-6 -29q-2 -7 -8 -12.5t-15 -5.5h-249q-19 0 -19 19v3q0 2 2 9l6 26q2 7 8 12.5t15 5.5h248q19 0 19 -19z" />
    <glyph glyph-name="emacron" unicode="&#x113;" horiz-adv-x="531" 
d="M516 368q0 -27 -7 -48q-5 -17 -15 -24t-26 -9l-289 -46v-16q0 -24 5 -46.5t17 -40t32 -27.5t50 -10q21 0 40 6.5t35.5 17t30 22.5t24.5 24q15 17 36 17q11 0 19 -7.5t8 -18.5q0 -20 -15.5 -50t-45 -58t-73 -47.5t-99.5 -19.5q-45 0 -82 14t-64 40t-41.5 63.5t-14.5 84.5
q0 64 19 125.5t56.5 109.5t93 77.5t128.5 29.5q40 0 73 -13t56 -35t36 -51.5t13 -63.5zM381 378q0 32 -15 53.5t-51 21.5q-26 0 -47.5 -12.5t-37.5 -32.5t-27 -45t-17 -50l191 31q2 11 3 19.5t1 14.5zM505 661q0 -4 -1 -9l-6 -29q-2 -7 -8 -12.5t-15 -5.5h-249q-19 0 -19 19
q0 4 2 12l6 26q2 7 8 12.5t15 5.5h248q19 0 19 -19z" />
    <glyph glyph-name="Ebreve" unicode="&#x114;" horiz-adv-x="507" 
d="M564 687q0 -3 -2 -13l-11 -52q-2 -8 -8 -13t-15 -5h-224l-40 -190h184q19 0 19 -19q0 -2 -2 -12l-11 -51q-2 -7 -8 -12.5t-15 -5.5h-188l-45 -209h219q19 0 19 -19v-3q0 -1 -1 -6l-13 -59q-2 -8 -7.5 -13t-14.5 -5h-359q-19 0 -19 19q0 3 2 13l140 656q2 8 8 13t15 5h358
q19 0 19 -19zM549 898q0 -16 -11 -39t-32.5 -44.5t-53.5 -37t-74 -15.5q-34 0 -57.5 11t-38 28t-21 37t-6.5 38t6.5 31t22.5 13q11 0 15.5 -6.5t6.5 -11.5q8 -29 27.5 -46.5t53.5 -17.5q35 0 62.5 18.5t47.5 46.5q4 6 11 11.5t18 5.5q10 0 16.5 -6t6.5 -16z" />
    <glyph glyph-name="ebreve" unicode="&#x115;" horiz-adv-x="531" 
d="M516 368q0 -27 -7 -48q-5 -17 -15 -24t-26 -9l-289 -46v-16q0 -24 5 -46.5t17 -40t32 -27.5t50 -10q21 0 40 6.5t35.5 17t30 22.5t24.5 24q15 17 36 17q11 0 19 -7.5t8 -18.5q0 -20 -15.5 -50t-45 -58t-73 -47.5t-99.5 -19.5q-45 0 -82 14t-64 40t-41.5 63.5t-14.5 84.5
q0 64 19 125.5t56.5 109.5t93 77.5t128.5 29.5q40 0 73 -13t56 -35t36 -51.5t13 -63.5zM381 378q0 32 -15 53.5t-51 21.5q-26 0 -47.5 -12.5t-37.5 -32.5t-27 -45t-17 -50l191 31q2 11 3 19.5t1 14.5zM518 711q0 -16 -11 -39t-32.5 -44.5t-53.5 -37t-74 -15.5
q-34 0 -57.5 11t-38 28t-21 37t-6.5 38t6.5 31t22.5 13q11 0 15.5 -6.5t6.5 -11.5q8 -29 27.5 -46.5t53.5 -17.5q35 0 62.5 18.5t47.5 46.5q4 6 11 11.5t18 5.5q10 0 16.5 -6t6.5 -16z" />
    <glyph glyph-name="Edotaccent" unicode="&#x116;" horiz-adv-x="507" 
d="M564 687q0 -3 -2 -13l-11 -52q-2 -8 -8 -13t-15 -5h-224l-40 -190h184q19 0 19 -19q0 -2 -2 -12l-11 -51q-2 -7 -8 -12.5t-15 -5.5h-188l-45 -209h219q19 0 19 -19v-3q0 -1 -1 -6l-13 -59q-2 -8 -7.5 -13t-14.5 -5h-359q-19 0 -19 19q0 3 2 13l140 656q2 8 8 13t15 5h358
q19 0 19 -19zM462 839q0 -15 -6.5 -28t-17.5 -22.5t-24.5 -14.5t-28.5 -5q-25 0 -41.5 15.5t-16.5 36.5q0 15 6.5 28t17.5 22.5t25 14.5t28 5q25 0 41.5 -15.5t16.5 -36.5z" />
    <glyph glyph-name="edotaccent" unicode="&#x117;" horiz-adv-x="531" 
d="M516 368q0 -27 -7 -48q-5 -17 -15 -24t-26 -9l-289 -46v-16q0 -24 5 -46.5t17 -40t32 -27.5t50 -10q21 0 40 6.5t35.5 17t30 22.5t24.5 24q15 17 36 17q11 0 19 -7.5t8 -18.5q0 -20 -15.5 -50t-45 -58t-73 -47.5t-99.5 -19.5q-45 0 -82 14t-64 40t-41.5 63.5t-14.5 84.5
q0 64 19 125.5t56.5 109.5t93 77.5t128.5 29.5q40 0 73 -13t56 -35t36 -51.5t13 -63.5zM381 378q0 32 -15 53.5t-51 21.5q-26 0 -47.5 -12.5t-37.5 -32.5t-27 -45t-17 -50l191 31q2 11 3 19.5t1 14.5zM428 652q0 -15 -6.5 -28t-17.5 -22.5t-24.5 -14.5t-28.5 -5
q-25 0 -41.5 15.5t-16.5 36.5q0 15 6.5 28t17.5 22.5t25 14.5t28 5q25 0 41.5 -15.5t16.5 -36.5z" />
    <glyph glyph-name="Eogonek" unicode="&#x118;" horiz-adv-x="507" 
d="M563 687q0 -4 -1 -8l-11 -57q-2 -8 -8 -13t-15 -5h-224l-40 -190h183q19 0 19 -19q0 -3 -1 -8l-11 -55q-2 -7 -8 -12.5t-15 -5.5h-188l-45 -209h219q19 0 19 -19q0 -4 -1 -9l-13 -60q-1 -3 -3 -7t-10 -8q-15 -7 -34 -18t-36 -24t-28.5 -27.5t-11.5 -29.5q0 -33 54 -33
q30 0 49.5 6.5t36.5 6.5q11 0 17 -6.5t6 -15.5q0 -13 -13 -23t-33.5 -16.5t-44.5 -10t-46 -3.5q-26 0 -49 4.5t-40 13.5t-27 22.5t-10 31.5q0 20 11 38t27.5 33t36.5 27.5t38 21.5h-271q-19 0 -19 19v4l2 8l140 657q2 8 8 13t15 5h357q19 0 19 -19z" />
    <glyph glyph-name="eogonek" unicode="&#x119;" horiz-adv-x="531" 
d="M516 368q0 -27 -7 -48q-5 -17 -15 -24t-26 -9l-289 -46v-16q0 -24 5 -46.5t17 -40t32 -27.5t50 -10q21 0 40 6.5t35.5 17t30 22.5t24.5 24q15 17 36 17q11 0 19 -7.5t8 -18.5q0 -20 -11.5 -43t-31.5 -45.5t-46 -41.5t-55 -29q-15 -7 -34 -18t-36 -24t-28.5 -28t-11.5 -30
q0 -33 54 -33q30 0 49.5 6.5t36.5 6.5q11 0 17 -6.5t6 -15.5q0 -13 -13 -23t-33.5 -16.5t-44.5 -10t-46 -3.5q-26 0 -49 4.5t-40.5 13.5t-27.5 22.5t-10 31.5q0 17 8 33t21.5 29.5t29.5 25.5t33 21q-41 4 -73 21t-54 43t-33.5 61t-11.5 75q0 64 19 125.5t56.5 109.5t93 77.5
t128.5 29.5q40 0 73 -13t56 -35t36 -51.5t13 -63.5zM381 378q0 32 -15 53.5t-51 21.5q-26 0 -47.5 -12.5t-37.5 -32.5t-27 -45t-17 -50l191 31q2 8 3 16.5t1 17.5z" />
    <glyph glyph-name="Ecaron" unicode="&#x11a;" horiz-adv-x="507" 
d="M564 687q0 -3 -2 -13l-11 -52q-2 -8 -8 -13t-15 -5h-224l-40 -190h184q19 0 19 -19q0 -2 -2 -12l-11 -51q-2 -7 -8 -12.5t-15 -5.5h-188l-45 -209h219q19 0 19 -19v-3q0 -1 -1 -6l-13 -59q-2 -8 -7.5 -13t-14.5 -5h-359q-19 0 -19 19q0 3 2 13l140 656q2 8 8 13t15 5h358
q19 0 19 -19zM557 901q0 -10 -7 -17.5t-17 -12.5q-31 -17 -62.5 -42t-60.5 -56q-5 -5 -13 -10t-18 -5t-16 5t-9 10q-16 31 -37.5 56t-44.5 42q-13 10 -13 23q0 11 8.5 19.5t21.5 8.5q8 0 13.5 -2.5t10.5 -5.5l62 -43q5 -3 10.5 -6t11.5 -3q5 0 12 2.5t14 6.5l80 43
q5 3 12.5 5.5t15.5 2.5q12 0 19 -6t7 -15z" />
    <glyph glyph-name="ecaron" unicode="&#x11b;" horiz-adv-x="531" 
d="M516 368q0 -27 -7 -48q-5 -17 -15 -24t-26 -9l-289 -46v-16q0 -24 5 -46.5t17 -40t32 -27.5t50 -10q21 0 40 6.5t35.5 17t30 22.5t24.5 24q15 17 36 17q11 0 19 -7.5t8 -18.5q0 -20 -15.5 -50t-45 -58t-73 -47.5t-99.5 -19.5q-45 0 -82 14t-64 40t-41.5 63.5t-14.5 84.5
q0 64 19 125.5t56.5 109.5t93 77.5t128.5 29.5q40 0 73 -13t56 -35t36 -51.5t13 -63.5zM381 378q0 32 -15 53.5t-51 21.5q-26 0 -47.5 -12.5t-37.5 -32.5t-27 -45t-17 -50l191 31q2 11 3 19.5t1 14.5zM521 714q0 -10 -7 -17.5t-17 -12.5q-31 -17 -62.5 -42t-60.5 -56
q-5 -5 -13 -10t-18 -5t-16 5t-9 10q-16 31 -37.5 56t-44.5 42q-13 10 -13 23q0 11 8.5 19.5t21.5 8.5q8 0 13.5 -2.5t10.5 -5.5l62 -43q5 -4 11 -6.5t11 -2.5q6 0 13 3t13 6l80 43q5 3 12.5 5.5t15.5 2.5q12 0 19 -6t7 -15z" />
    <glyph glyph-name="Gcircumflex" unicode="&#x11c;" horiz-adv-x="690" 
d="M698 578q0 -33 -19 -53.5t-52 -20.5q-28 0 -44.5 14t-24.5 37q-5 13 -11.5 25.5t-17.5 23t-28.5 17t-42.5 6.5q-44 0 -82.5 -23.5t-69.5 -73.5q-18 -28 -32 -62.5t-23.5 -71t-15 -74t-5.5 -70.5q0 -75 33.5 -119t90.5 -44q48 0 76 17.5t34 45.5l29 140h-94q-19 0 -19 18
q0 3 2 11l11 50q2 7 8 12.5t15 5.5h223q19 0 19 -19q0 -3 -2 -13l-55 -257q-5 -22 -25 -42.5t-54 -36.5t-79.5 -26t-99.5 -10q-61 0 -112.5 19t-88.5 54.5t-57.5 86.5t-20.5 115q0 87 27 170t79.5 148t129 104.5t176.5 39.5q56 0 98 -14t69.5 -35.5t41 -47t13.5 -47.5z
M632 786q0 -11 -8.5 -20t-21.5 -9q-8 0 -13.5 3t-10.5 6l-66 46q-9 6 -18 6q-4 0 -10 -1.5t-11 -4.5l-85 -46q-5 -3 -12.5 -6t-15.5 -3q-11 0 -18.5 6.5t-7.5 15.5q0 10 7 17.5t17 12.5q31 17 62.5 41.5t60.5 55.5q5 5 13 10t18 5t16 -5t9 -10q16 -31 37.5 -56t44.5 -42
q13 -10 13 -22z" />
    <glyph glyph-name="gcircumflex" unicode="&#x11d;" horiz-adv-x="576" 
d="M558 450q0 -13 -3 -28l-82 -386q-30 -140 -100 -210.5t-197 -70.5q-50 0 -87.5 11.5t-63 29.5t-38.5 40.5t-13 44.5q0 27 19.5 46t48.5 19q43 0 64 -41q14 -26 32 -42.5t55 -16.5q19 0 38 10t35.5 28.5t30 45t20.5 60.5l10 50q-19 -15 -53.5 -32.5t-84.5 -17.5
q-36 0 -64.5 13t-48 36t-29.5 54t-10 67q0 38 7 77t20.5 75.5t34.5 69.5t48 60q90 89 224 89q60 0 101.5 -11t59.5 -23q14 -10 20 -21.5t6 -25.5zM407 419q0 14 -11.5 24t-40.5 10q-25 0 -52.5 -15.5t-51.5 -49.5q-14 -20 -25.5 -45.5t-19.5 -53.5t-12.5 -55.5t-4.5 -52.5
q0 -48 21 -72t54 -24q24 0 45 9.5t34 19.5l62 291q2 10 2 14zM528 599q0 -11 -8.5 -20t-21.5 -9q-8 0 -13.5 3t-10.5 6l-66 46q-9 6 -18 6q-5 0 -10.5 -2t-10.5 -4l-85 -46q-5 -3 -12.5 -6t-15.5 -3q-11 0 -18.5 6.5t-7.5 15.5q0 10 7 17.5t17 12.5q31 17 62.5 41.5
t60.5 55.5q5 5 13 10t18 5t16 -5t9 -10q16 -31 37.5 -56t44.5 -42q13 -10 13 -22z" />
    <glyph glyph-name="Gbreve" unicode="&#x11e;" horiz-adv-x="690" 
d="M698 578q0 -33 -19 -53.5t-52 -20.5q-28 0 -44.5 14t-24.5 37q-5 13 -11.5 25.5t-17.5 23t-28.5 17t-42.5 6.5q-44 0 -82.5 -23.5t-69.5 -73.5q-18 -28 -32 -62.5t-23.5 -71t-15 -74t-5.5 -70.5q0 -75 33.5 -119t90.5 -44q48 0 76 17.5t34 45.5l29 140h-94q-19 0 -19 18
q0 3 2 11l11 50q2 7 8 12.5t15 5.5h223q19 0 19 -19q0 -3 -2 -13l-55 -257q-5 -22 -25 -42.5t-54 -36.5t-79.5 -26t-99.5 -10q-61 0 -112.5 19t-88.5 54.5t-57.5 86.5t-20.5 115q0 87 27 170t79.5 148t129 104.5t176.5 39.5q56 0 98 -14t69.5 -35.5t41 -47t13.5 -47.5z
M648 898q0 -16 -11 -39t-32.5 -44.5t-53.5 -37t-74 -15.5q-34 0 -57.5 11t-38 28t-21 37t-6.5 38t6.5 31t22.5 13q11 0 15.5 -6.5t6.5 -11.5q8 -29 27.5 -46.5t53.5 -17.5q35 0 62.5 18.5t47.5 46.5q4 6 11 11.5t18 5.5q10 0 16.5 -6t6.5 -16z" />
    <glyph glyph-name="gbreve" unicode="&#x11f;" horiz-adv-x="576" 
d="M558 450q0 -13 -3 -28l-82 -386q-30 -140 -100 -210.5t-197 -70.5q-50 0 -87.5 11.5t-63 29.5t-38.5 40.5t-13 44.5q0 27 19.5 46t48.5 19q43 0 64 -41q14 -26 32 -42.5t55 -16.5q19 0 38 10t35.5 28.5t30 45t20.5 60.5l10 50q-19 -15 -53.5 -32.5t-84.5 -17.5
q-36 0 -64.5 13t-48 36t-29.5 54t-10 67q0 38 7 77t20.5 75.5t34.5 69.5t48 60q90 89 224 89q60 0 101.5 -11t59.5 -23q14 -10 20 -21.5t6 -25.5zM407 419q0 14 -11.5 24t-40.5 10q-25 0 -52.5 -15.5t-51.5 -49.5q-14 -20 -25.5 -45.5t-19.5 -53.5t-12.5 -55.5t-4.5 -52.5
q0 -48 21 -72t54 -24q24 0 45 9.5t34 19.5l62 291q2 10 2 14zM551 711q0 -16 -11 -39t-32.5 -44.5t-53.5 -37t-74 -15.5q-34 0 -57.5 11t-38 28t-21 37t-6.5 38t6.5 31t22.5 13q11 0 15.5 -6.5t6.5 -11.5q8 -29 27.5 -46.5t53.5 -17.5q35 0 62.5 18.5t47.5 46.5q4 6 11 11.5
t18 5.5q10 0 16.5 -6t6.5 -16z" />
    <glyph glyph-name="Gdotaccent" unicode="&#x120;" horiz-adv-x="690" 
d="M698 578q0 -33 -19 -53.5t-52 -20.5q-28 0 -44.5 14t-24.5 37q-5 13 -11.5 25.5t-17.5 23t-28.5 17t-42.5 6.5q-44 0 -82.5 -23.5t-69.5 -73.5q-18 -28 -32 -62.5t-23.5 -71t-15 -74t-5.5 -70.5q0 -75 33.5 -119t90.5 -44q48 0 76 17.5t34 45.5l29 140h-94q-19 0 -19 18
q0 3 2 11l11 50q2 7 8 12.5t15 5.5h223q19 0 19 -19q0 -3 -2 -13l-55 -257q-5 -22 -25 -42.5t-54 -36.5t-79.5 -26t-99.5 -10q-61 0 -112.5 19t-88.5 54.5t-57.5 86.5t-20.5 115q0 87 27 170t79.5 148t129 104.5t176.5 39.5q56 0 98 -14t69.5 -35.5t41 -47t13.5 -47.5z
M557 839q0 -15 -6.5 -28t-17.5 -22.5t-24.5 -14.5t-28.5 -5q-25 0 -41.5 15.5t-16.5 36.5q0 15 6.5 28t17.5 22.5t25 14.5t28 5q25 0 41.5 -15.5t16.5 -36.5z" />
    <glyph glyph-name="gdotaccent" unicode="&#x121;" horiz-adv-x="576" 
d="M558 450q0 -13 -3 -28l-82 -386q-30 -140 -100 -210.5t-197 -70.5q-50 0 -87.5 11.5t-63 29.5t-38.5 40.5t-13 44.5q0 27 19.5 46t48.5 19q43 0 64 -41q14 -26 32 -42.5t55 -16.5q19 0 38 10t35.5 28.5t30 45t20.5 60.5l10 50q-19 -15 -53.5 -32.5t-84.5 -17.5
q-36 0 -64.5 13t-48 36t-29.5 54t-10 67q0 38 7 77t20.5 75.5t34.5 69.5t48 60q90 89 224 89q60 0 101.5 -11t59.5 -23q14 -10 20 -21.5t6 -25.5zM407 419q0 14 -11.5 24t-40.5 10q-25 0 -52.5 -15.5t-51.5 -49.5q-14 -20 -25.5 -45.5t-19.5 -53.5t-12.5 -55.5t-4.5 -52.5
q0 -48 21 -72t54 -24q24 0 45 9.5t34 19.5l62 291q2 10 2 14zM466 652q0 -15 -6.5 -28t-17.5 -22.5t-24.5 -14.5t-28.5 -5q-25 0 -41.5 15.5t-16.5 36.5q0 15 6.5 28t17.5 22.5t25 14.5t28 5q25 0 41.5 -15.5t16.5 -36.5z" />
    <glyph glyph-name="Gcommaaccent" unicode="&#x122;" horiz-adv-x="690" 
d="M698 578q0 -33 -19 -53.5t-52 -20.5q-28 0 -44.5 14t-24.5 37q-5 13 -11.5 25.5t-17.5 23t-28.5 17t-42.5 6.5q-44 0 -82.5 -23.5t-69.5 -73.5q-18 -28 -32 -62.5t-23.5 -71t-15 -74t-5.5 -70.5q0 -75 33.5 -119t90.5 -44q48 0 76 17.5t34 45.5l29 140h-94q-19 0 -19 18
q0 3 2 11l11 50q2 7 8 12.5t15 5.5h223q19 0 19 -19q0 -3 -2 -13l-55 -257q-5 -22 -25 -42.5t-54 -36.5t-79.5 -26t-99.5 -10q-61 0 -112.5 19t-88.5 54.5t-57.5 86.5t-20.5 115q0 87 27 170t79.5 148t129 104.5t176.5 39.5q56 0 98 -14t69.5 -35.5t41 -47t13.5 -47.5z
M361 -101q0 -26 -15.5 -48t-40 -39t-54.5 -26.5t-58 -9.5q-22 0 -22 16q0 8 5 13.5t13 9.5q7 4 17 9t19 11.5t15 14.5t6 17q0 6 -2.5 10.5t-6 8.5t-6 8.5t-2.5 11.5q0 20 20 30.5t51 10.5q33 0 47 -14.5t14 -33.5z" />
    <glyph glyph-name="gcommaaccent" unicode="&#x123;" horiz-adv-x="576" 
d="M558 450q0 -13 -3 -28l-82 -386q-30 -140 -100 -210.5t-197 -70.5q-50 0 -87.5 11.5t-63 29.5t-38.5 40.5t-13 44.5q0 27 19.5 46t48.5 19q43 0 64 -41q14 -26 32 -42.5t55 -16.5q19 0 38 10t35.5 28.5t30 45t20.5 60.5l10 50q-19 -15 -53.5 -32.5t-84.5 -17.5
q-36 0 -64.5 13t-48 36t-29.5 54t-10 67q0 38 7 77t20.5 75.5t34.5 69.5t48 60q90 89 224 89q60 0 101.5 -11t59.5 -23q14 -10 20 -21.5t6 -25.5zM407 419q0 14 -11.5 24t-40.5 10q-25 0 -52.5 -15.5t-51.5 -49.5q-14 -20 -25.5 -45.5t-19.5 -53.5t-12.5 -55.5t-4.5 -52.5
q0 -48 21 -72t54 -24q24 0 45 9.5t34 19.5l62 291q2 10 2 14zM511 730q0 -8 -5 -13t-13 -9t-17.5 -9.5t-18.5 -12t-15 -14.5t-6 -17q0 -6 2.5 -10t6 -8t6 -8.5t2.5 -11.5q0 -20 -20 -30.5t-51 -10.5q-33 0 -47 14.5t-14 33.5q0 25 15.5 47.5t40 39t54.5 26t58 9.5
q22 0 22 -16z" />
    <glyph glyph-name="Hcircumflex" unicode="&#x124;" horiz-adv-x="684" 
d="M714 687q0 -4 -1 -9l-141 -660q-2 -8 -8 -13t-15 -5h-116q-19 0 -19 19q0 5 2 13l60 282h-233l-63 -296q-2 -8 -7.5 -13t-14.5 -5h-117q-18 0 -18 19q0 5 1 9l140 660q2 8 8 13t15 5h116q19 0 19 -19q0 -4 -1 -9l-56 -264h233l58 274q2 8 8 13t15 5h116q19 0 19 -19z
M609 786q0 -11 -8.5 -20t-21.5 -9q-8 0 -13.5 3t-10.5 6l-66 46q-9 6 -18 6q-4 0 -10 -1.5t-11 -4.5l-85 -46q-5 -3 -12.5 -6t-15.5 -3q-11 0 -18.5 6.5t-7.5 15.5q0 10 7 17.5t17 12.5q31 17 62.5 41.5t60.5 55.5q5 5 13 10t18 5t16 -5t9 -10q16 -31 37.5 -56t44.5 -42
q13 -10 13 -22z" />
    <glyph glyph-name="hcircumflex" unicode="&#x125;" horiz-adv-x="575" 
d="M548 406q0 -9 -1 -18t-3 -18l-75 -352q-2 -7 -8 -12.5t-15 -5.5h-104q-19 0 -19 19q0 5 1 9l70 332q3 16 3 24q0 29 -17.5 43.5t-45.5 14.5q-26 0 -48 -9t-39 -23l-84 -392q-2 -8 -8 -13t-15 -5h-104q-19 0 -19 19q0 4 1 9l153 719q2 8 8 13t15 5h104q19 0 19 -19v-3
q0 -1 -1 -6l-53 -256q23 18 59 34t84 16q30 0 55.5 -9t45 -25t30.5 -39.5t11 -51.5zM409 830q0 -11 -8.5 -20t-21.5 -9q-8 0 -13.5 3t-10.5 6l-66 46q-9 6 -18 6q-5 0 -10.5 -2t-10.5 -4l-85 -46q-5 -3 -12.5 -6t-15.5 -3q-11 0 -18.5 6.5t-7.5 15.5q0 10 7 17.5t17 12.5
q31 17 62.5 41.5t60.5 55.5q5 5 13 10t18 5t16 -5t9 -10q16 -31 37.5 -56t44.5 -42q13 -10 13 -22z" />
    <glyph glyph-name="Hbar" unicode="&#x126;" horiz-adv-x="689" 
d="M760 570q0 -5 -3 -17t-5 -21q-2 -8 -8 -13t-14 -5h-50l-105 -496q-2 -8 -8.5 -13t-14.5 -5h-115q-19 0 -19 19q0 3 1 8l60 287h-233l-63 -296q-2 -8 -8.5 -13t-14.5 -5h-115q-19 0 -19 19q0 3 1 8l103 487h-46q-19 0 -19 19q0 4 2.5 15t5.5 23q5 18 23 18h50l21 99
q2 8 8.5 13t14.5 5h115q19 0 19 -19q0 -3 -1 -8l-18 -90h233l21 99q3 18 22 18h117q18 0 18 -19q0 -3 -1 -8l-19 -90h45q19 0 19 -19zM289 514l-22 -100h233l22 100h-233z" />
    <glyph glyph-name="hbar" unicode="&#x127;" horiz-adv-x="575" 
d="M548 406q0 -9 -1 -19t-3 -17l-75 -352q-2 -7 -8 -12.5t-15 -5.5h-104q-19 0 -19 19q0 4 1 9l70 332q3 13 3 24q0 29 -17.5 43.5t-45.5 14.5q-26 0 -48 -9t-39 -23l-84 -392q-2 -8 -8 -13t-15 -5h-104q-19 0 -19 19q0 4 1 9l122 574h-42q-19 0 -19 19q0 3 1 8l6 28
q2 7 8 12.5t15 5.5h47l15 72q2 8 8 13t15 5h105q19 0 19 -19q0 -4 -2 -12l-13 -59h120q18 0 18 -19q0 -3 -1 -8l-6 -28q-2 -7 -8 -12.5t-15 -5.5h-123l-25 -121q23 18 59 34t84 16q30 0 55.5 -9t45 -25t30.5 -39.5t11 -51.5z" />
    <glyph glyph-name="Itilde" unicode="&#x128;" horiz-adv-x="297" 
d="M325 687q0 -3 -2 -13l-140 -656q-2 -8 -8 -13t-15 -5h-116q-19 0 -19 19q0 3 2 13l140 656q2 8 8 13t15 5h116q19 0 19 -19zM433 878q0 -10 -6 -28t-19 -36t-34.5 -31.5t-51.5 -13.5q-20 0 -33 8t-23.5 18t-21 18t-25.5 8q-17 0 -26.5 -8.5t-17.5 -19t-15.5 -19
t-19.5 -8.5q-21 0 -21 21q0 10 6 28.5t19.5 36.5t34 31t50.5 13q20 0 33 -8t23.5 -17.5t21.5 -17.5t26 -8q16 0 26 8.5t18 18.5t15.5 18.5t19.5 8.5q21 0 21 -21z" />
    <glyph glyph-name="itilde" unicode="&#x129;" horiz-adv-x="277" 
d="M268 499q0 -4 -1 -9l-100 -472q-2 -8 -8 -13t-15 -5h-104q-19 0 -19 19q0 4 1 9l101 472q2 8 8 13t15 5h103q19 0 19 -19zM385 691q0 -10 -6 -28t-19 -36t-34.5 -31.5t-51.5 -13.5q-20 0 -33 8t-23.5 18t-21 18t-25.5 8q-17 0 -26.5 -8.5t-17.5 -19t-15.5 -19t-19.5 -8.5
q-21 0 -21 21q0 10 6 28.5t19.5 36.5t34 31t50.5 13q20 0 33 -8t23.5 -17.5t21.5 -17.5t26 -8q16 0 26 8.5t18 18.5t15.5 18.5t19.5 8.5q21 0 21 -21z" />
    <glyph glyph-name="Imacron" unicode="&#x12a;" horiz-adv-x="297" 
d="M325 687q0 -3 -2 -13l-140 -656q-2 -8 -8 -13t-15 -5h-116q-19 0 -19 19q0 3 2 13l140 656q2 8 8 13t15 5h116q19 0 19 -19zM424 848q0 -4 -1 -9l-6 -29q-2 -7 -8 -12.5t-15 -5.5h-249q-19 0 -19 19v3q0 2 2 9l6 26q2 7 8 12.5t15 5.5h248q19 0 19 -19z" />
    <glyph glyph-name="imacron" unicode="&#x12b;" horiz-adv-x="277" 
d="M268 499q0 -4 -1 -9l-100 -472q-2 -8 -8 -13t-15 -5h-104q-19 0 -19 19q0 4 1 9l101 472q2 8 8 13t15 5h103q19 0 19 -19zM374 661q0 -4 -1 -9l-6 -29q-2 -7 -8 -12.5t-15 -5.5h-249q-19 0 -19 19q0 4 2 12l6 26q2 7 8 12.5t15 5.5h248q19 0 19 -19z" />
    <glyph glyph-name="Ibreve" unicode="&#x12c;" horiz-adv-x="297" 
d="M325 687q0 -3 -2 -13l-140 -656q-2 -8 -8 -13t-15 -5h-116q-19 0 -19 19q0 3 2 13l140 656q2 8 8 13t15 5h116q19 0 19 -19zM435 898q0 -16 -11 -39t-32.5 -44.5t-53.5 -37t-74 -15.5q-34 0 -57.5 11t-38 28t-21 37t-6.5 38t6.5 31t22.5 13q11 0 15.5 -6.5t6.5 -11.5
q8 -29 27.5 -46.5t53.5 -17.5q35 0 62.5 18.5t47.5 46.5q4 6 11 11.5t18 5.5q10 0 16.5 -6t6.5 -16z" />
    <glyph glyph-name="ibreve" unicode="&#x12d;" horiz-adv-x="277" 
d="M268 499q0 -4 -1 -9l-100 -472q-2 -8 -8 -13t-15 -5h-104q-19 0 -19 19q0 4 1 9l101 472q2 8 8 13t15 5h103q19 0 19 -19zM385 711q0 -16 -11 -39t-32.5 -44.5t-53.5 -37t-74 -15.5q-34 0 -57.5 11t-38 28t-21 37t-6.5 38t6.5 31t22.5 13q11 0 15.5 -6.5t6.5 -11.5
q8 -29 27.5 -46.5t53.5 -17.5q35 0 62.5 18.5t47.5 46.5q4 6 11 11.5t18 5.5q10 0 16.5 -6t6.5 -16z" />
    <glyph glyph-name="Iogonek" unicode="&#x12e;" horiz-adv-x="297" 
d="M325 687q0 -3 -1 -8l-141 -661q-2 -8 -8 -13t-15 -5h-60q-15 -8 -33.5 -18.5t-34.5 -23t-27 -26.5t-11 -29q0 -33 53 -33q30 0 49.5 6.5t36.5 6.5q11 0 17 -6.5t6 -15.5q0 -13 -13 -23t-33.5 -16.5t-44.5 -10t-46 -3.5q-26 0 -49 4.5t-40 13.5t-27 22.5t-10 31.5
q0 23 13.5 43t33.5 36t42 28t40 20l145 681q2 8 8 13t15 5h116q19 0 19 -19z" />
    <glyph glyph-name="iogonek" unicode="&#x12f;" horiz-adv-x="277" 
d="M308 660q0 -29 -24 -50t-66 -21q-32 0 -51.5 16.5t-19.5 38.5q0 29 25 49.5t66 20.5q32 0 51 -16t19 -38zM268 499q0 -3 -1 -8l-101 -473q-2 -8 -8 -13t-15 -5h-41q-15 -8 -33.5 -18.5t-34 -23t-26.5 -26.5t-11 -29q0 -33 54 -33q30 0 49.5 6.5t36.5 6.5q11 0 16.5 -6.5
t5.5 -15.5q0 -13 -13 -23t-33.5 -16.5t-44.5 -10t-46 -3.5q-26 0 -49 4.5t-40 13.5t-27 22.5t-10 31.5q0 21 12 39.5t30 34.5t39 28.5t39 20.5l106 497q2 8 8 13t15 5h104q19 0 19 -19z" />
    <glyph glyph-name="Idotaccent" unicode="&#x130;" horiz-adv-x="297" 
d="M325 687q0 -3 -2 -13l-140 -656q-2 -8 -8 -13t-15 -5h-116q-19 0 -19 19q0 3 2 13l140 656q2 8 8 13t15 5h116q19 0 19 -19zM343 839q0 -15 -6.5 -28t-17.5 -22.5t-24.5 -14.5t-28.5 -5q-25 0 -41.5 15.5t-16.5 36.5q0 15 6.5 28t17.5 22.5t25 14.5t28 5q25 0 41.5 -15.5
t16.5 -36.5z" />
    <glyph glyph-name="dotlessi" unicode="&#x131;" horiz-adv-x="277" 
d="M267 499q0 -4 -1 -9l-100 -472q-2 -8 -8 -13t-15 -5h-104q-19 0 -19 19q0 4 1 9l101 472q2 8 8 13t15 5h103q19 0 19 -19z" />
    <glyph glyph-name="IJ" unicode="&#x132;" horiz-adv-x="595" 
d="M325 687q0 -3 -2 -13l-140 -656q-2 -8 -8 -13t-15 -5h-116q-19 0 -19 19q0 3 2 13l140 656q2 8 8 13t15 5h116q19 0 19 -19zM622 684q0 -1 -1 -6l-123 -575q-22 -104 -64 -170t-90 -104t-95.5 -52.5t-81.5 -14.5q-56 0 -56 34q0 29 38 42q31 11 59.5 30.5t52.5 49
t43 70.5t31 95l129 605q2 8 8 13t15 5h116q19 0 19 -19v-3z" />
    <glyph glyph-name="ij" unicode="&#x133;" horiz-adv-x="554" 
d="M308 660q0 -29 -24 -50t-66 -21q-32 0 -51.5 16.5t-19.5 38.5q0 29 25 49.5t66 20.5q32 0 51 -16t19 -38zM267 499q0 -4 -1 -9l-100 -472q-2 -8 -8 -13t-15 -5h-104q-19 0 -19 19q0 4 1 9l101 472q2 8 8 13t15 5h103q19 0 19 -19zM585 660q0 -29 -24 -50t-66 -21
q-32 0 -51.5 16.5t-19.5 38.5q0 29 25 49.5t66 20.5q32 0 51 -16t19 -38zM544 499q0 -4 -1 -9l-80 -379q-23 -107 -62.5 -175t-83 -107t-84.5 -53.5t-68 -14.5q-16 0 -24.5 8t-8.5 22q0 19 26 36t49 40.5t43 57t36.5 79t29.5 107.5l83 389q2 8 8 13t15 5h103q19 0 19 -19z
" />
    <glyph glyph-name="Jcircumflex" unicode="&#x134;" horiz-adv-x="297" 
d="M325 684q0 -1 -1 -6l-123 -575q-22 -104 -64 -170t-90 -104t-95.5 -52.5t-81.5 -14.5q-56 0 -56 34q0 29 38 42q31 11 59.5 30.5t52.5 49t43 70.5t31 95l129 605q2 8 8 13t15 5h116q19 0 19 -19v-3zM414 786q0 -11 -8.5 -20t-21.5 -9q-8 0 -13.5 3t-10.5 6l-66 46
q-9 6 -18 6q-4 0 -10 -1.5t-11 -4.5l-85 -46q-5 -3 -12.5 -6t-15.5 -3q-11 0 -18.5 6.5t-7.5 15.5q0 10 7 17.5t17 12.5q31 17 62.5 41.5t60.5 55.5q5 5 13 10t18 5t16 -5t9 -10q16 -31 37.5 -56t44.5 -42q13 -10 13 -22z" />
    <glyph glyph-name="jcircumflex" unicode="&#x135;" horiz-adv-x="277" 
d="M267 499q0 -4 -1 -9l-80 -379q-23 -107 -62.5 -175t-83 -107t-84.5 -53.5t-68 -14.5q-16 0 -24.5 8t-8.5 22q0 19 26 36t49 40.5t43 57t36.5 79t29.5 107.5l83 389q2 8 8 13t15 5h103q19 0 19 -19zM363 599q0 -11 -8.5 -20t-21.5 -9q-8 0 -13.5 3t-10.5 6l-66 46
q-9 6 -18 6q-5 0 -10.5 -2t-10.5 -4l-85 -46q-5 -3 -12.5 -6t-15.5 -3q-11 0 -18.5 6.5t-7.5 15.5q0 10 7 17.5t17 12.5q31 17 62.5 41.5t60.5 55.5q5 5 13 10t18 5t16 -5t9 -10q16 -31 37.5 -56t44.5 -42q13 -10 13 -22z" />
    <glyph glyph-name="Kcommaaccent" unicode="&#x136;" horiz-adv-x="615" 
d="M692 689q0 -5 -3 -10t-7 -9l-288 -287l161 -345q2 -4 3.5 -8t1.5 -9q0 -10 -7 -15.5t-16 -5.5h-122q-20 0 -29 20l-118 270q-6 14 -10 29t-7 29h-2l-70 -330q-2 -8 -8.5 -13t-14.5 -5h-113q-19 0 -19 19q0 6 1 9l140 660q2 8 8.5 13t14.5 5h114q18 0 18 -19q0 -3 -1 -8
l-58 -272h2l272 283q8 8 15 12t18 4h104q8 0 14 -4t6 -13zM312 -101q0 -26 -15.5 -48t-40 -39t-54.5 -26.5t-58 -9.5q-22 0 -22 16q0 8 5 13.5t13 9.5q7 4 17 9t19 11.5t15 14.5t6 17q0 6 -2.5 10.5t-6 8.5t-6 8.5t-2.5 11.5q0 20 20 30.5t51 10.5q33 0 47 -14.5t14 -33.5z
" />
    <glyph glyph-name="kcommaaccent" unicode="&#x137;" horiz-adv-x="549" 
d="M581 500q0 -5 -3 -9.5t-7 -8.5l-223 -198l134 -247q6 -11 6 -18q0 -8 -5.5 -13.5t-15.5 -5.5h-115q-13 0 -17.5 4.5t-9.5 14.5l-91 180q-7 14 -12 30t-7 27h-2l-50 -238q-2 -7 -8 -12.5t-15 -5.5h-103q-19 0 -19 19v3q0 3 2 9l153 716q2 8 8 13t15 5h102q19 0 19 -19
q0 -4 -1 -9l-93 -435h2l206 203q5 5 12 9t17 4h103q9 0 13.5 -5t4.5 -13zM286 -101q0 -26 -15.5 -48t-40 -39t-54.5 -26.5t-58 -9.5q-22 0 -22 16q0 8 5 13.5t13 9.5q7 4 17 9t19 11.5t15 14.5t6 17q0 6 -2.5 10.5t-6 8.5t-6 8.5t-2.5 11.5q0 20 20 30.5t51 10.5
q33 0 47 -14.5t14 -33.5z" />
    <glyph glyph-name="kgreenlandic" unicode="&#x138;" horiz-adv-x="549" 
d="M581 500q0 -5 -3 -10t-7 -8l-223 -198l134 -247q2 -2 4 -7.5t2 -10.5q0 -9 -6.5 -14t-14.5 -5h-115q-12 0 -17 4.5t-10 14.5l-91 180q-7 14 -11.5 29t-7.5 28h-2l-50 -238q-2 -8 -8.5 -13t-14.5 -5h-103q-19 0 -19 19q0 4 2 12l100 469q2 8 8.5 13t14.5 5h102
q19 0 19 -19v-3q0 -1 -1 -6l-40 -188h2l206 203q13 13 29 13h103q18 0 18 -18z" />
    <glyph glyph-name="Lacute" unicode="&#x139;" horiz-adv-x="480" 
d="M418 86q0 -3 -2 -11.5t-4 -19t-4.5 -21t-3.5 -16.5q-2 -8 -8.5 -13t-14.5 -5h-340q-19 0 -19 19q0 5 2 13l140 656q2 8 8.5 13t14.5 5h116q19 0 19 -19q0 -5 -2 -13l-122 -569h201q19 0 19 -19zM446 897q0 -9 -8 -15l-136 -107q-13 -10 -27 -10h-44q-13 0 -13 12
q0 5 6 13l80 97q12 15 35 23.5t58 8.5q21 0 35 -6t14 -16z" />
    <glyph glyph-name="lacute" unicode="&#x13a;" horiz-adv-x="275" 
d="M321 746q0 -3 -0.5 -6t-1.5 -7l-153 -715q-2 -8 -8 -13t-15 -5h-104q-19 0 -19 19q0 5 1 8l153 720q2 8 8 13t15 5h105q19 0 19 -19zM435 940q0 -9 -8 -15l-136 -107q-11 -10 -27 -10h-44q-13 0 -13 12q0 5 6 13l80 97q17 20 42.5 26t50.5 6q6 0 14 -1t16 -3.5t13.5 -6.5
t5.5 -11z" />
    <glyph glyph-name="Lcommaaccent" unicode="&#x13b;" horiz-adv-x="480" 
d="M418 86q0 -3 -2 -11.5t-4 -19t-4.5 -21t-3.5 -16.5q-2 -8 -8.5 -13t-14.5 -5h-340q-19 0 -19 19q0 5 2 13l140 656q2 8 8.5 13t14.5 5h116q19 0 19 -19q0 -5 -2 -13l-122 -569h201q19 0 19 -19zM241 -101q0 -26 -15.5 -48t-40 -39t-54.5 -26.5t-58 -9.5q-22 0 -22 16
q0 8 5 13.5t13 9.5q7 4 17 9t19 11.5t15 14.5t6 17q0 6 -2.5 10.5t-6 8.5t-6 8.5t-2.5 11.5q0 20 20 30.5t51 10.5q33 0 47 -14.5t14 -33.5z" />
    <glyph glyph-name="lcommaaccent" unicode="&#x13c;" horiz-adv-x="275" 
d="M321 746q0 -3 -0.5 -6t-1.5 -7l-153 -715q-2 -8 -8 -13t-15 -5h-104q-19 0 -19 19q0 5 1 8l153 720q2 8 8 13t15 5h105q19 0 19 -19zM130 -101q0 -26 -15.5 -48t-40 -39t-54.5 -26.5t-58 -9.5q-22 0 -22 16q0 8 5 13.5t13 9.5q7 4 17 9t19 11.5t15 14.5t6 17
q0 6 -2.5 10.5t-6 8.5t-6 8.5t-2.5 11.5q0 20 20 30.5t51 10.5q33 0 47 -14.5t14 -33.5z" />
    <glyph glyph-name="Lcaron" unicode="&#x13d;" horiz-adv-x="480" 
d="M418 86q0 -3 -2 -11.5t-4 -19t-4.5 -21t-3.5 -16.5q-2 -8 -8.5 -13t-14.5 -5h-340q-19 0 -19 19q0 5 2 13l140 656q2 8 8.5 13t14.5 5h116q19 0 19 -19q0 -5 -2 -13l-122 -569h201q19 0 19 -19zM496 700q0 -8 -4 -18l-51 -108q-4 -8 -8.5 -11t-11.5 -3h-36q-15 0 -15 14
q0 4 1 9l22 106q5 21 22 30t37 9q44 0 44 -28z" />
    <glyph glyph-name="lcaron" unicode="&#x13e;" horiz-adv-x="275" 
d="M321 746q0 -3 -0.5 -6t-1.5 -7l-153 -715q-2 -8 -8 -13t-15 -5h-104q-19 0 -19 19q0 5 1 8l153 720q2 8 8 13t15 5h105q19 0 19 -19zM490 745q0 -8 -4 -18l-51 -108q-4 -8 -8.5 -11t-11.5 -3h-36q-15 0 -15 14q0 4 1 9l22 106q5 21 22 30t37 9q44 0 44 -28z" />
    <glyph glyph-name="Ldot" unicode="&#x13f;" horiz-adv-x="480" 
d="M418 86q0 -3 -2 -11.5t-4 -19t-4.5 -21t-3.5 -16.5q-2 -8 -8.5 -13t-14.5 -5h-340q-19 0 -19 19q0 5 2 13l140 656q2 8 8.5 13t14.5 5h116q19 0 19 -19q0 -5 -2 -13l-122 -569h201q19 0 19 -19zM492 425q0 -15 -6.5 -28t-17.5 -22.5t-24.5 -14.5t-28.5 -5
q-25 0 -41.5 15.5t-16.5 36.5q0 15 6.5 28t17.5 22.5t25 14.5t28 5q25 0 41.5 -15.5t16.5 -36.5z" />
    <glyph glyph-name="ldot" unicode="&#x140;" horiz-adv-x="380" 
d="M321 746q0 -3 -0.5 -6t-1.5 -7l-153 -715q-2 -8 -8 -13t-15 -5h-104q-19 0 -19 19q0 5 1 8l153 720q2 8 8 13t15 5h105q19 0 19 -19zM439 433q0 -15 -6.5 -28t-17.5 -22.5t-24.5 -14.5t-28.5 -5q-25 0 -41.5 15.5t-16.5 36.5q0 15 6.5 28t17.5 22.5t25 14.5t28 5
q25 0 41.5 -15.5t16.5 -36.5z" />
    <glyph glyph-name="Lslash" unicode="&#x141;" horiz-adv-x="490" 
d="M428 86q0 -4 -1 -9l-12 -59q-2 -8 -8 -13t-15 -5h-340q-19 0 -19 19q0 5 1 9l47 222l-40 -25q-9 -5 -13 -5q-12 0 -12 13q0 5 1 9l9 46q2 9 6.5 14.5t12.5 10.5l57 34l72 341q2 8 8 13t15 5h116q19 0 19 -19q0 -4 -1 -8l-47 -222l112 69q8 4 13 4q11 0 11 -13q0 -4 -1 -9
l-9 -45q-2 -9 -6 -14.5t-14 -11.5l-126 -78l-55 -254h201q18 0 18 -19z" />
    <glyph glyph-name="lslash" unicode="&#x142;" horiz-adv-x="353" 
d="M387 519q0 -4 -1 -9l-9 -45q-2 -9 -6.5 -14.5t-14.5 -11.5l-75 -45l-80 -376q-2 -8 -8 -13t-15 -5h-103q-19 0 -19 19q0 4 1 8l55 265l-46 -29q-2 -1 -6 -2.5t-7 -1.5q-12 0 -12 12q0 4 0.5 7t1.5 7l8 40q2 9 6.5 14.5t14.5 11.5l61 38l77 358q2 8 7.5 13t14.5 5h105
q19 0 19 -19q0 -4 -2 -12l-52 -244l60 37q2 2 6 3.5t8 1.5q11 0 11 -13z" />
    <glyph glyph-name="Nacute" unicode="&#x143;" horiz-adv-x="714" 
d="M744 687q0 -5 -2 -13l-139 -655q-5 -19 -25 -19h-91q-11 0 -16 4.5t-10 14.5l-170 385q-13 29 -22 60.5t-16 63.5h-2q-3 -26 -8.5 -63t-12.5 -69l-80 -376q-5 -20 -24 -20h-85q-18 0 -18 19q0 4 1 8l140 660q1 6 6.5 12.5t17.5 6.5h115q11 0 16 -4.5t10 -14.5l154 -346
q11 -25 21.5 -59.5t17.5 -66.5h2q4 35 8.5 69t12.5 68l72 336q4 18 23 18h85q19 0 19 -19zM652 897q0 -9 -8 -15l-136 -107q-13 -10 -27 -10h-44q-13 0 -13 12q0 5 6 13l80 97q12 15 35 23.5t58 8.5q21 0 35 -6t14 -16z" />
    <glyph glyph-name="nacute" unicode="&#x144;" horiz-adv-x="574" 
d="M547 400q0 -8 -1 -17t-3 -17l-75 -348q-2 -8 -8.5 -13t-14.5 -5h-104q-19 0 -19 19q0 5 1 8l74 344q3 12 3 25q0 32 -20.5 44.5t-49.5 12.5q-34 0 -56 -12t-30 -47l-81 -376q-2 -8 -8.5 -13t-14.5 -5h-104q-19 0 -19 19q0 5 1 8l87 410q6 28 18 40.5t38 23.5q19 8 42 14
t47.5 9.5t48.5 5t45 1.5q33 0 69 -6t65.5 -20.5t49 -40t19.5 -64.5zM529 710q0 -9 -8 -15l-136 -107q-11 -10 -27 -10h-44q-13 0 -13 12q0 5 6 13l80 97q17 20 42.5 26t50.5 6q6 0 14 -1t16 -3.5t13.5 -6.5t5.5 -11z" />
    <glyph glyph-name="Ncommaaccent" unicode="&#x145;" horiz-adv-x="714" 
d="M744 687q0 -5 -2 -13l-139 -655q-5 -19 -25 -19h-91q-11 0 -16 4.5t-10 14.5l-170 385q-13 29 -22 60.5t-16 63.5h-2q-3 -26 -8.5 -63t-12.5 -69l-80 -376q-5 -20 -24 -20h-85q-18 0 -18 19q0 4 1 8l140 660q1 6 6.5 12.5t17.5 6.5h115q11 0 16 -4.5t10 -14.5l154 -346
q11 -25 21.5 -59.5t17.5 -66.5h2q4 35 8.5 69t12.5 68l72 336q4 18 23 18h85q19 0 19 -19zM352 -101q0 -26 -15.5 -48t-40 -39t-54.5 -26.5t-58 -9.5q-22 0 -22 16q0 8 5 13.5t13 9.5q7 4 17 9t19 11.5t15 14.5t6 17q0 6 -2.5 10.5t-6 8.5t-6 8.5t-2.5 11.5q0 20 20 30.5
t51 10.5q33 0 47 -14.5t14 -33.5z" />
    <glyph glyph-name="ncommaaccent" unicode="&#x146;" horiz-adv-x="574" 
d="M547 400q0 -8 -1 -17t-3 -17l-75 -348q-2 -8 -8.5 -13t-14.5 -5h-104q-19 0 -19 19q0 5 1 8l74 344q3 12 3 25q0 32 -20.5 44.5t-49.5 12.5q-34 0 -56 -12t-30 -47l-81 -376q-2 -8 -8.5 -13t-14.5 -5h-104q-19 0 -19 19q0 5 1 8l87 410q6 28 18 40.5t38 23.5q19 8 42 14
t47.5 9.5t48.5 5t45 1.5q33 0 69 -6t65.5 -20.5t49 -40t19.5 -64.5zM281 -101q0 -26 -15.5 -48t-40 -39t-54.5 -26.5t-58 -9.5q-22 0 -22 16q0 8 5 13.5t13 9.5q7 4 17 9t19 11.5t15 14.5t6 17q0 6 -2.5 10.5t-6 8.5t-6 8.5t-2.5 11.5q0 20 20 30.5t51 10.5q33 0 47 -14.5
t14 -33.5z" />
    <glyph glyph-name="Ncaron" unicode="&#x147;" horiz-adv-x="714" 
d="M744 687q0 -5 -2 -13l-139 -655q-5 -19 -25 -19h-91q-11 0 -16 4.5t-10 14.5l-170 385q-13 29 -22 60.5t-16 63.5h-2q-3 -26 -8.5 -63t-12.5 -69l-80 -376q-5 -20 -24 -20h-85q-18 0 -18 19q0 4 1 8l140 660q1 6 6.5 12.5t17.5 6.5h115q11 0 16 -4.5t10 -14.5l154 -346
q11 -25 21.5 -59.5t17.5 -66.5h2q4 35 8.5 69t12.5 68l72 336q4 18 23 18h85q19 0 19 -19zM654 901q0 -10 -7 -17.5t-17 -12.5q-31 -17 -62.5 -42t-60.5 -56q-5 -5 -13 -10t-18 -5t-16 5t-9 10q-16 31 -37.5 56t-44.5 42q-13 10 -13 23q0 11 8.5 19.5t21.5 8.5
q8 0 13.5 -2.5t10.5 -5.5l62 -43q5 -3 10.5 -6t11.5 -3q5 0 12 2.5t14 6.5l80 43q5 3 12.5 5.5t15.5 2.5q12 0 19 -6t7 -15z" />
    <glyph glyph-name="ncaron" unicode="&#x148;" horiz-adv-x="574" 
d="M547 400q0 -8 -1 -17t-3 -17l-75 -348q-2 -8 -8.5 -13t-14.5 -5h-104q-19 0 -19 19q0 5 1 8l74 344q3 12 3 25q0 32 -20.5 44.5t-49.5 12.5q-34 0 -56 -12t-30 -47l-81 -376q-2 -8 -8.5 -13t-14.5 -5h-104q-19 0 -19 19q0 5 1 8l87 410q6 28 18 40.5t38 23.5q19 8 42 14
t47.5 9.5t48.5 5t45 1.5q33 0 69 -6t65.5 -20.5t49 -40t19.5 -64.5zM537 714q0 -10 -7 -17.5t-17 -12.5q-31 -17 -62.5 -42t-60.5 -56q-5 -5 -13 -10t-18 -5t-16 5t-9 10q-16 31 -37.5 56t-44.5 42q-13 10 -13 23q0 11 8.5 19.5t21.5 8.5q8 0 13.5 -2.5t10.5 -5.5l62 -43
q5 -4 11 -6.5t11 -2.5q6 0 13 3t13 6l80 43q5 3 12.5 5.5t15.5 2.5q12 0 19 -6t7 -15z" />
    <glyph glyph-name="napostrophe" unicode="&#x149;" horiz-adv-x="710" 
d="M683 400q0 -8 -1 -17t-3 -17l-75 -348q-2 -8 -8.5 -13t-14.5 -5h-104q-19 0 -19 19q0 5 1 8l74 344q3 12 3 25q0 32 -20.5 44.5t-49.5 12.5q-34 0 -56 -12t-30 -47l-81 -376q-2 -8 -8.5 -13t-14.5 -5h-104q-19 0 -19 19q0 5 1 8l87 410q6 28 18 40.5t38 23.5q19 8 42 14
t47.5 9.5t48.5 5t45 1.5q33 0 69 -6t65.5 -20.5t49 -40t19.5 -64.5zM232 642q0 -43 -18 -85t-45 -75.5t-57.5 -54.5t-55.5 -21q-12 0 -19 6.5t-7 15.5q0 10 5 16.5t13 13.5q11 9 22 20.5t20 25t14.5 28t5.5 29.5q0 12 -4.5 20.5t-10.5 17.5t-10.5 19.5t-4.5 26.5q0 30 22 51
t58 21q34 0 53 -21.5t19 -53.5z" />
    <glyph glyph-name="Eng" unicode="&#x14a;" horiz-adv-x="714" 
d="M744 687q0 -4 -2 -12l-123 -581q-11 -49 -29 -95.5t-45 -87t-63.5 -72.5t-84.5 -53q-26 -11 -53.5 -17.5t-55.5 -6.5q-9 0 -18.5 1t-17 5t-12.5 11t-5 18q0 18 12.5 27t26.5 14q66 25 115 66.5t74 110.5l-172 389q-13 29 -22 60.5t-16 63.5h-2q-4 -33 -9 -66.5t-12 -65.5
l-80 -376q-5 -20 -24 -20h-85q-18 0 -18 19q0 5 1 9l140 659q5 19 24 19h115q11 0 16 -4.5t10 -14.5l154 -346q14 -30 23.5 -65t14.5 -61h2q3 27 8.5 65t13.5 72l72 336q4 18 23 18h85q19 0 19 -19z" />
    <glyph glyph-name="eng" unicode="&#x14b;" horiz-adv-x="574" 
d="M547 400q0 -8 -1 -17t-3 -17l-55 -255q-10 -47 -26.5 -95t-41.5 -91t-58.5 -78.5t-78.5 -59.5q-21 -11 -45 -18.5t-47 -7.5q-14 0 -24 7.5t-10 22.5q0 13 8.5 21t18.5 15q37 25 63 57.5t44 70t30 77.5t20 79l56 260q2 6 2 12v13q0 32 -20 44.5t-49 12.5q-35 0 -56.5 -12
t-29.5 -47l-81 -376q-2 -8 -8.5 -13t-14.5 -5h-104q-19 0 -19 19q0 4 1 9l87 409q6 28 18 40.5t38 23.5q19 8 42.5 14t47.5 9.5t48 5t45 1.5q33 0 69 -5.5t65.5 -20t49 -40t19.5 -65.5z" />
    <glyph glyph-name="Omacron" unicode="&#x14c;" horiz-adv-x="717" 
d="M707 457q0 -91 -27 -176t-77.5 -151t-122.5 -106t-163 -40q-55 0 -101.5 18.5t-80.5 53t-53 84.5t-19 114q0 91 27.5 175.5t78 149.5t122.5 104t162 39q56 0 103 -18.5t80.5 -52.5t52 -83.5t18.5 -110.5zM547 479q0 69 -28 106.5t-79 37.5q-39 0 -72 -21t-59 -61
q-18 -28 -33.5 -66t-26.5 -79t-17 -82t-6 -75q0 -71 28 -108.5t77 -37.5q33 0 63.5 16.5t55.5 47.5q22 27 39.5 67.5t30.5 85t20 89t7 80.5zM633 848q0 -4 -1 -9l-6 -29q-2 -7 -8 -12.5t-15 -5.5h-249q-19 0 -19 19v3q0 2 2 9l6 26q2 7 8 12.5t15 5.5h248q19 0 19 -19z" />
    <glyph glyph-name="omacron" unicode="&#x14d;" horiz-adv-x="575" 
d="M546 327q0 -64 -20 -125t-58.5 -109t-95 -77t-128.5 -29q-44 0 -81 13.5t-64 40t-42 64.5t-15 88q0 66 20.5 127.5t59.5 108t95 74.5t127 28q47 0 84.5 -15t63.5 -42t40 -64.5t14 -82.5zM401 352q0 44 -15.5 72t-52.5 28q-54 0 -92 -68q-12 -21 -21.5 -47t-16.5 -54
t-11 -55.5t-4 -51.5q0 -45 16 -73t51 -28q58 0 97 77q10 19 19 44.5t15.5 52.5t10.5 54t4 49zM523 661q0 -4 -1 -9l-6 -29q-2 -7 -8 -12.5t-15 -5.5h-249q-19 0 -19 19q0 4 2 12l6 26q2 7 8 12.5t15 5.5h248q19 0 19 -19z" />
    <glyph glyph-name="Obreve" unicode="&#x14e;" horiz-adv-x="717" 
d="M707 457q0 -91 -27 -176t-77.5 -151t-122.5 -106t-163 -40q-55 0 -101.5 18.5t-80.5 53t-53 84.5t-19 114q0 91 27.5 175.5t78 149.5t122.5 104t162 39q56 0 103 -18.5t80.5 -52.5t52 -83.5t18.5 -110.5zM547 479q0 69 -28 106.5t-79 37.5q-39 0 -72 -21t-59 -61
q-18 -28 -33.5 -66t-26.5 -79t-17 -82t-6 -75q0 -71 28 -108.5t77 -37.5q33 0 63.5 16.5t55.5 47.5q22 27 39.5 67.5t30.5 85t20 89t7 80.5zM644 898q0 -16 -11 -39t-32.5 -44.5t-53.5 -37t-74 -15.5q-34 0 -57.5 11t-38 28t-21 37t-6.5 38t6.5 31t22.5 13q11 0 15.5 -6.5
t6.5 -11.5q8 -29 27.5 -46.5t53.5 -17.5q35 0 62.5 18.5t47.5 46.5q4 6 11 11.5t18 5.5q10 0 16.5 -6t6.5 -16z" />
    <glyph glyph-name="obreve" unicode="&#x14f;" horiz-adv-x="575" 
d="M546 327q0 -64 -20 -125t-58.5 -109t-95 -77t-128.5 -29q-44 0 -81 13.5t-64 40t-42 64.5t-15 88q0 66 20.5 127.5t59.5 108t95 74.5t127 28q47 0 84.5 -15t63.5 -42t40 -64.5t14 -82.5zM401 352q0 44 -15.5 72t-52.5 28q-54 0 -92 -68q-12 -21 -21.5 -47t-16.5 -54
t-11 -55.5t-4 -51.5q0 -45 16 -73t51 -28q58 0 97 77q10 19 19 44.5t15.5 52.5t10.5 54t4 49zM532 711q0 -16 -11 -39t-32.5 -44.5t-53.5 -37t-74 -15.5q-34 0 -57.5 11t-38 28t-21 37t-6.5 38t6.5 31t22.5 13q11 0 15.5 -6.5t6.5 -11.5q8 -29 27.5 -46.5t53.5 -17.5
q35 0 62.5 18.5t47.5 46.5q4 6 11 11.5t18 5.5q10 0 16.5 -6t6.5 -16z" />
    <glyph glyph-name="Ohungarumlaut" unicode="&#x150;" horiz-adv-x="717" 
d="M707 457q0 -91 -27 -176t-77.5 -151t-122.5 -106t-163 -40q-55 0 -101.5 18.5t-80.5 53t-53 84.5t-19 114q0 91 27.5 175.5t78 149.5t122.5 104t162 39q56 0 103 -18.5t80.5 -52.5t52 -83.5t18.5 -110.5zM547 479q0 69 -28 106.5t-79 37.5q-39 0 -72 -21t-59 -61
q-18 -28 -33.5 -66t-26.5 -79t-17 -82t-6 -75q0 -71 28 -108.5t77 -37.5q33 0 63.5 16.5t55.5 47.5q22 27 39.5 67.5t30.5 85t20 89t7 80.5zM566 907q0 -6 -3 -10.5t-7 -7.5l-137 -111q-15 -13 -33 -13h-12q-8 0 -10.5 0.5t-3.5 1.5q-5 5 -5 10t2.5 9t5.5 7l92 103
q14 16 34 23t41 7q14 0 25 -4.5t11 -14.5zM721 907q0 -5 -3 -10t-7 -8l-137 -111q-16 -13 -33 -13h-18q-7 0 -10 3.5t-3 8.5t2.5 9t5.5 7l92 103q14 16 34 23t41 7q17 0 26.5 -5.5t9.5 -13.5z" />
    <glyph glyph-name="ohungarumlaut" unicode="&#x151;" horiz-adv-x="575" 
d="M546 327q0 -64 -20 -125t-58.5 -109t-95 -77t-128.5 -29q-44 0 -81 13.5t-64 40t-42 64.5t-15 88q0 66 20.5 127.5t59.5 108t95 74.5t127 28q47 0 84.5 -15t63.5 -42t40 -64.5t14 -82.5zM401 352q0 44 -15.5 72t-52.5 28q-54 0 -92 -68q-12 -21 -21.5 -47t-16.5 -54
t-11 -55.5t-4 -51.5q0 -45 16 -73t51 -28q58 0 97 77q10 19 19 44.5t15.5 52.5t10.5 54t4 49zM457 719q0 -10 -10 -18l-137 -111q-16 -13 -33 -13h-18q-13 0 -13 12q0 2 1.5 6.5t6.5 9.5l92 103q27 30 75 30q12 0 24 -4t12 -15zM612 719q0 -10 -10 -18l-137 -111
q-16 -13 -33 -13h-18q-13 0 -13 12q0 2 1.5 6t6.5 10l92 103q27 30 75 30q12 0 24 -4t12 -15z" />
    <glyph glyph-name="OE" unicode="&#x152;" horiz-adv-x="900" 
d="M957 687q0 -3 -1 -8l-12 -57q-2 -8 -8 -13t-15 -5h-224l-39 -190h183q19 0 19 -19q0 -4 -1 -8l-12 -55q-2 -7 -8 -12.5t-15 -5.5h-188l-44 -209h218q19 0 19 -19v-3q0 -1 -1 -6l-12 -59q-2 -8 -8 -13t-15 -5h-348q-17 -5 -46 -10t-61 -5q-63 0 -114 20t-87 56.5t-55 87.5
t-19 113q0 91 30 174t84.5 146.5t132 101t172.5 37.5q34 0 65 -5t48 -10h343q19 0 19 -19zM541 614q-14 5 -30 7t-42 2q-46 0 -85.5 -24.5t-71.5 -69.5q-19 -27 -34 -60.5t-26 -69.5t-17 -73t-6 -70q0 -75 33 -119t99 -44q24 0 40.5 2.5t30.5 6.5z" />
    <glyph glyph-name="oe" unicode="&#x153;" horiz-adv-x="867" 
d="M851 369q0 -12 -1 -24.5t-5 -24.5q-5 -17 -14.5 -24t-27.5 -9l-285 -42q-1 -5 -1 -10v-10q0 -24 5.5 -46.5t17.5 -40t32 -27.5t50 -10q21 0 40 6.5t35.5 17t30 22.5t23.5 23q7 8 15 13t19 5q13 0 20.5 -8t7.5 -19q0 -20 -15.5 -49.5t-45 -57t-73 -47.5t-99.5 -20
q-65 0 -102.5 32t-49.5 77h-2q-15 -22 -34.5 -42t-43.5 -35t-53 -23.5t-62 -8.5q-44 0 -79.5 15t-60.5 42t-38 64t-13 82q0 67 21 128.5t59.5 109t92.5 75.5t119 28q64 0 101 -31t49 -76h2q32 46 80.5 76.5t110.5 30.5q39 0 71.5 -12.5t55 -34.5t35 -51.5t12.5 -63.5z
M399 350q0 45 -16 73.5t-52 28.5q-52 0 -89 -63q-12 -21 -22.5 -47t-17.5 -54.5t-11 -56.5t-4 -52q0 -45 15.5 -74.5t50.5 -29.5q56 0 96 75q10 20 19.5 45.5t16 52t10.5 53t4 49.5zM719 379q0 31 -14 52.5t-51 21.5q-26 0 -47 -12t-36.5 -31.5t-27 -44.5t-17.5 -50l190 29
q2 11 2.5 18t0.5 17z" />
    <glyph glyph-name="Racute" unicode="&#x154;" horiz-adv-x="608" 
d="M620 547q0 -46 -16 -82t-43 -63.5t-63 -47t-76 -31.5v-2q20 -11 36.5 -37.5t24.5 -56.5l52 -190q3 -11 3 -16q0 -9 -6.5 -15t-17.5 -6h-117q-22 0 -25 19l-44 205q-3 12 -7.5 24.5t-12 23t-18 17t-24.5 6.5h-31l-59 -277q-2 -8 -7.5 -13t-14.5 -5h-112q-19 0 -19 18
q0 4 2 12l136 642q4 19 27 26q17 5 65 11t112 6q65 0 113 -13t79.5 -35.5t47 -53.5t15.5 -66zM461 538q0 44 -27 66t-78 22q-20 0 -31 -1t-20 -3l-55 -256q2 0 13.5 -0.5t28.5 -0.5q41 0 72.5 14t53 37.5t32.5 55t11 66.5zM583 897q0 -9 -8 -15l-136 -107q-13 -10 -27 -10
h-44q-13 0 -13 12q0 5 6 13l80 97q12 15 35 23.5t58 8.5q21 0 35 -6t14 -16z" />
    <glyph glyph-name="racute" unicode="&#x155;" horiz-adv-x="431" 
d="M467 450q0 -29 -16 -48t-45 -19q-24 0 -35.5 11t-19 23.5t-16.5 23.5t-28 11q-23 0 -39 -11.5t-21 -31.5l-84 -391q-2 -8 -8 -13t-15 -5h-104q-19 0 -19 19v3q0 2 1 7l87 408q6 26 18 39.5t38 24.5q27 11 72.5 20.5t96.5 9.5q71 0 104 -24.5t33 -56.5zM478 710
q0 -9 -8 -15l-136 -107q-11 -10 -27 -10h-44q-13 0 -13 12q0 5 6 13l80 97q17 20 42.5 26t50.5 6q6 0 14 -1t16 -3.5t13.5 -6.5t5.5 -11z" />
    <glyph glyph-name="Rcommaaccent" unicode="&#x156;" horiz-adv-x="608" 
d="M620 547q0 -46 -16 -82t-43 -63.5t-63 -47t-76 -31.5v-2q20 -11 36.5 -37.5t24.5 -56.5l52 -190q3 -11 3 -16q0 -9 -6.5 -15t-17.5 -6h-117q-22 0 -25 19l-44 205q-3 12 -7.5 24.5t-12 23t-18 17t-24.5 6.5h-31l-59 -277q-2 -8 -7.5 -13t-14.5 -5h-112q-19 0 -19 18
q0 4 2 12l136 642q4 19 27 26q17 5 65 11t112 6q65 0 113 -13t79.5 -35.5t47 -53.5t15.5 -66zM461 538q0 44 -27 66t-78 22q-20 0 -31 -1t-20 -3l-55 -256q2 0 13.5 -0.5t28.5 -0.5q41 0 72.5 14t53 37.5t32.5 55t11 66.5zM306 -101q0 -26 -15.5 -48t-40 -39t-54.5 -26.5
t-58 -9.5q-22 0 -22 16q0 8 5 13.5t13 9.5q7 4 17 9t19 11.5t15 14.5t6 17q0 6 -2.5 10.5t-6 8.5t-6 8.5t-2.5 11.5q0 20 20 30.5t51 10.5q33 0 47 -14.5t14 -33.5z" />
    <glyph glyph-name="rcommaaccent" unicode="&#x157;" horiz-adv-x="431" 
d="M467 450q0 -29 -16 -48t-45 -19q-24 0 -35.5 11t-19 23.5t-16.5 23.5t-28 11q-23 0 -39 -11.5t-21 -31.5l-84 -391q-2 -8 -8 -13t-15 -5h-104q-19 0 -19 19v3q0 2 1 7l87 408q6 26 18 39.5t38 24.5q27 11 72.5 20.5t96.5 9.5q71 0 104 -24.5t33 -56.5zM129 -101
q0 -26 -15.5 -48t-40 -39t-54.5 -26.5t-58 -9.5q-22 0 -22 16q0 8 5 13.5t13 9.5q7 4 17 9t19 11.5t15 14.5t6 17q0 6 -2.5 10.5t-6 8.5t-6 8.5t-2.5 11.5q0 20 20 30.5t51 10.5q33 0 47 -14.5t14 -33.5z" />
    <glyph glyph-name="Rcaron" unicode="&#x158;" horiz-adv-x="608" 
d="M620 547q0 -46 -16 -82t-43 -63.5t-63 -47t-76 -31.5v-2q20 -11 36.5 -37.5t24.5 -56.5l52 -190q3 -11 3 -16q0 -9 -6.5 -15t-17.5 -6h-117q-22 0 -25 19l-44 205q-3 12 -7.5 24.5t-12 23t-18 17t-24.5 6.5h-31l-59 -277q-2 -8 -7.5 -13t-14.5 -5h-112q-19 0 -19 18
q0 4 2 12l136 642q4 19 27 26q17 5 65 11t112 6q65 0 113 -13t79.5 -35.5t47 -53.5t15.5 -66zM461 538q0 44 -27 66t-78 22q-20 0 -31 -1t-20 -3l-55 -256q2 0 13.5 -0.5t28.5 -0.5q41 0 72.5 14t53 37.5t32.5 55t11 66.5zM582 901q0 -10 -7 -17.5t-17 -12.5
q-31 -17 -62.5 -42t-60.5 -56q-5 -5 -13 -10t-18 -5t-16 5t-9 10q-16 31 -37.5 56t-44.5 42q-13 10 -13 23q0 11 8.5 19.5t21.5 8.5q8 0 13.5 -2.5t10.5 -5.5l62 -43q5 -3 10.5 -6t11.5 -3q5 0 12 2.5t14 6.5l80 43q5 3 12.5 5.5t15.5 2.5q12 0 19 -6t7 -15z" />
    <glyph glyph-name="rcaron" unicode="&#x159;" horiz-adv-x="431" 
d="M467 450q0 -29 -16 -48t-45 -19q-24 0 -35.5 11t-19 23.5t-16.5 23.5t-28 11q-23 0 -39 -11.5t-21 -31.5l-84 -391q-2 -8 -8 -13t-15 -5h-104q-19 0 -19 19v3q0 2 1 7l87 408q6 26 18 39.5t38 24.5q27 11 72.5 20.5t96.5 9.5q71 0 104 -24.5t33 -56.5zM486 714
q0 -10 -7 -17.5t-17 -12.5q-31 -17 -62.5 -42t-60.5 -56q-5 -5 -13 -10t-18 -5t-16 5t-9 10q-16 31 -37.5 56t-44.5 42q-13 10 -13 23q0 11 8.5 19.5t21.5 8.5q8 0 13.5 -2.5t10.5 -5.5l62 -43q5 -4 11 -6.5t11 -2.5q6 0 13 3t13 6l80 43q5 3 12.5 5.5t15.5 2.5q12 0 19 -6
t7 -15z" />
    <glyph glyph-name="Sacute" unicode="&#x15a;" horiz-adv-x="578" 
d="M591 580q0 -35 -19 -53.5t-54 -18.5q-49 0 -64 48q-9 30 -27.5 50.5t-56.5 20.5q-25 0 -44 -9t-32 -24t-19.5 -33.5t-6.5 -37.5q0 -29 19.5 -49.5t49 -37.5t64 -34t64 -39.5t49 -54t19.5 -77.5t-16.5 -90t-52 -79t-90.5 -56.5t-132 -21.5q-51 0 -91 15.5t-68.5 39.5
t-43.5 53t-15 56q0 39 22 58.5t55 19.5q53 0 68 -54q4 -15 11 -30t18.5 -27t27 -19.5t36.5 -7.5q27 0 46.5 10t33 25.5t20 35t6.5 38.5q0 31 -19 53t-48 40t-62 35t-62 38.5t-48 51.5t-19 73q0 46 17.5 88t52 74.5t86 52t119.5 19.5q55 0 94 -14.5t64 -36.5t36.5 -46.5
t11.5 -44.5zM579 897q0 -9 -8 -15l-136 -107q-13 -10 -27 -10h-44q-13 0 -13 12q0 5 6 13l80 97q12 15 35 23.5t58 8.5q21 0 35 -6t14 -16z" />
    <glyph glyph-name="sacute" unicode="&#x15b;" horiz-adv-x="482" 
d="M471 422q0 -25 -16 -40.5t-45 -15.5q-44 0 -57 42q-7 23 -21 38.5t-41 15.5q-38 0 -56 -23.5t-18 -50.5q0 -23 15.5 -38.5t39 -28t51 -24.5t51 -28.5t39 -39t15.5 -56.5q0 -38 -15 -71.5t-44 -59t-72 -40.5t-98 -15q-48 0 -83.5 12.5t-58 31t-33.5 40.5t-11 41
q0 27 17.5 44t47.5 17q24 0 38.5 -11.5t22.5 -33.5q9 -27 23.5 -43.5t45.5 -16.5q16 0 30 6.5t24 17.5t16 25t6 29q0 23 -15.5 39t-38.5 29.5t-49.5 26t-49.5 28.5t-38.5 37.5t-15.5 53.5q0 36 14.5 67.5t43 54.5t70 36t95.5 13q43 0 75.5 -10.5t53.5 -26.5t31.5 -35
t10.5 -37zM487 710q0 -9 -8 -15l-136 -107q-11 -10 -27 -10h-44q-13 0 -13 12q0 5 6 13l80 97q17 20 42.5 26t50.5 6q6 0 14 -1t16 -3.5t13.5 -6.5t5.5 -11z" />
    <glyph glyph-name="Scircumflex" unicode="&#x15c;" horiz-adv-x="578" 
d="M591 580q0 -35 -19 -53.5t-54 -18.5q-49 0 -64 48q-9 30 -27.5 50.5t-56.5 20.5q-25 0 -44 -9t-32 -24t-19.5 -33.5t-6.5 -37.5q0 -29 19.5 -49.5t49 -37.5t64 -34t64 -39.5t49 -54t19.5 -77.5t-16.5 -90t-52 -79t-90.5 -56.5t-132 -21.5q-51 0 -91 15.5t-68.5 39.5
t-43.5 53t-15 56q0 39 22 58.5t55 19.5q53 0 68 -54q4 -15 11 -30t18.5 -27t27 -19.5t36.5 -7.5q27 0 46.5 10t33 25.5t20 35t6.5 38.5q0 31 -19 53t-48 40t-62 35t-62 38.5t-48 51.5t-19 73q0 46 17.5 88t52 74.5t86 52t119.5 19.5q55 0 94 -14.5t64 -36.5t36.5 -46.5
t11.5 -44.5zM554 786q0 -11 -8.5 -20t-21.5 -9q-8 0 -13.5 3t-10.5 6l-66 46q-9 6 -18 6q-4 0 -10 -1.5t-11 -4.5l-85 -46q-5 -3 -12.5 -6t-15.5 -3q-11 0 -18.5 6.5t-7.5 15.5q0 10 7 17.5t17 12.5q31 17 62.5 41.5t60.5 55.5q5 5 13 10t18 5t16 -5t9 -10q16 -31 37.5 -56
t44.5 -42q13 -10 13 -22z" />
    <glyph glyph-name="scircumflex" unicode="&#x15d;" horiz-adv-x="482" 
d="M471 422q0 -25 -16 -40.5t-45 -15.5q-44 0 -57 42q-7 23 -21 38.5t-41 15.5q-38 0 -56 -23.5t-18 -50.5q0 -23 15.5 -38.5t39 -28t51 -24.5t51 -28.5t39 -39t15.5 -56.5q0 -38 -15 -71.5t-44 -59t-72 -40.5t-98 -15q-48 0 -83.5 12.5t-58 31t-33.5 40.5t-11 41
q0 27 17.5 44t47.5 17q24 0 38.5 -11.5t22.5 -33.5q9 -27 23.5 -43.5t45.5 -16.5q16 0 30 6.5t24 17.5t16 25t6 29q0 23 -15.5 39t-38.5 29.5t-49.5 26t-49.5 28.5t-38.5 37.5t-15.5 53.5q0 36 14.5 67.5t43 54.5t70 36t95.5 13q43 0 75.5 -10.5t53.5 -26.5t31.5 -35
t10.5 -37zM468 599q0 -11 -8.5 -20t-21.5 -9q-8 0 -13.5 3t-10.5 6l-66 46q-9 6 -18 6q-5 0 -10.5 -2t-10.5 -4l-85 -46q-5 -3 -12.5 -6t-15.5 -3q-11 0 -18.5 6.5t-7.5 15.5q0 10 7 17.5t17 12.5q31 17 62.5 41.5t60.5 55.5q5 5 13 10t18 5t16 -5t9 -10q16 -31 37.5 -56
t44.5 -42q13 -10 13 -22z" />
    <glyph glyph-name="Scedilla" unicode="&#x15e;" horiz-adv-x="578" 
d="M591 580q0 -35 -19 -53.5t-54 -18.5q-49 0 -64 48q-9 30 -27.5 50.5t-56.5 20.5q-25 0 -44 -9t-32 -24t-19.5 -33.5t-6.5 -37.5q0 -29 19.5 -49.5t49 -37.5t64 -34t64 -39.5t49 -54t19.5 -77.5q0 -45 -15.5 -88t-49 -77.5t-85 -56.5t-123.5 -24l-34 -46q57 -1 83.5 -21
t26.5 -50q0 -24 -13.5 -43t-37 -32.5t-56 -21t-70.5 -7.5q-20 0 -40 2.5t-36 8t-25.5 13t-9.5 17.5q0 14 9.5 20t21.5 6q10 0 17.5 -1.5t16.5 -4t20.5 -4t29.5 -1.5q34 0 55.5 12.5t21.5 30.5q0 14 -19 24t-64 10q-8 0 -12.5 4.5t-4.5 10.5q0 5 7 16l41 61q-40 7 -70.5 24.5
t-51.5 40t-31.5 47t-10.5 47.5q0 39 22 58.5t55 19.5q53 0 68 -54q4 -15 11 -30t18.5 -27t27 -19.5t36.5 -7.5q27 0 46.5 10t33 25.5t20 35t6.5 38.5q0 31 -19 53t-48 40t-62 35t-62 38.5t-48 51.5t-19 73q0 46 17.5 88t52 74.5t86 52t119.5 19.5q55 0 94 -14.5t64 -36.5
t36.5 -46.5t11.5 -44.5z" />
    <glyph glyph-name="scedilla" unicode="&#x15f;" horiz-adv-x="482" 
d="M471 422q0 -25 -16 -40.5t-45 -15.5q-44 0 -57 42q-7 23 -21 38.5t-41 15.5q-38 0 -56 -23.5t-18 -50.5q0 -23 15.5 -38.5t39 -28t51 -24.5t51 -28.5t39 -39t15.5 -56.5q0 -36 -14 -69t-41 -58.5t-67 -41t-92 -17.5l-35 -48q57 -1 83 -21t26 -50q0 -24 -13.5 -43
t-37 -32.5t-56 -21t-70.5 -7.5q-20 0 -40 2.5t-36 8t-25.5 13t-9.5 17.5q0 14 9.5 20t21.5 6q10 0 17.5 -1.5t16.5 -4t20.5 -4t29.5 -1.5q34 0 55.5 12.5t21.5 30.5q0 14 -19 24t-64 10q-17 0 -17 15q0 7 6 16l44 64q-33 7 -57.5 20.5t-40.5 30t-23.5 35t-7.5 34.5
q0 27 17.5 44t47.5 17q24 0 38.5 -11.5t22.5 -33.5q9 -27 23.5 -43.5t45.5 -16.5q16 0 30 6.5t24 17.5t16 25t6 29q0 23 -15.5 39t-38.5 29.5t-49.5 26t-49.5 28.5t-38.5 37.5t-15.5 53.5q0 36 14.5 67.5t43 54.5t70 36t95.5 13q43 0 75.5 -10.5t53.5 -26.5t31.5 -35
t10.5 -37z" />
    <glyph glyph-name="Scaron" unicode="&#x160;" horiz-adv-x="578" 
d="M591 580q0 -35 -19 -53.5t-54 -18.5q-49 0 -64 48q-9 30 -27.5 50.5t-56.5 20.5q-25 0 -44 -9t-32 -24t-19.5 -33.5t-6.5 -37.5q0 -29 19.5 -49.5t49 -37.5t64 -34t64 -39.5t49 -54t19.5 -77.5t-16.5 -90t-52 -79t-90.5 -56.5t-132 -21.5q-51 0 -91 15.5t-68.5 39.5
t-43.5 53t-15 56q0 39 22 58.5t55 19.5q53 0 68 -54q4 -15 11 -30t18.5 -27t27 -19.5t36.5 -7.5q27 0 46.5 10t33 25.5t20 35t6.5 38.5q0 31 -19 53t-48 40t-62 35t-62 38.5t-48 51.5t-19 73q0 46 17.5 88t52 74.5t86 52t119.5 19.5q55 0 94 -14.5t64 -36.5t36.5 -46.5
t11.5 -44.5zM582 903q0 -10 -7 -17.5t-17 -12.5q-31 -17 -62.5 -42t-60.5 -56q-5 -5 -13 -10t-18 -5t-16 5t-9 10q-16 31 -37.5 56t-44.5 42q-13 10 -13 23q0 11 8.5 19.5t21.5 8.5q8 0 13.5 -2.5t10.5 -5.5l62 -43q5 -3 10.5 -6t11.5 -3q5 0 12 2.5t14 6.5l80 43
q5 3 12.5 5.5t15.5 2.5q12 0 19 -6t7 -15z" />
    <glyph glyph-name="scaron" unicode="&#x161;" horiz-adv-x="482" 
d="M471 422q0 -25 -16 -40.5t-45 -15.5q-44 0 -57 42q-7 23 -21 38.5t-41 15.5q-38 0 -56 -23.5t-18 -50.5q0 -23 15.5 -38.5t39 -28t51 -24.5t51 -28.5t39 -39t15.5 -56.5q0 -38 -15 -71.5t-44 -59t-72 -40.5t-98 -15q-48 0 -83.5 12.5t-58 31t-33.5 40.5t-11 41
q0 27 17.5 44t47.5 17q24 0 38.5 -11.5t22.5 -33.5q9 -27 23.5 -43.5t45.5 -16.5q16 0 30 6.5t24 17.5t16 25t6 29q0 23 -15.5 39t-38.5 29.5t-49.5 26t-49.5 28.5t-38.5 37.5t-15.5 53.5q0 36 14.5 67.5t43 54.5t70 36t95.5 13q43 0 75.5 -10.5t53.5 -26.5t31.5 -35
t10.5 -37zM485 716q0 -10 -7 -17.5t-17 -12.5q-31 -17 -62.5 -42t-60.5 -56q-5 -5 -13 -10t-18 -5t-16 5t-9 10q-16 31 -37.5 56t-44.5 42q-13 10 -13 23q0 11 8.5 19.5t21.5 8.5q8 0 13.5 -2.5t10.5 -5.5l62 -43q5 -4 11 -6.5t11 -2.5q6 0 13 3t13 6l80 43q5 3 12.5 5.5
t15.5 2.5q12 0 19 -6t7 -15z" />
    <glyph glyph-name="Tcommaaccent" unicode="&#x162;" horiz-adv-x="529" 
d="M600 687q0 -3 -1 -8l-12 -57q-2 -7 -8 -12.5t-15 -5.5h-140l-124 -586q-2 -7 -8 -12.5t-14 -5.5h-29l-45 -61q57 -1 83.5 -21t26.5 -50q0 -24 -13.5 -43t-37.5 -32.5t-56.5 -21t-70.5 -7.5q-20 0 -40 2.5t-36 8t-25.5 13t-9.5 17.5q0 14 9.5 20t21.5 6q10 0 17.5 -1.5
t16.5 -4t20.5 -4t29.5 -1.5q34 0 55.5 12.5t21.5 30.5q0 14 -18.5 24t-64.5 10q-8 0 -12.5 4.5t-4.5 10.5q0 7 6 16l49 72h-13q-17 0 -17 19q0 4 1 8l123 577h-136q-19 0 -19 18q0 5 1 9l13 57q2 7 7.5 12.5t14.5 5.5h434q19 0 19 -19z" />
    <glyph glyph-name="tcommaaccent" unicode="&#x163;" horiz-adv-x="368" 
d="M391 499q0 -3 -1 -8l-7 -35q-2 -7 -8 -12.5t-15 -5.5h-78l-65 -303q-1 -5 -2 -11.5t-1 -16.5q0 -26 13 -34.5t32 -8.5q6 0 11 1t10 1q11 0 17 -7t6 -17q0 -14 -9.5 -24.5t-25.5 -17.5t-35.5 -10t-38.5 -3q-8 0 -17.5 1t-19.5 3l-39 -52q57 -1 83.5 -21t26.5 -50
q0 -24 -13.5 -43t-37.5 -32.5t-56.5 -21t-70.5 -7.5q-20 0 -40 2.5t-36 8t-25.5 13t-9.5 17.5q0 14 9.5 20t21.5 6q10 0 17.5 -1.5t16.5 -4t21 -4t30 -1.5q33 0 54.5 12.5t21.5 30.5q0 14 -18.5 24t-64.5 10q-8 0 -12.5 4.5t-4.5 10.5q0 7 6 16l63 90q-14 13 -23 32.5
t-9 47.5q0 11 1 22t3 19l64 299h-46q-19 0 -19 19q0 4 1 8l7 35q2 7 8 12.5t15 5.5h50l14 66q2 11 6.5 18t13.5 11l107 43q12 5 17 5q15 0 15 -14q0 -2 -1 -7l-25 -122h73q19 0 19 -19z" />
    <glyph glyph-name="Tcaron" unicode="&#x164;" horiz-adv-x="529" 
d="M600 687q0 -4 -2 -12l-12 -53q-2 -8 -8.5 -13t-14.5 -5h-140l-124 -586q-2 -8 -8.5 -13t-14.5 -5h-116q-19 0 -19 19q0 4 1 9l123 576h-136q-19 0 -19 18q0 1 1.5 9.5t4 19t4.5 21t4 16.5q2 8 8 13t14 5h435q19 0 19 -19zM554 901q0 -10 -7 -17.5t-17 -12.5
q-31 -17 -62.5 -42t-60.5 -56q-5 -5 -13 -10t-18 -5t-16 5t-9 10q-16 31 -37.5 56t-44.5 42q-13 10 -13 23q0 11 8.5 19.5t21.5 8.5q8 0 13.5 -2.5t10.5 -5.5l62 -43q5 -3 10.5 -6t11.5 -3q5 0 12 2.5t14 6.5l80 43q5 3 12.5 5.5t15.5 2.5q12 0 19 -6t7 -15z" />
    <glyph glyph-name="tcaron" unicode="&#x165;" horiz-adv-x="368" 
d="M391 496q0 -1 -1 -6l-7 -34q-2 -8 -8.5 -13t-12.5 -5h-80l-65 -303q-3 -14 -3 -28q0 -23 11 -33t34 -10q5 0 10.5 1t10.5 1q11 0 17 -6.5t6 -17.5q0 -25 -31.5 -40t-77.5 -15q-27 0 -50 6.5t-40 20t-26.5 34.5t-9.5 50q0 10 1.5 23t2.5 18l64 299h-46q-19 0 -19 19
q0 1 1 7t2.5 13t2.5 13.5t2 9.5q2 8 8.5 13t14.5 5h50l14 66q2 10 6 17.5t14 11.5l110 44q11 4 15 4q14 0 14 -14q0 -3 -1 -7l-25 -122h73q19 0 19 -19v-3zM507 725q0 -8 -4 -18l-51 -108q-4 -8 -8.5 -11t-11.5 -3h-36q-15 0 -15 14q0 4 1 9l22 106q5 21 22 30t37 9
q44 0 44 -28z" />
    <glyph glyph-name="Tbar" unicode="&#x166;" horiz-adv-x="529" 
d="M600 687q0 -3 -1 -8l-12 -57q-2 -7 -8 -12.5t-15 -5.5h-140l-38 -176h107q19 0 19 -19q0 -4 -2 -12l-11 -49q-2 -7 -8 -12.5t-15 -5.5h-110l-66 -312q-2 -7 -8 -12.5t-15 -5.5h-116q-19 0 -19 19q0 4 1 8l64 303h-106q-18 0 -18 19q0 4 1 8l12 53q2 7 8 12.5t15 5.5h109
l38 176h-136q-19 0 -19 18q0 4 1 9l13 57q2 7 7.5 12.5t14.5 5.5h434q19 0 19 -19z" />
    <glyph glyph-name="tbar" unicode="&#x167;" horiz-adv-x="368" 
d="M391 499q0 -3 -1 -8l-7 -35q-2 -7 -8 -12.5t-15 -5.5h-78l-23 -105h61q19 0 19 -18v-3q0 -1 -1 -6l-6 -29q-2 -7 -8 -12.5t-15 -5.5h-65l-27 -124q-3 -15 -3 -28q0 -26 13 -34.5t32 -8.5q6 0 11 1t10 1q11 0 17 -7t6 -17q0 -26 -32 -40.5t-77 -14.5q-20 0 -42 4.5
t-40.5 17t-31 34t-12.5 55.5q0 12 1 22.5t3 18.5l26 120h-42q-18 0 -18 19q0 3 1 8l6 29q2 7 8 12.5t15 5.5h45l23 105h-46q-19 0 -19 19q0 3 1 8l7 35q2 7 8 12.5t15 5.5h50l14 66q2 11 6.5 18t13.5 11l107 43q12 5 18 5q14 0 14 -14q0 -3 -1 -8l-25 -121h73q19 0 19 -19z
" />
    <glyph glyph-name="Utilde" unicode="&#x168;" horiz-adv-x="656" 
d="M686 687q0 -3 -1 -8l-100 -469q-25 -116 -103.5 -171t-193.5 -55q-42 0 -83.5 10t-74.5 32t-53.5 55.5t-20.5 81.5q0 28 6 55l100 470q2 8 8.5 13t14.5 5h116q19 0 19 -19q0 -5 -2 -13l-97 -456q-2 -8 -3 -15.5t-1 -15.5q0 -42 26 -64t67 -22q54 0 89.5 33t46.5 84
l100 470q2 8 8.5 13t14.5 5h98q19 0 19 -19zM619 878q0 -10 -6 -28t-19 -36t-34.5 -31.5t-51.5 -13.5q-20 0 -33 8t-23.5 18t-21 18t-25.5 8q-17 0 -26.5 -8.5t-17.5 -19t-15.5 -19t-19.5 -8.5q-21 0 -21 21q0 10 6 28.5t19.5 36.5t34 31t50.5 13q20 0 33 -8t23.5 -17.5
t21.5 -17.5t26 -8q16 0 26 8.5t18 18.5t15.5 18.5t19.5 8.5q21 0 21 -21z" />
    <glyph glyph-name="utilde" unicode="&#x169;" horiz-adv-x="564" 
d="M560 499q0 -4 -1 -8l-85 -399q-6 -27 -17 -43t-36 -29q-18 -9 -41.5 -15.5t-48.5 -10t-49.5 -5.5t-43.5 -2q-32 0 -66.5 5.5t-64 20.5t-48.5 40.5t-19 64.5q0 17 5 39l72 343q2 8 8.5 13t14.5 5h105q18 0 18 -19q0 -4 -1 -8l-71 -339q-1 -5 -1.5 -11t-0.5 -11
q0 -27 18.5 -40.5t43.5 -13.5q29 0 53 11.5t31 43.5l78 369q2 8 8.5 13t14.5 5h105q19 0 19 -19zM530 691q0 -10 -6 -28t-19 -36t-34.5 -31.5t-51.5 -13.5q-20 0 -33 8t-23.5 18t-21 18t-25.5 8q-17 0 -26.5 -8.5t-17.5 -19t-15.5 -19t-19.5 -8.5q-21 0 -21 21q0 10 6 28.5
t19.5 36.5t34 31t50.5 13q20 0 33 -8t23.5 -17.5t21.5 -17.5t26 -8q16 0 26 8.5t18 18.5t15.5 18.5t19.5 8.5q21 0 21 -21z" />
    <glyph glyph-name="Umacron" unicode="&#x16a;" horiz-adv-x="656" 
d="M686 687q0 -3 -1 -8l-100 -469q-25 -116 -103.5 -171t-193.5 -55q-42 0 -83.5 10t-74.5 32t-53.5 55.5t-20.5 81.5q0 28 6 55l100 470q2 8 8.5 13t14.5 5h116q19 0 19 -19q0 -5 -2 -13l-97 -456q-2 -8 -3 -15.5t-1 -15.5q0 -42 26 -64t67 -22q54 0 89.5 33t46.5 84
l100 470q2 8 8.5 13t14.5 5h98q19 0 19 -19zM608 848q0 -4 -1 -9l-6 -29q-2 -7 -8 -12.5t-15 -5.5h-249q-19 0 -19 19v3q0 2 2 9l6 26q2 7 8 12.5t15 5.5h248q19 0 19 -19z" />
    <glyph glyph-name="umacron" unicode="&#x16b;" horiz-adv-x="564" 
d="M560 499q0 -4 -1 -8l-85 -399q-6 -27 -17 -43t-36 -29q-18 -9 -41.5 -15.5t-48.5 -10t-49.5 -5.5t-43.5 -2q-32 0 -66.5 5.5t-64 20.5t-48.5 40.5t-19 64.5q0 17 5 39l72 343q2 8 8.5 13t14.5 5h105q18 0 18 -19q0 -4 -1 -8l-71 -339q-1 -5 -1.5 -11t-0.5 -11
q0 -27 18.5 -40.5t43.5 -13.5q29 0 53 11.5t31 43.5l78 369q2 8 8.5 13t14.5 5h105q19 0 19 -19zM518 661q0 -4 -1 -9l-6 -29q-2 -7 -8 -12.5t-15 -5.5h-249q-19 0 -19 19q0 4 2 12l6 26q2 7 8 12.5t15 5.5h248q19 0 19 -19z" />
    <glyph glyph-name="Ubreve" unicode="&#x16c;" horiz-adv-x="656" 
d="M686 687q0 -3 -1 -8l-100 -469q-25 -116 -103.5 -171t-193.5 -55q-42 0 -83.5 10t-74.5 32t-53.5 55.5t-20.5 81.5q0 28 6 55l100 470q2 8 8.5 13t14.5 5h116q19 0 19 -19q0 -5 -2 -13l-97 -456q-2 -8 -3 -15.5t-1 -15.5q0 -42 26 -64t67 -22q54 0 89.5 33t46.5 84
l100 470q2 8 8.5 13t14.5 5h98q19 0 19 -19zM620 898q0 -16 -11 -39t-32.5 -44.5t-53.5 -37t-74 -15.5q-34 0 -57.5 11t-38 28t-21 37t-6.5 38t6.5 31t22.5 13q11 0 15.5 -6.5t6.5 -11.5q8 -29 27.5 -46.5t53.5 -17.5q35 0 62.5 18.5t47.5 46.5q4 6 11 11.5t18 5.5
q10 0 16.5 -6t6.5 -16z" />
    <glyph glyph-name="ubreve" unicode="&#x16d;" horiz-adv-x="564" 
d="M560 499q0 -4 -1 -8l-85 -399q-6 -27 -17 -43t-36 -29q-18 -9 -41.5 -15.5t-48.5 -10t-49.5 -5.5t-43.5 -2q-32 0 -66.5 5.5t-64 20.5t-48.5 40.5t-19 64.5q0 17 5 39l72 343q2 8 8.5 13t14.5 5h105q18 0 18 -19q0 -4 -1 -8l-71 -339q-1 -5 -1.5 -11t-0.5 -11
q0 -27 18.5 -40.5t43.5 -13.5q29 0 53 11.5t31 43.5l78 369q2 8 8.5 13t14.5 5h105q19 0 19 -19zM528 711q0 -16 -11 -39t-32.5 -44.5t-53.5 -37t-74 -15.5q-34 0 -57.5 11t-38 28t-21 37t-6.5 38t6.5 31t22.5 13q11 0 15.5 -6.5t6.5 -11.5q8 -29 27.5 -46.5t53.5 -17.5
q35 0 62.5 18.5t47.5 46.5q4 6 11 11.5t18 5.5q10 0 16.5 -6t6.5 -16z" />
    <glyph glyph-name="Uring" unicode="&#x16e;" horiz-adv-x="656" 
d="M686 687q0 -3 -1 -8l-100 -469q-25 -116 -103.5 -171t-193.5 -55q-42 0 -83.5 10t-74.5 32t-53.5 55.5t-20.5 81.5q0 28 6 55l100 470q2 8 8.5 13t14.5 5h116q19 0 19 -19q0 -5 -2 -13l-97 -456q-2 -8 -3 -15.5t-1 -15.5q0 -42 26 -64t67 -22q54 0 89.5 33t46.5 84
l100 470q2 8 8.5 13t14.5 5h98q19 0 19 -19zM561 867q0 -23 -9 -43t-24.5 -35t-36.5 -24t-44 -9q-36 0 -59.5 24t-23.5 57q0 22 9 42.5t25 35.5t36.5 24t43.5 9q35 0 59 -24t24 -57zM506 859q0 15 -10 26.5t-26 11.5q-20 0 -35.5 -15.5t-15.5 -35.5q0 -15 10 -26t26 -11
q21 0 36 14.5t15 35.5z" />
    <glyph glyph-name="uring" unicode="&#x16f;" horiz-adv-x="564" 
d="M560 499q0 -4 -1 -8l-85 -399q-6 -27 -17 -43t-36 -29q-18 -9 -41.5 -15.5t-48.5 -10t-49.5 -5.5t-43.5 -2q-32 0 -66.5 5.5t-64 20.5t-48.5 40.5t-19 64.5q0 17 5 39l72 343q2 8 8.5 13t14.5 5h105q18 0 18 -19q0 -4 -1 -8l-71 -339q-1 -5 -1.5 -11t-0.5 -11
q0 -27 18.5 -40.5t43.5 -13.5q29 0 53 11.5t31 43.5l78 369q2 8 8.5 13t14.5 5h105q19 0 19 -19zM472 681q0 -23 -9 -43t-24.5 -35t-36.5 -24t-44 -9q-36 0 -59.5 24t-23.5 57q0 22 9 42.5t25 35.5t36.5 24t43.5 9q35 0 59 -24t24 -57zM417 673q0 15 -10 26.5t-26 11.5
q-20 0 -35.5 -15.5t-15.5 -35.5q0 -15 10 -26t26 -11q21 0 36 14.5t15 35.5z" />
    <glyph glyph-name="Uhungarumlaut" unicode="&#x170;" horiz-adv-x="656" 
d="M686 687q0 -3 -1 -8l-100 -469q-25 -116 -103.5 -171t-193.5 -55q-42 0 -83.5 10t-74.5 32t-53.5 55.5t-20.5 81.5q0 28 6 55l100 470q2 8 8.5 13t14.5 5h116q19 0 19 -19q0 -5 -2 -13l-97 -456q-2 -8 -3 -15.5t-1 -15.5q0 -42 26 -64t67 -22q54 0 89.5 33t46.5 84
l100 470q2 8 8.5 13t14.5 5h98q19 0 19 -19zM531 907q0 -6 -3 -10.5t-7 -7.5l-137 -111q-15 -13 -33 -13h-12q-8 0 -10.5 0.5t-3.5 1.5q-5 5 -5 10t2.5 9t5.5 7l92 103q14 16 34 23t41 7q14 0 25 -4.5t11 -14.5zM686 907q0 -5 -3 -10t-7 -8l-137 -111q-16 -13 -33 -13h-18
q-7 0 -10 3.5t-3 8.5t2.5 9t5.5 7l92 103q14 16 34 23t41 7q17 0 26.5 -5.5t9.5 -13.5z" />
    <glyph glyph-name="uhungarumlaut" unicode="&#x171;" horiz-adv-x="564" 
d="M560 499q0 -4 -1 -8l-85 -399q-6 -27 -17 -43t-36 -29q-18 -9 -41.5 -15.5t-48.5 -10t-49.5 -5.5t-43.5 -2q-32 0 -66.5 5.5t-64 20.5t-48.5 40.5t-19 64.5q0 17 5 39l72 343q2 8 8.5 13t14.5 5h105q18 0 18 -19q0 -4 -1 -8l-71 -339q-1 -5 -1.5 -11t-0.5 -11
q0 -27 18.5 -40.5t43.5 -13.5q29 0 53 11.5t31 43.5l78 369q2 8 8.5 13t14.5 5h105q19 0 19 -19zM443 719q0 -10 -10 -18l-137 -111q-16 -13 -33 -13h-18q-13 0 -13 12q0 2 1.5 6.5t6.5 9.5l92 103q27 30 75 30q12 0 24 -4t12 -15zM598 719q0 -10 -10 -18l-137 -111
q-16 -13 -33 -13h-18q-13 0 -13 12q0 2 1.5 6t6.5 10l92 103q27 30 75 30q12 0 24 -4t12 -15z" />
    <glyph glyph-name="Uogonek" unicode="&#x172;" horiz-adv-x="656" 
d="M686 687q0 -3 -1 -8l-100 -469q-20 -93 -76 -147.5t-141 -71.5q-15 -8 -30.5 -18t-28.5 -21t-21.5 -23.5t-8.5 -25.5q0 -33 54 -33q30 0 49.5 6.5t36.5 6.5q11 0 17 -6.5t6 -15.5q0 -13 -13 -23t-33.5 -16.5t-44.5 -10t-46 -3.5q-26 0 -49 4.5t-40 13.5t-27 22.5
t-10 31.5q0 16 7.5 31t19.5 28.5t27 25t31 20.5q-44 3 -81.5 15.5t-66 35t-44.5 54.5t-16 73q0 26 6 55l100 470q2 7 8 12.5t15 5.5h116q19 0 19 -19q0 -4 -2 -12l-97 -457q-2 -6 -3 -14.5t-1 -16.5q0 -41 25 -63.5t68 -22.5q51 0 87.5 31t48.5 86l100 470q2 7 8 12.5
t15 5.5h98q19 0 19 -19z" />
    <glyph glyph-name="uogonek" unicode="&#x173;" horiz-adv-x="564" 
d="M560 499q0 -2 -2 -12l-84 -395q-6 -29 -18 -44.5t-35 -27.5q-31 -16 -87 -25q-15 -8 -32 -18t-31.5 -22t-23.5 -25.5t-9 -26.5q0 -33 54 -33q30 0 49.5 6.5t36.5 6.5q11 0 17 -6.5t6 -15.5q0 -13 -13 -23t-33.5 -16.5t-44.5 -10t-46 -3.5q-26 0 -49 4.5t-40.5 13.5
t-27.5 22.5t-10 31.5q0 17 8 32t21 28.5t29 25.5t32 21q-34 1 -67.5 8t-60 22t-43 40t-16.5 61q0 11 1.5 21t3.5 18l72 343q2 8 8 13t15 5h105q18 0 18 -19q0 -3 -1 -8l-71 -337q-1 -5 -1.5 -10t-0.5 -14q0 -25 17 -39.5t45 -14.5q72 0 84 55l78 369q2 7 8 12.5t15 5.5h105
q19 0 19 -19z" />
    <glyph glyph-name="Wcircumflex" unicode="&#x174;" horiz-adv-x="917" 
d="M993 688q0 -7 -4 -16l-323 -655q-4 -8 -10 -12.5t-18 -4.5h-84q-22 0 -24 22l-19 348q-1 9 -1 18v19q0 32 1 50t2 31h-2q-10 -29 -22.5 -61t-24.5 -57l-170 -352q-5 -9 -11 -13.5t-18 -4.5h-84q-22 0 -24 22l-42 643q-1 8 -1 11v9q0 21 22 21h113q22 0 22 -22l4 -382
q0 -35 -2 -63t-4 -46h2q3 9 8 22.5t11 28.5t12.5 30t12.5 28l185 386q5 9 10.5 13.5t16.5 4.5h68q12 0 17 -5.5t6 -16.5l18 -382q0 -5 0.5 -12.5t0.5 -16.5t-0.5 -21t-1 -23t-1 -20.5t-0.5 -15.5h2q8 25 18.5 54t21.5 55l170 385q5 10 10.5 14.5t16.5 4.5h101q10 0 14.5 -5
t4.5 -13zM730 786q0 -11 -8.5 -20t-21.5 -9q-8 0 -13.5 3t-10.5 6l-66 46q-9 6 -18 6q-4 0 -10 -1.5t-11 -4.5l-85 -46q-5 -3 -12.5 -6t-15.5 -3q-11 0 -18.5 6.5t-7.5 15.5q0 10 7 17.5t17 12.5q31 17 62.5 41.5t60.5 55.5q5 5 13 10t18 5t16 -5t9 -10q16 -31 37.5 -56
t44.5 -42q13 -10 13 -22z" />
    <glyph glyph-name="wcircumflex" unicode="&#x175;" horiz-adv-x="789" 
d="M823 500q0 -4 -4 -14l-235 -467q-5 -11 -11.5 -15t-18.5 -4h-94q-22 0 -24 22q-7 79 -14 156.5t-7 156.5h-2q-9 -27 -20 -54t-25 -53l-108 -209q-5 -11 -11.5 -15t-18.5 -4h-95q-22 0 -23 22l-36 457q-1 8 -1 11v7q0 11 6.5 16t16.5 5h99q23 0 23 -22l4 -259
q0 -18 -0.5 -42.5t-4.5 -58.5h2q9 26 21.5 55t21.5 46l134 263q9 18 29 18h63q22 0 24 -23l20 -258q1 -11 1 -23v-50q0 -14 -1 -28h2q4 12 9 26.5t10.5 28.5t10.5 26.5t8 19.5l118 263q8 18 28 18h83q20 0 20 -18zM622 599q0 -11 -8.5 -20t-21.5 -9q-8 0 -13.5 3t-10.5 6
l-66 46q-9 6 -18 6q-5 0 -10.5 -2t-10.5 -4l-85 -46q-5 -3 -12.5 -6t-15.5 -3q-11 0 -18.5 6.5t-7.5 15.5q0 10 7 17.5t17 12.5q31 17 62.5 41.5t60.5 55.5q5 5 13 10t18 5t16 -5t9 -10q16 -31 37.5 -56t44.5 -42q13 -10 13 -22z" />
    <glyph glyph-name="Ycircumflex" unicode="&#x176;" horiz-adv-x="582" 
d="M665 688q0 -8 -6 -16l-271 -354l-63 -300q-2 -8 -8.5 -13t-14.5 -5h-117q-18 0 -18 19q0 3 1 8l61 291l-119 356q-2 8 -2 12q0 20 22 20h120q20 0 26 -20l62 -241h2l176 246q11 15 28 15h101q20 0 20 -18zM562 786q0 -11 -8.5 -20t-21.5 -9q-8 0 -13.5 3t-10.5 6l-66 46
q-9 6 -18 6q-4 0 -10 -1.5t-11 -4.5l-85 -46q-5 -3 -12.5 -6t-15.5 -3q-11 0 -18.5 6.5t-7.5 15.5q0 10 7 17.5t17 12.5q31 17 62.5 41.5t60.5 55.5q5 5 13 10t18 5t16 -5t9 -10q16 -31 37.5 -56t44.5 -42q13 -10 13 -22z" />
    <glyph glyph-name="ycircumflex" unicode="&#x177;" horiz-adv-x="529" 
d="M568 501q0 -4 -1.5 -8t-3.5 -7l-310 -556q-20 -36 -43 -67.5t-51 -55t-62.5 -37t-79.5 -13.5q-16 0 -33 3.5t-31.5 11t-23.5 20.5t-9 33q0 29 18.5 45t46.5 16q12 0 21 -2.5t16.5 -6t14 -6t15.5 -2.5q18 0 33 12t27.5 28.5t22 34.5t17.5 31l-78 504q-1 5 -1.5 9t-0.5 9
q0 11 6.5 16t16.5 5h105q22 0 24 -21l26 -271q1 -11 1.5 -23t0.5 -23q0 -33 -3 -64h2q8 27 18.5 55.5t23.5 54.5l138 273q6 11 12 15t17 4h88q20 0 20 -17zM490 599q0 -11 -8.5 -20t-21.5 -9q-8 0 -13.5 3t-10.5 6l-66 46q-9 6 -18 6q-5 0 -10.5 -2t-10.5 -4l-85 -46
q-5 -3 -12.5 -6t-15.5 -3q-11 0 -18.5 6.5t-7.5 15.5q0 10 7 17.5t17 12.5q31 17 62.5 41.5t60.5 55.5q5 5 13 10t18 5t16 -5t9 -10q16 -31 37.5 -56t44.5 -42q13 -10 13 -22z" />
    <glyph glyph-name="Ydieresis" unicode="&#x178;" horiz-adv-x="582" 
d="M665 688q0 -8 -6 -16l-271 -354l-63 -300q-2 -8 -8.5 -13t-14.5 -5h-117q-18 0 -18 19q0 3 1 8l61 291l-119 356q-2 8 -2 12q0 20 22 20h120q20 0 26 -20l62 -241h2l176 246q11 15 28 15h101q20 0 20 -18zM383 833q0 -15 -6 -27.5t-16.5 -21.5t-24 -14t-27.5 -5
q-23 0 -38.5 15.5t-15.5 36.5q0 15 6 27.5t16.5 21.5t24 14.5t27.5 5.5q23 0 38.5 -16t15.5 -37zM570 833q0 -15 -6 -27.5t-16.5 -21.5t-24 -14t-27.5 -5q-23 0 -38.5 15.5t-15.5 36.5q0 15 6 27.5t16.5 21.5t24 14.5t27.5 5.5q23 0 38.5 -16t15.5 -37z" />
    <glyph glyph-name="Zacute" unicode="&#x179;" horiz-adv-x="533" 
d="M591 687q0 -5 -2.5 -11t-4.5 -8l-372 -563h232q19 0 19 -19q0 -4 -1 -9l-12 -59q-2 -8 -8 -13t-15 -5h-424q-19 0 -19 19q0 8 6 17l376 568h-213q-19 0 -19 18q0 5 2 13l11 53q2 8 8 13t15 5h402q19 0 19 -19zM564 897q0 -9 -8 -15l-136 -107q-13 -10 -27 -10h-44
q-13 0 -13 12q0 5 6 13l80 97q12 15 35 23.5t58 8.5q21 0 35 -6t14 -16z" />
    <glyph glyph-name="zacute" unicode="&#x17a;" horiz-adv-x="433" 
d="M459 500q0 -5 -2 -9l-4 -8l-269 -400h164q19 0 19 -19q0 -5 -2 -13q-3 -12 -5.5 -26t-8.5 -19q-8 -6 -16 -6h-337q-18 0 -18 18q0 5 2 9l4 8l274 403h-154q-19 0 -19 19q0 6 3.5 19t5.5 24q2 8 8 13t14 5h322q19 0 19 -18zM474 710q0 -9 -8 -15l-136 -107
q-11 -10 -27 -10h-44q-13 0 -13 12q0 5 6 13l80 97q17 20 42.5 26t50.5 6q6 0 14 -1t16 -3.5t13.5 -6.5t5.5 -11z" />
    <glyph glyph-name="Zdotaccent" unicode="&#x17b;" horiz-adv-x="533" 
d="M591 687q0 -5 -2.5 -11t-4.5 -8l-372 -563h232q19 0 19 -19q0 -4 -1 -9l-12 -59q-2 -8 -8 -13t-15 -5h-424q-19 0 -19 19q0 8 6 17l376 568h-213q-19 0 -19 18q0 5 2 13l11 53q2 8 8 13t15 5h402q19 0 19 -19zM471 839q0 -15 -6.5 -28t-17.5 -22.5t-24.5 -14.5t-28.5 -5
q-25 0 -41.5 15.5t-16.5 36.5q0 15 6.5 28t17.5 22.5t25 14.5t28 5q25 0 41.5 -15.5t16.5 -36.5z" />
    <glyph glyph-name="zdotaccent" unicode="&#x17c;" horiz-adv-x="433" 
d="M459 500q0 -5 -2 -9l-4 -8l-269 -400h164q19 0 19 -19q0 -5 -2 -13q-3 -12 -5.5 -26t-8.5 -19q-8 -6 -16 -6h-337q-18 0 -18 18q0 5 2 9l4 8l274 403h-154q-19 0 -19 19q0 6 3.5 19t5.5 24q2 8 8 13t14 5h322q19 0 19 -18zM378 652q0 -15 -6.5 -28t-17.5 -22.5
t-24.5 -14.5t-28.5 -5q-25 0 -41.5 15.5t-16.5 36.5q0 15 6.5 28t17.5 22.5t25 14.5t28 5q25 0 41.5 -15.5t16.5 -36.5z" />
    <glyph glyph-name="Zcaron" unicode="&#x17d;" horiz-adv-x="533" 
d="M591 687q0 -5 -2.5 -11t-4.5 -8l-372 -563h232q19 0 19 -19q0 -4 -1 -9l-12 -59q-2 -8 -8 -13t-15 -5h-424q-19 0 -19 19q0 8 6 17l376 568h-213q-19 0 -19 18q0 5 2 13l11 53q2 8 8 13t15 5h402q19 0 19 -19zM567 901q0 -10 -7 -17.5t-17 -12.5q-31 -17 -62.5 -42
t-60.5 -56q-5 -5 -13 -10t-18 -5t-16 5t-9 10q-16 31 -37.5 56t-44.5 42q-13 10 -13 23q0 11 8.5 19.5t21.5 8.5q8 0 13.5 -2.5t10.5 -5.5l62 -43q5 -3 10.5 -6t11.5 -3q5 0 12 2.5t14 6.5l80 43q5 3 12.5 5.5t15.5 2.5q12 0 19 -6t7 -15z" />
    <glyph glyph-name="zcaron" unicode="&#x17e;" horiz-adv-x="433" 
d="M459 500q0 -5 -2 -9l-4 -8l-269 -400h164q19 0 19 -19q0 -5 -2 -13q-3 -12 -5.5 -26t-8.5 -19q-8 -6 -16 -6h-337q-18 0 -18 18q0 5 2 9l4 8l274 403h-154q-19 0 -19 19q0 6 3.5 19t5.5 24q2 8 8 13t14 5h322q19 0 19 -18zM467 714q0 -10 -7 -17.5t-17 -12.5
q-31 -17 -62.5 -42t-60.5 -56q-5 -5 -13 -10t-18 -5t-16 5t-9 10q-16 31 -37.5 56t-44.5 42q-13 10 -13 23q0 11 8.5 19.5t21.5 8.5q8 0 13.5 -2.5t10.5 -5.5l62 -43q5 -4 11 -6.5t11 -2.5q6 0 13 3t13 6l80 43q5 3 12.5 5.5t15.5 2.5q12 0 19 -6t7 -15z" />
    <glyph glyph-name="longs" unicode="&#x17f;" horiz-adv-x="288" 
d="M493 721q0 -25 -13.5 -41.5t-44.5 -16.5q-14 0 -25.5 4t-28.5 4q-18 0 -33 -5.5t-28.5 -23t-25.5 -50t-23 -85.5l-154 -724q-2 -8 -7.5 -13t-14.5 -5h-103q-19 0 -19 19q0 3 1 8l139 658q21 101 56.5 164.5t77.5 99t87.5 48t88.5 12.5q35 0 52.5 -15t17.5 -38z" />
    <glyph glyph-name="uni018F" unicode="&#x18f;" horiz-adv-x="667" 
d="M659 463q0 -44 -8 -97t-26 -106.5t-47.5 -103t-72.5 -88t-100.5 -61.5t-132.5 -23q-54 0 -95.5 20t-69.5 53.5t-42.5 77.5t-14.5 92q0 16 2.5 34t5.5 34q6 29 19 40.5t37 15.5l383 59q1 8 1.5 18t0.5 19q0 32 -7 59t-22.5 47t-40.5 31t-61 11q-31 0 -58 -9t-51 -24
t-44 -34.5t-37 -40.5q-9 -11 -21 -17.5t-26 -6.5t-21.5 9t-7.5 23q0 25 21 64t61 75t97.5 62t131.5 26q58 0 104 -18t77.5 -52t48 -81.5t16.5 -107.5zM216 275q-3 -16 -5 -31t-2 -29q0 -25 5 -47.5t16.5 -39t29 -26t42.5 -9.5q37 0 67 19t52.5 50t38 71.5t25.5 83.5z" />
    <glyph glyph-name="florin" unicode="&#x192;" horiz-adv-x="561" 
d="M620 643q0 -28 -16 -44t-42 -16q-19 0 -29.5 7t-18.5 16t-16.5 16t-22.5 7q-18 0 -32 -10t-25 -26.5t-19 -36.5t-14 -40l-34 -111h91q19 0 19 -19q0 -3 -1 -8l-8 -35q-2 -8 -8 -13t-15 -5h-103l-95 -303q-19 -61 -41.5 -110.5t-54 -85t-75 -54.5t-104.5 -19
q-49 0 -83 20.5t-34 55.5q0 26 15.5 44.5t44.5 18.5q18 0 28.5 -6.5t19 -14.5t17 -14.5t23.5 -6.5t27.5 9t23 23.5t18.5 32.5t14 37l117 373h-78q-19 0 -19 19v4q0 2 2 8l7 31q2 8 8 13t15 5h90l14 46q17 56 40.5 105t56.5 85.5t77 57.5t103 21q51 0 84 -22t33 -55z" />
    <glyph glyph-name="uni01B5" unicode="&#x1b5;" horiz-adv-x="533" 
d="M591 687q0 -5 -2.5 -11t-4.5 -8l-171 -259h72q19 0 19 -19q0 -5 -2 -13l-10 -41q-2 -7 -7.5 -12t-14.5 -5h-117l-141 -214h232q19 0 19 -19q0 -4 -1 -9l-12 -59q-2 -8 -8 -13t-15 -5h-424q-19 0 -19 19q0 8 6 17l187 283h-70q-18 0 -18 18q0 4 2 14l9 40q2 7 8 12.5
t15 5.5h114l129 195h-213q-19 0 -19 18q0 5 2 13l11 53q2 8 8 13t15 5h402q19 0 19 -19z" />
    <glyph glyph-name="uni01B6" unicode="&#x1b6;" horiz-adv-x="433" 
d="M459 500q0 -5 -2 -9l-4 -8l-120 -179h46q18 0 18 -17q0 -4 -2 -14l-6 -27q-2 -7 -8 -12.5t-15 -5.5h-84l-97 -145h163q19 0 19 -19q0 -5 -2 -13l-7 -33q-2 -7 -8 -12.5t-15 -5.5h-337q-18 0 -18 18q0 5 2 9l4 8l131 193h-45q-19 0 -19 18q0 5 2 13l6 27q2 7 8 12.5
t15 5.5h85l92 134h-155q-19 0 -19 19q0 5 2 13l7 30q2 8 8 13t14 5h322q19 0 19 -18z" />
    <glyph glyph-name="Aringacute" unicode="&#x1fa;" horiz-adv-x="661" 
d="M603 21q0 -8 -6 -14.5t-17 -6.5h-116q-21 0 -22 19l-13 157h-232l-82 -158q-5 -10 -11 -14t-17 -4h-101q-10 0 -14.5 5t-4.5 12q0 8 8 21l367 648q6 11 12 15.5t18 4.5h115q20 0 23 -20l92 -651q1 -5 1 -9v-5zM702 937q0 -5 -3 -9.5t-7 -7.5l-148 -118q-24 -20 -49 -33
t-58 -13q-34 0 -58 23t-24 56q0 23 9.5 43.5t25 36t36.5 24.5t44 9q28 0 47 -15t24 -38l28 32q13 15 35 23.5t49 8.5q20 0 34.5 -5.5t14.5 -16.5zM402 476q-3 30 -3 60q0 23 0.5 32.5t1.5 20.5h-2l-6 -18q-4 -12 -10 -28t-13.5 -33.5t-16.5 -33.5l-109 -210h177zM498 860
q0 15 -10 25.5t-26 10.5q-21 0 -36.5 -15t-15.5 -36q0 -15 10 -25.5t26 -10.5q21 0 36.5 15t15.5 36z" />
    <glyph glyph-name="aringacute" unicode="&#x1fb;" horiz-adv-x="528" 
d="M502 406q0 -5 -0.5 -14t-2.5 -18l-59 -273q-7 -32 -18.5 -50t-37.5 -32q-11 -6 -29 -12t-41 -10.5t-48.5 -7t-49.5 -2.5q-40 0 -76.5 7t-64 22t-44 38.5t-16.5 55.5q0 58 32 95t81.5 60.5t107.5 35.5t111 21l14 66q2 6 2 11v8q0 23 -13.5 36t-36.5 13q-32 0 -54.5 -19
t-37.5 -48q-10 -19 -28 -29.5t-44 -10.5q-23 0 -38.5 12.5t-15.5 33.5q0 23 16 47t47 44t77.5 32.5t106.5 12.5q70 0 115 -32t45 -93zM605 751q0 -5 -3 -9.5t-7 -7.5l-148 -118q-24 -20 -49 -33t-58 -13q-34 0 -58 23t-24 56q0 23 9.5 43.5t25 36t36.5 24.5t44 9
q28 0 47 -15t24 -38l28 32q13 15 35 23.5t49 8.5q20 0 34.5 -5.5t14.5 -16.5zM333 255q-33 -5 -64.5 -15.5t-56.5 -26.5t-40.5 -38t-15.5 -52q0 -26 18 -43t53 -17q25 0 47.5 11t28.5 39zM401 674q0 15 -10 25.5t-26 10.5q-21 0 -36.5 -15t-15.5 -36q0 -15 10 -25.5
t26 -10.5q21 0 36.5 15t15.5 36z" />
    <glyph glyph-name="AEacute" unicode="&#x1fc;" horiz-adv-x="858" 
d="M847 687q0 -2 -1.5 -10.5t-4 -19t-4.5 -20.5l-3 -15q-2 -8 -8.5 -13t-14.5 -5h-246l5 -190h197q19 0 19 -19q0 -2 -2 -11t-4.5 -19.5t-4.5 -20t-3 -12.5q-2 -8 -8 -13t-14 -5h-180l4 -209h203q19 0 19 -19q0 -3 -1.5 -11t-3.5 -18.5t-4.5 -21t-3.5 -17.5q-2 -8 -8.5 -13
t-14.5 -5h-319q-22 0 -22 19l5 163h-214l-103 -165q-10 -17 -30 -17h-99q-19 0 -19 17q0 5 2.5 10t5.5 9l432 652q12 18 32 18h397q19 0 19 -19zM442 584q-4 -9 -11 -25t-16.5 -35t-20.5 -39.5t-21 -36.5l-109 -175h164l5 175q2 37 5 73.5t6 62.5h-2zM785 897q0 -9 -8 -15
l-136 -107q-13 -10 -27 -10h-44q-13 0 -13 12q0 5 6 13l80 97q12 15 35 23.5t58 8.5q21 0 35 -6t14 -16z" />
    <glyph glyph-name="aeacute" unicode="&#x1fd;" horiz-adv-x="812" 
d="M796 366q0 -14 -3 -29t-8 -27q-8 -18 -31 -21l-289 -36q-1 -6 -1.5 -13.5t-0.5 -15.5q0 -24 5.5 -46.5t18 -40t33 -27.5t50.5 -10q20 0 38.5 7t35 17.5t29.5 22.5t23 23q7 8 15.5 13t19.5 5q13 0 20 -8t7 -20q0 -18 -14 -47.5t-42.5 -57.5t-71.5 -48.5t-100 -20.5
q-29 0 -54 8.5t-44 22t-32 30t-17 33.5h-2q-9 -16 -26 -32.5t-41 -30t-55 -22.5t-69 -9q-81 0 -128 32t-47 90q0 40 16 69t42.5 50.5t61 35.5t71 23t73 14t67.5 9l17 77q2 10 2 17q0 25 -16.5 38t-39.5 13q-32 0 -54 -19t-37 -48q-20 -39 -68 -39q-23 0 -38.5 12.5
t-15.5 33.5q0 22 16 46t45.5 44.5t71.5 33.5t94 13q58 0 93 -25.5t37 -60.5h2q12 16 30 31.5t40.5 27.5t49.5 19.5t57 7.5q36 0 66.5 -12.5t52 -35t33.5 -52.5t12 -65zM664 381q0 30 -13.5 51.5t-47.5 21.5q-24 0 -43.5 -11t-35.5 -29t-28 -42.5t-19 -51.5l184 26q3 18 3 35
zM333 244q-29 -4 -60.5 -11.5t-57.5 -21.5t-43 -35.5t-17 -52.5q0 -27 16 -42.5t47 -15.5q34 0 59.5 22t33.5 57zM672 710q0 -9 -8 -15l-136 -107q-11 -10 -27 -10h-44q-13 0 -13 12q0 5 6 13l80 97q17 20 42.5 26t50.5 6q6 0 14 -1t16 -3.5t13.5 -6.5t5.5 -11z" />
    <glyph glyph-name="Oslashacute" unicode="&#x1fe;" horiz-adv-x="727" 
d="M778 741q0 -6 -6 -13l-102 -110q22 -32 33.5 -72.5t11.5 -88.5q0 -87 -26 -172t-76.5 -151.5t-124 -108t-168.5 -41.5q-54 0 -98 17t-76 47l-99 -108q-7 -7 -14 -7t-21 12q-12 10 -12 17q0 6 6 13l104 114q-46 69 -46 166q0 87 26 170.5t76 149.5t123.5 106.5t168.5 40.5
q55 0 99.5 -16.5t77.5 -46.5l96 104q7 8 13 8q7 0 21 -12q13 -11 13 -18zM549 566q-13 29 -37.5 47.5t-64.5 18.5q-44 0 -82.5 -24t-69.5 -72q-18 -28 -32.5 -63t-25 -72.5t-16 -76t-5.5 -72.5q0 -17 0.5 -26t1.5 -20zM567 470q0 12 -0.5 19t-1.5 15l-329 -359
q14 -28 38 -44t61 -16q75 0 132 69q21 26 39.5 64t32 80.5t21 87.5t7.5 84zM649 897q0 -9 -8 -15l-136 -107q-13 -10 -27 -10h-44q-13 0 -13 12q0 5 6 13l80 97q12 15 35 23.5t58 8.5q21 0 35 -6t14 -16z" />
    <glyph glyph-name="oslashacute" unicode="&#x1ff;" horiz-adv-x="583" 
d="M603 541q0 -5 -6 -11l-79 -81q35 -52 35 -124q0 -64 -21 -124.5t-60.5 -108t-96.5 -76.5t-129 -29q-85 0 -139 48l-77 -78q-6 -6 -12 -6q-7 0 -19 12q-9 9 -9 15t6 12l79 81q-33 51 -33 125q0 64 21 124.5t60.5 107.5t96 75t128.5 28q42 0 77 -12t61 -34l76 77q6 6 12 6
q8 0 18 -10q11 -11 11 -17zM408 406q-8 23 -25 38.5t-46 15.5q-27 0 -49.5 -14.5t-40 -38t-30.5 -53t-22 -59.5t-13 -57t-4 -45q0 -6 0.5 -10.5t0.5 -7.5zM417 348l-228 -231q8 -23 24.5 -36t43.5 -13q43 0 73 31t49.5 74t28.5 89t9 76v10zM540 710q0 -9 -8 -15l-136 -107
q-11 -10 -27 -10h-44q-13 0 -13 12q0 5 6 13l80 97q17 20 42.5 26t50.5 6q6 0 14 -1t16 -3.5t13.5 -6.5t5.5 -11z" />
    <glyph glyph-name="Scommaaccent" unicode="&#x218;" horiz-adv-x="578" 
d="M591 580q0 -35 -19 -53.5t-54 -18.5q-49 0 -64 48q-9 30 -27.5 50.5t-56.5 20.5q-25 0 -44 -9t-32 -24t-19.5 -33.5t-6.5 -37.5q0 -29 19.5 -49.5t49 -37.5t64 -34t64 -39.5t49 -54t19.5 -77.5t-16.5 -90t-52 -79t-90.5 -56.5t-132 -21.5q-51 0 -91 15.5t-68.5 39.5
t-43.5 53t-15 56q0 39 22 58.5t55 19.5q53 0 68 -54q4 -15 11 -30t18.5 -27t27 -19.5t36.5 -7.5q27 0 46.5 10t33 25.5t20 35t6.5 38.5q0 31 -19 53t-48 40t-62 35t-62 38.5t-48 51.5t-19 73q0 46 17.5 88t52 74.5t86 52t119.5 19.5q55 0 94 -14.5t64 -36.5t36.5 -46.5
t11.5 -44.5zM295 -101q0 -26 -15.5 -48t-40 -39t-54.5 -26.5t-58 -9.5q-22 0 -22 16q0 8 5 13.5t13 9.5q7 4 17 9t19 11.5t15 14.5t6 17q0 6 -2.5 10.5t-6 8.5t-6 8.5t-2.5 11.5q0 20 20 30.5t51 10.5q33 0 47 -14.5t14 -33.5z" />
    <glyph glyph-name="scommaaccent" unicode="&#x219;" horiz-adv-x="482" 
d="M471 422q0 -25 -16 -40.5t-45 -15.5q-44 0 -57 42q-7 23 -21 38.5t-41 15.5q-38 0 -56 -23.5t-18 -50.5q0 -23 15.5 -38.5t39 -28t51 -24.5t51 -28.5t39 -39t15.5 -56.5q0 -38 -15 -71.5t-44 -59t-72 -40.5t-98 -15q-48 0 -83.5 12.5t-58 31t-33.5 40.5t-11 41
q0 27 17.5 44t47.5 17q24 0 38.5 -11.5t22.5 -33.5q9 -27 23.5 -43.5t45.5 -16.5q16 0 30 6.5t24 17.5t16 25t6 29q0 23 -15.5 39t-38.5 29.5t-49.5 26t-49.5 28.5t-38.5 37.5t-15.5 53.5q0 36 14.5 67.5t43 54.5t70 36t95.5 13q43 0 75.5 -10.5t53.5 -26.5t31.5 -35
t10.5 -37zM241 -101q0 -26 -15.5 -48t-40 -39t-54.5 -26.5t-58 -9.5q-22 0 -22 16q0 8 5 13.5t13 9.5q7 4 17 9t19 11.5t15 14.5t6 17q0 6 -2.5 10.5t-6 8.5t-6 8.5t-2.5 11.5q0 20 20 30.5t51 10.5q33 0 47 -14.5t14 -33.5z" />
    <glyph glyph-name="uni021A" unicode="&#x21a;" horiz-adv-x="529" 
d="M600 687q0 -4 -2 -12l-12 -53q-2 -8 -8.5 -13t-14.5 -5h-140l-124 -586q-2 -8 -8.5 -13t-14.5 -5h-116q-19 0 -19 19q0 4 1 9l123 576h-136q-19 0 -19 18q0 1 1.5 9.5t4 19t4.5 21t4 16.5q2 8 8 13t14 5h435q19 0 19 -19zM255 -101q0 -26 -15.5 -48t-40 -39t-54.5 -26.5
t-58 -9.5q-22 0 -22 16q0 8 5 13.5t13 9.5q7 4 17 9t19 11.5t15 14.5t6 17q0 6 -2.5 10.5t-6 8.5t-6 8.5t-2.5 11.5q0 20 20 30.5t51 10.5q33 0 47 -14.5t14 -33.5z" />
    <glyph glyph-name="uni021B" unicode="&#x21b;" horiz-adv-x="368" 
d="M391 496q0 -1 -1 -6l-7 -34q-2 -8 -8.5 -13t-12.5 -5h-80l-65 -303q-3 -14 -3 -28q0 -23 11 -33t34 -10q5 0 10.5 1t10.5 1q11 0 17 -6.5t6 -17.5q0 -25 -31.5 -40t-77.5 -15q-27 0 -50 6.5t-40 20t-26.5 34.5t-9.5 50q0 10 1.5 23t2.5 18l64 299h-46q-19 0 -19 19
q0 1 1 7t2.5 13t2.5 13.5t2 9.5q2 8 8.5 13t14.5 5h50l14 66q2 10 6 17.5t14 11.5l110 44q11 4 15 4q14 0 14 -14q0 -3 -1 -7l-25 -122h73q19 0 19 -19v-3zM199 -101q0 -26 -15.5 -48t-40 -39t-54.5 -26.5t-58 -9.5q-22 0 -22 16q0 8 5 13.5t13 9.5q7 4 17 9t19 11.5
t15 14.5t6 17q0 6 -2.5 10.5t-6 8.5t-6 8.5t-2.5 11.5q0 20 20 30.5t51 10.5q33 0 47 -14.5t14 -33.5z" />
    <glyph glyph-name="uni0237" unicode="&#x237;" horiz-adv-x="277" 
d="M267 499q0 -4 -1 -9l-80 -379q-23 -107 -62.5 -175t-83 -107t-84.5 -53.5t-68 -14.5q-16 0 -24.5 8t-8.5 22q0 19 26 36t49 40.5t43 57t36.5 79t29.5 107.5l83 389q2 8 8 13t15 5h103q19 0 19 -19z" />
    <glyph glyph-name="uni0259" unicode="&#x259;" horiz-adv-x="527" 
d="M500 332q0 -32 -6 -70t-19.5 -76.5t-36 -74.5t-56 -63.5t-78.5 -44t-104 -16.5q-40 0 -71.5 14.5t-53 39t-33 57.5t-11.5 70q0 10 1.5 23.5t3.5 24.5q5 22 15.5 31t29.5 12l284 43v12q0 49 -21.5 82t-77.5 33q-46 0 -79.5 -23t-56.5 -48q-7 -8 -16.5 -13t-20.5 -5
q-24 0 -24 25q0 20 16.5 48.5t47 54.5t74 44.5t98.5 18.5q92 0 143.5 -53t51.5 -146zM169 199q-2 -11 -3 -22t-1 -22q0 -34 13.5 -58.5t48.5 -24.5q27 0 48.5 13.5t38 36t27.5 50.5t18 57z" />
    <glyph glyph-name="uni02BB" unicode="&#x2bb;" horiz-adv-x="266" 
d="M316 695q0 -9 -5 -16t-13 -14q-11 -9 -22 -20.5t-20 -25t-14.5 -28t-5.5 -29.5q0 -12 4.5 -20.5t10.5 -17.5t10.5 -19.5t4.5 -26.5q0 -30 -22 -51t-58 -21q-34 0 -53 21.5t-19 53.5q0 43 18 85t45 75.5t57.5 54.5t55.5 21q12 0 19 -6.5t7 -15.5z" />
    <glyph glyph-name="afii57929" unicode="&#x2bc;" horiz-adv-x="266" 
d="M292 642q0 -43 -18 -85t-45 -75.5t-57.5 -54.5t-55.5 -21q-12 0 -19 6.5t-7 15.5q0 10 5 16.5t13 13.5q11 9 22 20.5t20 25t14.5 28t5.5 29.5q0 12 -4.5 20.5t-10.5 17.5t-10.5 19.5t-4.5 26.5q0 30 22 51t58 21q34 0 53 -21.5t19 -53.5z" />
    <glyph glyph-name="circumflex" unicode="&#x2c6;" horiz-adv-x="296" 
d="M374 599q0 -11 -8.5 -20t-21.5 -9q-8 0 -13.5 3t-10.5 6l-66 46q-4 2 -8.5 4t-9.5 2q-8 0 -21 -6l-85 -46q-5 -3 -12.5 -6t-15.5 -3q-11 0 -18.5 6.5t-7.5 15.5q0 10 7 17.5t17 12.5q31 17 62.5 41.5t60.5 55.5q5 5 13 10t18 5t16 -5t9 -10q16 -31 37.5 -56t44.5 -42
q13 -10 13 -22z" />
    <glyph glyph-name="caron" unicode="&#x2c7;" horiz-adv-x="296" 
d="M399 714q0 -10 -7 -17.5t-17 -12.5q-31 -17 -62.5 -42t-60.5 -56q-5 -5 -13 -10t-18 -5t-16 5t-9 10q-16 31 -37.5 56t-44.5 42q-13 10 -13 23q0 11 8.5 19.5t21.5 8.5q8 0 13.5 -2.5t10.5 -5.5l62 -43q5 -4 11 -6.5t11 -2.5t12 2.5t14 6.5l80 43q5 3 12.5 5.5t15.5 2.5
q12 0 19 -6t7 -15z" />
    <glyph glyph-name="uni02C9" unicode="&#x2c9;" horiz-adv-x="296" 
d="M385 661q0 -4 -1 -9l-6 -29q-2 -7 -8 -12.5t-15 -5.5h-249q-19 0 -19 19q0 4 2 12l6 26q2 7 8 12.5t15 5.5h248q19 0 19 -19z" />
    <glyph glyph-name="breve" unicode="&#x2d8;" horiz-adv-x="296" 
d="M395 711q0 -16 -11 -39t-32.5 -44.5t-53.5 -37t-74 -15.5q-34 0 -57.5 11t-38 28t-21 37t-6.5 38t6.5 31t22.5 13q11 0 15.5 -6.5t6.5 -11.5q8 -29 27.5 -46.5t53.5 -17.5q35 0 62.5 18.5t47.5 46.5q4 6 11 11.5t18 5.5q10 0 16.5 -6t6.5 -16z" />
    <glyph glyph-name="dotaccent" unicode="&#x2d9;" horiz-adv-x="296" 
d="M303 652q0 -15 -6.5 -28t-17.5 -22.5t-24.5 -14.5t-28.5 -5q-25 0 -41.5 15.5t-16.5 36.5q0 15 6.5 28t17.5 22.5t25 14.5t28 5q25 0 41.5 -15.5t16.5 -36.5z" />
    <glyph glyph-name="ring" unicode="&#x2da;" horiz-adv-x="296" 
d="M339 681q0 -23 -9 -43t-24.5 -35t-36 -24t-43.5 -9q-36 0 -60 24t-24 57q0 22 9 42.5t25 35.5t36.5 24t43.5 9q35 0 59 -24t24 -57zM284 673q0 15 -10 26.5t-26 11.5q-20 0 -35.5 -15.5t-15.5 -35.5q0 -15 10.5 -26t26.5 -11q21 0 35.5 14.5t14.5 35.5z" />
    <glyph glyph-name="ogonek" unicode="&#x2db;" horiz-adv-x="296" 
d="M244 -139q0 -13 -13 -23t-33.5 -16.5t-44.5 -10t-46 -3.5q-26 0 -49 4.5t-40 13.5t-27 22.5t-10 31.5q0 23 14 43t34 36.5t43 29t41 20.5h93q-13 -6 -34 -17t-41 -25t-34.5 -30.5t-14.5 -33.5q0 -33 53 -33q30 0 49.5 6.5t36.5 6.5q11 0 17 -6.5t6 -15.5z" />
    <glyph glyph-name="tilde" unicode="&#x2dc;" horiz-adv-x="296" 
d="M394 691q0 -10 -6 -28t-19 -36t-34.5 -31.5t-51.5 -13.5q-20 0 -33 8t-23.5 18t-21 18t-25.5 8q-17 0 -26.5 -8.5t-17.5 -19t-15.5 -19t-19.5 -8.5q-21 0 -21 21q0 10 6 28.5t19.5 36.5t34 31t50.5 13q20 0 33 -8t23.5 -17.5t21.5 -17.5t26 -8q16 0 26 8.5t18 18.5
t15.5 18.5t19.5 8.5q21 0 21 -21z" />
    <glyph glyph-name="hungarumlaut" unicode="&#x2dd;" horiz-adv-x="296" 
d="M291 719q0 -5 -3 -10t-7 -8l-137 -111q-15 -13 -33 -13h-18q-7 0 -10 3.5t-3 8.5t2.5 9t5.5 7l92 103q14 16 34 23t41 7q9 0 22.5 -3.5t13.5 -15.5zM446 719q0 -5 -3 -10t-7 -8l-137 -111q-15 -13 -33 -13h-17q-8 0 -11 4t-3 8q0 5 2.5 9t5.5 7l92 103q14 16 34 23t41 7
q9 0 22.5 -3.5t13.5 -15.5z" />
    <glyph glyph-name="gravecomb" unicode="&#x300;" 
d="M-166 592q0 -6 -4.5 -10t-10.5 -4h-42q-14 0 -26 14l-86 102q-6 6 -6 13q0 8 7 13t16.5 7.5t19 3.5t15.5 1q9 0 20.5 -1.5t22.5 -5t19.5 -9.5t12.5 -16q2 -5 8.5 -21t14 -34t13.5 -33.5t6 -19.5z" />
    <glyph glyph-name="acutecomb" unicode="&#x301;" 
d="M-43 710q0 -9 -8 -15l-136 -107q-11 -10 -27 -10h-44q-13 0 -13 12q0 5 6 13l80 97q17 20 42.5 26t50.5 6q6 0 14 -1t16 -3.5t13.5 -6.5t5.5 -11z" />
    <glyph glyph-name="uni0302" unicode="&#x302;" 
d="M-71 599q0 -11 -8.5 -20t-21.5 -9q-8 0 -13.5 3t-10.5 6l-66 46q-9 6 -18 6q-5 0 -10.5 -2t-10.5 -4l-85 -46q-5 -3 -12.5 -6t-15.5 -3q-11 0 -18.5 6.5t-7.5 15.5q0 10 7 17.5t17 12.5q31 17 62.5 41.5t60.5 55.5q5 5 13 10t18 5t16 -5t9 -10q16 -31 37.5 -56t44.5 -42
q13 -10 13 -22z" />
    <glyph glyph-name="tildecomb" unicode="&#x303;" 
d="M-53 691q0 -10 -6 -28t-19 -36t-34.5 -31.5t-51.5 -13.5q-20 0 -33 8t-23.5 18t-21 18t-25.5 8q-17 0 -26.5 -8.5t-17.5 -19t-15.5 -19t-19.5 -8.5q-21 0 -21 21q0 10 6 28.5t19.5 36.5t34 31t50.5 13q20 0 33 -8t23.5 -17.5t21.5 -17.5t26 -8q16 0 26 8.5t18 18.5
t15.5 18.5t19.5 8.5q21 0 21 -21z" />
    <glyph glyph-name="uni0304" unicode="&#x304;" 
d="M105 661q0 -4 -1 -9l-6 -29q-2 -7 -8 -12.5t-15 -5.5h-249q-19 0 -19 19q0 4 2 12l6 26q2 7 8 12.5t15 5.5h248q19 0 19 -19z" />
    <glyph glyph-name="uni0306" unicode="&#x306;" 
d="M109 711q0 -16 -11 -39t-32.5 -44.5t-53.5 -37t-74 -15.5q-34 0 -57.5 11t-38 28t-21 37t-6.5 38t6.5 31t22.5 13q11 0 15.5 -6.5t6.5 -11.5q8 -29 27.5 -46.5t53.5 -17.5q35 0 62.5 18.5t47.5 46.5q4 6 11 11.5t18 5.5q10 0 16.5 -6t6.5 -16z" />
    <glyph glyph-name="uni0307" unicode="&#x307;" 
d="M19 652q0 -15 -6.5 -28t-17.5 -22.5t-24.5 -14.5t-28.5 -5q-25 0 -41.5 15.5t-16.5 36.5q0 15 6.5 28t17.5 22.5t25 14.5t28 5q25 0 41.5 -15.5t16.5 -36.5z" />
    <glyph glyph-name="uni0308" unicode="&#x308;" 
d="M-52 646q0 -15 -6 -27.5t-16.5 -21.5t-24 -14t-27.5 -5q-23 0 -38.5 15.5t-15.5 36.5q0 15 6 27.5t16.5 21.5t24 14.5t27.5 5.5q23 0 38.5 -16t15.5 -37zM-238 646q0 -15 -6 -27.5t-16.5 -21.5t-24 -14t-27.5 -5q-23 0 -38.5 15.5t-15.5 36.5q0 15 6 27.5t16.5 21.5
t24 14.5t27.5 5.5q23 0 38.5 -16t15.5 -37z" />
    <glyph glyph-name="uni030A" unicode="&#x30a;" 
d="M-81 681q0 -23 -9 -43t-24.5 -35t-36.5 -24t-44 -9q-36 0 -59.5 24t-23.5 57q0 22 9 42.5t25 35.5t36.5 24t43.5 9q35 0 59 -24t24 -57zM-136 673q0 15 -10 26.5t-26 11.5q-20 0 -35.5 -15.5t-15.5 -35.5q0 -15 10 -26t26 -11q21 0 36 14.5t15 35.5z" />
    <glyph glyph-name="uni030B" unicode="&#x30b;" 
d="M3 719q0 -10 -10 -18l-137 -111q-16 -13 -33 -13h-18q-13 0 -13 12q0 2 1.5 6.5t6.5 9.5l92 103q27 30 75 30q12 0 24 -4t12 -15zM158 719q0 -10 -10 -18l-137 -111q-16 -13 -33 -13h-18q-13 0 -13 12q0 2 1.5 6t6.5 10l92 103q27 30 75 30q12 0 24 -4t12 -15z" />
    <glyph glyph-name="uni030C" unicode="&#x30c;" 
d="M34 714q0 -10 -7 -17.5t-17 -12.5q-31 -17 -62.5 -42t-60.5 -56q-5 -5 -13 -10t-18 -5t-16 5t-9 10q-16 31 -37.5 56t-44.5 42q-13 10 -13 23q0 11 8.5 19.5t21.5 8.5q8 0 13.5 -2.5t10.5 -5.5l62 -43q5 -4 11 -6.5t11 -2.5q6 0 13 3t13 6l80 43q5 3 12.5 5.5t15.5 2.5
q12 0 19 -6t7 -15z" />
    <glyph glyph-name="uni0312" unicode="&#x312;" 
d="M24 730q0 -8 -5 -13t-13 -9t-17.5 -9.5t-18.5 -12t-15 -14.5t-6 -17q0 -6 2.5 -10t6 -8t6 -8.5t2.5 -11.5q0 -20 -20 -30.5t-51 -10.5q-33 0 -47 14.5t-14 33.5q0 25 15.5 47.5t40 39t54.5 26t58 9.5q22 0 22 -16z" />
    <glyph glyph-name="uni0313" unicode="&#x313;" 
d="M-189 -101q0 -26 -15.5 -48t-40 -39t-54.5 -26.5t-58 -9.5q-22 0 -22 16q0 8 5 13.5t13 9.5q7 4 17 9t19 11.5t15 14.5t6 17q0 6 -2.5 10.5t-6 8.5t-6 8.5t-2.5 11.5q0 20 20 30.5t51 10.5q33 0 47 -14.5t14 -33.5z" />
    <glyph glyph-name="uni0315" unicode="&#x315;" 
d="M70 700q0 -8 -4 -18l-51 -108q-4 -8 -8.5 -11t-11.5 -3h-36q-15 0 -15 14q0 4 1 9l22 106q5 21 22 30t37 9q44 0 44 -28z" />
    <glyph glyph-name="uni0326" unicode="&#x326;" 
d="M-189 -101q0 -26 -15.5 -48t-40 -39t-54.5 -26.5t-58 -9.5q-22 0 -22 16q0 8 5 13.5t13 9.5q7 4 17 9t19 11.5t15 14.5t6 17q0 6 -2.5 10.5t-6 8.5t-6 8.5t-2.5 11.5q0 20 20 30.5t51 10.5q33 0 47 -14.5t14 -33.5z" />
    <glyph glyph-name="uni0327" unicode="&#x327;" 
d="M-87 -132q0 -24 -13.5 -43t-37 -32.5t-56 -21t-70.5 -7.5q-20 0 -40 2.5t-36 8t-25.5 13t-9.5 17.5q0 14 9 20t21 6q10 0 18 -1.5t17 -4t20.5 -4t29.5 -1.5q34 0 55 12.5t21 30.5q0 14 -18.5 24t-63.5 10q-8 0 -13 4.5t-5 10.5q0 5 7 16l51 75h76l-47 -64q57 -1 83.5 -21
t26.5 -50z" />
    <glyph glyph-name="uni0328" unicode="&#x328;" 
d="M-51 -183q0 -13 -13 -23t-33.5 -16.5t-44.5 -10t-46 -3.5q-26 0 -49 4.5t-40 13.5t-27 22.5t-10 31.5q0 23 14 43t34 36.5t43 29t41 20.5h93q-13 -6 -34 -17t-41 -25t-34.5 -30.5t-14.5 -33.5q0 -33 53 -33q30 0 49.5 6.5t36.5 6.5q11 0 17 -6.5t6 -15.5z" />
    <glyph glyph-name="uni0335" unicode="&#x335;" 
d="M90 278q0 -4 -1 -9l-6 -29q-2 -7 -8 -12.5t-15 -5.5h-249q-19 0 -19 19q0 2 2 12l6 26q2 7 8 12.5t15 5.5h248q19 0 19 -19z" />
    <glyph glyph-name="uni0336" unicode="&#x336;" 
d="M-24 289q0 -2 -2 -12l-11 -48q-2 -7 -8 -12.5t-15 -5.5h-648q-18 0 -18 19q0 4 1 9l11 50q2 7 8 12.5t15 5.5h648q19 0 19 -18z" />
    <glyph glyph-name="uni0394" unicode="&#x394;" horiz-adv-x="661" 
d="M604 21q0 -10 -6.5 -15.5t-15.5 -5.5h-595q-19 0 -19 17q0 4 2.5 10t5.5 11l367 648q6 11 12.5 15.5t18.5 4.5h115q20 0 23 -20l91 -652q1 -4 1 -8v-5zM405 448q-3 36 -3 72q0 17 0.5 34.5t1.5 34.5h-2q-13 -36 -27.5 -71.5t-32.5 -69.5l-190 -357h290z" />
    <glyph glyph-name="uni03A9" unicode="&#x3a9;" horiz-adv-x="731" 
d="M721 484q0 -60 -17 -111.5t-46 -97t-66.5 -87t-77.5 -81.5v-2h128q18 0 18 -19q0 -4 -1 -9l-12 -59q-2 -8 -8 -13t-15 -5h-245q-18 0 -18 19q0 5 1 10l12 52q2 5 3.5 11t5.5 11q35 47 67 94t56 94.5t38 96.5t14 99q0 63 -27.5 99.5t-83.5 36.5q-34 0 -62 -15t-51 -40
t-40.5 -57.5t-29 -68t-17.5 -71.5t-6 -68q0 -51 11 -99t31 -99q2 -5 2 -8v-6q0 -6 -1 -11l-13 -59q-5 -21 -26 -21h-232q-19 0 -19 19q0 5 1 10l13 58q2 7 7.5 12.5t15.5 5.5h130v2q-31 53 -52 115.5t-21 132.5q0 66 24 131.5t71.5 118t118.5 85t166 32.5q60 0 107.5 -17.5
t79.5 -49t49 -75t17 -96.5z" />
    <glyph glyph-name="uni03BC" unicode="&#x3bc;" horiz-adv-x="565" 
d="M561 499q0 -4 -1 -8l-84 -399q-5 -26 -17.5 -42t-35.5 -29q-35 -19 -73.5 -25t-78.5 -6q-11 0 -26 2t-30 6.5t-28.5 10.5t-21.5 14l-51 -240q-2 -8 -8.5 -13t-14.5 -5h-105q-19 0 -19 19q0 3 1 8l151 708q2 8 8.5 13t14.5 5h104q19 0 19 -19q0 -4 -1 -8l-73 -342
q-1 -5 -1.5 -10t-0.5 -10q0 -29 18.5 -40.5t44.5 -11.5q29 0 53.5 11t31.5 43l78 369q2 8 8.5 13t14.5 5h105q18 0 18 -19z" />
    <glyph glyph-name="pi" unicode="&#x3c0;" horiz-adv-x="692" 
d="M703 499q0 -3 -1 -8l-7 -35q-2 -7 -8 -12.5t-15 -5.5h-70l-64 -303q-3 -15 -3 -27q0 -26 13 -35t32 -9q6 0 10.5 1t9.5 1q11 0 17.5 -7t6.5 -17q0 -13 -9 -23.5t-24.5 -17.5t-35.5 -10.5t-42 -3.5q-19 0 -41.5 5t-41.5 17.5t-31.5 33.5t-12.5 53q0 10 1.5 20.5t3.5 22.5
l64 299h-152l-90 -420q-2 -7 -8 -12.5t-15 -5.5h-104q-19 0 -19 19q0 4 1 8l88 411h-60q-19 0 -19 19q0 4 1 8l8 35q2 7 7.5 12.5t14.5 5.5h576q19 0 19 -19z" />
    <glyph glyph-name="Wgrave" unicode="&#x1e80;" horiz-adv-x="917" 
d="M993 688q0 -7 -4 -16l-323 -655q-4 -8 -10 -12.5t-18 -4.5h-84q-22 0 -24 22l-19 348q-1 9 -1 18v19q0 32 1 50t2 31h-2q-10 -29 -22.5 -61t-24.5 -57l-170 -352q-5 -9 -11 -13.5t-18 -4.5h-84q-22 0 -24 22l-42 643q-1 8 -1 11v9q0 21 22 21h113q22 0 22 -22l4 -382
q0 -35 -2 -63t-4 -46h2q3 9 8 22.5t11 28.5t12.5 30t12.5 28l185 386q5 9 10.5 13.5t16.5 4.5h68q12 0 17 -5.5t6 -16.5l18 -382q0 -5 0.5 -12.5t0.5 -16.5t-0.5 -21t-1 -23t-1 -20.5t-0.5 -15.5h2q8 25 18.5 54t21.5 55l170 385q5 10 10.5 14.5t16.5 4.5h101q10 0 14.5 -5
t4.5 -13zM628 779q0 -6 -4.5 -10t-10.5 -4h-42q-14 0 -26 14l-86 102q-6 6 -6 13q0 11 15.5 18t42.5 7q25 0 46.5 -7.5t28.5 -24.5q2 -5 8.5 -21t14 -34.5t13.5 -34t6 -18.5z" />
    <glyph glyph-name="wgrave" unicode="&#x1e81;" horiz-adv-x="789" 
d="M823 500q0 -4 -4 -14l-235 -467q-5 -11 -11.5 -15t-18.5 -4h-94q-22 0 -24 22q-7 79 -14 156.5t-7 156.5h-2q-9 -27 -20 -54t-25 -53l-108 -209q-5 -11 -11.5 -15t-18.5 -4h-95q-22 0 -23 22l-36 457q-1 8 -1 11v7q0 11 6.5 16t16.5 5h99q23 0 23 -22l4 -259
q0 -18 -0.5 -42.5t-4.5 -58.5h2q9 26 21.5 55t21.5 46l134 263q9 18 29 18h63q22 0 24 -23l20 -258q1 -11 1 -23v-50q0 -14 -1 -28h2q4 12 9 26.5t10.5 28.5t10.5 26.5t8 19.5l118 263q8 18 28 18h83q20 0 20 -18zM517 592q0 -6 -4.5 -10t-10.5 -4h-42q-14 0 -26 14l-86 102
q-6 6 -6 13q0 8 7 13t16.5 7.5t19 3.5t15.5 1q9 0 20.5 -1.5t22.5 -5t19.5 -9.5t12.5 -16q2 -5 8.5 -21t14 -34t13.5 -33.5t6 -19.5z" />
    <glyph glyph-name="Wacute" unicode="&#x1e82;" horiz-adv-x="917" 
d="M993 688q0 -7 -4 -16l-323 -655q-4 -8 -10 -12.5t-18 -4.5h-84q-22 0 -24 22l-19 348q-1 9 -1 18v19q0 32 1 50t2 31h-2q-10 -29 -22.5 -61t-24.5 -57l-170 -352q-5 -9 -11 -13.5t-18 -4.5h-84q-22 0 -24 22l-42 643q-1 8 -1 11v9q0 21 22 21h113q22 0 22 -22l4 -382
q0 -35 -2 -63t-4 -46h2q3 9 8 22.5t11 28.5t12.5 30t12.5 28l185 386q5 9 10.5 13.5t16.5 4.5h68q12 0 17 -5.5t6 -16.5l18 -382q0 -5 0.5 -12.5t0.5 -16.5t-0.5 -21t-1 -23t-1 -20.5t-0.5 -15.5h2q8 25 18.5 54t21.5 55l170 385q5 10 10.5 14.5t16.5 4.5h101q10 0 14.5 -5
t4.5 -13zM760 897q0 -9 -8 -15l-136 -107q-13 -10 -27 -10h-44q-13 0 -13 12q0 5 6 13l80 97q12 15 35 23.5t58 8.5q21 0 35 -6t14 -16z" />
    <glyph glyph-name="wacute" unicode="&#x1e83;" horiz-adv-x="789" 
d="M823 500q0 -4 -4 -14l-235 -467q-5 -11 -11.5 -15t-18.5 -4h-94q-22 0 -24 22q-7 79 -14 156.5t-7 156.5h-2q-9 -27 -20 -54t-25 -53l-108 -209q-5 -11 -11.5 -15t-18.5 -4h-95q-22 0 -23 22l-36 457q-1 8 -1 11v7q0 11 6.5 16t16.5 5h99q23 0 23 -22l4 -259
q0 -18 -0.5 -42.5t-4.5 -58.5h2q9 26 21.5 55t21.5 46l134 263q9 18 29 18h63q22 0 24 -23l20 -258q1 -11 1 -23v-50q0 -14 -1 -28h2q4 12 9 26.5t10.5 28.5t10.5 26.5t8 19.5l118 263q8 18 28 18h83q20 0 20 -18zM661 710q0 -9 -8 -15l-136 -107q-11 -10 -27 -10h-44
q-13 0 -13 12q0 5 6 13l80 97q17 20 42.5 26t50.5 6q6 0 14 -1t16 -3.5t13.5 -6.5t5.5 -11z" />
    <glyph glyph-name="Wdieresis" unicode="&#x1e84;" horiz-adv-x="917" 
d="M993 688q0 -7 -4 -16l-323 -655q-4 -8 -10 -12.5t-18 -4.5h-84q-22 0 -24 22l-19 348q-1 9 -1 18v19q0 32 1 50t2 31h-2q-10 -29 -22.5 -61t-24.5 -57l-170 -352q-5 -9 -11 -13.5t-18 -4.5h-84q-22 0 -24 22l-42 643q-1 8 -1 11v9q0 21 22 21h113q22 0 22 -22l4 -382
q0 -35 -2 -63t-4 -46h2q3 9 8 22.5t11 28.5t12.5 30t12.5 28l185 386q5 9 10.5 13.5t16.5 4.5h68q12 0 17 -5.5t6 -16.5l18 -382q0 -5 0.5 -12.5t0.5 -16.5t-0.5 -21t-1 -23t-1 -20.5t-0.5 -15.5h2q8 25 18.5 54t21.5 55l170 385q5 10 10.5 14.5t16.5 4.5h101q10 0 14.5 -5
t4.5 -13zM748 833q0 -15 -6 -27.5t-16.5 -21.5t-24 -14t-27.5 -5q-23 0 -38.5 15.5t-15.5 36.5q0 15 6 27.5t16.5 21.5t24 14.5t27.5 5.5q23 0 38.5 -16t15.5 -37zM562 833q0 -15 -6 -27.5t-16.5 -21.5t-24 -14t-27.5 -5q-23 0 -38.5 15.5t-15.5 36.5q0 15 6 27.5t16.5 21.5
t24 14.5t27.5 5.5q23 0 38.5 -16t15.5 -37z" />
    <glyph glyph-name="wdieresis" unicode="&#x1e85;" horiz-adv-x="789" 
d="M823 500q0 -4 -4 -14l-235 -467q-5 -11 -11.5 -15t-18.5 -4h-94q-22 0 -24 22q-7 79 -14 156.5t-7 156.5h-2q-9 -27 -20 -54t-25 -53l-108 -209q-5 -11 -11.5 -15t-18.5 -4h-95q-22 0 -23 22l-36 457q-1 8 -1 11v7q0 11 6.5 16t16.5 5h99q23 0 23 -22l4 -259
q0 -18 -0.5 -42.5t-4.5 -58.5h2q9 26 21.5 55t21.5 46l134 263q9 18 29 18h63q22 0 24 -23l20 -258q1 -11 1 -23v-50q0 -14 -1 -28h2q4 12 9 26.5t10.5 28.5t10.5 26.5t8 19.5l118 263q8 18 28 18h83q20 0 20 -18zM642 646q0 -15 -6 -27.5t-16.5 -21.5t-24 -14t-27.5 -5
q-23 0 -38.5 15.5t-15.5 36.5q0 15 6 27.5t16.5 21.5t24 14.5t27.5 5.5q23 0 38.5 -16t15.5 -37zM456 646q0 -15 -6 -27.5t-16.5 -21.5t-24 -14t-27.5 -5q-23 0 -38.5 15.5t-15.5 36.5q0 15 6 27.5t16.5 21.5t24 14.5t27.5 5.5q23 0 38.5 -16t15.5 -37z" />
    <glyph glyph-name="uni1E8A" unicode="&#x1e8a;" horiz-adv-x="612" 
d="M673 688q0 -5 -3 -10.5t-5 -7.5l-252 -298l137 -336q2 -4 3.5 -8t1.5 -9q0 -9 -6.5 -14t-14.5 -5h-127q-22 0 -29 19l-75 218h-2l-173 -222q-12 -15 -31 -15h-110q-20 0 -20 20q0 5 2.5 9.5t5.5 8.5l279 323l-124 309q-2 4 -3 7.5t-1 8.5q0 10 7 15t16 5h120q20 0 27 -19
l68 -194h2l154 197q12 16 31 16h102q20 0 20 -18zM502 839q0 -15 -6.5 -28t-17.5 -22.5t-24.5 -14.5t-28.5 -5q-25 0 -41.5 15.5t-16.5 36.5q0 15 6.5 28t17.5 22.5t25 14.5t28 5q25 0 41.5 -15.5t16.5 -36.5z" />
    <glyph glyph-name="uni1E8B" unicode="&#x1e8b;" horiz-adv-x="506" 
d="M540 501q0 -5 -3.5 -10.5t-6.5 -9.5l-197 -212l112 -231q5 -8 5 -17q0 -21 -22 -21h-109q-13 0 -19.5 4t-11.5 16l-53 138h-2l-120 -143q-12 -15 -32 -15h-94q-9 0 -15.5 4.5t-6.5 14.5q0 7 8 15l213 226l-107 223q-4 10 -4 15q0 11 7 15.5t17 4.5h102q13 0 19 -4t11 -16
l52 -131h2l115 136q12 15 32 15h89q19 0 19 -17zM409 652q0 -15 -6.5 -28t-17.5 -22.5t-24.5 -14.5t-28.5 -5q-25 0 -41.5 15.5t-16.5 36.5q0 15 6.5 28t17.5 22.5t25 14.5t28 5q25 0 41.5 -15.5t16.5 -36.5z" />
    <glyph glyph-name="Ygrave" unicode="&#x1ef2;" horiz-adv-x="582" 
d="M665 688q0 -8 -6 -16l-271 -354l-63 -300q-2 -8 -8.5 -13t-14.5 -5h-117q-18 0 -18 19q0 3 1 8l61 291l-119 356q-2 8 -2 12q0 20 22 20h120q20 0 26 -20l62 -241h2l176 246q11 15 28 15h101q20 0 20 -18zM467 779q0 -6 -4.5 -10t-10.5 -4h-42q-14 0 -26 14l-86 102
q-6 6 -6 13q0 11 15.5 18t42.5 7q25 0 46.5 -7.5t28.5 -24.5q2 -5 8.5 -21t14 -34.5t13.5 -34t6 -18.5z" />
    <glyph glyph-name="ygrave" unicode="&#x1ef3;" horiz-adv-x="529" 
d="M568 501q0 -4 -1.5 -8t-3.5 -7l-310 -556q-20 -36 -43 -67.5t-51 -55t-62.5 -37t-79.5 -13.5q-16 0 -33 3.5t-31.5 11t-23.5 20.5t-9 33q0 29 18.5 45t46.5 16q12 0 21 -2.5t16.5 -6t14 -6t15.5 -2.5q18 0 33 12t27.5 28.5t22 34.5t17.5 31l-78 504q-1 5 -1.5 9t-0.5 9
q0 11 6.5 16t16.5 5h105q22 0 24 -21l26 -271q1 -11 1.5 -23t0.5 -23q0 -33 -3 -64h2q8 27 18.5 55.5t23.5 54.5l138 273q6 11 12 15t17 4h88q20 0 20 -17zM391 592q0 -6 -4.5 -10t-10.5 -4h-42q-14 0 -26 14l-86 102q-6 6 -6 13q0 8 7 13t16.5 7.5t19 3.5t15.5 1
q9 0 20.5 -1.5t22.5 -5t19.5 -9.5t12.5 -16q2 -5 8.5 -21t14 -34t13.5 -33.5t6 -19.5z" />
    <glyph glyph-name="uni2007" unicode="&#x2007;" horiz-adv-x="556" 
 />
    <glyph glyph-name="uni2008" unicode="&#x2008;" horiz-adv-x="280" 
 />
    <glyph glyph-name="uni200B" unicode="&#x200b;" horiz-adv-x="0" 
 />
    <glyph glyph-name="endash" unicode="&#x2013;" horiz-adv-x="391" 
d="M434 326q0 -2 -2 -8l-11 -48q-2 -7 -8 -12.5t-15 -5.5h-394q-19 0 -19 19q0 3 2 11l11 48q2 7 8 12.5t15 5.5h394q19 0 19 -18v-4z" />
    <glyph glyph-name="emdash" unicode="&#x2014;" horiz-adv-x="783" 
d="M758 330q0 -2 -2 -12l-11 -48q-2 -7 -8 -12.5t-15 -5.5h-648q-18 0 -18 19q0 4 1 9l11 50q2 7 8 12.5t15 5.5h648q19 0 19 -18z" />
    <glyph glyph-name="quoteleft" unicode="&#x2018;" horiz-adv-x="266" 
d="M316 695q0 -9 -5 -16t-13 -14q-11 -9 -22 -20.5t-20 -25t-14.5 -28t-5.5 -29.5q0 -12 4.5 -20.5t10.5 -17.5t10.5 -19.5t4.5 -26.5q0 -30 -22 -51t-58 -21q-34 0 -53 21.5t-19 53.5q0 43 18 85t45 75.5t57.5 54.5t55.5 21q12 0 19 -6.5t7 -15.5z" />
    </font>
</defs>
</svg>
