<?xml version="1.0" standalone="no"?>
<!DOCTYPE svg PUBLIC "-//W3C//DTD SVG 1.1//EN" "http://www.w3.org/Graphics/SVG/1.1/DTD/svg11.dtd" >
<svg xmlns="http://www.w3.org/2000/svg" xmlns:xlink="http://www.w3.org/1999/xlink" version="1.1">
<metadata>
Created by FontForge 20170731 at Tue Apr 24 19:59:49 2012
 By ,,,
2010 Hans Reichel published by FSI FontShop International GmbH
</metadata>
<defs>
<font id="Kzfcffdszjmrwfepeodfjonsetz" horiz-adv-x="1" >
  <font-face 
    font-family="Kzfcffdszjmrwfepeodfjonsetz"
    font-weight="400"
    font-style="italic"
    font-stretch="normal"
    units-per-em="1000"
    panose-1="2 11 6 4 4 1 1 2 1 2"
    ascent="753"
    descent="-247"
    x-height="518"
    cap-height="706"
    bbox="-715 -294 1263 998"
    underline-thickness="70"
    underline-position="-280"
    slope="-12"
    unicode-range="U+0020-FB02"
  />
<missing-glyph horiz-adv-x="620" 
d="M74 0v706h472v-706h-472zM471 638h-322v-570h322v570z" />
    <glyph glyph-name="fi" unicode="fi" horiz-adv-x="597" 
d="M428 731q0 -20 -12.5 -33.5t-35.5 -13.5q-12 0 -20.5 3t-20.5 3q-18 0 -32 -11.5t-23.5 -31t-14.5 -44.5t-5 -52q0 -21 3 -33h83q16 0 16 -16q0 -2 -1 -7l-6 -26q-2 -6 -6.5 -10.5t-12.5 -4.5h-81l-94 -439q-2 -6 -6.5 -10.5t-12.5 -4.5h-77q-16 0 -16 16v3q0 1 1 6
l91 429h-53q-16 0 -16 17v2q0 1 1 6l6 24q2 6 6.5 10.5t12.5 4.5h57q17 80 42.5 130t54.5 77.5t59 37.5t57 10q29 0 42.5 -13t13.5 -29zM577 502q0 -3 -1 -8l-102 -479q-2 -6 -6.5 -10.5t-12.5 -4.5h-77q-17 0 -17 16v2q0 1 1 6l102 479q2 6 6.5 10.5t12.5 4.5h78
q16 0 16 -16zM621 667q0 -25 -21 -43.5t-54 -18.5q-26 0 -42 14t-16 33q0 26 21.5 43.5t53.5 17.5q26 0 42 -13.5t16 -32.5z" />
    <glyph glyph-name="fl" unicode="fl" horiz-adv-x="615" 
d="M428 731q0 -20 -12.5 -33.5t-35.5 -13.5q-12 0 -20.5 3t-20.5 3q-18 0 -32 -11.5t-23.5 -31t-14.5 -44.5t-5 -52q0 -21 3 -33h83q16 0 16 -16q0 -2 -1 -7l-6 -26q-2 -6 -6.5 -10.5t-12.5 -4.5h-81l-94 -439q-2 -6 -6.5 -10.5t-12.5 -4.5h-77q-16 0 -16 16v3q0 1 1 6
l91 429h-53q-16 0 -16 17v2q0 1 1 6l6 24q2 6 6.5 10.5t12.5 4.5h57q17 80 42.5 130t54.5 77.5t59 37.5t57 10q29 0 42.5 -13t13.5 -29zM649 749q0 -3 -1 -8l-154 -726q-2 -6 -6.5 -10.5t-12.5 -4.5h-77q-17 0 -17 16q0 3 1 7l154 727q2 6 6.5 10.5t12.5 4.5h77q17 0 17 -16
z" />
    <glyph glyph-name=".notdef" horiz-adv-x="620" 
d="M74 0v706h472v-706h-472zM471 638h-322v-570h322v570z" />
    <glyph glyph-name=".null" horiz-adv-x="0" 
 />
    <glyph glyph-name="nonmarkingreturn" horiz-adv-x="277" 
 />
    <glyph glyph-name="space" unicode=" " horiz-adv-x="277" 
 />
    <glyph glyph-name="exclam" unicode="!" horiz-adv-x="363" 
d="M342 686q0 -2 -2 -7l-117 -431q-2 -5 -7 -9.5t-13 -4.5h-49q-6 0 -10.5 4.5t-4.5 10.5v3q0 2 1 7l66 430q3 17 19 17h102q8 0 11.5 -4.5t3.5 -10.5v-5zM218 77q0 -18 -7.5 -33.5t-19.5 -27t-28 -18t-33 -6.5q-26 0 -44.5 18.5t-18.5 43.5q0 18 7 33.5t19 27t27.5 18.5
t33.5 7q26 0 45 -19t19 -44z" />
    <glyph glyph-name="quotedbl" unicode="&#x22;" horiz-adv-x="454" 
d="M489 713q0 -3 -1 -7t-2 -7l-73 -237q-3 -11 -15 -11h-40q-12 0 -12 11q0 3 2 22t5 45t6 55.5t6 55.5t5 43t3 19q2 20 22 33.5t45 13.5q23 0 36 -11t13 -25zM278 713q0 -5 -3 -14l-73 -237q-3 -11 -15 -11h-40q-12 0 -12 11q0 5 2.5 24.5t5 45.5t6 55.5t6 54.5t4.5 41.5
t3 18.5q2 19 21.5 33t45.5 14q22 0 35.5 -10.5t13.5 -25.5z" />
    <glyph glyph-name="numbersign" unicode="#" horiz-adv-x="661" 
d="M663 495q0 -1 -2 -11l-7 -31q-4 -14 -19 -14h-102l-55 -158h92q13 0 13 -13v-4q0 -2 -2 -7l-7 -31q-4 -14 -19 -14h-102l-70 -198q-5 -14 -19 -14h-46q-14 0 -14 13q0 3 3 12l66 187h-142l-70 -198q-5 -14 -19 -14h-46q-14 0 -14 13q0 3 3 12l66 187h-91q-13 0 -13 14
q0 4 1 9l7 32q3 14 19 14h102l55 158h-91q-13 0 -13 14v3q0 1 1 6l7 32q3 14 19 14h102l64 184q5 14 19 14h47q14 0 14 -13q0 -4 -3 -11l-61 -174h142l64 184q5 14 19 14h48q13 0 13 -13q0 -2 -3 -11l-61 -174h91q14 0 14 -13zM311 439l-55 -158h142l55 158h-142z" />
    <glyph glyph-name="dollar" unicode="$" horiz-adv-x="571" 
d="M573 590q0 -24 -12 -39.5t-38 -15.5q-36 0 -45 39q-8 32 -24.5 53.5t-58.5 28.5l-54 -251q30 -12 61 -26.5t56 -34t40.5 -47t15.5 -66.5q0 -51 -18.5 -94.5t-52.5 -76t-82 -51.5t-108 -22l-18 -85q-4 -19 -25 -19q-16 0 -16 14v3q0 1 1 6l17 81q-46 3 -81 18.5
t-58.5 37.5t-35.5 48t-12 49q0 27 14.5 44.5t41.5 17.5q40 0 48 -43q3 -18 9.5 -35t17.5 -30.5t28.5 -23t42.5 -12.5l56 266q-30 12 -60 26t-54 32.5t-39 44t-15 61.5q0 45 16.5 86.5t49 73t79.5 51t107 21.5l17 78q4 19 24 19q8 0 12.5 -4.5t4.5 -9.5v-3q0 -1 -1 -6
l-16 -76q46 -4 77.5 -18.5t51 -33.5t28 -39.5t8.5 -36.5zM412 200q0 21 -7 37t-19.5 28.5t-29 23t-35.5 19.5l-54 -253q34 3 60.5 16t45.5 32.5t29 44.5t10 52zM354 659q-33 -2 -59.5 -14.5t-44.5 -32t-28 -43.5t-10 -49q0 -19 7.5 -33.5t20 -26.5t29 -21.5t35.5 -18.5z" />
    <glyph glyph-name="percent" unicode="%" horiz-adv-x="935" 
d="M877 308q0 -57 -15 -114.5t-42.5 -103t-66 -74t-84.5 -28.5q-49 0 -82.5 37t-33.5 112q0 57 15 114t42.5 102.5t65.5 74t85 28.5q49 0 82.5 -37t33.5 -111zM772 694q0 -6 -7 -16l-493 -665q-9 -13 -25 -13h-27q-13 0 -13 13q0 6 7 15l493 665q5 7 10.5 10t14.5 3h27
q13 0 13 -12zM428 569q0 -57 -15 -114t-42.5 -102.5t-66 -74t-84.5 -28.5q-49 0 -82.5 37t-33.5 112q0 57 15 114t43 102.5t66 74t85 28.5q49 0 82 -37.5t33 -111.5zM800 320q0 84 -46 84q-17 0 -33.5 -11.5t-31.5 -37.5q-12 -21 -23 -50t-18.5 -60.5t-12 -63t-4.5 -57.5
q0 -79 45 -79q19 0 38 15t36 49q10 19 19 46.5t16 56.5t11 57.5t4 50.5zM352 582q0 84 -46 84q-17 0 -34 -11.5t-32 -37.5q-12 -21 -23 -50t-18.5 -60.5t-12 -63.5t-4.5 -58q0 -78 46 -78q19 0 38 15t36 49q10 19 19 46.5t16 56.5t11 57.5t4 50.5z" />
    <glyph glyph-name="ampersand" unicode="&#x26;" horiz-adv-x="756" 
d="M731 328q0 -25 -17.5 -39t-46.5 -14q-9 0 -19 1t-19 1q-18 0 -35 -6.5t-32 -17t-28.5 -23.5t-24.5 -26l119 -173q4 -6 4 -11q0 -8 -5.5 -14t-14.5 -6h-79q-8 0 -12.5 3.5t-9.5 9.5l-71 105q-21 -26 -44.5 -49.5t-52.5 -42t-64 -29.5t-79 -11q-35 0 -64.5 12.5t-51.5 33
t-34.5 48t-12.5 57.5q0 49 18.5 87t49.5 68t71 53.5t82 43.5q-20 31 -36 64t-16 73q0 42 16 78t45.5 61.5t71 40t92.5 14.5q80 0 126 -35t46 -87q0 -41 -18 -72.5t-48 -57.5t-68.5 -48t-79.5 -42l85 -123q22 23 45 44t48 37t51.5 25.5t55.5 9.5q27 0 42 -13t15 -30zM508 590
q0 32 -21.5 51.5t-63.5 19.5q-23 0 -45 -8.5t-38.5 -24t-26.5 -37t-10 -46.5q0 -31 15 -58.5t33 -53.5q33 16 61.5 32t49.5 35t33.5 41t12.5 49zM296 332q-31 -17 -58.5 -34.5t-47.5 -38.5t-32 -45.5t-12 -53.5q0 -35 25 -60t68 -25q44 0 83.5 30t78.5 71z" />
    <glyph glyph-name="quotesingle" unicode="'" horiz-adv-x="243" 
d="M278 713q0 -3 -1 -7t-2 -7l-73 -237q-3 -11 -15 -11h-40q-12 0 -12 11q0 5 2 24.5t5 45.5t6 55.5t6 54.5t5 41.5t3 18.5q2 18 21 32.5t46 14.5q21 0 35 -10t14 -26z" />
    <glyph glyph-name="parenleft" unicode="(" horiz-adv-x="354" 
d="M443 793q0 -15 -14 -30q-62 -68 -111 -147.5t-82.5 -165t-51 -175t-17.5 -177.5q0 -86 11.5 -158t36.5 -136q5 -14 7 -21.5t2 -12.5q0 -13 -7.5 -21t-21.5 -8q-23 0 -39 28q-46 78 -74 169t-28 205q0 96 22.5 187.5t63 174t98 155t128.5 132.5q17 14 29 19.5t23 5.5
t18 -6.5t7 -17.5z" />
    <glyph glyph-name="parenright" unicode=")" horiz-adv-x="354" 
d="M313 415q0 -96 -22.5 -187.5t-63 -174t-98.5 -155t-128 -132.5q-17 -14 -29 -19.5t-23 -5.5t-17.5 7t-6.5 18q0 8 2.5 14.5t10.5 14.5q62 68 111 147.5t82.5 165t51 175t17.5 177.5q0 86 -11.5 158t-36.5 136q-4 11 -6 18.5t-2 15.5q0 13 7 21t21 8q23 0 39 -28
q46 -78 74 -169t28 -205z" />
    <glyph glyph-name="asterisk" unicode="*" horiz-adv-x="563" 
d="M602 665q0 -13 -6 -24.5t-20 -14.5l-177 -44l80 -129q4 -6 4 -13q0 -8 -5.5 -16t-13.5 -14.5t-17 -10.5t-17 -4q-14 0 -19 11l-63 145l-123 -145q-9 -11 -23 -11t-28.5 11t-14.5 25q0 11 10 21l138 133l-158 44q-14 5 -14 20q0 7 3 16.5t8.5 17t13 13t16.5 5.5q7 0 15 -3
l145 -61l26 172q2 17 16.5 23.5t28.5 6.5q13 0 23.5 -5.5t10.5 -16.5q0 -5 -3 -15l-46 -165l171 62q2 1 6 2t8 1q11 0 18 -10t7 -27z" />
    <glyph glyph-name="plus" unicode="+" horiz-adv-x="556" 
d="M524 320q0 -1 -1 -6l-8 -38q-2 -6 -6.5 -10.5t-12.5 -4.5h-174l-38 -179q-2 -6 -6.5 -11t-12.5 -5h-45q-16 0 -16 17v2q0 2 1 7l36 169h-169q-16 0 -16 16v3q0 1 1 6l9 37q2 6 6.5 11t12.5 5h172l38 175q2 6 6.5 10.5t12.5 4.5h45q16 0 16 -16q0 -4 -1 -9l-36 -165h169
q17 0 17 -17v-2z" />
    <glyph glyph-name="comma" unicode="," horiz-adv-x="277" 
d="M172 70q0 -40 -17.5 -79.5t-43 -70.5t-54.5 -50.5t-53 -19.5q-10 0 -15.5 5t-5.5 12q0 14 15 27q10 9 21 20t20 24t15 27t6 29q0 12 -4.5 20.5t-9.5 16.5t-9.5 17t-4.5 22q0 29 21.5 49.5t53.5 20.5q29 0 47 -20.5t18 -49.5z" />
    <glyph glyph-name="hyphen" unicode="-" horiz-adv-x="320" 
d="M285 319q0 -2 -2 -8l-9 -40q-2 -6 -6.5 -10.5t-12.5 -4.5h-181q-16 0 -16 16v3q0 2 1 7l9 41q2 6 6.5 11t12.5 5h181q17 0 17 -17v-3z" />
    <glyph glyph-name="period" unicode="." horiz-adv-x="277" 
d="M175 77q0 -18 -7 -33.5t-19 -27t-28 -18t-33 -6.5q-26 0 -45 18.5t-19 43.5q0 18 7 33.5t19 27t27.5 18.5t33.5 7q26 0 45 -19t19 -44z" />
    <glyph glyph-name="slash" unicode="/" horiz-adv-x="521" 
d="M590 780q0 -5 -4 -13l-557 -933q-4 -6 -7.5 -7.5t-5.5 -1.5q-4 0 -16 6l-50 27q-7 6 -7 12q0 5 4 12l556 932q4 7 8.5 8.5t6.5 1.5q5 0 15 -5l49 -27q5 -4 6.5 -7t1.5 -5z" />
    <glyph glyph-name="zero" unicode="0" horiz-adv-x="556" 
d="M545 487q0 -46 -8 -101t-25 -111t-43 -108t-61.5 -92t-81.5 -64.5t-102 -24.5q-77 0 -123 60.5t-46 172.5q0 46 8 101t25 111t43 108t61.5 92t81.5 64.5t102 24.5q77 0 123 -60.5t46 -172.5zM438 511q0 134 -76 134q-58 0 -107 -82q-20 -33 -36.5 -79t-29.5 -96.5
t-20 -99.5t-7 -88q0 -66 20.5 -99t56.5 -33q59 0 107 83q19 33 36 78.5t29.5 95.5t19.5 98.5t7 87.5z" />
    <glyph glyph-name="one" unicode="1" horiz-adv-x="556" 
d="M490 692q0 -5 -1 -10l-142 -667q-2 -6 -6.5 -10.5t-12.5 -4.5h-78q-16 0 -16 16v2q0 2 1 7l114 538q-21 -12 -47 -22.5t-51.5 -18t-47 -12t-33.5 -4.5q-14 0 -22 8.5t-8 21.5q0 29 32 37q30 8 64 20.5t67.5 28.5t65 35.5t57.5 42.5q18 15 38 15q26 0 26 -23z" />
    <glyph glyph-name="two" unicode="2" horiz-adv-x="556" 
d="M540 564q0 -35 -13 -68.5t-33 -64t-45 -58t-50 -51.5l-234 -223v-2h273q15 0 15 -14v-3q0 -1 -1 -6l-12 -58q-3 -16 -19 -16h-402q-9 0 -14.5 6t-5.5 15q0 10 10 21l322 332q17 18 33.5 37.5t29.5 41.5t21 45.5t8 49.5q0 40 -23 63.5t-68 23.5q-28 0 -51 -11t-41 -28.5
t-31 -39.5t-22 -43q-6 -15 -15.5 -21t-23.5 -6t-22.5 9t-8.5 24q0 22 15 56.5t46 66.5t78.5 55t112.5 23q46 0 78.5 -13.5t53 -35t30 -49.5t9.5 -58z" />
    <glyph glyph-name="three" unicode="3" horiz-adv-x="556" 
d="M527 587q0 -33 -12.5 -61.5t-33 -53t-47.5 -43.5t-56 -32v-2q44 -19 74.5 -56t30.5 -94q0 -41 -17 -86.5t-52.5 -83.5t-89.5 -63.5t-128 -25.5q-36 0 -68 9.5t-56 25t-38 35.5t-14 42q0 23 14.5 38.5t38.5 15.5q34 0 50 -33q11 -23 33.5 -40t59.5 -17q34 0 62 14.5t48 37
t31 51t11 56.5t-10.5 49.5t-28.5 37t-41 25.5t-48 16q-23 5 -23 25q0 21 27 30q31 10 61 23.5t54 33t38.5 45t14.5 58.5q0 35 -22.5 54t-62.5 19q-25 0 -46 -8t-38 -21.5t-30.5 -31.5t-22.5 -37q-14 -28 -40 -28q-14 0 -21 9t-7 23q0 21 14.5 51.5t44 58t74.5 47.5t105 20
q42 0 73 -11t52 -29t31.5 -42t10.5 -51z" />
    <glyph glyph-name="four" unicode="4" horiz-adv-x="556" 
d="M526 691q0 -4 -1 -9l-93 -440h69q17 0 17 -17q0 -3 -1 -8l-6 -30q-2 -6 -6.5 -10.5t-12.5 -4.5h-75l-33 -157q-2 -6 -6.5 -10.5t-12.5 -4.5h-71q-16 0 -16 14q0 3 1 8l33 150h-262q-17 0 -25 8.5t-8 21.5q0 10 5.5 19t13.5 19l391 450q15 16 32 16h50q17 0 17 -15z
M406 590q-3 -6 -10 -16t-15 -21t-16 -21.5t-14 -16.5l-231 -273h207l56 258q1 7 4.5 20t7 26.5t7.5 25.5l6 18h-2z" />
    <glyph glyph-name="five" unicode="5" horiz-adv-x="556" 
d="M547 690q0 -3 -1 -8l-12 -57q-2 -6 -6.5 -11t-12.5 -5h-260l-58 -200q19 9 47.5 16.5t58.5 7.5q41 0 75 -12t58.5 -33.5t38 -52.5t13.5 -68q0 -50 -17.5 -100.5t-53.5 -90.5t-90 -65t-127 -25q-36 0 -68 9.5t-56 25t-38 35.5t-14 42q0 23 14.5 38.5t38.5 15.5
q34 0 50 -33q11 -23 33.5 -40t60.5 -17q36 0 64.5 16t48 41t30 56t10.5 62q0 53 -33.5 84t-99.5 31q-21 0 -40 -4t-34.5 -9t-27.5 -9t-20 -4q-23 0 -23 19q0 2 0.5 4.5t2.5 10.5l96 330q4 16 21 16h315q16 0 16 -16z" />
    <glyph glyph-name="six" unicode="6" horiz-adv-x="556" 
d="M572 691q0 -27 -37 -36q-48 -11 -97 -32.5t-93.5 -55.5t-81.5 -79.5t-62 -104.5q29 20 65 33.5t81 13.5q37 0 67 -12t51 -34t32 -52.5t11 -67.5q0 -57 -19.5 -108t-55 -88.5t-85.5 -59.5t-111 -22q-47 0 -82.5 15t-59.5 41.5t-36 63.5t-12 81q0 108 43.5 204t119.5 170
q44 42 91.5 72.5t91.5 49.5t81 28t61 9q37 0 37 -29zM401 257q0 45 -23 74.5t-74 29.5q-35 0 -70 -12.5t-59 -30.5q-11 -38 -16 -73t-5 -65q0 -55 21.5 -89t73.5 -34q36 0 64 19.5t47.5 49t30 64.5t10.5 67z" />
    <glyph glyph-name="seven" unicode="7" horiz-adv-x="556" 
d="M597 686q0 -15 -14 -32q-54 -74 -110 -154.5t-109 -162.5t-101 -162.5t-86 -153.5q-5 -9 -11.5 -15t-17.5 -6h-94q-21 0 -21 20q0 3 1.5 8t7.5 13l410 568h-299q-16 0 -16 17q0 4 1 9l12 56q2 6 6.5 10.5t12.5 4.5h407q21 0 21 -20z" />
    <glyph glyph-name="eight" unicode="8" horiz-adv-x="556" 
d="M553 593q0 -38 -14.5 -69t-39 -56.5t-56.5 -47t-66 -40.5q23 -15 45 -32t39 -36.5t27.5 -43t10.5 -53.5q0 -43 -18 -84.5t-53 -74t-86 -52.5t-117 -20q-47 0 -84 12.5t-62 33.5t-38 49t-13 59q0 44 17 78t44.5 62t63.5 50.5t74 43.5q-37 27 -64 60.5t-27 81.5
q0 39 15.5 76.5t46 66.5t76.5 47t106 18q45 0 78 -11t54 -29t31 -41.5t10 -47.5zM458 583q0 38 -24 57.5t-69 19.5q-26 0 -49.5 -9.5t-41 -27t-28 -40.5t-10.5 -50q0 -37 24 -63.5t58 -49.5q29 16 54.5 33t44.5 36.5t30 42.5t11 51zM389 196q0 23 -8.5 41.5t-23 34.5
t-33.5 29.5t-39 27.5q-31 -17 -59 -35.5t-49 -39.5t-33.5 -46.5t-12.5 -56.5q0 -45 28 -70.5t79 -25.5q30 0 57 10.5t48 29t33.5 44.5t12.5 57z" />
    <glyph glyph-name="nine" unicode="9" horiz-adv-x="556" 
d="M553 518q0 -107 -43.5 -203t-119.5 -170q-44 -42 -91.5 -72.5t-91.5 -49.5t-81 -28t-61 -9q-37 0 -37 29q0 27 37 36q48 11 97 32.5t93 55.5t81.5 79.5t62.5 104.5q-29 -20 -65.5 -33.5t-80.5 -13.5q-38 0 -67.5 12.5t-50.5 34.5t-32 52.5t-11 67.5q0 57 19.5 107.5
t55 88t85.5 59.5t111 22q46 0 81.5 -15t59.5 -42t36.5 -64t12.5 -81zM447 527q0 55 -21.5 90t-73.5 35q-36 0 -64 -19.5t-47.5 -49t-30 -64.5t-10.5 -67q0 -45 23 -74.5t74 -29.5q35 0 69.5 12.5t58.5 30.5q11 38 16.5 72t5.5 64z" />
    <glyph glyph-name="colon" unicode=":" horiz-adv-x="277" 
d="M175 77q0 -18 -7 -33.5t-19 -27t-28 -18t-33 -6.5q-26 0 -45 18.5t-19 43.5q0 18 7 33.5t19 27t27.5 18.5t33.5 7q26 0 45 -19t19 -44zM236 362q0 -18 -7.5 -33.5t-19.5 -27t-28 -18t-33 -6.5q-26 0 -44.5 18.5t-18.5 43.5q0 18 7 33.5t19 27t27.5 18.5t33.5 7
q26 0 45 -19t19 -44z" />
    <glyph glyph-name="semicolon" unicode=";" horiz-adv-x="277" 
d="M172 70q0 -40 -17.5 -79.5t-43 -70.5t-54.5 -50.5t-53 -19.5q-10 0 -15.5 5t-5.5 12q0 14 15 27q10 9 21 20t20 24t15 27t6 29q0 12 -4.5 20.5t-9.5 16.5t-9.5 17t-4.5 22q0 29 21.5 49.5t53.5 20.5q29 0 47 -20.5t18 -49.5zM238 362q0 -18 -7.5 -33.5t-19.5 -27t-28 -18
t-33 -6.5q-26 0 -45 18.5t-19 43.5q0 18 7 33.5t19 27t27.5 18.5t33.5 7q26 0 45.5 -19t19.5 -44z" />
    <glyph glyph-name="less" unicode="&#x3c;" horiz-adv-x="556" 
d="M572 552q0 -4 -2 -12l-9 -42q-2 -11 -7.5 -17.5t-17.5 -11.5l-386 -173l315 -174q12 -8 12 -18v-5q0 -2 -2 -8l-10 -44q-4 -13 -17 -13q-3 0 -7 1t-11 5l-362 216q-12 9 -12 19v4q0 2 2 9l6 28q2 11 8 17t17 11l450 215q12 5 18 5t10.5 -3t4.5 -9z" />
    <glyph glyph-name="equal" unicode="=" horiz-adv-x="556" 
d="M546 429q0 -3 -1 -8l-8 -38q-2 -6 -6.5 -11t-12.5 -5h-424q-16 0 -16 17v2q0 1 1 6l9 38q2 6 6.5 10.5t12.5 4.5h422q17 0 17 -16zM501 216q0 -3 -1 -8l-8 -38q-2 -6 -6.5 -11t-12.5 -5h-424q-16 0 -16 17q0 3 1 8l9 38q2 6 6.5 10.5t12.5 4.5h422q17 0 17 -16z" />
    <glyph glyph-name="greater" unicode="&#x3e;" horiz-adv-x="556" 
d="M523 321q0 -1 -1 -6l-7 -31q-2 -11 -8 -17.5t-17 -11.5l-450 -215q-14 -6 -18 -6q-15 0 -15 13v3q0 2 2 9l9 41q2 11 8 17.5t17 11.5l386 174l-315 173q-12 6 -12 17q0 5 2 13l9 42q2 5 6.5 10.5t12.5 5.5q5 0 9.5 -1.5t7.5 -3.5l363 -217q11 -6 11 -18v-3z" />
    <glyph glyph-name="question" unicode="?" horiz-adv-x="535" 
d="M546 592q0 -33 -13 -59t-33 -48t-46 -39t-51 -32q-20 -11 -32 -20t-19.5 -19t-12 -22t-9.5 -30l-19 -73q-4 -16 -21 -16h-48q-16 0 -16 15v4q0 3 2 11l17 107q3 20 10.5 33t29.5 25t47 28.5t45 36.5t33.5 43t13.5 50q0 30 -19 47.5t-53 17.5q-23 0 -40.5 -7t-31 -19
t-24 -27t-19.5 -30q-22 -40 -57 -40q-20 0 -32.5 11.5t-12.5 30.5q0 20 16.5 46t47 49t74 39t97.5 16q43 0 76 -11t55.5 -29t33.5 -41t11 -48zM311 77q0 -18 -7.5 -33.5t-19.5 -27t-28 -18t-33 -6.5q-26 0 -44.5 18.5t-18.5 43.5q0 18 7 33.5t19 27t27.5 18.5t33.5 7
q26 0 45 -19t19 -44z" />
    <glyph glyph-name="at" unicode="@" horiz-adv-x="984" 
d="M959 446q0 -95 -36.5 -179t-99.5 -146t-149 -98t-185 -36q-106 0 -166 52t-60 144q0 71 26.5 135t72 112.5t105.5 77t126 28.5q54 0 89 -16t54 -33q8 -8 8 -17q0 -3 -0.5 -6t-2.5 -10l-152 -395q64 12 118 50t93 91.5t60.5 117.5t21.5 127q0 103 -65.5 160t-180.5 57
q-111 0 -205 -45t-162.5 -118.5t-107 -166.5t-38.5 -188q0 -68 22.5 -121t65 -90t102.5 -56.5t135 -19.5q66 0 122 11.5t102.5 29.5t82.5 39t62 40q5 4 9.5 5t6.5 1q3 0 8 -3t11 -11t8 -12.5t2 -7.5q0 -11 -8 -17q-24 -20 -63.5 -44t-93 -45t-119 -35.5t-142.5 -14.5
q-89 0 -161.5 22.5t-123.5 65.5t-79 105.5t-28 141.5q0 80 22 155.5t62.5 141t96 120t123 93.5t144 60.5t157.5 21.5q70 0 127.5 -19t98 -55t62.5 -86.5t22 -113.5zM653 447q0 5 -4 9q-9 8 -25.5 15t-44.5 7q-44 0 -85.5 -25t-73.5 -65.5t-52 -93.5t-20 -108
q0 -64 36.5 -100.5t117.5 -37.5l149 388q2 6 2 11z" />
    <glyph glyph-name="A" unicode="A" horiz-adv-x="652" 
d="M585 17q0 -17 -18 -17h-87q-17 0 -19 17l-23 193h-249l-107 -195q-9 -15 -23 -15h-75q-8 0 -12.5 5t-4.5 10q0 6 7 18l380 656q5 8 10 12.5t16 4.5h83q17 0 20 -17l100 -655q1 -8 1.5 -11.5t0.5 -5.5zM404 506q-3 23 -3.5 46.5t-0.5 40.5v24h-2q-5 -13 -17 -44t-32 -67
l-121 -224h202z" />
    <glyph glyph-name="B" unicode="B" horiz-adv-x="615" 
d="M591 569q0 -38 -13.5 -69t-37 -55t-54 -41t-64.5 -28v-2q26 -5 50 -17.5t42.5 -31.5t29.5 -44.5t11 -56.5q0 -39 -15 -80.5t-52.5 -75t-100.5 -55t-160 -21.5q-30 0 -59.5 1.5t-55 3.5t-43.5 5t-25 5q-8 2 -11.5 7.5t-3.5 11.5q0 5 2 13l135 637q2 9 7 14t16 8
q16 5 63.5 10.5t106.5 5.5q63 0 107 -11.5t71.5 -31.5t40.5 -46.5t13 -55.5zM469 559q0 40 -27.5 63.5t-88.5 23.5q-27 0 -45.5 -2t-29.5 -4l-51 -239q8 -1 22.5 -1.5t33.5 -0.5q38 0 72 11.5t59.5 32.5t40 50.5t14.5 65.5zM431 237q0 51 -38 77.5t-118 26.5q-23 0 -38 -0.5
t-23 -1.5l-57 -268q12 -2 33 -4t47 -2q54 0 91 16t60 41t33 55.5t10 59.5z" />
    <glyph glyph-name="C" unicode="C" horiz-adv-x="638" 
d="M668 578q0 -29 -15.5 -44t-41.5 -15q-22 0 -35 11t-19 31q-4 12 -10 26.5t-18 27.5t-31.5 22t-50.5 9q-57 0 -103 -35t-77.5 -89.5t-48.5 -119.5t-17 -125q0 -91 41 -146t114 -55q27 0 50 6t42.5 15.5t35 20.5t27.5 21q9 7 17 11t18 4q14 0 21 -7t7 -18q0 -18 -18.5 -43
t-51.5 -47.5t-78 -38t-99 -15.5q-65 0 -113.5 21.5t-81 58.5t-48.5 87t-16 106q0 91 29 175t81.5 148t124.5 102t159 38q54 0 93 -15t64 -37t37 -47t12 -44z" />
    <glyph glyph-name="D" unicode="D" horiz-adv-x="680" 
d="M658 450q0 -51 -9.5 -102t-28 -98t-47 -89t-66.5 -74q-57 -48 -129.5 -71.5t-171.5 -23.5q-26 0 -52 1.5t-49 3.5t-40 5t-23 5q-15 4 -15 20v4q0 2 2 8l135 637q2 9 7 14t16 8q7 2 22.5 4.5t36.5 5t47 4.5t53 2q79 0 137.5 -19t97.5 -54t58 -83.5t19 -107.5zM532 464
q0 37 -10.5 69.5t-32 56.5t-56 37.5t-82.5 13.5q-22 0 -42.5 -1.5t-29.5 -3.5l-119 -560q25 -5 70 -5q119 0 191 75q26 27 46.5 65.5t35 82t22 88t7.5 82.5z" />
    <glyph glyph-name="E" unicode="E" horiz-adv-x="499" 
d="M549 690q0 -3 -1 -8l-9 -42q-2 -6 -6 -10.5t-12 -4.5h-244l-46 -220h201q16 0 16 -16q0 -3 -1 -8l-9 -40q-2 -6 -6.5 -10.5t-12.5 -4.5h-205l-52 -244h238q17 0 17 -16q0 -2 -1 -7l-10 -44q-2 -6 -6 -10.5t-12 -4.5h-347q-16 0 -16 16q0 3 1 8l141 667q2 6 6.5 10.5
t12.5 4.5h347q16 0 16 -16z" />
    <glyph glyph-name="F" unicode="F" horiz-adv-x="483" 
d="M543 686q0 -1 -2 -8l-8 -38q-2 -6 -6.5 -10.5t-12.5 -4.5h-237l-46 -220h194q16 0 16 -16q0 -2 -1 -7l-8 -41q-2 -6 -6.5 -10.5t-12.5 -4.5h-199l-66 -311q-2 -6 -6.5 -10.5t-12.5 -4.5h-88q-16 0 -16 16q0 3 1 8l141 667q2 6 6.5 10.5t12.5 4.5h340q17 0 17 -16v-4z" />
    <glyph glyph-name="G" unicode="G" horiz-adv-x="695" 
d="M692 579q0 -26 -15 -43t-42 -17q-23 0 -36 11.5t-20 31.5q-5 13 -12 28t-20 28t-33.5 21t-52.5 8q-51 0 -96 -26.5t-80 -76.5q-20 -29 -36.5 -63.5t-27.5 -72t-17 -75.5t-6 -74q0 -89 43 -140t111 -51q60 0 93.5 19t39.5 49l35 163h-113q-17 0 -17 16q0 2 1 7l8 38
q2 6 6.5 10.5t12.5 4.5h214q17 0 17 -16v-3q0 -2 -2 -8l-54 -254q-4 -20 -23.5 -39.5t-52 -35t-77 -25t-97.5 -9.5q-59 0 -109 18.5t-87.5 54t-58.5 87t-21 117.5q0 87 28 169.5t81 147t128 103.5t170 39q57 0 98.5 -15t68 -36.5t39 -46.5t12.5 -44z" />
    <glyph glyph-name="H" unicode="H" horiz-adv-x="675" 
d="M695 690q0 -3 -1 -8l-142 -667q-2 -6 -6.5 -10.5t-12.5 -4.5h-86q-17 0 -17 16v3q0 1 1 6l64 301h-281l-66 -311q-2 -6 -6.5 -10.5t-12.5 -4.5h-86q-17 0 -17 16q0 3 1 8l141 667q2 6 6.5 10.5t12.5 4.5h88q16 0 16 -16q0 -3 -1 -8l-59 -277h281l60 286q2 6 6.5 10.5
t12.5 4.5h88q16 0 16 -16z" />
    <glyph glyph-name="I" unicode="I" horiz-adv-x="279" 
d="M295 690q0 -3 -1 -8l-142 -667q-2 -6 -6.5 -10.5t-12.5 -4.5h-88q-16 0 -16 16q0 3 1 8l142 667q2 6 6.5 10.5t12.5 4.5h88q16 0 16 -16z" />
    <glyph glyph-name="J" unicode="J" horiz-adv-x="279" 
d="M295 688q0 -1 -1 -6l-122 -570q-23 -105 -65 -173t-89 -107.5t-91.5 -54.5t-71.5 -15q-42 0 -42 27q0 23 31 35q32 12 62.5 34t57 55t47.5 77.5t33 102.5l128 598q2 6 6.5 10.5t12.5 4.5h88q16 0 16 -16v-2z" />
    <glyph glyph-name="K" unicode="K" horiz-adv-x="589" 
d="M654 691q0 -8 -8 -16l-310 -293l184 -349q4 -7 4 -15t-5.5 -13t-13.5 -5h-93q-17 0 -25 16l-146 293q-6 12 -10.5 25.5t-7.5 24.5h-2l-73 -344q-3 -15 -19 -15h-85q-17 0 -17 16q0 3 1 8l141 667q3 15 19 15h86q16 0 16 -16q0 -3 -1 -8l-61 -284h2l300 296q12 12 29 12
h78q17 0 17 -15z" />
    <glyph glyph-name="L" unicode="L" horiz-adv-x="476" 
d="M402 66q0 -2 -1 -7l-9 -44q-2 -6 -6.5 -10.5t-12.5 -4.5h-332q-16 0 -16 16v2q0 1 1 6l141 667q2 6 6.5 10.5t12.5 4.5h88q16 0 16 -16q0 -3 -1 -8l-127 -600h224q16 0 16 -16z" />
    <glyph glyph-name="M" unicode="M" horiz-adv-x="870" 
d="M851 686q0 -2 -1 -7l-78 -663q-2 -16 -21 -16h-80q-7 0 -11 4.5t-4 10.5v5q0 3 2 13l59 420q6 43 13 73t12 54h-2q-8 -17 -23.5 -51t-40.5 -76l-254 -437q-9 -16 -25 -16h-35q-16 0 -19 16l-68 437q-6 41 -7.5 76t-2.5 52h-2q-4 -19 -11 -54.5t-18 -73.5l-124 -437
q-4 -16 -21 -16h-73q-8 0 -12 4.5t-4 10.5q0 2 3 13l203 662q4 16 21 16h96q9 0 12.5 -4.5t5.5 -12.5l67 -430q2 -13 3.5 -29.5t2 -32t1 -27t0.5 -15.5h2q3 9 9 22.5t13 27.5l14 29q7 15 13 25l250 431q5 8 10.5 12t14.5 4h93q8 0 12.5 -4.5t4.5 -10.5v-5z" />
    <glyph glyph-name="N" unicode="N" horiz-adv-x="715" 
d="M734 690q0 -3 -1 -8l-141 -666q-3 -16 -21 -16h-70q-11 0 -14.5 4.5t-7.5 12.5l-202 446q-14 32 -24 66t-14 50h-2q-1 -7 -2.5 -20t-4 -30t-5.5 -36.5t-7 -37.5l-93 -439q-3 -16 -20 -16h-63q-17 0 -17 16v3q0 2 2 8l141 663q3 16 21 16h90q9 0 13.5 -4.5t8.5 -12.5
l188 -414q12 -27 22.5 -60.5t15.5 -57.5h2q2 18 7.5 55.5t13.5 75.5l85 403q3 15 20 15h63q16 0 16 -16z" />
    <glyph glyph-name="O" unicode="O" horiz-adv-x="724" 
d="M703 455q0 -91 -28 -176t-79 -150t-122.5 -104.5t-158.5 -39.5q-53 0 -98.5 18.5t-78.5 53.5t-52 85t-19 114q0 92 28.5 176.5t79.5 148.5t122 102t157 38q55 0 101 -19t79 -53.5t51 -83.5t18 -110zM577 470q0 81 -35 127.5t-98 46.5q-48 0 -87.5 -24t-71.5 -68
q-21 -29 -37.5 -66.5t-28 -78.5t-18 -82.5t-6.5 -77.5q0 -85 36 -131t96 -46q42 0 79 20t67 56q24 29 43 69t32.5 84t21 88.5t7.5 82.5z" />
    <glyph glyph-name="P" unicode="P" horiz-adv-x="570" 
d="M593 544q0 -41 -13 -86t-49 -82.5t-101.5 -62t-170.5 -24.5q-31 0 -53 3l-60 -277q-2 -6 -6.5 -10.5t-12.5 -4.5h-86q-16 0 -16 16q0 3 1 8l138 652q2 9 7 14t16 8q16 5 62.5 10.5t103.5 5.5q112 0 176 -45.5t64 -124.5zM468 543q0 47 -29.5 74t-89.5 27q-24 0 -40 -1.5
t-30 -3.5l-59 -278q8 -2 19.5 -2.5t22.5 -0.5q63 0 103.5 18.5t63 46t31 60t8.5 60.5z" />
    <glyph glyph-name="Q" unicode="Q" horiz-adv-x="724" 
d="M703 455q0 -81 -22 -156.5t-62.5 -137.5t-97 -106t-126.5 -60q3 -38 22 -67.5t46.5 -51.5t61.5 -37t68 -22q22 -5 22 -23q0 -15 -10 -22.5t-27 -7.5q-35 0 -83 13.5t-93.5 41.5t-81.5 70.5t-48 100.5q-44 6 -81.5 27t-65 55t-43 80.5t-15.5 103.5q0 92 28.5 176.5
t79.5 148.5t122 102t157 38q55 0 101 -19t79 -53.5t51 -83.5t18 -110zM577 468q0 82 -35 129t-98 47q-47 0 -87 -24t-71 -68q-21 -29 -37.5 -67t-28.5 -79t-18.5 -82.5t-6.5 -77.5q0 -85 36 -132.5t96 -47.5q51 0 94.5 29t76.5 83q18 28 32.5 64.5t25 75.5t16 77.5t5.5 72.5
z" />
    <glyph glyph-name="R" unicode="R" horiz-adv-x="591" 
d="M592 553q0 -48 -17 -85t-46.5 -65t-67.5 -47t-80 -30v-2q18 -11 35.5 -35.5t26.5 -54.5l62 -201q3 -11 3 -16q0 -17 -20 -17h-89q-19 0 -22 16l-55 213q-3 13 -9 26.5t-15 24.5t-21 18.5t-28 7.5h-41l-62 -291q-2 -6 -6.5 -10.5t-12.5 -4.5h-84q-16 0 -16 16q0 3 1 8
l138 652q2 9 7 14t16 8q16 5 60 10.5t105 5.5q59 0 103.5 -12t74.5 -34t45 -51.5t15 -63.5zM468 549q0 48 -31.5 72t-89.5 24q-28 0 -42.5 -2t-25.5 -4l-59 -275q8 -1 22 -1.5t31 -0.5q46 0 82.5 14.5t61.5 40t38 59.5t13 73z" />
    <glyph glyph-name="S" unicode="S" horiz-adv-x="562" 
d="M567 584q0 -29 -16 -43.5t-43 -14.5q-39 0 -51 41q-9 33 -29.5 56.5t-63.5 23.5q-31 0 -54.5 -11t-39.5 -29t-24 -40.5t-8 -44.5q0 -31 20 -52.5t49.5 -39t64 -34.5t64 -39.5t49.5 -54t20 -77.5q0 -45 -16.5 -88.5t-50 -77t-85.5 -54t-122 -20.5q-48 0 -86.5 15.5
t-65 39.5t-40.5 52t-14 54q0 32 17.5 47.5t44.5 15.5q44 0 55 -48q4 -16 11.5 -33t20 -30.5t30.5 -22.5t42 -9q33 0 58 12.5t41 32t24 43t8 45.5q0 34 -19.5 57.5t-48.5 42t-62.5 35.5t-62.5 38.5t-48.5 50.5t-19.5 72q0 44 17 85t49.5 72.5t81 50t111.5 18.5
q51 0 87.5 -14.5t59.5 -36t34 -45t11 -41.5z" />
    <glyph glyph-name="T" unicode="T" horiz-adv-x="525" 
d="M589 690q0 -3 -1 -8l-9 -42q-2 -6 -6.5 -10.5t-12.5 -4.5h-155l-130 -610q-2 -6 -6.5 -10.5t-12.5 -4.5h-88q-16 0 -16 16q0 3 1 8l128 601h-151q-16 0 -16 17v2q0 1 1 6l9 41q2 6 6.5 10.5t12.5 4.5h430q16 0 16 -16z" />
    <glyph glyph-name="U" unicode="U" horiz-adv-x="652" 
d="M672 690q0 -3 -1 -8l-100 -471q-12 -59 -39 -101.5t-65.5 -70.5t-86 -41t-100.5 -13q-44 0 -84 11t-70 33t-48 55t-18 77q0 14 1 27.5t4 27.5l101 475q2 6 6.5 10.5t12.5 4.5h88q16 0 16 -16q0 -3 -1 -8l-99 -466q-2 -8 -3 -17t-1 -19q0 -50 30.5 -76t81.5 -26
q59 0 105.5 36t60.5 102l101 475q2 6 6.5 10.5t12.5 4.5h73q16 0 16 -16z" />
    <glyph glyph-name="V" unicode="V" horiz-adv-x="630" 
d="M704 691q0 -3 -2 -8t-4 -9l-378 -658q-5 -8 -10.5 -12t-14.5 -4h-64q-18 0 -21 18l-99 659q-1 5 -1 7v5q0 9 6 13t14 4h90q18 0 20 -18l52 -447q3 -30 3 -60v-19q0 -9 -1 -18h2q9 25 19.5 49.5t23.5 47.5l246 448q3 7 9 12t17 5h77q16 0 16 -15z" />
    <glyph glyph-name="W" unicode="W" horiz-adv-x="914" 
d="M982 690q0 -6 -4 -14l-326 -660q-8 -16 -25 -16h-63q-18 0 -20 19l-25 414q-1 11 -1 21v22q0 18 0.5 36.5t1.5 36.5h-2q-10 -29 -21.5 -58.5t-25.5 -57.5l-202 -417q-7 -16 -25 -16h-63q-19 0 -20 18l-45 650q-1 9 -1 13v8q0 17 19 17h85q19 0 19 -18l11 -439v-19
q0 -12 -0.5 -27t-1.5 -31t-2 -29h2q5 13 11 29t12 30.5t11.5 27t8.5 19.5l213 441q7 16 25 16h55q18 0 19 -18l23 -439q0 -5 0.5 -15.5t0.5 -19.5q0 -13 -0.5 -33t-1.5 -38h2q9 27 19.5 55.5t20.5 50.5l202 441q4 8 9 12t14 4h75q8 0 12 -5t4 -11z" />
    <glyph glyph-name="X" unicode="X" horiz-adv-x="598" 
d="M643 691q0 -7 -8 -17l-251 -299l139 -343q3 -8 3.5 -10.5t0.5 -4.5q0 -7 -5 -12t-13 -5h-93q-21 0 -25 15l-90 257h-2l-203 -259q-5 -6 -11 -9.5t-17 -3.5h-81q-17 0 -17 16q0 8 9 17l284 335l-123 306q-4 10 -4 15q0 17 19 17h89q19 0 24 -15l78 -222h2l175 223
q11 14 28 14h75q17 0 17 -15z" />
    <glyph glyph-name="Y" unicode="Y" horiz-adv-x="564" 
d="M640 691q0 -6 -6 -14l-274 -352l-66 -310q-3 -15 -19 -15h-88q-16 0 -16 16v2q0 1 1 6l64 301l-125 353q-2 6 -2 11q0 17 19 17h89q18 0 23 -17l79 -267h2l202 271q9 13 26 13h73q18 0 18 -15z" />
    <glyph glyph-name="Z" unicode="Z" horiz-adv-x="534" 
d="M581 690q0 -5 -2.5 -9.5t-4.5 -8.5l-409 -590h268q16 0 16 -16v-2q0 -1 -1 -6l-9 -43q-2 -6 -6.5 -10.5t-12.5 -4.5h-418q-17 0 -17 16q0 5 2.5 9t4.5 7l413 593h-248q-16 0 -16 16v2q0 1 1 6l9 42q2 6 6 10.5t12 4.5h396q16 0 16 -16z" />
    <glyph glyph-name="bracketleft" unicode="[" horiz-adv-x="307" 
d="M408 800q0 -1 -1 -6l-4 -18q-2 -6 -6.5 -10.5t-12.5 -4.5h-108l-201 -954h103q16 0 16 -16q0 -3 -1 -7l-5 -19q-2 -6 -6 -11t-12 -5h-189q-17 0 -17 17q0 4 1 8l218 1029q2 6 6.5 11t12.5 5h189q17 0 17 -17v-2z" />
    <glyph glyph-name="backslash" unicode="\" horiz-adv-x="516" 
d="M407 -143q0 -10 -11 -13l-56 -10q-5 -1 -7 -1h-3q-12 0 -15 12l-162 942q-1 5 -1 6v4q0 11 11 13l58 10q5 1 6 1h3q12 0 14 -13l162 -941q1 -5 1 -6v-4z" />
    <glyph glyph-name="bracketright" unicode="]" horiz-adv-x="307" 
d="M360 800q0 -1 -1 -6l-217 -1029q-2 -6 -6.5 -11t-12.5 -5h-190q-17 0 -17 17v2q0 1 1 6l4 18q2 6 6.5 10.5t12.5 4.5h112l200 954h-105q-17 0 -17 16q0 2 1 7l4 19q2 6 6.5 11t12.5 5h190q16 0 16 -17v-2z" />
    <glyph glyph-name="asciicircum" unicode="^" horiz-adv-x="548" 
d="M520 333q0 -7 -3.5 -12t-12.5 -5h-50q-18 0 -22 17l-78 282h-2l-200 -286q-4 -5 -9.5 -9t-14.5 -4h-49q-16 0 -16 16q0 2 1.5 7t6.5 11l255 342q5 7 11 10.5t15 3.5h35q17 0 22 -16l108 -342q2 -8 2.5 -10.5t0.5 -4.5z" />
    <glyph glyph-name="underscore" unicode="_" horiz-adv-x="522" 
d="M457 -161q0 -1 -1 -6l-7 -30q-2 -6 -6.5 -10.5t-12.5 -4.5h-527q-17 0 -17 16v2q0 1 1 6l7 31q2 6 6.5 10.5t12.5 4.5h527q17 0 17 -17v-2z" />
    <glyph glyph-name="grave" unicode="`" horiz-adv-x="276" 
d="M271 594q0 -13 -13 -13h-30q-8 0 -12.5 4t-9.5 9l-83 101q-2 2 -3.5 6t-1.5 6q0 11 14.5 17t32.5 6q22 0 39.5 -7t23.5 -21l39 -94q1 -2 2.5 -7t1.5 -7z" />
    <glyph glyph-name="a" unicode="a" horiz-adv-x="508" 
d="M473 412q0 -5 -0.5 -14t-2.5 -18l-60 -282q-7 -32 -18.5 -49t-35.5 -31q-9 -5 -26 -10.5t-38 -10t-44.5 -7.5t-46.5 -3q-39 0 -72.5 8t-58.5 23.5t-39 38t-14 51.5q0 58 33.5 95.5t83 60.5t107.5 35.5t107 21.5l14 68q2 12 2.5 15.5t0.5 7.5q0 28 -16 43t-43 15
q-38 0 -64.5 -22.5t-43.5 -56.5q-16 -33 -57 -33q-19 0 -31 10.5t-12 27.5q0 19 15 43t44 44t72 34t99 14q63 0 104 -30.5t41 -88.5zM337 266q-34 -6 -71 -16.5t-67.5 -28t-50.5 -43t-20 -61.5q0 -29 20.5 -48.5t62.5 -19.5q29 0 57 13t35 45z" />
    <glyph glyph-name="b" unicode="b" horiz-adv-x="561" 
d="M528 359q0 -71 -25 -144.5t-73 -126.5q-48 -52 -107.5 -76.5t-122.5 -24.5q-51 0 -87.5 10t-55.5 23q-25 18 -25 46q0 12 3 26l140 658q2 6 6.5 10.5t12.5 4.5h77q16 0 16 -16q0 -3 -1 -8l-56 -266q9 7 24 16.5t34 18t42 14.5t48 6q36 0 64 -13t47 -36t29 -54t10 -68z
M410 351q0 51 -23.5 78t-65.5 27q-32 0 -59.5 -13t-44.5 -26l-64 -304q-2 -10 -2 -16q0 -17 15.5 -29t50.5 -12q31 0 66.5 20t64.5 62q31 45 46.5 102t15.5 111z" />
    <glyph glyph-name="c" unicode="c" horiz-adv-x="498" 
d="M493 404q0 -21 -12.5 -38t-43.5 -17q-40 0 -47 45q-2 12 -6.5 25t-12.5 24t-21.5 18t-33.5 7q-35 0 -64.5 -23t-51.5 -59.5t-34 -81.5t-12 -88q0 -59 25.5 -97t81.5 -38q23 0 42.5 8t35.5 20.5t29.5 27.5t24.5 29q12 17 29 17q22 0 22 -24q0 -15 -14 -44t-42 -57.5
t-69 -49.5t-96 -21q-36 0 -69 12.5t-57.5 37.5t-39 61.5t-14.5 84.5q0 70 20.5 133t58 111t90 76t116.5 28q43 0 74 -13t51.5 -32.5t30 -41.5t9.5 -40z" />
    <glyph glyph-name="d" unicode="d" horiz-adv-x="563" 
d="M601 745q0 -1 -2 -8l-137 -643q-6 -27 -17.5 -44t-35.5 -31q-23 -13 -65 -22.5t-90 -9.5q-101 0 -157 54t-56 142q0 73 27.5 140.5t75.5 119.5q38 41 88 64t109 23q35 0 60.5 -9t34.5 -16l52 245q2 6 6.5 10.5t12.5 4.5h77q17 0 17 -16v-4zM424 448q-10 8 -27.5 14.5
t-46.5 6.5q-35 0 -66 -18t-57 -52q-31 -42 -50 -99t-19 -110q0 -34 9 -59t24 -41.5t34.5 -24.5t40.5 -8q38 0 59.5 15t26.5 40z" />
    <glyph glyph-name="e" unicode="e" horiz-adv-x="522" 
d="M498 374q0 -12 -1.5 -24t-4.5 -22q-4 -14 -12 -19.5t-21 -7.5l-306 -48q-1 -9 -1.5 -20.5t-0.5 -19.5q0 -26 5.5 -50t18.5 -43t34.5 -30.5t53.5 -11.5q24 0 44.5 8t38.5 20.5t33 28t27 29.5q14 17 30 17q11 0 16.5 -7t5.5 -15q0 -16 -14.5 -45t-43.5 -57t-71.5 -49
t-97.5 -21q-41 0 -75.5 13t-60 38.5t-39.5 62t-14 83.5q0 66 19.5 128.5t56.5 111t90.5 78t121.5 29.5q39 0 70.5 -13t53 -34.5t33 -50t11.5 -59.5zM390 382q0 37 -17.5 61.5t-60.5 24.5q-30 0 -54.5 -13.5t-43.5 -36t-32.5 -51t-20.5 -57.5l226 37q3 18 3 35z" />
    <glyph glyph-name="f" unicode="f" horiz-adv-x="337" 
d="M428 731q0 -20 -12.5 -33.5t-35.5 -13.5q-12 0 -20.5 3t-20.5 3q-18 0 -32 -11.5t-23.5 -31t-14.5 -44.5t-5 -52q0 -21 3 -33h83q16 0 16 -16q0 -2 -1 -7l-6 -26q-2 -6 -6.5 -10.5t-12.5 -4.5h-81l-94 -439q-2 -6 -6.5 -10.5t-12.5 -4.5h-77q-16 0 -16 16v3q0 1 1 6
l91 429h-53q-16 0 -16 17v2q0 1 1 6l6 24q2 6 6.5 10.5t12.5 4.5h57q17 80 42.5 130t54.5 77.5t59 37.5t57 10q29 0 42.5 -13t13.5 -29z" />
    <glyph glyph-name="g" unicode="g" horiz-adv-x="562" 
d="M535 453q0 -11 -3 -26l-86 -406q-28 -133 -95 -199t-182 -66q-47 0 -82.5 12t-59.5 30t-36.5 39.5t-12.5 41.5q0 23 15 38t38 15q36 0 52 -35q7 -15 15.5 -27.5t20.5 -22t27.5 -14.5t37.5 -5q21 0 43 10.5t41 31t34 50.5t23 68l12 56q-9 -7 -23 -16.5t-32.5 -18
t-41.5 -14.5t-49 -6q-36 0 -64 13t-47.5 36.5t-30 55t-10.5 68.5q0 76 28 151t82 129q46 46 100.5 67.5t113.5 21.5q54 0 92 -10.5t55 -22.5q25 -18 25 -45zM418 427q0 17 -14 29t-52 12q-30 0 -62.5 -17t-61.5 -54q-34 -44 -52 -105t-18 -117q0 -54 24.5 -81t63.5 -27
q32 0 59.5 13t44.5 27l66 305q1 5 1.5 9t0.5 6z" />
    <glyph glyph-name="h" unicode="h" horiz-adv-x="558" 
d="M520 407q0 -6 -1 -16t-3 -18l-75 -358q-2 -6 -6.5 -10.5t-12.5 -4.5h-78q-16 0 -16 16v2q0 1 1 6l71 341q2 8 3 15.5t1 11.5q0 35 -21 52t-53 17q-34 0 -62 -12t-50 -32l-86 -402q-2 -6 -6.5 -10.5t-12.5 -4.5h-78q-16 0 -16 16q0 3 1 8l155 726q2 6 6.5 10.5t12.5 4.5
h78q16 0 16 -16q0 -4 -1 -9l-55 -263q26 22 63 37.5t82 15.5q29 0 55 -8.5t45.5 -24t31 -38.5t11.5 -52z" />
    <glyph glyph-name="i" unicode="i" horiz-adv-x="260" 
d="M240 502q0 -3 -1 -8l-102 -479q-2 -6 -6.5 -10.5t-12.5 -4.5h-77q-17 0 -17 16v2q0 1 1 6l102 479q2 6 6.5 10.5t12.5 4.5h78q16 0 16 -16zM284 667q0 -25 -21 -43.5t-54 -18.5q-26 0 -42 14t-16 33q0 26 21.5 43.5t53.5 17.5q26 0 42 -13.5t16 -32.5z" />
    <glyph glyph-name="j" unicode="j" horiz-adv-x="260" 
d="M240 498q0 -1 -2 -6l-81 -381q-23 -108 -62 -176t-81 -106.5t-80 -53t-58 -14.5q-12 0 -19.5 6.5t-7.5 17.5q0 16 24 31q26 16 51 40t46.5 58.5t40 82.5t32.5 114l83 392q2 6 6.5 10.5t12.5 4.5h78q17 0 17 -16v-4zM284 667q0 -25 -21 -43.5t-54 -18.5q-26 0 -42 13.5
t-16 33.5q0 26 21.5 43.5t53.5 17.5q26 0 42 -13.5t16 -32.5z" />
    <glyph glyph-name="k" unicode="k" horiz-adv-x="520" 
d="M542 504q0 -10 -9 -17l-240 -206l151 -250q5 -8 5 -14q0 -8 -5.5 -12.5t-12.5 -4.5h-86q-9 0 -14 4t-10 12l-113 198q-5 8 -10.5 22t-9.5 27h-2l-53 -248q-3 -15 -19 -15h-76q-16 0 -16 16q0 3 1 8l155 726q3 15 19 15h76q16 0 16 -16q0 -4 -1 -8l-96 -447h2l231 213
q6 5 11 8t13 3h78q15 0 15 -14z" />
    <glyph glyph-name="l" unicode="l" horiz-adv-x="258" 
d="M292 749q0 -3 -1 -8l-154 -726q-2 -6 -6.5 -10.5t-12.5 -4.5h-77q-17 0 -17 16q0 3 1 7l154 727q2 6 6.5 10.5t12.5 4.5h77q17 0 17 -16z" />
    <glyph glyph-name="m" unicode="m" horiz-adv-x="831" 
d="M794 407q0 -10 -1 -19.5t-3 -17.5l-75 -355q-2 -6 -6.5 -10.5t-12.5 -4.5h-77q-17 0 -17 16v2q0 1 1 6l74 348q2 8 3 16t1 15q0 66 -75 66q-45 0 -71 -25.5t-35 -69.5l-77 -359q-2 -6 -6.5 -10.5t-12.5 -4.5h-77q-16 0 -16 16q0 3 1 8l74 348q2 7 3 16.5t1 14.5
q0 32 -19.5 49t-55.5 17q-43 0 -68 -15.5t-33 -53.5l-82 -385q-2 -6 -6.5 -10.5t-12.5 -4.5h-78q-16 0 -16 16q0 3 1 8l88 415q6 26 18 39t35 23q26 11 67 20.5t90 9.5q58 0 95 -16.5t56 -43.5q31 27 71 43.5t99 16.5q31 0 59 -7.5t49.5 -23t34 -39t12.5 -54.5z" />
    <glyph glyph-name="n" unicode="n" horiz-adv-x="557" 
d="M520 403q0 -8 -1 -17t-3 -17l-76 -354q-2 -6 -6.5 -10.5t-12.5 -4.5h-78q-16 0 -16 16q0 3 1 8l74 348q2 8 3 15.5t1 12.5q0 30 -20.5 49.5t-67.5 19.5q-30 0 -49 -6t-30 -15t-15.5 -20.5t-7.5 -23.5l-84 -389q-2 -6 -6.5 -10.5t-12.5 -4.5h-78q-16 0 -16 16q0 3 1 8
l89 415q5 25 16.5 38t36.5 24q27 12 70.5 21t97.5 9q87 0 138.5 -32.5t51.5 -95.5z" />
    <glyph glyph-name="o" unicode="o" horiz-adv-x="566" 
d="M528 329q0 -65 -20 -126.5t-58 -109.5t-92 -77t-123 -29q-44 0 -79.5 14.5t-60.5 41t-38 64t-13 83.5q0 68 20.5 129.5t59 108.5t92.5 75t120 28q46 0 82 -15.5t60.5 -42.5t37 -64t12.5 -80zM414 346q0 25 -4.5 47t-15 38.5t-27 26t-40.5 9.5q-34 0 -61 -19t-48 -53
q-14 -22 -24.5 -48.5t-18.5 -55t-12 -57t-4 -53.5q0 -26 4.5 -48t14.5 -39t26 -26.5t39 -9.5q38 0 66.5 21t49.5 59q12 21 22 47t17.5 53.5t11.5 55.5t4 52z" />
    <glyph glyph-name="p" unicode="p" horiz-adv-x="562" 
d="M525 339q0 -71 -25 -137.5t-70 -117.5q-38 -44 -89 -70t-113 -26q-38 0 -62 11t-33 18l-51 -237q-2 -6 -6.5 -10.5t-12.5 -4.5h-76q-17 0 -17 16q0 3 1 8l134 635q6 27 18 43t36 30q23 14 66 24t89 10q55 0 95 -15t66 -41t38 -61t12 -75zM410 338q0 62 -29 96t-78 34
q-74 0 -86 -55l-71 -332q10 -10 27 -17.5t46 -7.5q37 0 70 21t59 59q27 41 44.5 96.5t17.5 105.5z" />
    <glyph glyph-name="q" unicode="q" horiz-adv-x="562" 
d="M535 453q0 -8 -0.5 -14t-2.5 -14l-138 -645q-2 -6 -6.5 -10.5t-12.5 -4.5h-77q-17 0 -17 16q0 2 2 12l54 250q-9 -7 -23.5 -16.5t-33 -18t-41.5 -14.5t-50 -6q-36 0 -64 13.5t-47 37t-29 54.5t-10 67q0 38 7 76.5t21 75t34 69.5t47 60q46 46 101 68t115 22q53 0 91 -11
t55 -23q14 -9 19.5 -19t5.5 -25zM417 427q0 17 -13 29t-52 12q-30 0 -62.5 -17t-61.5 -54q-34 -44 -52 -105t-18 -117q0 -54 24 -81t63 -27q32 0 60 13.5t45 26.5l65 304q2 10 2 16z" />
    <glyph glyph-name="r" unicode="r" horiz-adv-x="403" 
d="M437 462q0 -23 -13 -38.5t-37 -15.5q-20 0 -30 9.5t-17.5 20.5t-17 20.5t-29.5 9.5q-28 0 -49 -13.5t-26 -37.5l-86 -402q-2 -6 -6.5 -10.5t-12.5 -4.5h-78q-16 0 -16 16q0 3 1 8l89 415q5 25 16.5 38.5t36.5 24.5t66.5 20t87.5 9q63 0 92 -21t29 -48z" />
    <glyph glyph-name="s" unicode="s" horiz-adv-x="466" 
d="M444 424q0 -21 -13 -35t-37 -14q-37 0 -46 38q-6 24 -21 43t-47 19q-23 0 -40 -8t-28 -20.5t-16.5 -28t-5.5 -31.5q0 -24 15.5 -40t39 -29.5t51 -26t51 -29t39 -38.5t15.5 -55q0 -37 -14.5 -70t-42.5 -58t-67.5 -39.5t-90.5 -14.5q-45 0 -77.5 12.5t-53.5 31t-30.5 40
t-9.5 38.5q0 23 14 37.5t39 14.5q38 0 49 -39q8 -31 24.5 -50.5t53.5 -19.5q20 0 37 8.5t29.5 22t19.5 30.5t7 34q0 24 -15.5 41t-38.5 31t-49.5 26.5t-49.5 28.5t-38.5 37t-15.5 52q0 35 14 65.5t40.5 53.5t65 36t86.5 13q42 0 71.5 -11t48.5 -27t28 -34.5t9 -34.5z" />
    <glyph glyph-name="t" unicode="t" horiz-adv-x="348" 
d="M364 502q0 -3 -1 -8l-5 -25q-2 -6 -6.5 -10.5t-12.5 -4.5h-84l-69 -324q-3 -17 -3 -31q0 -30 14.5 -38.5t32.5 -8.5q8 0 13.5 1t10.5 1q10 0 14.5 -6t4.5 -14q0 -21 -27 -33.5t-66 -12.5q-17 0 -36.5 4.5t-36 16t-27.5 31.5t-11 52q0 11 1 21t3 19l68 322h-50
q-16 0 -16 17q0 3 1 8l6 24q2 6 6.5 10.5t12.5 4.5h53l16 72q2 11 5.5 17t11.5 10l79 35q4 2 8 3.5t9 1.5q12 0 12 -12q0 -2 -1 -7l-25 -120h78q17 0 17 -16z" />
    <glyph glyph-name="u" unicode="u" horiz-adv-x="547" 
d="M532 502q0 -3 -1 -8l-86 -406q-6 -29 -17.5 -43.5t-32.5 -25.5q-23 -12 -67.5 -21.5t-102.5 -9.5q-31 0 -63 6.5t-58.5 21.5t-43 39.5t-16.5 60.5q0 8 1.5 19.5t3.5 20.5l72 347q2 6 6.5 10.5t12.5 4.5h78q16 0 16 -16q0 -3 -1 -8l-71 -341q-3 -15 -3 -29q0 -30 21 -48
t56 -18q47 0 71 16t31 48l81 381q2 6 6.5 10.5t12.5 4.5h77q17 0 17 -16z" />
    <glyph glyph-name="v" unicode="v" horiz-adv-x="516" 
d="M546 503q0 -4 -2 -9t-4 -8l-269 -470q-5 -8 -10 -12t-15 -4h-77q-19 0 -22 20l-69 464q-1 5 -1.5 9t-0.5 8q0 17 19 17h78q11 0 15.5 -5.5t5.5 -12.5l35 -303q3 -24 3 -49v-21q0 -10 -1 -24h2q8 23 18.5 47t22.5 47l165 304q5 8 10 12.5t15 4.5h66q16 0 16 -15z" />
    <glyph glyph-name="w" unicode="w" horiz-adv-x="763" 
d="M790 503q0 -5 -4 -13l-238 -473q-5 -9 -10 -13t-16 -4h-67q-19 0 -20 18l-23 261q-1 8 -1.5 25t-0.5 31v23q0 12 1 23h-2q-9 -26 -19.5 -51.5t-23.5 -50.5l-136 -262q-5 -9 -9.5 -13t-15.5 -4h-68q-18 0 -19 18l-37 464q-1 8 -1 12v7q0 17 19 17h74q20 0 20 -18l9 -296
q0 -12 -1 -41t-4 -56h2q10 25 21 51t21 46l152 298q7 16 25 16h48q20 0 21 -19l22 -295q2 -25 2 -35v-42q0 -9 -1 -20h2q8 25 17 49.5t20 47.5l138 298q8 16 24 16h62q17 0 17 -15z" />
    <glyph glyph-name="x" unicode="x" horiz-adv-x="481" 
d="M507 503q0 -5 -3 -10t-5 -7l-198 -218l110 -235q2 -3 3.5 -7t1.5 -9q0 -8 -5.5 -12.5t-13.5 -4.5h-79q-12 0 -18 4t-9 12l-66 166h-2l-142 -169q-10 -13 -27 -13h-69q-8 0 -13.5 3.5t-5.5 11.5q0 4 2.5 8t5.5 7l213 232l-104 224q-2 3 -3.5 7.5t-1.5 7.5q0 9 6 13t14 4
h75q10 0 16 -3t10 -13l63 -156h2l134 159q7 8 12.5 10.5t15.5 2.5h65q16 0 16 -15z" />
    <glyph glyph-name="y" unicode="y" horiz-adv-x="517" 
d="M547 504q0 -2 -2 -7.5t-4 -8.5l-317 -560q-20 -35 -42.5 -66t-49.5 -54t-59.5 -36.5t-73.5 -13.5q-42 0 -61 16t-19 39t15.5 37t39.5 14q11 0 18.5 -2t14.5 -5t13.5 -5t15.5 -2q13 0 26 7t24.5 18t21 24.5t17.5 26.5l35 60l-82 499q-2 10 -2 16q0 17 20 17h77
q19 0 21 -18l38 -307q2 -19 2.5 -34.5t0.5 -24.5v-23q0 -8 -1 -16h2q3 8 12.5 35.5t28.5 62.5l163 308q5 8 9.5 12.5t14.5 4.5h67q16 0 16 -14z" />
    <glyph glyph-name="z" unicode="z" horiz-adv-x="416" 
d="M437 503q0 -8 -6 -16l-292 -421h186q16 0 16 -16q0 -4 -1 -9l-6 -26q-2 -6 -6.5 -10.5t-12.5 -4.5h-321q-15 0 -15 15q0 6 6 16l297 423h-175q-17 0 -17 16q0 3 1 8l6 25q2 6 6.5 10.5t12.5 4.5h305q16 0 16 -15z" />
    <glyph glyph-name="braceleft" unicode="{" horiz-adv-x="361" 
d="M435 788q0 -18 -23 -21q-40 -5 -62.5 -30t-33.5 -74l-47 -217q-15 -70 -41.5 -109t-72.5 -58v-2q28 -14 39.5 -42.5t11.5 -60.5q0 -14 -2 -31t-5 -31l-47 -219q-2 -10 -3.5 -22.5t-1.5 -20.5q0 -28 13 -42t41 -20q17 -4 17 -21q0 -10 -9 -16.5t-24 -6.5q-64 0 -101 32.5
t-37 92.5q0 14 2 28t4 25l45 209q3 16 6 32.5t3 33.5q0 25 -10 39.5t-31 24.5q-10 4 -10 16t15 18q21 7 35 18t24.5 27t17.5 39t14 54l43 203q20 94 72.5 133.5t129.5 39.5q14 0 21 -6t7 -15z" />
    <glyph glyph-name="bar" unicode="|" horiz-adv-x="277" 
d="M297 749q0 -3 -1 -8l-205 -961q-2 -6 -6.5 -10.5t-12.5 -4.5h-68q-17 0 -17 16v4q0 1 2 7l204 958q2 6 6.5 10.5t12.5 4.5h69q16 0 16 -16z" />
    <glyph glyph-name="braceright" unicode="}" horiz-adv-x="361" 
d="M325 680q0 -12 -2 -27t-4 -26l-42 -197q-3 -14 -6.5 -37t-3.5 -37q0 -24 9.5 -37.5t30.5 -24.5q11 -6 11 -16q0 -14 -18 -20q-35 -13 -55 -44t-33 -92l-44 -206q-10 -47 -28 -80t-43.5 -53.5t-57.5 -29.5t-70 -9q-16 0 -23.5 6t-7.5 15q0 20 25 23q41 5 63 31t32 72
l46 218q15 71 42.5 109t73.5 58v2q-29 15 -40.5 42t-11.5 61q0 6 1 16l2 20q1 10 2.5 18.5t2.5 13.5l45 211q2 11 3.5 21t1.5 21q0 30 -12.5 44.5t-40.5 19.5q-17 3 -17 19q0 11 10 17.5t25 6.5q63 0 98.5 -34t35.5 -95z" />
    <glyph glyph-name="asciitilde" unicode="~" horiz-adv-x="629" 
d="M589 352q0 -15 -11 -38t-32.5 -44t-54 -36.5t-75.5 -15.5q-30 0 -54.5 12t-47 27t-45 27t-47.5 12q-39 0 -64.5 -17t-45.5 -40q-15 -18 -31 -18q-8 0 -14 5t-6 16q0 16 11.5 39t33.5 44t54 36t74 15q30 0 54 -12t46.5 -27t45 -27t48.5 -12q39 0 64.5 17t45.5 40
q15 18 31 18q8 0 14 -5.5t6 -15.5z" />
    <glyph glyph-name="uni00A0" unicode="&#xa0;" horiz-adv-x="277" 
 />
    <glyph glyph-name="exclamdown" unicode="&#xa1;" horiz-adv-x="363" 
d="M230 273q0 -1 -1 -6l-66 -432q-3 -17 -19 -17h-102q-7 0 -11 4.5t-4 9.5v4q0 1 2 7l117 433q2 5 7 9.5t13 4.5h49q15 0 15 -14v-3zM302 470q0 -18 -7 -33.5t-19 -27t-27.5 -18.5t-33.5 -7q-26 0 -45 19t-19 44q0 18 7.5 33.5t19.5 27t28 18t33 6.5q26 0 44.5 -18.5
t18.5 -43.5z" />
    <glyph glyph-name="cent" unicode="&#xa2;" horiz-adv-x="542" 
d="M511 405q0 -20 -12 -34.5t-35 -14.5q-35 0 -43 38q-5 28 -19 49.5t-47 26.5l-83 -392q25 1 45.5 9t38 20.5t32.5 28t27 31.5q12 17 29 17q9 0 15 -6.5t6 -15.5q0 -15 -14 -43.5t-41 -56.5t-66.5 -50t-90.5 -24l-19 -89q-5 -18 -24 -18q-17 0 -17 13v4q0 2 2 8l18 84
q-38 5 -67 22t-48.5 42.5t-29 58.5t-9.5 70q0 61 17 121t51 108.5t84 80t116 36.5l16 77q4 18 24 18q9 0 13 -3.5t4 -8.5q0 -3 -1 -8l-15 -74q38 -3 65 -17t44.5 -33t25.5 -39.5t8 -35.5zM315 470q-42 -6 -73 -33t-51.5 -64.5t-30 -80t-9.5 -79.5q0 -47 17.5 -83.5
t63.5 -46.5z" />
    <glyph glyph-name="sterling" unicode="&#xa3;" horiz-adv-x="601" 
d="M604 567q0 -24 -14 -40.5t-41 -16.5q-21 0 -34 12.5t-15 33.5q-5 42 -26.5 69.5t-73.5 27.5q-62 0 -98 -45t-36 -123q0 -28 5.5 -50.5t10.5 -45.5h147q17 0 17 -17v-3q0 -1 -1 -6l-5 -25q-2 -6 -6.5 -10.5t-12.5 -4.5h-128v-8q0 -47 -25 -99.5t-89 -116.5h302
q16 0 16 -17v-2q0 -1 -1 -6l-12 -59q-2 -6 -6.5 -10.5t-12.5 -4.5h-430q-18 0 -18 18q0 5 3 10t7 9q86 76 126 137.5t40 119.5v15q0 7 -2 14h-96q-17 0 -17 17v3q0 1 1 6l5 25q2 6 6.5 10.5t12.5 4.5h70q-8 23 -14.5 47.5t-6.5 52.5q0 48 16.5 90t48.5 73.5t80.5 50
t112.5 18.5q49 0 85.5 -14t60.5 -36t36 -49.5t12 -54.5z" />
    <glyph glyph-name="currency" unicode="&#xa4;" horiz-adv-x="588" 
d="M593 467q0 -6 -7 -12l-84 -71q10 -17 15.5 -37.5t5.5 -43.5q0 -50 -19.5 -95.5t-53.5 -80.5l49 -65q5 -6 5 -12q0 -7 -7 -14l-37 -30q-5 -4 -8 -5t-6 -1q-7 0 -13 7l-49 66q-30 -18 -64.5 -28.5t-70.5 -10.5q-34 0 -63 10.5t-52 28.5l-79 -67q-8 -6 -15 -6q-2 0 -6 1.5
t-6 4.5l-26 32q-5 6 -5 12q0 7 9 15l79 67q-22 39 -22 83q0 51 20.5 97.5t55.5 81.5l-46 62q-5 7 -5 12q0 2 1.5 6t6.5 9l36 30q7 5 14 5t13 -7l48 -64q30 17 62.5 27t67.5 10t65 -11t53 -30l82 70q5 5 13 5q5 0 7 -1.5t5 -4.5l26 -32q5 -6 5 -13zM431 296q0 51 -27.5 83.5
t-76.5 32.5q-35 0 -66 -17.5t-54.5 -45t-37.5 -61.5t-14 -67q0 -52 28 -83.5t76 -31.5q34 0 65.5 17.5t55 44.5t37.5 61t14 67z" />
    <glyph glyph-name="yen" unicode="&#xa5;" horiz-adv-x="592" 
d="M665 691q0 -7 -6 -14l-181 -222h88q16 0 16 -16q0 -3 -1 -8l-4 -17q-2 -6 -6.5 -10.5t-12.5 -4.5h-124l-61 -73l-7 -32h150q17 0 17 -17q0 -4 -1 -9l-3 -16q-2 -6 -6.5 -10.5t-12.5 -4.5h-156l-47 -222q-2 -6 -6.5 -10.5t-12.5 -4.5h-81q-16 0 -16 16v2q0 1 1 6l45 213
h-151q-16 0 -16 17q0 2 1 7l4 17q2 6 6.5 11t12.5 5h155l7 32l-29 73h-119q-17 0 -17 16v3q0 1 1 6l3 16q2 6 6.5 10.5t12.5 4.5h91l-85 220q-3 9 -3 14q0 17 19 17h83q17 0 23 -17l89 -284h2l220 288q9 13 25 13h69q18 0 18 -15z" />
    <glyph glyph-name="brokenbar" unicode="&#xa6;" horiz-adv-x="277" 
d="M297 749q0 -3 -1 -8l-80 -375q-3 -15 -19 -15h-69q-16 0 -16 16v2q0 2 1 7l80 374q3 15 19 15h69q16 0 16 -16zM172 163q0 -5 -1 -8l-80 -375q-3 -15 -19 -15h-69q-16 0 -16 16q0 6 1 9l80 374q3 15 19 15h69q16 0 16 -16z" />
    <glyph glyph-name="section" unicode="&#xa7;" horiz-adv-x="559" 
d="M546 588q0 -25 -13 -40t-37 -15q-21 0 -32.5 12.5t-14.5 33.5q-5 32 -22.5 55.5t-57.5 23.5q-25 0 -44.5 -9.5t-33 -25t-20.5 -35t-7 -38.5q0 -23 8.5 -40t23.5 -30.5t34 -25t40 -23.5q23 -12 47 -26.5t44 -32.5t32.5 -40.5t12.5 -52.5q0 -34 -13.5 -62t-34.5 -51
t-47.5 -42t-52.5 -34q28 -22 46 -53t18 -69q0 -46 -17 -83.5t-47.5 -64t-72 -41t-89.5 -14.5q-42 0 -76 14.5t-58 36.5t-36.5 48.5t-12.5 50.5q0 27 15.5 44t38.5 17q40 0 48 -46q2 -14 7.5 -31t16 -31.5t27.5 -24.5t43 -10q24 0 44 9.5t34.5 25.5t23 36.5t8.5 42.5
q0 25 -11 45t-29 36t-40 29t-44 25q-24 12 -48 27t-44 33.5t-32.5 42.5t-12.5 54q0 36 13 65t34 53t48 43t54 35q-17 17 -29.5 41t-12.5 54q0 37 14 71.5t41.5 61t68 42.5t93.5 16q44 0 75 -14t51 -34t29 -43.5t9 -41.5zM408 256q0 27 -16 47t-40 36.5t-51.5 30.5t-50.5 29
q-17 -9 -34 -23t-31 -31t-22.5 -37t-8.5 -42q0 -27 15 -47t38.5 -36t50.5 -29.5t51 -27.5q16 10 33.5 24t32 30.5t24 35.5t9.5 40z" />
    <glyph glyph-name="dieresis" unicode="&#xa8;" horiz-adv-x="276" 
d="M364 645q0 -25 -19.5 -42t-44.5 -17q-20 0 -33.5 13.5t-13.5 31.5q0 25 19.5 42.5t44.5 17.5q20 0 33.5 -14t13.5 -32zM190 645q0 -25 -19.5 -42t-44.5 -17q-20 0 -33.5 13.5t-13.5 31.5q0 25 19.5 42.5t44.5 17.5q20 0 33.5 -14t13.5 -32z" />
    <glyph glyph-name="copyright" unicode="&#xa9;" horiz-adv-x="866" 
d="M831 422q0 -92 -35.5 -171.5t-96.5 -138.5t-142 -93t-172 -34q-66 0 -122.5 23t-97 63.5t-63.5 95t-23 117.5q0 93 36.5 173t98 138.5t142 92t169.5 33.5q66 0 122.5 -23t97 -63.5t63.5 -95t23 -117.5zM770 414q0 52 -18.5 98t-52 80.5t-80 54t-102.5 19.5
q-78 0 -146.5 -30t-119.5 -81t-81 -119t-30 -144q0 -53 18.5 -98.5t52.5 -79t80.5 -53t102.5 -19.5q76 0 144.5 29.5t120 80t81.5 118t30 144.5zM629 489q0 -15 -9.5 -25t-24.5 -10q-14 0 -21 6.5t-12 20.5q-2 7 -6.5 16t-13 16t-21 12t-31.5 5q-38 0 -67.5 -21t-49.5 -52.5
t-30.5 -69t-10.5 -70.5q0 -57 27.5 -90.5t74.5 -33.5q37 0 62 13.5t41 26.5q9 8 20 8q17 0 17 -17q0 -10 -11.5 -24.5t-31.5 -28t-48 -23.5t-62 -10q-42 0 -72.5 13.5t-50.5 36.5t-29.5 53.5t-9.5 64.5q0 51 17 99.5t48.5 86t76 60.5t98.5 23q34 0 58.5 -9t40.5 -22.5
t23.5 -28.5t7.5 -26z" />
    <glyph glyph-name="ordfeminine" unicode="&#xaa;" horiz-adv-x="403" 
d="M417 623q0 -4 -2 -12l-44 -209q-5 -23 -14.5 -34t-29.5 -20q-14 -6 -43.5 -13t-66.5 -7q-60 0 -98 21.5t-38 64.5q0 44 26.5 72t65 44.5t80.5 24.5t73 13l10 51q1 5 1 7v5q0 20 -12.5 31t-33.5 11q-29 0 -47 -16t-30 -39q-14 -26 -45 -26t-31 28q0 12 10 29t31 32.5
t54 26t79 10.5q45 0 75 -22.5t30 -64.5v-8zM317 527q-21 -4 -48 -10.5t-50.5 -18t-39.5 -30t-16 -46.5q0 -21 14.5 -34t46.5 -13q23 0 43.5 8.5t25.5 31.5z" />
    <glyph glyph-name="guillemotleft" unicode="&#xab;" horiz-adv-x="554" 
d="M327 480q0 -17 -13 -33l-104 -135q-8 -10 -15.5 -22.5t-7.5 -25.5q0 -8 1 -13.5t3 -10.5l45 -129q5 -15 5 -23q0 -14 -8.5 -23t-23.5 -9q-20 0 -27 20q-6 17 -16.5 40t-23 47t-27 46.5t-28.5 38.5q-5 5 -8 10.5t-3 13.5q0 12 7.5 22t16.5 17q21 16 45 38.5t46.5 46.5
t42 46.5t33.5 39.5q8 9 16 14.5t19 5.5t18 -6.5t7 -15.5zM532 480q0 -17 -13 -33l-104 -135q-8 -10 -15.5 -22.5t-7.5 -25.5q0 -7 1 -13t3 -11l45 -129q2 -6 3.5 -13t1.5 -10q0 -14 -8.5 -23t-23.5 -9q-20 0 -27 20q-6 17 -16.5 40t-23 47t-27 46.5t-28.5 38.5q-5 5 -8 10.5
t-3 13.5q0 12 7.5 22t16.5 17q21 16 45 38.5t46.5 46.5t42 46.5t33.5 39.5q8 9 16 14.5t19 5.5t18 -6.5t7 -15.5z" />
    <glyph glyph-name="logicalnot" unicode="&#xac;" horiz-adv-x="556" 
d="M524 325q0 -1 -1 -6l-55 -262q-2 -6 -6.5 -10.5t-12.5 -4.5h-54q-16 0 -16 16v2q0 1 1 6l42 199h-349q-17 0 -17 17q0 2 1 7l9 39q2 6 6.5 10.5t12.5 4.5h422q17 0 17 -16v-2z" />
    <glyph glyph-name="uni00AD" unicode="&#xad;" horiz-adv-x="320" 
d="M285 319q0 -2 -2 -8l-9 -40q-2 -6 -6.5 -10.5t-12.5 -4.5h-181q-16 0 -16 16v3q0 2 1 7l9 41q2 6 6.5 11t12.5 5h181q17 0 17 -17v-3z" />
    <glyph glyph-name="registered" unicode="&#xae;" horiz-adv-x="866" 
d="M831 422q0 -92 -35.5 -171.5t-96.5 -138.5t-142 -93t-172 -34q-66 0 -122.5 23t-97 63.5t-63.5 95t-23 117.5q0 93 36.5 173t98 138.5t142 92t169.5 33.5q66 0 122.5 -23t97 -63.5t63.5 -95t23 -117.5zM770 414q0 52 -18.5 98t-52 80.5t-80 54t-102.5 19.5
q-78 0 -146.5 -30t-119.5 -81t-81 -119t-30 -144q0 -53 18.5 -98.5t52.5 -79t80.5 -53t102.5 -19.5q76 0 144.5 29.5t120 80t81.5 118t30 144.5zM619 481q0 -30 -11 -53t-29 -39t-42 -26t-50 -16v-1q11 -5 21 -20t16 -32l41 -123q2 -5 2 -6v-3q0 -10 -12 -10h-44
q-11 0 -15 9l-37 129q-5 16 -14.5 31.5t-31.5 15.5h-26l-37 -175q-2 -10 -13 -10h-42q-10 0 -10 9q0 2 1 7l80 374q1 9 13 15q11 5 39.5 12.5t63.5 7.5q71 0 104 -27t33 -69zM553 480q0 28 -17.5 42t-56.5 14q-19 0 -31 -2.5t-20 -4.5l-33 -157q5 -1 13 -1.5t20 -0.5
q57 0 91 30t34 80z" />
    <glyph glyph-name="macron" unicode="&#xaf;" horiz-adv-x="276" 
d="M363 659q0 -2 -1 -7l-6 -24q-2 -6 -6.5 -10.5t-12.5 -4.5h-237q-16 0 -16 16q0 2 1 7l5 25q2 6 6.5 10.5t12.5 4.5h238q16 0 16 -17z" />
    <glyph glyph-name="degree" unicode="&#xb0;" horiz-adv-x="398" 
d="M440 620q0 -39 -16 -73t-42.5 -59.5t-61.5 -40.5t-73 -15q-30 0 -55.5 11t-44 30t-29.5 44.5t-11 53.5q0 39 15.5 73t42 59.5t61.5 40.5t73 15q30 0 55.5 -11.5t44.5 -30.5t30 -44t11 -53zM366 611q0 31 -22 54t-55 23q-22 0 -41.5 -8.5t-34.5 -23.5t-23.5 -34.5
t-8.5 -41.5q0 -32 22 -54t55 -22q22 0 41.5 8.5t34.5 23t23.5 34t8.5 41.5z" />
    <glyph glyph-name="plusminus" unicode="&#xb1;" horiz-adv-x="556" 
d="M544 416q0 -2 -1 -7l-8 -37q-2 -6 -6.5 -10.5t-12.5 -4.5h-174l-38 -176q-2 -6 -6.5 -10.5t-12.5 -4.5h-45q-16 0 -16 17q0 3 1 8l35 166h-168q-16 0 -16 16v2q0 1 1 6l8 37q2 6 6.5 10.5t12.5 4.5h172l37 173q2 6 6.5 10.5t12.5 4.5h45q17 0 17 -16q0 -2 -1 -7l-35 -165
h169q17 0 17 -17zM467 59q0 -3 -1 -8l-8 -36q-2 -6 -6.5 -10.5t-12.5 -4.5h-423q-17 0 -17 15v3q0 2 2 9l7 34q2 6 6.5 10.5t12.5 4.5h424q16 0 16 -17z" />
    <glyph glyph-name="twosuperior" unicode="&#xb2;" horiz-adv-x="370" 
d="M423 801q0 -21 -7.5 -41t-19 -38t-26.5 -34.5t-30 -30.5l-136 -129v-2h151q15 0 15 -15q0 -3 -1 -8l-6 -27q-4 -14 -17 -14h-234q-7 0 -11 4.5t-4 10.5q0 2 1 6t6 9l189 199q20 20 36.5 45t16.5 54q0 23 -13 36.5t-39 13.5q-16 0 -29 -6.5t-23.5 -17t-18 -22.5t-11.5 -23
q-8 -18 -27 -18q-9 0 -14.5 6.5t-5.5 14.5q0 15 9.5 36t28 40t47.5 32.5t68 13.5q28 0 48 -8t32.5 -21.5t18.5 -30.5t6 -35z" />
    <glyph glyph-name="threesuperior" unicode="&#xb3;" horiz-adv-x="370" 
d="M416 815q0 -20 -7.5 -37t-20 -32t-28.5 -26.5t-33 -19.5v-2q26 -12 44 -34.5t18 -55.5q0 -24 -10 -51.5t-31.5 -50.5t-55 -38.5t-79.5 -15.5q-21 0 -40.5 5.5t-34.5 15t-24 22t-9 26.5q0 15 10.5 25t25.5 10q12 0 19.5 -5t12.5 -14q8 -14 20 -24t34 -10q19 0 34.5 8
t26.5 21t17.5 29t6.5 32q0 33 -22.5 50t-51.5 25q-15 4 -15 16q0 9 7 14.5t16 8.5q16 5 32 13t29.5 19t22 26t8.5 34q0 20 -12.5 31t-35.5 11q-31 0 -49 -18t-28 -38q-9 -17 -28 -17t-19 19q0 13 9 31.5t27.5 35.5t46 29.5t64.5 12.5q52 0 77.5 -24.5t25.5 -56.5z" />
    <glyph glyph-name="acute" unicode="&#xb4;" horiz-adv-x="276" 
d="M357 711q0 -7 -7 -14l-135 -108q-4 -3 -9.5 -5.5t-10.5 -2.5h-32q-12 0 -12 12q0 6 5 11l82 98q24 28 79 28q17 0 28.5 -5.5t11.5 -13.5z" />
    <glyph glyph-name="mu" unicode="&#xb5;" horiz-adv-x="548" 
d="M534 500q0 -1 -1 -6l-86 -405q-6 -29 -18.5 -43.5t-32.5 -25.5q-24 -12 -57.5 -21.5t-90.5 -9.5q-18 0 -35 3.5t-32 9.5t-27 13t-18 15l-53 -250q-2 -6 -6.5 -10.5t-12.5 -4.5h-78q-17 0 -17 16v4q0 1 2 8l151 710q2 6 6.5 10.5t12.5 4.5h78q17 0 17 -16q0 -2 -2 -12
l-73 -342q-3 -17 -3 -25q0 -33 22 -48.5t57 -15.5q18 0 34.5 2.5t30 9.5t23.5 19t14 32l82 381q2 6 6 10.5t12 4.5h79q16 0 16 -16v-2z" />
    <glyph glyph-name="paragraph" unicode="&#xb6;" horiz-adv-x="599" 
d="M619 682q0 -4 -1 -9l-191 -893q-2 -6 -6 -10.5t-12 -4.5h-54q-17 0 -17 16q0 3 1 8l183 857q-20 4 -46.5 5.5t-49.5 1.5q-25 0 -46 -3l-185 -870q-2 -6 -6.5 -10.5t-12.5 -4.5h-54q-16 0 -16 16q0 3 1 8l116 546q-62 9 -91.5 48.5t-29.5 93.5q0 42 16.5 84.5t55.5 76
t103.5 55t160.5 21.5q66 0 109.5 -5.5t57.5 -10.5q14 -4 14 -16z" />
    <glyph glyph-name="periodcentered" unicode="&#xb7;" horiz-adv-x="277" 
d="M228 321q0 -18 -7.5 -33.5t-19.5 -27t-28 -18t-33 -6.5q-26 0 -44.5 18.5t-18.5 43.5q0 18 7 33.5t18.5 27t27 18.5t33.5 7q26 0 45.5 -19t19.5 -44z" />
    <glyph glyph-name="cedilla" unicode="&#xb8;" horiz-adv-x="276" 
d="M184 -131q0 -21 -12.5 -39.5t-34.5 -32t-52 -21t-65 -7.5q-42 0 -73 10t-31 27q0 11 7.5 16.5t18.5 5.5q8 0 15 -2t16 -4t20.5 -4t28.5 -2q35 0 58.5 14.5t23.5 33.5q0 15 -18.5 25.5t-63.5 10.5q-8 0 -12 4.5t-4 9.5q0 7 6 16l51 73h64l-51 -67q57 -1 82.5 -20.5
t25.5 -46.5z" />
    <glyph glyph-name="onesuperior" unicode="&#xb9;" horiz-adv-x="370" 
d="M392 877q0 -1 -1 -6l-84 -395q-4 -14 -17 -14h-42q-16 0 -16 15q0 3 1 8l66 310q-11 -6 -25.5 -12t-29 -10.5t-28 -7t-21.5 -2.5q-9 0 -14.5 6t-5.5 14q0 10 7 17t17 9q41 11 80 30.5t70 45.5q6 5 11.5 7.5t13.5 2.5q18 0 18 -15v-3z" />
    <glyph glyph-name="ordmasculine" unicode="&#xba;" horiz-adv-x="434" 
d="M452 572q0 -47 -16 -92.5t-46 -80.5q-29 -34 -67 -52.5t-84 -18.5q-66 0 -102.5 42t-36.5 105q0 52 19 101t56 85q29 27 63 42t74 15q33 0 59 -11t44 -30.5t27.5 -46.5t9.5 -58zM364 582q0 35 -14 60.5t-46 25.5q-21 0 -38.5 -11.5t-31.5 -31.5q-21 -30 -33.5 -73.5
t-12.5 -81.5q0 -37 13 -62t45 -25q25 0 44.5 14t33.5 38q9 15 16.5 33t12.5 37.5t8 39.5t3 37z" />
    <glyph glyph-name="guillemotright" unicode="&#xbb;" horiz-adv-x="554" 
d="M286 287q0 -13 -8 -22.5t-17 -16.5q-21 -16 -44.5 -38.5t-46 -46.5t-42.5 -47t-33 -40q-8 -9 -16.5 -14.5t-18.5 -5.5q-11 0 -18.5 7t-7.5 16q0 8 4.5 16t9.5 16l104 135q8 11 15 23t7 26q0 4 -0.5 10.5t-2.5 12.5l-45 129q-2 5 -3.5 11.5t-1.5 12.5q0 31 32 31
q20 0 27 -20q6 -17 16 -39.5t23 -46.5t27.5 -46.5t28.5 -38.5q5 -5 8 -10.5t3 -13.5zM491 287q0 -13 -8 -22.5t-17 -16.5q-21 -16 -44.5 -38.5t-46 -46.5t-42.5 -47t-33 -40q-8 -9 -16.5 -14.5t-18.5 -5.5q-11 0 -18.5 7t-7.5 16q0 8 4.5 16t9.5 16l104 135q8 11 15 23t7 26
q0 7 -1 14t-2 9l-45 129q-5 15 -5 24q0 31 32 31q20 0 27 -20q6 -17 16 -39.5t23 -46.5t27.5 -46.5t28.5 -38.5q5 -5 8 -10.5t3 -13.5z" />
    <glyph glyph-name="onequarter" unicode="&#xbc;" horiz-adv-x="857" 
d="M793 412q0 -3 -1 -8l-54 -255h37q14 0 14 -12v-2q0 -1 -1 -6l-3 -16q-3 -12 -18 -12h-39l-19 -87q-4 -14 -17 -14h-37q-15 0 -15 15q0 3 1 8l17 78h-154q-22 0 -22 20q0 11 13 26l233 268q5 6 9.5 7.5t9.5 1.5h34q12 0 12 -12zM763 694q0 -3 -2.5 -7.5t-5.5 -8.5
l-514 -665q-5 -7 -10.5 -10t-14.5 -3h-26q-13 0 -13 12q0 6 8 16l515 665q5 7 10.5 10t14.5 3h24q14 0 14 -12zM346 697q0 -1 -1 -6l-84 -395q-4 -14 -17 -14h-42q-16 0 -16 15q0 3 1 8l66 310q-11 -6 -25.5 -12t-29 -10.5t-28 -7t-21.5 -2.5q-9 0 -14.5 6t-5.5 14
q0 10 7 17t17 9q41 11 80 30.5t70 45.5q6 5 11.5 7.5t13.5 2.5q18 0 18 -15v-3zM713 344q-4 -5 -11.5 -16.5t-20.5 -26.5l-129 -152h117l31 143q4 18 8 31.5t6 20.5h-1z" />
    <glyph glyph-name="onehalf" unicode="&#xbd;" horiz-adv-x="857" 
d="M813 339q0 -21 -7.5 -41t-19 -38t-26.5 -34.5t-30 -30.5l-136 -129v-2h151q15 0 15 -15q0 -3 -1 -8l-6 -27q-4 -14 -17 -14h-234q-7 0 -11 4.5t-4 10.5q0 2 1 6t6 9l189 199q20 20 36.5 45t16.5 54q0 23 -13 36.5t-39 13.5q-16 0 -29 -6.5t-23.5 -17t-18 -22.5t-11.5 -23
q-8 -18 -27 -18q-9 0 -14.5 6.5t-5.5 14.5q0 15 9.5 36t28 40t47.5 32.5t68 13.5q28 0 48 -8t32.5 -21.5t18.5 -30.5t6 -35zM728 694q0 -3 -2.5 -7.5t-5.5 -8.5l-514 -665q-5 -7 -10.5 -10t-14.5 -3h-26q-13 0 -13 12q0 6 8 16l515 665q5 7 10.5 10t14.5 3h24q14 0 14 -12z
M346 697q0 -1 -1 -6l-84 -395q-4 -14 -17 -14h-42q-16 0 -16 15q0 3 1 8l66 310q-11 -6 -25.5 -12t-29 -10.5t-28 -7t-21.5 -2.5q-9 0 -14.5 6t-5.5 14q0 10 7 17t17 9q41 11 80 30.5t70 45.5q6 5 11.5 7.5t13.5 2.5q18 0 18 -15v-3z" />
    <glyph glyph-name="threequarters" unicode="&#xbe;" horiz-adv-x="857" 
d="M793 412q0 -3 -1 -8l-54 -255h37q14 0 14 -12v-2q0 -1 -1 -6l-3 -16q-3 -12 -18 -12h-39l-19 -87q-4 -14 -17 -14h-37q-15 0 -15 15q0 3 1 8l17 78h-154q-22 0 -22 20q0 11 13 26l233 268q5 6 9.5 7.5t9.5 1.5h34q12 0 12 -12zM386 635q0 -20 -7.5 -37t-20 -32
t-28.5 -26.5t-33 -19.5v-2q26 -12 44 -34.5t18 -55.5q0 -24 -10 -51.5t-31.5 -50.5t-55 -38.5t-79.5 -15.5q-21 0 -40.5 5.5t-34.5 15t-24 22t-9 26.5q0 15 10.5 25t25.5 10q12 0 19.5 -5t12.5 -14q8 -14 20 -24t34 -10q19 0 34.5 8t26.5 21t17.5 29t6.5 32q0 33 -22.5 50
t-51.5 25q-15 4 -15 16q0 9 7 14.5t16 8.5q16 5 32 13t29.5 19t22 26t8.5 34q0 20 -12.5 31t-35.5 11q-31 0 -49 -18t-28 -38q-9 -17 -28 -17t-19 19q0 13 9 31.5t27.5 35.5t46 29.5t64.5 12.5q52 0 77.5 -24.5t25.5 -56.5zM783 694q0 -3 -2.5 -7.5t-5.5 -8.5l-514 -665
q-5 -7 -10.5 -10t-14.5 -3h-26q-13 0 -13 12q0 6 8 16l515 665q5 7 10.5 10t14.5 3h24q14 0 14 -12zM713 344q-4 -5 -11.5 -16.5t-20.5 -26.5l-129 -152h117l31 143q4 18 8 31.5t6 20.5h-1z" />
    <glyph glyph-name="questiondown" unicode="&#xbf;" horiz-adv-x="535" 
d="M382 470q0 -18 -7 -33.5t-19 -27t-27.5 -18.5t-33.5 -7q-26 0 -45 19t-19 44q0 18 7 33.5t19 27t28 18t33 6.5q26 0 45 -18.5t19 -43.5zM407 -47q0 -20 -16.5 -46t-47 -49t-74.5 -39t-98 -16q-44 0 -76.5 11t-54.5 29t-33 41t-11 48q0 33 13 59t33 48t45.5 39t51.5 32
q19 11 31 20t19.5 19t12 22t9.5 30l20 73q4 16 21 16h48q16 0 16 -15q0 -2 -0.5 -6t-1.5 -9l-17 -107q-3 -20 -10.5 -33t-29.5 -25q-23 -12 -47.5 -28.5t-45 -36.5t-34 -43t-13.5 -50q0 -30 19.5 -47.5t53.5 -17.5q22 0 40 7t31.5 19t24 27t19.5 30q22 40 57 40
q20 0 32.5 -11.5t12.5 -30.5z" />
    <glyph glyph-name="Agrave" unicode="&#xc0;" horiz-adv-x="652" 
d="M585 17q0 -17 -18 -17h-87q-17 0 -19 17l-23 193h-249l-107 -195q-9 -15 -23 -15h-75q-8 0 -12.5 5t-4.5 10q0 6 7 18l380 656q5 8 10 12.5t16 4.5h83q17 0 20 -17l100 -655q1 -8 1.5 -11.5t0.5 -5.5zM404 506q-3 23 -3.5 46.5t-0.5 40.5v24h-2q-5 -13 -17 -44t-32 -67
l-121 -224h202zM462 782q0 -13 -13 -13h-30q-8 0 -12.5 4t-9.5 9l-83 101q-2 2 -3.5 6t-1.5 6q0 11 14.5 17t32.5 6q17 0 36.5 -5.5t26.5 -22.5l39 -94q1 -2 2.5 -6.5t1.5 -7.5z" />
    <glyph glyph-name="Aacute" unicode="&#xc1;" horiz-adv-x="652" 
d="M585 17q0 -17 -18 -17h-87q-17 0 -19 17l-23 193h-249l-107 -195q-9 -15 -23 -15h-75q-8 0 -12.5 5t-4.5 10q0 6 7 18l380 656q5 8 10 12.5t16 4.5h83q17 0 20 -17l100 -655q1 -8 1.5 -11.5t0.5 -5.5zM404 506q-3 23 -3.5 46.5t-0.5 40.5v24h-2q-5 -13 -17 -44t-32 -67
l-121 -224h202zM601 899q0 -7 -7 -14l-135 -108q-4 -3 -9.5 -5.5t-10.5 -2.5h-32q-12 0 -12 12q0 6 5 11l82 98q14 17 36 22.5t43 5.5q17 0 28.5 -5.5t11.5 -13.5z" />
    <glyph glyph-name="Acircumflex" unicode="&#xc2;" horiz-adv-x="652" 
d="M585 17q0 -17 -18 -17h-87q-17 0 -19 17l-23 193h-249l-107 -195q-9 -15 -23 -15h-75q-8 0 -12.5 5t-4.5 10q0 6 7 18l380 656q5 8 10 12.5t16 4.5h83q17 0 20 -17l100 -655q1 -8 1.5 -11.5t0.5 -5.5zM404 506q-3 23 -3.5 46.5t-0.5 40.5v24h-2q-5 -13 -17 -44t-32 -67
l-121 -224h202zM567 786q0 -9 -7 -16t-17 -7q-7 0 -12.5 3t-9.5 6l-64 50q-8 6 -17 6q-5 0 -10 -2t-9 -4l-86 -50q-5 -3 -12 -6t-13 -3q-9 0 -15 5t-6 13t6 14t14 11q32 20 60.5 43t57.5 54q5 5 12.5 9.5t16.5 4.5t14 -4.5t8 -9.5q16 -31 35 -54t43 -43q11 -9 11 -20z" />
    <glyph glyph-name="Atilde" unicode="&#xc3;" horiz-adv-x="652" 
d="M585 17q0 -17 -18 -17h-87q-17 0 -19 17l-23 193h-249l-107 -195q-9 -15 -23 -15h-75q-8 0 -12.5 5t-4.5 10q0 6 7 18l380 656q5 8 10 12.5t16 4.5h83q17 0 20 -17l100 -655q1 -8 1.5 -11.5t0.5 -5.5zM404 506q-3 23 -3.5 46.5t-0.5 40.5v24h-2q-5 -13 -17 -44t-32 -67
l-121 -224h202zM589 877q0 -8 -5.5 -24.5t-17.5 -33.5t-31.5 -29.5t-47.5 -12.5q-21 0 -33 8.5t-21.5 18t-19 18t-25.5 8.5t-25.5 -8.5t-17 -19t-14.5 -19t-17 -8.5q-18 0 -18 18q0 9 5.5 25.5t18 33t32 29t46.5 12.5q21 0 33 -8.5t21 -18t18.5 -18t25.5 -8.5t25.5 8.5
t17 19t14.5 19t18 8.5q18 0 18 -18z" />
    <glyph glyph-name="Adieresis" unicode="&#xc4;" horiz-adv-x="652" 
d="M585 17q0 -17 -18 -17h-87q-17 0 -19 17l-23 193h-249l-107 -195q-9 -15 -23 -15h-75q-8 0 -12.5 5t-4.5 10q0 6 7 18l380 656q5 8 10 12.5t16 4.5h83q17 0 20 -17l100 -655q1 -8 1.5 -11.5t0.5 -5.5zM404 506q-3 23 -3.5 46.5t-0.5 40.5v24h-2q-5 -13 -17 -44t-32 -67
l-121 -224h202zM403 833q0 -25 -19.5 -42t-44.5 -17q-20 0 -33.5 13.5t-13.5 31.5q0 25 19.5 42.5t44.5 17.5q20 0 33.5 -14t13.5 -32zM579 833q0 -25 -19.5 -42t-44.5 -17q-20 0 -33.5 13.5t-13.5 31.5q0 25 19.5 42.5t44.5 17.5q20 0 33.5 -14t13.5 -32z" />
    <glyph glyph-name="Aring" unicode="&#xc5;" horiz-adv-x="652" 
d="M585 17q0 -17 -18 -17h-87q-17 0 -19 17l-23 193h-249l-107 -195q-9 -15 -23 -15h-75q-8 0 -12.5 5t-4.5 10q0 6 7 18l380 656q5 8 10 12.5t16 4.5h83q17 0 20 -17l100 -655q1 -8 1.5 -11.5t0.5 -5.5zM404 506q-3 23 -3.5 46.5t-0.5 40.5v24h-2q-5 -13 -17 -44t-32 -67
l-121 -224h202zM536 863q0 -21 -8.5 -40t-23 -33.5t-34 -22.5t-40.5 -8q-33 0 -55 22t-22 53q0 21 8.5 40t23 33t34 22.5t40.5 8.5q33 0 55 -22t22 -53zM489 856q0 15 -9.5 27t-26.5 12q-21 0 -37 -16t-16 -37q0 -16 10 -27t27 -11q21 0 36.5 15.5t15.5 36.5z" />
    <glyph glyph-name="AE" unicode="&#xc6;" horiz-adv-x="854" 
d="M832 687q0 -1 -1 -6l-8 -41q-2 -6 -6.5 -10.5t-12.5 -4.5h-269l6 -220h212q16 0 16 -16v-2q0 -1 -1 -6l-9 -40q-2 -6 -6.5 -10.5t-12.5 -4.5h-198l6 -244h216q17 0 17 -16q0 -2 -1 -7l-9 -44q-2 -6 -6.5 -10.5t-12.5 -4.5h-304q-19 0 -19 17l3 203h-227l-130 -205
q-9 -15 -27 -15h-73q-16 0 -16 15q0 6 7 16l441 659q5 7 11 11.5t17 4.5h380q17 0 17 -16v-3zM442 613q-3 -6 -9.5 -20t-15.5 -31t-20 -36.5t-22 -37.5l-125 -197h183l2 197q0 18 1.5 37.5t3 36.5t2.5 30.5t2 20.5h-2z" />
    <glyph glyph-name="Ccedilla" unicode="&#xc7;" horiz-adv-x="638" 
d="M668 578q0 -29 -15.5 -44t-41.5 -15q-22 0 -35 11t-19 31q-4 12 -10 26.5t-18 27.5t-31.5 22t-50.5 9q-57 0 -103 -35t-77.5 -89.5t-48.5 -119.5t-17 -125q0 -91 41 -146t114 -55q28 0 51.5 6.5t43 16t35.5 21t28 21.5q17 13 32 13q14 0 21 -7t7 -18q0 -18 -18.5 -42.5
t-51 -47t-78 -38.5t-99.5 -16q-5 0 -8.5 0.5t-5.5 0.5l-36 -50q57 -1 82 -20.5t25 -46.5q0 -21 -12.5 -39.5t-34.5 -32t-52 -21t-65 -7.5q-42 0 -73 10t-31 27q0 11 7.5 16.5t18.5 5.5q8 0 15 -2t16 -4t20.5 -4t28.5 -2q35 0 58.5 14.5t23.5 33.5q0 15 -19 25.5t-64 10.5
q-16 0 -16 14q0 7 7 16l45 64q-48 11 -83.5 35.5t-59 59.5t-35 78t-11.5 91q0 91 29 175t81 148t124 102t159 38q54 0 93.5 -15t64.5 -37t37 -47t12 -44z" />
    <glyph glyph-name="Egrave" unicode="&#xc8;" horiz-adv-x="499" 
d="M549 690q0 -3 -1 -8l-9 -42q-2 -6 -6 -10.5t-12 -4.5h-244l-46 -220h201q16 0 16 -16q0 -3 -1 -8l-9 -40q-2 -6 -6.5 -10.5t-12.5 -4.5h-205l-52 -244h238q17 0 17 -16q0 -2 -1 -7l-10 -44q-2 -6 -6 -10.5t-12 -4.5h-347q-16 0 -16 16q0 3 1 8l141 667q2 6 6.5 10.5
t12.5 4.5h347q16 0 16 -16zM398 782q0 -13 -13 -13h-30q-8 0 -12.5 4t-9.5 9l-83 101q-2 2 -3.5 6t-1.5 6q0 11 14.5 17t32.5 6q17 0 36.5 -5.5t26.5 -22.5l39 -94q1 -2 2.5 -6.5t1.5 -7.5z" />
    <glyph glyph-name="Eacute" unicode="&#xc9;" horiz-adv-x="499" 
d="M549 690q0 -3 -1 -8l-9 -42q-2 -6 -6 -10.5t-12 -4.5h-244l-46 -220h201q16 0 16 -16q0 -3 -1 -8l-9 -40q-2 -6 -6.5 -10.5t-12.5 -4.5h-205l-52 -244h238q17 0 17 -16q0 -2 -1 -7l-10 -44q-2 -6 -6 -10.5t-12 -4.5h-347q-16 0 -16 16q0 3 1 8l141 667q2 6 6.5 10.5
t12.5 4.5h347q16 0 16 -16zM519 899q0 -7 -7 -14l-135 -108q-4 -3 -9.5 -5.5t-10.5 -2.5h-32q-12 0 -12 12q0 6 5 11l82 98q14 17 36 22.5t43 5.5q17 0 28.5 -5.5t11.5 -13.5z" />
    <glyph glyph-name="Ecircumflex" unicode="&#xca;" horiz-adv-x="499" 
d="M549 690q0 -3 -1 -8l-9 -42q-2 -6 -6 -10.5t-12 -4.5h-244l-46 -220h201q16 0 16 -16q0 -3 -1 -8l-9 -40q-2 -6 -6.5 -10.5t-12.5 -4.5h-205l-52 -244h238q17 0 17 -16q0 -2 -1 -7l-10 -44q-2 -6 -6 -10.5t-12 -4.5h-347q-16 0 -16 16q0 3 1 8l141 667q2 6 6.5 10.5
t12.5 4.5h347q16 0 16 -16zM504 786q0 -9 -7 -16t-17 -7q-7 0 -12.5 3t-9.5 6l-64 50q-8 6 -17 6q-5 0 -10 -2t-9 -4l-86 -50q-5 -3 -12 -6t-13 -3q-9 0 -15 5t-6 13t6 14t14 11q32 20 60.5 43t57.5 54q5 5 12.5 9.5t16.5 4.5t14 -4.5t8 -9.5q16 -31 35 -54t43 -43
q11 -9 11 -20z" />
    <glyph glyph-name="Edieresis" unicode="&#xcb;" horiz-adv-x="499" 
d="M549 690q0 -3 -1 -8l-9 -42q-2 -6 -6 -10.5t-12 -4.5h-244l-46 -220h201q16 0 16 -16q0 -3 -1 -8l-9 -40q-2 -6 -6.5 -10.5t-12.5 -4.5h-205l-52 -244h238q17 0 17 -16q0 -2 -1 -7l-10 -44q-2 -6 -6 -10.5t-12 -4.5h-347q-16 0 -16 16q0 3 1 8l141 667q2 6 6.5 10.5
t12.5 4.5h347q16 0 16 -16zM342 833q0 -25 -19.5 -42t-44.5 -17q-20 0 -33.5 13.5t-13.5 31.5q0 25 19.5 42.5t44.5 17.5q20 0 33.5 -14t13.5 -32zM518 833q0 -25 -19.5 -42t-44.5 -17q-20 0 -33.5 13.5t-13.5 31.5q0 25 19.5 42.5t44.5 17.5q20 0 33.5 -14t13.5 -32z" />
    <glyph glyph-name="Igrave" unicode="&#xcc;" horiz-adv-x="279" 
d="M295 690q0 -3 -1 -8l-142 -667q-2 -6 -6.5 -10.5t-12.5 -4.5h-88q-16 0 -16 16q0 3 1 8l142 667q2 6 6.5 10.5t12.5 4.5h88q16 0 16 -16zM297 782q0 -13 -13 -13h-30q-8 0 -12.5 4t-9.5 9l-83 101q-2 2 -3.5 6t-1.5 6q0 11 14.5 17t32.5 6q17 0 36.5 -5.5t26.5 -22.5
l39 -94q1 -2 2.5 -6.5t1.5 -7.5z" />
    <glyph glyph-name="Iacute" unicode="&#xcd;" horiz-adv-x="279" 
d="M295 690q0 -3 -1 -8l-142 -667q-2 -6 -6.5 -10.5t-12.5 -4.5h-88q-16 0 -16 16q0 3 1 8l142 667q2 6 6.5 10.5t12.5 4.5h88q16 0 16 -16zM406 899q0 -7 -7 -14l-135 -108q-4 -3 -9.5 -5.5t-10.5 -2.5h-32q-12 0 -12 12q0 6 5 11l82 98q14 17 36 22.5t43 5.5
q17 0 28.5 -5.5t11.5 -13.5z" />
    <glyph glyph-name="Icircumflex" unicode="&#xce;" horiz-adv-x="279" 
d="M295 690q0 -3 -1 -8l-142 -667q-2 -6 -6.5 -10.5t-12.5 -4.5h-88q-16 0 -16 16q0 3 1 8l142 667q2 6 6.5 10.5t12.5 4.5h88q16 0 16 -16zM386 786q0 -9 -7 -16t-17 -7q-7 0 -12.5 3t-9.5 6l-64 50q-8 6 -17 6q-5 0 -10 -2t-9 -4l-86 -50q-5 -3 -12 -6t-13 -3q-9 0 -15 5
t-6 13t6 14t14 11q32 20 60.5 43t57.5 54q5 5 12.5 9.5t16.5 4.5t14 -4.5t8 -9.5q16 -31 35 -54t43 -43q11 -9 11 -20z" />
    <glyph glyph-name="Idieresis" unicode="&#xcf;" horiz-adv-x="279" 
d="M295 690q0 -3 -1 -8l-142 -667q-2 -6 -6.5 -10.5t-12.5 -4.5h-88q-16 0 -16 16q0 3 1 8l142 667q2 6 6.5 10.5t12.5 4.5h88q16 0 16 -16zM224 833q0 -25 -19.5 -42t-44.5 -17q-20 0 -33.5 13.5t-13.5 31.5q0 25 19.5 42.5t44.5 17.5q20 0 33.5 -14t13.5 -32zM400 833
q0 -25 -19.5 -42t-44.5 -17q-20 0 -33.5 13.5t-13.5 31.5q0 25 19.5 42.5t44.5 17.5q20 0 33.5 -14t13.5 -32z" />
    <glyph glyph-name="Eth" unicode="&#xd0;" horiz-adv-x="697" 
d="M676 453q0 -50 -9.5 -101t-29 -99t-48 -91t-66.5 -75q-113 -95 -305 -95q-25 0 -50.5 1.5t-47.5 3.5t-38.5 5t-22.5 5q-15 4 -15 20v4q0 2 2 9l61 290h-49q-17 0 -17 17q0 3 1 7l8 33q2 6 6 10.5t12 4.5h55l58 274q2 9 7 14t16 8q7 2 22.5 4.5t37.5 5t48.5 4.5t55.5 2
q77 0 135 -19t96.5 -53.5t57.5 -82.5t19 -106zM550 464q0 39 -10 72t-32 57t-57 37.5t-84 13.5q-22 0 -42.5 -1.5t-29.5 -3.5l-50 -237h106q16 0 16 -16v-2q0 -1 -1 -6l-7 -33q-2 -6 -6.5 -10.5t-12.5 -4.5h-111l-54 -257q11 -2 29.5 -4t40.5 -2q62 0 110 20.5t84 58.5
q26 27 46.5 66t35 82t22 87.5t7.5 82.5z" />
    <glyph glyph-name="Ntilde" unicode="&#xd1;" horiz-adv-x="715" 
d="M734 690q0 -3 -1 -8l-141 -666q-3 -16 -21 -16h-70q-11 0 -14.5 4.5t-7.5 12.5l-202 446q-14 32 -24 66t-14 50h-2q-1 -7 -2.5 -20t-4 -30t-5.5 -36.5t-7 -37.5l-93 -439q-3 -16 -20 -16h-63q-17 0 -17 16v3q0 2 2 8l141 663q3 16 21 16h90q9 0 13.5 -4.5t8.5 -12.5
l188 -414q12 -27 22.5 -60.5t15.5 -57.5h2q2 18 7.5 55.5t13.5 75.5l85 403q3 15 20 15h63q16 0 16 -16zM622 877q0 -8 -5.5 -24.5t-17.5 -33.5t-31.5 -29.5t-47.5 -12.5q-21 0 -33 8.5t-21.5 18t-19 18t-25.5 8.5t-25.5 -8.5t-17 -19t-14.5 -19t-17 -8.5q-18 0 -18 18
q0 9 5.5 25.5t18 33t32 29t46.5 12.5q21 0 33 -8.5t21 -18t18.5 -18t25.5 -8.5t25.5 8.5t17 19t14.5 19t18 8.5q18 0 18 -18z" />
    <glyph glyph-name="Ograve" unicode="&#xd2;" horiz-adv-x="724" 
d="M703 455q0 -91 -28 -176t-79 -150t-122.5 -104.5t-158.5 -39.5q-53 0 -98.5 18.5t-78.5 53.5t-52 85t-19 114q0 92 28.5 176.5t79.5 148.5t122 102t157 38q55 0 101 -19t79 -53.5t51 -83.5t18 -110zM577 470q0 81 -35 127.5t-98 46.5q-48 0 -87.5 -24t-71.5 -68
q-21 -29 -37.5 -66.5t-28 -78.5t-18 -82.5t-6.5 -77.5q0 -85 36 -131t96 -46q42 0 79 20t67 56q24 29 43 69t32.5 84t21 88.5t7.5 82.5zM509 782q0 -13 -13 -13h-30q-8 0 -12.5 4t-9.5 9l-83 101q-2 2 -3.5 6t-1.5 6q0 11 14.5 17t32.5 6q17 0 36.5 -5.5t26.5 -22.5l39 -94
q1 -2 2.5 -6.5t1.5 -7.5z" />
    <glyph glyph-name="Oacute" unicode="&#xd3;" horiz-adv-x="724" 
d="M703 455q0 -91 -28 -176t-79 -150t-122.5 -104.5t-158.5 -39.5q-53 0 -98.5 18.5t-78.5 53.5t-52 85t-19 114q0 92 28.5 176.5t79.5 148.5t122 102t157 38q55 0 101 -19t79 -53.5t51 -83.5t18 -110zM577 470q0 81 -35 127.5t-98 46.5q-48 0 -87.5 -24t-71.5 -68
q-21 -29 -37.5 -66.5t-28 -78.5t-18 -82.5t-6.5 -77.5q0 -85 36 -131t96 -46q42 0 79 20t67 56q24 29 43 69t32.5 84t21 88.5t7.5 82.5zM625 899q0 -7 -7 -14l-135 -108q-4 -3 -9.5 -5.5t-10.5 -2.5h-32q-12 0 -12 12q0 6 5 11l82 98q14 17 36 22.5t43 5.5q17 0 28.5 -5.5
t11.5 -13.5z" />
    <glyph glyph-name="Ocircumflex" unicode="&#xd4;" horiz-adv-x="724" 
d="M703 455q0 -91 -28 -176t-79 -150t-122.5 -104.5t-158.5 -39.5q-53 0 -98.5 18.5t-78.5 53.5t-52 85t-19 114q0 92 28.5 176.5t79.5 148.5t122 102t157 38q55 0 101 -19t79 -53.5t51 -83.5t18 -110zM577 470q0 81 -35 127.5t-98 46.5q-48 0 -87.5 -24t-71.5 -68
q-21 -29 -37.5 -66.5t-28 -78.5t-18 -82.5t-6.5 -77.5q0 -85 36 -131t96 -46q42 0 79 20t67 56q24 29 43 69t32.5 84t21 88.5t7.5 82.5zM605 786q0 -9 -7 -16t-17 -7q-7 0 -12.5 3t-9.5 6l-64 50q-8 6 -17 6q-5 0 -10 -2t-9 -4l-86 -50q-5 -3 -12 -6t-13 -3q-9 0 -15 5
t-6 13t6 14t14 11q32 20 60.5 43t57.5 54q5 5 12.5 9.5t16.5 4.5t14 -4.5t8 -9.5q16 -31 35 -54t43 -43q11 -9 11 -20z" />
    <glyph glyph-name="Otilde" unicode="&#xd5;" horiz-adv-x="724" 
d="M703 455q0 -91 -28 -176t-79 -150t-122.5 -104.5t-158.5 -39.5q-53 0 -98.5 18.5t-78.5 53.5t-52 85t-19 114q0 92 28.5 176.5t79.5 148.5t122 102t157 38q55 0 101 -19t79 -53.5t51 -83.5t18 -110zM577 470q0 81 -35 127.5t-98 46.5q-48 0 -87.5 -24t-71.5 -68
q-21 -29 -37.5 -66.5t-28 -78.5t-18 -82.5t-6.5 -77.5q0 -85 36 -131t96 -46q42 0 79 20t67 56q24 29 43 69t32.5 84t21 88.5t7.5 82.5zM625 877q0 -8 -5.5 -24.5t-17.5 -33.5t-31.5 -29.5t-47.5 -12.5q-21 0 -33 8.5t-21.5 18t-19 18t-25.5 8.5t-25.5 -8.5t-17 -19
t-14.5 -19t-17 -8.5q-18 0 -18 18q0 9 5.5 25.5t18 33t32 29t46.5 12.5q21 0 33 -8.5t21 -18t18.5 -18t25.5 -8.5t25.5 8.5t17 19t14.5 19t18 8.5q18 0 18 -18z" />
    <glyph glyph-name="Odieresis" unicode="&#xd6;" horiz-adv-x="724" 
d="M703 455q0 -91 -28 -176t-79 -150t-122.5 -104.5t-158.5 -39.5q-53 0 -98.5 18.5t-78.5 53.5t-52 85t-19 114q0 92 28.5 176.5t79.5 148.5t122 102t157 38q55 0 101 -19t79 -53.5t51 -83.5t18 -110zM577 470q0 81 -35 127.5t-98 46.5q-48 0 -87.5 -24t-71.5 -68
q-21 -29 -37.5 -66.5t-28 -78.5t-18 -82.5t-6.5 -77.5q0 -85 36 -131t96 -46q42 0 79 20t67 56q24 29 43 69t32.5 84t21 88.5t7.5 82.5zM444 833q0 -25 -19.5 -42t-44.5 -17q-20 0 -33.5 13.5t-13.5 31.5q0 25 19.5 42.5t44.5 17.5q20 0 33.5 -14t13.5 -32zM620 833
q0 -25 -19.5 -42t-44.5 -17q-20 0 -33.5 13.5t-13.5 31.5q0 25 19.5 42.5t44.5 17.5q20 0 33.5 -14t13.5 -32z" />
    <glyph glyph-name="multiply" unicode="&#xd7;" horiz-adv-x="556" 
d="M518 444q0 -6 -8 -14l-163 -134l104 -131q5 -7 5 -13q0 -9 -7 -14l-38 -31q-7 -5 -13 -5q-8 0 -13 7l-105 133l-164 -134q-7 -5 -13 -5q-7 0 -11 6l-27 33q-5 7 -5 12q0 8 7 13l166 136l-103 130q-2 2 -3.5 5.5t-1.5 6.5q0 8 7 14l38 32q6 5 13 5t12 -7l104 -132l164 134
q4 4 11 4q6 0 11 -5l29 -35q4 -6 4 -11z" />
    <glyph glyph-name="Oslash" unicode="&#xd8;" horiz-adv-x="738" 
d="M777 745q0 -5 -6 -11l-103 -113q23 -34 35.5 -76t12.5 -90q0 -86 -26.5 -170t-77 -151t-124 -108t-167.5 -41q-54 0 -97.5 17.5t-75.5 47.5l-100 -110q-8 -8 -13 -8q-4 0 -8 3t-9 8q-12 10 -12 16q0 5 6 11l105 116q-24 35 -37 78.5t-13 92.5q0 86 26.5 169t77.5 148.5
t124.5 106t166.5 40.5q54 0 98.5 -16.5t76.5 -47.5l98 107q5 7 12 7q5 0 9 -2.5t9 -7.5q12 -10 12 -16zM571 584q-17 30 -45.5 48t-73.5 18q-52 0 -97 -26t-80 -76q-21 -29 -37 -65t-27 -74.5t-17 -77.5t-6 -75q0 -46 10 -82zM598 462q0 36 -8 73l-372 -409
q17 -29 45.5 -45.5t70.5 -16.5q89 0 156 78q24 28 44 66.5t34.5 81t22 87t7.5 85.5z" />
    <glyph glyph-name="Ugrave" unicode="&#xd9;" horiz-adv-x="652" 
d="M672 690q0 -3 -1 -8l-100 -471q-12 -59 -39 -101.5t-65.5 -70.5t-86 -41t-100.5 -13q-44 0 -84 11t-70 33t-48 55t-18 77q0 14 1 27.5t4 27.5l101 475q2 6 6.5 10.5t12.5 4.5h88q16 0 16 -16q0 -3 -1 -8l-99 -466q-2 -8 -3 -17t-1 -19q0 -50 30.5 -76t81.5 -26
q59 0 105.5 36t60.5 102l101 475q2 6 6.5 10.5t12.5 4.5h73q16 0 16 -16zM486 782q0 -13 -13 -13h-30q-8 0 -12.5 4t-9.5 9l-83 101q-2 2 -3.5 6t-1.5 6q0 11 14.5 17t32.5 6q17 0 36.5 -5.5t26.5 -22.5l39 -94q1 -2 2.5 -6.5t1.5 -7.5z" />
    <glyph glyph-name="Uacute" unicode="&#xda;" horiz-adv-x="652" 
d="M672 690q0 -3 -1 -8l-100 -471q-12 -59 -39 -101.5t-65.5 -70.5t-86 -41t-100.5 -13q-44 0 -84 11t-70 33t-48 55t-18 77q0 14 1 27.5t4 27.5l101 475q2 6 6.5 10.5t12.5 4.5h88q16 0 16 -16q0 -3 -1 -8l-99 -466q-2 -8 -3 -17t-1 -19q0 -50 30.5 -76t81.5 -26
q59 0 105.5 36t60.5 102l101 475q2 6 6.5 10.5t12.5 4.5h73q16 0 16 -16zM594 899q0 -7 -7 -14l-135 -108q-4 -3 -9.5 -5.5t-10.5 -2.5h-32q-12 0 -12 12q0 6 5 11l82 98q14 17 36 22.5t43 5.5q17 0 28.5 -5.5t11.5 -13.5z" />
    <glyph glyph-name="Ucircumflex" unicode="&#xdb;" horiz-adv-x="652" 
d="M672 690q0 -3 -1 -8l-100 -471q-12 -59 -39 -101.5t-65.5 -70.5t-86 -41t-100.5 -13q-44 0 -84 11t-70 33t-48 55t-18 77q0 14 1 27.5t4 27.5l101 475q2 6 6.5 10.5t12.5 4.5h88q16 0 16 -16q0 -3 -1 -8l-99 -466q-2 -8 -3 -17t-1 -19q0 -50 30.5 -76t81.5 -26
q59 0 105.5 36t60.5 102l101 475q2 6 6.5 10.5t12.5 4.5h73q16 0 16 -16zM577 786q0 -9 -7 -16t-17 -7q-7 0 -12.5 3t-9.5 6l-64 50q-8 6 -17 6q-5 0 -10 -2t-9 -4l-86 -50q-5 -3 -12 -6t-13 -3q-9 0 -15 5t-6 13t6 14t14 11q32 20 60.5 43t57.5 54q5 5 12.5 9.5t16.5 4.5
t14 -4.5t8 -9.5q16 -31 35 -54t43 -43q11 -9 11 -20z" />
    <glyph glyph-name="Udieresis" unicode="&#xdc;" horiz-adv-x="652" 
d="M672 690q0 -3 -1 -8l-100 -471q-12 -59 -39 -101.5t-65.5 -70.5t-86 -41t-100.5 -13q-44 0 -84 11t-70 33t-48 55t-18 77q0 14 1 27.5t4 27.5l101 475q2 6 6.5 10.5t12.5 4.5h88q16 0 16 -16q0 -3 -1 -8l-99 -466q-2 -8 -3 -17t-1 -19q0 -50 30.5 -76t81.5 -26
q59 0 105.5 36t60.5 102l101 475q2 6 6.5 10.5t12.5 4.5h73q16 0 16 -16zM412 833q0 -25 -19.5 -42t-44.5 -17q-20 0 -33.5 13.5t-13.5 31.5q0 25 19.5 42.5t44.5 17.5q20 0 33.5 -14t13.5 -32zM588 833q0 -25 -19.5 -42t-44.5 -17q-20 0 -33.5 13.5t-13.5 31.5
q0 25 19.5 42.5t44.5 17.5q20 0 33.5 -14t13.5 -32z" />
    <glyph glyph-name="Yacute" unicode="&#xdd;" horiz-adv-x="564" 
d="M640 691q0 -6 -6 -14l-274 -352l-66 -310q-3 -15 -19 -15h-88q-16 0 -16 16v2q0 1 1 6l64 301l-125 353q-2 6 -2 11q0 17 19 17h89q18 0 23 -17l79 -267h2l202 271q9 13 26 13h73q18 0 18 -15zM558 899q0 -7 -7 -14l-135 -108q-4 -3 -9.5 -5.5t-10.5 -2.5h-32
q-12 0 -12 12q0 6 5 11l82 98q14 17 36 22.5t43 5.5q17 0 28.5 -5.5t11.5 -13.5z" />
    <glyph glyph-name="Thorn" unicode="&#xde;" horiz-adv-x="576" 
d="M565 419q0 -47 -16 -93t-54.5 -83t-103 -59.5t-160.5 -22.5q-30 0 -52 3l-32 -149q-2 -6 -6.5 -10.5t-12.5 -4.5h-87q-16 0 -16 16q0 4 1 9l141 666q2 6 6.5 10.5t12.5 4.5h87q17 0 17 -16q0 -2 -2 -12l-22 -100q14 2 33 4t42 2q51 0 92 -11t70.5 -32t45.5 -52t16 -70z
M440 416q0 48 -27.5 73.5t-87.5 25.5q-24 0 -43 -2t-30 -4l-59 -277q8 -2 19.5 -2.5t22.5 -0.5q57 0 96 17t63.5 44t35 60t10.5 66z" />
    <glyph glyph-name="germandbls" unicode="&#xdf;" horiz-adv-x="598" 
d="M564 660q0 -50 -24 -86t-53 -65.5t-53 -56.5t-24 -60q0 -27 19.5 -48.5t43.5 -45.5t43.5 -53t19.5 -70q0 -34 -13.5 -67.5t-39 -60t-61.5 -43t-81 -16.5q-26 0 -49 6.5t-40 17t-27 24t-10 27.5q0 22 14 34.5t32 12.5q14 0 23.5 -6t17.5 -17q9 -13 21.5 -21.5t32.5 -8.5
q17 0 31.5 7.5t25.5 20t17 28.5t6 33q0 31 -21.5 56.5t-47 50t-47 51.5t-21.5 61q0 43 25 75.5t55.5 63.5t55.5 63.5t25 75.5q0 34 -21.5 52.5t-56.5 18.5q-20 0 -39.5 -8t-37.5 -26t-32 -46t-23 -68l-118 -551q-2 -6 -6.5 -10.5t-12.5 -4.5h-78q-16 0 -16 16v3q0 2 1 7
l99 458q17 80 45 136t65 91t81 51t93 16q33 0 62.5 -8.5t51 -23.5t34.5 -37t13 -49z" />
    <glyph glyph-name="agrave" unicode="&#xe0;" horiz-adv-x="508" 
d="M473 412q0 -5 -0.5 -14t-2.5 -18l-60 -282q-7 -32 -18.5 -49t-35.5 -31q-9 -5 -26 -10.5t-38 -10t-44.5 -7.5t-46.5 -3q-39 0 -72.5 8t-58.5 23.5t-39 38t-14 51.5q0 58 33.5 95.5t83 60.5t107.5 35.5t107 21.5l14 68q2 12 2.5 15.5t0.5 7.5q0 28 -16 43t-43 15
q-38 0 -64.5 -22.5t-43.5 -56.5q-16 -33 -57 -33q-19 0 -31 10.5t-12 27.5q0 19 15 43t44 44t72 34t99 14q63 0 104 -30.5t41 -88.5zM337 266q-34 -6 -71 -16.5t-67.5 -28t-50.5 -43t-20 -61.5q0 -29 20.5 -48.5t62.5 -19.5q29 0 57 13t35 45zM397 594q0 -13 -13 -13h-30
q-8 0 -12.5 4t-9.5 9l-83 101q-2 2 -3.5 6t-1.5 6q0 11 14.5 17t32.5 6q23 0 40.5 -7t22.5 -21l39 -94q1 -2 2.5 -6.5t1.5 -7.5z" />
    <glyph glyph-name="aacute" unicode="&#xe1;" horiz-adv-x="508" 
d="M473 412q0 -5 -0.5 -14t-2.5 -18l-60 -282q-7 -32 -18.5 -49t-35.5 -31q-9 -5 -26 -10.5t-38 -10t-44.5 -7.5t-46.5 -3q-39 0 -72.5 8t-58.5 23.5t-39 38t-14 51.5q0 58 33.5 95.5t83 60.5t107.5 35.5t107 21.5l14 68q2 12 2.5 15.5t0.5 7.5q0 28 -16 43t-43 15
q-38 0 -64.5 -22.5t-43.5 -56.5q-16 -33 -57 -33q-19 0 -31 10.5t-12 27.5q0 19 15 43t44 44t72 34t99 14q63 0 104 -30.5t41 -88.5zM337 266q-34 -6 -71 -16.5t-67.5 -28t-50.5 -43t-20 -61.5q0 -29 20.5 -48.5t62.5 -19.5q29 0 57 13t35 45zM502 711q0 -4 -2.5 -8t-4.5 -6
l-135 -108q-4 -3 -9.5 -5.5t-10.5 -2.5h-32q-12 0 -12 12q0 6 5 11l82 98q14 17 36 22.5t43 5.5q14 0 27 -5t13 -14z" />
    <glyph glyph-name="acircumflex" unicode="&#xe2;" horiz-adv-x="508" 
d="M473 412q0 -5 -0.5 -14t-2.5 -18l-60 -282q-7 -32 -18.5 -49t-35.5 -31q-9 -5 -26 -10.5t-38 -10t-44.5 -7.5t-46.5 -3q-39 0 -72.5 8t-58.5 23.5t-39 38t-14 51.5q0 58 33.5 95.5t83 60.5t107.5 35.5t107 21.5l14 68q2 12 2.5 15.5t0.5 7.5q0 28 -16 43t-43 15
q-38 0 -64.5 -22.5t-43.5 -56.5q-16 -33 -57 -33q-19 0 -31 10.5t-12 27.5q0 19 15 43t44 44t72 34t99 14q63 0 104 -30.5t41 -88.5zM337 266q-34 -6 -71 -16.5t-67.5 -28t-50.5 -43t-20 -61.5q0 -29 20.5 -48.5t62.5 -19.5q29 0 57 13t35 45zM476 598q0 -9 -7 -16t-17 -7
q-7 0 -12.5 3t-9.5 6l-64 50q-8 6 -17 6q-5 0 -10 -2t-9 -4l-86 -50q-5 -3 -12 -6t-13 -3q-9 0 -15 5t-6 13t6 14t14 11q32 20 60.5 43t57.5 54q5 5 12.5 9.5t16.5 4.5t14 -4.5t8 -9.5q16 -31 35 -54t43 -43q11 -9 11 -20z" />
    <glyph glyph-name="atilde" unicode="&#xe3;" horiz-adv-x="508" 
d="M473 412q0 -5 -0.5 -14t-2.5 -18l-60 -282q-7 -32 -18.5 -49t-35.5 -31q-9 -5 -26 -10.5t-38 -10t-44.5 -7.5t-46.5 -3q-39 0 -72.5 8t-58.5 23.5t-39 38t-14 51.5q0 58 33.5 95.5t83 60.5t107.5 35.5t107 21.5l14 68q2 12 2.5 15.5t0.5 7.5q0 28 -16 43t-43 15
q-38 0 -64.5 -22.5t-43.5 -56.5q-16 -33 -57 -33q-19 0 -31 10.5t-12 27.5q0 19 15 43t44 44t72 34t99 14q63 0 104 -30.5t41 -88.5zM337 266q-34 -6 -71 -16.5t-67.5 -28t-50.5 -43t-20 -61.5q0 -29 20.5 -48.5t62.5 -19.5q29 0 57 13t35 45zM495 689q0 -8 -5.5 -24.5
t-17.5 -33.5t-31.5 -29.5t-47.5 -12.5q-21 0 -33 8.5t-21.5 18t-19 18t-25.5 8.5t-25.5 -8.5t-17 -19t-14.5 -19t-17 -8.5q-18 0 -18 18q0 9 5.5 25.5t18 33t32 29t46.5 12.5q21 0 33 -8.5t21 -18t18.5 -18t25.5 -8.5t25.5 8.5t17 19t14.5 19t18 8.5q18 0 18 -18z" />
    <glyph glyph-name="adieresis" unicode="&#xe4;" horiz-adv-x="508" 
d="M473 412q0 -5 -0.5 -14t-2.5 -18l-60 -282q-7 -32 -18.5 -49t-35.5 -31q-9 -5 -26 -10.5t-38 -10t-44.5 -7.5t-46.5 -3q-39 0 -72.5 8t-58.5 23.5t-39 38t-14 51.5q0 58 33.5 95.5t83 60.5t107.5 35.5t107 21.5l14 68q2 12 2.5 15.5t0.5 7.5q0 28 -16 43t-43 15
q-38 0 -64.5 -22.5t-43.5 -56.5q-16 -33 -57 -33q-19 0 -31 10.5t-12 27.5q0 19 15 43t44 44t72 34t99 14q63 0 104 -30.5t41 -88.5zM337 266q-34 -6 -71 -16.5t-67.5 -28t-50.5 -43t-20 -61.5q0 -29 20.5 -48.5t62.5 -19.5q29 0 57 13t35 45zM320 645q0 -25 -19.5 -42
t-44.5 -17q-20 0 -33.5 13.5t-13.5 31.5q0 25 19.5 42.5t44.5 17.5q20 0 33.5 -14t13.5 -32zM495 645q0 -25 -19.5 -42t-44.5 -17q-20 0 -33.5 13.5t-13.5 31.5q0 25 19.5 42.5t44.5 17.5q20 0 33.5 -14t13.5 -32z" />
    <glyph glyph-name="aring" unicode="&#xe5;" horiz-adv-x="508" 
d="M473 412q0 -5 -0.5 -14t-2.5 -18l-60 -282q-7 -32 -18.5 -49t-35.5 -31q-9 -5 -26 -10.5t-38 -10t-44.5 -7.5t-46.5 -3q-39 0 -72.5 8t-58.5 23.5t-39 38t-14 51.5q0 58 33.5 95.5t83 60.5t107.5 35.5t107 21.5l14 68q2 12 2.5 15.5t0.5 7.5q0 28 -16 43t-43 15
q-38 0 -64.5 -22.5t-43.5 -56.5q-16 -33 -57 -33q-19 0 -31 10.5t-12 27.5q0 19 15 43t44 44t72 34t99 14q63 0 104 -30.5t41 -88.5zM337 266q-34 -6 -71 -16.5t-67.5 -28t-50.5 -43t-20 -61.5q0 -29 20.5 -48.5t62.5 -19.5q29 0 57 13t35 45zM450 677q0 -21 -8.5 -40
t-23 -33.5t-34 -22.5t-40.5 -8q-33 0 -55 22t-22 53q0 21 8.5 40t23 33t34 22.5t40.5 8.5q33 0 55 -22t22 -53zM403 670q0 15 -9.5 27t-26.5 12q-21 0 -37 -16t-16 -37q0 -16 10 -27t27 -11q21 0 36.5 15.5t15.5 36.5z" />
    <glyph glyph-name="ae" unicode="&#xe6;" horiz-adv-x="802" 
d="M778 373q0 -13 -2 -26.5t-7 -24.5q-7 -16 -26 -19l-302 -40q-2 -12 -3 -24.5t-1 -25.5q0 -26 5.5 -50.5t18.5 -43t34.5 -30t54.5 -11.5q23 0 43.5 8t37.5 21t31.5 27.5t25.5 28.5q6 7 13.5 12t16.5 5q10 0 15.5 -6t5.5 -15q0 -16 -14 -44.5t-41.5 -57t-69.5 -49.5
t-98 -21q-29 0 -53.5 9t-43.5 24t-30.5 33.5t-15.5 37.5h-2q-9 -19 -26.5 -37.5t-41.5 -33.5t-54.5 -24t-66.5 -9q-77 0 -121 31.5t-44 85.5q0 40 16.5 69.5t43 50.5t61.5 35.5t72 23.5t73.5 14.5t66.5 9.5l17 83q1 5 1.5 9.5t0.5 9.5q0 29 -18.5 44.5t-46.5 15.5
q-38 0 -64 -22.5t-43 -56.5q-17 -33 -55 -33q-19 0 -31 10.5t-12 27.5q0 19 15 42.5t43 44t68.5 34.5t91.5 14q54 0 88.5 -27t34.5 -67v-2h2q26 38 71.5 67t108.5 29q36 0 65 -12.5t49 -34t31 -50t11 -60.5zM672 384q0 35 -16 60t-55 25q-28 0 -52 -12.5t-42.5 -33.5
t-32.5 -48.5t-22 -57.5l217 31q2 9 2.5 18.5t0.5 17.5zM338 254q-32 -4 -68.5 -12t-68 -23.5t-52.5 -40.5t-21 -62q0 -29 18 -47.5t56 -18.5q41 0 73 26t40 67z" />
    <glyph glyph-name="ccedilla" unicode="&#xe7;" horiz-adv-x="498" 
d="M493 404q0 -21 -12.5 -38t-43.5 -17q-40 0 -47 45q-2 12 -6.5 25t-12.5 24t-21.5 18t-33.5 7q-35 0 -64.5 -23t-51.5 -59.5t-34 -81.5t-12 -88q0 -59 25.5 -97t81.5 -38q23 0 42.5 8t35.5 20.5t29.5 27.5t24.5 29q12 17 29 17q22 0 22 -24q0 -15 -12.5 -42t-38 -55
t-63.5 -49.5t-89 -24.5l-39 -52q57 -1 82.5 -20.5t25.5 -46.5q0 -21 -12.5 -39.5t-34.5 -32t-52 -21t-65 -7.5q-42 0 -73 10t-31 27q0 11 7 16.5t18 5.5q8 0 15.5 -2t16 -4t20.5 -4t29 -2q35 0 58.5 14.5t23.5 33.5q0 15 -18.5 25.5t-63.5 10.5q-8 0 -12.5 4.5t-4.5 9.5
t7 16l43 62q-29 6 -54.5 21.5t-44 39.5t-29 56.5t-10.5 73.5q0 70 20.5 133t58 111t90 76t116.5 28q43 0 74 -13t51.5 -32.5t30 -41.5t9.5 -40z" />
    <glyph glyph-name="egrave" unicode="&#xe8;" horiz-adv-x="522" 
d="M498 374q0 -12 -1.5 -24t-4.5 -22q-4 -14 -12 -19.5t-21 -7.5l-306 -48q-1 -9 -1.5 -20.5t-0.5 -19.5q0 -26 5.5 -50t18.5 -43t34.5 -30.5t53.5 -11.5q24 0 44.5 8t38.5 20.5t33 28t27 29.5q14 17 30 17q11 0 16.5 -7t5.5 -15q0 -16 -14.5 -45t-43.5 -57t-71.5 -49
t-97.5 -21q-41 0 -75.5 13t-60 38.5t-39.5 62t-14 83.5q0 66 19.5 128.5t56.5 111t90.5 78t121.5 29.5q39 0 70.5 -13t53 -34.5t33 -50t11.5 -59.5zM390 382q0 37 -17.5 61.5t-60.5 24.5q-30 0 -54.5 -13.5t-43.5 -36t-32.5 -51t-20.5 -57.5l226 37q3 18 3 35zM382 594
q0 -13 -13 -13h-30q-8 0 -12.5 4t-9.5 9l-83 101q-2 2 -3.5 6t-1.5 6q0 11 14.5 17t32.5 6q23 0 40.5 -7t22.5 -21l39 -94q1 -2 2.5 -6.5t1.5 -7.5z" />
    <glyph glyph-name="eacute" unicode="&#xe9;" horiz-adv-x="522" 
d="M498 374q0 -12 -1.5 -24t-4.5 -22q-4 -14 -12 -19.5t-21 -7.5l-306 -48q-1 -9 -1.5 -20.5t-0.5 -19.5q0 -26 5.5 -50t18.5 -43t34.5 -30.5t53.5 -11.5q24 0 44.5 8t38.5 20.5t33 28t27 29.5q14 17 30 17q11 0 16.5 -7t5.5 -15q0 -16 -14.5 -45t-43.5 -57t-71.5 -49
t-97.5 -21q-41 0 -75.5 13t-60 38.5t-39.5 62t-14 83.5q0 66 19.5 128.5t56.5 111t90.5 78t121.5 29.5q39 0 70.5 -13t53 -34.5t33 -50t11.5 -59.5zM390 382q0 37 -17.5 61.5t-60.5 24.5q-30 0 -54.5 -13.5t-43.5 -36t-32.5 -51t-20.5 -57.5l226 37q3 18 3 35zM499 711
q0 -4 -2.5 -8t-4.5 -6l-135 -108q-4 -3 -9.5 -5.5t-10.5 -2.5h-32q-12 0 -12 12q0 6 5 11l82 98q14 17 36 22.5t43 5.5q14 0 27 -5t13 -14z" />
    <glyph glyph-name="ecircumflex" unicode="&#xea;" horiz-adv-x="522" 
d="M498 374q0 -12 -1.5 -24t-4.5 -22q-4 -14 -12 -19.5t-21 -7.5l-306 -48q-1 -9 -1.5 -20.5t-0.5 -19.5q0 -26 5.5 -50t18.5 -43t34.5 -30.5t53.5 -11.5q24 0 44.5 8t38.5 20.5t33 28t27 29.5q14 17 30 17q11 0 16.5 -7t5.5 -15q0 -16 -14.5 -45t-43.5 -57t-71.5 -49
t-97.5 -21q-41 0 -75.5 13t-60 38.5t-39.5 62t-14 83.5q0 66 19.5 128.5t56.5 111t90.5 78t121.5 29.5q39 0 70.5 -13t53 -34.5t33 -50t11.5 -59.5zM390 382q0 37 -17.5 61.5t-60.5 24.5q-30 0 -54.5 -13.5t-43.5 -36t-32.5 -51t-20.5 -57.5l226 37q3 18 3 35zM475 598
q0 -9 -7 -16t-17 -7q-7 0 -12.5 3t-9.5 6l-64 50q-8 6 -17 6q-5 0 -10 -2t-9 -4l-86 -50q-5 -3 -12 -6t-13 -3q-9 0 -15 5t-6 13t6 14t14 11q32 20 60.5 43t57.5 54q5 5 12.5 9.5t16.5 4.5t14 -4.5t8 -9.5q16 -31 35 -54t43 -43q11 -9 11 -20z" />
    <glyph glyph-name="edieresis" unicode="&#xeb;" horiz-adv-x="522" 
d="M498 374q0 -12 -1.5 -24t-4.5 -22q-4 -14 -12 -19.5t-21 -7.5l-306 -48q-1 -9 -1.5 -20.5t-0.5 -19.5q0 -26 5.5 -50t18.5 -43t34.5 -30.5t53.5 -11.5q24 0 44.5 8t38.5 20.5t33 28t27 29.5q14 17 30 17q11 0 16.5 -7t5.5 -15q0 -16 -14.5 -45t-43.5 -57t-71.5 -49
t-97.5 -21q-41 0 -75.5 13t-60 38.5t-39.5 62t-14 83.5q0 66 19.5 128.5t56.5 111t90.5 78t121.5 29.5q39 0 70.5 -13t53 -34.5t33 -50t11.5 -59.5zM390 382q0 37 -17.5 61.5t-60.5 24.5q-30 0 -54.5 -13.5t-43.5 -36t-32.5 -51t-20.5 -57.5l226 37q3 18 3 35zM314 645
q0 -25 -19.5 -42t-44.5 -17q-20 0 -33.5 13.5t-13.5 31.5q0 25 19.5 42.5t44.5 17.5q20 0 33.5 -14t13.5 -32zM490 645q0 -25 -19.5 -42t-44.5 -17q-20 0 -33.5 13.5t-13.5 31.5q0 25 19.5 42.5t44.5 17.5q20 0 33.5 -14t13.5 -32z" />
    <glyph glyph-name="igrave" unicode="&#xec;" horiz-adv-x="260" 
d="M240 499q0 -2 -1 -7l-102 -477q-2 -6 -6.5 -10.5t-12.5 -4.5h-78q-17 0 -17 16v3q0 2 2 7l102 477q2 6 6.5 10.5t12.5 4.5h78q16 0 16 -16v-3zM248 594q0 -13 -13 -13h-30q-8 0 -12.5 4t-9.5 9l-83 101q-2 2 -3.5 6t-1.5 6q0 11 14.5 17t32.5 6q23 0 40.5 -7t22.5 -21
l39 -94q1 -2 2.5 -6.5t1.5 -7.5z" />
    <glyph glyph-name="iacute" unicode="&#xed;" horiz-adv-x="260" 
d="M240 499q0 -2 -1 -7l-102 -477q-2 -6 -6.5 -10.5t-12.5 -4.5h-78q-17 0 -17 16v3q0 2 2 7l102 477q2 6 6.5 10.5t12.5 4.5h78q16 0 16 -16v-3zM354 711q0 -4 -2.5 -8t-4.5 -6l-135 -108q-4 -3 -9.5 -5.5t-10.5 -2.5h-32q-12 0 -12 12q0 6 5 11l82 98q14 17 36 22.5
t43 5.5q14 0 27 -5t13 -14z" />
    <glyph glyph-name="icircumflex" unicode="&#xee;" horiz-adv-x="260" 
d="M240 499q0 -2 -1 -7l-102 -477q-2 -6 -6.5 -10.5t-12.5 -4.5h-78q-17 0 -17 16v3q0 2 2 7l102 477q2 6 6.5 10.5t12.5 4.5h78q16 0 16 -16v-3zM336 598q0 -9 -7 -16t-17 -7q-7 0 -12.5 3t-9.5 6l-64 50q-8 6 -17 6q-5 0 -10 -2t-9 -4l-86 -50q-5 -3 -12 -6t-13 -3
q-9 0 -15 5t-6 13t6 14t14 11q32 20 60.5 43t57.5 54q5 5 12.5 9.5t16.5 4.5t14 -4.5t8 -9.5q16 -31 35 -54t43 -43q11 -9 11 -20z" />
    <glyph glyph-name="idieresis" unicode="&#xef;" horiz-adv-x="260" 
d="M240 499q0 -2 -1 -7l-102 -477q-2 -6 -6.5 -10.5t-12.5 -4.5h-78q-17 0 -17 16v3q0 2 2 7l102 477q2 6 6.5 10.5t12.5 4.5h78q16 0 16 -16v-3zM175 645q0 -25 -19.5 -42t-44.5 -17q-20 0 -33.5 13.5t-13.5 31.5q0 25 19.5 42.5t44.5 17.5q20 0 33.5 -14t13.5 -32z
M351 645q0 -25 -19.5 -42t-44.5 -17q-20 0 -33.5 13.5t-13.5 31.5q0 25 19.5 42.5t44.5 17.5q20 0 33.5 -14t13.5 -32z" />
    <glyph glyph-name="eth" unicode="&#xf0;" horiz-adv-x="570" 
d="M569 696q0 -9 -13 -13l-93 -24q32 -66 51.5 -136t19.5 -142q0 -80 -20.5 -157t-71.5 -138q-38 -46 -89.5 -72.5t-118.5 -26.5q-44 0 -79 16t-60 43.5t-38 65t-13 79.5q0 74 27 142.5t79 119.5q38 38 86 56.5t96 18.5q20 0 39 -3t33 -8q-7 30 -17.5 59t-23.5 57l-89 -23
q-7 -2 -10.5 -2.5t-6.5 -0.5q-6 0 -10 3.5t-9 14.5q-4 8 -4 13q0 3 2.5 7.5t11.5 6.5l96 24q-8 15 -16.5 29t-17.5 28q-4 6 -4 11q0 9 7 13t28 10q17 5 26 6.5t14 1.5q13 0 19 -9q11 -16 21 -31.5t20 -32.5l88 23q13 3 17 3q11 0 19 -18q4 -9 4 -14zM418 388q0 17 -1.5 36
t-5.5 37q-14 5 -32 8.5t-39 3.5q-35 0 -63.5 -18t-50.5 -48q-16 -22 -28 -49.5t-20.5 -57t-13 -60t-4.5 -57.5q0 -54 20 -89.5t65 -35.5q37 0 65 21.5t50 59.5q31 54 44.5 120.5t13.5 128.5z" />
    <glyph glyph-name="ntilde" unicode="&#xf1;" horiz-adv-x="557" 
d="M520 403q0 -8 -1 -17t-3 -17l-76 -354q-2 -6 -6.5 -10.5t-12.5 -4.5h-78q-16 0 -16 16q0 3 1 8l74 348q2 8 3 15.5t1 12.5q0 30 -20.5 49.5t-67.5 19.5q-30 0 -49 -6t-30 -15t-15.5 -20.5t-7.5 -23.5l-84 -389q-2 -6 -6.5 -10.5t-12.5 -4.5h-78q-16 0 -16 16q0 3 1 8
l89 415q5 25 16.5 38t36.5 24q27 12 70.5 21t97.5 9q87 0 138.5 -32.5t51.5 -95.5zM499 689q0 -8 -5.5 -24.5t-17.5 -33.5t-31.5 -29.5t-47.5 -12.5q-21 0 -33 8.5t-21.5 18t-19 18t-25.5 8.5t-25.5 -8.5t-17 -19t-14.5 -19t-17 -8.5q-18 0 -18 18q0 9 5.5 25.5t18 33t32 29
t46.5 12.5q21 0 33 -8.5t21 -18t18.5 -18t25.5 -8.5t25.5 8.5t17 19t14.5 19t18 8.5q18 0 18 -18z" />
    <glyph glyph-name="ograve" unicode="&#xf2;" horiz-adv-x="566" 
d="M528 329q0 -65 -20 -126.5t-58 -109.5t-92 -77t-123 -29q-44 0 -79.5 14.5t-60.5 41t-38 64t-13 83.5q0 68 20.5 129.5t59 108.5t92.5 75t120 28q46 0 82 -15.5t60.5 -42.5t37 -64t12.5 -80zM414 346q0 25 -4.5 47t-15 38.5t-27 26t-40.5 9.5q-34 0 -61 -19t-48 -53
q-14 -22 -24.5 -48.5t-18.5 -55t-12 -57t-4 -53.5q0 -26 4.5 -48t14.5 -39t26 -26.5t39 -9.5q38 0 66.5 21t49.5 59q12 21 22 47t17.5 53.5t11.5 55.5t4 52zM392 594q0 -13 -13 -13h-30q-8 0 -12.5 4t-9.5 9l-83 101q-2 2 -3.5 6t-1.5 6q0 11 14.5 17t32.5 6q23 0 40.5 -7
t22.5 -21l39 -94q1 -2 2.5 -6.5t1.5 -7.5z" />
    <glyph glyph-name="oacute" unicode="&#xf3;" horiz-adv-x="566" 
d="M528 329q0 -65 -20 -126.5t-58 -109.5t-92 -77t-123 -29q-44 0 -79.5 14.5t-60.5 41t-38 64t-13 83.5q0 68 20.5 129.5t59 108.5t92.5 75t120 28q46 0 82 -15.5t60.5 -42.5t37 -64t12.5 -80zM414 346q0 25 -4.5 47t-15 38.5t-27 26t-40.5 9.5q-34 0 -61 -19t-48 -53
q-14 -22 -24.5 -48.5t-18.5 -55t-12 -57t-4 -53.5q0 -26 4.5 -48t14.5 -39t26 -26.5t39 -9.5q38 0 66.5 21t49.5 59q12 21 22 47t17.5 53.5t11.5 55.5t4 52zM510 711q0 -4 -2.5 -8t-4.5 -6l-135 -108q-4 -3 -9.5 -5.5t-10.5 -2.5h-32q-12 0 -12 12q0 6 5 11l82 98
q14 17 36 22.5t43 5.5q14 0 27 -5t13 -14z" />
    <glyph glyph-name="ocircumflex" unicode="&#xf4;" horiz-adv-x="566" 
d="M528 329q0 -65 -20 -126.5t-58 -109.5t-92 -77t-123 -29q-44 0 -79.5 14.5t-60.5 41t-38 64t-13 83.5q0 68 20.5 129.5t59 108.5t92.5 75t120 28q46 0 82 -15.5t60.5 -42.5t37 -64t12.5 -80zM414 346q0 25 -4.5 47t-15 38.5t-27 26t-40.5 9.5q-34 0 -61 -19t-48 -53
q-14 -22 -24.5 -48.5t-18.5 -55t-12 -57t-4 -53.5q0 -26 4.5 -48t14.5 -39t26 -26.5t39 -9.5q38 0 66.5 21t49.5 59q12 21 22 47t17.5 53.5t11.5 55.5t4 52zM487 598q0 -9 -7 -16t-17 -7q-7 0 -12.5 3t-9.5 6l-64 50q-8 6 -17 6q-5 0 -10 -2t-9 -4l-86 -50q-5 -3 -12 -6
t-13 -3q-9 0 -15 5t-6 13t6 14t14 11q32 20 60.5 43t57.5 54q5 5 12.5 9.5t16.5 4.5t14 -4.5t8 -9.5q16 -31 35 -54t43 -43q11 -9 11 -20z" />
    <glyph glyph-name="otilde" unicode="&#xf5;" horiz-adv-x="566" 
d="M528 329q0 -65 -20 -126.5t-58 -109.5t-92 -77t-123 -29q-44 0 -79.5 14.5t-60.5 41t-38 64t-13 83.5q0 68 20.5 129.5t59 108.5t92.5 75t120 28q46 0 82 -15.5t60.5 -42.5t37 -64t12.5 -80zM414 346q0 25 -4.5 47t-15 38.5t-27 26t-40.5 9.5q-34 0 -61 -19t-48 -53
q-14 -22 -24.5 -48.5t-18.5 -55t-12 -57t-4 -53.5q0 -26 4.5 -48t14.5 -39t26 -26.5t39 -9.5q38 0 66.5 21t49.5 59q12 21 22 47t17.5 53.5t11.5 55.5t4 52zM503 689q0 -8 -5.5 -24.5t-17.5 -33.5t-31.5 -29.5t-47.5 -12.5q-21 0 -33 8.5t-21.5 18t-19 18t-25.5 8.5
t-25.5 -8.5t-17 -19t-14.5 -19t-17 -8.5q-18 0 -18 18q0 9 5.5 25.5t18 33t32 29t46.5 12.5q21 0 33 -8.5t21 -18t18.5 -18t25.5 -8.5t25.5 8.5t17 19t14.5 19t18 8.5q18 0 18 -18z" />
    <glyph glyph-name="odieresis" unicode="&#xf6;" horiz-adv-x="566" 
d="M528 329q0 -65 -20 -126.5t-58 -109.5t-92 -77t-123 -29q-44 0 -79.5 14.5t-60.5 41t-38 64t-13 83.5q0 68 20.5 129.5t59 108.5t92.5 75t120 28q46 0 82 -15.5t60.5 -42.5t37 -64t12.5 -80zM414 346q0 25 -4.5 47t-15 38.5t-27 26t-40.5 9.5q-34 0 -61 -19t-48 -53
q-14 -22 -24.5 -48.5t-18.5 -55t-12 -57t-4 -53.5q0 -26 4.5 -48t14.5 -39t26 -26.5t39 -9.5q38 0 66.5 21t49.5 59q12 21 22 47t17.5 53.5t11.5 55.5t4 52zM326 645q0 -25 -19.5 -42t-44.5 -17q-20 0 -33.5 13.5t-13.5 31.5q0 25 19.5 42.5t44.5 17.5q20 0 33.5 -14
t13.5 -32zM502 645q0 -25 -19.5 -42t-44.5 -17q-20 0 -33.5 13.5t-13.5 31.5q0 25 19.5 42.5t44.5 17.5q20 0 33.5 -14t13.5 -32z" />
    <glyph glyph-name="divide" unicode="&#xf7;" horiz-adv-x="556" 
d="M525 317q0 -1 -2 -7l-7 -32q-2 -6 -6.5 -10.5t-12.5 -4.5h-425q-16 0 -16 16q0 3 1 8l8 35q2 6 6.5 10.5t12.5 4.5h424q17 0 17 -16v-4zM319 143q0 -29 -22 -50t-51 -21q-23 0 -38.5 15.5t-15.5 36.5q0 29 22 50.5t51 21.5q23 0 38.5 -16t15.5 -37zM389 475
q0 -29 -22 -50t-51 -21q-23 0 -38 15.5t-15 36.5q0 29 21.5 50t50.5 21q23 0 38.5 -15.5t15.5 -36.5z" />
    <glyph glyph-name="oslash" unicode="&#xf8;" horiz-adv-x="577" 
d="M590 544q0 -6 -5 -11l-81 -83q34 -53 34 -123q0 -63 -20.5 -124t-58.5 -109t-94 -77.5t-126 -29.5q-42 0 -76 13t-59 36l-77 -80q-3 -4 -6 -5t-5 -1q-4 0 -8 3.5t-9 7.5q-8 8 -8 13t6 11l81 83q-34 53 -34 126q0 65 21 125.5t60 107.5t94 75.5t124 28.5q42 0 76 -13
t59 -36l76 79q6 6 11 6t8 -2.5t8 -6.5q9 -9 9 -14zM416 418q-11 24 -31 39.5t-52 15.5q-35 0 -63.5 -18t-51.5 -50q-15 -21 -27.5 -47t-21 -54.5t-13.5 -56.5t-5 -52q0 -12 1 -24t3 -23zM431 353q0 10 -2 19l-261 -270q11 -23 30 -36.5t49 -13.5q41 0 72 22t54 59
q13 21 23.5 46t18 52t12 53.5t4.5 49.5v19z" />
    <glyph glyph-name="ugrave" unicode="&#xf9;" horiz-adv-x="547" 
d="M532 502q0 -3 -1 -8l-86 -406q-6 -29 -17.5 -43.5t-32.5 -25.5q-23 -12 -67.5 -21.5t-102.5 -9.5q-31 0 -63 6.5t-58.5 21.5t-43 39.5t-16.5 60.5q0 8 1.5 19.5t3.5 20.5l72 347q2 6 6.5 10.5t12.5 4.5h78q16 0 16 -16q0 -3 -1 -8l-71 -341q-3 -15 -3 -29q0 -30 21 -48
t56 -18q47 0 71 16t31 48l81 381q2 6 6.5 10.5t12.5 4.5h77q17 0 17 -16zM385 594q0 -13 -13 -13h-30q-8 0 -12.5 4t-9.5 9l-83 101q-2 2 -3.5 6t-1.5 6q0 11 14.5 17t32.5 6q23 0 40.5 -7t22.5 -21l39 -94q1 -2 2.5 -6.5t1.5 -7.5z" />
    <glyph glyph-name="uacute" unicode="&#xfa;" horiz-adv-x="547" 
d="M532 502q0 -3 -1 -8l-86 -406q-6 -29 -17.5 -43.5t-32.5 -25.5q-23 -12 -67.5 -21.5t-102.5 -9.5q-31 0 -63 6.5t-58.5 21.5t-43 39.5t-16.5 60.5q0 8 1.5 19.5t3.5 20.5l72 347q2 6 6.5 10.5t12.5 4.5h78q16 0 16 -16q0 -3 -1 -8l-71 -341q-3 -15 -3 -29q0 -30 21 -48
t56 -18q47 0 71 16t31 48l81 381q2 6 6.5 10.5t12.5 4.5h77q17 0 17 -16zM500 711q0 -4 -2.5 -8t-4.5 -6l-135 -108q-4 -3 -9.5 -5.5t-10.5 -2.5h-32q-12 0 -12 12q0 6 5 11l82 98q14 17 36 22.5t43 5.5q14 0 27 -5t13 -14z" />
    <glyph glyph-name="ucircumflex" unicode="&#xfb;" horiz-adv-x="547" 
d="M532 502q0 -3 -1 -8l-86 -406q-6 -29 -17.5 -43.5t-32.5 -25.5q-23 -12 -67.5 -21.5t-102.5 -9.5q-31 0 -63 6.5t-58.5 21.5t-43 39.5t-16.5 60.5q0 8 1.5 19.5t3.5 20.5l72 347q2 6 6.5 10.5t12.5 4.5h78q16 0 16 -16q0 -3 -1 -8l-71 -341q-3 -15 -3 -29q0 -30 21 -48
t56 -18q47 0 71 16t31 48l81 381q2 6 6.5 10.5t12.5 4.5h77q17 0 17 -16zM478 598q0 -9 -7 -16t-17 -7q-7 0 -12.5 3t-9.5 6l-64 50q-8 6 -17 6q-5 0 -10 -2t-9 -4l-86 -50q-5 -3 -12 -6t-13 -3q-9 0 -15 5t-6 13t6 14t14 11q32 20 60.5 43t57.5 54q5 5 12.5 9.5t16.5 4.5
t14 -4.5t8 -9.5q16 -31 35 -54t43 -43q11 -9 11 -20z" />
    <glyph glyph-name="udieresis" unicode="&#xfc;" horiz-adv-x="547" 
d="M532 502q0 -3 -1 -8l-86 -406q-6 -29 -17.5 -43.5t-32.5 -25.5q-23 -12 -67.5 -21.5t-102.5 -9.5q-31 0 -63 6.5t-58.5 21.5t-43 39.5t-16.5 60.5q0 8 1.5 19.5t3.5 20.5l72 347q2 6 6.5 10.5t12.5 4.5h78q16 0 16 -16q0 -3 -1 -8l-71 -341q-3 -15 -3 -29q0 -30 21 -48
t56 -18q47 0 71 16t31 48l81 381q2 6 6.5 10.5t12.5 4.5h77q17 0 17 -16zM316 645q0 -25 -19.5 -42t-44.5 -17q-20 0 -33.5 13.5t-13.5 31.5q0 25 19.5 42.5t44.5 17.5q20 0 33.5 -14t13.5 -32zM492 645q0 -25 -19.5 -42t-44.5 -17q-20 0 -33.5 13.5t-13.5 31.5
q0 25 19.5 42.5t44.5 17.5q20 0 33.5 -14t13.5 -32z" />
    <glyph glyph-name="yacute" unicode="&#xfd;" horiz-adv-x="517" 
d="M547 504q0 -2 -2 -7.5t-4 -8.5l-317 -560q-20 -35 -42.5 -66t-49.5 -54t-59.5 -36.5t-73.5 -13.5q-42 0 -61 16t-19 39t15.5 37t39.5 14q11 0 18.5 -2t14.5 -5t13.5 -5t15.5 -2q13 0 26 7t24.5 18t21 24.5t17.5 26.5l35 60l-82 499q-2 10 -2 16q0 17 20 17h77
q19 0 21 -18l38 -307q2 -19 2.5 -34.5t0.5 -24.5v-23q0 -8 -1 -16h2q3 8 12.5 35.5t28.5 62.5l163 308q5 8 9.5 12.5t14.5 4.5h67q16 0 16 -14zM495 711q0 -4 -2.5 -8t-4.5 -6l-135 -108q-4 -3 -9.5 -5.5t-10.5 -2.5h-32q-12 0 -12 12q0 6 5 11l82 98q14 17 36 22.5t43 5.5
q14 0 27 -5t13 -14z" />
    <glyph glyph-name="thorn" unicode="&#xfe;" horiz-adv-x="563" 
d="M530 355q0 -72 -26.5 -143.5t-74.5 -124.5q-48 -52 -107 -76t-123 -24q-22 0 -39.5 3.5t-31.5 8.5l-46 -219q-2 -6 -6.5 -10.5t-12.5 -4.5h-78q-16 0 -16 16q0 3 1 8l205 961q2 6 6.5 10.5t12.5 4.5h77q17 0 17 -16q0 -4 -2 -12l-56 -264q9 7 24 17t34.5 19t42 15t48.5 6
q36 0 64 -13.5t47.5 -37t29.5 -55.5t10 -69zM410 347q0 56 -23 82.5t-65 26.5q-32 0 -59.5 -13t-44.5 -26l-75 -350q14 -5 31 -8t42 -3q31 0 66.5 19.5t64.5 61.5q15 21 26.5 46.5t20 53.5t12.5 56t4 54z" />
    <glyph glyph-name="ydieresis" unicode="&#xff;" horiz-adv-x="517" 
d="M547 504q0 -2 -2 -7.5t-4 -8.5l-317 -560q-20 -35 -42.5 -66t-49.5 -54t-59.5 -36.5t-73.5 -13.5q-42 0 -61 16t-19 39t15.5 37t39.5 14q11 0 18.5 -2t14.5 -5t13.5 -5t15.5 -2q13 0 26 7t24.5 18t21 24.5t17.5 26.5l35 60l-82 499q-2 10 -2 16q0 17 20 17h77
q19 0 21 -18l38 -307q2 -19 2.5 -34.5t0.5 -24.5v-23q0 -8 -1 -16h2q3 8 12.5 35.5t28.5 62.5l163 308q5 8 9.5 12.5t14.5 4.5h67q16 0 16 -14zM304 645q0 -25 -19.5 -42t-44.5 -17q-20 0 -33.5 13.5t-13.5 31.5q0 25 19.5 42.5t44.5 17.5q20 0 33.5 -14t13.5 -32zM480 645
q0 -25 -19.5 -42t-44.5 -17q-20 0 -33.5 13.5t-13.5 31.5q0 25 19.5 42.5t44.5 17.5q20 0 33.5 -14t13.5 -32z" />
    <glyph glyph-name="dotlessi" unicode="&#x131;" horiz-adv-x="260" 
d="M240 499q0 -2 -1 -7l-102 -477q-2 -6 -6.5 -10.5t-12.5 -4.5h-78q-17 0 -17 16v3q0 2 2 7l102 477q2 6 6.5 10.5t12.5 4.5h78q16 0 16 -16v-3z" />
    <glyph glyph-name="IJ" unicode="&#x132;" horiz-adv-x="558" 
d="M295 690q0 -3 -1 -8l-142 -667q-2 -6 -6.5 -10.5t-12.5 -4.5h-88q-16 0 -16 16q0 3 1 8l142 667q2 6 6.5 10.5t12.5 4.5h88q16 0 16 -16zM574 688q0 -1 -1 -6l-122 -570q-23 -105 -65 -173t-89 -107.5t-91.5 -54.5t-71.5 -15q-42 0 -42 27q0 23 31 35q32 12 62.5 34
t57 55t47.5 77.5t33 102.5l128 598q2 6 6.5 10.5t12.5 4.5h88q16 0 16 -16v-2z" />
    <glyph glyph-name="ij" unicode="&#x133;" horiz-adv-x="526" 
d="M240 502q0 -3 -1 -8l-102 -479q-2 -6 -6.5 -10.5t-12.5 -4.5h-77q-17 0 -17 16v2q0 1 1 6l102 479q2 6 6.5 10.5t12.5 4.5h78q16 0 16 -16zM284 667q0 -25 -21 -43.5t-54 -18.5q-26 0 -42 14t-16 33q0 26 21.5 43.5t53.5 17.5q26 0 42 -13.5t16 -32.5zM506 498
q0 -1 -2 -6l-81 -381q-23 -108 -62 -176t-81 -106.5t-80 -53t-58 -14.5q-12 0 -19.5 6.5t-7.5 17.5q0 16 24 31q26 16 51 40t46.5 58.5t40 82.5t32.5 114l83 392q2 6 6.5 10.5t12.5 4.5h78q17 0 17 -16v-4zM550 667q0 -25 -21 -43.5t-54 -18.5q-26 0 -42 13.5t-16 33.5
q0 26 21.5 43.5t53.5 17.5q26 0 42 -13.5t16 -32.5z" />
    <glyph glyph-name="Lslash" unicode="&#x141;" horiz-adv-x="486" 
d="M412 66q0 -3 -1 -8l-9 -43q-2 -6 -6.5 -10.5t-12.5 -4.5h-332q-16 0 -16 16q0 3 1 8l54 255l-47 -30q-5 -3 -7.5 -3.5t-4.5 -0.5q-10 0 -10 11q0 3 1 8l7 35q3 13 16 21l62 38l71 333q2 6 6.5 10.5t12.5 4.5h87q17 0 17 -16v-3q0 -2 -2 -9l-50 -234l131 81q8 4 12 4
q9 0 9 -11v-2q0 -1 -1 -6l-7 -35q-3 -12 -17 -21l-143 -89l-61 -283h224q16 0 16 -16z" />
    <glyph glyph-name="lslash" unicode="&#x142;" horiz-adv-x="347" 
d="M368 516q0 -1 -1 -6l-6 -32q-3 -14 -17 -22l-84 -51l-83 -390q-2 -6 -6.5 -10.5t-12.5 -4.5h-78q-16 0 -16 16q0 4 1 8l64 301l-58 -35q-7 -4 -11 -4q-10 0 -10 10q0 3 1 8l7 34q3 12 17 21l70 44l74 347q2 6 6.5 10.5t12.5 4.5h79q16 0 16 -16v-3q0 -1 -1 -6l-55 -257
l70 43q7 4 12 4q9 0 9 -11v-3z" />
    <glyph glyph-name="OE" unicode="&#x152;" horiz-adv-x="905" 
d="M955 690q0 -3 -1 -8l-9 -42q-2 -6 -6 -10.5t-12 -4.5h-244l-46 -220h201q16 0 16 -16q0 -2 -1 -7l-9 -41q-2 -6 -6.5 -10.5t-12.5 -4.5h-205l-52 -244h238q17 0 17 -16q0 -3 -1 -8l-9 -43q-2 -6 -6 -10.5t-12 -4.5h-344q-18 -5 -47.5 -9.5t-61.5 -4.5q-65 0 -116 20.5
t-86.5 57t-54 87t-18.5 111.5q0 90 30 173t85.5 146.5t132.5 101t172 37.5q34 0 65 -4.5t49 -9.5h338q16 0 16 -16zM561 634q-17 5 -36 7.5t-48 2.5q-56 0 -103.5 -26.5t-83.5 -74.5q-21 -28 -38 -63t-29 -72.5t-18.5 -75.5t-6.5 -74q0 -42 9.5 -76.5t29.5 -59t50.5 -38.5
t72.5 -14q27 0 46.5 3t36.5 7z" />
    <glyph glyph-name="oe" unicode="&#x153;" horiz-adv-x="870" 
d="M846 376q0 -24 -6 -48q-4 -13 -11.5 -18.5t-21.5 -7.5l-303 -46q-1 -9 -1.5 -18.5t-0.5 -23.5q0 -26 5.5 -50.5t18.5 -43.5t34.5 -30.5t53.5 -11.5q23 0 44 8t39 20.5t33 27.5t26 29q6 8 13.5 13t16.5 5q11 0 16 -6.5t5 -15.5q0 -16 -14.5 -44.5t-43.5 -57t-71.5 -49.5
t-97.5 -21q-34 0 -60.5 10t-45.5 27.5t-30 40t-15 47.5h-2q-14 -26 -33.5 -48.5t-44.5 -39.5t-55.5 -27t-66.5 -10q-44 0 -78.5 15.5t-57.5 43t-35 64.5t-12 80q0 67 21 128.5t59.5 108.5t91 75.5t115.5 28.5q68 0 104 -35.5t46 -87.5h2q30 53 81.5 88t116.5 35
q39 0 69.5 -12.5t51.5 -33.5t32.5 -49.5t11.5 -59.5zM740 382q0 35 -16.5 60.5t-59.5 25.5q-30 0 -54.5 -13.5t-43.5 -35.5t-32.5 -50.5t-21.5 -57.5l225 36q3 19 3 35zM412 342q0 25 -5 48t-15.5 40t-27 27t-39.5 10q-32 0 -58.5 -18t-47.5 -50q-14 -22 -25.5 -48.5
t-19.5 -55t-12 -57t-4 -54.5t4.5 -49t15 -40t26 -27t38.5 -10q35 0 63 21t50 57q12 21 22.5 46.5t18 52.5t12 54.5t4.5 52.5z" />
    <glyph glyph-name="Scaron" unicode="&#x160;" horiz-adv-x="562" 
d="M567 584q0 -29 -16 -43.5t-43 -14.5q-39 0 -51 41q-9 33 -29.5 56.5t-63.5 23.5q-31 0 -54.5 -11t-39.5 -29t-24 -40.5t-8 -44.5q0 -31 20 -52.5t49.5 -39t64 -34.5t64 -39.5t49.5 -54t20 -77.5q0 -45 -16.5 -88.5t-50 -77t-85.5 -54t-122 -20.5q-48 0 -86.5 15.5
t-65 39.5t-40.5 52t-14 54q0 32 17.5 47.5t44.5 15.5q44 0 55 -48q4 -16 11.5 -33t20 -30.5t30.5 -22.5t42 -9q33 0 58 12.5t41 32t24 43t8 45.5q0 34 -19.5 57.5t-48.5 42t-62.5 35.5t-62.5 38.5t-48.5 50.5t-19.5 72q0 44 17 85t49.5 72.5t81 50t111.5 18.5
q51 0 87.5 -14.5t59.5 -36t34 -45t11 -41.5zM556 903q0 -8 -6.5 -14t-14.5 -11q-32 -20 -60.5 -43t-57.5 -54q-5 -5 -12 -9.5t-16 -4.5t-14 4.5t-8 9.5q-16 31 -35.5 54.5t-43.5 43.5q-10 8 -10 19q0 9 6 16t17 7q7 0 12.5 -3t9.5 -6l64 -48q10 -7 18 -7t21 7l83 48
q5 3 12.5 6t13.5 3q21 0 21 -18z" />
    <glyph glyph-name="scaron" unicode="&#x161;" horiz-adv-x="466" 
d="M444 424q0 -21 -13 -35t-37 -14q-37 0 -46 38q-6 24 -21 43t-47 19q-23 0 -40 -8t-28 -20.5t-16.5 -28t-5.5 -31.5q0 -24 15.5 -40t39 -29.5t51 -26t51 -29t39 -38.5t15.5 -55q0 -37 -14.5 -70t-42.5 -58t-67.5 -39.5t-90.5 -14.5q-45 0 -77.5 12.5t-53.5 31t-30.5 40
t-9.5 38.5q0 23 14 37.5t39 14.5q38 0 49 -39q8 -31 24.5 -50.5t53.5 -19.5q20 0 37 8.5t29.5 22t19.5 30.5t7 34q0 24 -15.5 41t-38.5 31t-49.5 26.5t-49.5 28.5t-38.5 37t-15.5 52q0 35 14 65.5t40.5 53.5t65 36t86.5 13q42 0 71.5 -11t48.5 -27t28 -34.5t9 -34.5z
M464 715q0 -8 -6.5 -14t-14.5 -11q-32 -20 -60.5 -43t-57.5 -54q-5 -5 -12 -9.5t-16 -4.5t-14 4.5t-8 9.5q-16 31 -35.5 54.5t-43.5 43.5q-10 8 -10 19q0 9 6 16t17 7q7 0 12.5 -3t9.5 -6l64 -48q9 -7 18 -7t21 7l83 48q5 3 12.5 6t13.5 3q21 0 21 -18z" />
    <glyph glyph-name="Ydieresis" unicode="&#x178;" horiz-adv-x="564" 
d="M640 691q0 -6 -6 -14l-274 -352l-66 -310q-3 -15 -19 -15h-88q-16 0 -16 16v2q0 1 1 6l64 301l-125 353q-2 6 -2 11q0 17 19 17h89q18 0 23 -17l79 -267h2l202 271q9 13 26 13h73q18 0 18 -15zM366 833q0 -25 -19.5 -42t-44.5 -17q-20 0 -33.5 13.5t-13.5 31.5
q0 25 19.5 42.5t44.5 17.5q20 0 33.5 -14t13.5 -32zM542 833q0 -25 -19.5 -42t-44.5 -17q-20 0 -33.5 13.5t-13.5 31.5q0 25 19.5 42.5t44.5 17.5q20 0 33.5 -14t13.5 -32z" />
    <glyph glyph-name="Zcaron" unicode="&#x17d;" horiz-adv-x="534" 
d="M581 690q0 -5 -2.5 -9.5t-4.5 -8.5l-409 -590h268q16 0 16 -16v-2q0 -1 -1 -6l-9 -43q-2 -6 -6.5 -10.5t-12.5 -4.5h-418q-17 0 -17 16q0 5 2.5 9t4.5 7l413 593h-248q-16 0 -16 16v2q0 1 1 6l9 42q2 6 6 10.5t12 4.5h396q16 0 16 -16zM550 900q0 -8 -6.5 -14t-14.5 -11
q-32 -20 -60.5 -43t-57.5 -54q-5 -5 -12 -9.5t-16 -4.5t-14 4.5t-8 9.5q-16 31 -35.5 54.5t-43.5 43.5q-10 8 -10 19q0 9 6 16t17 7q7 0 12.5 -3t9.5 -6l64 -48q10 -7 18 -7t21 7l83 48q5 3 12.5 6t13.5 3q21 0 21 -18z" />
    <glyph glyph-name="zcaron" unicode="&#x17e;" horiz-adv-x="416" 
d="M437 503q0 -8 -6 -16l-292 -421h186q16 0 16 -16q0 -4 -1 -9l-6 -26q-2 -6 -6.5 -10.5t-12.5 -4.5h-321q-15 0 -15 15q0 6 6 16l297 423h-175q-17 0 -17 16q0 3 1 8l6 25q2 6 6.5 10.5t12.5 4.5h305q16 0 16 -15zM447 712q0 -8 -6.5 -14t-14.5 -11q-32 -20 -60.5 -43
t-57.5 -54q-5 -5 -12 -9.5t-16 -4.5t-14 4.5t-8 9.5q-16 31 -35.5 54.5t-43.5 43.5q-10 8 -10 19q0 9 6 16t17 7q7 0 12.5 -3t9.5 -6l64 -48q9 -7 18 -7t21 7l83 48q5 3 12.5 6t13.5 3q21 0 21 -18z" />
    <glyph glyph-name="longs" unicode="&#x17f;" horiz-adv-x="274" 
d="M462 730q0 -21 -12.5 -34t-37.5 -13q-13 0 -23 3.5t-25 3.5q-18 0 -34.5 -6t-31 -25t-28 -54.5t-25.5 -93.5l-155 -731q-2 -6 -6.5 -10.5t-12.5 -4.5h-77q-17 0 -17 16v4q0 1 2 8l145 681q20 93 51.5 151t69.5 91t79.5 45t80.5 12q28 0 42.5 -12.5t14.5 -30.5z" />
    <glyph glyph-name="florin" unicode="&#x192;" horiz-adv-x="555" 
d="M601 656q0 -22 -12.5 -35t-34.5 -13q-16 0 -25 6t-16.5 12.5t-15.5 12.5t-21 6q-22 0 -38.5 -13t-29.5 -33t-23 -44.5t-17 -47.5l-34 -108h99q16 0 16 -16q0 -3 -1 -8l-6 -25q-2 -6 -6.5 -10.5t-12.5 -4.5h-109l-101 -313q-19 -59 -40.5 -108t-51.5 -84.5t-71 -55.5
t-98 -20q-42 0 -70.5 17t-28.5 46q0 22 13.5 36t36.5 14q15 0 24 -5.5t16.5 -12t16 -12t22.5 -5.5q19 0 35 12t28.5 30.5t22.5 41.5t17 46l119 373h-89q-16 0 -16 16q0 3 1 8l6 25q2 6 6.5 10.5t12.5 4.5h99l17 52q17 54 39 102.5t52.5 85t72 58.5t97.5 22q43 0 71 -18
t28 -45z" />
    <glyph glyph-name="uni02BB" unicode="&#x2bb;" horiz-adv-x="260" 
d="M298 698q0 -8 -4 -13.5t-11 -11.5q-10 -9 -20 -20t-18.5 -24t-13.5 -26.5t-5 -27.5q0 -11 4 -19t9 -16t9 -17.5t4 -22.5q0 -27 -19 -45t-50 -18q-28 0 -44.5 18t-16.5 46q0 39 16.5 77t40 69t50 50t47.5 19q11 0 16.5 -5t5.5 -13z" />
    <glyph glyph-name="afii57929" unicode="&#x2bc;" horiz-adv-x="260" 
d="M277 652q0 -39 -16.5 -77t-40 -69t-50 -50t-47.5 -19q-11 0 -16 5t-5 13q0 13 14 25q10 9 20.5 20t18.5 23.5t13.5 26.5t5.5 28q0 11 -4 19t-9 16t-9 17t-4 23q0 27 18.5 45t49.5 18q28 0 44.5 -18t16.5 -46z" />
    <glyph glyph-name="circumflex" unicode="&#x2c6;" horiz-adv-x="276" 
d="M351 598q0 -9 -7 -16t-17 -7q-7 0 -12.5 3t-9.5 6l-64 50q-8 6 -17 6q-5 0 -10 -2t-9 -4l-86 -50q-5 -3 -12 -6t-13 -3q-9 0 -15 5t-6 13t6 14t14 11q32 20 60.5 43t57.5 54q5 5 12.5 9.5t16.5 4.5t14 -4.5t8 -9.5q16 -31 35 -54t43 -43q11 -9 11 -20z" />
    <glyph glyph-name="caron" unicode="&#x2c7;" horiz-adv-x="276" 
d="M376 712q0 -8 -6.5 -14t-14.5 -11q-32 -20 -60.5 -43t-57.5 -54q-5 -5 -12 -9.5t-16 -4.5t-14 4.5t-8 9.5q-16 31 -35.5 54.5t-43.5 43.5q-10 8 -10 19q0 9 6 16t17 7q7 0 12.5 -3t9.5 -6l64 -48q3 -2 8 -4.5t10 -2.5q9 0 21 7l83 48q5 3 12.5 6t13.5 3q21 0 21 -18z" />
    <glyph glyph-name="uni02C9" unicode="&#x2c9;" horiz-adv-x="276" 
d="M363 659q0 -2 -1 -7l-6 -24q-2 -6 -6.5 -10.5t-12.5 -4.5h-237q-16 0 -16 16q0 3 1 7l5 25q2 6 6.5 10.5t12.5 4.5h238q16 0 16 -17z" />
    <glyph glyph-name="breve" unicode="&#x2d8;" horiz-adv-x="276" 
d="M372 709q0 -14 -10 -35.5t-30 -42t-50 -35.5t-70 -15q-32 0 -54 10.5t-35.5 26.5t-19.5 35t-6 36t6 27.5t19 10.5q9 0 13 -5.5t6 -10.5q8 -31 26 -48.5t52 -17.5q35 0 62 18.5t47 48.5q4 5 9.5 10t14.5 5q20 0 20 -18z" />
    <glyph glyph-name="dotaccent" unicode="&#x2d9;" horiz-adv-x="276" 
d="M281 653q0 -26 -20.5 -44t-46.5 -18q-21 0 -35.5 14t-14.5 33q0 26 21 43t46 17q21 0 35.5 -13t14.5 -32z" />
    <glyph glyph-name="ring" unicode="&#x2da;" horiz-adv-x="276" 
d="M318 677q0 -21 -8.5 -40t-23 -33.5t-34 -22.5t-40.5 -8q-33 0 -55 22t-22 53q0 21 8.5 40t23 33t34 22.5t40.5 8.5q33 0 55 -22t22 -53zM271 670q0 15 -10 27t-27 12q-21 0 -36.5 -16t-15.5 -37q0 -16 10 -27t27 -11q21 0 36.5 15.5t15.5 36.5z" />
    <glyph glyph-name="ogonek" unicode="&#x2db;" horiz-adv-x="276" 
d="M223 -138q0 -11 -12.5 -20t-32 -15t-42 -9t-43.5 -3q-49 0 -83.5 16t-34.5 51q0 21 14 40.5t34 36t42.5 29t39.5 20.5h79q-13 -6 -34 -17t-41.5 -25.5t-35 -31t-14.5 -33.5q0 -34 58 -34q31 0 51.5 6t35.5 6q19 0 19 -17z" />
    <glyph glyph-name="tilde" unicode="&#x2dc;" horiz-adv-x="276" 
d="M371 689q0 -8 -5.5 -24.5t-17.5 -33.5t-31.5 -29.5t-47.5 -12.5q-21 0 -33 8.5t-21.5 18t-19 18t-25.5 8.5t-25.5 -8.5t-17 -19t-14.5 -19t-17 -8.5q-18 0 -18 18q0 9 5.5 25.5t18 33t32 29t46.5 12.5q21 0 33 -8.5t21 -18t18.5 -18t25.5 -8.5t25.5 8.5t17 19t14.5 19
t18 8.5q18 0 18 -18z" />
    <glyph glyph-name="hungarumlaut" unicode="&#x2dd;" horiz-adv-x="276" 
d="M273 717q0 -9 -9 -16l-131 -109q-14 -11 -27 -11h-16q-11 0 -11 11q0 7 7 14l93 102q24 26 64 26q11 0 20.5 -4.5t9.5 -12.5zM417 717q0 -9 -9 -16l-131 -109q-14 -11 -27 -11h-16q-11 0 -11 11q0 7 7 14l93 102q24 26 64 26q11 0 20.5 -4.5t9.5 -12.5z" />
    <glyph glyph-name="gravecomb" unicode="&#x300;" 
d="M-174 594q0 -13 -13 -13h-30q-8 0 -12.5 4t-9.5 9l-83 101q-2 2 -3.5 6t-1.5 6q0 11 14.5 17t32.5 6q23 0 40.5 -7t22.5 -21l39 -94q1 -2 2.5 -6.5t1.5 -7.5z" />
    <glyph glyph-name="acutecomb" unicode="&#x301;" 
d="M-56 711q0 -4 -2.5 -8t-4.5 -6l-135 -108q-4 -3 -9.5 -5.5t-10.5 -2.5h-32q-12 0 -12 12q0 6 5 11l82 98q14 17 36 22.5t43 5.5q14 0 27 -5t13 -14z" />
    <glyph glyph-name="uni0302" unicode="&#x302;" 
d="M-79 598q0 -9 -7 -16t-17 -7q-7 0 -12.5 3t-9.5 6l-64 50q-8 6 -17 6q-5 0 -10 -2t-9 -4l-86 -50q-5 -3 -12 -6t-13 -3q-9 0 -15 5t-6 13t6 14t14 11q32 20 60.5 43t57.5 54q5 5 12.5 9.5t16.5 4.5t14 -4.5t8 -9.5q16 -31 35 -54t43 -43q11 -9 11 -20z" />
    <glyph glyph-name="tildecomb" unicode="&#x303;" 
d="M-63 689q0 -8 -5.5 -24.5t-17.5 -33.5t-31.5 -29.5t-47.5 -12.5q-21 0 -33 8.5t-21.5 18t-19 18t-25.5 8.5t-25.5 -8.5t-17 -19t-14.5 -19t-17 -8.5q-18 0 -18 18q0 9 5.5 25.5t18 33t32 29t46.5 12.5q21 0 33 -8.5t21 -18t18.5 -18t25.5 -8.5t25.5 8.5t17 19t14.5 19
t18 8.5q18 0 18 -18z" />
    <glyph glyph-name="uni0304" unicode="&#x304;" 
d="M102 659q0 -3 -1 -7l-6 -24q-2 -6 -6.5 -10.5t-12.5 -4.5h-237q-16 0 -16 16q0 2 1 7l5 25q2 6 6.5 10.5t12.5 4.5h238q16 0 16 -17z" />
    <glyph glyph-name="uni0306" unicode="&#x306;" 
d="M104 709q0 -14 -10 -35.5t-30 -42t-50 -35.5t-70 -15q-32 0 -54 10.5t-35.5 26.5t-19.5 35t-6 36t6 27.5t19 10.5q9 0 13 -5.5t6 -10.5q8 -31 26 -48.5t52 -17.5q35 0 62 18.5t47 48.5q4 5 9.5 10t14.5 5q20 0 20 -18z" />
    <glyph glyph-name="uni0307" unicode="&#x307;" 
d="M14 653q0 -26 -20.5 -44t-46.5 -18q-21 0 -35.5 14t-14.5 33q0 26 21 43t46 17q21 0 35.5 -13t14.5 -32z" />
    <glyph glyph-name="uni0308" unicode="&#x308;" 
d="M-65 645q0 -25 -19.5 -42t-44.5 -17q-20 0 -33.5 13.5t-13.5 31.5q0 25 19.5 42.5t44.5 17.5q20 0 33.5 -14t13.5 -32zM-239 645q0 -25 -19.5 -42t-44.5 -17q-20 0 -33.5 13.5t-13.5 31.5q0 25 19.5 42.5t44.5 17.5q20 0 33.5 -14t13.5 -32z" />
    <glyph glyph-name="uni030A" unicode="&#x30a;" 
d="M-82 677q0 -21 -8.5 -40t-23 -33.5t-34 -22.5t-40.5 -8q-33 0 -55 22t-22 53q0 21 8.5 40t23 33t34 22.5t40.5 8.5q33 0 55 -22t22 -53zM-129 670q0 15 -9.5 27t-26.5 12q-21 0 -37 -16t-16 -37q0 -16 10 -27t27 -11q21 0 36.5 15.5t15.5 36.5z" />
    <glyph glyph-name="uni030B" unicode="&#x30b;" 
d="M5 717q0 -9 -9 -16l-131 -109q-14 -11 -27 -11h-16q-11 0 -11 11q0 5 2 7.5t5 6.5l93 102q24 26 64 26q11 0 20.5 -4.5t9.5 -12.5zM149 717q0 -9 -9 -16l-131 -109q-14 -11 -27 -11h-16q-11 0 -11 11q0 7 7 14l93 102q24 26 64 26q11 0 20.5 -4.5t9.5 -12.5z" />
    <glyph glyph-name="uni030C" unicode="&#x30c;" 
d="M31 712q0 -8 -6.5 -14t-14.5 -11q-32 -20 -60.5 -43t-57.5 -54q-5 -5 -12 -9.5t-16 -4.5t-14 4.5t-8 9.5q-16 31 -35.5 54.5t-43.5 43.5q-10 8 -10 19q0 9 6 16t17 7q7 0 12.5 -3t9.5 -6l64 -48q9 -7 18 -7t21 7l83 48q5 3 12.5 6t13.5 3q21 0 21 -18z" />
    <glyph glyph-name="uni0312" unicode="&#x312;" 
d="M19 730q0 -12 -14 -19q-8 -4 -17.5 -9.5t-17.5 -12.5t-13.5 -15.5t-5.5 -18.5q0 -11 7 -17.5t7 -18.5q0 -19 -16.5 -29t-42.5 -10q-27 0 -38.5 13t-11.5 30q0 24 14 45.5t35.5 38.5t47 27t48.5 10q18 0 18 -14z" />
    <glyph glyph-name="uni0313" unicode="&#x313;" 
d="M-192 -100q0 -24 -14 -45.5t-35 -38.5t-46.5 -27t-48.5 -10q-19 0 -19 14q0 11 14 18q8 4 17.5 10t17.5 13t13.5 15.5t5.5 18.5q0 11 -6.5 17.5t-6.5 18.5q0 19 16 29t42 10q27 0 38.5 -13t11.5 -30z" />
    <glyph glyph-name="uni0315" unicode="&#x315;" 
d="M72 698q0 -7 -4 -17l-50 -107q-7 -13 -18 -13h-26q-14 0 -14 12q0 3 2 11l22 104q4 18 19 26t32 8q14 0 25.5 -5.5t11.5 -18.5z" />
    <glyph glyph-name="uni0326" unicode="&#x326;" 
d="M-192 -100q0 -24 -14 -45.5t-35 -38.5t-46.5 -27t-48.5 -10q-19 0 -19 14q0 11 14 18q8 4 17.5 10t17.5 13t13.5 15.5t5.5 18.5q0 11 -6.5 17.5t-6.5 18.5q0 19 16 29t42 10q27 0 38.5 -13t11.5 -30z" />
    <glyph glyph-name="uni0327" unicode="&#x327;" 
d="M-91 -131q0 -21 -12.5 -39.5t-34.5 -32t-52 -21t-65 -7.5q-42 0 -73 10t-31 27q0 11 7.5 16.5t18.5 5.5q8 0 15 -2t16 -4t20.5 -4t28.5 -2q35 0 58.5 14.5t23.5 33.5q0 15 -18.5 25.5t-63.5 10.5q-8 0 -12 4.5t-4 9.5q0 7 6 16l51 73h64l-51 -67q57 -1 82.5 -20.5
t25.5 -46.5z" />
    <glyph glyph-name="uni0328" unicode="&#x328;" 
d="M-52 -184q0 -11 -12.5 -20t-32 -15t-42 -9t-43.5 -3q-49 0 -83.5 16t-34.5 51q0 21 14 40.5t34 36t42.5 29t39.5 20.5h79q-13 -6 -34 -17t-41.5 -25.5t-35 -31t-14.5 -33.5q0 -34 58 -34q31 0 51.5 6t35.5 6q19 0 19 -17z" />
    <glyph glyph-name="uni0335" unicode="&#x335;" 
d="M88 274q0 -2 -1 -7l-6 -24q-2 -6 -6.5 -10.5t-12.5 -4.5h-237q-16 0 -16 16q0 2 1 7l5 25q2 6 6.5 10.5t12.5 4.5h238q16 0 16 -17z" />
    <glyph glyph-name="uni0336" unicode="&#x336;" 
d="M-35 281q0 -2 -1 -7l-8 -38q-2 -6 -6.5 -10.5t-12.5 -4.5h-635q-17 0 -17 16q0 3 1 8l8 37q2 6 6.5 11t12.5 5h636q16 0 16 -17z" />
    <glyph glyph-name="uni0394" unicode="&#x394;" horiz-adv-x="652" 
d="M585 17q0 -17 -18 -17h-583q-16 0 -16 15q0 5 2.5 9.5t4.5 8.5l379 656q9 17 27 17h83q17 0 20 -17l100 -658q1 -7 1 -10v-4zM406 488q-2 20 -3 40.5t-1 40.5q0 12 0.5 24t0.5 24h-2q-13 -33 -27 -65.5t-31 -63.5l-231 -417h347z" />
    <glyph glyph-name="uni03A9" unicode="&#x3a9;" horiz-adv-x="738" 
d="M717 480q0 -63 -19 -117.5t-50.5 -103t-72.5 -91.5t-85 -84v-2h147q16 0 16 -16v-3q0 -1 -1 -6l-9 -42q-2 -6 -7 -10.5t-13 -4.5h-239q-16 0 -16 16v3q0 1 1 6l8 36q1 9 9 18q40 47 77 94.5t65 97.5t45 103t17 112q0 72 -34.5 115t-103.5 43q-58 0 -103 -32t-75.5 -80.5
t-46.5 -107.5t-16 -113q0 -61 16 -116.5t45 -114.5q1 -2 1.5 -4.5t0.5 -7.5q0 -4 -1 -9l-9 -42q-4 -17 -22 -17h-230q-16 0 -16 16v2q0 1 1 6l9 43q2 6 6.5 10.5t12.5 4.5h151v2q-35 54 -60.5 122t-25.5 143q0 69 25 135.5t73.5 119t118.5 85t160 32.5q58 0 104.5 -17.5
t78.5 -49t49.5 -76t17.5 -98.5z" />
    <glyph glyph-name="uni03BC" unicode="&#x3bc;" horiz-adv-x="548" 
d="M534 500q0 -1 -1 -6l-86 -405q-6 -29 -18.5 -43.5t-32.5 -25.5q-24 -12 -57.5 -21.5t-90.5 -9.5q-18 0 -35 3.5t-32 9.5t-27 13t-18 15l-53 -250q-2 -6 -6.5 -10.5t-12.5 -4.5h-78q-17 0 -17 16v4q0 1 2 8l151 710q2 6 6.5 10.5t12.5 4.5h78q17 0 17 -16q0 -2 -2 -12
l-73 -342q-3 -17 -3 -25q0 -33 22 -48.5t57 -15.5q18 0 34.5 2.5t30 9.5t23.5 19t14 32l82 381q2 6 6 10.5t12 4.5h79q16 0 16 -16v-2z" />
    <glyph glyph-name="pi" unicode="&#x3c0;" horiz-adv-x="689" 
d="M689 498q0 -1 -2 -8l-5 -21q-2 -6 -6.5 -10.5t-12.5 -4.5h-79l-69 -324q-3 -18 -3 -30q0 -30 15 -39t33 -9q8 0 13 1t11 1q20 0 20 -19q0 -11 -8 -20t-21 -15t-30.5 -9t-36.5 -3q-17 0 -36 4.5t-36 16t-28 31t-11 48.5q0 11 1 22.5t3 21.5l69 322h-184l-94 -439
q-2 -6 -6.5 -10.5t-12.5 -4.5h-78q-16 0 -16 16q0 3 1 8l92 430h-71q-17 0 -17 17v3q0 2 2 8l5 21q2 6 6.5 10.5t12.5 4.5h562q17 0 17 -16v-4z" />
    <glyph glyph-name="uni2007" unicode="&#x2007;" horiz-adv-x="556" 
 />
    <glyph glyph-name="uni2008" unicode="&#x2008;" horiz-adv-x="277" 
 />
    <glyph glyph-name="uni200B" unicode="&#x200b;" horiz-adv-x="0" 
 />
    <glyph glyph-name="endash" unicode="&#x2013;" horiz-adv-x="387" 
d="M421 322q0 -3 -1 -7l-9 -38q-2 -6 -6.5 -10.5t-12.5 -4.5h-390q-16 0 -16 16q0 3 1 8l9 37q2 6 6.5 11t12.5 5h390q16 0 16 -17z" />
    <glyph glyph-name="emdash" unicode="&#x2014;" horiz-adv-x="775" 
d="M739 322q0 -2 -1 -7l-8 -38q-2 -6 -6.5 -10.5t-12.5 -4.5h-635q-17 0 -17 16q0 3 1 8l8 37q2 6 6.5 11t12.5 5h636q16 0 16 -17z" />
    <glyph glyph-name="quoteleft" unicode="&#x2018;" horiz-adv-x="260" 
d="M298 698q0 -8 -4 -13.5t-11 -11.5q-10 -9 -20 -20t-18.5 -24t-13.5 -26.5t-5 -27.5q0 -11 4 -19t9 -16t9 -17.5t4 -22.5q0 -27 -19 -45t-50 -18q-28 0 -44.5 18t-16.5 46q0 39 16.5 77t40 69t50 50t47.5 19q11 0 16.5 -5t5.5 -13z" />
    <glyph glyph-name="quoteright" unicode="&#x2019;" horiz-adv-x="260" 
d="M277 652q0 -39 -16.5 -77t-40 -69t-50 -50t-47.5 -19q-11 0 -16 5t-5 13q0 13 14 25q10 9 20.5 20t18.5 23.5t13.5 26.5t5.5 28q0 11 -4 19t-9 16t-9 17t-4 23q0 27 18.5 45t49.5 18q28 0 44.5 -18t16.5 -46z" />
    <glyph glyph-name="quotesinglbase" unicode="&#x201a;" horiz-adv-x="260" 
d="M153 69q0 -39 -16 -77.5t-39.5 -69t-50 -50t-47.5 -19.5q-11 0 -16.5 5.5t-5.5 13.5t4 13.5t11 11.5q10 9 20 20t18.5 23.5t13.5 26.5t5 28q0 11 -4 19t-9 16t-9 17t-4 23q0 27 18.5 45t49.5 18q28 0 44.5 -18t16.5 -46z" />
    <glyph glyph-name="quotedblleft" unicode="&#x201c;" horiz-adv-x="456" 
d="M298 698q0 -8 -4 -13.5t-11 -11.5q-10 -9 -20 -20t-18.5 -24t-13.5 -26.5t-5 -27.5q0 -11 4 -19t9 -16t9 -17.5t4 -22.5q0 -27 -19 -45t-50 -18q-28 0 -44.5 18t-16.5 46q0 39 16.5 77t40 69t50 50t47.5 19q11 0 16.5 -5t5.5 -13zM494 698q0 -8 -4 -13.5t-11 -11.5
q-10 -9 -20 -20t-18.5 -24t-13.5 -26.5t-5 -27.5q0 -11 4 -19t9 -16t9 -17.5t4 -22.5q0 -27 -19 -45t-50 -18q-28 0 -44.5 18t-16.5 46q0 39 16.5 77t40 69t50 50t47.5 19q11 0 16.5 -5t5.5 -13z" />
    <glyph glyph-name="quotedblright" unicode="&#x201d;" horiz-adv-x="456" 
d="M277 652q0 -39 -16.5 -77t-40 -69t-50 -50t-47.5 -19q-11 0 -16 5t-5 13q0 13 14 25q10 9 20.5 20t18.5 23.5t13.5 26.5t5.5 28q0 11 -4 19t-9 16t-9 17t-4 23q0 27 18.5 45t49.5 18q28 0 44.5 -18t16.5 -46zM473 652q0 -39 -16.5 -77t-40 -69t-50 -50t-47.5 -19
q-11 0 -16 5t-5 13q0 13 14 25q10 9 20.5 20t18.5 23.5t13.5 26.5t5.5 28q0 11 -4 19t-9 16t-9 17t-4 23q0 27 18.5 45t49.5 18q28 0 44.5 -18t16.5 -46z" />
    <glyph glyph-name="quotedblbase" unicode="&#x201e;" horiz-adv-x="456" 
d="M153 69q0 -39 -16 -77.5t-39.5 -69t-50 -50t-47.5 -19.5q-11 0 -16.5 5.5t-5.5 13.5t4 13.5t11 11.5q10 9 20 20t18.5 23.5t13.5 26.5t5 28q0 11 -4 19t-9 16t-9 17t-4 23q0 27 18.5 45t49.5 18q28 0 44.5 -18t16.5 -46zM349 69q0 -39 -16 -77.5t-39.5 -69t-50 -50
t-47.5 -19.5q-11 0 -16.5 5.5t-5.5 13.5t4 13.5t11 11.5q10 9 20 20t18.5 23.5t13.5 26.5t5 28q0 11 -4 19t-9 16t-9 17t-4 23q0 27 18.5 45t49.5 18q28 0 44.5 -18t16.5 -46z" />
    <glyph glyph-name="dagger" unicode="&#x2020;" horiz-adv-x="601" 
d="M602 498q0 -2 -2 -8l-10 -43q-2 -6 -6.5 -10.5t-12.5 -4.5h-174l-139 -652q-2 -6 -6.5 -10.5t-12.5 -4.5h-75q-16 0 -16 16q0 3 1 8l137 643h-170q-17 0 -17 16q0 3 1 7l10 48q2 6 6.5 10.5t12.5 4.5h175l49 232q2 6 6.5 10.5t12.5 4.5h75q16 0 16 -16q0 -3 -1 -8
l-48 -223h171q17 0 17 -16v-4z" />
    <glyph glyph-name="daggerdbl" unicode="&#x2021;" horiz-adv-x="601" 
d="M602 502q0 -2 -2 -12l-10 -43q-2 -6 -6.5 -10.5t-12.5 -4.5h-174l-42 -194h171q16 0 16 -16q0 -4 -1 -8l-10 -47q-2 -6 -6.5 -10.5t-12.5 -4.5h-175l-79 -372q-2 -6 -6.5 -10.5t-12.5 -4.5h-75q-16 0 -16 16q0 3 1 8l77 363h-171q-16 0 -16 16q0 3 1 8l10 47
q2 6 6.5 10.5t12.5 4.5h175l42 194h-170q-17 0 -17 16q0 4 1 8l10 47q2 6 6.5 10.5t12.5 4.5h175l49 232q2 6 6.5 10.5t12.5 4.5h75q16 0 16 -16q0 -3 -1 -8l-48 -223h171q17 0 17 -16z" />
    <glyph glyph-name="bullet" unicode="&#x2022;" horiz-adv-x="561" 
d="M423 338q0 -30 -11.5 -55.5t-31.5 -45t-46.5 -30.5t-55.5 -11q-23 0 -42.5 8.5t-34.5 23.5t-23.5 34t-8.5 40q0 30 11.5 55.5t31.5 45t46.5 30.5t55.5 11q22 0 42 -8.5t35 -23.5t23.5 -34t8.5 -40z" />
    <glyph glyph-name="ellipsis" unicode="&#x2026;" horiz-adv-x="831" 
d="M452 77q0 -18 -7.5 -33.5t-19.5 -27t-28 -18t-33 -6.5q-26 0 -45 18.5t-19 43.5q0 18 7 33.5t19 27t27.5 18.5t33.5 7q26 0 45.5 -19t19.5 -44zM729 77q0 -18 -7.5 -33.5t-19.5 -27t-28 -18t-33 -6.5q-26 0 -44.5 18.5t-18.5 43.5q0 18 7 33.5t18.5 27t27 18.5t33.5 7
q26 0 45.5 -19t19.5 -44zM175 77q0 -18 -7 -33.5t-19 -27t-28 -18t-33 -6.5q-26 0 -45 18.5t-19 43.5q0 18 7 33.5t19 27t27.5 18.5t33.5 7q26 0 45 -19t19 -44z" />
    <glyph glyph-name="perthousand" unicode="&#x2030;" horiz-adv-x="1082" 
d="M1014 259q0 -42 -11 -90t-32.5 -88t-54.5 -66.5t-77 -26.5q-42 0 -70 32.5t-28 95.5q0 48 12.5 96.5t35.5 87.5t55.5 63t72.5 24q42 0 69.5 -32.5t27.5 -95.5zM386 590q0 -42 -11 -90t-32.5 -88t-54.5 -66.5t-77 -26.5q-42 0 -70 32.5t-28 95.5q0 48 12.5 96.5t35.5 87.5
t55.5 63t72.5 24q42 0 69.5 -32.5t27.5 -95.5zM685 693q0 -5 -7 -15l-494 -665q-9 -13 -25 -13h-22q-14 0 -14 12q0 2 1.5 5.5t6.5 10.5l493 665q9 13 25 13h22q14 0 14 -13zM696 259q0 -42 -11 -90t-32.5 -88t-54.5 -66.5t-77 -26.5q-42 0 -70 32.5t-28 95.5
q0 48 12.5 96.5t35.5 87.5t55.5 63t72.5 24q42 0 69.5 -32.5t27.5 -95.5zM950 275q0 67 -40 67q-16 0 -30.5 -11.5t-28.5 -37.5q-9 -18 -17.5 -42t-14.5 -50.5t-9.5 -52t-3.5 -45.5q0 -35 11 -50t29 -15q16 0 30.5 11t28.5 37q9 17 17 41.5t14.5 50.5t10 51.5t3.5 45.5z
M322 606q0 67 -40 67q-16 0 -31 -11.5t-29 -37.5q-9 -18 -17 -42t-14 -50.5t-9.5 -52t-3.5 -45.5q0 -35 10.5 -50t28.5 -15q16 0 31 11t29 37q9 17 17 41.5t14.5 50.5t10 51.5t3.5 45.5zM632 275q0 67 -40 67q-16 0 -30.5 -11.5t-28.5 -37.5q-9 -18 -17.5 -42t-14.5 -50.5
t-9.5 -52t-3.5 -45.5q0 -35 11 -50t29 -15q16 0 30.5 11t28.5 37q9 17 17 41.5t14.5 50.5t10 51.5t3.5 45.5z" />
    <glyph glyph-name="guilsinglleft" unicode="&#x2039;" horiz-adv-x="349" 
d="M327 480q0 -17 -13 -33l-104 -135q-8 -10 -15.5 -22.5t-7.5 -25.5q0 -8 1 -13.5t3 -10.5l45 -129q5 -15 5 -23q0 -14 -8.5 -23t-23.5 -9q-20 0 -27 20q-6 17 -16.5 40t-23 47t-27 46.5t-28.5 38.5q-5 5 -8 10.5t-3 13.5q0 12 7.5 22t16.5 17q21 16 45 38.5t46.5 46.5
t42 46.5t33.5 39.5q8 9 16 14.5t19 5.5t18 -6.5t7 -15.5z" />
    <glyph glyph-name="guilsinglright" unicode="&#x203a;" horiz-adv-x="349" 
d="M286 287q0 -13 -8 -22.5t-17 -16.5q-21 -16 -44.5 -38.5t-46 -46.5t-42.5 -47t-33 -40q-8 -9 -16.5 -14.5t-18.5 -5.5q-11 0 -18.5 7t-7.5 16q0 8 4.5 16t9.5 16l104 135q8 11 15 23t7 26q0 5 -1 13t-2 10l-45 129q-2 5 -3.5 11.5t-1.5 12.5q0 31 32 31q20 0 27 -20
q6 -17 16 -39.5t23 -46.5t27.5 -46.5t28.5 -38.5q5 -5 8 -10.5t3 -13.5z" />
    <glyph glyph-name="fraction" unicode="&#x2044;" horiz-adv-x="195" 
d="M413 694q0 -5 -8 -16l-514 -665q-5 -7 -10.5 -10t-14.5 -3h-26q-13 0 -13 12q0 6 8 16l515 665q5 7 10.5 10t14.5 3h24q14 0 14 -12z" />
    <glyph glyph-name="uni2070" unicode="&#x2070;" horiz-adv-x="370" 
d="M426 754q0 -42 -11 -94.5t-34.5 -98.5t-60.5 -77.5t-89 -31.5q-48 0 -76.5 37t-28.5 105q0 42 11 94.5t35 98.5t61 77.5t89 31.5q48 0 76 -37t28 -105zM356 769q0 76 -44 76q-33 0 -60 -48q-11 -20 -21 -47.5t-17.5 -57t-11.5 -59t-4 -51.5q0 -74 43 -74q32 0 61 48
q11 19 20.5 46.5t17 57t12 58t4.5 51.5z" />
    <glyph glyph-name="uni2074" unicode="&#x2074;" horiz-adv-x="370" 
d="M412 874q0 -3 -1 -8l-54 -255h37q14 0 14 -12v-2q0 -1 -1 -6l-3 -16q-3 -12 -18 -12h-39l-19 -87q-4 -14 -17 -14h-37q-15 0 -15 15q0 3 1 8l17 78h-154q-22 0 -22 20q0 11 13 26l233 268q5 6 9.5 7.5t9.5 1.5h34q12 0 12 -12zM332 806q-4 -5 -11.5 -16.5t-20.5 -26.5
l-129 -152h117l31 143q4 18 8 31.5t6 20.5h-1z" />
    <glyph glyph-name="uni2075" unicode="&#x2075;" horiz-adv-x="370" 
d="M428 871q0 -2 -1 -7l-7 -28q-3 -13 -17 -13h-150l-32 -114q11 5 27 9t33 4q50 0 81.5 -27.5t31.5 -72.5q0 -30 -10.5 -60.5t-32.5 -54.5t-55.5 -39.5t-78.5 -15.5q-21 0 -40.5 5.5t-34 15t-23.5 21.5t-9 26q0 16 10 26t25 10q12 0 19.5 -5t12.5 -14q8 -14 20 -24t34 -10
q20 0 36 9t27 23t17 32t6 35q0 30 -19 48.5t-58 18.5q-24 0 -42.5 -7.5t-28.5 -7.5q-15 0 -15 13v3q0 2 2 7l56 195q3 14 18 14h183q15 0 15 -15z" />
    <glyph glyph-name="uni2076" unicode="&#x2076;" horiz-adv-x="370" 
d="M442 876q0 -20 -24 -24q-28 -6 -56 -18t-54 -31t-48.5 -45.5t-37.5 -60.5q17 11 37.5 18t46.5 7q45 0 71.5 -27.5t26.5 -72.5q0 -35 -12 -66t-33.5 -54t-52.5 -36.5t-68 -13.5q-57 0 -87 34.5t-30 88.5q0 65 26 122.5t72 102.5q26 25 54.5 43.5t55.5 30t50.5 17t38.5 5.5
q24 0 24 -20zM332 617q0 26 -13.5 43t-42.5 17q-19 0 -38.5 -6.5t-33.5 -16.5q-7 -23 -9.5 -44.5t-2.5 -39.5q0 -32 12.5 -51t41.5 -19q21 0 37 11.5t27 29t16.5 38t5.5 38.5z" />
    <glyph glyph-name="uni2077" unicode="&#x2077;" horiz-adv-x="370" 
d="M456 872q0 -9 -8 -20q-32 -44 -65 -92t-64.5 -97t-60 -97t-51.5 -92q-3 -6 -6.5 -9t-11.5 -3h-59q-14 0 -14 15q0 2 1 6t5 9l239 331h-170q-15 0 -15 14q0 2 1 7l6 28q3 14 17 14h241q15 0 15 -14z" />
    <glyph glyph-name="uni2078" unicode="&#x2078;" horiz-adv-x="370" 
d="M430 817q0 -23 -8.5 -41.5t-22.5 -33.5t-32.5 -27.5t-39.5 -24.5q27 -19 49 -41t22 -57q0 -26 -11 -51t-32 -45t-52.5 -32t-72.5 -12q-58 0 -89.5 28t-31.5 66q0 26 10 46.5t26.5 36.5t37.5 29.5t44 25.5q-22 17 -37.5 37t-15.5 49q0 24 9.5 46.5t28 40.5t46.5 28.5
t65 10.5q56 0 81.5 -24.5t25.5 -54.5zM368 811q0 22 -14.5 32.5t-40.5 10.5q-30 0 -51.5 -20t-21.5 -52q0 -21 13.5 -36.5t33.5 -29.5q33 19 57 41t24 54zM325 579q0 26 -18.5 43.5t-41.5 33.5q-35 -20 -61.5 -43.5t-26.5 -59.5q0 -26 16.5 -40t45.5 -14q17 0 32.5 6
t27.5 16.5t19 25t7 32.5z" />
    <glyph glyph-name="uni2079" unicode="&#x2079;" horiz-adv-x="370" 
d="M430 773q0 -65 -26 -122.5t-72 -102.5q-26 -26 -54.5 -44t-55.5 -29.5t-50.5 -17t-38.5 -5.5q-24 0 -24 20t25 25q28 6 56 18t54 30.5t48 44.5t37 61q-17 -11 -37 -18t-46 -7q-45 0 -71.5 27.5t-26.5 72.5q0 35 11.5 66t33.5 54t52 36.5t68 13.5q57 0 87 -34.5t30 -88.5z
M360 779q0 32 -13 51t-42 19q-21 0 -37 -11.5t-27 -28.5t-16.5 -37.5t-5.5 -38.5q0 -26 13.5 -43t42.5 -17q19 0 38.5 6.5t33.5 16.5q7 23 10 44t3 39z" />
    <glyph glyph-name="uni207A" unicode="&#x207a;" horiz-adv-x="370" 
d="M409 684q0 -1 -1 -6l-4 -17q-3 -13 -17 -13h-87l-20 -92q-4 -14 -17 -14h-25q-15 0 -15 15q0 3 1 8l18 83h-82q-16 0 -16 14v2q0 2 1 7l3 17q3 14 18 14h87l19 88q3 14 17 14h24q16 0 16 -14q0 -4 -1 -9l-16 -79h82q15 0 15 -15v-3z" />
    <glyph glyph-name="uni207B" unicode="&#x207b;" horiz-adv-x="370" 
d="M409 687q0 -3 -1 -8l-4 -18q-3 -13 -17 -13h-227q-16 0 -16 14v3q0 1 1 6l3 17q3 14 18 14h228q15 0 15 -15z" />
    <glyph glyph-name="uni207C" unicode="&#x207c;" horiz-adv-x="370" 
d="M422 751q0 -3 -1 -8l-4 -18q-4 -14 -17 -14h-228q-15 0 -15 14q0 3 1 8l4 19q3 13 17 13h227q16 0 16 -14zM395 619q0 -1 -1 -6l-4 -18q-4 -14 -17 -14h-228q-15 0 -15 14v2q0 1 1 6l4 19q3 13 17 13h227q16 0 16 -14v-2z" />
    <glyph glyph-name="uni207D" unicode="&#x207d;" horiz-adv-x="246" 
d="M379 984q0 -11 -12 -24q-36 -40 -64.5 -87t-48 -98.5t-29.5 -105t-10 -105.5q0 -101 28 -172q5 -13 5 -22q0 -8 -5 -14t-14 -6q-15 0 -25 17q-29 46 -46 102t-17 125q0 58 13.5 112.5t38.5 104.5t60 93.5t78 78.5q18 15 33 15t15 -14z" />
    <glyph glyph-name="uni207E" unicode="&#x207e;" horiz-adv-x="246" 
d="M287 754q0 -58 -13.5 -112.5t-38.5 -104.5t-60 -93.5t-78 -78.5q-18 -15 -32 -15q-17 0 -17 16q0 10 9 19q75 85 115.5 189.5t40.5 209.5q0 101 -28 172q-6 15 -6 22q0 8 5 14t14 6q15 0 25 -17q29 -46 46.5 -102t17.5 -125z" />
    <glyph glyph-name="uni207F" unicode="&#x207f;" horiz-adv-x="419" 
d="M463 747q0 -6 -1 -14t-2 -10l-53 -248q-3 -13 -17 -13h-41q-15 0 -15 14q0 5 1 8l51 242q1 5 1.5 9t0.5 9q0 29 -20 40.5t-46 11.5q-12 0 -24.5 -1.5t-24 -6.5t-19.5 -13.5t-11 -22.5l-59 -277q-3 -13 -17 -13h-40q-16 0 -16 14q0 3 1 8l62 292q5 20 12 29.5t27 17.5
q28 12 57.5 17t60.5 5q25 0 48.5 -4.5t42 -15.5t30 -30t11.5 -48z" />
    <glyph glyph-name="uni2080" unicode="&#x2080;" horiz-adv-x="370" 
d="M290 110q0 -42 -11 -94.5t-34.5 -98.5t-60.5 -77.5t-89 -31.5q-48 0 -76.5 37t-28.5 105q0 42 11 94.5t35 98.5t61 77.5t89 31.5q48 0 76 -37t28 -105zM220 125q0 76 -44 76q-33 0 -60 -48q-11 -20 -21 -47.5t-17.5 -57t-11.5 -59t-4 -51.5q0 -74 43 -74q32 0 61 48
q11 19 20.5 46.5t17 57t12 58t4.5 51.5z" />
    <glyph glyph-name="uni2081" unicode="&#x2081;" horiz-adv-x="370" 
d="M256 233q0 -1 -1 -6l-84 -395q-4 -14 -17 -14h-42q-16 0 -16 15q0 3 1 8l66 310q-11 -6 -25.5 -12t-29 -10.5t-28 -7t-21.5 -2.5q-9 0 -14.5 6t-5.5 14q0 10 7 17t17 9q41 11 80 30.5t70 45.5q6 5 11.5 7.5t13.5 2.5q18 0 18 -15v-3z" />
    <glyph glyph-name="uni2082" unicode="&#x2082;" horiz-adv-x="370" 
d="M287 157q0 -21 -7.5 -41t-19 -38t-26.5 -34.5t-30 -30.5l-136 -129v-2h151q15 0 15 -15q0 -3 -1 -8l-6 -27q-4 -14 -17 -14h-234q-7 0 -11 4.5t-4 10.5q0 2 1 6t6 9l189 199q20 20 36.5 45t16.5 54q0 23 -13 36.5t-39 13.5q-16 0 -29 -6.5t-23.5 -17t-18 -22.5t-11.5 -23
q-8 -18 -27 -18q-9 0 -14.5 6.5t-5.5 14.5q0 15 9.5 36t28 40t47.5 32.5t68 13.5q28 0 48 -8t32.5 -21.5t18.5 -30.5t6 -35z" />
    <glyph glyph-name="uni2083" unicode="&#x2083;" horiz-adv-x="370" 
d="M280 171q0 -20 -7.5 -37t-20 -32t-28.5 -26.5t-33 -19.5v-2q26 -12 44 -34.5t18 -55.5q0 -24 -10 -51.5t-31.5 -50.5t-55 -38.5t-79.5 -15.5q-21 0 -40.5 5.5t-34.5 15t-24 22t-9 26.5q0 15 10.5 25t25.5 10q12 0 19.5 -5t12.5 -14q8 -14 20 -24t34 -10q19 0 34.5 8
t26.5 21t17.5 29t6.5 32q0 33 -22.5 50t-51.5 25q-15 4 -15 16q0 9 7 14.5t16 8.5q16 5 32 13t29.5 19t22 26t8.5 34q0 20 -12.5 31t-35.5 11q-31 0 -49 -18t-28 -38q-9 -17 -28 -17t-19 19q0 13 9 31.5t27.5 35.5t46 29.5t64.5 12.5q52 0 77.5 -24.5t25.5 -56.5z" />
    <glyph glyph-name="uni2084" unicode="&#x2084;" horiz-adv-x="370" 
d="M276 230q0 -3 -1 -8l-54 -255h37q14 0 14 -12v-2q0 -1 -1 -6l-3 -16q-3 -12 -18 -12h-39l-19 -87q-4 -14 -17 -14h-37q-15 0 -15 15q0 3 1 8l17 78h-154q-22 0 -22 20q0 11 13 26l233 268q5 6 9.5 7.5t9.5 1.5h34q12 0 12 -12zM196 162q-4 -5 -11.5 -16.5t-20.5 -26.5
l-129 -152h117l31 143q4 18 8 31.5t6 20.5h-1z" />
    <glyph glyph-name="uni2085" unicode="&#x2085;" horiz-adv-x="370" 
d="M292 227q0 -2 -1 -7l-7 -28q-3 -13 -17 -13h-150l-32 -114q11 5 27 9t33 4q50 0 81.5 -27.5t31.5 -72.5q0 -30 -10.5 -60.5t-32.5 -54.5t-55.5 -39.5t-78.5 -15.5q-21 0 -40.5 5.5t-34 15t-23.5 21.5t-9 26q0 16 10 26t25 10q12 0 19.5 -5t12.5 -14q8 -14 20 -24t34 -10
q20 0 36 9t27 23t17 32t6 35q0 30 -19 48.5t-58 18.5q-24 0 -42.5 -7.5t-28.5 -7.5q-15 0 -15 13v3q0 2 2 7l56 195q3 14 18 14h183q15 0 15 -15z" />
    <glyph glyph-name="uni2086" unicode="&#x2086;" horiz-adv-x="370" 
d="M306 232q0 -20 -24 -24q-28 -6 -56 -18t-54 -31t-48.5 -45.5t-37.5 -60.5q17 11 37.5 18t46.5 7q45 0 71.5 -27.5t26.5 -72.5q0 -35 -12 -66t-33.5 -54t-52.5 -36.5t-68 -13.5q-57 0 -87 34.5t-30 88.5q0 65 26 122.5t72 102.5q26 25 54.5 43.5t55.5 30t50.5 17t38.5 5.5
q24 0 24 -20zM196 -27q0 26 -13.5 43t-42.5 17q-19 0 -38.5 -6.5t-33.5 -16.5q-7 -23 -9.5 -44.5t-2.5 -39.5q0 -32 12.5 -51t41.5 -19q21 0 37 11.5t27 29t16.5 38t5.5 38.5z" />
    <glyph glyph-name="uni2087" unicode="&#x2087;" horiz-adv-x="370" 
d="M320 228q0 -9 -8 -20q-32 -44 -65 -92t-64.5 -97t-60 -97t-51.5 -92q-3 -6 -6.5 -9t-11.5 -3h-59q-14 0 -14 15q0 2 1 6t5 9l239 331h-170q-15 0 -15 14q0 2 1 7l6 28q3 14 17 14h241q15 0 15 -14z" />
    <glyph glyph-name="uni2088" unicode="&#x2088;" horiz-adv-x="370" 
d="M294 173q0 -23 -8.5 -41.5t-22.5 -33.5t-32.5 -27.5t-39.5 -24.5q27 -19 49 -41t22 -57q0 -26 -11 -51t-32 -45t-52.5 -32t-72.5 -12q-58 0 -89.5 28t-31.5 66q0 26 10 46.5t26.5 36.5t37.5 29.5t44 25.5q-22 17 -37.5 37t-15.5 49q0 24 9.5 46.5t28 40.5t46.5 28.5
t65 10.5q56 0 81.5 -24.5t25.5 -54.5zM232 167q0 22 -14.5 32.5t-40.5 10.5q-30 0 -51.5 -20t-21.5 -52q0 -21 13.5 -36.5t33.5 -29.5q33 19 57 41t24 54zM189 -65q0 26 -18.5 43.5t-41.5 33.5q-35 -20 -61.5 -43.5t-26.5 -59.5q0 -26 16.5 -40t45.5 -14q17 0 32.5 6
t27.5 16.5t19 25t7 32.5z" />
    <glyph glyph-name="uni2089" unicode="&#x2089;" horiz-adv-x="370" 
d="M294 129q0 -65 -26 -122.5t-72 -102.5q-26 -26 -54.5 -44t-55.5 -29.5t-50.5 -17t-38.5 -5.5q-24 0 -24 20t25 25q28 6 56 18t54 30.5t48 44.5t37 61q-17 -11 -37 -18t-46 -7q-45 0 -71.5 27.5t-26.5 72.5q0 35 11.5 66t33.5 54t52 36.5t68 13.5q57 0 87 -34.5t30 -88.5z
M224 135q0 32 -13 51t-42 19q-21 0 -37 -11.5t-27 -28.5t-16.5 -37.5t-5.5 -38.5q0 -26 13.5 -43t42.5 -17q19 0 38.5 6.5t33.5 16.5q7 23 10 44t3 39z" />
    <glyph glyph-name="uni208A" unicode="&#x208a;" horiz-adv-x="370" 
d="M273 40q0 -1 -1 -6l-4 -17q-3 -13 -17 -13h-87l-20 -92q-4 -14 -17 -14h-25q-15 0 -15 15q0 3 1 8l18 83h-82q-16 0 -16 14v2q0 2 1 7l3 17q3 14 18 14h87l19 88q3 14 17 14h24q16 0 16 -14q0 -4 -1 -9l-16 -79h82q15 0 15 -15v-3z" />
    <glyph glyph-name="uni208B" unicode="&#x208b;" horiz-adv-x="370" 
d="M273 43q0 -3 -1 -8l-4 -18q-3 -13 -17 -13h-227q-16 0 -16 14v3q0 1 1 6l3 17q3 14 18 14h228q15 0 15 -15z" />
    <glyph glyph-name="uni208C" unicode="&#x208c;" horiz-adv-x="370" 
d="M286 107q0 -3 -1 -8l-4 -18q-4 -14 -17 -14h-228q-15 0 -15 14q0 3 1 8l4 19q3 13 17 13h227q16 0 16 -14zM259 -25q0 -1 -1 -6l-4 -18q-4 -14 -17 -14h-228q-15 0 -15 14v2q0 1 1 6l4 19q3 13 17 13h227q16 0 16 -14v-2z" />
    <glyph glyph-name="uni208D" unicode="&#x208d;" horiz-adv-x="246" 
d="M243 340q0 -11 -12 -24q-36 -40 -64.5 -87t-48 -98.5t-29.5 -105t-10 -105.5q0 -101 28 -172q5 -13 5 -22q0 -8 -5 -14t-14 -6q-15 0 -25 17q-29 46 -46 102t-17 125q0 58 13.5 112.5t38.5 104.5t60 93.5t78 78.5q18 15 33 15t15 -14z" />
    <glyph glyph-name="uni208E" unicode="&#x208e;" horiz-adv-x="246" 
d="M151 110q0 -58 -13.5 -112.5t-38.5 -104.5t-60 -93.5t-78 -78.5q-18 -15 -32 -15q-17 0 -17 16q0 10 9 19q75 85 115.5 189.5t40.5 209.5q0 101 -28 172q-6 15 -6 22q0 8 5 14t14 6q15 0 25 -17q29 -46 46.5 -102t17.5 -125z" />
    <glyph glyph-name="Euro" unicode="&#x20ac;" horiz-adv-x="715" 
d="M735 587q0 -25 -15.5 -40.5t-41.5 -15.5q-41 0 -50 40q-3 15 -10 29.5t-19.5 26t-32 18.5t-48.5 7q-37 0 -69 -15t-58 -40.5t-47 -59.5t-37 -72h214q16 0 16 -16q0 -2 -1 -7l-4 -18q-2 -6 -6.5 -10.5t-12.5 -4.5h-226q-8 -27 -13.5 -53t-8.5 -51h221q17 0 17 -17
q0 -3 -1 -7l-4 -18q-2 -6 -6.5 -10.5t-12.5 -4.5h-216q1 -37 9.5 -69t27.5 -55.5t48.5 -37t72.5 -13.5q30 0 54 6.5t43 16t34 20.5t26 20q17 14 36 14q11 0 17.5 -6.5t6.5 -17.5q0 -17 -18 -41t-50.5 -46t-78 -38t-100.5 -16q-69 0 -115.5 20.5t-75.5 55.5t-41.5 81
t-12.5 98v8h-75q-16 0 -16 17q0 2 1 7l4 17q2 6 6.5 11t12.5 5h70q6 53 21 104h-65q-17 0 -17 17q0 2 1 7l4 17q2 6 6.5 10.5t12.5 4.5h78q22 53 54.5 100t75 81.5t96 54.5t116.5 20q57 0 95.5 -14.5t62.5 -35t34.5 -43.5t10.5 -41z" />
    <glyph glyph-name="uni2117" unicode="&#x2117;" horiz-adv-x="866" 
d="M831 422q0 -92 -35.5 -171.5t-96.5 -138.5t-142 -93t-172 -34q-66 0 -122.5 23t-97 63.5t-63.5 95t-23 117.5q0 93 36.5 173t98 138.5t142 92t169.5 33.5q66 0 122.5 -23t97 -63.5t63.5 -95t23 -117.5zM770 414q0 52 -18.5 98t-52 80.5t-80 54t-102.5 19.5
q-78 0 -146.5 -30t-119.5 -81t-81 -119t-30 -144q0 -53 18.5 -98.5t52.5 -79t80.5 -53t102.5 -19.5q76 0 144.5 29.5t120 80t81.5 118t30 144.5zM635 466q0 -64 -46.5 -105.5t-146.5 -41.5h-20q-10 0 -20 1l-35 -164q-3 -12 -13 -12h-44q-10 0 -10 9v4q0 2 2 8l79 367
q3 11 17 18q13 6 43 12t59 6q28 0 52.5 -6t43 -18.5t29 -31.5t10.5 -46zM570 466q0 31 -20.5 46.5t-57.5 15.5q-14 0 -26.5 -2.5t-21.5 -4.5l-34 -161q4 -1 13.5 -1.5t19.5 -0.5q34 0 58.5 9.5t39.5 25t22 35t7 38.5z" />
    <glyph glyph-name="trademark" unicode="&#x2122;" horiz-adv-x="843" 
d="M851 692q0 -2 -1 -7l-43 -366q-2 -10 -13 -10h-51q-10 0 -10 10q0 3 1 8l34 220q4 24 8.5 45t6.5 31h-2q-5 -11 -14.5 -32t-23.5 -44l-133 -228q-6 -10 -14 -10h-21q-11 0 -12 10l-35 228q-3 20 -5 42t-3 34h-2q-2 -11 -5.5 -33t-9.5 -43l-65 -228q-3 -10 -14 -10h-44
q-11 0 -11 11q0 3 2 8l112 368q3 10 14 10h60q10 0 12 -11l34 -224q2 -17 3 -34.5t1 -25.5h2q1 4 4 11.5t7 16.5t8 17.5t8 14.5l130 225q5 10 15 10h60q10 0 10 -10v-4zM408 694q0 -2 -1 -7l-5 -23q-2 -11 -14 -11h-88l-70 -333q-2 -11 -14 -11h-52q-13 0 -13 13q0 3 1 7
l69 324h-83q-13 0 -13 12q0 3 1 8l4 22q2 11 14 11h251q13 0 13 -12z" />
    <glyph glyph-name="Omega" unicode="&#x2126;" horiz-adv-x="738" 
d="M717 480q0 -63 -19 -117.5t-50.5 -103t-72.5 -91.5t-85 -84v-2h147q16 0 16 -16v-3q0 -1 -1 -6l-9 -42q-2 -6 -7 -10.5t-13 -4.5h-239q-16 0 -16 16v3q0 1 1 6l8 36q1 9 9 18q40 47 77 94.5t65 97.5t45 103t17 112q0 72 -34.5 115t-103.5 43q-58 0 -103 -32t-75.5 -80.5
t-46.5 -107.5t-16 -113q0 -61 16 -116.5t45 -114.5q1 -2 1.5 -4.5t0.5 -7.5q0 -4 -1 -9l-9 -42q-4 -17 -22 -17h-230q-16 0 -16 16v2q0 1 1 6l9 43q2 6 6.5 10.5t12.5 4.5h151v2q-35 54 -60.5 122t-25.5 143q0 69 25 135.5t73.5 119t118.5 85t160 32.5q58 0 104.5 -17.5
t78.5 -49t49.5 -76t17.5 -98.5z" />
    <glyph glyph-name="uni2150" unicode="&#x2150;" horiz-adv-x="935" 
d="M354 697q0 -1 -1 -6l-84 -395q-4 -14 -17 -14h-42q-16 0 -16 15q0 3 1 8l66 310q-11 -6 -25.5 -12t-29 -10.5t-28 -7t-21.5 -2.5q-9 0 -14.5 6t-5.5 14q0 10 7 17t17 9q41 11 80 30.5t70 45.5q6 5 11.5 7.5t13.5 2.5q18 0 18 -15v-3zM783 694q0 -5 -8 -16l-514 -665
q-5 -7 -10.5 -10t-14.5 -3h-26q-13 0 -13 12q0 6 8 16l515 665q5 7 10.5 10t14.5 3h24q14 0 14 -12zM923 410q0 -9 -8 -20q-32 -44 -65 -92t-64.5 -97t-60 -97t-51.5 -92q-3 -6 -6.5 -9t-11.5 -3h-59q-14 0 -14 15q0 2 1 6t5 9l239 331h-170q-15 0 -15 14q0 2 1 7l6 28
q3 14 17 14h241q15 0 15 -14z" />
    <glyph glyph-name="uni2151" unicode="&#x2151;" horiz-adv-x="935" 
d="M354 697q0 -1 -1 -6l-84 -395q-4 -14 -17 -14h-42q-16 0 -16 15q0 3 1 8l66 310q-11 -6 -25.5 -12t-29 -10.5t-28 -7t-21.5 -2.5q-9 0 -14.5 6t-5.5 14q0 10 7 17t17 9q41 11 80 30.5t70 45.5q6 5 11.5 7.5t13.5 2.5q18 0 18 -15v-3zM783 694q0 -5 -8 -16l-514 -665
q-5 -7 -10.5 -10t-14.5 -3h-26q-13 0 -13 12q0 6 8 16l515 665q5 7 10.5 10t14.5 3h24q14 0 14 -12zM897 311q0 -65 -26 -122.5t-72 -102.5q-26 -26 -54.5 -44t-55.5 -29.5t-50.5 -17t-38.5 -5.5q-24 0 -24 20t25 25q28 6 56 18t54 30.5t48 44.5t37 61q-17 -11 -37 -18
t-46 -7q-45 0 -71.5 27.5t-26.5 72.5q0 35 11.5 66t33.5 54t52 36.5t68 13.5q57 0 87 -34.5t30 -88.5zM827 317q0 32 -13 51t-42 19q-21 0 -37 -11.5t-27 -28.5t-16.5 -37.5t-5.5 -38.5q0 -26 13.5 -43t42.5 -17q19 0 38.5 6.5t33.5 16.5q7 23 10 44t3 39z" />
    <glyph glyph-name="uni2152" unicode="&#x2152;" horiz-adv-x="1305" 
d="M354 697q0 -1 -1 -6l-84 -395q-4 -14 -17 -14h-42q-16 0 -16 15q0 3 1 8l66 310q-11 -6 -25.5 -12t-29 -10.5t-28 -7t-21.5 -2.5q-9 0 -14.5 6t-5.5 14q0 10 7 17t17 9q41 11 80 30.5t70 45.5q6 5 11.5 7.5t13.5 2.5q18 0 18 -15v-3zM783 694q0 -5 -8 -16l-514 -665
q-5 -7 -10.5 -10t-14.5 -3h-26q-13 0 -13 12q0 6 8 16l515 665q5 7 10.5 10t14.5 3h24q14 0 14 -12zM859 415q0 -1 -1 -6l-84 -395q-4 -14 -17 -14h-42q-16 0 -16 15q0 3 1 8l66 310q-11 -6 -25.5 -12t-29 -10.5t-28 -7t-21.5 -2.5q-9 0 -14.5 6t-5.5 14q0 10 7 17t17 9
q41 11 80 30.5t70 45.5q6 5 11.5 7.5t13.5 2.5q18 0 18 -15v-3zM1263 292q0 -42 -11 -94.5t-34.5 -98.5t-60.5 -77.5t-89 -31.5q-48 0 -76.5 37t-28.5 105q0 42 11 94.5t35 98.5t61 77.5t89 31.5q48 0 76 -37t28 -105zM1193 307q0 76 -44 76q-33 0 -60 -48
q-11 -20 -21 -47.5t-17.5 -57t-11.5 -59t-4 -51.5q0 -74 43 -74q32 0 61 48q11 19 20.5 46.5t17 57t12 58t4.5 51.5z" />
    <glyph glyph-name="onethird" unicode="&#x2153;" horiz-adv-x="857" 
d="M808 353q0 -20 -7.5 -37t-20 -32t-28.5 -26.5t-33 -19.5v-2q26 -12 44 -34.5t18 -55.5q0 -24 -10 -51.5t-31.5 -50.5t-55 -38.5t-79.5 -15.5q-21 0 -40.5 5.5t-34.5 15t-24 22t-9 26.5q0 15 10.5 25t25.5 10q12 0 19.5 -5t12.5 -14q8 -14 20 -24t34 -10q19 0 34.5 8
t26.5 21t17.5 29t6.5 32q0 33 -22.5 50t-51.5 25q-15 4 -15 16q0 9 7 14.5t16 8.5q16 5 32 13t29.5 19t22 26t8.5 34q0 20 -12.5 31t-35.5 11q-31 0 -49 -18t-28 -38q-9 -17 -28 -17t-19 19q0 13 9 31.5t27.5 35.5t46 29.5t64.5 12.5q52 0 77.5 -24.5t25.5 -56.5zM726 694
q0 -3 -2.5 -7.5t-5.5 -8.5l-514 -665q-5 -7 -10.5 -10t-14.5 -3h-26q-13 0 -13 12q0 6 8 16l515 665q5 7 10.5 10t14.5 3h24q14 0 14 -12zM347 697q0 -1 -1 -6l-84 -395q-4 -14 -17 -14h-42q-16 0 -16 15q0 3 1 8l66 310q-11 -6 -25.5 -12t-29 -10.5t-28 -7t-21.5 -2.5
q-9 0 -14.5 6t-5.5 14q0 10 7 17t17 9q41 11 80 30.5t70 45.5q6 5 11.5 7.5t13.5 2.5q18 0 18 -15v-3z" />
    <glyph glyph-name="twothirds" unicode="&#x2154;" horiz-adv-x="857" 
d="M808 353q0 -20 -7.5 -37t-20 -32t-28.5 -26.5t-33 -19.5v-2q26 -12 44 -34.5t18 -55.5q0 -24 -10 -51.5t-31.5 -50.5t-55 -38.5t-79.5 -15.5q-21 0 -40.5 5.5t-34.5 15t-24 22t-9 26.5q0 15 10.5 25t25.5 10q12 0 19.5 -5t12.5 -14q8 -14 20 -24t34 -10q19 0 34.5 8
t26.5 21t17.5 29t6.5 32q0 33 -22.5 50t-51.5 25q-15 4 -15 16q0 9 7 14.5t16 8.5q16 5 32 13t29.5 19t22 26t8.5 34q0 20 -12.5 31t-35.5 11q-31 0 -49 -18t-28 -38q-9 -17 -28 -17t-19 19q0 13 9 31.5t27.5 35.5t46 29.5t64.5 12.5q52 0 77.5 -24.5t25.5 -56.5zM757 694
q0 -3 -2.5 -7.5t-5.5 -8.5l-514 -665q-5 -7 -10.5 -10t-14.5 -3h-26q-13 0 -13 12q0 6 8 16l515 665q5 7 10.5 10t14.5 3h24q14 0 14 -12zM385 621q0 -21 -7.5 -41t-19 -38t-26.5 -34.5t-30 -30.5l-136 -129v-2h151q15 0 15 -15q0 -3 -1 -8l-6 -27q-4 -14 -17 -14h-234
q-7 0 -11 4.5t-4 10.5q0 2 1 6t6 9l189 199q20 20 36.5 45t16.5 54q0 23 -13 36.5t-39 13.5q-16 0 -29 -6.5t-23.5 -17t-18 -22.5t-11.5 -23q-8 -18 -27 -18q-9 0 -14.5 6.5t-5.5 14.5q0 15 9.5 36t28 40t47.5 32.5t68 13.5q28 0 48 -8t32.5 -21.5t18.5 -30.5t6 -35z" />
    <glyph glyph-name="uni2155" unicode="&#x2155;" horiz-adv-x="857" 
d="M819 409q0 -2 -1 -7l-7 -28q-3 -13 -17 -13h-150l-32 -114q11 5 27 9t33 4q50 0 81.5 -27.5t31.5 -72.5q0 -30 -10.5 -60.5t-32.5 -54.5t-55.5 -39.5t-78.5 -15.5q-21 0 -40.5 5.5t-34 15t-23.5 21.5t-9 26q0 16 10 26t25 10q12 0 19.5 -5t12.5 -14q8 -14 20 -24t34 -10
q20 0 36 9t27 23t17 32t6 35q0 30 -19 48.5t-58 18.5q-24 0 -42.5 -7.5t-28.5 -7.5q-15 0 -15 13v3q0 2 2 7l56 195q3 14 18 14h183q15 0 15 -15zM725 694q0 -3 -2.5 -7.5t-5.5 -8.5l-514 -665q-5 -7 -10.5 -10t-14.5 -3h-26q-13 0 -13 12q0 6 8 16l515 665q5 7 10.5 10
t14.5 3h24q14 0 14 -12zM347 697q0 -1 -1 -6l-84 -395q-4 -14 -17 -14h-42q-16 0 -16 15q0 3 1 8l66 310q-11 -6 -25.5 -12t-29 -10.5t-28 -7t-21.5 -2.5q-9 0 -14.5 6t-5.5 14q0 10 7 17t17 9q41 11 80 30.5t70 45.5q6 5 11.5 7.5t13.5 2.5q18 0 18 -15v-3z" />
    <glyph glyph-name="uni2156" unicode="&#x2156;" horiz-adv-x="857" 
d="M819 409q0 -2 -1 -7l-7 -28q-3 -13 -17 -13h-150l-32 -114q11 5 27 9t33 4q50 0 81.5 -27.5t31.5 -72.5q0 -30 -10.5 -60.5t-32.5 -54.5t-55.5 -39.5t-78.5 -15.5q-21 0 -40.5 5.5t-34 15t-23.5 21.5t-9 26q0 16 10 26t25 10q12 0 19.5 -5t12.5 -14q8 -14 20 -24t34 -10
q20 0 36 9t27 23t17 32t6 35q0 30 -19 48.5t-58 18.5q-24 0 -42.5 -7.5t-28.5 -7.5q-15 0 -15 13v3q0 2 2 7l56 195q3 14 18 14h183q15 0 15 -15zM385 621q0 -21 -7.5 -41t-19 -38t-26.5 -34.5t-30 -30.5l-136 -129v-2h151q15 0 15 -15q0 -3 -1 -8l-6 -27q-4 -14 -17 -14
h-234q-7 0 -11 4.5t-4 10.5q0 2 1 6t6 9l189 199q20 20 36.5 45t16.5 54q0 23 -13 36.5t-39 13.5q-16 0 -29 -6.5t-23.5 -17t-18 -22.5t-11.5 -23q-8 -18 -27 -18q-9 0 -14.5 6.5t-5.5 14.5q0 15 9.5 36t28 40t47.5 32.5t68 13.5q28 0 48 -8t32.5 -21.5t18.5 -30.5t6 -35z
M758 694q0 -3 -2.5 -7.5t-5.5 -8.5l-514 -665q-5 -7 -10.5 -10t-14.5 -3h-26q-13 0 -13 12q0 6 8 16l515 665q5 7 10.5 10t14.5 3h24q14 0 14 -12z" />
    <glyph glyph-name="uni2157" unicode="&#x2157;" horiz-adv-x="857" 
d="M819 409q0 -2 -1 -7l-7 -28q-3 -13 -17 -13h-150l-32 -114q11 5 27 9t33 4q50 0 81.5 -27.5t31.5 -72.5q0 -30 -10.5 -60.5t-32.5 -54.5t-55.5 -39.5t-78.5 -15.5q-21 0 -40.5 5.5t-34 15t-23.5 21.5t-9 26q0 16 10 26t25 10q12 0 19.5 -5t12.5 -14q8 -14 20 -24t34 -10
q20 0 36 9t27 23t17 32t6 35q0 30 -19 48.5t-58 18.5q-24 0 -42.5 -7.5t-28.5 -7.5q-15 0 -15 13v3q0 2 2 7l56 195q3 14 18 14h183q15 0 15 -15zM380 635q0 -20 -7.5 -37t-20 -32t-28.5 -26.5t-33 -19.5v-2q26 -12 44 -34.5t18 -55.5q0 -24 -10 -51.5t-31.5 -50.5
t-55 -38.5t-79.5 -15.5q-21 0 -40.5 5.5t-34.5 15t-24 22t-9 26.5q0 15 10.5 25t25.5 10q12 0 19.5 -5t12.5 -14q8 -14 20 -24t34 -10q19 0 34.5 8t26.5 21t17.5 29t6.5 32q0 33 -22.5 50t-51.5 25q-15 4 -15 16q0 9 7 14.5t16 8.5q16 5 32 13t29.5 19t22 26t8.5 34
q0 20 -12.5 31t-35.5 11q-31 0 -49 -18t-28 -38q-9 -17 -28 -17t-19 19q0 13 9 31.5t27.5 35.5t46 29.5t64.5 12.5q52 0 77.5 -24.5t25.5 -56.5zM739 694q0 -3 -2.5 -7.5t-5.5 -8.5l-514 -665q-5 -7 -10.5 -10t-14.5 -3h-26q-13 0 -13 12q0 6 8 16l515 665q5 7 10.5 10
t14.5 3h24q14 0 14 -12z" />
    <glyph glyph-name="uni2158" unicode="&#x2158;" horiz-adv-x="857" 
d="M376 694q0 -3 -1 -8l-54 -255h37q14 0 14 -12v-2q0 -1 -1 -6l-3 -16q-3 -12 -18 -12h-39l-19 -87q-4 -14 -17 -14h-37q-15 0 -15 15q0 3 1 8l17 78h-154q-22 0 -22 20q0 11 13 26l233 268q5 6 9.5 7.5t9.5 1.5h34q12 0 12 -12zM820 409q0 -2 -1 -7l-7 -28q-3 -13 -17 -13
h-150l-32 -114q11 5 27 9t33 4q50 0 81.5 -27.5t31.5 -72.5q0 -30 -10.5 -60.5t-32.5 -54.5t-55.5 -39.5t-78.5 -15.5q-21 0 -40.5 5.5t-34 15t-23.5 21.5t-9 26q0 16 10 26t25 10q12 0 19.5 -5t12.5 -14q8 -14 20 -24t34 -10q20 0 36 9t27 23t17 32t6 35q0 30 -19 48.5
t-58 18.5q-24 0 -42.5 -7.5t-28.5 -7.5q-15 0 -15 13v3q0 2 2 7l56 195q3 14 18 14h183q15 0 15 -15zM748 694q0 -3 -2.5 -7.5t-5.5 -8.5l-514 -665q-5 -7 -10.5 -10t-14.5 -3h-26q-13 0 -13 12q0 6 8 16l515 665q5 7 10.5 10t14.5 3h24q14 0 14 -12zM296 626
q-4 -5 -11.5 -16.5t-20.5 -26.5l-129 -152h117l31 143q4 18 8 31.5t6 20.5h-1z" />
    <glyph glyph-name="uni2159" unicode="&#x2159;" horiz-adv-x="857" 
d="M822 414q0 -20 -24 -24q-28 -6 -56 -18t-54 -31t-48.5 -45.5t-37.5 -60.5q17 11 37.5 18t46.5 7q45 0 71.5 -27.5t26.5 -72.5q0 -35 -12 -66t-33.5 -54t-52.5 -36.5t-68 -13.5q-57 0 -87 34.5t-30 88.5q0 65 26 122.5t72 102.5q26 25 54.5 43.5t55.5 30t50.5 17t38.5 5.5
q24 0 24 -20zM740 694q0 -3 -2.5 -7.5t-5.5 -8.5l-514 -665q-5 -7 -10.5 -10t-14.5 -3h-26q-13 0 -13 12q0 6 8 16l515 665q5 7 10.5 10t14.5 3h24q14 0 14 -12zM347 697q0 -1 -1 -6l-84 -395q-4 -14 -17 -14h-42q-16 0 -16 15q0 3 1 8l66 310q-11 -6 -25.5 -12t-29 -10.5
t-28 -7t-21.5 -2.5q-9 0 -14.5 6t-5.5 14q0 10 7 17t17 9q41 11 80 30.5t70 45.5q6 5 11.5 7.5t13.5 2.5q18 0 18 -15v-3zM712 155q0 26 -13.5 43t-42.5 17q-19 0 -38.5 -6.5t-33.5 -16.5q-7 -23 -9.5 -44.5t-2.5 -39.5q0 -32 12.5 -51t41.5 -19q21 0 37 11.5t27 29t16.5 38
t5.5 38.5z" />
    <glyph glyph-name="uni215A" unicode="&#x215a;" horiz-adv-x="857" 
d="M822 414q0 -20 -24 -24q-28 -6 -56 -18t-54 -31t-48.5 -45.5t-37.5 -60.5q17 11 37.5 18t46.5 7q45 0 71.5 -27.5t26.5 -72.5q0 -35 -12 -66t-33.5 -54t-52.5 -36.5t-68 -13.5q-57 0 -87 34.5t-30 88.5q0 65 26 122.5t72 102.5q26 25 54.5 43.5t55.5 30t50.5 17t38.5 5.5
q24 0 24 -20zM391 691q0 -2 -1 -7l-7 -28q-3 -13 -17 -13h-150l-32 -114q11 5 27 9t33 4q50 0 81.5 -27.5t31.5 -72.5q0 -30 -10.5 -60.5t-32.5 -54.5t-55.5 -39.5t-78.5 -15.5q-21 0 -40.5 5.5t-34 15t-23.5 21.5t-9 26q0 16 10 26t25 10q12 0 19.5 -5t12.5 -14
q8 -14 20 -24t34 -10q20 0 36 9t27 23t17 32t6 35q0 30 -19 48.5t-58 18.5q-24 0 -42.5 -7.5t-28.5 -7.5q-15 0 -15 13v3q0 2 2 7l56 195q3 14 18 14h183q15 0 15 -15zM758 694q0 -3 -2.5 -7.5t-5.5 -8.5l-514 -665q-5 -7 -10.5 -10t-14.5 -3h-26q-13 0 -13 12q0 6 8 16
l515 665q5 7 10.5 10t14.5 3h24q14 0 14 -12zM712 155q0 26 -13.5 43t-42.5 17q-19 0 -38.5 -6.5t-33.5 -16.5q-7 -23 -9.5 -44.5t-2.5 -39.5q0 -32 12.5 -51t41.5 -19q21 0 37 11.5t27 29t16.5 38t5.5 38.5z" />
    <glyph glyph-name="oneeighth" unicode="&#x215b;" horiz-adv-x="857" 
d="M813 355q0 -23 -8.5 -41.5t-22.5 -33.5t-32.5 -27.5t-39.5 -24.5q27 -19 49 -41t22 -57q0 -26 -11 -51t-32 -45t-52.5 -32t-72.5 -12q-58 0 -89.5 28t-31.5 66q0 26 10 46.5t26.5 36.5t37.5 29.5t44 25.5q-22 17 -37.5 37t-15.5 49q0 24 9.5 46.5t28 40.5t46.5 28.5
t65 10.5q56 0 81.5 -24.5t25.5 -54.5zM725 694q0 -3 -2.5 -7.5t-5.5 -8.5l-514 -665q-5 -7 -10.5 -10t-14.5 -3h-26q-13 0 -13 12q0 6 8 16l515 665q5 7 10.5 10t14.5 3h24q14 0 14 -12zM346 697q0 -1 -1 -6l-84 -395q-4 -14 -17 -14h-42q-16 0 -16 15q0 3 1 8l66 310
q-11 -6 -25.5 -12t-29 -10.5t-28 -7t-21.5 -2.5q-9 0 -14.5 6t-5.5 14q0 10 7 17t17 9q41 11 80 30.5t70 45.5q6 5 11.5 7.5t13.5 2.5q18 0 18 -15v-3zM708 117q0 26 -18.5 43.5t-41.5 33.5q-35 -20 -61.5 -43.5t-26.5 -59.5q0 -26 16.5 -40t45.5 -14q17 0 32.5 6t27.5 16.5
t19 25t7 32.5zM751 349q0 22 -14.5 32.5t-40.5 10.5q-30 0 -51.5 -20t-21.5 -52q0 -21 13.5 -36.5t33.5 -29.5q33 19 57 41t24 54z" />
    <glyph glyph-name="threeeighths" unicode="&#x215c;" horiz-adv-x="857" 
d="M380 635q0 -20 -7.5 -37t-20 -32t-28.5 -26.5t-33 -19.5v-2q26 -12 44 -34.5t18 -55.5q0 -24 -10 -51.5t-31.5 -50.5t-55 -38.5t-79.5 -15.5q-21 0 -40.5 5.5t-34.5 15t-24 22t-9 26.5q0 15 10.5 25t25.5 10q12 0 19.5 -5t12.5 -14q8 -14 20 -24t34 -10q19 0 34.5 8
t26.5 21t17.5 29t6.5 32q0 33 -22.5 50t-51.5 25q-15 4 -15 16q0 9 7 14.5t16 8.5q16 5 32 13t29.5 19t22 26t8.5 34q0 20 -12.5 31t-35.5 11q-31 0 -49 -18t-28 -38q-9 -17 -28 -17t-19 19q0 13 9 31.5t27.5 35.5t46 29.5t64.5 12.5q52 0 77.5 -24.5t25.5 -56.5zM814 355
q0 -23 -8.5 -41.5t-22.5 -33.5t-32.5 -27.5t-39.5 -24.5q27 -19 49 -41t22 -57q0 -26 -11 -51t-32 -45t-52.5 -32t-72.5 -12q-58 0 -89.5 28t-31.5 66q0 26 10 46.5t26.5 36.5t37.5 29.5t44 25.5q-22 17 -37.5 37t-15.5 49q0 24 9.5 46.5t28 40.5t46.5 28.5t65 10.5
q56 0 81.5 -24.5t25.5 -54.5zM752 349q0 22 -14.5 32.5t-40.5 10.5q-30 0 -51.5 -20t-21.5 -52q0 -21 13.5 -36.5t33.5 -29.5q33 19 57 41t24 54zM709 117q0 26 -18.5 43.5t-41.5 33.5q-35 -20 -61.5 -43.5t-26.5 -59.5q0 -26 16.5 -40t45.5 -14q17 0 32.5 6t27.5 16.5
t19 25t7 32.5zM742 694q0 -3 -2.5 -7.5t-5.5 -8.5l-514 -665q-5 -7 -10.5 -10t-14.5 -3h-26q-13 0 -13 12q0 6 8 16l515 665q5 7 10.5 10t14.5 3h24q14 0 14 -12z" />
    <glyph glyph-name="fiveeighths" unicode="&#x215d;" horiz-adv-x="857" 
d="M813 355q0 -23 -8.5 -41.5t-22.5 -33.5t-32.5 -27.5t-39.5 -24.5q27 -19 49 -41t22 -57q0 -26 -11 -51t-32 -45t-52.5 -32t-72.5 -12q-58 0 -89.5 28t-31.5 66q0 26 10 46.5t26.5 36.5t37.5 29.5t44 25.5q-22 17 -37.5 37t-15.5 49q0 24 9.5 46.5t28 40.5t46.5 28.5
t65 10.5q56 0 81.5 -24.5t25.5 -54.5zM389 691q0 -2 -1 -7l-7 -28q-3 -13 -17 -13h-150l-32 -114q11 5 27 9t33 4q50 0 81.5 -27.5t31.5 -72.5q0 -30 -10.5 -60.5t-32.5 -54.5t-55.5 -39.5t-78.5 -15.5q-21 0 -40.5 5.5t-34 15t-23.5 21.5t-9 26q0 16 10 26t25 10
q12 0 19.5 -5t12.5 -14q8 -14 20 -24t34 -10q20 0 36 9t27 23t17 32t6 35q0 30 -19 48.5t-58 18.5q-24 0 -42.5 -7.5t-28.5 -7.5q-15 0 -15 13v3q0 2 2 7l56 195q3 14 18 14h183q15 0 15 -15zM742 694q0 -3 -2.5 -7.5t-5.5 -8.5l-514 -665q-5 -7 -10.5 -10t-14.5 -3h-26
q-13 0 -13 12q0 6 8 16l515 665q5 7 10.5 10t14.5 3h24q14 0 14 -12zM708 117q0 26 -18.5 43.5t-41.5 33.5q-35 -20 -61.5 -43.5t-26.5 -59.5q0 -26 16.5 -40t45.5 -14q17 0 32.5 6t27.5 16.5t19 25t7 32.5zM751 349q0 22 -14.5 32.5t-40.5 10.5q-30 0 -51.5 -20t-21.5 -52
q0 -21 13.5 -36.5t33.5 -29.5q33 19 57 41t24 54z" />
    <glyph glyph-name="seveneighths" unicode="&#x215e;" horiz-adv-x="857" 
d="M813 355q0 -23 -8.5 -41.5t-22.5 -33.5t-32.5 -27.5t-39.5 -24.5q27 -19 49 -41t22 -57q0 -26 -11 -51t-32 -45t-52.5 -32t-72.5 -12q-58 0 -89.5 28t-31.5 66q0 26 10 46.5t26.5 36.5t37.5 29.5t44 25.5q-22 17 -37.5 37t-15.5 49q0 24 9.5 46.5t28 40.5t46.5 28.5
t65 10.5q56 0 81.5 -24.5t25.5 -54.5zM751 349q0 22 -14.5 32.5t-40.5 10.5q-30 0 -51.5 -20t-21.5 -52q0 -21 13.5 -36.5t33.5 -29.5q33 19 57 41t24 54zM708 117q0 26 -18.5 43.5t-41.5 33.5q-35 -20 -61.5 -43.5t-26.5 -59.5q0 -26 16.5 -40t45.5 -14q17 0 32.5 6
t27.5 16.5t19 25t7 32.5zM701 694q0 -3 -2.5 -7.5t-5.5 -8.5l-514 -665q-5 -7 -10.5 -10t-14.5 -3h-26q-13 0 -13 12q0 6 8 16l515 665q5 7 10.5 10t14.5 3h24q14 0 14 -12zM422 692q0 -9 -8 -20q-32 -44 -65 -92t-64.5 -97t-60 -97t-51.5 -92q-3 -6 -6.5 -9t-11.5 -3h-59
q-14 0 -14 15q0 2 1 6t5 9l239 331h-170q-15 0 -15 14q0 2 1 7l6 28q3 14 17 14h241q15 0 15 -14z" />
    <glyph glyph-name="uni215F" unicode="&#x215f;" horiz-adv-x="510" 
d="M728 694q0 -3 -2.5 -7.5t-5.5 -8.5l-514 -665q-5 -7 -10.5 -10t-14.5 -3h-26q-13 0 -13 12q0 6 8 16l515 665q5 7 10.5 10t14.5 3h24q14 0 14 -12zM346 697q0 -1 -1 -6l-84 -395q-4 -14 -17 -14h-42q-16 0 -16 15q0 3 1 8l66 310q-11 -6 -25.5 -12t-29 -10.5t-28 -7
t-21.5 -2.5q-9 0 -14.5 6t-5.5 14q0 10 7 17t17 9q41 11 80 30.5t70 45.5q6 5 11.5 7.5t13.5 2.5q18 0 18 -15v-3z" />
    <glyph glyph-name="uni2189" unicode="&#x2189;" horiz-adv-x="935" 
d="M388 574q0 -42 -11 -94.5t-34.5 -98.5t-60.5 -77.5t-89 -31.5q-48 0 -76.5 37t-28.5 105q0 42 11 94.5t35 98.5t61 77.5t89 31.5q48 0 76 -37t28 -105zM318 589q0 76 -44 76q-33 0 -60 -48q-11 -20 -21 -47.5t-17.5 -57t-11.5 -59t-4 -51.5q0 -74 43 -74q32 0 61 48
q11 19 20.5 46.5t17 57t12 58t4.5 51.5zM783 694q0 -5 -8 -16l-514 -665q-5 -7 -10.5 -10t-14.5 -3h-26q-13 0 -13 12q0 6 8 16l515 665q5 7 10.5 10t14.5 3h24q14 0 14 -12zM883 353q0 -20 -7.5 -37t-20 -32t-28.5 -26.5t-33 -19.5v-2q26 -12 44 -34.5t18 -55.5
q0 -24 -10 -51.5t-31.5 -50.5t-55 -38.5t-79.5 -15.5q-21 0 -40.5 5.5t-34.5 15t-24 22t-9 26.5q0 15 10.5 25t25.5 10q12 0 19.5 -5t12.5 -14q8 -14 20 -24t34 -10q19 0 34.5 8t26.5 21t17.5 29t6.5 32q0 33 -22.5 50t-51.5 25q-15 4 -15 16q0 9 7 14.5t16 8.5q16 5 32 13
t29.5 19t22 26t8.5 34q0 20 -12.5 31t-35.5 11q-31 0 -49 -18t-28 -38q-9 -17 -28 -17t-19 19q0 13 9 31.5t27.5 35.5t46 29.5t64.5 12.5q52 0 77.5 -24.5t25.5 -56.5z" />
    <glyph glyph-name="partialdiff" unicode="&#x2202;" horiz-adv-x="585" 
d="M566 424q0 -40 -9 -84t-25 -87.5t-38.5 -83.5t-50.5 -71q-45 -51 -104 -82t-138 -31q-40 0 -71.5 12.5t-53.5 34t-33.5 50t-11.5 60.5q0 56 24 108.5t67.5 93.5t102.5 65.5t130 24.5q26 0 51 -4t48 -10q0 3 0.5 9t0.5 14q0 79 -43.5 132.5t-113.5 85.5q-8 4 -13.5 9.5
t-5.5 16.5q0 14 11.5 23t33.5 9q8 0 16 -1t16 -4q36 -13 73 -36.5t67.5 -59.5t50 -84.5t19.5 -109.5zM448 364q-42 12 -83 12q-50 0 -91 -21.5t-70 -54.5t-45 -74t-16 -80q0 -38 20 -63t58 -25q44 0 81 23.5t66 66.5q28 41 48 96t32 120z" />
    <glyph glyph-name="Delta" unicode="&#x2206;" horiz-adv-x="652" 
d="M585 17q0 -17 -18 -17h-583q-16 0 -16 15q0 5 2.5 9.5t4.5 8.5l379 656q9 17 27 17h83q17 0 20 -17l100 -658q1 -7 1 -10v-4zM406 488q-2 20 -3 40.5t-1 40.5q0 12 0.5 24t0.5 24h-2q-13 -33 -27 -65.5t-31 -63.5l-231 -417h347z" />
    <glyph glyph-name="product" unicode="&#x220f;" horiz-adv-x="799" 
d="M843 688q0 -1 -1 -6l-9 -42q-2 -6 -6.5 -10.5t-12.5 -4.5h-82l-180 -845q-2 -6 -6.5 -10.5t-12.5 -4.5h-87q-17 0 -17 16q0 3 1 8l178 836h-257l-180 -845q-2 -6 -6.5 -10.5t-12.5 -4.5h-88q-16 0 -16 16v3q0 1 1 6l178 835h-78q-16 0 -16 17q0 3 1 8l9 41q2 6 6.5 10.5
t12.5 4.5h665q16 0 16 -16v-2z" />
    <glyph glyph-name="summation" unicode="&#x2211;" horiz-adv-x="604" 
d="M638 688q0 -1 -1 -6l-8 -39q-2 -6 -6.5 -10.5t-12.5 -4.5h-335l144 -323q5 -11 5 -19q0 -10 -8 -22l-317 -416h357q16 0 16 -16v-2q0 -1 -1 -6l-9 -44q-2 -6 -6.5 -10.5t-12.5 -4.5h-482q-21 0 -21 19q0 8 7 17l365 479l-172 389q-4 8 -4 15q0 22 23 22h463q16 0 16 -16
v-2z" />
    <glyph glyph-name="minus" unicode="&#x2212;" horiz-adv-x="556" 
d="M524 322q0 -2 -1 -7l-8 -39q-2 -6 -6.5 -10.5t-12.5 -4.5h-424q-16 0 -16 16q0 3 1 8l9 38q2 6 6.5 11t12.5 5h422q17 0 17 -17z" />
    <glyph glyph-name="uni2219" unicode="&#x2219;" horiz-adv-x="556" 
d="M406 338q0 -30 -11.5 -55.5t-31.5 -45t-46.5 -30.5t-55.5 -11q-23 0 -42.5 8.5t-34.5 23.5t-23.5 34t-8.5 40q0 30 11.5 55.5t31.5 45t46.5 30.5t55.5 11q22 0 42 -8.5t35 -23.5t23.5 -34t8.5 -40z" />
    <glyph glyph-name="radical" unicode="&#x221a;" horiz-adv-x="720" 
d="M773 750q0 -5 -4 -13l-410 -720q-5 -8 -11 -12.5t-17 -4.5h-75q-11 0 -15 5t-6 14l-66 434h-74q-16 0 -16 16q0 3 1 8l5 26q2 6 6.5 10.5t12.5 4.5h160q18 0 20 -18l34 -305q3 -29 3 -56v-15q0 -7 -1 -14h2q4 11 14 36.5t22 48.5l296 553q5 8 10 12.5t15 4.5h78
q16 0 16 -15z" />
    <glyph glyph-name="infinity" unicode="&#x221e;" horiz-adv-x="922" 
d="M866 360q0 -52 -18 -98.5t-49.5 -82t-73 -56t-89.5 -20.5q-36 0 -63.5 11.5t-49.5 30t-38.5 43.5t-29.5 52q-25 -27 -51 -52t-53.5 -43.5t-58 -30t-64.5 -11.5q-33 0 -60 12.5t-46 34t-29 50.5t-10 61q0 48 17 94t47 81.5t72.5 57.5t93.5 22q35 0 62 -11t48.5 -30t38 -43
t30.5 -51q24 27 50 51t54 43t59 30t66 11q34 0 60.5 -12.5t45.5 -33.5t29 -49.5t10 -60.5zM793 340q0 42 -23.5 68.5t-62.5 26.5q-26 0 -49.5 -9.5t-46 -26t-44 -38t-43.5 -45.5q12 -26 25 -49t28 -40.5t33.5 -28t42.5 -10.5q28 0 53.5 13t44.5 34.5t30.5 48.5t11.5 56z
M424 305q-12 25 -24.5 48t-27.5 40.5t-33.5 27.5t-42.5 10q-27 0 -52 -12.5t-44.5 -34t-31.5 -49t-12 -57.5q0 -42 23 -68t62 -26q25 0 49 9.5t46.5 26t44 38.5t43.5 47z" />
    <glyph glyph-name="integral" unicode="&#x222b;" horiz-adv-x="557" 
d="M571 727q0 -19 -12 -31t-35 -12q-16 0 -26.5 5.5t-23.5 5.5q-30 0 -55.5 -26.5t-40.5 -96.5l-121 -565q-17 -80 -44.5 -129.5t-61.5 -76.5t-71 -36.5t-72 -9.5q-33 0 -54 14t-21 38q0 19 12.5 32t35.5 13q15 0 27 -6.5t24 -6.5q30 0 57 26.5t42 95.5l119 564
q17 80 44.5 129t61.5 75.5t71 35.5t72 9q36 0 54 -14t18 -33z" />
    <glyph glyph-name="approxequal" unicode="&#x2248;" horiz-adv-x="556" 
d="M554 462q0 -3 -1 -7l-8 -37q-3 -13 -14 -24q-22 -23 -54 -42.5t-73 -19.5q-32 0 -56 11.5t-45.5 25.5t-43.5 25.5t-50 11.5q-31 0 -58.5 -17t-50.5 -40q-3 -3 -7 -6t-8 -3q-14 0 -14 14q0 3 1 8l8 36q2 7 5.5 12.5t8.5 10.5q22 23 54 43t73 20q31 0 55 -11.5t46 -25.5
t44 -25.5t50 -11.5q31 0 58.5 17t50.5 40q3 3 7 6t8 3q14 0 14 -14zM508 245q0 -2 -1 -7l-8 -37q-3 -13 -14 -24q-22 -23 -54 -42.5t-73 -19.5q-32 0 -56 11.5t-45.5 25.5t-43.5 25.5t-50 11.5q-31 0 -58.5 -17t-50.5 -40q-3 -3 -7 -6t-8 -3q-14 0 -14 14v2q0 1 1 6l8 36
q2 7 5.5 12.5t8.5 10.5q22 23 54 43t73 20q31 0 55 -11.5t46 -25.5t44 -25.5t50 -11.5q31 0 58.5 17t50.5 40q3 3 7 6t8 3q14 0 14 -14z" />
    <glyph glyph-name="notequal" unicode="&#x2260;" horiz-adv-x="556" 
d="M547 429q0 -3 -1 -7l-9 -39q-2 -6 -6.5 -11t-12.5 -5h-143l-107 -135h217q16 0 16 -17q0 -2 -1 -7l-9 -39q-2 -6 -6.5 -10.5t-12.5 -4.5h-265l-124 -157q-5 -7 -11 -7q-5 0 -10 3t-11 8l-9 7q-3 3 -3 8t5 10l101 128h-96q-16 0 -16 16q0 3 1 8l8 38q2 6 6.5 11t12.5 5
h145l107 135h-219q-16 0 -16 17q0 3 1 8l9 38q2 6 6.5 10.5t12.5 4.5h268l119 152q2 2 4.5 3t4.5 1q7 0 19 -9q6 -5 10 -8.5t4 -8.5q0 -4 -4 -8l-96 -122h94q17 0 17 -16z" />
    <glyph glyph-name="lessequal" unicode="&#x2264;" horiz-adv-x="556" 
d="M586 626q0 -2 -0.5 -5t-1.5 -8l-11 -48q-3 -13 -20 -20l-381 -155l313 -154q14 -6 14 -17q0 -3 -2 -13l-10 -46q-3 -13 -17 -13q-6 0 -16 5l-366 197q-14 8 -14 20q0 4 1 9l8 34q5 17 20 23l454 199q10 4 15 4t9.5 -3t4.5 -9zM467 59q0 -4 -2 -12l-8 -32q-2 -6 -6 -10.5
t-12 -4.5h-424q-16 0 -16 16q0 3 1 8l8 37q2 6 6.5 10.5t12.5 4.5h423q17 0 17 -17z" />
    <glyph glyph-name="greaterequal" unicode="&#x2265;" horiz-adv-x="556" 
d="M543 414q0 -1 -1 -6l-7 -33q-5 -17 -20 -24l-454 -199q-5 -2 -10 -3t-7 -1q-14 0 -14 12q0 2 2 12l10 46q3 16 20 23l383 155l-314 153q-14 6 -14 17q0 4 2 14l9 43q2 8 7 11.5t11 3.5t16 -5l367 -196q14 -8 14 -21v-2zM467 59q0 -2 -1 -7l-8 -37q-2 -6 -6.5 -10.5
t-12.5 -4.5h-423q-17 0 -17 16v3q0 2 2 8l7 34q2 6 6.5 10.5t12.5 4.5h424q16 0 16 -17z" />
    <glyph glyph-name="dotmath" unicode="&#x22c5;" horiz-adv-x="556" 
d="M353 321q0 -18 -7.5 -33.5t-19.5 -27t-28 -18t-33 -6.5q-26 0 -44.5 18.5t-18.5 43.5q0 18 7 33.5t18.5 27t27 18.5t33.5 7q26 0 45.5 -19t19.5 -44z" />
    <glyph glyph-name="lozenge" unicode="&#x25ca;" horiz-adv-x="797" 
d="M770 357q0 -13 -10 -21l-391 -337q-5 -5 -12.5 -8.5t-13.5 -3.5t-11.5 3.5t-9.5 8.5l-239 326q-4 5 -8 12t-4 13t4 11.5t9 10.5l389 335q5 5 12 9t14 4t12.5 -4t9.5 -9l240 -328q3 -5 6 -11t3 -11zM470 595l-273 -239l175 -244l274 239z" />
    <glyph glyph-name="eight.osf" horiz-adv-x="563" 
d="M556 593q0 -38 -14.5 -69t-39 -56.5t-56.5 -47t-66 -40.5q23 -15 45 -32t39 -36.5t27 -43t10 -53.5q0 -43 -18 -84.5t-52.5 -74t-85.5 -52.5t-117 -20q-47 0 -84 12.5t-62 33.5t-38 49t-13 59q0 44 17 78t44.5 62t63.5 50.5t74 43.5q-37 27 -64 60.5t-27 81.5
q0 39 15.5 76.5t46 66.5t76 47t105.5 18q45 0 78 -11t54.5 -29t31.5 -41.5t10 -47.5zM461 583q0 38 -24.5 57.5t-69.5 19.5q-26 0 -49.5 -9.5t-41 -27t-28 -40.5t-10.5 -50q0 -37 24.5 -63.5t58.5 -49.5q29 16 54.5 33t44.5 36.5t30 42.5t11 51zM392 196q0 23 -8.5 41.5
t-23 34.5t-33.5 29.5t-39 27.5q-31 -17 -59 -35.5t-49 -39.5t-33.5 -46.5t-12.5 -56.5q0 -45 28 -70.5t79 -25.5q30 0 57 10.5t48 29t33.5 44.5t12.5 57z" />
    <glyph glyph-name="seven.osf" horiz-adv-x="510" 
d="M534 498q0 -8 -4.5 -16t-10.5 -16q-54 -74 -110 -154.5t-109 -162.5t-101 -162.5t-86 -153.5q-5 -9 -11 -15t-17 -6h-95q-20 0 -20 20q0 10 10 23l408 566h-298q-17 0 -17 17v3q0 2 2 8l12 54q2 6 6.5 10.5t12.5 4.5h407q21 0 21 -20z" />
    <glyph glyph-name="six.osf" horiz-adv-x="564" 
d="M575 691q0 -27 -37 -36q-48 -11 -97 -32.5t-93.5 -55.5t-82 -79.5t-62.5 -104.5q29 20 65 33.5t81 13.5q37 0 67 -12t51 -34t32 -52.5t11 -67.5q0 -57 -19.5 -108t-55 -88.5t-85.5 -59.5t-111 -22q-47 0 -82.5 15t-59.5 41.5t-36 63.5t-12 81q0 108 43.5 204t119.5 170
q44 42 91.5 72.5t91.5 49.5t81.5 28t61.5 9q37 0 37 -29zM403 257q0 45 -23 74.5t-74 29.5q-35 0 -69.5 -12.5t-58.5 -30.5q-11 -38 -16.5 -73t-5.5 -65q0 -55 21.5 -89t73.5 -34q36 0 64 19.5t47.5 49t30 64.5t10.5 67z" />
    <glyph glyph-name="five.osf" horiz-adv-x="529" 
d="M502 500q0 -1 -1 -6l-12 -57q-2 -6 -6.5 -11t-12.5 -5h-260l-58 -200q19 9 47.5 16.5t58.5 7.5q41 0 75 -12t58.5 -33.5t38 -52.5t13.5 -68q0 -50 -17.5 -100.5t-53.5 -90.5t-90 -65t-127 -25q-36 0 -68 9.5t-56 25t-38 35.5t-14 42q0 23 14.5 38.5t38.5 15.5
q34 0 50 -33q11 -23 33 -40t60 -17q36 0 64.5 16t48.5 41t30.5 56t10.5 62q0 53 -33.5 84t-99.5 31q-21 0 -40 -4t-34.5 -9t-27.5 -9t-20 -4q-23 0 -23 19q0 6 3 15l96 330q4 16 21 16h315q16 0 16 -16v-2z" />
    <glyph glyph-name="four.osf" horiz-adv-x="557" 
d="M484 502q0 -4 -1 -9l-90 -428h71q16 0 16 -17q0 -2 -1 -6.5t-6 -26.5q-2 -6 -6.5 -10.5t-12.5 -4.5h-74l-37 -173q-2 -6 -6.5 -10.5t-12.5 -4.5h-70q-16 0 -16 16q0 4 1 9l35 163h-260q-14 0 -22.5 7.5t-8.5 19.5q0 18 19 39l390 436q15 16 32 16h44q16 0 16 -16z
M365 401q-7 -9 -24 -32t-43 -53l-218 -251h209l52 241q7 31 14 55t12 40h-2z" />
    <glyph glyph-name="three.osf" horiz-adv-x="521" 
d="M473 399q0 -33 -12.5 -61.5t-33 -53t-47.5 -43.5t-56 -32v-2q44 -19 74.5 -56t30.5 -94q0 -41 -17 -86.5t-52 -83.5t-89 -63.5t-128 -25.5q-36 0 -68.5 9.5t-56.5 25t-38 35.5t-14 42q0 23 15 38.5t39 15.5q33 0 49 -33q11 -23 33.5 -40t59.5 -17q34 0 62 14.5t48 37
t31 51t11 56.5t-10.5 49.5t-28.5 37t-41 25.5t-48 16q-23 5 -23 25q0 21 27 30q31 10 61 23.5t54 33t38.5 45t14.5 58.5q0 35 -22.5 54t-62.5 19q-25 0 -46 -8t-38 -21.5t-30.5 -31.5t-22.5 -37q-14 -28 -40 -28q-14 0 -21 9t-7 23q0 21 14.5 51.5t44 58t74.5 47.5t105 20
q42 0 73 -11t52 -29t31.5 -42t10.5 -51z" />
    <glyph glyph-name="two.osf" horiz-adv-x="501" 
d="M463 406q0 -54 -28 -92.5t-69 -69.5l-193 -145v-2h233q15 0 15 -14q0 -3 -1 -8l-13 -59q-3 -16 -19 -16h-374q-8 0 -14.5 5.5t-6.5 14.5q0 15 15 27l269 216q28 23 50 51t22 66q0 32 -20 50.5t-63 18.5q-46 0 -79 -29t-53 -69q-13 -28 -38 -28q-27 0 -27 31q0 20 14 50.5
t42.5 59t71.5 48.5t102 20q42 0 73 -11.5t51 -29.5t30 -40.5t10 -44.5z" />
    <glyph glyph-name="one.osf" horiz-adv-x="414" 
d="M365 501q0 -2 -2 -10l-102 -476q-2 -6 -6.5 -10.5t-12.5 -4.5h-75q-16 0 -16 16q0 4 1 9l75 355q-20 -11 -42.5 -19.5t-44 -14.5t-39.5 -9.5t-28 -3.5q-29 0 -29 28t32 36q57 14 115.5 42.5t109.5 73.5q16 15 37 15q27 0 27 -23v-4z" />
    <glyph glyph-name="zero.osf" horiz-adv-x="565" 
d="M522 328q0 -68 -22 -130t-60.5 -109t-91.5 -75t-115 -28q-41 0 -75 14.5t-58.5 41t-38 64t-13.5 84.5q0 68 22 130t61 109t92 75t115 28q41 0 75 -14.5t58 -41.5t37.5 -64.5t13.5 -83.5zM413 349q0 54 -21 85.5t-63 31.5q-59 0 -104 -62q-16 -22 -28.5 -49.5t-21 -57.5
t-13 -60.5t-4.5 -58.5q0 -55 21.5 -85.5t63.5 -30.5q64 0 110 71q14 21 25 48t19 56t12 57.5t4 54.5z" />
    <glyph glyph-name="nine.osf" horiz-adv-x="564" 
d="M519 330q0 -107 -43.5 -203t-119.5 -170q-44 -42 -91.5 -72.5t-91.5 -49.5t-81 -28t-61 -9q-37 0 -37 29q0 26 37 35q48 11 97 32.5t93 55.5t81.5 79.5t62.5 104.5q-29 -20 -65.5 -33t-80.5 -13q-38 0 -67.5 12t-50.5 34t-32 52.5t-11 67.5q0 57 19.5 107.5t55 88.5
t85.5 60t111 22q46 0 81.5 -15t59.5 -42t36.5 -64t12.5 -81zM413 339q0 55 -21.5 89.5t-73.5 34.5q-36 0 -64 -19.5t-47.5 -49t-30 -64.5t-10.5 -67q0 -45 23 -74t74 -29q35 0 69.5 12t58.5 30q11 38 16.5 72.5t5.5 64.5z" />
    <glyph glyph-name="gravecomb.case" 
d="M-215 782q0 -13 -13 -13h-30q-8 0 -12.5 4t-9.5 9l-83 101q-2 2 -3.5 6t-1.5 6q0 11 14.5 17t32.5 6q17 0 36.5 -5.5t26.5 -22.5l39 -94q1 -2 2.5 -6.5t1.5 -7.5z" />
    <glyph glyph-name="acutecomb.case" 
d="M-99 899q0 -7 -7 -14l-135 -108q-4 -3 -9.5 -5.5t-10.5 -2.5h-32q-12 0 -12 12q0 6 5 11l82 98q14 17 36 22.5t43 5.5q17 0 28.5 -5.5t11.5 -13.5z" />
    <glyph glyph-name="uni0302.case" 
d="M-119 786q0 -9 -7 -16t-17 -7q-7 0 -12.5 3t-9.5 6l-64 50q-8 6 -17 6q-5 0 -10 -2t-9 -4l-86 -50q-5 -3 -12 -6t-13 -3q-9 0 -15 5t-6 13t6 14t14 11q32 20 60.5 43t57.5 54q5 5 12.5 9.5t16.5 4.5t14 -4.5t8 -9.5q16 -31 35 -54t43 -43q11 -9 11 -20z" />
    <glyph glyph-name="tildecomb.case" 
d="M-99 877q0 -8 -5.5 -24.5t-17.5 -33.5t-31.5 -29.5t-47.5 -12.5q-21 0 -33 8.5t-21.5 18t-19 18t-25.5 8.5t-25.5 -8.5t-17 -19t-14.5 -19t-17 -8.5q-18 0 -18 18q0 9 5.5 25.5t18 33t32 29t46.5 12.5q21 0 33 -8.5t21 -18t18.5 -18t25.5 -8.5t25.5 8.5t17 19t14.5 19
t18 8.5q18 0 18 -18z" />
    <glyph glyph-name="uni030A.case" 
d="M50 863q0 -21 -8.5 -40t-23 -33.5t-34 -22.5t-40.5 -8q-33 0 -55 22t-22 53q0 21 8.5 40t23 33t34 22.5t40.5 8.5q33 0 55 -22t22 -53zM3 856q0 15 -9.5 27t-26.5 12q-21 0 -37 -16t-16 -37q0 -16 10 -27t27 -11q21 0 36.5 15.5t15.5 36.5z" />
    <glyph glyph-name="uni030C.case" 
d="M16 900q0 -8 -6.5 -14t-14.5 -11q-32 -20 -60.5 -43t-57.5 -54q-5 -5 -12 -9.5t-16 -4.5t-14 4.5t-8 9.5q-16 31 -35.5 54.5t-43.5 43.5q-10 8 -10 19q0 9 6 16t17 7q7 0 12.5 -3t9.5 -6l64 -48q10 -7 18 -7t21 7l83 48q5 3 12.5 6t13.5 3q21 0 21 -18z" />
    <glyph glyph-name="diedot.case.comp" 
d="M-280 833q0 -25 -19.5 -42t-44.5 -17q-20 0 -33.5 13.5t-13.5 31.5q0 25 19.5 42.5t44.5 17.5q20 0 33.5 -14t13.5 -32z" />
    <glyph glyph-name="diedot.comp" 
d="M-240 645q0 -25 -19.5 -42t-44.5 -17q-20 0 -33.5 13.5t-13.5 31.5q0 25 19.5 42.5t44.5 17.5q20 0 33.5 -14t13.5 -32z" />
    </font>
</defs>
</svg>
